G04 #@! TF.FileFunction,Legend,Top*
%FSLAX46Y46*%
G04 Gerber Fmt 4.6, Leading zero omitted, Abs format (unit mm)*
G04 Created by KiCad (PCBNEW (2015-01-16 BZR 5376)-product) date 22/05/2015 17:40:37*
%MOMM*%
G01*
G04 APERTURE LIST*
%ADD10C,0.150000*%
%ADD11C,0.250000*%
%ADD12C,0.200000*%
%ADD13C,0.300000*%
%ADD14C,0.100000*%
%ADD15C,0.304800*%
%ADD16C,0.203200*%
%ADD17C,0.127000*%
%ADD18C,0.119380*%
%ADD19C,0.078740*%
G04 APERTURE END LIST*
D10*
D11*
X72928572Y2571429D02*
X72595238Y2571429D01*
X72595238Y2047619D02*
X72595238Y3047619D01*
X73071429Y3047619D01*
X73452381Y2047619D02*
X73452381Y3047619D01*
X73928571Y2047619D02*
X73928571Y3047619D01*
X74166666Y3047619D01*
X74309524Y3000000D01*
X74404762Y2904762D01*
X74452381Y2809524D01*
X74500000Y2619048D01*
X74500000Y2476190D01*
X74452381Y2285714D01*
X74404762Y2190476D01*
X74309524Y2095238D01*
X74166666Y2047619D01*
X73928571Y2047619D01*
X74880952Y2952381D02*
X74928571Y3000000D01*
X75023809Y3047619D01*
X75261905Y3047619D01*
X75357143Y3000000D01*
X75404762Y2952381D01*
X75452381Y2857143D01*
X75452381Y2761905D01*
X75404762Y2619048D01*
X74833333Y2047619D01*
X75452381Y2047619D01*
X2428572Y36071429D02*
X2095238Y36071429D01*
X2095238Y35547619D02*
X2095238Y36547619D01*
X2571429Y36547619D01*
X2952381Y35547619D02*
X2952381Y36547619D01*
X3428571Y35547619D02*
X3428571Y36547619D01*
X3666666Y36547619D01*
X3809524Y36500000D01*
X3904762Y36404762D01*
X3952381Y36309524D01*
X4000000Y36119048D01*
X4000000Y35976190D01*
X3952381Y35785714D01*
X3904762Y35690476D01*
X3809524Y35595238D01*
X3666666Y35547619D01*
X3428571Y35547619D01*
X4333333Y36547619D02*
X4952381Y36547619D01*
X4619047Y36166667D01*
X4761905Y36166667D01*
X4857143Y36119048D01*
X4904762Y36071429D01*
X4952381Y35976190D01*
X4952381Y35738095D01*
X4904762Y35642857D01*
X4857143Y35595238D01*
X4761905Y35547619D01*
X4476190Y35547619D01*
X4380952Y35595238D01*
X4333333Y35642857D01*
X2428572Y71429D02*
X2095238Y71429D01*
X2095238Y-452381D02*
X2095238Y547619D01*
X2571429Y547619D01*
X2952381Y-452381D02*
X2952381Y547619D01*
X3428571Y-452381D02*
X3428571Y547619D01*
X3666666Y547619D01*
X3809524Y500000D01*
X3904762Y404762D01*
X3952381Y309524D01*
X4000000Y119048D01*
X4000000Y-23810D01*
X3952381Y-214286D01*
X3904762Y-309524D01*
X3809524Y-404762D01*
X3666666Y-452381D01*
X3428571Y-452381D01*
X4952381Y-452381D02*
X4380952Y-452381D01*
X4666666Y-452381D02*
X4666666Y547619D01*
X4571428Y404762D01*
X4476190Y309524D01*
X4380952Y261905D01*
D12*
X20000000Y31000000D02*
G75*
G03X20000000Y31000000I-500000J0D01*
G01*
X45207107Y25000000D02*
G75*
G03X45207107Y25000000I-707107J0D01*
G01*
D13*
X35857143Y36521429D02*
X35857143Y38021429D01*
X35857143Y37307143D02*
X36714286Y37307143D01*
X36714286Y36521429D02*
X36714286Y38021429D01*
X38071429Y36521429D02*
X38071429Y37307143D01*
X38000000Y37450000D01*
X37857143Y37521429D01*
X37571429Y37521429D01*
X37428572Y37450000D01*
X38071429Y36592857D02*
X37928572Y36521429D01*
X37571429Y36521429D01*
X37428572Y36592857D01*
X37357143Y36735714D01*
X37357143Y36878571D01*
X37428572Y37021429D01*
X37571429Y37092857D01*
X37928572Y37092857D01*
X38071429Y37164286D01*
X38785715Y36521429D02*
X38785715Y37521429D01*
X38785715Y37235714D02*
X38857143Y37378571D01*
X38928572Y37450000D01*
X39071429Y37521429D01*
X39214286Y37521429D01*
X39571429Y37521429D02*
X39928572Y36521429D01*
X40285714Y37521429D01*
X41428571Y36592857D02*
X41285714Y36521429D01*
X41000000Y36521429D01*
X40857143Y36592857D01*
X40785714Y36735714D01*
X40785714Y37307143D01*
X40857143Y37450000D01*
X41000000Y37521429D01*
X41285714Y37521429D01*
X41428571Y37450000D01*
X41500000Y37307143D01*
X41500000Y37164286D01*
X40785714Y37021429D01*
X42071428Y36592857D02*
X42214285Y36521429D01*
X42500000Y36521429D01*
X42642857Y36592857D01*
X42714285Y36735714D01*
X42714285Y36807143D01*
X42642857Y36950000D01*
X42500000Y37021429D01*
X42285714Y37021429D01*
X42142857Y37092857D01*
X42071428Y37235714D01*
X42071428Y37307143D01*
X42142857Y37450000D01*
X42285714Y37521429D01*
X42500000Y37521429D01*
X42642857Y37450000D01*
X43142857Y37521429D02*
X43714286Y37521429D01*
X43357143Y38021429D02*
X43357143Y36735714D01*
X43428571Y36592857D01*
X43571429Y36521429D01*
X43714286Y36521429D01*
X45000000Y37950000D02*
X44857143Y38021429D01*
X44642857Y38021429D01*
X44428572Y37950000D01*
X44285714Y37807143D01*
X44214286Y37664286D01*
X44142857Y37378571D01*
X44142857Y37164286D01*
X44214286Y36878571D01*
X44285714Y36735714D01*
X44428572Y36592857D01*
X44642857Y36521429D01*
X44785714Y36521429D01*
X45000000Y36592857D01*
X45071429Y36664286D01*
X45071429Y37164286D01*
X44785714Y37164286D01*
X46285714Y36592857D02*
X46142857Y36521429D01*
X45857143Y36521429D01*
X45714286Y36592857D01*
X45642857Y36735714D01*
X45642857Y37307143D01*
X45714286Y37450000D01*
X45857143Y37521429D01*
X46142857Y37521429D01*
X46285714Y37450000D01*
X46357143Y37307143D01*
X46357143Y37164286D01*
X45642857Y37021429D01*
X47571428Y36592857D02*
X47428571Y36521429D01*
X47142857Y36521429D01*
X47000000Y36592857D01*
X46928571Y36735714D01*
X46928571Y37307143D01*
X47000000Y37450000D01*
X47142857Y37521429D01*
X47428571Y37521429D01*
X47571428Y37450000D01*
X47642857Y37307143D01*
X47642857Y37164286D01*
X46928571Y37021429D01*
X48285714Y36521429D02*
X48285714Y38021429D01*
X48428571Y37092857D02*
X48857142Y36521429D01*
X48857142Y37521429D02*
X48285714Y36950000D01*
X35785714Y34192857D02*
X36000000Y34121429D01*
X36357143Y34121429D01*
X36500000Y34192857D01*
X36571429Y34264286D01*
X36642857Y34407143D01*
X36642857Y34550000D01*
X36571429Y34692857D01*
X36500000Y34764286D01*
X36357143Y34835714D01*
X36071429Y34907143D01*
X35928571Y34978571D01*
X35857143Y35050000D01*
X35785714Y35192857D01*
X35785714Y35335714D01*
X35857143Y35478571D01*
X35928571Y35550000D01*
X36071429Y35621429D01*
X36428571Y35621429D01*
X36642857Y35550000D01*
X37857142Y34192857D02*
X37714285Y34121429D01*
X37428571Y34121429D01*
X37285714Y34192857D01*
X37214285Y34335714D01*
X37214285Y34907143D01*
X37285714Y35050000D01*
X37428571Y35121429D01*
X37714285Y35121429D01*
X37857142Y35050000D01*
X37928571Y34907143D01*
X37928571Y34764286D01*
X37214285Y34621429D01*
X38571428Y35121429D02*
X38571428Y34121429D01*
X38571428Y34978571D02*
X38642856Y35050000D01*
X38785714Y35121429D01*
X38999999Y35121429D01*
X39142856Y35050000D01*
X39214285Y34907143D01*
X39214285Y34121429D01*
X39857142Y34192857D02*
X39999999Y34121429D01*
X40285714Y34121429D01*
X40428571Y34192857D01*
X40499999Y34335714D01*
X40499999Y34407143D01*
X40428571Y34550000D01*
X40285714Y34621429D01*
X40071428Y34621429D01*
X39928571Y34692857D01*
X39857142Y34835714D01*
X39857142Y34907143D01*
X39928571Y35050000D01*
X40071428Y35121429D01*
X40285714Y35121429D01*
X40428571Y35050000D01*
X41357143Y34121429D02*
X41214285Y34192857D01*
X41142857Y34264286D01*
X41071428Y34407143D01*
X41071428Y34835714D01*
X41142857Y34978571D01*
X41214285Y35050000D01*
X41357143Y35121429D01*
X41571428Y35121429D01*
X41714285Y35050000D01*
X41785714Y34978571D01*
X41857143Y34835714D01*
X41857143Y34407143D01*
X41785714Y34264286D01*
X41714285Y34192857D01*
X41571428Y34121429D01*
X41357143Y34121429D01*
X42500000Y34121429D02*
X42500000Y35121429D01*
X42500000Y34835714D02*
X42571428Y34978571D01*
X42642857Y35050000D01*
X42785714Y35121429D01*
X42928571Y35121429D01*
X44499999Y34192857D02*
X44714285Y34121429D01*
X45071428Y34121429D01*
X45214285Y34192857D01*
X45285714Y34264286D01*
X45357142Y34407143D01*
X45357142Y34550000D01*
X45285714Y34692857D01*
X45214285Y34764286D01*
X45071428Y34835714D01*
X44785714Y34907143D01*
X44642856Y34978571D01*
X44571428Y35050000D01*
X44499999Y35192857D01*
X44499999Y35335714D01*
X44571428Y35478571D01*
X44642856Y35550000D01*
X44785714Y35621429D01*
X45142856Y35621429D01*
X45357142Y35550000D01*
X45785713Y35121429D02*
X46357142Y35121429D01*
X45999999Y35621429D02*
X45999999Y34335714D01*
X46071427Y34192857D01*
X46214285Y34121429D01*
X46357142Y34121429D01*
X47499999Y34121429D02*
X47499999Y34907143D01*
X47428570Y35050000D01*
X47285713Y35121429D01*
X46999999Y35121429D01*
X46857142Y35050000D01*
X47499999Y34192857D02*
X47357142Y34121429D01*
X46999999Y34121429D01*
X46857142Y34192857D01*
X46785713Y34335714D01*
X46785713Y34478571D01*
X46857142Y34621429D01*
X46999999Y34692857D01*
X47357142Y34692857D01*
X47499999Y34764286D01*
X47999999Y35121429D02*
X48571428Y35121429D01*
X48214285Y35621429D02*
X48214285Y34335714D01*
X48285713Y34192857D01*
X48428571Y34121429D01*
X48571428Y34121429D01*
X49071428Y34121429D02*
X49071428Y35121429D01*
X49071428Y35621429D02*
X48999999Y35550000D01*
X49071428Y35478571D01*
X49142856Y35550000D01*
X49071428Y35621429D01*
X49071428Y35478571D01*
X50000000Y34121429D02*
X49857142Y34192857D01*
X49785714Y34264286D01*
X49714285Y34407143D01*
X49714285Y34835714D01*
X49785714Y34978571D01*
X49857142Y35050000D01*
X50000000Y35121429D01*
X50214285Y35121429D01*
X50357142Y35050000D01*
X50428571Y34978571D01*
X50500000Y34835714D01*
X50500000Y34407143D01*
X50428571Y34264286D01*
X50357142Y34192857D01*
X50214285Y34121429D01*
X50000000Y34121429D01*
X51142857Y35121429D02*
X51142857Y34121429D01*
X51142857Y34978571D02*
X51214285Y35050000D01*
X51357143Y35121429D01*
X51571428Y35121429D01*
X51714285Y35050000D01*
X51785714Y34907143D01*
X51785714Y34121429D01*
X54500000Y34121429D02*
X54000000Y34835714D01*
X53642857Y34121429D02*
X53642857Y35621429D01*
X54214285Y35621429D01*
X54357143Y35550000D01*
X54428571Y35478571D01*
X54500000Y35335714D01*
X54500000Y35121429D01*
X54428571Y34978571D01*
X54357143Y34907143D01*
X54214285Y34835714D01*
X53642857Y34835714D01*
X55714285Y34192857D02*
X55571428Y34121429D01*
X55285714Y34121429D01*
X55142857Y34192857D01*
X55071428Y34335714D01*
X55071428Y34907143D01*
X55142857Y35050000D01*
X55285714Y35121429D01*
X55571428Y35121429D01*
X55714285Y35050000D01*
X55785714Y34907143D01*
X55785714Y34764286D01*
X55071428Y34621429D01*
X56285714Y35121429D02*
X56642857Y34121429D01*
X56999999Y35121429D01*
X59499999Y34121429D02*
X58642856Y34121429D01*
X59071428Y34121429D02*
X59071428Y35621429D01*
X58928571Y35407143D01*
X58785713Y35264286D01*
X58642856Y35192857D01*
X60142856Y34264286D02*
X60214284Y34192857D01*
X60142856Y34121429D01*
X60071427Y34192857D01*
X60142856Y34264286D01*
X60142856Y34121429D01*
X60785713Y35478571D02*
X60857142Y35550000D01*
X60999999Y35621429D01*
X61357142Y35621429D01*
X61499999Y35550000D01*
X61571428Y35478571D01*
X61642856Y35335714D01*
X61642856Y35192857D01*
X61571428Y34978571D01*
X60714285Y34121429D01*
X61642856Y34121429D01*
D14*
X79767400Y39916100D02*
X-6110000Y39916100D01*
X83767900Y35915600D02*
G75*
G03X79767400Y39916100I-4000500J0D01*
G01*
X83767900Y0D02*
X83767900Y35915600D01*
X79767400Y-4000500D02*
G75*
G03X83767900Y0I0J4000500D01*
G01*
X-6110000Y-4000500D02*
X79767400Y-4000500D01*
X-10110500Y0D02*
G75*
G03X-6110000Y-4000500I4000500J0D01*
G01*
X-10110500Y35915600D02*
X-10110500Y0D01*
X-6110000Y39916100D02*
G75*
G03X-10110500Y35915600I0J-4000500D01*
G01*
D12*
X4476056Y17080478D02*
G75*
G03X4476056Y17080478I-180278J0D01*
G01*
X18578718Y33707818D02*
X18578718Y33657818D01*
X17678718Y34607818D02*
X18578718Y33707818D01*
X14228718Y34657818D02*
X14428718Y34657818D01*
X13178718Y33607818D02*
X14228718Y34657818D01*
X39268718Y18617818D02*
G75*
G03X39268718Y18617818I-250000J0D01*
G01*
D15*
X31432518Y21161618D02*
X31432518Y11154018D01*
X31432518Y11154018D02*
X21424918Y11154018D01*
X21424918Y20679018D02*
X21424918Y11154018D01*
X21907518Y21161618D02*
X31432518Y21161618D01*
X21424918Y20679018D02*
X21907518Y21161618D01*
D16*
X23253718Y19967818D02*
G75*
G03X23253718Y19967818I-635000J0D01*
G01*
D17*
X15328338Y17656318D02*
X14622218Y17656318D01*
X14622218Y17656318D02*
X14622218Y16259318D01*
X14622218Y16259318D02*
X15328338Y16259318D01*
X17035218Y17656318D02*
X16329098Y17656318D01*
X17035218Y17656318D02*
X17035218Y16259318D01*
X17035218Y16259318D02*
X16329098Y16259318D01*
X55728338Y30056318D02*
X55022218Y30056318D01*
X55022218Y30056318D02*
X55022218Y28659318D01*
X55022218Y28659318D02*
X55728338Y28659318D01*
X57435218Y30056318D02*
X56729098Y30056318D01*
X57435218Y30056318D02*
X57435218Y28659318D01*
X57435218Y28659318D02*
X56729098Y28659318D01*
X41329098Y15059318D02*
X42035218Y15059318D01*
X42035218Y15059318D02*
X42035218Y16456318D01*
X42035218Y16456318D02*
X41329098Y16456318D01*
X39622218Y15059318D02*
X40328338Y15059318D01*
X39622218Y15059318D02*
X39622218Y16456318D01*
X39622218Y16456318D02*
X40328338Y16456318D01*
X43529098Y19559318D02*
X44235218Y19559318D01*
X44235218Y19559318D02*
X44235218Y20956318D01*
X44235218Y20956318D02*
X43529098Y20956318D01*
X41822218Y19559318D02*
X42528338Y19559318D01*
X41822218Y19559318D02*
X41822218Y20956318D01*
X41822218Y20956318D02*
X42528338Y20956318D01*
X15928338Y28756318D02*
X15222218Y28756318D01*
X15222218Y28756318D02*
X15222218Y27359318D01*
X15222218Y27359318D02*
X15928338Y27359318D01*
X17635218Y28756318D02*
X16929098Y28756318D01*
X17635218Y28756318D02*
X17635218Y27359318D01*
X17635218Y27359318D02*
X16929098Y27359318D01*
X31630218Y22857438D02*
X31630218Y22151318D01*
X31630218Y22151318D02*
X33027218Y22151318D01*
X33027218Y22151318D02*
X33027218Y22857438D01*
X31630218Y24564318D02*
X31630218Y23858198D01*
X31630218Y24564318D02*
X33027218Y24564318D01*
X33027218Y24564318D02*
X33027218Y23858198D01*
X19628338Y9256318D02*
X18922218Y9256318D01*
X18922218Y9256318D02*
X18922218Y7859318D01*
X18922218Y7859318D02*
X19628338Y7859318D01*
X21335218Y9256318D02*
X20629098Y9256318D01*
X21335218Y9256318D02*
X21335218Y7859318D01*
X21335218Y7859318D02*
X20629098Y7859318D01*
X44229098Y13259318D02*
X44935218Y13259318D01*
X44935218Y13259318D02*
X44935218Y14656318D01*
X44935218Y14656318D02*
X44229098Y14656318D01*
X42522218Y13259318D02*
X43228338Y13259318D01*
X42522218Y13259318D02*
X42522218Y14656318D01*
X42522218Y14656318D02*
X43228338Y14656318D01*
X15328338Y19256318D02*
X14622218Y19256318D01*
X14622218Y19256318D02*
X14622218Y17859318D01*
X14622218Y17859318D02*
X15328338Y17859318D01*
X17035218Y19256318D02*
X16329098Y19256318D01*
X17035218Y19256318D02*
X17035218Y17859318D01*
X17035218Y17859318D02*
X16329098Y17859318D01*
X54028338Y27056318D02*
X53322218Y27056318D01*
X53322218Y27056318D02*
X53322218Y25659318D01*
X53322218Y25659318D02*
X54028338Y25659318D01*
X55735218Y27056318D02*
X55029098Y27056318D01*
X55735218Y27056318D02*
X55735218Y25659318D01*
X55735218Y25659318D02*
X55029098Y25659318D01*
X56728338Y18556318D02*
X56022218Y18556318D01*
X56022218Y18556318D02*
X56022218Y17159318D01*
X56022218Y17159318D02*
X56728338Y17159318D01*
X58435218Y18556318D02*
X57729098Y18556318D01*
X58435218Y18556318D02*
X58435218Y17159318D01*
X58435218Y17159318D02*
X57729098Y17159318D01*
D18*
X39928338Y20908058D02*
X39229838Y20908058D01*
X40929098Y20908058D02*
X41627598Y20908058D01*
X39928338Y19607578D02*
X39229838Y19607578D01*
X41627598Y19607578D02*
X40929098Y19607578D01*
X39229838Y19622818D02*
X39229838Y20892818D01*
X41627598Y20892818D02*
X41627598Y19622818D01*
X24378958Y25358198D02*
X24378958Y26056698D01*
X24378958Y24357438D02*
X24378958Y23658938D01*
X23078478Y25358198D02*
X23078478Y26056698D01*
X23078478Y23658938D02*
X23078478Y24357438D01*
X23093718Y26056698D02*
X24363718Y26056698D01*
X24363718Y23658938D02*
X23093718Y23658938D01*
X24529098Y7907578D02*
X25227598Y7907578D01*
X23528338Y7907578D02*
X22829838Y7907578D01*
X24529098Y9208058D02*
X25227598Y9208058D01*
X22829838Y9208058D02*
X23528338Y9208058D01*
X25227598Y9192818D02*
X25227598Y7922818D01*
X22829838Y7922818D02*
X22829838Y9192818D01*
X34378478Y11557438D02*
X34378478Y10858938D01*
X34378478Y12558198D02*
X34378478Y13256698D01*
X35678958Y11557438D02*
X35678958Y10858938D01*
X35678958Y13256698D02*
X35678958Y12558198D01*
X35663718Y10858938D02*
X34393718Y10858938D01*
X34393718Y13256698D02*
X35663718Y13256698D01*
X31078958Y25358198D02*
X31078958Y26056698D01*
X31078958Y24357438D02*
X31078958Y23658938D01*
X29778478Y25358198D02*
X29778478Y26056698D01*
X29778478Y23658938D02*
X29778478Y24357438D01*
X29793718Y26056698D02*
X31063718Y26056698D01*
X31063718Y23658938D02*
X29793718Y23658938D01*
X22878958Y25358198D02*
X22878958Y26056698D01*
X22878958Y24357438D02*
X22878958Y23658938D01*
X21578478Y25358198D02*
X21578478Y26056698D01*
X21578478Y23658938D02*
X21578478Y24357438D01*
X21593718Y26056698D02*
X22863718Y26056698D01*
X22863718Y23658938D02*
X21593718Y23658938D01*
X16929098Y28907578D02*
X17627598Y28907578D01*
X15928338Y28907578D02*
X15229838Y28907578D01*
X16929098Y30208058D02*
X17627598Y30208058D01*
X15229838Y30208058D02*
X15928338Y30208058D01*
X17627598Y30192818D02*
X17627598Y28922818D01*
X15229838Y28922818D02*
X15229838Y30192818D01*
X54028338Y28508058D02*
X53329838Y28508058D01*
X55029098Y28508058D02*
X55727598Y28508058D01*
X54028338Y27207578D02*
X53329838Y27207578D01*
X55727598Y27207578D02*
X55029098Y27207578D01*
X53329838Y27222818D02*
X53329838Y28492818D01*
X55727598Y28492818D02*
X55727598Y27222818D01*
X51478338Y27058058D02*
X50779838Y27058058D01*
X52479098Y27058058D02*
X53177598Y27058058D01*
X51478338Y25757578D02*
X50779838Y25757578D01*
X53177598Y25757578D02*
X52479098Y25757578D01*
X50779838Y25772818D02*
X50779838Y27042818D01*
X53177598Y27042818D02*
X53177598Y25772818D01*
X57729098Y19007578D02*
X58427598Y19007578D01*
X56728338Y19007578D02*
X56029838Y19007578D01*
X57729098Y20308058D02*
X58427598Y20308058D01*
X56029838Y20308058D02*
X56728338Y20308058D01*
X58427598Y20292818D02*
X58427598Y19022818D01*
X56029838Y19022818D02*
X56029838Y20292818D01*
X79407398Y4202258D02*
X80105898Y4202258D01*
X78406638Y4202258D02*
X77708138Y4202258D01*
X79407398Y5502738D02*
X80105898Y5502738D01*
X77708138Y5502738D02*
X78406638Y5502738D01*
X80105898Y5487498D02*
X80105898Y4217498D01*
X77708138Y4217498D02*
X77708138Y5487498D01*
X14628338Y25508058D02*
X13929838Y25508058D01*
X15629098Y25508058D02*
X16327598Y25508058D01*
X14628338Y24207578D02*
X13929838Y24207578D01*
X16327598Y24207578D02*
X15629098Y24207578D01*
X13929838Y24222818D02*
X13929838Y25492818D01*
X16327598Y25492818D02*
X16327598Y24222818D01*
X21378958Y25358198D02*
X21378958Y26056698D01*
X21378958Y24357438D02*
X21378958Y23658938D01*
X20078478Y25358198D02*
X20078478Y26056698D01*
X20078478Y23658938D02*
X20078478Y24357438D01*
X20093718Y26056698D02*
X21363718Y26056698D01*
X21363718Y23658938D02*
X20093718Y23658938D01*
X62629098Y28707578D02*
X63327598Y28707578D01*
X61628338Y28707578D02*
X60929838Y28707578D01*
X62629098Y30008058D02*
X63327598Y30008058D01*
X60929838Y30008058D02*
X61628338Y30008058D01*
X63327598Y29992818D02*
X63327598Y28722818D01*
X60929838Y28722818D02*
X60929838Y29992818D01*
X59028338Y30008058D02*
X58329838Y30008058D01*
X60029098Y30008058D02*
X60727598Y30008058D01*
X59028338Y28707578D02*
X58329838Y28707578D01*
X60727598Y28707578D02*
X60029098Y28707578D01*
X58329838Y28722818D02*
X58329838Y29992818D01*
X60727598Y29992818D02*
X60727598Y28722818D01*
X30228338Y2808058D02*
X29529838Y2808058D01*
X31229098Y2808058D02*
X31927598Y2808058D01*
X30228338Y1507578D02*
X29529838Y1507578D01*
X31927598Y1507578D02*
X31229098Y1507578D01*
X29529838Y1522818D02*
X29529838Y2792818D01*
X31927598Y2792818D02*
X31927598Y1522818D01*
X19078958Y29458198D02*
X19078958Y30156698D01*
X19078958Y28457438D02*
X19078958Y27758938D01*
X17778478Y29458198D02*
X17778478Y30156698D01*
X17778478Y27758938D02*
X17778478Y28457438D01*
X17793718Y30156698D02*
X19063718Y30156698D01*
X19063718Y27758938D02*
X17793718Y27758938D01*
X15328338Y16108058D02*
X14629838Y16108058D01*
X16329098Y16108058D02*
X17027598Y16108058D01*
X15328338Y14807578D02*
X14629838Y14807578D01*
X17027598Y14807578D02*
X16329098Y14807578D01*
X14629838Y14822818D02*
X14629838Y16092818D01*
X17027598Y16092818D02*
X17027598Y14822818D01*
X28029098Y1507578D02*
X28727598Y1507578D01*
X27028338Y1507578D02*
X26329838Y1507578D01*
X28029098Y2808058D02*
X28727598Y2808058D01*
X26329838Y2808058D02*
X27028338Y2808058D01*
X28727598Y2792818D02*
X28727598Y1522818D01*
X26329838Y1522818D02*
X26329838Y2792818D01*
D10*
X55761618Y5404018D02*
X71761618Y5404018D01*
X71761618Y26404018D02*
X55761618Y26404018D01*
X55761618Y26404018D02*
X55761618Y-3595982D01*
X55761618Y-3595982D02*
X71761618Y-3595982D01*
X71761618Y-3595982D02*
X71761618Y26404018D01*
X25528718Y1357818D02*
X36928718Y1357818D01*
X36928718Y1357818D02*
X36928718Y-3442182D01*
X36928718Y-3442182D02*
X25528718Y-3442182D01*
X25528718Y-3442182D02*
X25528718Y1357818D01*
X-10103962Y21705278D02*
X-10103962Y14205278D01*
X-10103962Y14205278D02*
X-5103962Y14205278D01*
X-5103962Y14205278D02*
X-5103962Y21705278D01*
X-5103962Y21705278D02*
X-10103962Y21705278D01*
D16*
X11488718Y2647818D02*
X11488718Y10267818D01*
X16568718Y10267818D02*
X16568718Y2647818D01*
X16568718Y2647818D02*
X11488718Y2647818D01*
X11488718Y10267818D02*
X16568718Y10267818D01*
D18*
X14978958Y22558198D02*
X14978958Y23256698D01*
X14978958Y21557438D02*
X14978958Y20858938D01*
X13678478Y22558198D02*
X13678478Y23256698D01*
X13678478Y20858938D02*
X13678478Y21557438D01*
X13693718Y23256698D02*
X14963718Y23256698D01*
X14963718Y20858938D02*
X13693718Y20858938D01*
D17*
X14685718Y20692818D02*
X16971718Y20692818D01*
X16971718Y20692818D02*
X16971718Y19422818D01*
X16971718Y19422818D02*
X14685718Y19422818D01*
X14685718Y19422818D02*
X14685718Y20692818D01*
D10*
X85374118Y5991118D02*
X85374118Y17191118D01*
X85374118Y17191118D02*
X73674118Y17191118D01*
X73674118Y17191118D02*
X73674118Y5991118D01*
X73674118Y5991118D02*
X85374118Y5991118D01*
X85383008Y22210228D02*
X85383008Y29910228D01*
X85383008Y29910228D02*
X73683008Y29910228D01*
X73683008Y29910228D02*
X73683008Y22210228D01*
X73683008Y22210228D02*
X85383008Y22210228D01*
X18628718Y34657818D02*
X13228718Y34657818D01*
X13228718Y34657818D02*
X13228718Y30357818D01*
X13228718Y30357818D02*
X18628718Y30357818D01*
X18628718Y30357818D02*
X18628718Y34657818D01*
X39828718Y18957818D02*
X41828718Y18957818D01*
X41828718Y18957818D02*
X41828718Y16957818D01*
X41828718Y16957818D02*
X39828718Y16957818D01*
X39828718Y16957818D02*
X39828718Y18957818D01*
X-343274Y11598998D02*
X5656726Y11598998D01*
X5656726Y11598998D02*
X5656726Y5598998D01*
X5656726Y5598998D02*
X-343274Y5598998D01*
X-343274Y5598998D02*
X-343274Y11598998D01*
D17*
X6892938Y16744778D02*
X6892938Y16038658D01*
X6892938Y16038658D02*
X8289938Y16038658D01*
X8289938Y16038658D02*
X8289938Y16744778D01*
X6892938Y18451658D02*
X6892938Y17745538D01*
X6892938Y18451658D02*
X8289938Y18451658D01*
X8289938Y18451658D02*
X8289938Y17745538D01*
X8724278Y16780338D02*
X8724278Y16074218D01*
X8724278Y16074218D02*
X10121278Y16074218D01*
X10121278Y16074218D02*
X10121278Y16780338D01*
X8724278Y18487218D02*
X8724278Y17781098D01*
X8724278Y18487218D02*
X10121278Y18487218D01*
X10121278Y18487218D02*
X10121278Y17781098D01*
D10*
X45828718Y25557818D02*
X45828718Y10357818D01*
X45828718Y10357818D02*
X54828718Y10357818D01*
X54828718Y10357818D02*
X54828718Y25557818D01*
X54828718Y25557818D02*
X45828718Y25557818D01*
X-2610000Y35915600D02*
G75*
G03X-2610000Y35915600I-3500000J0D01*
G01*
X-2610000Y0D02*
G75*
G03X-2610000Y0I-3500000J0D01*
G01*
X83267400Y0D02*
G75*
G03X83267400Y0I-3500000J0D01*
G01*
X83267400Y35915600D02*
G75*
G03X83267400Y35915600I-3500000J0D01*
G01*
D14*
G36*
X26895429Y29254571D02*
X26831929Y29254571D01*
X26768429Y29254571D01*
X26768429Y29091286D01*
X26768429Y28928000D01*
X26614215Y28928000D01*
X26460000Y28928000D01*
X26460000Y29091286D01*
X26460000Y29254571D01*
X26396500Y29254571D01*
X26333000Y29254571D01*
X26333000Y29535786D01*
X26333000Y29817000D01*
X26614215Y29817000D01*
X26895429Y29817000D01*
X26895429Y29535786D01*
X26895429Y29254571D01*
X26895429Y29254571D01*
X26895429Y29254571D01*
G37*
X26895429Y29254571D02*
X26831929Y29254571D01*
X26768429Y29254571D01*
X26768429Y29091286D01*
X26768429Y28928000D01*
X26614215Y28928000D01*
X26460000Y28928000D01*
X26460000Y29091286D01*
X26460000Y29254571D01*
X26396500Y29254571D01*
X26333000Y29254571D01*
X26333000Y29535786D01*
X26333000Y29817000D01*
X26614215Y29817000D01*
X26895429Y29817000D01*
X26895429Y29535786D01*
X26895429Y29254571D01*
X26895429Y29254571D01*
G36*
X27838858Y29254571D02*
X27775358Y29254571D01*
X27711858Y29254571D01*
X27711858Y29091286D01*
X27711858Y28928000D01*
X27557643Y28928000D01*
X27403429Y28928000D01*
X27403429Y29091286D01*
X27403429Y29254571D01*
X27349000Y29254571D01*
X27294572Y29254571D01*
X27294572Y29535786D01*
X27294572Y29817000D01*
X27566715Y29817000D01*
X27838858Y29817000D01*
X27838858Y29535786D01*
X27838858Y29254571D01*
X27838858Y29254571D01*
X27838858Y29254571D01*
G37*
X27838858Y29254571D02*
X27775358Y29254571D01*
X27711858Y29254571D01*
X27711858Y29091286D01*
X27711858Y28928000D01*
X27557643Y28928000D01*
X27403429Y28928000D01*
X27403429Y29091286D01*
X27403429Y29254571D01*
X27349000Y29254571D01*
X27294572Y29254571D01*
X27294572Y29535786D01*
X27294572Y29817000D01*
X27566715Y29817000D01*
X27838858Y29817000D01*
X27838858Y29535786D01*
X27838858Y29254571D01*
X27838858Y29254571D01*
G36*
X28782286Y29254571D02*
X28727858Y29254571D01*
X28673429Y29254571D01*
X28673429Y29091286D01*
X28673429Y28928000D01*
X28519215Y28928000D01*
X28365000Y28928000D01*
X28365000Y29091286D01*
X28365000Y29254571D01*
X28301500Y29254571D01*
X28238000Y29254571D01*
X28238000Y29535786D01*
X28238000Y29817000D01*
X28510143Y29817000D01*
X28782286Y29817000D01*
X28782286Y29535786D01*
X28782286Y29254571D01*
X28782286Y29254571D01*
X28782286Y29254571D01*
G37*
X28782286Y29254571D02*
X28727858Y29254571D01*
X28673429Y29254571D01*
X28673429Y29091286D01*
X28673429Y28928000D01*
X28519215Y28928000D01*
X28365000Y28928000D01*
X28365000Y29091286D01*
X28365000Y29254571D01*
X28301500Y29254571D01*
X28238000Y29254571D01*
X28238000Y29535786D01*
X28238000Y29817000D01*
X28510143Y29817000D01*
X28782286Y29817000D01*
X28782286Y29535786D01*
X28782286Y29254571D01*
X28782286Y29254571D01*
G36*
X29743858Y29254571D02*
X29680358Y29254571D01*
X29616858Y29254571D01*
X29616858Y29091286D01*
X29616858Y28928000D01*
X29462643Y28928000D01*
X29308429Y28928000D01*
X29308429Y29091286D01*
X29308429Y29254571D01*
X29254000Y29254571D01*
X29199572Y29254571D01*
X29199572Y29535786D01*
X29199572Y29817000D01*
X29471715Y29817000D01*
X29743858Y29817000D01*
X29743858Y29535786D01*
X29743858Y29254571D01*
X29743858Y29254571D01*
X29743858Y29254571D01*
G37*
X29743858Y29254571D02*
X29680358Y29254571D01*
X29616858Y29254571D01*
X29616858Y29091286D01*
X29616858Y28928000D01*
X29462643Y28928000D01*
X29308429Y28928000D01*
X29308429Y29091286D01*
X29308429Y29254571D01*
X29254000Y29254571D01*
X29199572Y29254571D01*
X29199572Y29535786D01*
X29199572Y29817000D01*
X29471715Y29817000D01*
X29743858Y29817000D01*
X29743858Y29535786D01*
X29743858Y29254571D01*
X29743858Y29254571D01*
G36*
X30687286Y29254571D02*
X30632858Y29254571D01*
X30578429Y29254571D01*
X30578429Y29091286D01*
X30578429Y28928000D01*
X30424215Y28928000D01*
X30270000Y28928000D01*
X30270000Y29091286D01*
X30270000Y29254571D01*
X30206500Y29254571D01*
X30143000Y29254571D01*
X30143000Y29535786D01*
X30143000Y29817000D01*
X30415143Y29817000D01*
X30687286Y29817000D01*
X30687286Y29535786D01*
X30687286Y29254571D01*
X30687286Y29254571D01*
X30687286Y29254571D01*
G37*
X30687286Y29254571D02*
X30632858Y29254571D01*
X30578429Y29254571D01*
X30578429Y29091286D01*
X30578429Y28928000D01*
X30424215Y28928000D01*
X30270000Y28928000D01*
X30270000Y29091286D01*
X30270000Y29254571D01*
X30206500Y29254571D01*
X30143000Y29254571D01*
X30143000Y29535786D01*
X30143000Y29817000D01*
X30415143Y29817000D01*
X30687286Y29817000D01*
X30687286Y29535786D01*
X30687286Y29254571D01*
X30687286Y29254571D01*
G36*
X31648858Y29254571D02*
X31585358Y29254571D01*
X31521858Y29254571D01*
X31521858Y29091286D01*
X31521858Y28928000D01*
X31367643Y28928000D01*
X31213429Y28928000D01*
X31213429Y29091286D01*
X31213429Y29254571D01*
X31159000Y29254571D01*
X31104572Y29254571D01*
X31104572Y29535786D01*
X31104572Y29817000D01*
X31376715Y29817000D01*
X31648858Y29817000D01*
X31648858Y29535786D01*
X31648858Y29254571D01*
X31648858Y29254571D01*
X31648858Y29254571D01*
G37*
X31648858Y29254571D02*
X31585358Y29254571D01*
X31521858Y29254571D01*
X31521858Y29091286D01*
X31521858Y28928000D01*
X31367643Y28928000D01*
X31213429Y28928000D01*
X31213429Y29091286D01*
X31213429Y29254571D01*
X31159000Y29254571D01*
X31104572Y29254571D01*
X31104572Y29535786D01*
X31104572Y29817000D01*
X31376715Y29817000D01*
X31648858Y29817000D01*
X31648858Y29535786D01*
X31648858Y29254571D01*
X31648858Y29254571D01*
G36*
X32465286Y29998429D02*
X31884715Y29998429D01*
X31884715Y33509071D01*
X31884669Y33853834D01*
X31884519Y34164099D01*
X31884245Y34441655D01*
X31883828Y34688290D01*
X31883248Y34905792D01*
X31882486Y35095950D01*
X31881522Y35260552D01*
X31880337Y35401386D01*
X31878911Y35520240D01*
X31877225Y35618903D01*
X31875259Y35699163D01*
X31872994Y35762807D01*
X31870410Y35811625D01*
X31867488Y35847405D01*
X31864208Y35871934D01*
X31860551Y35887001D01*
X31858750Y35891222D01*
X31836980Y35920424D01*
X31793960Y35969063D01*
X31734882Y36031975D01*
X31664940Y36103993D01*
X31589327Y36179951D01*
X31513237Y36254683D01*
X31441864Y36323025D01*
X31380399Y36379810D01*
X31334038Y36419872D01*
X31309872Y36437183D01*
X31291235Y36440427D01*
X31248076Y36443356D01*
X31179386Y36445978D01*
X31084160Y36448303D01*
X30961391Y36450339D01*
X30810071Y36452094D01*
X30629194Y36453579D01*
X30417753Y36454801D01*
X30174742Y36455768D01*
X29899153Y36456491D01*
X29589979Y36456977D01*
X29246215Y36457236D01*
X28991221Y36457286D01*
X28650633Y36457239D01*
X28344522Y36457084D01*
X28071076Y36456803D01*
X27828487Y36456373D01*
X27614943Y36455776D01*
X27428636Y36454990D01*
X27267756Y36453997D01*
X27130492Y36452774D01*
X27015036Y36451304D01*
X26919576Y36449564D01*
X26842304Y36447535D01*
X26781408Y36445197D01*
X26735081Y36442530D01*
X26701511Y36439513D01*
X26678889Y36436127D01*
X26665405Y36432351D01*
X26663207Y36431321D01*
X26634005Y36409551D01*
X26585366Y36366531D01*
X26522454Y36307453D01*
X26450436Y36237511D01*
X26374478Y36161898D01*
X26299746Y36085808D01*
X26231404Y36014434D01*
X26174619Y35952970D01*
X26134557Y35906609D01*
X26117246Y35882443D01*
X26114033Y35863902D01*
X26111130Y35820899D01*
X26108527Y35752433D01*
X26106216Y35657503D01*
X26104188Y35535110D01*
X26102436Y35384252D01*
X26100949Y35203930D01*
X26099720Y34993143D01*
X26098741Y34750891D01*
X26098002Y34476173D01*
X26097496Y34167990D01*
X26097214Y33825340D01*
X26097143Y33518613D01*
X26097156Y33180472D01*
X26097212Y32876713D01*
X26097341Y32605431D01*
X26097568Y32364720D01*
X26097923Y32152677D01*
X26098434Y31967396D01*
X26099127Y31806974D01*
X26100031Y31669506D01*
X26101175Y31553087D01*
X26102585Y31455812D01*
X26104290Y31375778D01*
X26106317Y31311079D01*
X26108694Y31259810D01*
X26111450Y31220069D01*
X26114612Y31189948D01*
X26118207Y31167545D01*
X26122265Y31150955D01*
X26126812Y31138273D01*
X26131877Y31127594D01*
X26132133Y31127099D01*
X26155600Y31094222D01*
X26200204Y31041981D01*
X26260598Y30975813D01*
X26331433Y30901154D01*
X26407360Y30823442D01*
X26483030Y30748114D01*
X26553096Y30680605D01*
X26612207Y30626355D01*
X26655016Y30590799D01*
X26668643Y30581726D01*
X26692057Y30578724D01*
X26749091Y30575946D01*
X26837080Y30573391D01*
X26953361Y30571060D01*
X27095269Y30568953D01*
X27260138Y30567071D01*
X27445305Y30565414D01*
X27648105Y30563983D01*
X27865873Y30562779D01*
X28095944Y30561801D01*
X28335655Y30561050D01*
X28582339Y30560526D01*
X28833334Y30560230D01*
X29085974Y30560163D01*
X29337594Y30560325D01*
X29585530Y30560715D01*
X29827118Y30561336D01*
X30059692Y30562187D01*
X30280588Y30563268D01*
X30487142Y30564580D01*
X30676689Y30566124D01*
X30846564Y30567899D01*
X30994103Y30569907D01*
X31116641Y30572148D01*
X31211514Y30574621D01*
X31276056Y30577329D01*
X31307603Y30580270D01*
X31309872Y30580959D01*
X31338666Y30602053D01*
X31387129Y30644411D01*
X31450067Y30702867D01*
X31522287Y30772255D01*
X31598595Y30847411D01*
X31673799Y30923167D01*
X31742703Y30994359D01*
X31800116Y31055819D01*
X31840844Y31102384D01*
X31858750Y31126920D01*
X31862586Y31138261D01*
X31866035Y31158247D01*
X31869118Y31188666D01*
X31871854Y31231307D01*
X31874263Y31287958D01*
X31876363Y31360407D01*
X31878174Y31450443D01*
X31879717Y31559853D01*
X31881010Y31690427D01*
X31882072Y31843951D01*
X31882924Y32022215D01*
X31883585Y32227006D01*
X31884074Y32460114D01*
X31884411Y32723325D01*
X31884615Y33018429D01*
X31884706Y33347214D01*
X31884715Y33509071D01*
X31884715Y29998429D01*
X28990929Y29998429D01*
X25516572Y29998429D01*
X25516572Y33518143D01*
X25516572Y37037857D01*
X28990929Y37037857D01*
X32465286Y37037857D01*
X32465286Y33518143D01*
X32465286Y29998429D01*
X32465286Y29998429D01*
X32465286Y29998429D01*
G37*
X32465286Y29998429D02*
X31884715Y29998429D01*
X31884715Y33509071D01*
X31884669Y33853834D01*
X31884519Y34164099D01*
X31884245Y34441655D01*
X31883828Y34688290D01*
X31883248Y34905792D01*
X31882486Y35095950D01*
X31881522Y35260552D01*
X31880337Y35401386D01*
X31878911Y35520240D01*
X31877225Y35618903D01*
X31875259Y35699163D01*
X31872994Y35762807D01*
X31870410Y35811625D01*
X31867488Y35847405D01*
X31864208Y35871934D01*
X31860551Y35887001D01*
X31858750Y35891222D01*
X31836980Y35920424D01*
X31793960Y35969063D01*
X31734882Y36031975D01*
X31664940Y36103993D01*
X31589327Y36179951D01*
X31513237Y36254683D01*
X31441864Y36323025D01*
X31380399Y36379810D01*
X31334038Y36419872D01*
X31309872Y36437183D01*
X31291235Y36440427D01*
X31248076Y36443356D01*
X31179386Y36445978D01*
X31084160Y36448303D01*
X30961391Y36450339D01*
X30810071Y36452094D01*
X30629194Y36453579D01*
X30417753Y36454801D01*
X30174742Y36455768D01*
X29899153Y36456491D01*
X29589979Y36456977D01*
X29246215Y36457236D01*
X28991221Y36457286D01*
X28650633Y36457239D01*
X28344522Y36457084D01*
X28071076Y36456803D01*
X27828487Y36456373D01*
X27614943Y36455776D01*
X27428636Y36454990D01*
X27267756Y36453997D01*
X27130492Y36452774D01*
X27015036Y36451304D01*
X26919576Y36449564D01*
X26842304Y36447535D01*
X26781408Y36445197D01*
X26735081Y36442530D01*
X26701511Y36439513D01*
X26678889Y36436127D01*
X26665405Y36432351D01*
X26663207Y36431321D01*
X26634005Y36409551D01*
X26585366Y36366531D01*
X26522454Y36307453D01*
X26450436Y36237511D01*
X26374478Y36161898D01*
X26299746Y36085808D01*
X26231404Y36014434D01*
X26174619Y35952970D01*
X26134557Y35906609D01*
X26117246Y35882443D01*
X26114033Y35863902D01*
X26111130Y35820899D01*
X26108527Y35752433D01*
X26106216Y35657503D01*
X26104188Y35535110D01*
X26102436Y35384252D01*
X26100949Y35203930D01*
X26099720Y34993143D01*
X26098741Y34750891D01*
X26098002Y34476173D01*
X26097496Y34167990D01*
X26097214Y33825340D01*
X26097143Y33518613D01*
X26097156Y33180472D01*
X26097212Y32876713D01*
X26097341Y32605431D01*
X26097568Y32364720D01*
X26097923Y32152677D01*
X26098434Y31967396D01*
X26099127Y31806974D01*
X26100031Y31669506D01*
X26101175Y31553087D01*
X26102585Y31455812D01*
X26104290Y31375778D01*
X26106317Y31311079D01*
X26108694Y31259810D01*
X26111450Y31220069D01*
X26114612Y31189948D01*
X26118207Y31167545D01*
X26122265Y31150955D01*
X26126812Y31138273D01*
X26131877Y31127594D01*
X26132133Y31127099D01*
X26155600Y31094222D01*
X26200204Y31041981D01*
X26260598Y30975813D01*
X26331433Y30901154D01*
X26407360Y30823442D01*
X26483030Y30748114D01*
X26553096Y30680605D01*
X26612207Y30626355D01*
X26655016Y30590799D01*
X26668643Y30581726D01*
X26692057Y30578724D01*
X26749091Y30575946D01*
X26837080Y30573391D01*
X26953361Y30571060D01*
X27095269Y30568953D01*
X27260138Y30567071D01*
X27445305Y30565414D01*
X27648105Y30563983D01*
X27865873Y30562779D01*
X28095944Y30561801D01*
X28335655Y30561050D01*
X28582339Y30560526D01*
X28833334Y30560230D01*
X29085974Y30560163D01*
X29337594Y30560325D01*
X29585530Y30560715D01*
X29827118Y30561336D01*
X30059692Y30562187D01*
X30280588Y30563268D01*
X30487142Y30564580D01*
X30676689Y30566124D01*
X30846564Y30567899D01*
X30994103Y30569907D01*
X31116641Y30572148D01*
X31211514Y30574621D01*
X31276056Y30577329D01*
X31307603Y30580270D01*
X31309872Y30580959D01*
X31338666Y30602053D01*
X31387129Y30644411D01*
X31450067Y30702867D01*
X31522287Y30772255D01*
X31598595Y30847411D01*
X31673799Y30923167D01*
X31742703Y30994359D01*
X31800116Y31055819D01*
X31840844Y31102384D01*
X31858750Y31126920D01*
X31862586Y31138261D01*
X31866035Y31158247D01*
X31869118Y31188666D01*
X31871854Y31231307D01*
X31874263Y31287958D01*
X31876363Y31360407D01*
X31878174Y31450443D01*
X31879717Y31559853D01*
X31881010Y31690427D01*
X31882072Y31843951D01*
X31882924Y32022215D01*
X31883585Y32227006D01*
X31884074Y32460114D01*
X31884411Y32723325D01*
X31884615Y33018429D01*
X31884706Y33347214D01*
X31884715Y33509071D01*
X31884715Y29998429D01*
X28990929Y29998429D01*
X25516572Y29998429D01*
X25516572Y33518143D01*
X25516572Y37037857D01*
X28990929Y37037857D01*
X32465286Y37037857D01*
X32465286Y33518143D01*
X32465286Y29998429D01*
X32465286Y29998429D01*
G36*
X25298858Y30851143D02*
X25017643Y30851143D01*
X24736429Y30851143D01*
X24736429Y30914643D01*
X24736429Y30978143D01*
X24573143Y30978143D01*
X24409858Y30978143D01*
X24409858Y31132357D01*
X24409858Y31286571D01*
X24573143Y31286571D01*
X24736429Y31286571D01*
X24736429Y31350071D01*
X24736429Y31413571D01*
X25017643Y31413571D01*
X25298858Y31413571D01*
X25298858Y31132357D01*
X25298858Y30851143D01*
X25298858Y30851143D01*
X25298858Y30851143D01*
G37*
X25298858Y30851143D02*
X25017643Y30851143D01*
X24736429Y30851143D01*
X24736429Y30914643D01*
X24736429Y30978143D01*
X24573143Y30978143D01*
X24409858Y30978143D01*
X24409858Y31132357D01*
X24409858Y31286571D01*
X24573143Y31286571D01*
X24736429Y31286571D01*
X24736429Y31350071D01*
X24736429Y31413571D01*
X25017643Y31413571D01*
X25298858Y31413571D01*
X25298858Y31132357D01*
X25298858Y30851143D01*
X25298858Y30851143D01*
G36*
X33590143Y30978143D02*
X33417786Y30978143D01*
X33245429Y30978143D01*
X33245429Y30914643D01*
X33245429Y30851143D01*
X32964215Y30851143D01*
X32683000Y30851143D01*
X32683000Y31132357D01*
X32683000Y31413571D01*
X32964215Y31413571D01*
X33245429Y31413571D01*
X33245429Y31350071D01*
X33245429Y31286571D01*
X33417786Y31286571D01*
X33590143Y31286571D01*
X33590143Y31132357D01*
X33590143Y30978143D01*
X33590143Y30978143D01*
X33590143Y30978143D01*
G37*
X33590143Y30978143D02*
X33417786Y30978143D01*
X33245429Y30978143D01*
X33245429Y30914643D01*
X33245429Y30851143D01*
X32964215Y30851143D01*
X32683000Y30851143D01*
X32683000Y31132357D01*
X32683000Y31413571D01*
X32964215Y31413571D01*
X33245429Y31413571D01*
X33245429Y31350071D01*
X33245429Y31286571D01*
X33417786Y31286571D01*
X33590143Y31286571D01*
X33590143Y31132357D01*
X33590143Y30978143D01*
X33590143Y30978143D01*
G36*
X25298858Y31812714D02*
X25017643Y31812714D01*
X24736429Y31812714D01*
X24736429Y31867143D01*
X24736429Y31921571D01*
X24573143Y31921571D01*
X24409858Y31921571D01*
X24409858Y32075786D01*
X24409858Y32230000D01*
X24573143Y32230000D01*
X24736429Y32230000D01*
X24736429Y32293500D01*
X24736429Y32357000D01*
X25017643Y32357000D01*
X25298858Y32357000D01*
X25298858Y32084857D01*
X25298858Y31812714D01*
X25298858Y31812714D01*
X25298858Y31812714D01*
G37*
X25298858Y31812714D02*
X25017643Y31812714D01*
X24736429Y31812714D01*
X24736429Y31867143D01*
X24736429Y31921571D01*
X24573143Y31921571D01*
X24409858Y31921571D01*
X24409858Y32075786D01*
X24409858Y32230000D01*
X24573143Y32230000D01*
X24736429Y32230000D01*
X24736429Y32293500D01*
X24736429Y32357000D01*
X25017643Y32357000D01*
X25298858Y32357000D01*
X25298858Y32084857D01*
X25298858Y31812714D01*
X25298858Y31812714D01*
G36*
X33590143Y31921571D02*
X33417786Y31921571D01*
X33245429Y31921571D01*
X33245429Y31867143D01*
X33245429Y31812714D01*
X32964215Y31812714D01*
X32683000Y31812714D01*
X32683000Y32084857D01*
X32683000Y32357000D01*
X32964215Y32357000D01*
X33245429Y32357000D01*
X33245429Y32293500D01*
X33245429Y32230000D01*
X33417786Y32230000D01*
X33590143Y32230000D01*
X33590143Y32075786D01*
X33590143Y31921571D01*
X33590143Y31921571D01*
X33590143Y31921571D01*
G37*
X33590143Y31921571D02*
X33417786Y31921571D01*
X33245429Y31921571D01*
X33245429Y31867143D01*
X33245429Y31812714D01*
X32964215Y31812714D01*
X32683000Y31812714D01*
X32683000Y32084857D01*
X32683000Y32357000D01*
X32964215Y32357000D01*
X33245429Y32357000D01*
X33245429Y32293500D01*
X33245429Y32230000D01*
X33417786Y32230000D01*
X33590143Y32230000D01*
X33590143Y32075786D01*
X33590143Y31921571D01*
X33590143Y31921571D01*
G36*
X25298858Y32756143D02*
X25017643Y32756143D01*
X24736429Y32756143D01*
X24736429Y32819643D01*
X24736429Y32883143D01*
X24573143Y32883143D01*
X24409858Y32883143D01*
X24409858Y33037357D01*
X24409858Y33191571D01*
X24573143Y33191571D01*
X24736429Y33191571D01*
X24736429Y33246000D01*
X24736429Y33300429D01*
X25017643Y33300429D01*
X25298858Y33300429D01*
X25298858Y33028286D01*
X25298858Y32756143D01*
X25298858Y32756143D01*
X25298858Y32756143D01*
G37*
X25298858Y32756143D02*
X25017643Y32756143D01*
X24736429Y32756143D01*
X24736429Y32819643D01*
X24736429Y32883143D01*
X24573143Y32883143D01*
X24409858Y32883143D01*
X24409858Y33037357D01*
X24409858Y33191571D01*
X24573143Y33191571D01*
X24736429Y33191571D01*
X24736429Y33246000D01*
X24736429Y33300429D01*
X25017643Y33300429D01*
X25298858Y33300429D01*
X25298858Y33028286D01*
X25298858Y32756143D01*
X25298858Y32756143D01*
G36*
X33590143Y32883143D02*
X33417786Y32883143D01*
X33245429Y32883143D01*
X33245429Y32819643D01*
X33245429Y32756143D01*
X32964215Y32756143D01*
X32683000Y32756143D01*
X32683000Y33028286D01*
X32683000Y33300429D01*
X32964215Y33300429D01*
X33245429Y33300429D01*
X33245429Y33246000D01*
X33245429Y33191571D01*
X33417786Y33191571D01*
X33590143Y33191571D01*
X33590143Y33037357D01*
X33590143Y32883143D01*
X33590143Y32883143D01*
X33590143Y32883143D01*
G37*
X33590143Y32883143D02*
X33417786Y32883143D01*
X33245429Y32883143D01*
X33245429Y32819643D01*
X33245429Y32756143D01*
X32964215Y32756143D01*
X32683000Y32756143D01*
X32683000Y33028286D01*
X32683000Y33300429D01*
X32964215Y33300429D01*
X33245429Y33300429D01*
X33245429Y33246000D01*
X33245429Y33191571D01*
X33417786Y33191571D01*
X33590143Y33191571D01*
X33590143Y33037357D01*
X33590143Y32883143D01*
X33590143Y32883143D01*
G36*
X25298858Y33717714D02*
X25017643Y33717714D01*
X24736429Y33717714D01*
X24736429Y33772143D01*
X24736429Y33826571D01*
X24573143Y33826571D01*
X24409858Y33826571D01*
X24409858Y33980786D01*
X24409858Y34135000D01*
X24573143Y34135000D01*
X24736429Y34135000D01*
X24736429Y34198500D01*
X24736429Y34262000D01*
X25017643Y34262000D01*
X25298858Y34262000D01*
X25298858Y33989857D01*
X25298858Y33717714D01*
X25298858Y33717714D01*
X25298858Y33717714D01*
G37*
X25298858Y33717714D02*
X25017643Y33717714D01*
X24736429Y33717714D01*
X24736429Y33772143D01*
X24736429Y33826571D01*
X24573143Y33826571D01*
X24409858Y33826571D01*
X24409858Y33980786D01*
X24409858Y34135000D01*
X24573143Y34135000D01*
X24736429Y34135000D01*
X24736429Y34198500D01*
X24736429Y34262000D01*
X25017643Y34262000D01*
X25298858Y34262000D01*
X25298858Y33989857D01*
X25298858Y33717714D01*
X25298858Y33717714D01*
G36*
X33590143Y33826571D02*
X33417786Y33826571D01*
X33245429Y33826571D01*
X33245429Y33772143D01*
X33245429Y33717714D01*
X32964215Y33717714D01*
X32683000Y33717714D01*
X32683000Y33989857D01*
X32683000Y34262000D01*
X32964215Y34262000D01*
X33245429Y34262000D01*
X33245429Y34198500D01*
X33245429Y34135000D01*
X33417786Y34135000D01*
X33590143Y34135000D01*
X33590143Y33980786D01*
X33590143Y33826571D01*
X33590143Y33826571D01*
X33590143Y33826571D01*
G37*
X33590143Y33826571D02*
X33417786Y33826571D01*
X33245429Y33826571D01*
X33245429Y33772143D01*
X33245429Y33717714D01*
X32964215Y33717714D01*
X32683000Y33717714D01*
X32683000Y33989857D01*
X32683000Y34262000D01*
X32964215Y34262000D01*
X33245429Y34262000D01*
X33245429Y34198500D01*
X33245429Y34135000D01*
X33417786Y34135000D01*
X33590143Y34135000D01*
X33590143Y33980786D01*
X33590143Y33826571D01*
X33590143Y33826571D01*
G36*
X25298858Y34661143D02*
X25017643Y34661143D01*
X24736429Y34661143D01*
X24736429Y34724643D01*
X24736429Y34788143D01*
X24573143Y34788143D01*
X24409858Y34788143D01*
X24409858Y34942357D01*
X24409858Y35096571D01*
X24573143Y35096571D01*
X24736429Y35096571D01*
X24736429Y35151000D01*
X24736429Y35205429D01*
X25017643Y35205429D01*
X25298858Y35205429D01*
X25298858Y34933286D01*
X25298858Y34661143D01*
X25298858Y34661143D01*
X25298858Y34661143D01*
G37*
X25298858Y34661143D02*
X25017643Y34661143D01*
X24736429Y34661143D01*
X24736429Y34724643D01*
X24736429Y34788143D01*
X24573143Y34788143D01*
X24409858Y34788143D01*
X24409858Y34942357D01*
X24409858Y35096571D01*
X24573143Y35096571D01*
X24736429Y35096571D01*
X24736429Y35151000D01*
X24736429Y35205429D01*
X25017643Y35205429D01*
X25298858Y35205429D01*
X25298858Y34933286D01*
X25298858Y34661143D01*
X25298858Y34661143D01*
G36*
X33590143Y34788143D02*
X33417786Y34788143D01*
X33245429Y34788143D01*
X33245429Y34724643D01*
X33245429Y34661143D01*
X32964215Y34661143D01*
X32683000Y34661143D01*
X32683000Y34933286D01*
X32683000Y35205429D01*
X32964215Y35205429D01*
X33245429Y35205429D01*
X33245429Y35151000D01*
X33245429Y35096571D01*
X33417786Y35096571D01*
X33590143Y35096571D01*
X33590143Y34942357D01*
X33590143Y34788143D01*
X33590143Y34788143D01*
X33590143Y34788143D01*
G37*
X33590143Y34788143D02*
X33417786Y34788143D01*
X33245429Y34788143D01*
X33245429Y34724643D01*
X33245429Y34661143D01*
X32964215Y34661143D01*
X32683000Y34661143D01*
X32683000Y34933286D01*
X32683000Y35205429D01*
X32964215Y35205429D01*
X33245429Y35205429D01*
X33245429Y35151000D01*
X33245429Y35096571D01*
X33417786Y35096571D01*
X33590143Y35096571D01*
X33590143Y34942357D01*
X33590143Y34788143D01*
X33590143Y34788143D01*
G36*
X25298858Y35622714D02*
X25017643Y35622714D01*
X24736429Y35622714D01*
X24736429Y35677143D01*
X24736429Y35731571D01*
X24573143Y35731571D01*
X24409858Y35731571D01*
X24409858Y35885786D01*
X24409858Y36040000D01*
X24573143Y36040000D01*
X24736429Y36040000D01*
X24736429Y36103500D01*
X24736429Y36167000D01*
X25017643Y36167000D01*
X25298858Y36167000D01*
X25298858Y35894857D01*
X25298858Y35622714D01*
X25298858Y35622714D01*
X25298858Y35622714D01*
G37*
X25298858Y35622714D02*
X25017643Y35622714D01*
X24736429Y35622714D01*
X24736429Y35677143D01*
X24736429Y35731571D01*
X24573143Y35731571D01*
X24409858Y35731571D01*
X24409858Y35885786D01*
X24409858Y36040000D01*
X24573143Y36040000D01*
X24736429Y36040000D01*
X24736429Y36103500D01*
X24736429Y36167000D01*
X25017643Y36167000D01*
X25298858Y36167000D01*
X25298858Y35894857D01*
X25298858Y35622714D01*
X25298858Y35622714D01*
G36*
X33590143Y35731571D02*
X33417786Y35731571D01*
X33245429Y35731571D01*
X33245429Y35677143D01*
X33245429Y35622714D01*
X32964215Y35622714D01*
X32683000Y35622714D01*
X32683000Y35894857D01*
X32683000Y36167000D01*
X32964215Y36167000D01*
X33245429Y36167000D01*
X33245429Y36103500D01*
X33245429Y36040000D01*
X33417786Y36040000D01*
X33590143Y36040000D01*
X33590143Y35885786D01*
X33590143Y35731571D01*
X33590143Y35731571D01*
X33590143Y35731571D01*
G37*
X33590143Y35731571D02*
X33417786Y35731571D01*
X33245429Y35731571D01*
X33245429Y35677143D01*
X33245429Y35622714D01*
X32964215Y35622714D01*
X32683000Y35622714D01*
X32683000Y35894857D01*
X32683000Y36167000D01*
X32964215Y36167000D01*
X33245429Y36167000D01*
X33245429Y36103500D01*
X33245429Y36040000D01*
X33417786Y36040000D01*
X33590143Y36040000D01*
X33590143Y35885786D01*
X33590143Y35731571D01*
X33590143Y35731571D01*
G36*
X26895429Y37201143D02*
X26614215Y37201143D01*
X26333000Y37201143D01*
X26333000Y37482357D01*
X26333000Y37763571D01*
X26396500Y37763571D01*
X26460000Y37763571D01*
X26460000Y37935929D01*
X26460000Y38108286D01*
X26614215Y38108286D01*
X26768429Y38108286D01*
X26768429Y37935929D01*
X26768429Y37763571D01*
X26831929Y37763571D01*
X26895429Y37763571D01*
X26895429Y37482357D01*
X26895429Y37201143D01*
X26895429Y37201143D01*
X26895429Y37201143D01*
G37*
X26895429Y37201143D02*
X26614215Y37201143D01*
X26333000Y37201143D01*
X26333000Y37482357D01*
X26333000Y37763571D01*
X26396500Y37763571D01*
X26460000Y37763571D01*
X26460000Y37935929D01*
X26460000Y38108286D01*
X26614215Y38108286D01*
X26768429Y38108286D01*
X26768429Y37935929D01*
X26768429Y37763571D01*
X26831929Y37763571D01*
X26895429Y37763571D01*
X26895429Y37482357D01*
X26895429Y37201143D01*
X26895429Y37201143D01*
G36*
X27838858Y37201143D02*
X27566715Y37201143D01*
X27294572Y37201143D01*
X27294572Y37482357D01*
X27294572Y37763571D01*
X27349000Y37763571D01*
X27403429Y37763571D01*
X27403429Y37935929D01*
X27403429Y38108286D01*
X27557643Y38108286D01*
X27711858Y38108286D01*
X27711858Y37935929D01*
X27711858Y37763571D01*
X27775358Y37763571D01*
X27838858Y37763571D01*
X27838858Y37482357D01*
X27838858Y37201143D01*
X27838858Y37201143D01*
X27838858Y37201143D01*
G37*
X27838858Y37201143D02*
X27566715Y37201143D01*
X27294572Y37201143D01*
X27294572Y37482357D01*
X27294572Y37763571D01*
X27349000Y37763571D01*
X27403429Y37763571D01*
X27403429Y37935929D01*
X27403429Y38108286D01*
X27557643Y38108286D01*
X27711858Y38108286D01*
X27711858Y37935929D01*
X27711858Y37763571D01*
X27775358Y37763571D01*
X27838858Y37763571D01*
X27838858Y37482357D01*
X27838858Y37201143D01*
X27838858Y37201143D01*
G36*
X28782286Y37201143D02*
X28510143Y37201143D01*
X28238000Y37201143D01*
X28238000Y37482357D01*
X28238000Y37763571D01*
X28301500Y37763571D01*
X28365000Y37763571D01*
X28365000Y37935929D01*
X28365000Y38108286D01*
X28519215Y38108286D01*
X28673429Y38108286D01*
X28673429Y37935929D01*
X28673429Y37763571D01*
X28727858Y37763571D01*
X28782286Y37763571D01*
X28782286Y37482357D01*
X28782286Y37201143D01*
X28782286Y37201143D01*
X28782286Y37201143D01*
G37*
X28782286Y37201143D02*
X28510143Y37201143D01*
X28238000Y37201143D01*
X28238000Y37482357D01*
X28238000Y37763571D01*
X28301500Y37763571D01*
X28365000Y37763571D01*
X28365000Y37935929D01*
X28365000Y38108286D01*
X28519215Y38108286D01*
X28673429Y38108286D01*
X28673429Y37935929D01*
X28673429Y37763571D01*
X28727858Y37763571D01*
X28782286Y37763571D01*
X28782286Y37482357D01*
X28782286Y37201143D01*
X28782286Y37201143D01*
G36*
X29743858Y37201143D02*
X29471715Y37201143D01*
X29199572Y37201143D01*
X29199572Y37482357D01*
X29199572Y37763571D01*
X29254000Y37763571D01*
X29308429Y37763571D01*
X29308429Y37935929D01*
X29308429Y38108286D01*
X29462643Y38108286D01*
X29616858Y38108286D01*
X29616858Y37935929D01*
X29616858Y37763571D01*
X29680358Y37763571D01*
X29743858Y37763571D01*
X29743858Y37482357D01*
X29743858Y37201143D01*
X29743858Y37201143D01*
X29743858Y37201143D01*
G37*
X29743858Y37201143D02*
X29471715Y37201143D01*
X29199572Y37201143D01*
X29199572Y37482357D01*
X29199572Y37763571D01*
X29254000Y37763571D01*
X29308429Y37763571D01*
X29308429Y37935929D01*
X29308429Y38108286D01*
X29462643Y38108286D01*
X29616858Y38108286D01*
X29616858Y37935929D01*
X29616858Y37763571D01*
X29680358Y37763571D01*
X29743858Y37763571D01*
X29743858Y37482357D01*
X29743858Y37201143D01*
X29743858Y37201143D01*
G36*
X30687286Y37201143D02*
X30415143Y37201143D01*
X30143000Y37201143D01*
X30143000Y37482357D01*
X30143000Y37763571D01*
X30206500Y37763571D01*
X30270000Y37763571D01*
X30270000Y37935929D01*
X30270000Y38108286D01*
X30424215Y38108286D01*
X30578429Y38108286D01*
X30578429Y37935929D01*
X30578429Y37763571D01*
X30632858Y37763571D01*
X30687286Y37763571D01*
X30687286Y37482357D01*
X30687286Y37201143D01*
X30687286Y37201143D01*
X30687286Y37201143D01*
G37*
X30687286Y37201143D02*
X30415143Y37201143D01*
X30143000Y37201143D01*
X30143000Y37482357D01*
X30143000Y37763571D01*
X30206500Y37763571D01*
X30270000Y37763571D01*
X30270000Y37935929D01*
X30270000Y38108286D01*
X30424215Y38108286D01*
X30578429Y38108286D01*
X30578429Y37935929D01*
X30578429Y37763571D01*
X30632858Y37763571D01*
X30687286Y37763571D01*
X30687286Y37482357D01*
X30687286Y37201143D01*
X30687286Y37201143D01*
G36*
X31648858Y37201143D02*
X31376715Y37201143D01*
X31104572Y37201143D01*
X31104572Y37482357D01*
X31104572Y37763571D01*
X31159000Y37763571D01*
X31213429Y37763571D01*
X31213429Y37935929D01*
X31213429Y38108286D01*
X31367643Y38108286D01*
X31521858Y38108286D01*
X31521858Y37935929D01*
X31521858Y37763571D01*
X31585358Y37763571D01*
X31648858Y37763571D01*
X31648858Y37482357D01*
X31648858Y37201143D01*
X31648858Y37201143D01*
X31648858Y37201143D01*
G37*
X31648858Y37201143D02*
X31376715Y37201143D01*
X31104572Y37201143D01*
X31104572Y37482357D01*
X31104572Y37763571D01*
X31159000Y37763571D01*
X31213429Y37763571D01*
X31213429Y37935929D01*
X31213429Y38108286D01*
X31367643Y38108286D01*
X31521858Y38108286D01*
X31521858Y37935929D01*
X31521858Y37763571D01*
X31585358Y37763571D01*
X31648858Y37763571D01*
X31648858Y37482357D01*
X31648858Y37201143D01*
X31648858Y37201143D01*
G36*
X31449286Y31377547D02*
X31269747Y31195988D01*
X31090208Y31014429D01*
X30768873Y31014429D01*
X30768873Y33715839D01*
X30759094Y33858687D01*
X30739081Y33985723D01*
X30727684Y34031234D01*
X30677769Y34172950D01*
X30607453Y34327697D01*
X30522675Y34483550D01*
X30431994Y34624857D01*
X30362461Y34714482D01*
X30271111Y34818229D01*
X30165375Y34928743D01*
X30052684Y35038670D01*
X29940470Y35140655D01*
X29836162Y35227343D01*
X29783139Y35267059D01*
X29632599Y35374046D01*
X29556693Y35332017D01*
X29313691Y35182628D01*
X29095882Y35018221D01*
X28905383Y34841035D01*
X28744311Y34653307D01*
X28614784Y34457274D01*
X28518917Y34255176D01*
X28506756Y34222178D01*
X28476057Y34130156D01*
X28460155Y34064966D01*
X28459160Y34020260D01*
X28473186Y33989689D01*
X28502342Y33966903D01*
X28511319Y33962035D01*
X28550433Y33935423D01*
X28603960Y33890823D01*
X28661671Y33836880D01*
X28673890Y33824641D01*
X28786818Y33685457D01*
X28868862Y33528473D01*
X28920091Y33353326D01*
X28940577Y33159654D01*
X28930390Y32947095D01*
X28890201Y32717877D01*
X28849937Y32543540D01*
X28922320Y32445559D01*
X28973191Y32380264D01*
X29035217Y32305623D01*
X29091152Y32242047D01*
X29187601Y32136516D01*
X29157647Y32051722D01*
X29134514Y31978774D01*
X29111808Y31894676D01*
X29092188Y31810807D01*
X29078314Y31738550D01*
X29072845Y31689284D01*
X29072840Y31688770D01*
X29072572Y31646469D01*
X29131536Y31681442D01*
X29170173Y31704328D01*
X29231547Y31740649D01*
X29307160Y31785376D01*
X29387024Y31832600D01*
X29610557Y31974904D01*
X29826243Y32131819D01*
X30028047Y32298196D01*
X30209930Y32468889D01*
X30365855Y32638750D01*
X30436430Y32727375D01*
X30520703Y32851968D01*
X30600485Y32992587D01*
X30669523Y33136866D01*
X30721562Y33272439D01*
X30735434Y33318571D01*
X30757181Y33433166D01*
X30768281Y33569794D01*
X30768873Y33715839D01*
X30768873Y31014429D01*
X28997030Y31014429D01*
X28805111Y31014429D01*
X28805111Y33128071D01*
X28794821Y33281451D01*
X28760474Y33417435D01*
X28698265Y33548738D01*
X28661497Y33607684D01*
X28547301Y33751030D01*
X28400504Y33887879D01*
X28224590Y34015515D01*
X28023046Y34131222D01*
X27933955Y34174517D01*
X27775358Y34247835D01*
X27679672Y34141525D01*
X27551269Y33984212D01*
X27438956Y33817269D01*
X27345432Y33646398D01*
X27273397Y33477299D01*
X27225550Y33315673D01*
X27204592Y33167221D01*
X27203858Y33136717D01*
X27221718Y32959503D01*
X27274572Y32787514D01*
X27361330Y32622152D01*
X27480903Y32464822D01*
X27632199Y32316925D01*
X27814130Y32179865D01*
X28025605Y32055044D01*
X28056572Y32039099D01*
X28186620Y31974867D01*
X28298589Y31922869D01*
X28389691Y31884220D01*
X28457139Y31860035D01*
X28498145Y31851431D01*
X28510143Y31857657D01*
X28503516Y31882917D01*
X28486522Y31930575D01*
X28463494Y31989853D01*
X28438765Y32049974D01*
X28416666Y32100160D01*
X28401531Y32129634D01*
X28399917Y32131864D01*
X28397508Y32151911D01*
X28412534Y32189218D01*
X28446883Y32247480D01*
X28497880Y32323795D01*
X28609000Y32495786D01*
X28693021Y32651968D01*
X28752105Y32797996D01*
X28788410Y32939522D01*
X28804096Y33082201D01*
X28805111Y33128071D01*
X28805111Y31014429D01*
X26903852Y31014429D01*
X26718212Y31200703D01*
X26532572Y31386977D01*
X26532572Y33509705D01*
X26532572Y35632434D01*
X26718846Y35818074D01*
X26905120Y36003714D01*
X28996280Y36003714D01*
X31087440Y36003714D01*
X31268363Y35824428D01*
X31449286Y35645142D01*
X31449286Y33511344D01*
X31449286Y31377547D01*
X31449286Y31377547D01*
X31449286Y31377547D01*
G37*
X31449286Y31377547D02*
X31269747Y31195988D01*
X31090208Y31014429D01*
X30768873Y31014429D01*
X30768873Y33715839D01*
X30759094Y33858687D01*
X30739081Y33985723D01*
X30727684Y34031234D01*
X30677769Y34172950D01*
X30607453Y34327697D01*
X30522675Y34483550D01*
X30431994Y34624857D01*
X30362461Y34714482D01*
X30271111Y34818229D01*
X30165375Y34928743D01*
X30052684Y35038670D01*
X29940470Y35140655D01*
X29836162Y35227343D01*
X29783139Y35267059D01*
X29632599Y35374046D01*
X29556693Y35332017D01*
X29313691Y35182628D01*
X29095882Y35018221D01*
X28905383Y34841035D01*
X28744311Y34653307D01*
X28614784Y34457274D01*
X28518917Y34255176D01*
X28506756Y34222178D01*
X28476057Y34130156D01*
X28460155Y34064966D01*
X28459160Y34020260D01*
X28473186Y33989689D01*
X28502342Y33966903D01*
X28511319Y33962035D01*
X28550433Y33935423D01*
X28603960Y33890823D01*
X28661671Y33836880D01*
X28673890Y33824641D01*
X28786818Y33685457D01*
X28868862Y33528473D01*
X28920091Y33353326D01*
X28940577Y33159654D01*
X28930390Y32947095D01*
X28890201Y32717877D01*
X28849937Y32543540D01*
X28922320Y32445559D01*
X28973191Y32380264D01*
X29035217Y32305623D01*
X29091152Y32242047D01*
X29187601Y32136516D01*
X29157647Y32051722D01*
X29134514Y31978774D01*
X29111808Y31894676D01*
X29092188Y31810807D01*
X29078314Y31738550D01*
X29072845Y31689284D01*
X29072840Y31688770D01*
X29072572Y31646469D01*
X29131536Y31681442D01*
X29170173Y31704328D01*
X29231547Y31740649D01*
X29307160Y31785376D01*
X29387024Y31832600D01*
X29610557Y31974904D01*
X29826243Y32131819D01*
X30028047Y32298196D01*
X30209930Y32468889D01*
X30365855Y32638750D01*
X30436430Y32727375D01*
X30520703Y32851968D01*
X30600485Y32992587D01*
X30669523Y33136866D01*
X30721562Y33272439D01*
X30735434Y33318571D01*
X30757181Y33433166D01*
X30768281Y33569794D01*
X30768873Y33715839D01*
X30768873Y31014429D01*
X28997030Y31014429D01*
X28805111Y31014429D01*
X28805111Y33128071D01*
X28794821Y33281451D01*
X28760474Y33417435D01*
X28698265Y33548738D01*
X28661497Y33607684D01*
X28547301Y33751030D01*
X28400504Y33887879D01*
X28224590Y34015515D01*
X28023046Y34131222D01*
X27933955Y34174517D01*
X27775358Y34247835D01*
X27679672Y34141525D01*
X27551269Y33984212D01*
X27438956Y33817269D01*
X27345432Y33646398D01*
X27273397Y33477299D01*
X27225550Y33315673D01*
X27204592Y33167221D01*
X27203858Y33136717D01*
X27221718Y32959503D01*
X27274572Y32787514D01*
X27361330Y32622152D01*
X27480903Y32464822D01*
X27632199Y32316925D01*
X27814130Y32179865D01*
X28025605Y32055044D01*
X28056572Y32039099D01*
X28186620Y31974867D01*
X28298589Y31922869D01*
X28389691Y31884220D01*
X28457139Y31860035D01*
X28498145Y31851431D01*
X28510143Y31857657D01*
X28503516Y31882917D01*
X28486522Y31930575D01*
X28463494Y31989853D01*
X28438765Y32049974D01*
X28416666Y32100160D01*
X28401531Y32129634D01*
X28399917Y32131864D01*
X28397508Y32151911D01*
X28412534Y32189218D01*
X28446883Y32247480D01*
X28497880Y32323795D01*
X28609000Y32495786D01*
X28693021Y32651968D01*
X28752105Y32797996D01*
X28788410Y32939522D01*
X28804096Y33082201D01*
X28805111Y33128071D01*
X28805111Y31014429D01*
X26903852Y31014429D01*
X26718212Y31200703D01*
X26532572Y31386977D01*
X26532572Y33509705D01*
X26532572Y35632434D01*
X26718846Y35818074D01*
X26905120Y36003714D01*
X28996280Y36003714D01*
X31087440Y36003714D01*
X31268363Y35824428D01*
X31449286Y35645142D01*
X31449286Y33511344D01*
X31449286Y31377547D01*
X31449286Y31377547D01*
G36*
X30154703Y34135000D02*
X30154075Y34122181D01*
X30138781Y34094179D01*
X30065410Y33971110D01*
X29991687Y33829313D01*
X29922410Y33679477D01*
X29862376Y33532291D01*
X29816384Y33398446D01*
X29800062Y33339502D01*
X29773889Y33230496D01*
X29757364Y33152602D01*
X29750006Y33102088D01*
X29751334Y33075224D01*
X29760866Y33068278D01*
X29765258Y33069522D01*
X29791890Y33081231D01*
X29842293Y33104009D01*
X29907297Y33133702D01*
X29933996Y33145970D01*
X30078777Y33212603D01*
X29952083Y33088694D01*
X29879461Y33015163D01*
X29800739Y32931528D01*
X29730547Y32853409D01*
X29717081Y32837786D01*
X29656999Y32767995D01*
X29594622Y32696605D01*
X29541403Y32636701D01*
X29531173Y32625384D01*
X29453572Y32539983D01*
X29453572Y32694185D01*
X29443548Y32860953D01*
X29415282Y33027011D01*
X29371480Y33178100D01*
X29352696Y33225465D01*
X29330360Y33278876D01*
X29322732Y33303152D01*
X29329251Y33302072D01*
X29343661Y33286220D01*
X29420021Y33197529D01*
X29477122Y33135133D01*
X29517729Y33096490D01*
X29544603Y33079055D01*
X29560509Y33080284D01*
X29563486Y33083803D01*
X29575015Y33123692D01*
X29579980Y33190009D01*
X29578769Y33273569D01*
X29571772Y33365188D01*
X29559378Y33455681D01*
X29544794Y33525228D01*
X29501356Y33658289D01*
X29441073Y33792089D01*
X29370604Y33913248D01*
X29313968Y33989066D01*
X29280149Y34031974D01*
X29260840Y34063288D01*
X29259112Y34073587D01*
X29279824Y34071327D01*
X29323052Y34053837D01*
X29380613Y34025232D01*
X29444323Y33989627D01*
X29506002Y33951138D01*
X29515998Y33944398D01*
X29559806Y33915919D01*
X29584729Y33906905D01*
X29601320Y33915603D01*
X29611619Y33928530D01*
X29642156Y33992665D01*
X29663767Y34085568D01*
X29675787Y34200674D01*
X29677549Y34331419D01*
X29668389Y34471236D01*
X29667484Y34479714D01*
X29661079Y34541500D01*
X29659759Y34571169D01*
X29664445Y34572653D01*
X29676058Y34549882D01*
X29681237Y34538447D01*
X29704670Y34477489D01*
X29732389Y34391949D01*
X29761278Y34292767D01*
X29788219Y34190884D01*
X29810097Y34097238D01*
X29817709Y34059372D01*
X29829880Y33995908D01*
X29840164Y33945264D01*
X29845698Y33920970D01*
X29861889Y33920564D01*
X29901554Y33943265D01*
X29961791Y33987258D01*
X29998159Y34016220D01*
X30059638Y34065478D01*
X30110501Y34104765D01*
X30144382Y34129250D01*
X30154703Y34135000D01*
X30154703Y34135000D01*
X30154703Y34135000D01*
G37*
X30154703Y34135000D02*
X30154075Y34122181D01*
X30138781Y34094179D01*
X30065410Y33971110D01*
X29991687Y33829313D01*
X29922410Y33679477D01*
X29862376Y33532291D01*
X29816384Y33398446D01*
X29800062Y33339502D01*
X29773889Y33230496D01*
X29757364Y33152602D01*
X29750006Y33102088D01*
X29751334Y33075224D01*
X29760866Y33068278D01*
X29765258Y33069522D01*
X29791890Y33081231D01*
X29842293Y33104009D01*
X29907297Y33133702D01*
X29933996Y33145970D01*
X30078777Y33212603D01*
X29952083Y33088694D01*
X29879461Y33015163D01*
X29800739Y32931528D01*
X29730547Y32853409D01*
X29717081Y32837786D01*
X29656999Y32767995D01*
X29594622Y32696605D01*
X29541403Y32636701D01*
X29531173Y32625384D01*
X29453572Y32539983D01*
X29453572Y32694185D01*
X29443548Y32860953D01*
X29415282Y33027011D01*
X29371480Y33178100D01*
X29352696Y33225465D01*
X29330360Y33278876D01*
X29322732Y33303152D01*
X29329251Y33302072D01*
X29343661Y33286220D01*
X29420021Y33197529D01*
X29477122Y33135133D01*
X29517729Y33096490D01*
X29544603Y33079055D01*
X29560509Y33080284D01*
X29563486Y33083803D01*
X29575015Y33123692D01*
X29579980Y33190009D01*
X29578769Y33273569D01*
X29571772Y33365188D01*
X29559378Y33455681D01*
X29544794Y33525228D01*
X29501356Y33658289D01*
X29441073Y33792089D01*
X29370604Y33913248D01*
X29313968Y33989066D01*
X29280149Y34031974D01*
X29260840Y34063288D01*
X29259112Y34073587D01*
X29279824Y34071327D01*
X29323052Y34053837D01*
X29380613Y34025232D01*
X29444323Y33989627D01*
X29506002Y33951138D01*
X29515998Y33944398D01*
X29559806Y33915919D01*
X29584729Y33906905D01*
X29601320Y33915603D01*
X29611619Y33928530D01*
X29642156Y33992665D01*
X29663767Y34085568D01*
X29675787Y34200674D01*
X29677549Y34331419D01*
X29668389Y34471236D01*
X29667484Y34479714D01*
X29661079Y34541500D01*
X29659759Y34571169D01*
X29664445Y34572653D01*
X29676058Y34549882D01*
X29681237Y34538447D01*
X29704670Y34477489D01*
X29732389Y34391949D01*
X29761278Y34292767D01*
X29788219Y34190884D01*
X29810097Y34097238D01*
X29817709Y34059372D01*
X29829880Y33995908D01*
X29840164Y33945264D01*
X29845698Y33920970D01*
X29861889Y33920564D01*
X29901554Y33943265D01*
X29961791Y33987258D01*
X29998159Y34016220D01*
X30059638Y34065478D01*
X30110501Y34104765D01*
X30144382Y34129250D01*
X30154703Y34135000D01*
X30154703Y34135000D01*
G36*
X29649267Y34615421D02*
X29647096Y34612762D01*
X29636310Y34615252D01*
X29635000Y34624857D01*
X29641639Y34639791D01*
X29647096Y34636952D01*
X29649267Y34615421D01*
X29649267Y34615421D01*
X29649267Y34615421D01*
G37*
X29649267Y34615421D02*
X29647096Y34612762D01*
X29636310Y34615252D01*
X29635000Y34624857D01*
X29641639Y34639791D01*
X29647096Y34636952D01*
X29649267Y34615421D01*
X29649267Y34615421D01*
G36*
X28197300Y32434845D02*
X28178392Y32435966D01*
X28136723Y32464581D01*
X28111000Y32486085D01*
X28068180Y32521621D01*
X28006623Y32570742D01*
X27936635Y32625280D01*
X27902358Y32651525D01*
X27838487Y32701223D01*
X27802158Y32732676D01*
X27791098Y32748320D01*
X27803035Y32750595D01*
X27811643Y32748825D01*
X27865864Y32735748D01*
X27906893Y32725823D01*
X27939696Y32725553D01*
X27947715Y32743260D01*
X27938341Y32780050D01*
X27913004Y32839389D01*
X27875884Y32913648D01*
X27831159Y32995194D01*
X27783009Y33076395D01*
X27735611Y33149619D01*
X27694741Y33205270D01*
X27651993Y33259392D01*
X27619867Y33302431D01*
X27603851Y33326958D01*
X27603000Y33329466D01*
X27617257Y33326921D01*
X27654502Y33309766D01*
X27702786Y33283862D01*
X27802572Y33227547D01*
X27803711Y33332023D01*
X27807709Y33405291D01*
X27817033Y33493974D01*
X27828641Y33572571D01*
X27852432Y33708643D01*
X27854716Y33607614D01*
X27862885Y33518933D01*
X27881414Y33428082D01*
X27906989Y33347971D01*
X27935660Y33292369D01*
X27951748Y33274094D01*
X27969030Y33271574D01*
X27996550Y33287332D01*
X28040532Y33321621D01*
X28098366Y33367143D01*
X28131157Y33388667D01*
X28141716Y33385445D01*
X28132860Y33356727D01*
X28108282Y33303597D01*
X28056551Y33158526D01*
X28033912Y33005111D01*
X28039269Y32876219D01*
X28052477Y32800879D01*
X28067709Y32760482D01*
X28087236Y32753687D01*
X28113328Y32779153D01*
X28138116Y32817837D01*
X28166266Y32864295D01*
X28186395Y32894591D01*
X28192439Y32901286D01*
X28192053Y32885554D01*
X28184759Y32845870D01*
X28179938Y32824179D01*
X28172406Y32766067D01*
X28170076Y32688873D01*
X28172477Y32605507D01*
X28179141Y32528881D01*
X28189599Y32471907D01*
X28193109Y32461321D01*
X28197300Y32434845D01*
X28197300Y32434845D01*
X28197300Y32434845D01*
G37*
X28197300Y32434845D02*
X28178392Y32435966D01*
X28136723Y32464581D01*
X28111000Y32486085D01*
X28068180Y32521621D01*
X28006623Y32570742D01*
X27936635Y32625280D01*
X27902358Y32651525D01*
X27838487Y32701223D01*
X27802158Y32732676D01*
X27791098Y32748320D01*
X27803035Y32750595D01*
X27811643Y32748825D01*
X27865864Y32735748D01*
X27906893Y32725823D01*
X27939696Y32725553D01*
X27947715Y32743260D01*
X27938341Y32780050D01*
X27913004Y32839389D01*
X27875884Y32913648D01*
X27831159Y32995194D01*
X27783009Y33076395D01*
X27735611Y33149619D01*
X27694741Y33205270D01*
X27651993Y33259392D01*
X27619867Y33302431D01*
X27603851Y33326958D01*
X27603000Y33329466D01*
X27617257Y33326921D01*
X27654502Y33309766D01*
X27702786Y33283862D01*
X27802572Y33227547D01*
X27803711Y33332023D01*
X27807709Y33405291D01*
X27817033Y33493974D01*
X27828641Y33572571D01*
X27852432Y33708643D01*
X27854716Y33607614D01*
X27862885Y33518933D01*
X27881414Y33428082D01*
X27906989Y33347971D01*
X27935660Y33292369D01*
X27951748Y33274094D01*
X27969030Y33271574D01*
X27996550Y33287332D01*
X28040532Y33321621D01*
X28098366Y33367143D01*
X28131157Y33388667D01*
X28141716Y33385445D01*
X28132860Y33356727D01*
X28108282Y33303597D01*
X28056551Y33158526D01*
X28033912Y33005111D01*
X28039269Y32876219D01*
X28052477Y32800879D01*
X28067709Y32760482D01*
X28087236Y32753687D01*
X28113328Y32779153D01*
X28138116Y32817837D01*
X28166266Y32864295D01*
X28186395Y32894591D01*
X28192439Y32901286D01*
X28192053Y32885554D01*
X28184759Y32845870D01*
X28179938Y32824179D01*
X28172406Y32766067D01*
X28170076Y32688873D01*
X28172477Y32605507D01*
X28179141Y32528881D01*
X28189599Y32471907D01*
X28193109Y32461321D01*
X28197300Y32434845D01*
X28197300Y32434845D01*
G36*
X27748143Y32765214D02*
X27739072Y32756143D01*
X27730000Y32765214D01*
X27739072Y32774286D01*
X27748143Y32765214D01*
X27748143Y32765214D01*
X27748143Y32765214D01*
G37*
X27748143Y32765214D02*
X27739072Y32756143D01*
X27730000Y32765214D01*
X27739072Y32774286D01*
X27748143Y32765214D01*
X27748143Y32765214D01*
D10*
X73168780Y33310140D02*
X73529460Y31839480D01*
X73529460Y31839480D02*
X73808860Y32901200D01*
X73808860Y32901200D02*
X74118740Y31829320D01*
X74118740Y31829320D02*
X74459100Y33279660D01*
X71748920Y32619260D02*
X72538860Y32629420D01*
X72538860Y32629420D02*
X72549020Y32619260D01*
X72549020Y32619260D02*
X72549020Y32629420D01*
X72589660Y33340620D02*
X72589660Y31798840D01*
X71700660Y33350780D02*
X71700660Y31781060D01*
X71700660Y31781060D02*
X71710820Y31791220D01*
X71149480Y33249180D02*
X70798960Y33330460D01*
X70798960Y33330460D02*
X70478920Y33340620D01*
X70478920Y33340620D02*
X70240160Y33139960D01*
X70240160Y33139960D02*
X70209680Y32870720D01*
X70209680Y32870720D02*
X70450980Y32629420D01*
X70450980Y32629420D02*
X70839600Y32499880D01*
X70839600Y32499880D02*
X71019940Y32339860D01*
X71019940Y32339860D02*
X71060580Y32040140D01*
X71060580Y32040140D02*
X70829440Y31819160D01*
X70829440Y31819160D02*
X70509400Y31791220D01*
X70509400Y31791220D02*
X70158880Y31900440D01*
X69120020Y33350780D02*
X68871100Y33330460D01*
X68871100Y33330460D02*
X68629800Y33089160D01*
X68629800Y33089160D02*
X68540900Y32598940D01*
X68540900Y32598940D02*
X68568840Y32250960D01*
X68568840Y32250960D02*
X68769500Y31930920D01*
X68769500Y31930920D02*
X69020960Y31809000D01*
X69020960Y31809000D02*
X69330840Y31880120D01*
X69330840Y31880120D02*
X69549280Y32060460D01*
X69549280Y32060460D02*
X69620400Y32520200D01*
X69620400Y32520200D02*
X69569600Y32929140D01*
X69569600Y32929140D02*
X69460380Y33211080D01*
X69460380Y33211080D02*
X69099700Y33340620D01*
X69719460Y35070360D02*
X69460380Y34509020D01*
X69460380Y34509020D02*
X69998860Y33990860D01*
X69998860Y33990860D02*
X70519560Y34260100D01*
X70519560Y34260100D02*
X70798960Y34100080D01*
X72239140Y34120400D02*
X72569340Y34310900D01*
X72569340Y34310900D02*
X73008760Y33980700D01*
X73008760Y33980700D02*
X73481200Y34470920D01*
X73481200Y34470920D02*
X73199260Y34950980D01*
X73199260Y34950980D02*
X73389760Y35420880D01*
X73389760Y35420880D02*
X73999360Y35608840D01*
X73999360Y35608840D02*
X73999360Y36289560D01*
X73999360Y36289560D02*
X73440560Y36429260D01*
X73440560Y36429260D02*
X73239900Y37000760D01*
X73239900Y37000760D02*
X73509140Y37470660D01*
X73509140Y37470660D02*
X73039240Y37981200D01*
X73039240Y37981200D02*
X72521080Y37719580D01*
X72521080Y37719580D02*
X72051180Y37920240D01*
X72051180Y37920240D02*
X71881000Y38461260D01*
X71881000Y38461260D02*
X71190120Y38479040D01*
X71190120Y38479040D02*
X70979300Y37930400D01*
X70979300Y37930400D02*
X70560200Y37760220D01*
X70560200Y37760220D02*
X70009020Y38029460D01*
X70009020Y38029460D02*
X69490860Y37501140D01*
X69490860Y37501140D02*
X69739780Y36960120D01*
X69739780Y36960120D02*
X69569600Y36480060D01*
X69569600Y36480060D02*
X69020960Y36381000D01*
X69020960Y36381000D02*
X69010800Y35679960D01*
X69010800Y35679960D02*
X69569600Y35479300D01*
X69569600Y35479300D02*
X69709300Y35080520D01*
X71850520Y35100840D02*
X72150240Y35250700D01*
X72150240Y35250700D02*
X72350900Y35448820D01*
X72350900Y35448820D02*
X72500760Y35850140D01*
X72500760Y35850140D02*
X72500760Y36248920D01*
X72500760Y36248920D02*
X72350900Y36599440D01*
X72350900Y36599440D02*
X71898780Y36949960D01*
X71898780Y36949960D02*
X71449200Y37000760D01*
X71449200Y37000760D02*
X71050420Y36899160D01*
X71050420Y36899160D02*
X70649100Y36551180D01*
X70649100Y36551180D02*
X70499240Y36099060D01*
X70499240Y36099060D02*
X70550040Y35601220D01*
X70550040Y35601220D02*
X70798960Y35298960D01*
X70798960Y35298960D02*
X71149480Y35100840D01*
X71149480Y35100840D02*
X70798960Y34100080D01*
X71850520Y35100840D02*
X72249300Y34100080D01*
D19*
X17411768Y24907298D02*
G75*
G03X17411768Y24907298I-159070J0D01*
G01*
X19698718Y25765818D02*
X19698718Y24749818D01*
X17095218Y25765818D02*
X17095218Y24749818D01*
X19698718Y24749818D02*
X17095218Y24749818D01*
X17095218Y25765818D02*
X19698718Y25765818D01*
D10*
X3456726Y18707628D02*
X3456726Y17207628D01*
X3456726Y17207628D02*
X1856726Y17207628D01*
X1856726Y17207628D02*
X1856726Y18707628D01*
X1856726Y18707628D02*
X3456726Y18707628D01*
D12*
X19679194Y22255913D02*
X19679194Y21608294D01*
X19717289Y21532104D01*
X19755385Y21494008D01*
X19831575Y21455913D01*
X19983956Y21455913D01*
X20060147Y21494008D01*
X20098242Y21532104D01*
X20136337Y21608294D01*
X20136337Y22255913D01*
X20479194Y22179723D02*
X20517289Y22217818D01*
X20593480Y22255913D01*
X20783956Y22255913D01*
X20860146Y22217818D01*
X20898242Y22179723D01*
X20936337Y22103532D01*
X20936337Y22027342D01*
X20898242Y21913056D01*
X20441099Y21455913D01*
X20936337Y21455913D01*
X13445385Y16555913D02*
X13178718Y16936866D01*
X12988242Y16555913D02*
X12988242Y17355913D01*
X13293004Y17355913D01*
X13369195Y17317818D01*
X13407290Y17279723D01*
X13445385Y17203532D01*
X13445385Y17089247D01*
X13407290Y17013056D01*
X13369195Y16974961D01*
X13293004Y16936866D01*
X12988242Y16936866D01*
X13750147Y17279723D02*
X13788242Y17317818D01*
X13864433Y17355913D01*
X14054909Y17355913D01*
X14131099Y17317818D01*
X14169195Y17279723D01*
X14207290Y17203532D01*
X14207290Y17127342D01*
X14169195Y17013056D01*
X13712052Y16555913D01*
X14207290Y16555913D01*
X55684432Y30395913D02*
X55417765Y30776866D01*
X55227289Y30395913D02*
X55227289Y31195913D01*
X55532051Y31195913D01*
X55608242Y31157818D01*
X55646337Y31119723D01*
X55684432Y31043532D01*
X55684432Y30929247D01*
X55646337Y30853056D01*
X55608242Y30814961D01*
X55532051Y30776866D01*
X55227289Y30776866D01*
X56446337Y30395913D02*
X55989194Y30395913D01*
X56217765Y30395913D02*
X56217765Y31195913D01*
X56141575Y31081628D01*
X56065384Y31005437D01*
X55989194Y30967342D01*
X56751099Y31119723D02*
X56789194Y31157818D01*
X56865385Y31195913D01*
X57055861Y31195913D01*
X57132051Y31157818D01*
X57170147Y31119723D01*
X57208242Y31043532D01*
X57208242Y30967342D01*
X57170147Y30853056D01*
X56713004Y30395913D01*
X57208242Y30395913D01*
X38365385Y15315913D02*
X38098718Y15696866D01*
X37908242Y15315913D02*
X37908242Y16115913D01*
X38213004Y16115913D01*
X38289195Y16077818D01*
X38327290Y16039723D01*
X38365385Y15963532D01*
X38365385Y15849247D01*
X38327290Y15773056D01*
X38289195Y15734961D01*
X38213004Y15696866D01*
X37908242Y15696866D01*
X39051099Y16115913D02*
X38898718Y16115913D01*
X38822528Y16077818D01*
X38784433Y16039723D01*
X38708242Y15925437D01*
X38670147Y15773056D01*
X38670147Y15468294D01*
X38708242Y15392104D01*
X38746337Y15354008D01*
X38822528Y15315913D01*
X38974909Y15315913D01*
X39051099Y15354008D01*
X39089195Y15392104D01*
X39127290Y15468294D01*
X39127290Y15658770D01*
X39089195Y15734961D01*
X39051099Y15773056D01*
X38974909Y15811151D01*
X38822528Y15811151D01*
X38746337Y15773056D01*
X38708242Y15734961D01*
X38670147Y15658770D01*
X42935385Y21435913D02*
X42668718Y21816866D01*
X42478242Y21435913D02*
X42478242Y22235913D01*
X42783004Y22235913D01*
X42859195Y22197818D01*
X42897290Y22159723D01*
X42935385Y22083532D01*
X42935385Y21969247D01*
X42897290Y21893056D01*
X42859195Y21854961D01*
X42783004Y21816866D01*
X42478242Y21816866D01*
X43202052Y22235913D02*
X43735385Y22235913D01*
X43392528Y21435913D01*
X14035385Y27695913D02*
X13768718Y28076866D01*
X13578242Y27695913D02*
X13578242Y28495913D01*
X13883004Y28495913D01*
X13959195Y28457818D01*
X13997290Y28419723D01*
X14035385Y28343532D01*
X14035385Y28229247D01*
X13997290Y28153056D01*
X13959195Y28114961D01*
X13883004Y28076866D01*
X13578242Y28076866D01*
X14759195Y28495913D02*
X14378242Y28495913D01*
X14340147Y28114961D01*
X14378242Y28153056D01*
X14454433Y28191151D01*
X14644909Y28191151D01*
X14721099Y28153056D01*
X14759195Y28114961D01*
X14797290Y28038770D01*
X14797290Y27848294D01*
X14759195Y27772104D01*
X14721099Y27734008D01*
X14644909Y27695913D01*
X14454433Y27695913D01*
X14378242Y27734008D01*
X14340147Y27772104D01*
X34250623Y23274485D02*
X33869670Y23007818D01*
X34250623Y22817342D02*
X33450623Y22817342D01*
X33450623Y23122104D01*
X33488718Y23198295D01*
X33526813Y23236390D01*
X33603004Y23274485D01*
X33717289Y23274485D01*
X33793480Y23236390D01*
X33831575Y23198295D01*
X33869670Y23122104D01*
X33869670Y22817342D01*
X33717289Y23960199D02*
X34250623Y23960199D01*
X33412528Y23769723D02*
X33983956Y23579247D01*
X33983956Y24074485D01*
X19975385Y6455913D02*
X19708718Y6836866D01*
X19518242Y6455913D02*
X19518242Y7255913D01*
X19823004Y7255913D01*
X19899195Y7217818D01*
X19937290Y7179723D01*
X19975385Y7103532D01*
X19975385Y6989247D01*
X19937290Y6913056D01*
X19899195Y6874961D01*
X19823004Y6836866D01*
X19518242Y6836866D01*
X20242052Y7255913D02*
X20737290Y7255913D01*
X20470623Y6951151D01*
X20584909Y6951151D01*
X20661099Y6913056D01*
X20699195Y6874961D01*
X20737290Y6798770D01*
X20737290Y6608294D01*
X20699195Y6532104D01*
X20661099Y6494008D01*
X20584909Y6455913D01*
X20356337Y6455913D01*
X20280147Y6494008D01*
X20242052Y6532104D01*
X41375385Y13565913D02*
X41108718Y13946866D01*
X40918242Y13565913D02*
X40918242Y14365913D01*
X41223004Y14365913D01*
X41299195Y14327818D01*
X41337290Y14289723D01*
X41375385Y14213532D01*
X41375385Y14099247D01*
X41337290Y14023056D01*
X41299195Y13984961D01*
X41223004Y13946866D01*
X40918242Y13946866D01*
X41832528Y14023056D02*
X41756337Y14061151D01*
X41718242Y14099247D01*
X41680147Y14175437D01*
X41680147Y14213532D01*
X41718242Y14289723D01*
X41756337Y14327818D01*
X41832528Y14365913D01*
X41984909Y14365913D01*
X42061099Y14327818D01*
X42099195Y14289723D01*
X42137290Y14213532D01*
X42137290Y14175437D01*
X42099195Y14099247D01*
X42061099Y14061151D01*
X41984909Y14023056D01*
X41832528Y14023056D01*
X41756337Y13984961D01*
X41718242Y13946866D01*
X41680147Y13870675D01*
X41680147Y13718294D01*
X41718242Y13642104D01*
X41756337Y13604008D01*
X41832528Y13565913D01*
X41984909Y13565913D01*
X42061099Y13604008D01*
X42099195Y13642104D01*
X42137290Y13718294D01*
X42137290Y13870675D01*
X42099195Y13946866D01*
X42061099Y13984961D01*
X41984909Y14023056D01*
X13405385Y18085913D02*
X13138718Y18466866D01*
X12948242Y18085913D02*
X12948242Y18885913D01*
X13253004Y18885913D01*
X13329195Y18847818D01*
X13367290Y18809723D01*
X13405385Y18733532D01*
X13405385Y18619247D01*
X13367290Y18543056D01*
X13329195Y18504961D01*
X13253004Y18466866D01*
X12948242Y18466866D01*
X14167290Y18085913D02*
X13710147Y18085913D01*
X13938718Y18085913D02*
X13938718Y18885913D01*
X13862528Y18771628D01*
X13786337Y18695437D01*
X13710147Y18657342D01*
X48844432Y26185913D02*
X48577765Y26566866D01*
X48387289Y26185913D02*
X48387289Y26985913D01*
X48692051Y26985913D01*
X48768242Y26947818D01*
X48806337Y26909723D01*
X48844432Y26833532D01*
X48844432Y26719247D01*
X48806337Y26643056D01*
X48768242Y26604961D01*
X48692051Y26566866D01*
X48387289Y26566866D01*
X49606337Y26185913D02*
X49149194Y26185913D01*
X49377765Y26185913D02*
X49377765Y26985913D01*
X49301575Y26871628D01*
X49225384Y26795437D01*
X49149194Y26757342D01*
X50101575Y26985913D02*
X50177766Y26985913D01*
X50253956Y26947818D01*
X50292051Y26909723D01*
X50330147Y26833532D01*
X50368242Y26681151D01*
X50368242Y26490675D01*
X50330147Y26338294D01*
X50292051Y26262104D01*
X50253956Y26224008D01*
X50177766Y26185913D01*
X50101575Y26185913D01*
X50025385Y26224008D01*
X49987289Y26262104D01*
X49949194Y26338294D01*
X49911099Y26490675D01*
X49911099Y26681151D01*
X49949194Y26833532D01*
X49987289Y26909723D01*
X50025385Y26947818D01*
X50101575Y26985913D01*
X57095385Y15825913D02*
X56828718Y16206866D01*
X56638242Y15825913D02*
X56638242Y16625913D01*
X56943004Y16625913D01*
X57019195Y16587818D01*
X57057290Y16549723D01*
X57095385Y16473532D01*
X57095385Y16359247D01*
X57057290Y16283056D01*
X57019195Y16244961D01*
X56943004Y16206866D01*
X56638242Y16206866D01*
X57476337Y15825913D02*
X57628718Y15825913D01*
X57704909Y15864008D01*
X57743004Y15902104D01*
X57819195Y16016389D01*
X57857290Y16168770D01*
X57857290Y16473532D01*
X57819195Y16549723D01*
X57781099Y16587818D01*
X57704909Y16625913D01*
X57552528Y16625913D01*
X57476337Y16587818D01*
X57438242Y16549723D01*
X57400147Y16473532D01*
X57400147Y16283056D01*
X57438242Y16206866D01*
X57476337Y16168770D01*
X57552528Y16130675D01*
X57704909Y16130675D01*
X57781099Y16168770D01*
X57819195Y16206866D01*
X57857290Y16283056D01*
X39744432Y21492104D02*
X39706337Y21454008D01*
X39592051Y21415913D01*
X39515861Y21415913D01*
X39401575Y21454008D01*
X39325384Y21530199D01*
X39287289Y21606389D01*
X39249194Y21758770D01*
X39249194Y21873056D01*
X39287289Y22025437D01*
X39325384Y22101628D01*
X39401575Y22177818D01*
X39515861Y22215913D01*
X39592051Y22215913D01*
X39706337Y22177818D01*
X39744432Y22139723D01*
X40506337Y21415913D02*
X40049194Y21415913D01*
X40277765Y21415913D02*
X40277765Y22215913D01*
X40201575Y22101628D01*
X40125384Y22025437D01*
X40049194Y21987342D01*
X40773004Y22215913D02*
X41268242Y22215913D01*
X41001575Y21911151D01*
X41115861Y21911151D01*
X41192051Y21873056D01*
X41230147Y21834961D01*
X41268242Y21758770D01*
X41268242Y21568294D01*
X41230147Y21492104D01*
X41192051Y21454008D01*
X41115861Y21415913D01*
X40887289Y21415913D01*
X40811099Y21454008D01*
X40773004Y21492104D01*
X24084432Y26884485D02*
X24122528Y26846390D01*
X24160623Y26732104D01*
X24160623Y26655914D01*
X24122528Y26541628D01*
X24046337Y26465437D01*
X23970147Y26427342D01*
X23817766Y26389247D01*
X23703480Y26389247D01*
X23551099Y26427342D01*
X23474908Y26465437D01*
X23398718Y26541628D01*
X23360623Y26655914D01*
X23360623Y26732104D01*
X23398718Y26846390D01*
X23436813Y26884485D01*
X23703480Y27341628D02*
X23665385Y27265437D01*
X23627289Y27227342D01*
X23551099Y27189247D01*
X23513004Y27189247D01*
X23436813Y27227342D01*
X23398718Y27265437D01*
X23360623Y27341628D01*
X23360623Y27494009D01*
X23398718Y27570199D01*
X23436813Y27608295D01*
X23513004Y27646390D01*
X23551099Y27646390D01*
X23627289Y27608295D01*
X23665385Y27570199D01*
X23703480Y27494009D01*
X23703480Y27341628D01*
X23741575Y27265437D01*
X23779670Y27227342D01*
X23855861Y27189247D01*
X24008242Y27189247D01*
X24084432Y27227342D01*
X24122528Y27265437D01*
X24160623Y27341628D01*
X24160623Y27494009D01*
X24122528Y27570199D01*
X24084432Y27608295D01*
X24008242Y27646390D01*
X23855861Y27646390D01*
X23779670Y27608295D01*
X23741575Y27570199D01*
X23703480Y27494009D01*
X23915385Y6632104D02*
X23877290Y6594008D01*
X23763004Y6555913D01*
X23686814Y6555913D01*
X23572528Y6594008D01*
X23496337Y6670199D01*
X23458242Y6746389D01*
X23420147Y6898770D01*
X23420147Y7013056D01*
X23458242Y7165437D01*
X23496337Y7241628D01*
X23572528Y7317818D01*
X23686814Y7355913D01*
X23763004Y7355913D01*
X23877290Y7317818D01*
X23915385Y7279723D01*
X24182052Y7355913D02*
X24677290Y7355913D01*
X24410623Y7051151D01*
X24524909Y7051151D01*
X24601099Y7013056D01*
X24639195Y6974961D01*
X24677290Y6898770D01*
X24677290Y6708294D01*
X24639195Y6632104D01*
X24601099Y6594008D01*
X24524909Y6555913D01*
X24296337Y6555913D01*
X24220147Y6594008D01*
X24182052Y6632104D01*
X36785714Y11866667D02*
X36823810Y11828572D01*
X36861905Y11714286D01*
X36861905Y11638096D01*
X36823810Y11523810D01*
X36747619Y11447619D01*
X36671429Y11409524D01*
X36519048Y11371429D01*
X36404762Y11371429D01*
X36252381Y11409524D01*
X36176190Y11447619D01*
X36100000Y11523810D01*
X36061905Y11638096D01*
X36061905Y11714286D01*
X36100000Y11828572D01*
X36138095Y11866667D01*
X36328571Y12552381D02*
X36861905Y12552381D01*
X36023810Y12361905D02*
X36595238Y12171429D01*
X36595238Y12666667D01*
X29274432Y24754485D02*
X29312528Y24716390D01*
X29350623Y24602104D01*
X29350623Y24525914D01*
X29312528Y24411628D01*
X29236337Y24335437D01*
X29160147Y24297342D01*
X29007766Y24259247D01*
X28893480Y24259247D01*
X28741099Y24297342D01*
X28664908Y24335437D01*
X28588718Y24411628D01*
X28550623Y24525914D01*
X28550623Y24602104D01*
X28588718Y24716390D01*
X28626813Y24754485D01*
X28550623Y25478295D02*
X28550623Y25097342D01*
X28931575Y25059247D01*
X28893480Y25097342D01*
X28855385Y25173533D01*
X28855385Y25364009D01*
X28893480Y25440199D01*
X28931575Y25478295D01*
X29007766Y25516390D01*
X29198242Y25516390D01*
X29274432Y25478295D01*
X29312528Y25440199D01*
X29350623Y25364009D01*
X29350623Y25173533D01*
X29312528Y25097342D01*
X29274432Y25059247D01*
X22574432Y26894485D02*
X22612528Y26856390D01*
X22650623Y26742104D01*
X22650623Y26665914D01*
X22612528Y26551628D01*
X22536337Y26475437D01*
X22460147Y26437342D01*
X22307766Y26399247D01*
X22193480Y26399247D01*
X22041099Y26437342D01*
X21964908Y26475437D01*
X21888718Y26551628D01*
X21850623Y26665914D01*
X21850623Y26742104D01*
X21888718Y26856390D01*
X21926813Y26894485D01*
X21850623Y27580199D02*
X21850623Y27427818D01*
X21888718Y27351628D01*
X21926813Y27313533D01*
X22041099Y27237342D01*
X22193480Y27199247D01*
X22498242Y27199247D01*
X22574432Y27237342D01*
X22612528Y27275437D01*
X22650623Y27351628D01*
X22650623Y27504009D01*
X22612528Y27580199D01*
X22574432Y27618295D01*
X22498242Y27656390D01*
X22307766Y27656390D01*
X22231575Y27618295D01*
X22193480Y27580199D01*
X22155385Y27504009D01*
X22155385Y27351628D01*
X22193480Y27275437D01*
X22231575Y27237342D01*
X22307766Y27199247D01*
X13434432Y29242104D02*
X13396337Y29204008D01*
X13282051Y29165913D01*
X13205861Y29165913D01*
X13091575Y29204008D01*
X13015384Y29280199D01*
X12977289Y29356389D01*
X12939194Y29508770D01*
X12939194Y29623056D01*
X12977289Y29775437D01*
X13015384Y29851628D01*
X13091575Y29927818D01*
X13205861Y29965913D01*
X13282051Y29965913D01*
X13396337Y29927818D01*
X13434432Y29889723D01*
X14196337Y29165913D02*
X13739194Y29165913D01*
X13967765Y29165913D02*
X13967765Y29965913D01*
X13891575Y29851628D01*
X13815384Y29775437D01*
X13739194Y29737342D01*
X14958242Y29165913D02*
X14501099Y29165913D01*
X14729670Y29165913D02*
X14729670Y29965913D01*
X14653480Y29851628D01*
X14577289Y29775437D01*
X14501099Y29737342D01*
X51474432Y27602104D02*
X51436337Y27564008D01*
X51322051Y27525913D01*
X51245861Y27525913D01*
X51131575Y27564008D01*
X51055384Y27640199D01*
X51017289Y27716389D01*
X50979194Y27868770D01*
X50979194Y27983056D01*
X51017289Y28135437D01*
X51055384Y28211628D01*
X51131575Y28287818D01*
X51245861Y28325913D01*
X51322051Y28325913D01*
X51436337Y28287818D01*
X51474432Y28249723D01*
X52236337Y27525913D02*
X51779194Y27525913D01*
X52007765Y27525913D02*
X52007765Y28325913D01*
X51931575Y28211628D01*
X51855384Y28135437D01*
X51779194Y28097342D01*
X52922051Y28059247D02*
X52922051Y27525913D01*
X52731575Y28364008D02*
X52541099Y27792580D01*
X53036337Y27792580D01*
X46174432Y26192104D02*
X46136337Y26154008D01*
X46022051Y26115913D01*
X45945861Y26115913D01*
X45831575Y26154008D01*
X45755384Y26230199D01*
X45717289Y26306389D01*
X45679194Y26458770D01*
X45679194Y26573056D01*
X45717289Y26725437D01*
X45755384Y26801628D01*
X45831575Y26877818D01*
X45945861Y26915913D01*
X46022051Y26915913D01*
X46136337Y26877818D01*
X46174432Y26839723D01*
X46936337Y26115913D02*
X46479194Y26115913D01*
X46707765Y26115913D02*
X46707765Y26915913D01*
X46631575Y26801628D01*
X46555384Y26725437D01*
X46479194Y26687342D01*
X47660147Y26915913D02*
X47279194Y26915913D01*
X47241099Y26534961D01*
X47279194Y26573056D01*
X47355385Y26611151D01*
X47545861Y26611151D01*
X47622051Y26573056D01*
X47660147Y26534961D01*
X47698242Y26458770D01*
X47698242Y26268294D01*
X47660147Y26192104D01*
X47622051Y26154008D01*
X47545861Y26115913D01*
X47355385Y26115913D01*
X47279194Y26154008D01*
X47241099Y26192104D01*
X56674432Y20862104D02*
X56636337Y20824008D01*
X56522051Y20785913D01*
X56445861Y20785913D01*
X56331575Y20824008D01*
X56255384Y20900199D01*
X56217289Y20976389D01*
X56179194Y21128770D01*
X56179194Y21243056D01*
X56217289Y21395437D01*
X56255384Y21471628D01*
X56331575Y21547818D01*
X56445861Y21585913D01*
X56522051Y21585913D01*
X56636337Y21547818D01*
X56674432Y21509723D01*
X57436337Y20785913D02*
X56979194Y20785913D01*
X57207765Y20785913D02*
X57207765Y21585913D01*
X57131575Y21471628D01*
X57055384Y21395437D01*
X56979194Y21357342D01*
X58122051Y21585913D02*
X57969670Y21585913D01*
X57893480Y21547818D01*
X57855385Y21509723D01*
X57779194Y21395437D01*
X57741099Y21243056D01*
X57741099Y20938294D01*
X57779194Y20862104D01*
X57817289Y20824008D01*
X57893480Y20785913D01*
X58045861Y20785913D01*
X58122051Y20824008D01*
X58160147Y20862104D01*
X58198242Y20938294D01*
X58198242Y21128770D01*
X58160147Y21204961D01*
X58122051Y21243056D01*
X58045861Y21281151D01*
X57893480Y21281151D01*
X57817289Y21243056D01*
X57779194Y21204961D01*
X57741099Y21128770D01*
X81114432Y4432104D02*
X81076337Y4394008D01*
X80962051Y4355913D01*
X80885861Y4355913D01*
X80771575Y4394008D01*
X80695384Y4470199D01*
X80657289Y4546389D01*
X80619194Y4698770D01*
X80619194Y4813056D01*
X80657289Y4965437D01*
X80695384Y5041628D01*
X80771575Y5117818D01*
X80885861Y5155913D01*
X80962051Y5155913D01*
X81076337Y5117818D01*
X81114432Y5079723D01*
X81876337Y4355913D02*
X81419194Y4355913D01*
X81647765Y4355913D02*
X81647765Y5155913D01*
X81571575Y5041628D01*
X81495384Y4965437D01*
X81419194Y4927342D01*
X82143004Y5155913D02*
X82676337Y5155913D01*
X82333480Y4355913D01*
X12785385Y24572104D02*
X12747290Y24534008D01*
X12633004Y24495913D01*
X12556814Y24495913D01*
X12442528Y24534008D01*
X12366337Y24610199D01*
X12328242Y24686389D01*
X12290147Y24838770D01*
X12290147Y24953056D01*
X12328242Y25105437D01*
X12366337Y25181628D01*
X12442528Y25257818D01*
X12556814Y25295913D01*
X12633004Y25295913D01*
X12747290Y25257818D01*
X12785385Y25219723D01*
X13547290Y24495913D02*
X13090147Y24495913D01*
X13318718Y24495913D02*
X13318718Y25295913D01*
X13242528Y25181628D01*
X13166337Y25105437D01*
X13090147Y25067342D01*
X21094432Y26944485D02*
X21132528Y26906390D01*
X21170623Y26792104D01*
X21170623Y26715914D01*
X21132528Y26601628D01*
X21056337Y26525437D01*
X20980147Y26487342D01*
X20827766Y26449247D01*
X20713480Y26449247D01*
X20561099Y26487342D01*
X20484908Y26525437D01*
X20408718Y26601628D01*
X20370623Y26715914D01*
X20370623Y26792104D01*
X20408718Y26906390D01*
X20446813Y26944485D01*
X20446813Y27249247D02*
X20408718Y27287342D01*
X20370623Y27363533D01*
X20370623Y27554009D01*
X20408718Y27630199D01*
X20446813Y27668295D01*
X20523004Y27706390D01*
X20599194Y27706390D01*
X20713480Y27668295D01*
X21170623Y27211152D01*
X21170623Y27706390D01*
X61434432Y30412104D02*
X61396337Y30374008D01*
X61282051Y30335913D01*
X61205861Y30335913D01*
X61091575Y30374008D01*
X61015384Y30450199D01*
X60977289Y30526389D01*
X60939194Y30678770D01*
X60939194Y30793056D01*
X60977289Y30945437D01*
X61015384Y31021628D01*
X61091575Y31097818D01*
X61205861Y31135913D01*
X61282051Y31135913D01*
X61396337Y31097818D01*
X61434432Y31059723D01*
X61701099Y31135913D02*
X62196337Y31135913D01*
X61929670Y30831151D01*
X62043956Y30831151D01*
X62120146Y30793056D01*
X62158242Y30754961D01*
X62196337Y30678770D01*
X62196337Y30488294D01*
X62158242Y30412104D01*
X62120146Y30374008D01*
X62043956Y30335913D01*
X61815384Y30335913D01*
X61739194Y30374008D01*
X61701099Y30412104D01*
X62463004Y31135913D02*
X62958242Y31135913D01*
X62691575Y30831151D01*
X62805861Y30831151D01*
X62882051Y30793056D01*
X62920147Y30754961D01*
X62958242Y30678770D01*
X62958242Y30488294D01*
X62920147Y30412104D01*
X62882051Y30374008D01*
X62805861Y30335913D01*
X62577289Y30335913D01*
X62501099Y30374008D01*
X62463004Y30412104D01*
X58994432Y30452104D02*
X58956337Y30414008D01*
X58842051Y30375913D01*
X58765861Y30375913D01*
X58651575Y30414008D01*
X58575384Y30490199D01*
X58537289Y30566389D01*
X58499194Y30718770D01*
X58499194Y30833056D01*
X58537289Y30985437D01*
X58575384Y31061628D01*
X58651575Y31137818D01*
X58765861Y31175913D01*
X58842051Y31175913D01*
X58956337Y31137818D01*
X58994432Y31099723D01*
X59261099Y31175913D02*
X59756337Y31175913D01*
X59489670Y30871151D01*
X59603956Y30871151D01*
X59680146Y30833056D01*
X59718242Y30794961D01*
X59756337Y30718770D01*
X59756337Y30528294D01*
X59718242Y30452104D01*
X59680146Y30414008D01*
X59603956Y30375913D01*
X59375384Y30375913D01*
X59299194Y30414008D01*
X59261099Y30452104D01*
X60442051Y31175913D02*
X60289670Y31175913D01*
X60213480Y31137818D01*
X60175385Y31099723D01*
X60099194Y30985437D01*
X60061099Y30833056D01*
X60061099Y30528294D01*
X60099194Y30452104D01*
X60137289Y30414008D01*
X60213480Y30375913D01*
X60365861Y30375913D01*
X60442051Y30414008D01*
X60480147Y30452104D01*
X60518242Y30528294D01*
X60518242Y30718770D01*
X60480147Y30794961D01*
X60442051Y30833056D01*
X60365861Y30871151D01*
X60213480Y30871151D01*
X60137289Y30833056D01*
X60099194Y30794961D01*
X60061099Y30718770D01*
X30144432Y3462104D02*
X30106337Y3424008D01*
X29992051Y3385913D01*
X29915861Y3385913D01*
X29801575Y3424008D01*
X29725384Y3500199D01*
X29687289Y3576389D01*
X29649194Y3728770D01*
X29649194Y3843056D01*
X29687289Y3995437D01*
X29725384Y4071628D01*
X29801575Y4147818D01*
X29915861Y4185913D01*
X29992051Y4185913D01*
X30106337Y4147818D01*
X30144432Y4109723D01*
X30906337Y3385913D02*
X30449194Y3385913D01*
X30677765Y3385913D02*
X30677765Y4185913D01*
X30601575Y4071628D01*
X30525384Y3995437D01*
X30449194Y3957342D01*
X31401575Y4185913D02*
X31477766Y4185913D01*
X31553956Y4147818D01*
X31592051Y4109723D01*
X31630147Y4033532D01*
X31668242Y3881151D01*
X31668242Y3690675D01*
X31630147Y3538294D01*
X31592051Y3462104D01*
X31553956Y3424008D01*
X31477766Y3385913D01*
X31401575Y3385913D01*
X31325385Y3424008D01*
X31287289Y3462104D01*
X31249194Y3538294D01*
X31211099Y3690675D01*
X31211099Y3881151D01*
X31249194Y4033532D01*
X31287289Y4109723D01*
X31325385Y4147818D01*
X31401575Y4185913D01*
X20224432Y28463532D02*
X20262528Y28425437D01*
X20300623Y28311151D01*
X20300623Y28234961D01*
X20262528Y28120675D01*
X20186337Y28044484D01*
X20110147Y28006389D01*
X19957766Y27968294D01*
X19843480Y27968294D01*
X19691099Y28006389D01*
X19614908Y28044484D01*
X19538718Y28120675D01*
X19500623Y28234961D01*
X19500623Y28311151D01*
X19538718Y28425437D01*
X19576813Y28463532D01*
X20300623Y29225437D02*
X20300623Y28768294D01*
X20300623Y28996865D02*
X19500623Y28996865D01*
X19614908Y28920675D01*
X19691099Y28844484D01*
X19729194Y28768294D01*
X19576813Y29530199D02*
X19538718Y29568294D01*
X19500623Y29644485D01*
X19500623Y29834961D01*
X19538718Y29911151D01*
X19576813Y29949247D01*
X19653004Y29987342D01*
X19729194Y29987342D01*
X19843480Y29949247D01*
X20300623Y29492104D01*
X20300623Y29987342D01*
X13225385Y15042104D02*
X13187290Y15004008D01*
X13073004Y14965913D01*
X12996814Y14965913D01*
X12882528Y15004008D01*
X12806337Y15080199D01*
X12768242Y15156389D01*
X12730147Y15308770D01*
X12730147Y15423056D01*
X12768242Y15575437D01*
X12806337Y15651628D01*
X12882528Y15727818D01*
X12996814Y15765913D01*
X13073004Y15765913D01*
X13187290Y15727818D01*
X13225385Y15689723D01*
X13492052Y15765913D02*
X14025385Y15765913D01*
X13682528Y14965913D01*
X27275385Y3402104D02*
X27237290Y3364008D01*
X27123004Y3325913D01*
X27046814Y3325913D01*
X26932528Y3364008D01*
X26856337Y3440199D01*
X26818242Y3516389D01*
X26780147Y3668770D01*
X26780147Y3783056D01*
X26818242Y3935437D01*
X26856337Y4011628D01*
X26932528Y4087818D01*
X27046814Y4125913D01*
X27123004Y4125913D01*
X27237290Y4087818D01*
X27275385Y4049723D01*
X27656337Y3325913D02*
X27808718Y3325913D01*
X27884909Y3364008D01*
X27923004Y3402104D01*
X27999195Y3516389D01*
X28037290Y3668770D01*
X28037290Y3973532D01*
X27999195Y4049723D01*
X27961099Y4087818D01*
X27884909Y4125913D01*
X27732528Y4125913D01*
X27656337Y4087818D01*
X27618242Y4049723D01*
X27580147Y3973532D01*
X27580147Y3783056D01*
X27618242Y3706866D01*
X27656337Y3668770D01*
X27732528Y3630675D01*
X27884909Y3630675D01*
X27961099Y3668770D01*
X27999195Y3706866D01*
X28037290Y3783056D01*
X53409194Y-2194087D02*
X53409194Y-2841706D01*
X53447289Y-2917896D01*
X53485385Y-2955992D01*
X53561575Y-2994087D01*
X53713956Y-2994087D01*
X53790147Y-2955992D01*
X53828242Y-2917896D01*
X53866337Y-2841706D01*
X53866337Y-2194087D01*
X54628242Y-2194087D02*
X54247289Y-2194087D01*
X54209194Y-2575039D01*
X54247289Y-2536944D01*
X54323480Y-2498849D01*
X54513956Y-2498849D01*
X54590146Y-2536944D01*
X54628242Y-2575039D01*
X54666337Y-2651230D01*
X54666337Y-2841706D01*
X54628242Y-2917896D01*
X54590146Y-2955992D01*
X54513956Y-2994087D01*
X54323480Y-2994087D01*
X54247289Y-2955992D01*
X54209194Y-2917896D01*
X35511099Y3065913D02*
X36044432Y2265913D01*
X36044432Y3065913D02*
X35511099Y2265913D01*
X36768242Y2265913D02*
X36311099Y2265913D01*
X36539670Y2265913D02*
X36539670Y3065913D01*
X36463480Y2951628D01*
X36387289Y2875437D01*
X36311099Y2837342D01*
X-7992710Y12282104D02*
X-8030805Y12244008D01*
X-8145091Y12205913D01*
X-8221281Y12205913D01*
X-8335567Y12244008D01*
X-8411758Y12320199D01*
X-8449853Y12396389D01*
X-8487948Y12548770D01*
X-8487948Y12663056D01*
X-8449853Y12815437D01*
X-8411758Y12891628D01*
X-8335567Y12967818D01*
X-8221281Y13005913D01*
X-8145091Y13005913D01*
X-8030805Y12967818D01*
X-7992710Y12929723D01*
X-7497472Y13005913D02*
X-7345091Y13005913D01*
X-7268900Y12967818D01*
X-7192710Y12891628D01*
X-7154615Y12739247D01*
X-7154615Y12472580D01*
X-7192710Y12320199D01*
X-7268900Y12244008D01*
X-7345091Y12205913D01*
X-7497472Y12205913D01*
X-7573662Y12244008D01*
X-7649853Y12320199D01*
X-7687948Y12472580D01*
X-7687948Y12739247D01*
X-7649853Y12891628D01*
X-7573662Y12967818D01*
X-7497472Y13005913D01*
X-6811758Y12205913D02*
X-6811758Y13005913D01*
X-6354615Y12205913D01*
X-6354615Y13005913D01*
X-5554615Y12205913D02*
X-6011758Y12205913D01*
X-5783187Y12205913D02*
X-5783187Y13005913D01*
X-5859377Y12891628D01*
X-5935568Y12815437D01*
X-6011758Y12777342D01*
X10464432Y5456390D02*
X10502528Y5418295D01*
X10540623Y5304009D01*
X10540623Y5227819D01*
X10502528Y5113533D01*
X10426337Y5037342D01*
X10350147Y4999247D01*
X10197766Y4961152D01*
X10083480Y4961152D01*
X9931099Y4999247D01*
X9854908Y5037342D01*
X9778718Y5113533D01*
X9740623Y5227819D01*
X9740623Y5304009D01*
X9778718Y5418295D01*
X9816813Y5456390D01*
X9740623Y5951628D02*
X9740623Y6104009D01*
X9778718Y6180200D01*
X9854908Y6256390D01*
X10007289Y6294485D01*
X10273956Y6294485D01*
X10426337Y6256390D01*
X10502528Y6180200D01*
X10540623Y6104009D01*
X10540623Y5951628D01*
X10502528Y5875438D01*
X10426337Y5799247D01*
X10273956Y5761152D01*
X10007289Y5761152D01*
X9854908Y5799247D01*
X9778718Y5875438D01*
X9740623Y5951628D01*
X10540623Y6637342D02*
X9740623Y6637342D01*
X10540623Y7094485D01*
X9740623Y7094485D01*
X9816813Y7437342D02*
X9778718Y7475437D01*
X9740623Y7551628D01*
X9740623Y7742104D01*
X9778718Y7818294D01*
X9816813Y7856390D01*
X9893004Y7894485D01*
X9969194Y7894485D01*
X10083480Y7856390D01*
X10540623Y7399247D01*
X10540623Y7894485D01*
X13164432Y21643532D02*
X13202528Y21605437D01*
X13240623Y21491151D01*
X13240623Y21414961D01*
X13202528Y21300675D01*
X13126337Y21224484D01*
X13050147Y21186389D01*
X12897766Y21148294D01*
X12783480Y21148294D01*
X12631099Y21186389D01*
X12554908Y21224484D01*
X12478718Y21300675D01*
X12440623Y21414961D01*
X12440623Y21491151D01*
X12478718Y21605437D01*
X12516813Y21643532D01*
X12440623Y21910199D02*
X12440623Y22405437D01*
X12745385Y22138770D01*
X12745385Y22253056D01*
X12783480Y22329246D01*
X12821575Y22367342D01*
X12897766Y22405437D01*
X13088242Y22405437D01*
X13164432Y22367342D01*
X13202528Y22329246D01*
X13240623Y22253056D01*
X13240623Y22024484D01*
X13202528Y21948294D01*
X13164432Y21910199D01*
X13240623Y22786389D02*
X13240623Y22938770D01*
X13202528Y23014961D01*
X13164432Y23053056D01*
X13050147Y23129247D01*
X12897766Y23167342D01*
X12593004Y23167342D01*
X12516813Y23129247D01*
X12478718Y23091151D01*
X12440623Y23014961D01*
X12440623Y22862580D01*
X12478718Y22786389D01*
X12516813Y22748294D01*
X12593004Y22710199D01*
X12783480Y22710199D01*
X12859670Y22748294D01*
X12897766Y22786389D01*
X12935861Y22862580D01*
X12935861Y23014961D01*
X12897766Y23091151D01*
X12859670Y23129247D01*
X12783480Y23167342D01*
X12572052Y20084961D02*
X12305385Y20084961D01*
X12305385Y19665913D02*
X12305385Y20465913D01*
X12686338Y20465913D01*
X13257766Y20084961D02*
X13372052Y20046866D01*
X13410147Y20008770D01*
X13448242Y19932580D01*
X13448242Y19818294D01*
X13410147Y19742104D01*
X13372052Y19704008D01*
X13295861Y19665913D01*
X12991099Y19665913D01*
X12991099Y20465913D01*
X13257766Y20465913D01*
X13333956Y20427818D01*
X13372052Y20389723D01*
X13410147Y20313532D01*
X13410147Y20237342D01*
X13372052Y20161151D01*
X13333956Y20123056D01*
X13257766Y20084961D01*
X12991099Y20084961D01*
X13714909Y20465913D02*
X14210147Y20465913D01*
X13943480Y20161151D01*
X14057766Y20161151D01*
X14133956Y20123056D01*
X14172052Y20084961D01*
X14210147Y20008770D01*
X14210147Y19818294D01*
X14172052Y19742104D01*
X14133956Y19704008D01*
X14057766Y19665913D01*
X13829194Y19665913D01*
X13753004Y19704008D01*
X13714909Y19742104D01*
X73638242Y4775913D02*
X73638242Y5575913D01*
X74095385Y4775913D02*
X73752528Y5233056D01*
X74095385Y5575913D02*
X73638242Y5118770D01*
X74857290Y4775913D02*
X74400147Y4775913D01*
X74628718Y4775913D02*
X74628718Y5575913D01*
X74552528Y5461628D01*
X74476337Y5385437D01*
X74400147Y5347342D01*
X73758242Y20855913D02*
X73758242Y21655913D01*
X74063004Y21655913D01*
X74139195Y21617818D01*
X74177290Y21579723D01*
X74215385Y21503532D01*
X74215385Y21389247D01*
X74177290Y21313056D01*
X74139195Y21274961D01*
X74063004Y21236866D01*
X73758242Y21236866D01*
X74939195Y21655913D02*
X74558242Y21655913D01*
X74520147Y21274961D01*
X74558242Y21313056D01*
X74634433Y21351151D01*
X74824909Y21351151D01*
X74901099Y21313056D01*
X74939195Y21274961D01*
X74977290Y21198770D01*
X74977290Y21008294D01*
X74939195Y20932104D01*
X74901099Y20894008D01*
X74824909Y20855913D01*
X74634433Y20855913D01*
X74558242Y20894008D01*
X74520147Y20932104D01*
X11499194Y31175913D02*
X11499194Y30528294D01*
X11537289Y30452104D01*
X11575385Y30414008D01*
X11651575Y30375913D01*
X11803956Y30375913D01*
X11880147Y30414008D01*
X11918242Y30452104D01*
X11956337Y30528294D01*
X11956337Y31175913D01*
X12261099Y31175913D02*
X12756337Y31175913D01*
X12489670Y30871151D01*
X12603956Y30871151D01*
X12680146Y30833056D01*
X12718242Y30794961D01*
X12756337Y30718770D01*
X12756337Y30528294D01*
X12718242Y30452104D01*
X12680146Y30414008D01*
X12603956Y30375913D01*
X12375384Y30375913D01*
X12299194Y30414008D01*
X12261099Y30452104D01*
X37709194Y17865913D02*
X37709194Y17218294D01*
X37747289Y17142104D01*
X37785385Y17104008D01*
X37861575Y17065913D01*
X38013956Y17065913D01*
X38090147Y17104008D01*
X38128242Y17142104D01*
X38166337Y17218294D01*
X38166337Y17865913D01*
X38890146Y17599247D02*
X38890146Y17065913D01*
X38699670Y17904008D02*
X38509194Y17332580D01*
X39004432Y17332580D01*
X-66667Y3676190D02*
X47619Y3638095D01*
X238095Y3638095D01*
X314285Y3676190D01*
X352381Y3714286D01*
X390476Y3790476D01*
X390476Y3866667D01*
X352381Y3942857D01*
X314285Y3980952D01*
X238095Y4019048D01*
X85714Y4057143D01*
X9523Y4095238D01*
X-28572Y4133333D01*
X-66667Y4209524D01*
X-66667Y4285714D01*
X-28572Y4361905D01*
X9523Y4400000D01*
X85714Y4438095D01*
X276190Y4438095D01*
X390476Y4400000D01*
X657143Y4438095D02*
X847619Y3638095D01*
X1000000Y4209524D01*
X1152381Y3638095D01*
X1342857Y4438095D01*
X2066667Y3638095D02*
X1609524Y3638095D01*
X1838095Y3638095D02*
X1838095Y4438095D01*
X1761905Y4323810D01*
X1685714Y4247619D01*
X1609524Y4209524D01*
X6530623Y16683532D02*
X6149670Y16416865D01*
X6530623Y16226389D02*
X5730623Y16226389D01*
X5730623Y16531151D01*
X5768718Y16607342D01*
X5806813Y16645437D01*
X5883004Y16683532D01*
X5997289Y16683532D01*
X6073480Y16645437D01*
X6111575Y16607342D01*
X6149670Y16531151D01*
X6149670Y16226389D01*
X6530623Y17445437D02*
X6530623Y16988294D01*
X6530623Y17216865D02*
X5730623Y17216865D01*
X5844908Y17140675D01*
X5921099Y17064484D01*
X5959194Y16988294D01*
X6530623Y18207342D02*
X6530623Y17750199D01*
X6530623Y17978770D02*
X5730623Y17978770D01*
X5844908Y17902580D01*
X5921099Y17826389D01*
X5959194Y17750199D01*
X11280623Y16713532D02*
X10899670Y16446865D01*
X11280623Y16256389D02*
X10480623Y16256389D01*
X10480623Y16561151D01*
X10518718Y16637342D01*
X10556813Y16675437D01*
X10633004Y16713532D01*
X10747289Y16713532D01*
X10823480Y16675437D01*
X10861575Y16637342D01*
X10899670Y16561151D01*
X10899670Y16256389D01*
X11280623Y17475437D02*
X11280623Y17018294D01*
X11280623Y17246865D02*
X10480623Y17246865D01*
X10594908Y17170675D01*
X10671099Y17094484D01*
X10709194Y17018294D01*
X10480623Y17742104D02*
X10480623Y18237342D01*
X10785385Y17970675D01*
X10785385Y18084961D01*
X10823480Y18161151D01*
X10861575Y18199247D01*
X10937766Y18237342D01*
X11128242Y18237342D01*
X11204432Y18199247D01*
X11242528Y18161151D01*
X11280623Y18084961D01*
X11280623Y17856389D01*
X11242528Y17780199D01*
X11204432Y17742104D01*
X45789194Y9835913D02*
X45789194Y9188294D01*
X45827289Y9112104D01*
X45865385Y9074008D01*
X45941575Y9035913D01*
X46093956Y9035913D01*
X46170147Y9074008D01*
X46208242Y9112104D01*
X46246337Y9188294D01*
X46246337Y9835913D01*
X46970146Y9835913D02*
X46817765Y9835913D01*
X46741575Y9797818D01*
X46703480Y9759723D01*
X46627289Y9645437D01*
X46589194Y9493056D01*
X46589194Y9188294D01*
X46627289Y9112104D01*
X46665384Y9074008D01*
X46741575Y9035913D01*
X46893956Y9035913D01*
X46970146Y9074008D01*
X47008242Y9112104D01*
X47046337Y9188294D01*
X47046337Y9378770D01*
X47008242Y9454961D01*
X46970146Y9493056D01*
X46893956Y9531151D01*
X46741575Y9531151D01*
X46665384Y9493056D01*
X46627289Y9454961D01*
X46589194Y9378770D01*
X16389194Y26805913D02*
X16389194Y26158294D01*
X16427289Y26082104D01*
X16465385Y26044008D01*
X16541575Y26005913D01*
X16693956Y26005913D01*
X16770147Y26044008D01*
X16808242Y26082104D01*
X16846337Y26158294D01*
X16846337Y26805913D01*
X17646337Y26005913D02*
X17189194Y26005913D01*
X17417765Y26005913D02*
X17417765Y26805913D01*
X17341575Y26691628D01*
X17265384Y26615437D01*
X17189194Y26577342D01*
X2038242Y19295913D02*
X2038242Y20095913D01*
X2228718Y20095913D01*
X2343004Y20057818D01*
X2419195Y19981628D01*
X2457290Y19905437D01*
X2495385Y19753056D01*
X2495385Y19638770D01*
X2457290Y19486389D01*
X2419195Y19410199D01*
X2343004Y19334008D01*
X2228718Y19295913D01*
X2038242Y19295913D01*
X3257290Y19295913D02*
X2800147Y19295913D01*
X3028718Y19295913D02*
X3028718Y20095913D01*
X2952528Y19981628D01*
X2876337Y19905437D01*
X2800147Y19867342D01*
M02*
