G04 #@! TF.FileFunction,Copper,L2,Bot,Signal*
%FSLAX46Y46*%
G04 Gerber Fmt 4.6, Leading zero omitted, Abs format (unit mm)*
G04 Created by KiCad (PCBNEW (2015-01-16 BZR 5376)-product) date 17/05/2015 14:23:26*
%MOMM*%
G01*
G04 APERTURE LIST*
%ADD10C,0.150000*%
%ADD11C,0.100000*%
%ADD12C,6.500000*%
%ADD13R,1.460000X2.000000*%
%ADD14R,3.150000X1.300000*%
%ADD15R,1.524000X1.524000*%
%ADD16C,1.524000*%
%ADD17C,4.000000*%
%ADD18C,2.500000*%
%ADD19C,1.700000*%
%ADD20C,2.000000*%
%ADD21C,1.000000*%
%ADD22O,2.000000X3.100000*%
%ADD23C,1.800000*%
%ADD24C,0.700000*%
%ADD25C,0.300000*%
%ADD26C,0.400000*%
%ADD27C,0.200000*%
%ADD28C,0.254000*%
G04 APERTURE END LIST*
D10*
D11*
X89249784Y-123120874D02*
X89249784Y-75495874D01*
X89249784Y-123120874D02*
G75*
G03X94298222Y-128169312I5048438J0D01*
G01*
X185201346Y-128169312D02*
X94298222Y-128169312D01*
X185201346Y-128169312D02*
G75*
G03X190249784Y-123120874I0J5048438D01*
G01*
X190249784Y-75495874D02*
X190249784Y-123120874D01*
X190249784Y-75495874D02*
G75*
G03X185201346Y-70447436I-5048438J0D01*
G01*
X94298222Y-70447436D02*
X185201346Y-70447436D01*
X94298222Y-70447436D02*
G75*
G03X89249784Y-75495874I0J-5048438D01*
G01*
D12*
X184200008Y-123122518D03*
X184200008Y-75497518D03*
X95300008Y-75497518D03*
D13*
X94258670Y-96449560D03*
X94258670Y-102249560D03*
D14*
X91703670Y-96624560D03*
X91703670Y-102074560D03*
D15*
X92658940Y-107949740D03*
D16*
X95198940Y-107949740D03*
X92658940Y-110489740D03*
X95198940Y-110489740D03*
X92658940Y-113029740D03*
X95198940Y-113029740D03*
D17*
X184000000Y-93532960D03*
X184000000Y-104962960D03*
D16*
X177650000Y-103692960D03*
X175110000Y-102422960D03*
X177650000Y-101152960D03*
X175110000Y-99882960D03*
X177650000Y-98612960D03*
X175110000Y-97342960D03*
X177650000Y-96072960D03*
D18*
X180950000Y-91472960D03*
X180950000Y-107022960D03*
D16*
X175110000Y-94802960D03*
D19*
X187380000Y-92922960D03*
X188900000Y-95462960D03*
X187380000Y-103032960D03*
X188900000Y-105572960D03*
D12*
X95300008Y-123122518D03*
D20*
X181450800Y-119373960D03*
X181450800Y-114873960D03*
X174950800Y-114873960D03*
X174950800Y-119373960D03*
D21*
X147370000Y-119660000D03*
D22*
X100750000Y-110060000D03*
X100750000Y-95060000D03*
D21*
X146100000Y-119660000D03*
X144830000Y-119660000D03*
X143560000Y-119660000D03*
X142290000Y-119660000D03*
X141020000Y-119660000D03*
X139750000Y-119660000D03*
X138480000Y-119660000D03*
X137210000Y-119660000D03*
X135940000Y-119660000D03*
X134670000Y-119660000D03*
X133400000Y-119660000D03*
X132130000Y-119660000D03*
D23*
X153126440Y-83030000D03*
X150586440Y-83030000D03*
X153126440Y-80490000D03*
X150586440Y-80490000D03*
X153126440Y-77950000D03*
X150586440Y-77950000D03*
X153126440Y-75410000D03*
X150586440Y-75410000D03*
D24*
X129790000Y-122900000D03*
X118364000Y-103822500D03*
X113600000Y-104710000D03*
X146200000Y-86110000D03*
X143800000Y-86210000D03*
X127020000Y-101420000D03*
X113500000Y-103710000D03*
X124400000Y-101910000D03*
X145300000Y-84810000D03*
X143800000Y-85210000D03*
X113500000Y-102710000D03*
X124900000Y-101110000D03*
X124400000Y-100310000D03*
X145200000Y-92010000D03*
X143900000Y-83610000D03*
X130000000Y-101710000D03*
X121050000Y-99510000D03*
X127070000Y-103470000D03*
X108800000Y-92010000D03*
X132900000Y-102710000D03*
X166010000Y-89040000D03*
X149000000Y-99210000D03*
X146900000Y-101310000D03*
X151700000Y-97210000D03*
X149000000Y-94310000D03*
X156600000Y-97410000D03*
X157100000Y-94210000D03*
X152100000Y-92010000D03*
X153500000Y-92010000D03*
X157000000Y-99810000D03*
X159100000Y-104110000D03*
X141700000Y-101310000D03*
X142100000Y-91910000D03*
X144000000Y-92010000D03*
X159900000Y-97410000D03*
X106500000Y-90810000D03*
X111100000Y-90810000D03*
X113600000Y-96710000D03*
X112600000Y-90810000D03*
X114100000Y-90810000D03*
X119600000Y-96910000D03*
X120800000Y-90810000D03*
X115300000Y-105510000D03*
X119500000Y-115110000D03*
X123800000Y-105310000D03*
X149800000Y-88410000D03*
X153900000Y-87910000D03*
X153900000Y-89310000D03*
X136100000Y-96610000D03*
X149000000Y-95210000D03*
X109800000Y-100310000D03*
X125400000Y-106810000D03*
X139700000Y-93310000D03*
X154550000Y-107610000D03*
X157050000Y-95610000D03*
X158500000Y-99810000D03*
X148750000Y-107710000D03*
X143500000Y-106710000D03*
X146558000Y-114554000D03*
X145034000Y-114554000D03*
X143510000Y-114554000D03*
X141986000Y-114554000D03*
X140462000Y-114554000D03*
X138938000Y-114554000D03*
X104600000Y-101810000D03*
X104700000Y-93610000D03*
X152800000Y-97510000D03*
X145700000Y-101310000D03*
X186610000Y-90220000D03*
D25*
X132130000Y-120560000D02*
X132130000Y-119660000D01*
X129790000Y-122900000D02*
X132130000Y-120560000D01*
X119380000Y-104838500D02*
X118364000Y-103822500D01*
X147370000Y-117906000D02*
X146685000Y-117221000D01*
X146685000Y-117221000D02*
X131762500Y-117221000D01*
X131762500Y-117221000D02*
X119380000Y-104838500D01*
X147370000Y-117906000D02*
X147370000Y-119660000D01*
X119380000Y-104838500D02*
X119380000Y-104838500D01*
X127020000Y-101420000D02*
X125730000Y-102710000D01*
X125730000Y-102710000D02*
X124270000Y-102710000D01*
X115600000Y-102710000D02*
X124270000Y-102710000D01*
X113600000Y-104710000D02*
X115600000Y-102710000D01*
X143900000Y-86110000D02*
X146200000Y-86110000D01*
X143800000Y-86210000D02*
X143900000Y-86110000D01*
X113154000Y-105156000D02*
X113157000Y-105153000D01*
X103505000Y-105156000D02*
X113154000Y-105156000D01*
X113154000Y-105156000D02*
X113600000Y-104710000D01*
X92658940Y-105445300D02*
X93647000Y-104457240D01*
X93647000Y-104457240D02*
X102806240Y-104457240D01*
X102806240Y-104457240D02*
X103505000Y-105156000D01*
X92658940Y-107949740D02*
X92658940Y-105445300D01*
X115300000Y-101910000D02*
X124400000Y-101910000D01*
X113500000Y-103710000D02*
X115300000Y-101910000D01*
X143800000Y-85210000D02*
X144900000Y-85210000D01*
X144900000Y-85210000D02*
X145300000Y-84810000D01*
X115100000Y-101110000D02*
X124900000Y-101110000D01*
X113500000Y-102710000D02*
X115100000Y-101110000D01*
X121850000Y-100310000D02*
X123400000Y-100310000D01*
X123400000Y-100310000D02*
X124400000Y-100310000D01*
X147000000Y-90210000D02*
X145200000Y-92010000D01*
X147000000Y-84710000D02*
X147000000Y-90210000D01*
X146300000Y-84010000D02*
X147000000Y-84710000D01*
X145900000Y-83610000D02*
X146300000Y-84010000D01*
X143900000Y-83610000D02*
X145900000Y-83610000D01*
X128600000Y-100310000D02*
X130000000Y-101710000D01*
X124400000Y-100310000D02*
X128600000Y-100310000D01*
X121050000Y-99510000D02*
X121850000Y-100310000D01*
D26*
X174950800Y-119373960D02*
X174654760Y-119670000D01*
X181450800Y-119373960D02*
X174950800Y-119373960D01*
D25*
X161023960Y-119373960D02*
X161033200Y-119383200D01*
X161055360Y-119373960D02*
X161023960Y-119373960D01*
X174950800Y-119373960D02*
X161055360Y-119373960D01*
X127070000Y-104286200D02*
X135940540Y-113156740D01*
X135940540Y-113156740D02*
X154838140Y-113156740D01*
X154838140Y-113156740D02*
X161055360Y-119373960D01*
X127070000Y-103470000D02*
X127070000Y-104286200D01*
D26*
X134670000Y-121339140D02*
X134645400Y-121363740D01*
X134670000Y-119660000D02*
X134670000Y-121339140D01*
X137210000Y-121276580D02*
X137251440Y-121318020D01*
X137210000Y-119660000D02*
X137210000Y-121276580D01*
D27*
X145700000Y-100710000D02*
X148400000Y-98010000D01*
X148400000Y-98010000D02*
X152300000Y-98010000D01*
X152300000Y-98010000D02*
X152800000Y-97510000D01*
X145700000Y-101310000D02*
X145700000Y-100710000D01*
D25*
X187380000Y-103032960D02*
X187380000Y-102470000D01*
X187380000Y-102470000D02*
X177390000Y-92480000D01*
X177390000Y-92480000D02*
X177390000Y-89690000D01*
X177390000Y-89690000D02*
X178450000Y-88630000D01*
X178450000Y-88630000D02*
X186010000Y-88630000D01*
X186010000Y-88630000D02*
X186610000Y-89230000D01*
X186610000Y-89230000D02*
X186610000Y-90220000D01*
D28*
G36*
X134805062Y-119587172D02*
X134804935Y-119732954D01*
X134684142Y-119853747D01*
X134670000Y-119839605D01*
X134655857Y-119853747D01*
X134534937Y-119732827D01*
X134535064Y-119587045D01*
X134655857Y-119466252D01*
X134670000Y-119480395D01*
X134684142Y-119466252D01*
X134805062Y-119587172D01*
X134805062Y-119587172D01*
G37*
X134805062Y-119587172D02*
X134804935Y-119732954D01*
X134684142Y-119853747D01*
X134670000Y-119839605D01*
X134655857Y-119853747D01*
X134534937Y-119732827D01*
X134535064Y-119587045D01*
X134655857Y-119466252D01*
X134670000Y-119480395D01*
X134684142Y-119466252D01*
X134805062Y-119587172D01*
G36*
X137345062Y-119587172D02*
X137344935Y-119732954D01*
X137224142Y-119853747D01*
X137210000Y-119839605D01*
X137195857Y-119853747D01*
X137074937Y-119732827D01*
X137075064Y-119587045D01*
X137195857Y-119466252D01*
X137210000Y-119480395D01*
X137224142Y-119466252D01*
X137345062Y-119587172D01*
X137345062Y-119587172D01*
G37*
X137345062Y-119587172D02*
X137344935Y-119732954D01*
X137224142Y-119853747D01*
X137210000Y-119839605D01*
X137195857Y-119853747D01*
X137074937Y-119732827D01*
X137075064Y-119587045D01*
X137195857Y-119466252D01*
X137210000Y-119480395D01*
X137224142Y-119466252D01*
X137345062Y-119587172D01*
G36*
X189564784Y-123053406D02*
X189220239Y-124785553D01*
X188277272Y-126196802D01*
X188090474Y-126321616D01*
X188090474Y-122377746D01*
X187509319Y-120945622D01*
X187477616Y-120898176D01*
X186976986Y-120525145D01*
X186797381Y-120704750D01*
X186797381Y-120345540D01*
X186424350Y-119844910D01*
X185000746Y-119243185D01*
X183455236Y-119232052D01*
X183096708Y-119377542D01*
X183096708Y-115138499D01*
X183072656Y-114488500D01*
X182870187Y-113999696D01*
X182603332Y-113901033D01*
X182423727Y-114080638D01*
X182423727Y-113721428D01*
X182325064Y-113454573D01*
X182103715Y-113372338D01*
X182103715Y-108356280D01*
X180950000Y-107202565D01*
X180770395Y-107382170D01*
X180770395Y-107022960D01*
X179616680Y-105869245D01*
X179323877Y-105998493D01*
X179055612Y-106698766D01*
X179075750Y-107448395D01*
X179323877Y-108047427D01*
X179616680Y-108176675D01*
X180770395Y-107022960D01*
X180770395Y-107382170D01*
X179796285Y-108356280D01*
X179925533Y-108649083D01*
X180625806Y-108917348D01*
X181375435Y-108897210D01*
X181974467Y-108649083D01*
X182103715Y-108356280D01*
X182103715Y-113372338D01*
X181715339Y-113228052D01*
X181065340Y-113252104D01*
X180576536Y-113454573D01*
X180477873Y-113721428D01*
X181450800Y-114694355D01*
X182423727Y-113721428D01*
X182423727Y-114080638D01*
X181630405Y-114873960D01*
X182603332Y-115846887D01*
X182870187Y-115748224D01*
X183096708Y-115138499D01*
X183096708Y-119377542D01*
X183085794Y-119381971D01*
X183086084Y-119050165D01*
X182837694Y-118449017D01*
X182423727Y-118034325D01*
X182423727Y-116026492D01*
X181450800Y-115053565D01*
X181271195Y-115233170D01*
X181271195Y-114873960D01*
X180298268Y-113901033D01*
X180031413Y-113999696D01*
X179804892Y-114609421D01*
X179828944Y-115259420D01*
X180031413Y-115748224D01*
X180298268Y-115846887D01*
X181271195Y-114873960D01*
X181271195Y-115233170D01*
X180477873Y-116026492D01*
X180576536Y-116293347D01*
X181186261Y-116519868D01*
X181836260Y-116495816D01*
X182325064Y-116293347D01*
X182423727Y-116026492D01*
X182423727Y-118034325D01*
X182378163Y-117988682D01*
X181777448Y-117739244D01*
X181127005Y-117738676D01*
X180525857Y-117987066D01*
X180065522Y-118446597D01*
X180027169Y-118538960D01*
X179047242Y-118538960D01*
X179047242Y-103416299D01*
X178835010Y-102902657D01*
X178442370Y-102509331D01*
X178234487Y-102423010D01*
X178440303Y-102337970D01*
X178833629Y-101945330D01*
X179046757Y-101432060D01*
X179047242Y-100876299D01*
X178835010Y-100362657D01*
X178442370Y-99969331D01*
X178234487Y-99883010D01*
X178440303Y-99797970D01*
X178833629Y-99405330D01*
X179046757Y-98892060D01*
X179047242Y-98336299D01*
X178835010Y-97822657D01*
X178442370Y-97429331D01*
X178234487Y-97343010D01*
X178440303Y-97257970D01*
X178833629Y-96865330D01*
X179046757Y-96352060D01*
X179047242Y-95796299D01*
X178835010Y-95282657D01*
X178442370Y-94889331D01*
X177929100Y-94676203D01*
X177373339Y-94675718D01*
X176859697Y-94887950D01*
X176466371Y-95280590D01*
X176253243Y-95793860D01*
X176252758Y-96349621D01*
X176464990Y-96863263D01*
X176857630Y-97256589D01*
X177065512Y-97342909D01*
X176859697Y-97427950D01*
X176466371Y-97820590D01*
X176253243Y-98333860D01*
X176252758Y-98889621D01*
X176464990Y-99403263D01*
X176857630Y-99796589D01*
X177065512Y-99882909D01*
X176859697Y-99967950D01*
X176466371Y-100360590D01*
X176253243Y-100873860D01*
X176252758Y-101429621D01*
X176464990Y-101943263D01*
X176857630Y-102336589D01*
X177065512Y-102422909D01*
X176859697Y-102507950D01*
X176507242Y-102859790D01*
X176507242Y-102146299D01*
X176295010Y-101632657D01*
X175902370Y-101239331D01*
X175694487Y-101153010D01*
X175900303Y-101067970D01*
X176293629Y-100675330D01*
X176506757Y-100162060D01*
X176507242Y-99606299D01*
X176295010Y-99092657D01*
X175902370Y-98699331D01*
X175694487Y-98613010D01*
X175900303Y-98527970D01*
X176293629Y-98135330D01*
X176506757Y-97622060D01*
X176507242Y-97066299D01*
X176295010Y-96552657D01*
X175902370Y-96159331D01*
X175694487Y-96073010D01*
X175900303Y-95987970D01*
X176293629Y-95595330D01*
X176506757Y-95082060D01*
X176507242Y-94526299D01*
X176295010Y-94012657D01*
X175902370Y-93619331D01*
X175389100Y-93406203D01*
X174833339Y-93405718D01*
X174319697Y-93617950D01*
X173926371Y-94010590D01*
X173713243Y-94523860D01*
X173712758Y-95079621D01*
X173924990Y-95593263D01*
X174317630Y-95986589D01*
X174525512Y-96072909D01*
X174319697Y-96157950D01*
X173926371Y-96550590D01*
X173713243Y-97063860D01*
X173712758Y-97619621D01*
X173924990Y-98133263D01*
X174317630Y-98526589D01*
X174525512Y-98612909D01*
X174319697Y-98697950D01*
X173926371Y-99090590D01*
X173713243Y-99603860D01*
X173712758Y-100159621D01*
X173924990Y-100673263D01*
X174317630Y-101066589D01*
X174525512Y-101152909D01*
X174319697Y-101237950D01*
X173926371Y-101630590D01*
X173713243Y-102143860D01*
X173712758Y-102699621D01*
X173924990Y-103213263D01*
X174317630Y-103606589D01*
X174830900Y-103819717D01*
X175386661Y-103820202D01*
X175900303Y-103607970D01*
X176293629Y-103215330D01*
X176506757Y-102702060D01*
X176507242Y-102146299D01*
X176507242Y-102859790D01*
X176466371Y-102900590D01*
X176253243Y-103413860D01*
X176252758Y-103969621D01*
X176464990Y-104483263D01*
X176857630Y-104876589D01*
X177370900Y-105089717D01*
X177926661Y-105090202D01*
X178440303Y-104877970D01*
X178833629Y-104485330D01*
X179046757Y-103972060D01*
X179047242Y-103416299D01*
X179047242Y-118538960D01*
X176596708Y-118538960D01*
X176596708Y-115138499D01*
X176572656Y-114488500D01*
X176370187Y-113999696D01*
X176103332Y-113901033D01*
X175923727Y-114080638D01*
X175923727Y-113721428D01*
X175825064Y-113454573D01*
X175215339Y-113228052D01*
X174565340Y-113252104D01*
X174076536Y-113454573D01*
X173977873Y-113721428D01*
X174950800Y-114694355D01*
X175923727Y-113721428D01*
X175923727Y-114080638D01*
X175130405Y-114873960D01*
X176103332Y-115846887D01*
X176370187Y-115748224D01*
X176596708Y-115138499D01*
X176596708Y-118538960D01*
X176374857Y-118538960D01*
X176337694Y-118449017D01*
X175923727Y-118034325D01*
X175923727Y-116026492D01*
X174950800Y-115053565D01*
X174771195Y-115233170D01*
X174771195Y-114873960D01*
X173798268Y-113901033D01*
X173531413Y-113999696D01*
X173304892Y-114609421D01*
X173328944Y-115259420D01*
X173531413Y-115748224D01*
X173798268Y-115846887D01*
X174771195Y-114873960D01*
X174771195Y-115233170D01*
X173977873Y-116026492D01*
X174076536Y-116293347D01*
X174686261Y-116519868D01*
X175336260Y-116495816D01*
X175825064Y-116293347D01*
X175923727Y-116026492D01*
X175923727Y-118034325D01*
X175878163Y-117988682D01*
X175277448Y-117739244D01*
X174627005Y-117738676D01*
X174025857Y-117987066D01*
X173565522Y-118446597D01*
X173506407Y-118588960D01*
X161380518Y-118588960D01*
X155393219Y-112601661D01*
X155138547Y-112431495D01*
X154838140Y-112371740D01*
X154672898Y-112371740D01*
X154672898Y-83270664D01*
X154661705Y-83004099D01*
X154661705Y-80186009D01*
X154428508Y-79621629D01*
X154027258Y-79219677D01*
X154426991Y-78820643D01*
X154661173Y-78256670D01*
X154661705Y-77646009D01*
X154428508Y-77081629D01*
X154027258Y-76679677D01*
X154426991Y-76280643D01*
X154661173Y-75716670D01*
X154661705Y-75106009D01*
X154428508Y-74541629D01*
X153997083Y-74109449D01*
X153433110Y-73875267D01*
X152822449Y-73874735D01*
X152258069Y-74107932D01*
X151856117Y-74509181D01*
X151457083Y-74109449D01*
X150893110Y-73875267D01*
X150282449Y-73874735D01*
X149718069Y-74107932D01*
X149285889Y-74539357D01*
X149051707Y-75103330D01*
X149051175Y-75713991D01*
X149284372Y-76278371D01*
X149685621Y-76680322D01*
X149285889Y-77079357D01*
X149051707Y-77643330D01*
X149051175Y-78253991D01*
X149284372Y-78818371D01*
X149685621Y-79220322D01*
X149285889Y-79619357D01*
X149051707Y-80183330D01*
X149051175Y-80793991D01*
X149284372Y-81358371D01*
X149685621Y-81760322D01*
X149285889Y-82159357D01*
X149051707Y-82723330D01*
X149051175Y-83333991D01*
X149284372Y-83898371D01*
X149715797Y-84330551D01*
X150279770Y-84564733D01*
X150890431Y-84565265D01*
X151454811Y-84332068D01*
X151886991Y-83900643D01*
X151895643Y-83879806D01*
X152046281Y-83930554D01*
X152946835Y-83030000D01*
X152046281Y-82129446D01*
X151896113Y-82180035D01*
X151888508Y-82161629D01*
X151487258Y-81759677D01*
X151856762Y-81390818D01*
X152255797Y-81790551D01*
X152276633Y-81799203D01*
X152225886Y-81949841D01*
X153126440Y-82850395D01*
X154026994Y-81949841D01*
X153976404Y-81799673D01*
X153994811Y-81792068D01*
X154426991Y-81360643D01*
X154661173Y-80796670D01*
X154661705Y-80186009D01*
X154661705Y-83004099D01*
X154647279Y-82660540D01*
X154463083Y-82215852D01*
X154206599Y-82129446D01*
X153306045Y-83030000D01*
X154206599Y-83930554D01*
X154463083Y-83844148D01*
X154672898Y-83270664D01*
X154672898Y-112371740D01*
X154026994Y-112371740D01*
X154026994Y-84110159D01*
X153126440Y-83209605D01*
X152225886Y-84110159D01*
X152312292Y-84366643D01*
X152885776Y-84576458D01*
X153495900Y-84550839D01*
X153940588Y-84366643D01*
X154026994Y-84110159D01*
X154026994Y-112371740D01*
X153785170Y-112371740D01*
X153785170Y-97314931D01*
X153635529Y-96952771D01*
X153358686Y-96675445D01*
X152996788Y-96525172D01*
X152604931Y-96524830D01*
X152242771Y-96674471D01*
X151965445Y-96951314D01*
X151831038Y-97275000D01*
X148400000Y-97275000D01*
X148118728Y-97330949D01*
X147880277Y-97490276D01*
X147785000Y-97585553D01*
X147785000Y-90210000D01*
X147785000Y-84710000D01*
X147725245Y-84409594D01*
X147725244Y-84409593D01*
X147555079Y-84154921D01*
X147555075Y-84154918D01*
X146855079Y-83454921D01*
X146455079Y-83054921D01*
X146200407Y-82884755D01*
X145900000Y-82825000D01*
X144508154Y-82825000D01*
X144458686Y-82775445D01*
X144096788Y-82625172D01*
X143704931Y-82624830D01*
X143342771Y-82774471D01*
X143065445Y-83051314D01*
X142915172Y-83413212D01*
X142914830Y-83805069D01*
X143064471Y-84167229D01*
X143263005Y-84366110D01*
X143242771Y-84374471D01*
X142965445Y-84651314D01*
X142815172Y-85013212D01*
X142814830Y-85405069D01*
X142940950Y-85710304D01*
X142815172Y-86013212D01*
X142814830Y-86405069D01*
X142964471Y-86767229D01*
X143241314Y-87044555D01*
X143603212Y-87194828D01*
X143995069Y-87195170D01*
X144357229Y-87045529D01*
X144508020Y-86895000D01*
X145591845Y-86895000D01*
X145641314Y-86944555D01*
X146003212Y-87094828D01*
X146215000Y-87095012D01*
X146215000Y-89884842D01*
X145074950Y-91024891D01*
X145004931Y-91024830D01*
X144642771Y-91174471D01*
X144365445Y-91451314D01*
X144215172Y-91813212D01*
X144214830Y-92205069D01*
X144364471Y-92567229D01*
X144641314Y-92844555D01*
X145003212Y-92994828D01*
X145395069Y-92995170D01*
X145757229Y-92845529D01*
X146034555Y-92568686D01*
X146184828Y-92206788D01*
X146184890Y-92135267D01*
X147555079Y-90765079D01*
X147725244Y-90510407D01*
X147725245Y-90510406D01*
X147785000Y-90210000D01*
X147785000Y-97585553D01*
X145180277Y-100190277D01*
X145020949Y-100428728D01*
X144979412Y-100637545D01*
X144865445Y-100751314D01*
X144715172Y-101113212D01*
X144714830Y-101505069D01*
X144864471Y-101867229D01*
X145141314Y-102144555D01*
X145503212Y-102294828D01*
X145895069Y-102295170D01*
X146257229Y-102145529D01*
X146534555Y-101868686D01*
X146684828Y-101506788D01*
X146685170Y-101114931D01*
X146582645Y-100866801D01*
X148704446Y-98745000D01*
X152300000Y-98745000D01*
X152300000Y-98744999D01*
X152581272Y-98689051D01*
X152819723Y-98529723D01*
X152854398Y-98495047D01*
X152995069Y-98495170D01*
X153357229Y-98345529D01*
X153634555Y-98068686D01*
X153784828Y-97706788D01*
X153785170Y-97314931D01*
X153785170Y-112371740D01*
X136265698Y-112371740D01*
X127909862Y-104015904D01*
X128054828Y-103666788D01*
X128055170Y-103274931D01*
X127905529Y-102912771D01*
X127628686Y-102635445D01*
X127266788Y-102485172D01*
X127065161Y-102484996D01*
X127145048Y-102405108D01*
X127215069Y-102405170D01*
X127577229Y-102255529D01*
X127854555Y-101978686D01*
X128004828Y-101616788D01*
X128005170Y-101224931D01*
X127951483Y-101095000D01*
X128274842Y-101095000D01*
X129014891Y-101835049D01*
X129014830Y-101905069D01*
X129164471Y-102267229D01*
X129441314Y-102544555D01*
X129803212Y-102694828D01*
X130195069Y-102695170D01*
X130557229Y-102545529D01*
X130834555Y-102268686D01*
X130984828Y-101906788D01*
X130985170Y-101514931D01*
X130835529Y-101152771D01*
X130558686Y-100875445D01*
X130196788Y-100725172D01*
X130125267Y-100725109D01*
X129155079Y-99754921D01*
X128900407Y-99584755D01*
X128600000Y-99525000D01*
X125008154Y-99525000D01*
X124958686Y-99475445D01*
X124596788Y-99325172D01*
X124204931Y-99324830D01*
X123842771Y-99474471D01*
X123792153Y-99525000D01*
X123400000Y-99525000D01*
X122175158Y-99525000D01*
X122035108Y-99384950D01*
X122035170Y-99314931D01*
X121885529Y-98952771D01*
X121608686Y-98675445D01*
X121246788Y-98525172D01*
X120854931Y-98524830D01*
X120492771Y-98674471D01*
X120215445Y-98951314D01*
X120065172Y-99313212D01*
X120064830Y-99705069D01*
X120214471Y-100067229D01*
X120471793Y-100325000D01*
X115100000Y-100325000D01*
X114799594Y-100384755D01*
X114544921Y-100554921D01*
X113374950Y-101724891D01*
X113304931Y-101724830D01*
X112942771Y-101874471D01*
X112665445Y-102151314D01*
X112515172Y-102513212D01*
X112514830Y-102905069D01*
X112640950Y-103210304D01*
X112515172Y-103513212D01*
X112514830Y-103905069D01*
X112664471Y-104267229D01*
X112701789Y-104304612D01*
X112674223Y-104371000D01*
X103830158Y-104371000D01*
X103361319Y-103902161D01*
X103106647Y-103731995D01*
X102806240Y-103672240D01*
X102385000Y-103672240D01*
X102385000Y-95737000D01*
X102385000Y-95187000D01*
X102385000Y-94933000D01*
X102385000Y-94383000D01*
X102211942Y-93766980D01*
X101816317Y-93264078D01*
X101258355Y-92950856D01*
X101130434Y-92919876D01*
X100877000Y-93039223D01*
X100877000Y-94933000D01*
X102385000Y-94933000D01*
X102385000Y-95187000D01*
X100877000Y-95187000D01*
X100877000Y-97080777D01*
X101130434Y-97200124D01*
X101258355Y-97169144D01*
X101816317Y-96855922D01*
X102211942Y-96353020D01*
X102385000Y-95737000D01*
X102385000Y-103672240D01*
X100623000Y-103672240D01*
X100623000Y-97080777D01*
X100623000Y-95187000D01*
X100623000Y-94933000D01*
X100623000Y-93039223D01*
X100369566Y-92919876D01*
X100241645Y-92950856D01*
X99683683Y-93264078D01*
X99288058Y-93766980D01*
X99190474Y-94114341D01*
X99190474Y-74752746D01*
X98609319Y-73320622D01*
X98577616Y-73273176D01*
X98076986Y-72900145D01*
X97897381Y-73079750D01*
X97897381Y-72720540D01*
X97524350Y-72219910D01*
X96100746Y-71618185D01*
X94555236Y-71607052D01*
X93123112Y-72188207D01*
X93075666Y-72219910D01*
X92702635Y-72720540D01*
X95300008Y-75317913D01*
X97897381Y-72720540D01*
X97897381Y-73079750D01*
X95479613Y-75497518D01*
X98076986Y-78094891D01*
X98577616Y-77721860D01*
X99179341Y-76298256D01*
X99190474Y-74752746D01*
X99190474Y-94114341D01*
X99115000Y-94383000D01*
X99115000Y-94933000D01*
X100623000Y-94933000D01*
X100623000Y-95187000D01*
X99115000Y-95187000D01*
X99115000Y-95737000D01*
X99288058Y-96353020D01*
X99683683Y-96855922D01*
X100241645Y-97169144D01*
X100369566Y-97200124D01*
X100623000Y-97080777D01*
X100623000Y-103672240D01*
X97897381Y-103672240D01*
X97897381Y-78274496D01*
X95300008Y-75677123D01*
X95120403Y-75856728D01*
X95120403Y-75497518D01*
X92523030Y-72900145D01*
X92022400Y-73273176D01*
X91420675Y-74696780D01*
X91409542Y-76242290D01*
X91990697Y-77674414D01*
X92022400Y-77721860D01*
X92523030Y-78094891D01*
X95120403Y-75497518D01*
X95120403Y-75856728D01*
X92702635Y-78274496D01*
X93075666Y-78775126D01*
X94499270Y-79376851D01*
X96044780Y-79387984D01*
X97476904Y-78806829D01*
X97524350Y-78775126D01*
X97897381Y-78274496D01*
X97897381Y-103672240D01*
X95464015Y-103672240D01*
X95526997Y-103609258D01*
X95623670Y-103375869D01*
X95623670Y-102535310D01*
X95623670Y-101963810D01*
X95623670Y-101123251D01*
X95623670Y-97575869D01*
X95623670Y-96735310D01*
X95623670Y-96163810D01*
X95623670Y-95323251D01*
X95526997Y-95089862D01*
X95348369Y-94911233D01*
X95114980Y-94814560D01*
X94862361Y-94814560D01*
X94544420Y-94814560D01*
X94385670Y-94973310D01*
X94385670Y-96322560D01*
X95464920Y-96322560D01*
X95623670Y-96163810D01*
X95623670Y-96735310D01*
X95464920Y-96576560D01*
X94385670Y-96576560D01*
X94385670Y-97925810D01*
X94544420Y-98084560D01*
X94862361Y-98084560D01*
X95114980Y-98084560D01*
X95348369Y-97987887D01*
X95526997Y-97809258D01*
X95623670Y-97575869D01*
X95623670Y-101123251D01*
X95526997Y-100889862D01*
X95348369Y-100711233D01*
X95114980Y-100614560D01*
X94862361Y-100614560D01*
X94544420Y-100614560D01*
X94385670Y-100773310D01*
X94385670Y-102122560D01*
X95464920Y-102122560D01*
X95623670Y-101963810D01*
X95623670Y-102535310D01*
X95464920Y-102376560D01*
X94385670Y-102376560D01*
X94385670Y-102396560D01*
X94131670Y-102396560D01*
X94131670Y-102376560D01*
X94111670Y-102376560D01*
X94111670Y-102122560D01*
X94131670Y-102122560D01*
X94131670Y-100773310D01*
X94131670Y-97925810D01*
X94131670Y-96576560D01*
X94111670Y-96576560D01*
X94111670Y-96322560D01*
X94131670Y-96322560D01*
X94131670Y-94973310D01*
X93972920Y-94814560D01*
X93654979Y-94814560D01*
X93402360Y-94814560D01*
X93168971Y-94911233D01*
X92990343Y-95089862D01*
X92893670Y-95323251D01*
X92893670Y-95339560D01*
X91989420Y-95339560D01*
X91830670Y-95498310D01*
X91830670Y-96497560D01*
X91850670Y-96497560D01*
X91850670Y-96751560D01*
X91830670Y-96751560D01*
X91830670Y-97750810D01*
X91989420Y-97909560D01*
X93090644Y-97909560D01*
X93168971Y-97987887D01*
X93402360Y-98084560D01*
X93654979Y-98084560D01*
X93972920Y-98084560D01*
X94131670Y-97925810D01*
X94131670Y-100773310D01*
X93972920Y-100614560D01*
X93654979Y-100614560D01*
X93402360Y-100614560D01*
X93168971Y-100711233D01*
X93090644Y-100789560D01*
X91989420Y-100789560D01*
X91830670Y-100948310D01*
X91830670Y-101947560D01*
X91850670Y-101947560D01*
X91850670Y-102201560D01*
X91830670Y-102201560D01*
X91830670Y-103200810D01*
X91989420Y-103359560D01*
X92893670Y-103359560D01*
X92893670Y-103375869D01*
X92990343Y-103609258D01*
X93168971Y-103787887D01*
X93226982Y-103811916D01*
X93091921Y-103902161D01*
X92103861Y-104890221D01*
X91933695Y-105144893D01*
X91873940Y-105445300D01*
X91873940Y-106544762D01*
X91654817Y-106587277D01*
X91442013Y-106727067D01*
X91299563Y-106938100D01*
X91249500Y-107187740D01*
X91249500Y-108711740D01*
X91296477Y-108953863D01*
X91436267Y-109166667D01*
X91647300Y-109309117D01*
X91827951Y-109345344D01*
X91475311Y-109697370D01*
X91262183Y-110210640D01*
X91261698Y-110766401D01*
X91473930Y-111280043D01*
X91866570Y-111673369D01*
X92074452Y-111759689D01*
X91868637Y-111844730D01*
X91475311Y-112237370D01*
X91262183Y-112750640D01*
X91261698Y-113306401D01*
X91473930Y-113820043D01*
X91866570Y-114213369D01*
X92379840Y-114426497D01*
X92935601Y-114426982D01*
X93449243Y-114214750D01*
X93842569Y-113822110D01*
X93922334Y-113630012D01*
X93976543Y-113760883D01*
X94218727Y-113830348D01*
X95019335Y-113029740D01*
X94218727Y-112229132D01*
X93976543Y-112298597D01*
X93926431Y-112439057D01*
X93843950Y-112239437D01*
X93451310Y-111846111D01*
X93243427Y-111759790D01*
X93449243Y-111674750D01*
X93842569Y-111282110D01*
X93928889Y-111074227D01*
X94013930Y-111280043D01*
X94406570Y-111673369D01*
X94598667Y-111753134D01*
X94467797Y-111807343D01*
X94398332Y-112049527D01*
X95198940Y-112850135D01*
X95999548Y-112049527D01*
X95930083Y-111807343D01*
X95789622Y-111757231D01*
X95989243Y-111674750D01*
X96382569Y-111282110D01*
X96595697Y-110768840D01*
X96596182Y-110213079D01*
X96383950Y-109699437D01*
X95991310Y-109306111D01*
X95783427Y-109219790D01*
X95989243Y-109134750D01*
X96382569Y-108742110D01*
X96595697Y-108228840D01*
X96596182Y-107673079D01*
X96383950Y-107159437D01*
X95991310Y-106766111D01*
X95478040Y-106552983D01*
X94922279Y-106552498D01*
X94408637Y-106764730D01*
X94054832Y-107117917D01*
X94021403Y-106945617D01*
X93881613Y-106732813D01*
X93670580Y-106590363D01*
X93443940Y-106544912D01*
X93443940Y-105770458D01*
X93972157Y-105242240D01*
X102481082Y-105242240D01*
X102949921Y-105711079D01*
X103204594Y-105881245D01*
X103505000Y-105941000D01*
X113154000Y-105941000D01*
X113454406Y-105881245D01*
X113454407Y-105881245D01*
X113709079Y-105711079D01*
X113712079Y-105708079D01*
X113725049Y-105695108D01*
X113795069Y-105695170D01*
X114157229Y-105545529D01*
X114434555Y-105268686D01*
X114584828Y-104906788D01*
X114584890Y-104835267D01*
X115925158Y-103495000D01*
X117433448Y-103495000D01*
X117379172Y-103625712D01*
X117378830Y-104017569D01*
X117528471Y-104379729D01*
X117805314Y-104657055D01*
X118167212Y-104807328D01*
X118238732Y-104807390D01*
X118824921Y-105393579D01*
X131207421Y-117776079D01*
X131462093Y-117946244D01*
X131462094Y-117946245D01*
X131762500Y-118006000D01*
X146359842Y-118006000D01*
X146585000Y-118231158D01*
X146585000Y-118632429D01*
X146326756Y-118525197D01*
X145875225Y-118524803D01*
X145464504Y-118694509D01*
X145056756Y-118525197D01*
X144605225Y-118524803D01*
X144194504Y-118694509D01*
X143786756Y-118525197D01*
X143335225Y-118524803D01*
X142924504Y-118694509D01*
X142516756Y-118525197D01*
X142065225Y-118524803D01*
X141654504Y-118694509D01*
X141246756Y-118525197D01*
X140795225Y-118524803D01*
X140384504Y-118694509D01*
X139976756Y-118525197D01*
X139525225Y-118524803D01*
X139114504Y-118694509D01*
X138706756Y-118525197D01*
X138255225Y-118524803D01*
X137837914Y-118697233D01*
X137797627Y-118737449D01*
X137783352Y-118654783D01*
X137355028Y-118511888D01*
X136904625Y-118543783D01*
X136636648Y-118654783D01*
X136622434Y-118737091D01*
X136583765Y-118698355D01*
X136166756Y-118525197D01*
X135715225Y-118524803D01*
X135297914Y-118697233D01*
X135257627Y-118737449D01*
X135243352Y-118654783D01*
X134815028Y-118511888D01*
X134364625Y-118543783D01*
X134096648Y-118654783D01*
X134082434Y-118737091D01*
X134043765Y-118698355D01*
X133626756Y-118525197D01*
X133175225Y-118524803D01*
X132764504Y-118694509D01*
X132356756Y-118525197D01*
X131905225Y-118524803D01*
X131487914Y-118697233D01*
X131168355Y-119016235D01*
X130995197Y-119433244D01*
X130994803Y-119884775D01*
X131167233Y-120302086D01*
X131222446Y-120357395D01*
X129664950Y-121914891D01*
X129594931Y-121914830D01*
X129232771Y-122064471D01*
X128955445Y-122341314D01*
X128805172Y-122703212D01*
X128804830Y-123095069D01*
X128954471Y-123457229D01*
X129231314Y-123734555D01*
X129593212Y-123884828D01*
X129985069Y-123885170D01*
X130347229Y-123735529D01*
X130624555Y-123458686D01*
X130774828Y-123096788D01*
X130774890Y-123025267D01*
X132685079Y-121115079D01*
X132855245Y-120860406D01*
X132891560Y-120677837D01*
X133173244Y-120794803D01*
X133624775Y-120795197D01*
X134042086Y-120622767D01*
X134082372Y-120582550D01*
X134096648Y-120665217D01*
X134524972Y-120808112D01*
X134975375Y-120776217D01*
X135243352Y-120665217D01*
X135257565Y-120582908D01*
X135296235Y-120621645D01*
X135713244Y-120794803D01*
X136164775Y-120795197D01*
X136582086Y-120622767D01*
X136622372Y-120582550D01*
X136636648Y-120665217D01*
X137064972Y-120808112D01*
X137515375Y-120776217D01*
X137783352Y-120665217D01*
X137797565Y-120582908D01*
X137836235Y-120621645D01*
X138253244Y-120794803D01*
X138704775Y-120795197D01*
X139115495Y-120625490D01*
X139523244Y-120794803D01*
X139974775Y-120795197D01*
X140385495Y-120625490D01*
X140793244Y-120794803D01*
X141244775Y-120795197D01*
X141655495Y-120625490D01*
X142063244Y-120794803D01*
X142514775Y-120795197D01*
X142925495Y-120625490D01*
X143333244Y-120794803D01*
X143784775Y-120795197D01*
X144195495Y-120625490D01*
X144603244Y-120794803D01*
X145054775Y-120795197D01*
X145465495Y-120625490D01*
X145873244Y-120794803D01*
X146324775Y-120795197D01*
X146735495Y-120625490D01*
X147143244Y-120794803D01*
X147594775Y-120795197D01*
X148012086Y-120622767D01*
X148331645Y-120303765D01*
X148504803Y-119886756D01*
X148505197Y-119435225D01*
X148332767Y-119017914D01*
X148155000Y-118839836D01*
X148155000Y-117906000D01*
X148095245Y-117605594D01*
X148095245Y-117605593D01*
X147925079Y-117350921D01*
X147240079Y-116665921D01*
X146985407Y-116495755D01*
X146685000Y-116436000D01*
X132087658Y-116436000D01*
X119935079Y-104283421D01*
X119349108Y-103697450D01*
X119349170Y-103627431D01*
X119294450Y-103495000D01*
X124270000Y-103495000D01*
X125730000Y-103495000D01*
X126030406Y-103435245D01*
X126030407Y-103435245D01*
X126085062Y-103398725D01*
X126084830Y-103665069D01*
X126234471Y-104027229D01*
X126285000Y-104077846D01*
X126285000Y-104286200D01*
X126344755Y-104586607D01*
X126514921Y-104841279D01*
X135385461Y-113711819D01*
X135640133Y-113881985D01*
X135640134Y-113881985D01*
X135940540Y-113941740D01*
X154512982Y-113941740D01*
X160405652Y-119834410D01*
X160468881Y-119929039D01*
X160478121Y-119938279D01*
X160732793Y-120108445D01*
X161033200Y-120168200D01*
X161079652Y-120158960D01*
X173506082Y-120158960D01*
X173563906Y-120298903D01*
X174023437Y-120759238D01*
X174624152Y-121008676D01*
X175274595Y-121009244D01*
X175875743Y-120760854D01*
X176336078Y-120301323D01*
X176374430Y-120208960D01*
X180026742Y-120208960D01*
X180063906Y-120298903D01*
X180523437Y-120759238D01*
X180912790Y-120920911D01*
X180320675Y-122321780D01*
X180309542Y-123867290D01*
X180890697Y-125299414D01*
X180922400Y-125346860D01*
X181423030Y-125719891D01*
X184020403Y-123122518D01*
X184006260Y-123108375D01*
X184185865Y-122928770D01*
X184200008Y-122942913D01*
X186797381Y-120345540D01*
X186797381Y-120704750D01*
X184379613Y-123122518D01*
X186976986Y-125719891D01*
X187477616Y-125346860D01*
X188079341Y-123923256D01*
X188090474Y-122377746D01*
X188090474Y-126321616D01*
X186866025Y-127139767D01*
X186797381Y-127153421D01*
X186797381Y-125899496D01*
X184200008Y-123302123D01*
X181602635Y-125899496D01*
X181975666Y-126400126D01*
X183399270Y-127001851D01*
X184944780Y-127012984D01*
X186376904Y-126431829D01*
X186424350Y-126400126D01*
X186797381Y-125899496D01*
X186797381Y-127153421D01*
X185133878Y-127484312D01*
X102385000Y-127484312D01*
X102385000Y-110652807D01*
X102385000Y-109467193D01*
X102260543Y-108841506D01*
X101906120Y-108311073D01*
X101375687Y-107956650D01*
X100750000Y-107832193D01*
X100124313Y-107956650D01*
X99593880Y-108311073D01*
X99239457Y-108841506D01*
X99115000Y-109467193D01*
X99115000Y-110652807D01*
X99239457Y-111278494D01*
X99593880Y-111808927D01*
X100124313Y-112163350D01*
X100750000Y-112287807D01*
X101375687Y-112163350D01*
X101906120Y-111808927D01*
X102260543Y-111278494D01*
X102385000Y-110652807D01*
X102385000Y-127484312D01*
X99190474Y-127484312D01*
X99190474Y-122377746D01*
X98609319Y-120945622D01*
X98577616Y-120898176D01*
X98076986Y-120525145D01*
X97897381Y-120704750D01*
X97897381Y-120345540D01*
X97524350Y-119844910D01*
X96608084Y-119457625D01*
X96608084Y-113237438D01*
X96580302Y-112682372D01*
X96421337Y-112298597D01*
X96179153Y-112229132D01*
X95378545Y-113029740D01*
X96179153Y-113830348D01*
X96421337Y-113760883D01*
X96608084Y-113237438D01*
X96608084Y-119457625D01*
X96100746Y-119243185D01*
X95999548Y-119242456D01*
X95999548Y-114009953D01*
X95198940Y-113209345D01*
X94398332Y-114009953D01*
X94467797Y-114252137D01*
X94991242Y-114438884D01*
X95546308Y-114411102D01*
X95930083Y-114252137D01*
X95999548Y-114009953D01*
X95999548Y-119242456D01*
X94555236Y-119232052D01*
X93123112Y-119813207D01*
X93075666Y-119844910D01*
X92702635Y-120345540D01*
X95300008Y-122942913D01*
X97897381Y-120345540D01*
X97897381Y-120704750D01*
X95479613Y-123122518D01*
X98076986Y-125719891D01*
X98577616Y-125346860D01*
X99179341Y-123923256D01*
X99190474Y-122377746D01*
X99190474Y-127484312D01*
X97897381Y-127484312D01*
X97897381Y-125899496D01*
X95300008Y-123302123D01*
X95120403Y-123481728D01*
X95120403Y-123122518D01*
X92523030Y-120525145D01*
X92022400Y-120898176D01*
X91420675Y-122321780D01*
X91409542Y-123867290D01*
X91990697Y-125299414D01*
X92022400Y-125346860D01*
X92523030Y-125719891D01*
X95120403Y-123122518D01*
X95120403Y-123481728D01*
X92702635Y-125899496D01*
X93075666Y-126400126D01*
X94499270Y-127001851D01*
X96044780Y-127012984D01*
X97476904Y-126431829D01*
X97524350Y-126400126D01*
X97897381Y-125899496D01*
X97897381Y-127484312D01*
X94365689Y-127484312D01*
X92633542Y-127139767D01*
X91222293Y-126196800D01*
X90279328Y-124785553D01*
X89934784Y-123053406D01*
X89934784Y-103331569D01*
X90002360Y-103359560D01*
X90254979Y-103359560D01*
X91417920Y-103359560D01*
X91576670Y-103200810D01*
X91576670Y-102201560D01*
X91556670Y-102201560D01*
X91556670Y-101947560D01*
X91576670Y-101947560D01*
X91576670Y-100948310D01*
X91417920Y-100789560D01*
X90254979Y-100789560D01*
X90002360Y-100789560D01*
X89934784Y-100817550D01*
X89934784Y-97881569D01*
X90002360Y-97909560D01*
X90254979Y-97909560D01*
X91417920Y-97909560D01*
X91576670Y-97750810D01*
X91576670Y-96751560D01*
X91556670Y-96751560D01*
X91556670Y-96497560D01*
X91576670Y-96497560D01*
X91576670Y-95498310D01*
X91417920Y-95339560D01*
X90254979Y-95339560D01*
X90002360Y-95339560D01*
X89934784Y-95367550D01*
X89934784Y-75563341D01*
X90279328Y-73831194D01*
X91222293Y-72419947D01*
X92633542Y-71476980D01*
X94365689Y-71132436D01*
X116566237Y-71132436D01*
X116573091Y-88214013D01*
X134419080Y-88203707D01*
X134419080Y-71132436D01*
X185133878Y-71132436D01*
X186866025Y-71476980D01*
X188277272Y-72419945D01*
X189220239Y-73831194D01*
X189564784Y-75563341D01*
X189564784Y-94131067D01*
X189196681Y-93978218D01*
X188605911Y-93977703D01*
X188297844Y-94104993D01*
X188638188Y-93765243D01*
X188864742Y-93219641D01*
X188865257Y-92628871D01*
X188639656Y-92082874D01*
X188222283Y-91664772D01*
X188090474Y-91610040D01*
X188090474Y-74752746D01*
X187509319Y-73320622D01*
X187477616Y-73273176D01*
X186976986Y-72900145D01*
X186797381Y-73079750D01*
X186797381Y-72720540D01*
X186424350Y-72219910D01*
X185000746Y-71618185D01*
X183455236Y-71607052D01*
X182023112Y-72188207D01*
X181975666Y-72219910D01*
X181602635Y-72720540D01*
X184200008Y-75317913D01*
X186797381Y-72720540D01*
X186797381Y-73079750D01*
X184379613Y-75497518D01*
X186976986Y-78094891D01*
X187477616Y-77721860D01*
X188079341Y-76298256D01*
X188090474Y-74752746D01*
X188090474Y-91610040D01*
X187676681Y-91438218D01*
X187085911Y-91437703D01*
X186539914Y-91663304D01*
X186197765Y-92004855D01*
X185494557Y-91300418D01*
X184526433Y-90898418D01*
X183478166Y-90897503D01*
X182827442Y-91166376D01*
X182824250Y-91047525D01*
X182576123Y-90448493D01*
X182283320Y-90319245D01*
X182103715Y-90498850D01*
X182103715Y-90139640D01*
X181974467Y-89846837D01*
X181274194Y-89578572D01*
X180524565Y-89598710D01*
X179925533Y-89846837D01*
X179796285Y-90139640D01*
X180950000Y-91293355D01*
X182103715Y-90139640D01*
X182103715Y-90498850D01*
X181129605Y-91472960D01*
X181143747Y-91487102D01*
X180964142Y-91666707D01*
X180950000Y-91652565D01*
X180770395Y-91832170D01*
X180770395Y-91472960D01*
X179616680Y-90319245D01*
X179323877Y-90448493D01*
X179055612Y-91148766D01*
X179075750Y-91898395D01*
X179323877Y-92497427D01*
X179616680Y-92626675D01*
X180770395Y-91472960D01*
X180770395Y-91832170D01*
X179796285Y-92806280D01*
X179925533Y-93099083D01*
X180625806Y-93367348D01*
X181365160Y-93347486D01*
X181364543Y-94054794D01*
X181764853Y-95023618D01*
X182505443Y-95765502D01*
X183473567Y-96167502D01*
X184521834Y-96168417D01*
X185490658Y-95768107D01*
X186232542Y-95027517D01*
X186577180Y-94197534D01*
X187083319Y-94407702D01*
X187674089Y-94408217D01*
X187982155Y-94280926D01*
X187641812Y-94620677D01*
X187415258Y-95166279D01*
X187414743Y-95757049D01*
X187640344Y-96303046D01*
X188057717Y-96721148D01*
X188603319Y-96947702D01*
X189194089Y-96948217D01*
X189564784Y-96795049D01*
X189564784Y-104241067D01*
X189196681Y-104088218D01*
X188605911Y-104087703D01*
X188297844Y-104214993D01*
X188638188Y-103875243D01*
X188864742Y-103329641D01*
X188865257Y-102738871D01*
X188639656Y-102192874D01*
X188222283Y-101774772D01*
X187676681Y-101548218D01*
X187568280Y-101548123D01*
X178175000Y-92154842D01*
X178175000Y-90015158D01*
X178775158Y-89415000D01*
X185684842Y-89415000D01*
X185825000Y-89555158D01*
X185825000Y-89611845D01*
X185775445Y-89661314D01*
X185625172Y-90023212D01*
X185624830Y-90415069D01*
X185774471Y-90777229D01*
X186051314Y-91054555D01*
X186413212Y-91204828D01*
X186805069Y-91205170D01*
X187167229Y-91055529D01*
X187444555Y-90778686D01*
X187594828Y-90416788D01*
X187595170Y-90024931D01*
X187445529Y-89662771D01*
X187395000Y-89612153D01*
X187395000Y-89230000D01*
X187335245Y-88929594D01*
X187335245Y-88929593D01*
X187165079Y-88674921D01*
X186797381Y-88307223D01*
X186797381Y-78274496D01*
X184200008Y-75677123D01*
X184020403Y-75856728D01*
X184020403Y-75497518D01*
X181423030Y-72900145D01*
X180922400Y-73273176D01*
X180320675Y-74696780D01*
X180309542Y-76242290D01*
X180890697Y-77674414D01*
X180922400Y-77721860D01*
X181423030Y-78094891D01*
X184020403Y-75497518D01*
X184020403Y-75856728D01*
X181602635Y-78274496D01*
X181975666Y-78775126D01*
X183399270Y-79376851D01*
X184944780Y-79387984D01*
X186376904Y-78806829D01*
X186424350Y-78775126D01*
X186797381Y-78274496D01*
X186797381Y-88307223D01*
X186565079Y-88074921D01*
X186310407Y-87904755D01*
X186010000Y-87845000D01*
X178450000Y-87845000D01*
X178149593Y-87904755D01*
X177894921Y-88074921D01*
X176834921Y-89134921D01*
X176664755Y-89389593D01*
X176605000Y-89690000D01*
X176605000Y-92480000D01*
X176664755Y-92780407D01*
X176834921Y-93035079D01*
X186083290Y-102283447D01*
X185895258Y-102736279D01*
X185894913Y-103131474D01*
X185494557Y-102730418D01*
X184526433Y-102328418D01*
X183478166Y-102327503D01*
X182509342Y-102727813D01*
X181767458Y-103468403D01*
X181365458Y-104436527D01*
X181364823Y-105163290D01*
X181274194Y-105128572D01*
X180524565Y-105148710D01*
X179925533Y-105396837D01*
X179796285Y-105689640D01*
X180950000Y-106843355D01*
X180964142Y-106829212D01*
X181143747Y-107008817D01*
X181129605Y-107022960D01*
X182283320Y-108176675D01*
X182576123Y-108047427D01*
X182844388Y-107347154D01*
X182844091Y-107336121D01*
X183473567Y-107597502D01*
X184521834Y-107598417D01*
X185490658Y-107198107D01*
X186232542Y-106457517D01*
X186634542Y-105489393D01*
X186635457Y-104441126D01*
X186580895Y-104309077D01*
X187083319Y-104517702D01*
X187674089Y-104518217D01*
X187982155Y-104390926D01*
X187641812Y-104730677D01*
X187415258Y-105276279D01*
X187414743Y-105867049D01*
X187640344Y-106413046D01*
X188057717Y-106831148D01*
X188603319Y-107057702D01*
X189194089Y-107058217D01*
X189564784Y-106905049D01*
X189564784Y-123053406D01*
X189564784Y-123053406D01*
G37*
X189564784Y-123053406D02*
X189220239Y-124785553D01*
X188277272Y-126196802D01*
X188090474Y-126321616D01*
X188090474Y-122377746D01*
X187509319Y-120945622D01*
X187477616Y-120898176D01*
X186976986Y-120525145D01*
X186797381Y-120704750D01*
X186797381Y-120345540D01*
X186424350Y-119844910D01*
X185000746Y-119243185D01*
X183455236Y-119232052D01*
X183096708Y-119377542D01*
X183096708Y-115138499D01*
X183072656Y-114488500D01*
X182870187Y-113999696D01*
X182603332Y-113901033D01*
X182423727Y-114080638D01*
X182423727Y-113721428D01*
X182325064Y-113454573D01*
X182103715Y-113372338D01*
X182103715Y-108356280D01*
X180950000Y-107202565D01*
X180770395Y-107382170D01*
X180770395Y-107022960D01*
X179616680Y-105869245D01*
X179323877Y-105998493D01*
X179055612Y-106698766D01*
X179075750Y-107448395D01*
X179323877Y-108047427D01*
X179616680Y-108176675D01*
X180770395Y-107022960D01*
X180770395Y-107382170D01*
X179796285Y-108356280D01*
X179925533Y-108649083D01*
X180625806Y-108917348D01*
X181375435Y-108897210D01*
X181974467Y-108649083D01*
X182103715Y-108356280D01*
X182103715Y-113372338D01*
X181715339Y-113228052D01*
X181065340Y-113252104D01*
X180576536Y-113454573D01*
X180477873Y-113721428D01*
X181450800Y-114694355D01*
X182423727Y-113721428D01*
X182423727Y-114080638D01*
X181630405Y-114873960D01*
X182603332Y-115846887D01*
X182870187Y-115748224D01*
X183096708Y-115138499D01*
X183096708Y-119377542D01*
X183085794Y-119381971D01*
X183086084Y-119050165D01*
X182837694Y-118449017D01*
X182423727Y-118034325D01*
X182423727Y-116026492D01*
X181450800Y-115053565D01*
X181271195Y-115233170D01*
X181271195Y-114873960D01*
X180298268Y-113901033D01*
X180031413Y-113999696D01*
X179804892Y-114609421D01*
X179828944Y-115259420D01*
X180031413Y-115748224D01*
X180298268Y-115846887D01*
X181271195Y-114873960D01*
X181271195Y-115233170D01*
X180477873Y-116026492D01*
X180576536Y-116293347D01*
X181186261Y-116519868D01*
X181836260Y-116495816D01*
X182325064Y-116293347D01*
X182423727Y-116026492D01*
X182423727Y-118034325D01*
X182378163Y-117988682D01*
X181777448Y-117739244D01*
X181127005Y-117738676D01*
X180525857Y-117987066D01*
X180065522Y-118446597D01*
X180027169Y-118538960D01*
X179047242Y-118538960D01*
X179047242Y-103416299D01*
X178835010Y-102902657D01*
X178442370Y-102509331D01*
X178234487Y-102423010D01*
X178440303Y-102337970D01*
X178833629Y-101945330D01*
X179046757Y-101432060D01*
X179047242Y-100876299D01*
X178835010Y-100362657D01*
X178442370Y-99969331D01*
X178234487Y-99883010D01*
X178440303Y-99797970D01*
X178833629Y-99405330D01*
X179046757Y-98892060D01*
X179047242Y-98336299D01*
X178835010Y-97822657D01*
X178442370Y-97429331D01*
X178234487Y-97343010D01*
X178440303Y-97257970D01*
X178833629Y-96865330D01*
X179046757Y-96352060D01*
X179047242Y-95796299D01*
X178835010Y-95282657D01*
X178442370Y-94889331D01*
X177929100Y-94676203D01*
X177373339Y-94675718D01*
X176859697Y-94887950D01*
X176466371Y-95280590D01*
X176253243Y-95793860D01*
X176252758Y-96349621D01*
X176464990Y-96863263D01*
X176857630Y-97256589D01*
X177065512Y-97342909D01*
X176859697Y-97427950D01*
X176466371Y-97820590D01*
X176253243Y-98333860D01*
X176252758Y-98889621D01*
X176464990Y-99403263D01*
X176857630Y-99796589D01*
X177065512Y-99882909D01*
X176859697Y-99967950D01*
X176466371Y-100360590D01*
X176253243Y-100873860D01*
X176252758Y-101429621D01*
X176464990Y-101943263D01*
X176857630Y-102336589D01*
X177065512Y-102422909D01*
X176859697Y-102507950D01*
X176507242Y-102859790D01*
X176507242Y-102146299D01*
X176295010Y-101632657D01*
X175902370Y-101239331D01*
X175694487Y-101153010D01*
X175900303Y-101067970D01*
X176293629Y-100675330D01*
X176506757Y-100162060D01*
X176507242Y-99606299D01*
X176295010Y-99092657D01*
X175902370Y-98699331D01*
X175694487Y-98613010D01*
X175900303Y-98527970D01*
X176293629Y-98135330D01*
X176506757Y-97622060D01*
X176507242Y-97066299D01*
X176295010Y-96552657D01*
X175902370Y-96159331D01*
X175694487Y-96073010D01*
X175900303Y-95987970D01*
X176293629Y-95595330D01*
X176506757Y-95082060D01*
X176507242Y-94526299D01*
X176295010Y-94012657D01*
X175902370Y-93619331D01*
X175389100Y-93406203D01*
X174833339Y-93405718D01*
X174319697Y-93617950D01*
X173926371Y-94010590D01*
X173713243Y-94523860D01*
X173712758Y-95079621D01*
X173924990Y-95593263D01*
X174317630Y-95986589D01*
X174525512Y-96072909D01*
X174319697Y-96157950D01*
X173926371Y-96550590D01*
X173713243Y-97063860D01*
X173712758Y-97619621D01*
X173924990Y-98133263D01*
X174317630Y-98526589D01*
X174525512Y-98612909D01*
X174319697Y-98697950D01*
X173926371Y-99090590D01*
X173713243Y-99603860D01*
X173712758Y-100159621D01*
X173924990Y-100673263D01*
X174317630Y-101066589D01*
X174525512Y-101152909D01*
X174319697Y-101237950D01*
X173926371Y-101630590D01*
X173713243Y-102143860D01*
X173712758Y-102699621D01*
X173924990Y-103213263D01*
X174317630Y-103606589D01*
X174830900Y-103819717D01*
X175386661Y-103820202D01*
X175900303Y-103607970D01*
X176293629Y-103215330D01*
X176506757Y-102702060D01*
X176507242Y-102146299D01*
X176507242Y-102859790D01*
X176466371Y-102900590D01*
X176253243Y-103413860D01*
X176252758Y-103969621D01*
X176464990Y-104483263D01*
X176857630Y-104876589D01*
X177370900Y-105089717D01*
X177926661Y-105090202D01*
X178440303Y-104877970D01*
X178833629Y-104485330D01*
X179046757Y-103972060D01*
X179047242Y-103416299D01*
X179047242Y-118538960D01*
X176596708Y-118538960D01*
X176596708Y-115138499D01*
X176572656Y-114488500D01*
X176370187Y-113999696D01*
X176103332Y-113901033D01*
X175923727Y-114080638D01*
X175923727Y-113721428D01*
X175825064Y-113454573D01*
X175215339Y-113228052D01*
X174565340Y-113252104D01*
X174076536Y-113454573D01*
X173977873Y-113721428D01*
X174950800Y-114694355D01*
X175923727Y-113721428D01*
X175923727Y-114080638D01*
X175130405Y-114873960D01*
X176103332Y-115846887D01*
X176370187Y-115748224D01*
X176596708Y-115138499D01*
X176596708Y-118538960D01*
X176374857Y-118538960D01*
X176337694Y-118449017D01*
X175923727Y-118034325D01*
X175923727Y-116026492D01*
X174950800Y-115053565D01*
X174771195Y-115233170D01*
X174771195Y-114873960D01*
X173798268Y-113901033D01*
X173531413Y-113999696D01*
X173304892Y-114609421D01*
X173328944Y-115259420D01*
X173531413Y-115748224D01*
X173798268Y-115846887D01*
X174771195Y-114873960D01*
X174771195Y-115233170D01*
X173977873Y-116026492D01*
X174076536Y-116293347D01*
X174686261Y-116519868D01*
X175336260Y-116495816D01*
X175825064Y-116293347D01*
X175923727Y-116026492D01*
X175923727Y-118034325D01*
X175878163Y-117988682D01*
X175277448Y-117739244D01*
X174627005Y-117738676D01*
X174025857Y-117987066D01*
X173565522Y-118446597D01*
X173506407Y-118588960D01*
X161380518Y-118588960D01*
X155393219Y-112601661D01*
X155138547Y-112431495D01*
X154838140Y-112371740D01*
X154672898Y-112371740D01*
X154672898Y-83270664D01*
X154661705Y-83004099D01*
X154661705Y-80186009D01*
X154428508Y-79621629D01*
X154027258Y-79219677D01*
X154426991Y-78820643D01*
X154661173Y-78256670D01*
X154661705Y-77646009D01*
X154428508Y-77081629D01*
X154027258Y-76679677D01*
X154426991Y-76280643D01*
X154661173Y-75716670D01*
X154661705Y-75106009D01*
X154428508Y-74541629D01*
X153997083Y-74109449D01*
X153433110Y-73875267D01*
X152822449Y-73874735D01*
X152258069Y-74107932D01*
X151856117Y-74509181D01*
X151457083Y-74109449D01*
X150893110Y-73875267D01*
X150282449Y-73874735D01*
X149718069Y-74107932D01*
X149285889Y-74539357D01*
X149051707Y-75103330D01*
X149051175Y-75713991D01*
X149284372Y-76278371D01*
X149685621Y-76680322D01*
X149285889Y-77079357D01*
X149051707Y-77643330D01*
X149051175Y-78253991D01*
X149284372Y-78818371D01*
X149685621Y-79220322D01*
X149285889Y-79619357D01*
X149051707Y-80183330D01*
X149051175Y-80793991D01*
X149284372Y-81358371D01*
X149685621Y-81760322D01*
X149285889Y-82159357D01*
X149051707Y-82723330D01*
X149051175Y-83333991D01*
X149284372Y-83898371D01*
X149715797Y-84330551D01*
X150279770Y-84564733D01*
X150890431Y-84565265D01*
X151454811Y-84332068D01*
X151886991Y-83900643D01*
X151895643Y-83879806D01*
X152046281Y-83930554D01*
X152946835Y-83030000D01*
X152046281Y-82129446D01*
X151896113Y-82180035D01*
X151888508Y-82161629D01*
X151487258Y-81759677D01*
X151856762Y-81390818D01*
X152255797Y-81790551D01*
X152276633Y-81799203D01*
X152225886Y-81949841D01*
X153126440Y-82850395D01*
X154026994Y-81949841D01*
X153976404Y-81799673D01*
X153994811Y-81792068D01*
X154426991Y-81360643D01*
X154661173Y-80796670D01*
X154661705Y-80186009D01*
X154661705Y-83004099D01*
X154647279Y-82660540D01*
X154463083Y-82215852D01*
X154206599Y-82129446D01*
X153306045Y-83030000D01*
X154206599Y-83930554D01*
X154463083Y-83844148D01*
X154672898Y-83270664D01*
X154672898Y-112371740D01*
X154026994Y-112371740D01*
X154026994Y-84110159D01*
X153126440Y-83209605D01*
X152225886Y-84110159D01*
X152312292Y-84366643D01*
X152885776Y-84576458D01*
X153495900Y-84550839D01*
X153940588Y-84366643D01*
X154026994Y-84110159D01*
X154026994Y-112371740D01*
X153785170Y-112371740D01*
X153785170Y-97314931D01*
X153635529Y-96952771D01*
X153358686Y-96675445D01*
X152996788Y-96525172D01*
X152604931Y-96524830D01*
X152242771Y-96674471D01*
X151965445Y-96951314D01*
X151831038Y-97275000D01*
X148400000Y-97275000D01*
X148118728Y-97330949D01*
X147880277Y-97490276D01*
X147785000Y-97585553D01*
X147785000Y-90210000D01*
X147785000Y-84710000D01*
X147725245Y-84409594D01*
X147725244Y-84409593D01*
X147555079Y-84154921D01*
X147555075Y-84154918D01*
X146855079Y-83454921D01*
X146455079Y-83054921D01*
X146200407Y-82884755D01*
X145900000Y-82825000D01*
X144508154Y-82825000D01*
X144458686Y-82775445D01*
X144096788Y-82625172D01*
X143704931Y-82624830D01*
X143342771Y-82774471D01*
X143065445Y-83051314D01*
X142915172Y-83413212D01*
X142914830Y-83805069D01*
X143064471Y-84167229D01*
X143263005Y-84366110D01*
X143242771Y-84374471D01*
X142965445Y-84651314D01*
X142815172Y-85013212D01*
X142814830Y-85405069D01*
X142940950Y-85710304D01*
X142815172Y-86013212D01*
X142814830Y-86405069D01*
X142964471Y-86767229D01*
X143241314Y-87044555D01*
X143603212Y-87194828D01*
X143995069Y-87195170D01*
X144357229Y-87045529D01*
X144508020Y-86895000D01*
X145591845Y-86895000D01*
X145641314Y-86944555D01*
X146003212Y-87094828D01*
X146215000Y-87095012D01*
X146215000Y-89884842D01*
X145074950Y-91024891D01*
X145004931Y-91024830D01*
X144642771Y-91174471D01*
X144365445Y-91451314D01*
X144215172Y-91813212D01*
X144214830Y-92205069D01*
X144364471Y-92567229D01*
X144641314Y-92844555D01*
X145003212Y-92994828D01*
X145395069Y-92995170D01*
X145757229Y-92845529D01*
X146034555Y-92568686D01*
X146184828Y-92206788D01*
X146184890Y-92135267D01*
X147555079Y-90765079D01*
X147725244Y-90510407D01*
X147725245Y-90510406D01*
X147785000Y-90210000D01*
X147785000Y-97585553D01*
X145180277Y-100190277D01*
X145020949Y-100428728D01*
X144979412Y-100637545D01*
X144865445Y-100751314D01*
X144715172Y-101113212D01*
X144714830Y-101505069D01*
X144864471Y-101867229D01*
X145141314Y-102144555D01*
X145503212Y-102294828D01*
X145895069Y-102295170D01*
X146257229Y-102145529D01*
X146534555Y-101868686D01*
X146684828Y-101506788D01*
X146685170Y-101114931D01*
X146582645Y-100866801D01*
X148704446Y-98745000D01*
X152300000Y-98745000D01*
X152300000Y-98744999D01*
X152581272Y-98689051D01*
X152819723Y-98529723D01*
X152854398Y-98495047D01*
X152995069Y-98495170D01*
X153357229Y-98345529D01*
X153634555Y-98068686D01*
X153784828Y-97706788D01*
X153785170Y-97314931D01*
X153785170Y-112371740D01*
X136265698Y-112371740D01*
X127909862Y-104015904D01*
X128054828Y-103666788D01*
X128055170Y-103274931D01*
X127905529Y-102912771D01*
X127628686Y-102635445D01*
X127266788Y-102485172D01*
X127065161Y-102484996D01*
X127145048Y-102405108D01*
X127215069Y-102405170D01*
X127577229Y-102255529D01*
X127854555Y-101978686D01*
X128004828Y-101616788D01*
X128005170Y-101224931D01*
X127951483Y-101095000D01*
X128274842Y-101095000D01*
X129014891Y-101835049D01*
X129014830Y-101905069D01*
X129164471Y-102267229D01*
X129441314Y-102544555D01*
X129803212Y-102694828D01*
X130195069Y-102695170D01*
X130557229Y-102545529D01*
X130834555Y-102268686D01*
X130984828Y-101906788D01*
X130985170Y-101514931D01*
X130835529Y-101152771D01*
X130558686Y-100875445D01*
X130196788Y-100725172D01*
X130125267Y-100725109D01*
X129155079Y-99754921D01*
X128900407Y-99584755D01*
X128600000Y-99525000D01*
X125008154Y-99525000D01*
X124958686Y-99475445D01*
X124596788Y-99325172D01*
X124204931Y-99324830D01*
X123842771Y-99474471D01*
X123792153Y-99525000D01*
X123400000Y-99525000D01*
X122175158Y-99525000D01*
X122035108Y-99384950D01*
X122035170Y-99314931D01*
X121885529Y-98952771D01*
X121608686Y-98675445D01*
X121246788Y-98525172D01*
X120854931Y-98524830D01*
X120492771Y-98674471D01*
X120215445Y-98951314D01*
X120065172Y-99313212D01*
X120064830Y-99705069D01*
X120214471Y-100067229D01*
X120471793Y-100325000D01*
X115100000Y-100325000D01*
X114799594Y-100384755D01*
X114544921Y-100554921D01*
X113374950Y-101724891D01*
X113304931Y-101724830D01*
X112942771Y-101874471D01*
X112665445Y-102151314D01*
X112515172Y-102513212D01*
X112514830Y-102905069D01*
X112640950Y-103210304D01*
X112515172Y-103513212D01*
X112514830Y-103905069D01*
X112664471Y-104267229D01*
X112701789Y-104304612D01*
X112674223Y-104371000D01*
X103830158Y-104371000D01*
X103361319Y-103902161D01*
X103106647Y-103731995D01*
X102806240Y-103672240D01*
X102385000Y-103672240D01*
X102385000Y-95737000D01*
X102385000Y-95187000D01*
X102385000Y-94933000D01*
X102385000Y-94383000D01*
X102211942Y-93766980D01*
X101816317Y-93264078D01*
X101258355Y-92950856D01*
X101130434Y-92919876D01*
X100877000Y-93039223D01*
X100877000Y-94933000D01*
X102385000Y-94933000D01*
X102385000Y-95187000D01*
X100877000Y-95187000D01*
X100877000Y-97080777D01*
X101130434Y-97200124D01*
X101258355Y-97169144D01*
X101816317Y-96855922D01*
X102211942Y-96353020D01*
X102385000Y-95737000D01*
X102385000Y-103672240D01*
X100623000Y-103672240D01*
X100623000Y-97080777D01*
X100623000Y-95187000D01*
X100623000Y-94933000D01*
X100623000Y-93039223D01*
X100369566Y-92919876D01*
X100241645Y-92950856D01*
X99683683Y-93264078D01*
X99288058Y-93766980D01*
X99190474Y-94114341D01*
X99190474Y-74752746D01*
X98609319Y-73320622D01*
X98577616Y-73273176D01*
X98076986Y-72900145D01*
X97897381Y-73079750D01*
X97897381Y-72720540D01*
X97524350Y-72219910D01*
X96100746Y-71618185D01*
X94555236Y-71607052D01*
X93123112Y-72188207D01*
X93075666Y-72219910D01*
X92702635Y-72720540D01*
X95300008Y-75317913D01*
X97897381Y-72720540D01*
X97897381Y-73079750D01*
X95479613Y-75497518D01*
X98076986Y-78094891D01*
X98577616Y-77721860D01*
X99179341Y-76298256D01*
X99190474Y-74752746D01*
X99190474Y-94114341D01*
X99115000Y-94383000D01*
X99115000Y-94933000D01*
X100623000Y-94933000D01*
X100623000Y-95187000D01*
X99115000Y-95187000D01*
X99115000Y-95737000D01*
X99288058Y-96353020D01*
X99683683Y-96855922D01*
X100241645Y-97169144D01*
X100369566Y-97200124D01*
X100623000Y-97080777D01*
X100623000Y-103672240D01*
X97897381Y-103672240D01*
X97897381Y-78274496D01*
X95300008Y-75677123D01*
X95120403Y-75856728D01*
X95120403Y-75497518D01*
X92523030Y-72900145D01*
X92022400Y-73273176D01*
X91420675Y-74696780D01*
X91409542Y-76242290D01*
X91990697Y-77674414D01*
X92022400Y-77721860D01*
X92523030Y-78094891D01*
X95120403Y-75497518D01*
X95120403Y-75856728D01*
X92702635Y-78274496D01*
X93075666Y-78775126D01*
X94499270Y-79376851D01*
X96044780Y-79387984D01*
X97476904Y-78806829D01*
X97524350Y-78775126D01*
X97897381Y-78274496D01*
X97897381Y-103672240D01*
X95464015Y-103672240D01*
X95526997Y-103609258D01*
X95623670Y-103375869D01*
X95623670Y-102535310D01*
X95623670Y-101963810D01*
X95623670Y-101123251D01*
X95623670Y-97575869D01*
X95623670Y-96735310D01*
X95623670Y-96163810D01*
X95623670Y-95323251D01*
X95526997Y-95089862D01*
X95348369Y-94911233D01*
X95114980Y-94814560D01*
X94862361Y-94814560D01*
X94544420Y-94814560D01*
X94385670Y-94973310D01*
X94385670Y-96322560D01*
X95464920Y-96322560D01*
X95623670Y-96163810D01*
X95623670Y-96735310D01*
X95464920Y-96576560D01*
X94385670Y-96576560D01*
X94385670Y-97925810D01*
X94544420Y-98084560D01*
X94862361Y-98084560D01*
X95114980Y-98084560D01*
X95348369Y-97987887D01*
X95526997Y-97809258D01*
X95623670Y-97575869D01*
X95623670Y-101123251D01*
X95526997Y-100889862D01*
X95348369Y-100711233D01*
X95114980Y-100614560D01*
X94862361Y-100614560D01*
X94544420Y-100614560D01*
X94385670Y-100773310D01*
X94385670Y-102122560D01*
X95464920Y-102122560D01*
X95623670Y-101963810D01*
X95623670Y-102535310D01*
X95464920Y-102376560D01*
X94385670Y-102376560D01*
X94385670Y-102396560D01*
X94131670Y-102396560D01*
X94131670Y-102376560D01*
X94111670Y-102376560D01*
X94111670Y-102122560D01*
X94131670Y-102122560D01*
X94131670Y-100773310D01*
X94131670Y-97925810D01*
X94131670Y-96576560D01*
X94111670Y-96576560D01*
X94111670Y-96322560D01*
X94131670Y-96322560D01*
X94131670Y-94973310D01*
X93972920Y-94814560D01*
X93654979Y-94814560D01*
X93402360Y-94814560D01*
X93168971Y-94911233D01*
X92990343Y-95089862D01*
X92893670Y-95323251D01*
X92893670Y-95339560D01*
X91989420Y-95339560D01*
X91830670Y-95498310D01*
X91830670Y-96497560D01*
X91850670Y-96497560D01*
X91850670Y-96751560D01*
X91830670Y-96751560D01*
X91830670Y-97750810D01*
X91989420Y-97909560D01*
X93090644Y-97909560D01*
X93168971Y-97987887D01*
X93402360Y-98084560D01*
X93654979Y-98084560D01*
X93972920Y-98084560D01*
X94131670Y-97925810D01*
X94131670Y-100773310D01*
X93972920Y-100614560D01*
X93654979Y-100614560D01*
X93402360Y-100614560D01*
X93168971Y-100711233D01*
X93090644Y-100789560D01*
X91989420Y-100789560D01*
X91830670Y-100948310D01*
X91830670Y-101947560D01*
X91850670Y-101947560D01*
X91850670Y-102201560D01*
X91830670Y-102201560D01*
X91830670Y-103200810D01*
X91989420Y-103359560D01*
X92893670Y-103359560D01*
X92893670Y-103375869D01*
X92990343Y-103609258D01*
X93168971Y-103787887D01*
X93226982Y-103811916D01*
X93091921Y-103902161D01*
X92103861Y-104890221D01*
X91933695Y-105144893D01*
X91873940Y-105445300D01*
X91873940Y-106544762D01*
X91654817Y-106587277D01*
X91442013Y-106727067D01*
X91299563Y-106938100D01*
X91249500Y-107187740D01*
X91249500Y-108711740D01*
X91296477Y-108953863D01*
X91436267Y-109166667D01*
X91647300Y-109309117D01*
X91827951Y-109345344D01*
X91475311Y-109697370D01*
X91262183Y-110210640D01*
X91261698Y-110766401D01*
X91473930Y-111280043D01*
X91866570Y-111673369D01*
X92074452Y-111759689D01*
X91868637Y-111844730D01*
X91475311Y-112237370D01*
X91262183Y-112750640D01*
X91261698Y-113306401D01*
X91473930Y-113820043D01*
X91866570Y-114213369D01*
X92379840Y-114426497D01*
X92935601Y-114426982D01*
X93449243Y-114214750D01*
X93842569Y-113822110D01*
X93922334Y-113630012D01*
X93976543Y-113760883D01*
X94218727Y-113830348D01*
X95019335Y-113029740D01*
X94218727Y-112229132D01*
X93976543Y-112298597D01*
X93926431Y-112439057D01*
X93843950Y-112239437D01*
X93451310Y-111846111D01*
X93243427Y-111759790D01*
X93449243Y-111674750D01*
X93842569Y-111282110D01*
X93928889Y-111074227D01*
X94013930Y-111280043D01*
X94406570Y-111673369D01*
X94598667Y-111753134D01*
X94467797Y-111807343D01*
X94398332Y-112049527D01*
X95198940Y-112850135D01*
X95999548Y-112049527D01*
X95930083Y-111807343D01*
X95789622Y-111757231D01*
X95989243Y-111674750D01*
X96382569Y-111282110D01*
X96595697Y-110768840D01*
X96596182Y-110213079D01*
X96383950Y-109699437D01*
X95991310Y-109306111D01*
X95783427Y-109219790D01*
X95989243Y-109134750D01*
X96382569Y-108742110D01*
X96595697Y-108228840D01*
X96596182Y-107673079D01*
X96383950Y-107159437D01*
X95991310Y-106766111D01*
X95478040Y-106552983D01*
X94922279Y-106552498D01*
X94408637Y-106764730D01*
X94054832Y-107117917D01*
X94021403Y-106945617D01*
X93881613Y-106732813D01*
X93670580Y-106590363D01*
X93443940Y-106544912D01*
X93443940Y-105770458D01*
X93972157Y-105242240D01*
X102481082Y-105242240D01*
X102949921Y-105711079D01*
X103204594Y-105881245D01*
X103505000Y-105941000D01*
X113154000Y-105941000D01*
X113454406Y-105881245D01*
X113454407Y-105881245D01*
X113709079Y-105711079D01*
X113712079Y-105708079D01*
X113725049Y-105695108D01*
X113795069Y-105695170D01*
X114157229Y-105545529D01*
X114434555Y-105268686D01*
X114584828Y-104906788D01*
X114584890Y-104835267D01*
X115925158Y-103495000D01*
X117433448Y-103495000D01*
X117379172Y-103625712D01*
X117378830Y-104017569D01*
X117528471Y-104379729D01*
X117805314Y-104657055D01*
X118167212Y-104807328D01*
X118238732Y-104807390D01*
X118824921Y-105393579D01*
X131207421Y-117776079D01*
X131462093Y-117946244D01*
X131462094Y-117946245D01*
X131762500Y-118006000D01*
X146359842Y-118006000D01*
X146585000Y-118231158D01*
X146585000Y-118632429D01*
X146326756Y-118525197D01*
X145875225Y-118524803D01*
X145464504Y-118694509D01*
X145056756Y-118525197D01*
X144605225Y-118524803D01*
X144194504Y-118694509D01*
X143786756Y-118525197D01*
X143335225Y-118524803D01*
X142924504Y-118694509D01*
X142516756Y-118525197D01*
X142065225Y-118524803D01*
X141654504Y-118694509D01*
X141246756Y-118525197D01*
X140795225Y-118524803D01*
X140384504Y-118694509D01*
X139976756Y-118525197D01*
X139525225Y-118524803D01*
X139114504Y-118694509D01*
X138706756Y-118525197D01*
X138255225Y-118524803D01*
X137837914Y-118697233D01*
X137797627Y-118737449D01*
X137783352Y-118654783D01*
X137355028Y-118511888D01*
X136904625Y-118543783D01*
X136636648Y-118654783D01*
X136622434Y-118737091D01*
X136583765Y-118698355D01*
X136166756Y-118525197D01*
X135715225Y-118524803D01*
X135297914Y-118697233D01*
X135257627Y-118737449D01*
X135243352Y-118654783D01*
X134815028Y-118511888D01*
X134364625Y-118543783D01*
X134096648Y-118654783D01*
X134082434Y-118737091D01*
X134043765Y-118698355D01*
X133626756Y-118525197D01*
X133175225Y-118524803D01*
X132764504Y-118694509D01*
X132356756Y-118525197D01*
X131905225Y-118524803D01*
X131487914Y-118697233D01*
X131168355Y-119016235D01*
X130995197Y-119433244D01*
X130994803Y-119884775D01*
X131167233Y-120302086D01*
X131222446Y-120357395D01*
X129664950Y-121914891D01*
X129594931Y-121914830D01*
X129232771Y-122064471D01*
X128955445Y-122341314D01*
X128805172Y-122703212D01*
X128804830Y-123095069D01*
X128954471Y-123457229D01*
X129231314Y-123734555D01*
X129593212Y-123884828D01*
X129985069Y-123885170D01*
X130347229Y-123735529D01*
X130624555Y-123458686D01*
X130774828Y-123096788D01*
X130774890Y-123025267D01*
X132685079Y-121115079D01*
X132855245Y-120860406D01*
X132891560Y-120677837D01*
X133173244Y-120794803D01*
X133624775Y-120795197D01*
X134042086Y-120622767D01*
X134082372Y-120582550D01*
X134096648Y-120665217D01*
X134524972Y-120808112D01*
X134975375Y-120776217D01*
X135243352Y-120665217D01*
X135257565Y-120582908D01*
X135296235Y-120621645D01*
X135713244Y-120794803D01*
X136164775Y-120795197D01*
X136582086Y-120622767D01*
X136622372Y-120582550D01*
X136636648Y-120665217D01*
X137064972Y-120808112D01*
X137515375Y-120776217D01*
X137783352Y-120665217D01*
X137797565Y-120582908D01*
X137836235Y-120621645D01*
X138253244Y-120794803D01*
X138704775Y-120795197D01*
X139115495Y-120625490D01*
X139523244Y-120794803D01*
X139974775Y-120795197D01*
X140385495Y-120625490D01*
X140793244Y-120794803D01*
X141244775Y-120795197D01*
X141655495Y-120625490D01*
X142063244Y-120794803D01*
X142514775Y-120795197D01*
X142925495Y-120625490D01*
X143333244Y-120794803D01*
X143784775Y-120795197D01*
X144195495Y-120625490D01*
X144603244Y-120794803D01*
X145054775Y-120795197D01*
X145465495Y-120625490D01*
X145873244Y-120794803D01*
X146324775Y-120795197D01*
X146735495Y-120625490D01*
X147143244Y-120794803D01*
X147594775Y-120795197D01*
X148012086Y-120622767D01*
X148331645Y-120303765D01*
X148504803Y-119886756D01*
X148505197Y-119435225D01*
X148332767Y-119017914D01*
X148155000Y-118839836D01*
X148155000Y-117906000D01*
X148095245Y-117605594D01*
X148095245Y-117605593D01*
X147925079Y-117350921D01*
X147240079Y-116665921D01*
X146985407Y-116495755D01*
X146685000Y-116436000D01*
X132087658Y-116436000D01*
X119935079Y-104283421D01*
X119349108Y-103697450D01*
X119349170Y-103627431D01*
X119294450Y-103495000D01*
X124270000Y-103495000D01*
X125730000Y-103495000D01*
X126030406Y-103435245D01*
X126030407Y-103435245D01*
X126085062Y-103398725D01*
X126084830Y-103665069D01*
X126234471Y-104027229D01*
X126285000Y-104077846D01*
X126285000Y-104286200D01*
X126344755Y-104586607D01*
X126514921Y-104841279D01*
X135385461Y-113711819D01*
X135640133Y-113881985D01*
X135640134Y-113881985D01*
X135940540Y-113941740D01*
X154512982Y-113941740D01*
X160405652Y-119834410D01*
X160468881Y-119929039D01*
X160478121Y-119938279D01*
X160732793Y-120108445D01*
X161033200Y-120168200D01*
X161079652Y-120158960D01*
X173506082Y-120158960D01*
X173563906Y-120298903D01*
X174023437Y-120759238D01*
X174624152Y-121008676D01*
X175274595Y-121009244D01*
X175875743Y-120760854D01*
X176336078Y-120301323D01*
X176374430Y-120208960D01*
X180026742Y-120208960D01*
X180063906Y-120298903D01*
X180523437Y-120759238D01*
X180912790Y-120920911D01*
X180320675Y-122321780D01*
X180309542Y-123867290D01*
X180890697Y-125299414D01*
X180922400Y-125346860D01*
X181423030Y-125719891D01*
X184020403Y-123122518D01*
X184006260Y-123108375D01*
X184185865Y-122928770D01*
X184200008Y-122942913D01*
X186797381Y-120345540D01*
X186797381Y-120704750D01*
X184379613Y-123122518D01*
X186976986Y-125719891D01*
X187477616Y-125346860D01*
X188079341Y-123923256D01*
X188090474Y-122377746D01*
X188090474Y-126321616D01*
X186866025Y-127139767D01*
X186797381Y-127153421D01*
X186797381Y-125899496D01*
X184200008Y-123302123D01*
X181602635Y-125899496D01*
X181975666Y-126400126D01*
X183399270Y-127001851D01*
X184944780Y-127012984D01*
X186376904Y-126431829D01*
X186424350Y-126400126D01*
X186797381Y-125899496D01*
X186797381Y-127153421D01*
X185133878Y-127484312D01*
X102385000Y-127484312D01*
X102385000Y-110652807D01*
X102385000Y-109467193D01*
X102260543Y-108841506D01*
X101906120Y-108311073D01*
X101375687Y-107956650D01*
X100750000Y-107832193D01*
X100124313Y-107956650D01*
X99593880Y-108311073D01*
X99239457Y-108841506D01*
X99115000Y-109467193D01*
X99115000Y-110652807D01*
X99239457Y-111278494D01*
X99593880Y-111808927D01*
X100124313Y-112163350D01*
X100750000Y-112287807D01*
X101375687Y-112163350D01*
X101906120Y-111808927D01*
X102260543Y-111278494D01*
X102385000Y-110652807D01*
X102385000Y-127484312D01*
X99190474Y-127484312D01*
X99190474Y-122377746D01*
X98609319Y-120945622D01*
X98577616Y-120898176D01*
X98076986Y-120525145D01*
X97897381Y-120704750D01*
X97897381Y-120345540D01*
X97524350Y-119844910D01*
X96608084Y-119457625D01*
X96608084Y-113237438D01*
X96580302Y-112682372D01*
X96421337Y-112298597D01*
X96179153Y-112229132D01*
X95378545Y-113029740D01*
X96179153Y-113830348D01*
X96421337Y-113760883D01*
X96608084Y-113237438D01*
X96608084Y-119457625D01*
X96100746Y-119243185D01*
X95999548Y-119242456D01*
X95999548Y-114009953D01*
X95198940Y-113209345D01*
X94398332Y-114009953D01*
X94467797Y-114252137D01*
X94991242Y-114438884D01*
X95546308Y-114411102D01*
X95930083Y-114252137D01*
X95999548Y-114009953D01*
X95999548Y-119242456D01*
X94555236Y-119232052D01*
X93123112Y-119813207D01*
X93075666Y-119844910D01*
X92702635Y-120345540D01*
X95300008Y-122942913D01*
X97897381Y-120345540D01*
X97897381Y-120704750D01*
X95479613Y-123122518D01*
X98076986Y-125719891D01*
X98577616Y-125346860D01*
X99179341Y-123923256D01*
X99190474Y-122377746D01*
X99190474Y-127484312D01*
X97897381Y-127484312D01*
X97897381Y-125899496D01*
X95300008Y-123302123D01*
X95120403Y-123481728D01*
X95120403Y-123122518D01*
X92523030Y-120525145D01*
X92022400Y-120898176D01*
X91420675Y-122321780D01*
X91409542Y-123867290D01*
X91990697Y-125299414D01*
X92022400Y-125346860D01*
X92523030Y-125719891D01*
X95120403Y-123122518D01*
X95120403Y-123481728D01*
X92702635Y-125899496D01*
X93075666Y-126400126D01*
X94499270Y-127001851D01*
X96044780Y-127012984D01*
X97476904Y-126431829D01*
X97524350Y-126400126D01*
X97897381Y-125899496D01*
X97897381Y-127484312D01*
X94365689Y-127484312D01*
X92633542Y-127139767D01*
X91222293Y-126196800D01*
X90279328Y-124785553D01*
X89934784Y-123053406D01*
X89934784Y-103331569D01*
X90002360Y-103359560D01*
X90254979Y-103359560D01*
X91417920Y-103359560D01*
X91576670Y-103200810D01*
X91576670Y-102201560D01*
X91556670Y-102201560D01*
X91556670Y-101947560D01*
X91576670Y-101947560D01*
X91576670Y-100948310D01*
X91417920Y-100789560D01*
X90254979Y-100789560D01*
X90002360Y-100789560D01*
X89934784Y-100817550D01*
X89934784Y-97881569D01*
X90002360Y-97909560D01*
X90254979Y-97909560D01*
X91417920Y-97909560D01*
X91576670Y-97750810D01*
X91576670Y-96751560D01*
X91556670Y-96751560D01*
X91556670Y-96497560D01*
X91576670Y-96497560D01*
X91576670Y-95498310D01*
X91417920Y-95339560D01*
X90254979Y-95339560D01*
X90002360Y-95339560D01*
X89934784Y-95367550D01*
X89934784Y-75563341D01*
X90279328Y-73831194D01*
X91222293Y-72419947D01*
X92633542Y-71476980D01*
X94365689Y-71132436D01*
X116566237Y-71132436D01*
X116573091Y-88214013D01*
X134419080Y-88203707D01*
X134419080Y-71132436D01*
X185133878Y-71132436D01*
X186866025Y-71476980D01*
X188277272Y-72419945D01*
X189220239Y-73831194D01*
X189564784Y-75563341D01*
X189564784Y-94131067D01*
X189196681Y-93978218D01*
X188605911Y-93977703D01*
X188297844Y-94104993D01*
X188638188Y-93765243D01*
X188864742Y-93219641D01*
X188865257Y-92628871D01*
X188639656Y-92082874D01*
X188222283Y-91664772D01*
X188090474Y-91610040D01*
X188090474Y-74752746D01*
X187509319Y-73320622D01*
X187477616Y-73273176D01*
X186976986Y-72900145D01*
X186797381Y-73079750D01*
X186797381Y-72720540D01*
X186424350Y-72219910D01*
X185000746Y-71618185D01*
X183455236Y-71607052D01*
X182023112Y-72188207D01*
X181975666Y-72219910D01*
X181602635Y-72720540D01*
X184200008Y-75317913D01*
X186797381Y-72720540D01*
X186797381Y-73079750D01*
X184379613Y-75497518D01*
X186976986Y-78094891D01*
X187477616Y-77721860D01*
X188079341Y-76298256D01*
X188090474Y-74752746D01*
X188090474Y-91610040D01*
X187676681Y-91438218D01*
X187085911Y-91437703D01*
X186539914Y-91663304D01*
X186197765Y-92004855D01*
X185494557Y-91300418D01*
X184526433Y-90898418D01*
X183478166Y-90897503D01*
X182827442Y-91166376D01*
X182824250Y-91047525D01*
X182576123Y-90448493D01*
X182283320Y-90319245D01*
X182103715Y-90498850D01*
X182103715Y-90139640D01*
X181974467Y-89846837D01*
X181274194Y-89578572D01*
X180524565Y-89598710D01*
X179925533Y-89846837D01*
X179796285Y-90139640D01*
X180950000Y-91293355D01*
X182103715Y-90139640D01*
X182103715Y-90498850D01*
X181129605Y-91472960D01*
X181143747Y-91487102D01*
X180964142Y-91666707D01*
X180950000Y-91652565D01*
X180770395Y-91832170D01*
X180770395Y-91472960D01*
X179616680Y-90319245D01*
X179323877Y-90448493D01*
X179055612Y-91148766D01*
X179075750Y-91898395D01*
X179323877Y-92497427D01*
X179616680Y-92626675D01*
X180770395Y-91472960D01*
X180770395Y-91832170D01*
X179796285Y-92806280D01*
X179925533Y-93099083D01*
X180625806Y-93367348D01*
X181365160Y-93347486D01*
X181364543Y-94054794D01*
X181764853Y-95023618D01*
X182505443Y-95765502D01*
X183473567Y-96167502D01*
X184521834Y-96168417D01*
X185490658Y-95768107D01*
X186232542Y-95027517D01*
X186577180Y-94197534D01*
X187083319Y-94407702D01*
X187674089Y-94408217D01*
X187982155Y-94280926D01*
X187641812Y-94620677D01*
X187415258Y-95166279D01*
X187414743Y-95757049D01*
X187640344Y-96303046D01*
X188057717Y-96721148D01*
X188603319Y-96947702D01*
X189194089Y-96948217D01*
X189564784Y-96795049D01*
X189564784Y-104241067D01*
X189196681Y-104088218D01*
X188605911Y-104087703D01*
X188297844Y-104214993D01*
X188638188Y-103875243D01*
X188864742Y-103329641D01*
X188865257Y-102738871D01*
X188639656Y-102192874D01*
X188222283Y-101774772D01*
X187676681Y-101548218D01*
X187568280Y-101548123D01*
X178175000Y-92154842D01*
X178175000Y-90015158D01*
X178775158Y-89415000D01*
X185684842Y-89415000D01*
X185825000Y-89555158D01*
X185825000Y-89611845D01*
X185775445Y-89661314D01*
X185625172Y-90023212D01*
X185624830Y-90415069D01*
X185774471Y-90777229D01*
X186051314Y-91054555D01*
X186413212Y-91204828D01*
X186805069Y-91205170D01*
X187167229Y-91055529D01*
X187444555Y-90778686D01*
X187594828Y-90416788D01*
X187595170Y-90024931D01*
X187445529Y-89662771D01*
X187395000Y-89612153D01*
X187395000Y-89230000D01*
X187335245Y-88929594D01*
X187335245Y-88929593D01*
X187165079Y-88674921D01*
X186797381Y-88307223D01*
X186797381Y-78274496D01*
X184200008Y-75677123D01*
X184020403Y-75856728D01*
X184020403Y-75497518D01*
X181423030Y-72900145D01*
X180922400Y-73273176D01*
X180320675Y-74696780D01*
X180309542Y-76242290D01*
X180890697Y-77674414D01*
X180922400Y-77721860D01*
X181423030Y-78094891D01*
X184020403Y-75497518D01*
X184020403Y-75856728D01*
X181602635Y-78274496D01*
X181975666Y-78775126D01*
X183399270Y-79376851D01*
X184944780Y-79387984D01*
X186376904Y-78806829D01*
X186424350Y-78775126D01*
X186797381Y-78274496D01*
X186797381Y-88307223D01*
X186565079Y-88074921D01*
X186310407Y-87904755D01*
X186010000Y-87845000D01*
X178450000Y-87845000D01*
X178149593Y-87904755D01*
X177894921Y-88074921D01*
X176834921Y-89134921D01*
X176664755Y-89389593D01*
X176605000Y-89690000D01*
X176605000Y-92480000D01*
X176664755Y-92780407D01*
X176834921Y-93035079D01*
X186083290Y-102283447D01*
X185895258Y-102736279D01*
X185894913Y-103131474D01*
X185494557Y-102730418D01*
X184526433Y-102328418D01*
X183478166Y-102327503D01*
X182509342Y-102727813D01*
X181767458Y-103468403D01*
X181365458Y-104436527D01*
X181364823Y-105163290D01*
X181274194Y-105128572D01*
X180524565Y-105148710D01*
X179925533Y-105396837D01*
X179796285Y-105689640D01*
X180950000Y-106843355D01*
X180964142Y-106829212D01*
X181143747Y-107008817D01*
X181129605Y-107022960D01*
X182283320Y-108176675D01*
X182576123Y-108047427D01*
X182844388Y-107347154D01*
X182844091Y-107336121D01*
X183473567Y-107597502D01*
X184521834Y-107598417D01*
X185490658Y-107198107D01*
X186232542Y-106457517D01*
X186634542Y-105489393D01*
X186635457Y-104441126D01*
X186580895Y-104309077D01*
X187083319Y-104517702D01*
X187674089Y-104518217D01*
X187982155Y-104390926D01*
X187641812Y-104730677D01*
X187415258Y-105276279D01*
X187414743Y-105867049D01*
X187640344Y-106413046D01*
X188057717Y-106831148D01*
X188603319Y-107057702D01*
X189194089Y-107058217D01*
X189564784Y-106905049D01*
X189564784Y-123053406D01*
M02*
