G04 #@! TF.FileFunction,Paste,Top*
%FSLAX46Y46*%
G04 Gerber Fmt 4.6, Leading zero omitted, Abs format (unit mm)*
G04 Created by KiCad (PCBNEW (2015-01-16 BZR 5376)-product) date 17/05/2015 14:23:26*
%MOMM*%
G01*
G04 APERTURE LIST*
%ADD10C,0.150000*%
%ADD11C,0.100000*%
%ADD12R,1.143000X0.635000*%
%ADD13R,0.600000X1.100000*%
%ADD14R,0.914400X0.914400*%
%ADD15R,0.800100X1.000760*%
%ADD16R,0.635000X1.143000*%
%ADD17R,1.750000X0.400000*%
%ADD18R,2.500000X1.425000*%
%ADD19R,0.406400X1.524000*%
%ADD20R,1.524000X0.406400*%
%ADD21R,1.400000X0.230000*%
%ADD22R,0.230000X1.400000*%
%ADD23R,5.600000X2.200000*%
G04 APERTURE END LIST*
D10*
D11*
X89249784Y-123120874D02*
X89249784Y-75495874D01*
X89249784Y-123120874D02*
G75*
G03X94298222Y-128169312I5048438J0D01*
G01*
X185201346Y-128169312D02*
X94298222Y-128169312D01*
X185201346Y-128169312D02*
G75*
G03X190249784Y-123120874I0J5048438D01*
G01*
X190249784Y-75495874D02*
X190249784Y-123120874D01*
X190249784Y-75495874D02*
G75*
G03X185201346Y-70447436I-5048438J0D01*
G01*
X94298222Y-70447436D02*
X185201346Y-70447436D01*
X94298222Y-70447436D02*
G75*
G03X89249784Y-75495874I0J-5048438D01*
G01*
D12*
X129820000Y-125852000D03*
X129820000Y-124328000D03*
D13*
X133400000Y-122910000D03*
X132450000Y-122910000D03*
X131500000Y-122910000D03*
X131500000Y-125710000D03*
X133400000Y-125710000D03*
D14*
X132889000Y-101726000D03*
X131111000Y-101726000D03*
X132000000Y-99694000D03*
D15*
X108800000Y-90910180D03*
X109752500Y-93109820D03*
X107847500Y-93109820D03*
D12*
X106500000Y-93172000D03*
X106500000Y-91648000D03*
X111100000Y-93172000D03*
X111100000Y-91648000D03*
D16*
X113638000Y-108710000D03*
X115162000Y-108710000D03*
D12*
X125400000Y-104448000D03*
X125400000Y-105972000D03*
X120800000Y-93172000D03*
X120800000Y-91648000D03*
X112600000Y-93172000D03*
X112600000Y-91648000D03*
D16*
X106962000Y-101810000D03*
X105438000Y-101810000D03*
D12*
X114100000Y-93172000D03*
X114100000Y-91648000D03*
D16*
X117138000Y-115110000D03*
X118662000Y-115110000D03*
X121862000Y-115110000D03*
X120338000Y-115110000D03*
X154238000Y-101210000D03*
X155762000Y-101210000D03*
X154238000Y-99810000D03*
X155762000Y-99810000D03*
D12*
X145034000Y-117856000D03*
X145034000Y-116332000D03*
X143510000Y-117856000D03*
X143510000Y-116332000D03*
X146558000Y-117856000D03*
X146558000Y-116332000D03*
X141986000Y-117856000D03*
X141986000Y-116332000D03*
X140462000Y-117856000D03*
X140462000Y-116332000D03*
X138938000Y-117856000D03*
X138938000Y-116332000D03*
D16*
X157538000Y-97410000D03*
X159062000Y-97410000D03*
X154238000Y-97410000D03*
X155762000Y-97410000D03*
D12*
X145000000Y-104348000D03*
X145000000Y-105872000D03*
X157000000Y-102672000D03*
X157000000Y-101148000D03*
X153500000Y-94372000D03*
X153500000Y-92848000D03*
X149150000Y-105348000D03*
X149150000Y-106872000D03*
D16*
X146338000Y-107110000D03*
X147862000Y-107110000D03*
D12*
X136100000Y-94248000D03*
X136100000Y-95772000D03*
X149800000Y-90772000D03*
X149800000Y-89248000D03*
X158500000Y-102672000D03*
X158500000Y-101148000D03*
X159800000Y-94648000D03*
X159800000Y-96172000D03*
D16*
X154738000Y-94210000D03*
X156262000Y-94210000D03*
X151538000Y-87910000D03*
X153062000Y-87910000D03*
X154738000Y-95610000D03*
X156262000Y-95610000D03*
D12*
X152100000Y-94372000D03*
X152100000Y-92848000D03*
D16*
X151538000Y-89310000D03*
X153062000Y-89310000D03*
X143362000Y-88910000D03*
X141838000Y-88910000D03*
D12*
X143500000Y-104348000D03*
X143500000Y-105872000D03*
X104700000Y-95972000D03*
X104700000Y-94448000D03*
X137414000Y-116332000D03*
X137414000Y-117856000D03*
X166010000Y-91402000D03*
X166010000Y-89878000D03*
D16*
X156912000Y-107610000D03*
X155388000Y-107610000D03*
D17*
X94053670Y-98049560D03*
X94053670Y-98699560D03*
X94053670Y-99349560D03*
X94053670Y-99999560D03*
X94053670Y-100649560D03*
D18*
X90728670Y-98387060D03*
X90728670Y-100312060D03*
D16*
X155762000Y-102610000D03*
X154238000Y-102610000D03*
D12*
X158300000Y-94648000D03*
X158300000Y-96172000D03*
D16*
X105438000Y-97210000D03*
X106962000Y-97210000D03*
X105438000Y-98710000D03*
X106962000Y-98710000D03*
X105438000Y-100310000D03*
X106962000Y-100310000D03*
X109738000Y-108710000D03*
X111262000Y-108710000D03*
D12*
X122700000Y-94672000D03*
X122700000Y-93148000D03*
D16*
X130992000Y-103842518D03*
X129468000Y-103842518D03*
D12*
X148082000Y-117856000D03*
X148082000Y-116332000D03*
D16*
X99187000Y-107188000D03*
X100711000Y-107188000D03*
X146338000Y-105610000D03*
X147862000Y-105610000D03*
X155762000Y-104110000D03*
X154238000Y-104110000D03*
D12*
X136100000Y-100248000D03*
X136100000Y-101772000D03*
X134500000Y-100248000D03*
X134500000Y-101772000D03*
X156100000Y-85048000D03*
X156100000Y-86572000D03*
X186563000Y-88671800D03*
X186563000Y-87147800D03*
X184863000Y-88671800D03*
X184863000Y-87147800D03*
D16*
X158262000Y-104110000D03*
X156738000Y-104110000D03*
X99187000Y-105537000D03*
X100711000Y-105537000D03*
D12*
X165180000Y-92868000D03*
X165180000Y-94392000D03*
X166920000Y-94148000D03*
X166920000Y-95672000D03*
X158200000Y-107822000D03*
X158200000Y-106298000D03*
X159750000Y-107272000D03*
X159750000Y-105748000D03*
X132334000Y-117856000D03*
X132334000Y-116332000D03*
X133858000Y-117856000D03*
X133858000Y-116332000D03*
D19*
X116800000Y-95395000D03*
X115999900Y-95395000D03*
X115199800Y-95395000D03*
X114399700Y-95395000D03*
X113599600Y-95395000D03*
X112799500Y-95395000D03*
X117600100Y-95395000D03*
X118400200Y-95395000D03*
X119200300Y-95395000D03*
X120000400Y-95395000D03*
X120800500Y-95395000D03*
X116800000Y-106825000D03*
X115999900Y-106825000D03*
X115199800Y-106825000D03*
X114399700Y-106825000D03*
X113599600Y-106825000D03*
X112799500Y-106825000D03*
X117600100Y-106825000D03*
X118400200Y-106825000D03*
X119200300Y-106825000D03*
X120000400Y-106825000D03*
X120800500Y-106825000D03*
D20*
X111085000Y-101110000D03*
X122515000Y-101110000D03*
X111085000Y-101910100D03*
X122515000Y-101910100D03*
X122515000Y-102710200D03*
X111085000Y-102710200D03*
X111085000Y-103510300D03*
X122515000Y-103510300D03*
X122515000Y-104310400D03*
X111085000Y-104310400D03*
X111085000Y-105110500D03*
X122515000Y-105110500D03*
X122515000Y-100309900D03*
X111085000Y-100309900D03*
X111085000Y-99509800D03*
X122515000Y-99509800D03*
X122515000Y-98709700D03*
X111085000Y-98709700D03*
X111085000Y-97909600D03*
X122515000Y-97909600D03*
X122515000Y-97109500D03*
X111085000Y-97109500D03*
D21*
X150300000Y-100410000D03*
X150300000Y-100010000D03*
X150300000Y-99610000D03*
X150300000Y-99210000D03*
X150300000Y-98810000D03*
X150300000Y-98410000D03*
X150300000Y-98010000D03*
X150300000Y-97610000D03*
X150300000Y-97210000D03*
X150300000Y-96810000D03*
X150300000Y-96410000D03*
X150300000Y-96010000D03*
X150300000Y-95610000D03*
X150300000Y-95210000D03*
X150300000Y-94810000D03*
X150300000Y-94410000D03*
X150300000Y-94010000D03*
X150300000Y-93610000D03*
X150300000Y-93210000D03*
X150300000Y-92810000D03*
D22*
X148100000Y-90610000D03*
X147700000Y-90610000D03*
X147300000Y-90610000D03*
X146900000Y-90610000D03*
X146500000Y-90610000D03*
X146100000Y-90610000D03*
X145700000Y-90610000D03*
X145300000Y-90610000D03*
X144900000Y-90610000D03*
X144500000Y-90610000D03*
X144100000Y-90610000D03*
X143700000Y-90610000D03*
X143300000Y-90610000D03*
X142900000Y-90610000D03*
X142500000Y-90610000D03*
X142100000Y-90610000D03*
X141700000Y-90610000D03*
X141300000Y-90610000D03*
X140900000Y-90610000D03*
X140500000Y-90610000D03*
D21*
X138300000Y-92810000D03*
X138300000Y-93210000D03*
X138300000Y-93610000D03*
X138300000Y-94010000D03*
X138300000Y-94410000D03*
X138300000Y-94810000D03*
X138300000Y-95210000D03*
X138300000Y-95610000D03*
X138300000Y-96010000D03*
X138300000Y-96410000D03*
X138300000Y-96810000D03*
X138300000Y-97210000D03*
X138300000Y-97610000D03*
X138300000Y-98010000D03*
X138300000Y-98410000D03*
X138300000Y-98810000D03*
X138300000Y-99210000D03*
X138300000Y-99610000D03*
X138300000Y-100010000D03*
X138300000Y-100410000D03*
D22*
X140500000Y-102610000D03*
X140900000Y-102610000D03*
X141300000Y-102610000D03*
X141700000Y-102610000D03*
X142100000Y-102610000D03*
X142500000Y-102610000D03*
X142900000Y-102610000D03*
X143300000Y-102610000D03*
X143700000Y-102610000D03*
X144100000Y-102610000D03*
X144500000Y-102610000D03*
X144900000Y-102610000D03*
X145300000Y-102610000D03*
X145700000Y-102610000D03*
X146100000Y-102610000D03*
X146500000Y-102610000D03*
X146900000Y-102610000D03*
X147300000Y-102610000D03*
X147700000Y-102610000D03*
X148100000Y-102610000D03*
D23*
X116850000Y-118310000D03*
X126350000Y-118310000D03*
X142250000Y-110310000D03*
X151750000Y-110310000D03*
M02*
