G04 #@! TF.FileFunction,Copper,L1,Top,Signal*
%FSLAX46Y46*%
G04 Gerber Fmt 4.6, Leading zero omitted, Abs format (unit mm)*
G04 Created by KiCad (PCBNEW (2015-01-16 BZR 5376)-product) date 17/05/2015 14:23:26*
%MOMM*%
G01*
G04 APERTURE LIST*
%ADD10C,0.150000*%
%ADD11C,0.100000*%
%ADD12R,1.143000X0.635000*%
%ADD13C,6.500000*%
%ADD14C,1.000000*%
%ADD15R,0.600000X1.100000*%
%ADD16R,0.914400X0.914400*%
%ADD17R,0.800100X1.000760*%
%ADD18R,0.635000X1.143000*%
%ADD19R,1.750000X0.400000*%
%ADD20R,1.460000X2.000000*%
%ADD21R,3.150000X1.300000*%
%ADD22R,2.500000X1.425000*%
%ADD23R,1.524000X1.524000*%
%ADD24C,1.524000*%
%ADD25C,4.000000*%
%ADD26C,2.500000*%
%ADD27C,1.700000*%
%ADD28C,2.000000*%
%ADD29R,0.406400X1.524000*%
%ADD30R,1.524000X0.406400*%
%ADD31R,1.400000X0.230000*%
%ADD32R,0.230000X1.400000*%
%ADD33O,2.000000X3.100000*%
%ADD34C,1.800000*%
%ADD35R,5.600000X2.200000*%
%ADD36C,0.700000*%
%ADD37C,0.400000*%
%ADD38C,0.200000*%
%ADD39C,0.300000*%
%ADD40C,0.500000*%
%ADD41C,1.000000*%
%ADD42C,0.254000*%
G04 APERTURE END LIST*
D10*
D11*
X89249784Y-123120874D02*
X89249784Y-75495874D01*
X89249784Y-123120874D02*
G75*
G03X94298222Y-128169312I5048438J0D01*
G01*
X185201346Y-128169312D02*
X94298222Y-128169312D01*
X185201346Y-128169312D02*
G75*
G03X190249784Y-123120874I0J5048438D01*
G01*
X190249784Y-75495874D02*
X190249784Y-123120874D01*
X190249784Y-75495874D02*
G75*
G03X185201346Y-70447436I-5048438J0D01*
G01*
X94298222Y-70447436D02*
X185201346Y-70447436D01*
X94298222Y-70447436D02*
G75*
G03X89249784Y-75495874I0J-5048438D01*
G01*
D12*
X129820000Y-125852000D03*
X129820000Y-124328000D03*
D13*
X184200008Y-123122518D03*
X184200008Y-75497518D03*
X95300008Y-75497518D03*
D14*
X101500000Y-123122518D03*
X178000000Y-123122518D03*
X101500000Y-75497518D03*
D15*
X133400000Y-122910000D03*
X132450000Y-122910000D03*
X131500000Y-122910000D03*
X131500000Y-125710000D03*
X133400000Y-125710000D03*
D16*
X132889000Y-101726000D03*
X131111000Y-101726000D03*
X132000000Y-99694000D03*
D17*
X108800000Y-90910180D03*
X109752500Y-93109820D03*
X107847500Y-93109820D03*
D12*
X106500000Y-93172000D03*
X106500000Y-91648000D03*
X111100000Y-93172000D03*
X111100000Y-91648000D03*
D18*
X113638000Y-108710000D03*
X115162000Y-108710000D03*
D12*
X125400000Y-104448000D03*
X125400000Y-105972000D03*
X120800000Y-93172000D03*
X120800000Y-91648000D03*
X112600000Y-93172000D03*
X112600000Y-91648000D03*
D18*
X106962000Y-101810000D03*
X105438000Y-101810000D03*
D12*
X114100000Y-93172000D03*
X114100000Y-91648000D03*
D18*
X117138000Y-115110000D03*
X118662000Y-115110000D03*
X121862000Y-115110000D03*
X120338000Y-115110000D03*
X154238000Y-101210000D03*
X155762000Y-101210000D03*
X154238000Y-99810000D03*
X155762000Y-99810000D03*
D12*
X145034000Y-117856000D03*
X145034000Y-116332000D03*
X143510000Y-117856000D03*
X143510000Y-116332000D03*
X146558000Y-117856000D03*
X146558000Y-116332000D03*
X141986000Y-117856000D03*
X141986000Y-116332000D03*
X140462000Y-117856000D03*
X140462000Y-116332000D03*
X138938000Y-117856000D03*
X138938000Y-116332000D03*
D18*
X157538000Y-97410000D03*
X159062000Y-97410000D03*
X154238000Y-97410000D03*
X155762000Y-97410000D03*
D12*
X145000000Y-104348000D03*
X145000000Y-105872000D03*
X157000000Y-102672000D03*
X157000000Y-101148000D03*
X153500000Y-94372000D03*
X153500000Y-92848000D03*
X149150000Y-105348000D03*
X149150000Y-106872000D03*
D18*
X146338000Y-107110000D03*
X147862000Y-107110000D03*
D12*
X136100000Y-94248000D03*
X136100000Y-95772000D03*
X149800000Y-90772000D03*
X149800000Y-89248000D03*
X158500000Y-102672000D03*
X158500000Y-101148000D03*
X159800000Y-94648000D03*
X159800000Y-96172000D03*
D18*
X154738000Y-94210000D03*
X156262000Y-94210000D03*
X151538000Y-87910000D03*
X153062000Y-87910000D03*
X154738000Y-95610000D03*
X156262000Y-95610000D03*
D12*
X152100000Y-94372000D03*
X152100000Y-92848000D03*
D18*
X151538000Y-89310000D03*
X153062000Y-89310000D03*
X143362000Y-88910000D03*
X141838000Y-88910000D03*
D12*
X143500000Y-104348000D03*
X143500000Y-105872000D03*
X104700000Y-95972000D03*
X104700000Y-94448000D03*
X137414000Y-116332000D03*
X137414000Y-117856000D03*
X166010000Y-91402000D03*
X166010000Y-89878000D03*
D18*
X156912000Y-107610000D03*
X155388000Y-107610000D03*
D19*
X94053670Y-98049560D03*
X94053670Y-98699560D03*
X94053670Y-99349560D03*
X94053670Y-99999560D03*
X94053670Y-100649560D03*
D20*
X94258670Y-96449560D03*
X94258670Y-102249560D03*
D21*
X91703670Y-96624560D03*
X91703670Y-102074560D03*
D22*
X90728670Y-98387060D03*
X90728670Y-100312060D03*
D23*
X92658940Y-107949740D03*
D24*
X95198940Y-107949740D03*
X92658940Y-110489740D03*
X95198940Y-110489740D03*
X92658940Y-113029740D03*
X95198940Y-113029740D03*
D18*
X155762000Y-102610000D03*
X154238000Y-102610000D03*
D12*
X158300000Y-94648000D03*
X158300000Y-96172000D03*
D18*
X105438000Y-97210000D03*
X106962000Y-97210000D03*
D25*
X184000000Y-93532960D03*
X184000000Y-104962960D03*
D24*
X177650000Y-103692960D03*
X175110000Y-102422960D03*
X177650000Y-101152960D03*
X175110000Y-99882960D03*
X177650000Y-98612960D03*
X175110000Y-97342960D03*
X177650000Y-96072960D03*
D26*
X180950000Y-91472960D03*
X180950000Y-107022960D03*
D24*
X175110000Y-94802960D03*
D27*
X187380000Y-92922960D03*
X188900000Y-95462960D03*
X187380000Y-103032960D03*
X188900000Y-105572960D03*
D13*
X95300008Y-123122518D03*
D18*
X105438000Y-98710000D03*
X106962000Y-98710000D03*
X105438000Y-100310000D03*
X106962000Y-100310000D03*
X109738000Y-108710000D03*
X111262000Y-108710000D03*
D12*
X122700000Y-94672000D03*
X122700000Y-93148000D03*
D18*
X130992000Y-103842518D03*
X129468000Y-103842518D03*
D12*
X148082000Y-117856000D03*
X148082000Y-116332000D03*
D18*
X99187000Y-107188000D03*
X100711000Y-107188000D03*
X146338000Y-105610000D03*
X147862000Y-105610000D03*
X155762000Y-104110000D03*
X154238000Y-104110000D03*
D12*
X136100000Y-100248000D03*
X136100000Y-101772000D03*
X134500000Y-100248000D03*
X134500000Y-101772000D03*
X156100000Y-85048000D03*
X156100000Y-86572000D03*
X186563000Y-88671800D03*
X186563000Y-87147800D03*
X184863000Y-88671800D03*
X184863000Y-87147800D03*
D18*
X158262000Y-104110000D03*
X156738000Y-104110000D03*
X99187000Y-105537000D03*
X100711000Y-105537000D03*
D12*
X165180000Y-92868000D03*
X165180000Y-94392000D03*
X166920000Y-94148000D03*
X166920000Y-95672000D03*
X158200000Y-107822000D03*
X158200000Y-106298000D03*
X159750000Y-107272000D03*
X159750000Y-105748000D03*
X132334000Y-117856000D03*
X132334000Y-116332000D03*
X133858000Y-117856000D03*
X133858000Y-116332000D03*
D28*
X181450800Y-119373960D03*
X181450800Y-114873960D03*
X174950800Y-114873960D03*
X174950800Y-119373960D03*
D29*
X116800000Y-95395000D03*
X115999900Y-95395000D03*
X115199800Y-95395000D03*
X114399700Y-95395000D03*
X113599600Y-95395000D03*
X112799500Y-95395000D03*
X117600100Y-95395000D03*
X118400200Y-95395000D03*
X119200300Y-95395000D03*
X120000400Y-95395000D03*
X120800500Y-95395000D03*
X116800000Y-106825000D03*
X115999900Y-106825000D03*
X115199800Y-106825000D03*
X114399700Y-106825000D03*
X113599600Y-106825000D03*
X112799500Y-106825000D03*
X117600100Y-106825000D03*
X118400200Y-106825000D03*
X119200300Y-106825000D03*
X120000400Y-106825000D03*
X120800500Y-106825000D03*
D30*
X111085000Y-101110000D03*
X122515000Y-101110000D03*
X111085000Y-101910100D03*
X122515000Y-101910100D03*
X122515000Y-102710200D03*
X111085000Y-102710200D03*
X111085000Y-103510300D03*
X122515000Y-103510300D03*
X122515000Y-104310400D03*
X111085000Y-104310400D03*
X111085000Y-105110500D03*
X122515000Y-105110500D03*
X122515000Y-100309900D03*
X111085000Y-100309900D03*
X111085000Y-99509800D03*
X122515000Y-99509800D03*
X122515000Y-98709700D03*
X111085000Y-98709700D03*
X111085000Y-97909600D03*
X122515000Y-97909600D03*
X122515000Y-97109500D03*
X111085000Y-97109500D03*
D31*
X150300000Y-100410000D03*
X150300000Y-100010000D03*
X150300000Y-99610000D03*
X150300000Y-99210000D03*
X150300000Y-98810000D03*
X150300000Y-98410000D03*
X150300000Y-98010000D03*
X150300000Y-97610000D03*
X150300000Y-97210000D03*
X150300000Y-96810000D03*
X150300000Y-96410000D03*
X150300000Y-96010000D03*
X150300000Y-95610000D03*
X150300000Y-95210000D03*
X150300000Y-94810000D03*
X150300000Y-94410000D03*
X150300000Y-94010000D03*
X150300000Y-93610000D03*
X150300000Y-93210000D03*
X150300000Y-92810000D03*
D32*
X148100000Y-90610000D03*
X147700000Y-90610000D03*
X147300000Y-90610000D03*
X146900000Y-90610000D03*
X146500000Y-90610000D03*
X146100000Y-90610000D03*
X145700000Y-90610000D03*
X145300000Y-90610000D03*
X144900000Y-90610000D03*
X144500000Y-90610000D03*
X144100000Y-90610000D03*
X143700000Y-90610000D03*
X143300000Y-90610000D03*
X142900000Y-90610000D03*
X142500000Y-90610000D03*
X142100000Y-90610000D03*
X141700000Y-90610000D03*
X141300000Y-90610000D03*
X140900000Y-90610000D03*
X140500000Y-90610000D03*
D31*
X138300000Y-92810000D03*
X138300000Y-93210000D03*
X138300000Y-93610000D03*
X138300000Y-94010000D03*
X138300000Y-94410000D03*
X138300000Y-94810000D03*
X138300000Y-95210000D03*
X138300000Y-95610000D03*
X138300000Y-96010000D03*
X138300000Y-96410000D03*
X138300000Y-96810000D03*
X138300000Y-97210000D03*
X138300000Y-97610000D03*
X138300000Y-98010000D03*
X138300000Y-98410000D03*
X138300000Y-98810000D03*
X138300000Y-99210000D03*
X138300000Y-99610000D03*
X138300000Y-100010000D03*
X138300000Y-100410000D03*
D32*
X140500000Y-102610000D03*
X140900000Y-102610000D03*
X141300000Y-102610000D03*
X141700000Y-102610000D03*
X142100000Y-102610000D03*
X142500000Y-102610000D03*
X142900000Y-102610000D03*
X143300000Y-102610000D03*
X143700000Y-102610000D03*
X144100000Y-102610000D03*
X144500000Y-102610000D03*
X144900000Y-102610000D03*
X145300000Y-102610000D03*
X145700000Y-102610000D03*
X146100000Y-102610000D03*
X146500000Y-102610000D03*
X146900000Y-102610000D03*
X147300000Y-102610000D03*
X147700000Y-102610000D03*
X148100000Y-102610000D03*
D14*
X147370000Y-119660000D03*
D33*
X100750000Y-110060000D03*
X100750000Y-95060000D03*
D14*
X146100000Y-119660000D03*
X144830000Y-119660000D03*
X143560000Y-119660000D03*
X142290000Y-119660000D03*
X141020000Y-119660000D03*
X139750000Y-119660000D03*
X138480000Y-119660000D03*
X137210000Y-119660000D03*
X135940000Y-119660000D03*
X134670000Y-119660000D03*
X133400000Y-119660000D03*
X132130000Y-119660000D03*
D34*
X153126440Y-83030000D03*
X150586440Y-83030000D03*
X153126440Y-80490000D03*
X150586440Y-80490000D03*
X153126440Y-77950000D03*
X150586440Y-77950000D03*
X153126440Y-75410000D03*
X150586440Y-75410000D03*
D35*
X116850000Y-118310000D03*
X126350000Y-118310000D03*
X142250000Y-110310000D03*
X151750000Y-110310000D03*
D36*
X129790000Y-122900000D03*
X118364000Y-103822500D03*
X113600000Y-104710000D03*
X146200000Y-86110000D03*
X143800000Y-86210000D03*
X127020000Y-101420000D03*
X113500000Y-103710000D03*
X124400000Y-101910000D03*
X145300000Y-84810000D03*
X143800000Y-85210000D03*
X113500000Y-102710000D03*
X124900000Y-101110000D03*
X124400000Y-100310000D03*
X145200000Y-92010000D03*
X143900000Y-83610000D03*
X130000000Y-101710000D03*
X121050000Y-99510000D03*
X127070000Y-103470000D03*
X108800000Y-92010000D03*
X132900000Y-102710000D03*
X166010000Y-89040000D03*
X149000000Y-99210000D03*
X146900000Y-101310000D03*
X151700000Y-97210000D03*
X149000000Y-94310000D03*
X156600000Y-97410000D03*
X157100000Y-94210000D03*
X152100000Y-92010000D03*
X153500000Y-92010000D03*
X157000000Y-99810000D03*
X159100000Y-104110000D03*
X141700000Y-101310000D03*
X142100000Y-91910000D03*
X144000000Y-92010000D03*
X159900000Y-97410000D03*
X106500000Y-90810000D03*
X111100000Y-90810000D03*
X113600000Y-96710000D03*
X112600000Y-90810000D03*
X114100000Y-90810000D03*
X119600000Y-96910000D03*
X120800000Y-90810000D03*
X115300000Y-105510000D03*
X119500000Y-115110000D03*
X123800000Y-105310000D03*
X149800000Y-88410000D03*
X153900000Y-87910000D03*
X153900000Y-89310000D03*
X136100000Y-96610000D03*
X149000000Y-95210000D03*
X109800000Y-100310000D03*
X125400000Y-106810000D03*
X139700000Y-93310000D03*
X154550000Y-107610000D03*
X157050000Y-95610000D03*
X158500000Y-99810000D03*
X148750000Y-107710000D03*
X143500000Y-106710000D03*
X146558000Y-114554000D03*
X145034000Y-114554000D03*
X143510000Y-114554000D03*
X141986000Y-114554000D03*
X140462000Y-114554000D03*
X138938000Y-114554000D03*
X104600000Y-101810000D03*
X104700000Y-93610000D03*
X152800000Y-97510000D03*
X145700000Y-101310000D03*
X186610000Y-90220000D03*
D37*
X95285800Y-98710000D02*
X95281000Y-98714800D01*
D38*
X151662000Y-94810000D02*
X152100000Y-94372000D01*
X150300000Y-94810000D02*
X151662000Y-94810000D01*
X152062000Y-94410000D02*
X152100000Y-94372000D01*
X150300000Y-94410000D02*
X152062000Y-94410000D01*
X143700000Y-104148000D02*
X143500000Y-104348000D01*
X143700000Y-102610000D02*
X143700000Y-104148000D01*
X143300000Y-92310000D02*
X145800000Y-94810000D01*
X143300000Y-90610000D02*
X143300000Y-92310000D01*
X143700000Y-100110000D02*
X145800000Y-98010000D01*
X143700000Y-102610000D02*
X143700000Y-100110000D01*
D39*
X152100000Y-93910000D02*
X152400000Y-93610000D01*
X152400000Y-93610000D02*
X154100000Y-93610000D01*
X154100000Y-93610000D02*
X154200000Y-93610000D01*
X154200000Y-93610000D02*
X154738000Y-94148000D01*
X154738000Y-94148000D02*
X154738000Y-94210000D01*
X152100000Y-94372000D02*
X152100000Y-93910000D01*
X158300000Y-94110000D02*
X157300000Y-93110000D01*
X157300000Y-93110000D02*
X155838000Y-93110000D01*
X155838000Y-93110000D02*
X154738000Y-94210000D01*
X158300000Y-94648000D02*
X158300000Y-94110000D01*
X159800000Y-94648000D02*
X158300000Y-94648000D01*
D38*
X143300000Y-88972000D02*
X143362000Y-88910000D01*
X143300000Y-90610000D02*
X143300000Y-88972000D01*
X149400000Y-96410000D02*
X147800000Y-98010000D01*
X147800000Y-98010000D02*
X145800000Y-98010000D01*
X150300000Y-96410000D02*
X149400000Y-96410000D01*
X145800000Y-98010000D02*
X145800000Y-94810000D01*
X153438000Y-96410000D02*
X154238000Y-95610000D01*
X153438000Y-96410000D02*
X150300000Y-96410000D01*
X154738000Y-95610000D02*
X154238000Y-95610000D01*
D37*
X154738000Y-94210000D02*
X154738000Y-95610000D01*
D39*
X176920000Y-97342518D02*
X178490000Y-97342518D01*
X178490000Y-97342518D02*
X178570000Y-97262518D01*
X174380000Y-98622518D02*
X175910000Y-98622518D01*
X175910000Y-98622518D02*
X175920000Y-98632518D01*
X177650000Y-101152960D02*
X175130460Y-101152960D01*
X175130460Y-101152960D02*
X175068420Y-101215000D01*
D40*
X134500000Y-101772000D02*
X136100000Y-101772000D01*
X129810000Y-125932000D02*
X131278000Y-125932000D01*
X131278000Y-125932000D02*
X131500000Y-125710000D01*
D38*
X151862000Y-96010000D02*
X153500000Y-94372000D01*
X150300000Y-96010000D02*
X151862000Y-96010000D01*
D40*
X155824000Y-102672000D02*
X155762000Y-102610000D01*
X157000000Y-102672000D02*
X155824000Y-102672000D01*
X111100000Y-93172000D02*
X109814680Y-93172000D01*
D39*
X112799500Y-93371500D02*
X112600000Y-93172000D01*
X112799500Y-95395000D02*
X112799500Y-93371500D01*
D40*
X113400000Y-97710000D02*
X114500000Y-98810000D01*
D39*
X119900000Y-97710000D02*
X113400000Y-97710000D01*
X120800500Y-96809500D02*
X119900000Y-97710000D01*
X120800500Y-95395000D02*
X120800500Y-96809500D01*
X120800500Y-93172500D02*
X120800000Y-93172000D01*
X120800500Y-95395000D02*
X120800500Y-93172500D01*
X122676000Y-93172000D02*
X122700000Y-93148000D01*
X120800000Y-93172000D02*
X122676000Y-93172000D01*
X114399700Y-107948300D02*
X113638000Y-108710000D01*
X114399700Y-106825000D02*
X114399700Y-107948300D01*
X114399700Y-98709700D02*
X114500000Y-98810000D01*
X114399700Y-106825000D02*
X114399700Y-98709700D01*
D40*
X120000400Y-104310400D02*
X116800000Y-101110000D01*
X116800000Y-101110000D02*
X114500000Y-98810000D01*
X122515000Y-104310400D02*
X120000400Y-104310400D01*
X122515000Y-104310400D02*
X125330400Y-104310400D01*
X125330800Y-104310000D02*
X125330400Y-104310400D01*
X125538000Y-104310000D02*
X125330800Y-104310000D01*
D38*
X149300000Y-93610000D02*
X149000000Y-93310000D01*
X149000000Y-93310000D02*
X149000000Y-91572000D01*
X149000000Y-91572000D02*
X149800000Y-90772000D01*
X150300000Y-93610000D02*
X149300000Y-93610000D01*
D40*
X151538000Y-89310000D02*
X151538000Y-87910000D01*
X150762000Y-86572000D02*
X150490000Y-86300000D01*
X151538000Y-87348000D02*
X150762000Y-86572000D01*
X150490000Y-85255100D02*
X150490000Y-85240000D01*
X150490000Y-86300000D02*
X150490000Y-85255100D01*
X151538000Y-87910000D02*
X151538000Y-87348000D01*
X156100000Y-86572000D02*
X150762000Y-86572000D01*
D38*
X136338000Y-94010000D02*
X136100000Y-94248000D01*
X138300000Y-94010000D02*
X136338000Y-94010000D01*
X150300000Y-96010000D02*
X148400000Y-96010000D01*
D37*
X161395000Y-101215000D02*
X159938000Y-102672000D01*
X159938000Y-102672000D02*
X158500000Y-102672000D01*
X165884860Y-101215000D02*
X161395000Y-101215000D01*
X166350000Y-101215000D02*
X165884860Y-101215000D01*
X158500000Y-102672000D02*
X157000000Y-102672000D01*
X150490000Y-83428760D02*
X150586440Y-83332320D01*
X150490000Y-85255100D02*
X150490000Y-83428760D01*
X138480000Y-121373100D02*
X138485880Y-121378980D01*
X138480000Y-119660000D02*
X138480000Y-121373100D01*
X135940000Y-121309600D02*
X135940800Y-121310400D01*
X135940000Y-119660000D02*
X135940000Y-121309600D01*
X136100000Y-102762500D02*
X136390380Y-103052880D01*
X136390380Y-103052880D02*
X137759440Y-103052880D01*
X137759440Y-103052880D02*
X140888720Y-99923600D01*
X140888720Y-99923600D02*
X140888720Y-94598720D01*
X140888720Y-94598720D02*
X140300000Y-94010000D01*
D38*
X140300000Y-94010000D02*
X138300000Y-94010000D01*
D37*
X136100000Y-101772000D02*
X136100000Y-102762500D01*
X175068420Y-101215000D02*
X175130460Y-101152960D01*
X165884860Y-101215000D02*
X175068420Y-101215000D01*
D39*
X112799500Y-97109500D02*
X113400000Y-97710000D01*
X112799500Y-97023960D02*
X112799500Y-97109500D01*
X112799500Y-95395000D02*
X112799500Y-97023960D01*
X112700800Y-97023960D02*
X111700800Y-96023960D01*
X112799500Y-97023960D02*
X112700800Y-97023960D01*
D40*
X109814680Y-93172000D02*
X109752500Y-93109820D01*
D39*
X109752500Y-91872260D02*
X109800800Y-91823960D01*
X109752500Y-93109820D02*
X109752500Y-91872260D01*
X107785320Y-93172000D02*
X107847500Y-93109820D01*
D40*
X107785320Y-93172000D02*
X107847500Y-93109820D01*
D37*
X112053900Y-101910100D02*
X112854000Y-101110000D01*
X112854000Y-101110000D02*
X112854000Y-98610000D01*
X112854000Y-98610000D02*
X112153600Y-97909600D01*
X112153600Y-97909600D02*
X111085000Y-97909600D01*
X111085000Y-101910100D02*
X112053900Y-101910100D01*
X108100000Y-97210000D02*
X106962000Y-97210000D01*
X108799600Y-97909600D02*
X108100000Y-97210000D01*
X111085000Y-97909600D02*
X108799600Y-97909600D01*
X106962000Y-93634000D02*
X106500000Y-93172000D01*
X106962000Y-97210000D02*
X106962000Y-93634000D01*
D40*
X106500000Y-93172000D02*
X107785320Y-93172000D01*
X100711000Y-107188000D02*
X100711000Y-105537000D01*
D37*
X109798900Y-101910100D02*
X111085000Y-101910100D01*
X108331000Y-103378000D02*
X109798900Y-101910100D01*
X105156000Y-103378000D02*
X108331000Y-103378000D01*
X104648000Y-103886000D02*
X105156000Y-103378000D01*
X104648000Y-104648000D02*
X104648000Y-103886000D01*
X103759000Y-105537000D02*
X104648000Y-104648000D01*
X100711000Y-105537000D02*
X103759000Y-105537000D01*
D39*
X127000000Y-102710000D02*
X127005000Y-102705000D01*
D38*
X136338000Y-100010000D02*
X136100000Y-100248000D01*
X138300000Y-100010000D02*
X136338000Y-100010000D01*
D39*
X133800000Y-101010000D02*
X135338000Y-101010000D01*
X133500000Y-100710000D02*
X133800000Y-101010000D01*
X129000000Y-100710000D02*
X133500000Y-100710000D01*
X127005000Y-102705000D02*
X129000000Y-100710000D01*
X135338000Y-101010000D02*
X136100000Y-100248000D01*
X122520200Y-102705000D02*
X122515000Y-102710200D01*
X127005000Y-102705000D02*
X122520200Y-102705000D01*
X133400000Y-122910000D02*
X133400000Y-121070000D01*
X133400000Y-121070000D02*
X133387250Y-121057250D01*
X133400000Y-118822000D02*
X133400000Y-119660000D01*
X133858000Y-118364000D02*
X133400000Y-118822000D01*
X133400000Y-121044500D02*
X133387250Y-121057250D01*
X133387250Y-121057250D02*
X133159500Y-121285000D01*
X133159500Y-121285000D02*
X131191000Y-121285000D01*
X131191000Y-121285000D02*
X130492500Y-120586500D01*
X130492500Y-120586500D02*
X130492500Y-113284000D01*
X130492500Y-113284000D02*
X126555500Y-109347000D01*
X126555500Y-109347000D02*
X118427500Y-109347000D01*
X118427500Y-109347000D02*
X117600100Y-108519600D01*
X117600100Y-108519600D02*
X117600100Y-106825000D01*
X133400000Y-119660000D02*
X133400000Y-121044500D01*
X133858000Y-117856000D02*
X133858000Y-118364000D01*
X131500000Y-122910000D02*
X129800000Y-122910000D01*
X129800000Y-122910000D02*
X129790000Y-122900000D01*
X132334000Y-117856000D02*
X132334000Y-118364000D01*
X131318000Y-117856000D02*
X131254500Y-117792500D01*
X131254500Y-117792500D02*
X131254500Y-113925500D01*
X131254500Y-113925500D02*
X131254500Y-113030000D01*
X131254500Y-113030000D02*
X126555500Y-108331000D01*
X126555500Y-108331000D02*
X118554500Y-108331000D01*
X118554500Y-108331000D02*
X118400200Y-108176700D01*
X132334000Y-117856000D02*
X131318000Y-117856000D01*
X132334000Y-118364000D02*
X132130000Y-118568000D01*
X132130000Y-118568000D02*
X132130000Y-119660000D01*
X118400200Y-108176700D02*
X118400200Y-106825000D01*
X148082000Y-118948000D02*
X147370000Y-119660000D01*
X148082000Y-117856000D02*
X148082000Y-118948000D01*
X118351552Y-103810052D02*
X118364000Y-103822500D01*
X119200300Y-106825000D02*
X119200300Y-104316404D01*
X119200300Y-104316404D02*
X119074948Y-104191052D01*
X119074948Y-104191052D02*
X118351552Y-103810052D01*
X125145580Y-98709700D02*
X150226040Y-73629240D01*
X150226040Y-73629240D02*
X154370760Y-73629240D01*
X154370760Y-73629240D02*
X155498800Y-74757280D01*
X155498800Y-74757280D02*
X155498800Y-80411320D01*
X155498800Y-80411320D02*
X155367800Y-80542320D01*
X155367800Y-80542320D02*
X153116440Y-80542320D01*
X122515000Y-98709700D02*
X125145580Y-98709700D01*
X150614380Y-80792320D02*
X151571200Y-81749140D01*
X151571200Y-81749140D02*
X154967180Y-81749140D01*
X154967180Y-81749140D02*
X156100000Y-82881960D01*
X156100000Y-82881960D02*
X156100000Y-85048000D01*
X150586440Y-80792320D02*
X150614380Y-80792320D01*
X125107480Y-97909600D02*
X149987280Y-73029800D01*
X149987280Y-73029800D02*
X154741600Y-73029800D01*
X154741600Y-73029800D02*
X156100000Y-74388200D01*
X156100000Y-74388200D02*
X156100000Y-82881960D01*
X122515000Y-97909600D02*
X125107480Y-97909600D01*
X149230040Y-75392320D02*
X125003560Y-99618800D01*
X125003560Y-99618800D02*
X124109480Y-99618800D01*
X124109480Y-99618800D02*
X123418380Y-100309900D01*
X123418380Y-100309900D02*
X122515000Y-100309900D01*
X150786440Y-75392320D02*
X149230040Y-75392320D01*
D38*
X144100000Y-88110000D02*
X143800000Y-87810000D01*
X144100000Y-90610000D02*
X144100000Y-88110000D01*
X132000000Y-96610000D02*
X132000000Y-99694000D01*
X133946000Y-99694000D02*
X134500000Y-100248000D01*
X132000000Y-99694000D02*
X133946000Y-99694000D01*
X140700000Y-87810000D02*
X132000000Y-96510000D01*
X132000000Y-96510000D02*
X132000000Y-96610000D01*
X143800000Y-87810000D02*
X140700000Y-87810000D01*
X145700000Y-87310000D02*
X145700000Y-86110000D01*
X145700000Y-90610000D02*
X145700000Y-87310000D01*
D39*
X113199500Y-105110500D02*
X113600000Y-104710000D01*
X111085000Y-105110500D02*
X113199500Y-105110500D01*
X127020000Y-100820000D02*
X127020000Y-101420000D01*
D38*
X145700000Y-86110000D02*
X146200000Y-86110000D01*
D39*
X141600000Y-86210000D02*
X143800000Y-86210000D01*
X127020000Y-100820000D02*
X141600000Y-86210000D01*
D38*
X146200000Y-82948640D02*
X149912040Y-79236600D01*
X149912040Y-79236600D02*
X154570400Y-79236600D01*
X154570400Y-79236600D02*
X154921600Y-78885400D01*
X154921600Y-78885400D02*
X154921600Y-76440680D01*
X154921600Y-76440680D02*
X154193240Y-75712320D01*
X154193240Y-75712320D02*
X153126440Y-75712320D01*
X146200000Y-86110000D02*
X146200000Y-82948640D01*
X145300000Y-90610000D02*
X145300000Y-84810000D01*
D39*
X111085000Y-104310400D02*
X112899600Y-104310400D01*
X112899600Y-104310400D02*
X113500000Y-103710000D01*
X125100000Y-101910000D02*
X140600000Y-86410000D01*
X124400000Y-101910000D02*
X125100000Y-101910000D01*
X141800000Y-85210000D02*
X143800000Y-85210000D01*
X140600000Y-86410000D02*
X141800000Y-85210000D01*
D38*
X145300000Y-81892840D02*
X149210520Y-77982320D01*
X149210520Y-77982320D02*
X150526440Y-77982320D01*
X145300000Y-84810000D02*
X145300000Y-81892840D01*
D39*
X95198940Y-110649760D02*
X98732080Y-114182900D01*
X98732080Y-114182900D02*
X106021880Y-114182900D01*
X106021880Y-114182900D02*
X106800000Y-113404780D01*
X106800000Y-113404780D02*
X106800000Y-107110000D01*
X109599600Y-104310400D02*
X111085000Y-104310400D01*
X109599600Y-104310400D02*
X106800000Y-107110000D01*
X95198940Y-110489740D02*
X95198940Y-110649760D01*
D38*
X144500000Y-85410000D02*
X144500000Y-84410000D01*
X144500000Y-90610000D02*
X144500000Y-85410000D01*
D39*
X140800000Y-85410000D02*
X125400000Y-100810000D01*
X111085000Y-103510300D02*
X112699700Y-103510300D01*
X112699700Y-103510300D02*
X113500000Y-102710000D01*
X125100000Y-101110000D02*
X124900000Y-101110000D01*
X125400000Y-100810000D02*
X125100000Y-101110000D01*
X141800000Y-84410000D02*
X144500000Y-84410000D01*
X140800000Y-85410000D02*
X141800000Y-84410000D01*
X105918000Y-104648000D02*
X108204000Y-104648000D01*
X108204000Y-104648000D02*
X109341700Y-103510300D01*
X109341700Y-103510300D02*
X111085000Y-103510300D01*
D38*
X144500000Y-84260020D02*
X144600930Y-84159090D01*
X144600930Y-84159090D02*
X144600930Y-81339690D01*
X144600930Y-81339690D02*
X149266240Y-76674380D01*
X149266240Y-76674380D02*
X151548500Y-76674380D01*
X151548500Y-76674380D02*
X153126440Y-78252320D01*
X144500000Y-84410000D02*
X144500000Y-84260020D01*
D39*
X104475020Y-106090980D02*
X105918000Y-104648000D01*
X104394000Y-106172000D02*
X104475020Y-106090980D01*
X92717360Y-110489740D02*
X94038160Y-109168940D01*
X94038160Y-109168940D02*
X95905060Y-109168940D01*
X95905060Y-109168940D02*
X99923340Y-113187220D01*
X99923340Y-113187220D02*
X104048300Y-113187220D01*
X104048300Y-113187220D02*
X104475020Y-112760500D01*
X104475020Y-112760500D02*
X104475020Y-106090980D01*
X92658940Y-110489740D02*
X92717360Y-110489740D01*
X131111000Y-101726000D02*
X131111000Y-103723518D01*
X131111000Y-103723518D02*
X130992000Y-103842518D01*
D38*
X144900000Y-91710000D02*
X145200000Y-92010000D01*
D39*
X125100000Y-100310000D02*
X140800000Y-84610000D01*
X124400000Y-100310000D02*
X125100000Y-100310000D01*
D38*
X144900000Y-90610000D02*
X144900000Y-91710000D01*
D39*
X140800000Y-84610000D02*
X141800000Y-83610000D01*
X141800000Y-83610000D02*
X143900000Y-83610000D01*
X130000000Y-101710000D02*
X130016000Y-101726000D01*
X130016000Y-101726000D02*
X131111000Y-101726000D01*
X121050200Y-99509800D02*
X121050000Y-99510000D01*
X122515000Y-99509800D02*
X121050200Y-99509800D01*
X122515000Y-103510300D02*
X126199700Y-103510300D01*
X127029700Y-103510300D02*
X126199700Y-103510300D01*
X127070000Y-103470000D02*
X127029700Y-103510300D01*
X109000200Y-99509800D02*
X108200000Y-100310000D01*
X108200000Y-100310000D02*
X106962000Y-100310000D01*
X111085000Y-99509800D02*
X109000200Y-99509800D01*
X106962300Y-98709700D02*
X106962000Y-98710000D01*
X111085000Y-98709700D02*
X106962300Y-98709700D01*
X113599600Y-106109600D02*
X113200000Y-105710000D01*
X113200000Y-105710000D02*
X111000000Y-105710000D01*
X108000000Y-108710000D02*
X107800000Y-108910000D01*
X111000000Y-105710000D02*
X108000000Y-108710000D01*
X107800000Y-112920520D02*
X107800000Y-113010000D01*
X107800000Y-108910000D02*
X107800000Y-112920520D01*
X113599600Y-106825000D02*
X113599600Y-106109600D01*
X109738000Y-108710000D02*
X108000000Y-108710000D01*
X107800000Y-113951640D02*
X106413040Y-115338600D01*
X106413040Y-115338600D02*
X93326960Y-115338600D01*
X93326960Y-115338600D02*
X92658940Y-114670580D01*
X92658940Y-114670580D02*
X92658940Y-113029740D01*
X107800000Y-112920520D02*
X107800000Y-113951640D01*
D40*
X108800000Y-90910180D02*
X108800000Y-92010000D01*
D39*
X132889000Y-102699000D02*
X132900000Y-102710000D01*
X132889000Y-101726000D02*
X132889000Y-102699000D01*
D41*
X91228670Y-96624560D02*
X93958670Y-96624560D01*
X93958670Y-96624560D02*
X94258670Y-96924560D01*
X91228670Y-102074560D02*
X93958670Y-102074560D01*
X93958670Y-102074560D02*
X94258670Y-101774560D01*
D39*
X94053670Y-100649560D02*
X94053670Y-101569560D01*
X94053670Y-101569560D02*
X94258670Y-101774560D01*
D40*
X132850000Y-124270000D02*
X129878000Y-124270000D01*
X129878000Y-124270000D02*
X129820000Y-124328000D01*
X132450000Y-122910000D02*
X132450000Y-124090000D01*
X134670000Y-124060000D02*
X134670000Y-119660000D01*
X134460000Y-124270000D02*
X134670000Y-124060000D01*
X132630000Y-124270000D02*
X132850000Y-124270000D01*
X132850000Y-124270000D02*
X134460000Y-124270000D01*
X132450000Y-124090000D02*
X132630000Y-124270000D01*
D38*
X150300000Y-99210000D02*
X149000000Y-99210000D01*
X146900000Y-102610000D02*
X146900000Y-101310000D01*
X151300000Y-96810000D02*
X151700000Y-97210000D01*
X150300000Y-96810000D02*
X151300000Y-96810000D01*
X149300000Y-94010000D02*
X149000000Y-94310000D01*
X150300000Y-94010000D02*
X149300000Y-94010000D01*
X142500000Y-91510000D02*
X142100000Y-91910000D01*
X142100000Y-91910000D02*
X142100000Y-90610000D01*
X142500000Y-90610000D02*
X142500000Y-91510000D01*
X141700000Y-91510000D02*
X142100000Y-91910000D01*
X141700000Y-90610000D02*
X141700000Y-91510000D01*
D40*
X155762000Y-97410000D02*
X156600000Y-97410000D01*
X156262000Y-94210000D02*
X157100000Y-94210000D01*
X152100000Y-92848000D02*
X152100000Y-92010000D01*
X153500000Y-92848000D02*
X153500000Y-92010000D01*
X157000000Y-99810000D02*
X155762000Y-99810000D01*
X157000000Y-101148000D02*
X157000000Y-99810000D01*
X155762000Y-101048000D02*
X157000000Y-99810000D01*
X155762000Y-101210000D02*
X155762000Y-101048000D01*
X158262000Y-104110000D02*
X159100000Y-104110000D01*
X145000000Y-105872000D02*
X143500000Y-105872000D01*
D38*
X142100000Y-101710000D02*
X141700000Y-101310000D01*
X141700000Y-101310000D02*
X141700000Y-102610000D01*
X142100000Y-102610000D02*
X142100000Y-101710000D01*
X141300000Y-101710000D02*
X141700000Y-101310000D01*
X141300000Y-102610000D02*
X141300000Y-101710000D01*
X143300000Y-101510000D02*
X143100000Y-101310000D01*
X143100000Y-101310000D02*
X141700000Y-101310000D01*
X143300000Y-102610000D02*
X143300000Y-101510000D01*
X142900000Y-91710000D02*
X142700000Y-91910000D01*
X142700000Y-91910000D02*
X142100000Y-91910000D01*
X142900000Y-90610000D02*
X142900000Y-91710000D01*
X143700000Y-91710000D02*
X144000000Y-92010000D01*
X143700000Y-90610000D02*
X143700000Y-91710000D01*
D39*
X159900000Y-96272000D02*
X159800000Y-96172000D01*
X159062000Y-97410000D02*
X159900000Y-97410000D01*
X159900000Y-97410000D02*
X159900000Y-96272000D01*
D38*
X141700000Y-89048000D02*
X141700000Y-90610000D01*
X141838000Y-88910000D02*
X141700000Y-89048000D01*
X142100000Y-89172000D02*
X141838000Y-88910000D01*
X142100000Y-90610000D02*
X142100000Y-89172000D01*
D40*
X106500000Y-91648000D02*
X106500000Y-90810000D01*
X111100000Y-91648000D02*
X111100000Y-90810000D01*
D39*
X113599600Y-96709600D02*
X113600000Y-96710000D01*
X113599600Y-95395000D02*
X113599600Y-96709600D01*
D40*
X112600000Y-91648000D02*
X112600000Y-90810000D01*
X114100000Y-91648000D02*
X114100000Y-90810000D01*
D39*
X120000400Y-96509600D02*
X119600000Y-96910000D01*
X120000400Y-95395000D02*
X120000400Y-96509600D01*
X120800000Y-91648000D02*
X120800000Y-90810000D01*
X115199800Y-108672200D02*
X115162000Y-108710000D01*
X115199800Y-106825000D02*
X115199800Y-108672200D01*
X115199800Y-105610200D02*
X115300000Y-105510000D01*
X115199800Y-106825000D02*
X115199800Y-105610200D01*
X119500000Y-115110000D02*
X118662000Y-115110000D01*
X120338000Y-115110000D02*
X119500000Y-115110000D01*
X123600500Y-105110500D02*
X123800000Y-105310000D01*
X122515000Y-105110500D02*
X123600500Y-105110500D01*
D40*
X149800000Y-89248000D02*
X149800000Y-88410000D01*
X153062000Y-87910000D02*
X153900000Y-87910000D01*
X153062000Y-89310000D02*
X153900000Y-89310000D01*
D39*
X136100000Y-95772000D02*
X136100000Y-96610000D01*
D38*
X149400000Y-95610000D02*
X149000000Y-95210000D01*
X149000000Y-95210000D02*
X150300000Y-95210000D01*
X150300000Y-95610000D02*
X149400000Y-95610000D01*
D37*
X109800100Y-100309900D02*
X109800000Y-100310000D01*
X111085000Y-100309900D02*
X109800100Y-100309900D01*
D40*
X125400000Y-105972000D02*
X125400000Y-106810000D01*
D38*
X139400000Y-93610000D02*
X139700000Y-93310000D01*
X138300000Y-93610000D02*
X139400000Y-93610000D01*
D37*
X155388000Y-107610000D02*
X154550000Y-107610000D01*
X166010000Y-89878000D02*
X166010000Y-89040000D01*
X156262000Y-95610000D02*
X157050000Y-95610000D01*
X158500000Y-101148000D02*
X158500000Y-99810000D01*
X148462000Y-107710000D02*
X147862000Y-107110000D01*
X149150000Y-106872000D02*
X149150000Y-107310000D01*
X149150000Y-107310000D02*
X148750000Y-107710000D01*
X148750000Y-107710000D02*
X148462000Y-107710000D01*
D40*
X143500000Y-105872000D02*
X143500000Y-106710000D01*
X146558000Y-116332000D02*
X146558000Y-114554000D01*
X145034000Y-116332000D02*
X145034000Y-114554000D01*
X143510000Y-116332000D02*
X143510000Y-114554000D01*
X141986000Y-116332000D02*
X141986000Y-114554000D01*
X140462000Y-116332000D02*
X140462000Y-114554000D01*
X138938000Y-116332000D02*
X138938000Y-114554000D01*
X137414000Y-119456000D02*
X137210000Y-119660000D01*
X137414000Y-117856000D02*
X137414000Y-119456000D01*
D39*
X105438000Y-101810000D02*
X104600000Y-101810000D01*
D40*
X104700000Y-94448000D02*
X104700000Y-93610000D01*
D39*
X109400000Y-101110000D02*
X108700000Y-101810000D01*
X108700000Y-101810000D02*
X106962000Y-101810000D01*
X111085000Y-101110000D02*
X109400000Y-101110000D01*
X114399700Y-93471700D02*
X114100000Y-93172000D01*
X114399700Y-95395000D02*
X114399700Y-93471700D01*
X117138000Y-118022000D02*
X116850000Y-118310000D01*
X117138000Y-115110000D02*
X117138000Y-118022000D01*
X117138000Y-111148000D02*
X115999900Y-110009900D01*
X115999900Y-110009900D02*
X115999900Y-106825000D01*
X117138000Y-115110000D02*
X117138000Y-111148000D01*
X123700000Y-118310000D02*
X121862000Y-116472000D01*
X121862000Y-116472000D02*
X121862000Y-115110000D01*
X126350000Y-118310000D02*
X123700000Y-118310000D01*
X116800000Y-109710000D02*
X121862000Y-114772000D01*
X121862000Y-114772000D02*
X121862000Y-115110000D01*
X116800000Y-106825000D02*
X116800000Y-109710000D01*
D38*
X154038000Y-100010000D02*
X154238000Y-99810000D01*
X150300000Y-100010000D02*
X154038000Y-100010000D01*
D40*
X154238000Y-101210000D02*
X154238000Y-102610000D01*
X154238000Y-99810000D02*
X154238000Y-101210000D01*
D39*
X144830000Y-118822000D02*
X144830000Y-119660000D01*
X145034000Y-118618000D02*
X144830000Y-118822000D01*
X145034000Y-117856000D02*
X145034000Y-118618000D01*
X143510000Y-119610000D02*
X143560000Y-119660000D01*
X143510000Y-117856000D02*
X143510000Y-119610000D01*
X146558000Y-118364000D02*
X146100000Y-118822000D01*
X146100000Y-118822000D02*
X146100000Y-119660000D01*
X146558000Y-117856000D02*
X146558000Y-118364000D01*
X142290000Y-118668000D02*
X142290000Y-119660000D01*
X141986000Y-118364000D02*
X142290000Y-118668000D01*
X141986000Y-117856000D02*
X141986000Y-118364000D01*
X141020000Y-118668000D02*
X141020000Y-119660000D01*
X140462000Y-118110000D02*
X141020000Y-118668000D01*
X140462000Y-117856000D02*
X140462000Y-118110000D01*
X139750000Y-118922000D02*
X139750000Y-119660000D01*
X139446000Y-118618000D02*
X139750000Y-118922000D01*
X139192000Y-118618000D02*
X139446000Y-118618000D01*
X138938000Y-118364000D02*
X139192000Y-118618000D01*
X138938000Y-117856000D02*
X138938000Y-118364000D01*
D38*
X153638000Y-98010000D02*
X154238000Y-97410000D01*
X150300000Y-98010000D02*
X153638000Y-98010000D01*
X155138000Y-96510000D02*
X154238000Y-97410000D01*
X157000000Y-96510000D02*
X155138000Y-96510000D01*
X145700000Y-103648000D02*
X145000000Y-104348000D01*
X145700000Y-102610000D02*
X145700000Y-103648000D01*
X152800000Y-97510000D02*
X152900000Y-97410000D01*
X152900000Y-97410000D02*
X154238000Y-97410000D01*
X145700000Y-102610000D02*
X145700000Y-101310000D01*
X157538000Y-97048000D02*
X157000000Y-96510000D01*
X157538000Y-97410000D02*
X157538000Y-97048000D01*
D39*
X157538000Y-96934000D02*
X158300000Y-96172000D01*
X157538000Y-97410000D02*
X157538000Y-96934000D01*
D38*
X146500000Y-104248000D02*
X147862000Y-105610000D01*
X146500000Y-102610000D02*
X146500000Y-104248000D01*
D37*
X148124000Y-105348000D02*
X147862000Y-105610000D01*
X149150000Y-105348000D02*
X148124000Y-105348000D01*
X149638000Y-105348000D02*
X151750000Y-107460000D01*
X151750000Y-107460000D02*
X151750000Y-110310000D01*
X149150000Y-105348000D02*
X149638000Y-105348000D01*
D38*
X146100000Y-105372000D02*
X146338000Y-105610000D01*
X146100000Y-102610000D02*
X146100000Y-105372000D01*
D37*
X143138000Y-110310000D02*
X142250000Y-110310000D01*
X146338000Y-107110000D02*
X143138000Y-110310000D01*
X146338000Y-105610000D02*
X146338000Y-107110000D01*
X104700000Y-96472000D02*
X105438000Y-97210000D01*
X104700000Y-95972000D02*
X104700000Y-96472000D01*
X101313450Y-98069560D02*
X101308690Y-98064800D01*
X102163490Y-97210000D02*
X101308690Y-98064800D01*
X102163490Y-97210000D02*
X105438000Y-97210000D01*
X94183670Y-98069560D02*
X101313450Y-98069560D01*
X165180000Y-92868000D02*
X165180000Y-92448000D01*
X165160000Y-92428000D02*
X166010000Y-91578000D01*
X165180000Y-92448000D02*
X165160000Y-92428000D01*
X166940000Y-93998000D02*
X166940000Y-92658000D01*
X166010000Y-91728000D02*
X166010000Y-91402000D01*
X166010000Y-91728000D02*
X166710000Y-92428000D01*
X166940000Y-92658000D02*
X166710000Y-92428000D01*
X166010000Y-91402000D02*
X166010000Y-91578000D01*
X157124000Y-107822000D02*
X156912000Y-107610000D01*
X158200000Y-107822000D02*
X157124000Y-107822000D01*
X159200000Y-107822000D02*
X159750000Y-107272000D01*
X158200000Y-107822000D02*
X159200000Y-107822000D01*
D39*
X105388000Y-98660000D02*
X105438000Y-98710000D01*
D37*
X105433200Y-98714800D02*
X105438000Y-98710000D01*
X105427560Y-98699560D02*
X105438000Y-98710000D01*
X94003670Y-98699560D02*
X105427560Y-98699560D01*
X94088910Y-99364800D02*
X94093670Y-99369560D01*
X102123560Y-100310000D02*
X101178360Y-99364800D01*
X105438000Y-100310000D02*
X102123560Y-100310000D01*
X101178360Y-99364800D02*
X94088910Y-99364800D01*
D38*
X174000000Y-105610000D02*
X175732960Y-105610000D01*
X175732960Y-105610000D02*
X177650000Y-103692960D01*
X149400000Y-97610000D02*
X148300000Y-98710000D01*
X148300000Y-98710000D02*
X148300000Y-99710000D01*
X148300000Y-99710000D02*
X154200000Y-105610000D01*
X154200000Y-105610000D02*
X160750000Y-105610000D01*
X150300000Y-97610000D02*
X149400000Y-97610000D01*
X159888000Y-105610000D02*
X159750000Y-105748000D01*
X160750000Y-105610000D02*
X159888000Y-105610000D01*
X174034534Y-105610000D02*
X174000000Y-105610000D01*
X174000000Y-105610000D02*
X164495000Y-105610000D01*
X164495000Y-105610000D02*
X160750000Y-105610000D01*
X158850000Y-106510000D02*
X176800000Y-106510000D01*
X178482960Y-102422960D02*
X175110000Y-102422960D01*
X179080000Y-103020000D02*
X178482960Y-102422960D01*
X179080000Y-104230000D02*
X179080000Y-103020000D01*
X176800000Y-106510000D02*
X179080000Y-104230000D01*
X154500000Y-106510000D02*
X158850000Y-106510000D01*
X158850000Y-106510000D02*
X159200000Y-106510000D01*
X159200000Y-106510000D02*
X158412000Y-106510000D01*
X147900000Y-99910000D02*
X154500000Y-106510000D01*
X147900000Y-98510000D02*
X147900000Y-99910000D01*
X149200000Y-97210000D02*
X147900000Y-98510000D01*
X150300000Y-97210000D02*
X149200000Y-97210000D01*
X158412000Y-106510000D02*
X158200000Y-106298000D01*
X166940000Y-95522000D02*
X166940000Y-95760000D01*
X166940000Y-95760000D02*
X166627040Y-96072960D01*
X150300000Y-98810000D02*
X160940000Y-98810000D01*
X163677040Y-96072960D02*
X166627040Y-96072960D01*
X166627040Y-96072960D02*
X177650000Y-96072960D01*
X160940000Y-98810000D02*
X163677040Y-96072960D01*
X177650000Y-96072960D02*
X177650000Y-96720000D01*
X177650000Y-96670000D02*
X177650000Y-96072960D01*
X165160000Y-93952000D02*
X165160000Y-94660000D01*
X165160000Y-94660000D02*
X165302960Y-94802960D01*
X175110000Y-94802960D02*
X165302960Y-94802960D01*
X165302960Y-94802960D02*
X164407040Y-94802960D01*
X160800000Y-98410000D02*
X150300000Y-98410000D01*
X160800000Y-98410000D02*
X163810000Y-95400000D01*
X164407040Y-94802960D02*
X163810000Y-95400000D01*
X184863000Y-88671800D02*
X184863000Y-90405960D01*
X184863000Y-90405960D02*
X187380000Y-92922960D01*
D37*
X184863000Y-88671800D02*
X184843000Y-88691800D01*
D39*
X184860460Y-88674340D02*
X184863000Y-88671800D01*
D38*
X188840460Y-95453034D02*
X175583494Y-108710000D01*
X175583494Y-108710000D02*
X173000000Y-108710000D01*
X155950000Y-108710000D02*
X173000000Y-108710000D01*
X144100000Y-101710000D02*
X145200000Y-100610000D01*
X145200000Y-100610000D02*
X147500000Y-100610000D01*
X147500000Y-100610000D02*
X153550000Y-106660000D01*
X144100000Y-101710000D02*
X144100000Y-102610000D01*
X154050000Y-108710000D02*
X153550000Y-108210000D01*
X153550000Y-108210000D02*
X153550000Y-106660000D01*
X155950000Y-108710000D02*
X154050000Y-108710000D01*
D39*
X186610000Y-90220000D02*
X186563000Y-90173000D01*
X186563000Y-90173000D02*
X186563000Y-88671800D01*
D38*
X188810460Y-105601634D02*
X185202094Y-109210000D01*
X185202094Y-109210000D02*
X175300000Y-109210000D01*
X162500000Y-109210000D02*
X156900000Y-109210000D01*
X155200000Y-111460000D02*
X153950000Y-112710000D01*
X155200000Y-110910000D02*
X155200000Y-111460000D01*
X156900000Y-109210000D02*
X155200000Y-110910000D01*
X142500000Y-105060000D02*
X142500000Y-102610000D01*
X139700000Y-112710000D02*
X153950000Y-112710000D01*
X138900000Y-111910000D02*
X139700000Y-112710000D01*
X138900000Y-108660000D02*
X138900000Y-111910000D01*
X142500000Y-105060000D02*
X138900000Y-108660000D01*
X162500000Y-109210000D02*
X175300000Y-109210000D01*
X188810460Y-105562960D02*
X188810460Y-105601634D01*
D39*
X122515000Y-94857000D02*
X122700000Y-94672000D01*
X122515000Y-97109500D02*
X122515000Y-94857000D01*
D40*
X99646000Y-110060000D02*
X99187000Y-109601000D01*
X99187000Y-109601000D02*
X99187000Y-105537000D01*
X100750000Y-110060000D02*
X99646000Y-110060000D01*
X99187000Y-105537000D02*
X99187000Y-107188000D01*
X155762000Y-104110000D02*
X156738000Y-104110000D01*
D38*
X151200000Y-100410000D02*
X152300000Y-101510000D01*
X152300000Y-101510000D02*
X152300000Y-102710000D01*
X152300000Y-102710000D02*
X153700000Y-104110000D01*
X153700000Y-104110000D02*
X154238000Y-104110000D01*
X150300000Y-100410000D02*
X151200000Y-100410000D01*
D42*
G36*
X112748960Y-95542000D02*
X112697900Y-95542000D01*
X112697900Y-95522000D01*
X112120050Y-95522000D01*
X111961300Y-95680750D01*
X111961300Y-96030691D01*
X111961300Y-96281781D01*
X111847000Y-96258860D01*
X110973000Y-96258860D01*
X110973000Y-93965750D01*
X110973000Y-93299000D01*
X110690980Y-93299000D01*
X110628800Y-93236820D01*
X109879500Y-93236820D01*
X109879500Y-94086450D01*
X110038250Y-94245200D01*
X110278859Y-94245200D01*
X110512248Y-94148527D01*
X110536275Y-94124500D01*
X110654809Y-94124500D01*
X110814250Y-94124500D01*
X110973000Y-93965750D01*
X110973000Y-96258860D01*
X110323000Y-96258860D01*
X110080877Y-96305837D01*
X109868073Y-96445627D01*
X109725623Y-96656660D01*
X109720340Y-96683000D01*
X108753868Y-96683000D01*
X108690434Y-96619566D01*
X108419541Y-96438561D01*
X108100000Y-96375000D01*
X107865920Y-96375000D01*
X107797000Y-96270081D01*
X107797000Y-94257640D01*
X108247550Y-94257640D01*
X108489673Y-94210663D01*
X108702477Y-94070873D01*
X108797585Y-93929974D01*
X108814123Y-93969899D01*
X108992752Y-94148527D01*
X109226141Y-94245200D01*
X109466750Y-94245200D01*
X109625500Y-94086450D01*
X109625500Y-93236820D01*
X109605500Y-93236820D01*
X109605500Y-92982820D01*
X109625500Y-92982820D01*
X109625500Y-92962820D01*
X109879500Y-92962820D01*
X109879500Y-92982820D01*
X109990070Y-92982820D01*
X110052250Y-93045000D01*
X110973000Y-93045000D01*
X110973000Y-93025000D01*
X111227000Y-93025000D01*
X111227000Y-93045000D01*
X111552250Y-93045000D01*
X112147750Y-93045000D01*
X112473000Y-93045000D01*
X112473000Y-93025000D01*
X112727000Y-93025000D01*
X112727000Y-93045000D01*
X112747000Y-93045000D01*
X112747000Y-93299000D01*
X112727000Y-93299000D01*
X112727000Y-93319000D01*
X112473000Y-93319000D01*
X112473000Y-93299000D01*
X112147750Y-93299000D01*
X111552250Y-93299000D01*
X111227000Y-93299000D01*
X111227000Y-93965750D01*
X111385750Y-94124500D01*
X111545191Y-94124500D01*
X111797810Y-94124500D01*
X111850000Y-94102882D01*
X111902190Y-94124500D01*
X112154809Y-94124500D01*
X112206774Y-94124500D01*
X112057973Y-94273301D01*
X111961300Y-94506690D01*
X111961300Y-94759309D01*
X111961300Y-95109250D01*
X112120050Y-95268000D01*
X112697900Y-95268000D01*
X112697900Y-95248000D01*
X112748960Y-95248000D01*
X112748960Y-95542000D01*
X112748960Y-95542000D01*
G37*
X112748960Y-95542000D02*
X112697900Y-95542000D01*
X112697900Y-95522000D01*
X112120050Y-95522000D01*
X111961300Y-95680750D01*
X111961300Y-96030691D01*
X111961300Y-96281781D01*
X111847000Y-96258860D01*
X110973000Y-96258860D01*
X110973000Y-93965750D01*
X110973000Y-93299000D01*
X110690980Y-93299000D01*
X110628800Y-93236820D01*
X109879500Y-93236820D01*
X109879500Y-94086450D01*
X110038250Y-94245200D01*
X110278859Y-94245200D01*
X110512248Y-94148527D01*
X110536275Y-94124500D01*
X110654809Y-94124500D01*
X110814250Y-94124500D01*
X110973000Y-93965750D01*
X110973000Y-96258860D01*
X110323000Y-96258860D01*
X110080877Y-96305837D01*
X109868073Y-96445627D01*
X109725623Y-96656660D01*
X109720340Y-96683000D01*
X108753868Y-96683000D01*
X108690434Y-96619566D01*
X108419541Y-96438561D01*
X108100000Y-96375000D01*
X107865920Y-96375000D01*
X107797000Y-96270081D01*
X107797000Y-94257640D01*
X108247550Y-94257640D01*
X108489673Y-94210663D01*
X108702477Y-94070873D01*
X108797585Y-93929974D01*
X108814123Y-93969899D01*
X108992752Y-94148527D01*
X109226141Y-94245200D01*
X109466750Y-94245200D01*
X109625500Y-94086450D01*
X109625500Y-93236820D01*
X109605500Y-93236820D01*
X109605500Y-92982820D01*
X109625500Y-92982820D01*
X109625500Y-92962820D01*
X109879500Y-92962820D01*
X109879500Y-92982820D01*
X109990070Y-92982820D01*
X110052250Y-93045000D01*
X110973000Y-93045000D01*
X110973000Y-93025000D01*
X111227000Y-93025000D01*
X111227000Y-93045000D01*
X111552250Y-93045000D01*
X112147750Y-93045000D01*
X112473000Y-93045000D01*
X112473000Y-93025000D01*
X112727000Y-93025000D01*
X112727000Y-93045000D01*
X112747000Y-93045000D01*
X112747000Y-93299000D01*
X112727000Y-93299000D01*
X112727000Y-93319000D01*
X112473000Y-93319000D01*
X112473000Y-93299000D01*
X112147750Y-93299000D01*
X111552250Y-93299000D01*
X111227000Y-93299000D01*
X111227000Y-93965750D01*
X111385750Y-94124500D01*
X111545191Y-94124500D01*
X111797810Y-94124500D01*
X111850000Y-94102882D01*
X111902190Y-94124500D01*
X112154809Y-94124500D01*
X112206774Y-94124500D01*
X112057973Y-94273301D01*
X111961300Y-94506690D01*
X111961300Y-94759309D01*
X111961300Y-95109250D01*
X112120050Y-95268000D01*
X112697900Y-95268000D01*
X112697900Y-95248000D01*
X112748960Y-95248000D01*
X112748960Y-95542000D01*
G36*
X136075062Y-119587172D02*
X136074935Y-119732954D01*
X135954142Y-119853747D01*
X135940000Y-119839605D01*
X135925857Y-119853747D01*
X135804937Y-119732827D01*
X135805064Y-119587045D01*
X135925857Y-119466252D01*
X135940000Y-119480395D01*
X135954142Y-119466252D01*
X136075062Y-119587172D01*
X136075062Y-119587172D01*
G37*
X136075062Y-119587172D02*
X136074935Y-119732954D01*
X135954142Y-119853747D01*
X135940000Y-119839605D01*
X135925857Y-119853747D01*
X135804937Y-119732827D01*
X135805064Y-119587045D01*
X135925857Y-119466252D01*
X135940000Y-119480395D01*
X135954142Y-119466252D01*
X136075062Y-119587172D01*
G36*
X136247000Y-94375000D02*
X136227000Y-94375000D01*
X136227000Y-94395000D01*
X135973000Y-94395000D01*
X135973000Y-94375000D01*
X135953000Y-94375000D01*
X135953000Y-94121000D01*
X135973000Y-94121000D01*
X135973000Y-94101000D01*
X136227000Y-94101000D01*
X136227000Y-94121000D01*
X136247000Y-94121000D01*
X136247000Y-94375000D01*
X136247000Y-94375000D01*
G37*
X136247000Y-94375000D02*
X136227000Y-94375000D01*
X136227000Y-94395000D01*
X135973000Y-94395000D01*
X135973000Y-94375000D01*
X135953000Y-94375000D01*
X135953000Y-94121000D01*
X135973000Y-94121000D01*
X135973000Y-94101000D01*
X136227000Y-94101000D01*
X136227000Y-94121000D01*
X136247000Y-94121000D01*
X136247000Y-94375000D01*
G36*
X138615062Y-119587172D02*
X138614935Y-119732954D01*
X138494142Y-119853747D01*
X138480000Y-119839605D01*
X138465857Y-119853747D01*
X138344937Y-119732827D01*
X138345064Y-119587045D01*
X138465857Y-119466252D01*
X138480000Y-119480395D01*
X138494142Y-119466252D01*
X138615062Y-119587172D01*
X138615062Y-119587172D01*
G37*
X138615062Y-119587172D02*
X138614935Y-119732954D01*
X138494142Y-119853747D01*
X138480000Y-119839605D01*
X138465857Y-119853747D01*
X138344937Y-119732827D01*
X138345064Y-119587045D01*
X138465857Y-119466252D01*
X138480000Y-119480395D01*
X138494142Y-119466252D01*
X138615062Y-119587172D01*
G36*
X176359501Y-103157960D02*
X176253243Y-103413860D01*
X176252758Y-103969621D01*
X176276480Y-104027033D01*
X175428513Y-104875000D01*
X174034534Y-104875000D01*
X174000000Y-104875000D01*
X164495000Y-104875000D01*
X160750000Y-104875000D01*
X160633178Y-104875000D01*
X160571140Y-104833123D01*
X160321500Y-104783060D01*
X159819981Y-104783060D01*
X159934555Y-104668686D01*
X160084828Y-104306788D01*
X160085170Y-103914931D01*
X159935529Y-103552771D01*
X159658686Y-103275445D01*
X159643063Y-103268957D01*
X159706500Y-103115809D01*
X159706500Y-102957750D01*
X159547750Y-102799000D01*
X158627000Y-102799000D01*
X158627000Y-102819000D01*
X158373000Y-102819000D01*
X158373000Y-102799000D01*
X158047750Y-102799000D01*
X157452250Y-102799000D01*
X157127000Y-102799000D01*
X157127000Y-102819000D01*
X156873000Y-102819000D01*
X156873000Y-102799000D01*
X156617750Y-102799000D01*
X156555750Y-102737000D01*
X155889000Y-102737000D01*
X155889000Y-102757000D01*
X155635000Y-102757000D01*
X155635000Y-102737000D01*
X155615000Y-102737000D01*
X155615000Y-102483000D01*
X155635000Y-102483000D01*
X155635000Y-102463000D01*
X155870250Y-102463000D01*
X155889000Y-102481750D01*
X155889000Y-102483000D01*
X155890250Y-102483000D01*
X155952250Y-102545000D01*
X156873000Y-102545000D01*
X156873000Y-102525000D01*
X157127000Y-102525000D01*
X157127000Y-102545000D01*
X157452250Y-102545000D01*
X158047750Y-102545000D01*
X158373000Y-102545000D01*
X158373000Y-102525000D01*
X158627000Y-102525000D01*
X158627000Y-102545000D01*
X159547750Y-102545000D01*
X159706500Y-102386250D01*
X159706500Y-102228191D01*
X159609827Y-101994802D01*
X159532379Y-101917354D01*
X159668877Y-101715140D01*
X159718940Y-101465500D01*
X159718940Y-100830500D01*
X159671963Y-100588377D01*
X159532173Y-100375573D01*
X159375585Y-100269874D01*
X159484828Y-100006788D01*
X159485170Y-99614931D01*
X159456275Y-99545000D01*
X160940000Y-99545000D01*
X160940000Y-99544999D01*
X161221272Y-99489051D01*
X161459723Y-99329723D01*
X163132446Y-97657000D01*
X173728202Y-97657000D01*
X173924990Y-98133263D01*
X174317630Y-98526589D01*
X174525512Y-98612909D01*
X174319697Y-98697950D01*
X173926371Y-99090590D01*
X173713243Y-99603860D01*
X173712758Y-100159621D01*
X173924990Y-100673263D01*
X174317630Y-101066589D01*
X174525512Y-101152909D01*
X174319697Y-101237950D01*
X173926371Y-101630590D01*
X173713243Y-102143860D01*
X173712758Y-102699621D01*
X173924990Y-103213263D01*
X174317630Y-103606589D01*
X174830900Y-103819717D01*
X175386661Y-103820202D01*
X175900303Y-103607970D01*
X176293629Y-103215330D01*
X176317451Y-103157960D01*
X176359501Y-103157960D01*
X176359501Y-103157960D01*
G37*
X176359501Y-103157960D02*
X176253243Y-103413860D01*
X176252758Y-103969621D01*
X176276480Y-104027033D01*
X175428513Y-104875000D01*
X174034534Y-104875000D01*
X174000000Y-104875000D01*
X164495000Y-104875000D01*
X160750000Y-104875000D01*
X160633178Y-104875000D01*
X160571140Y-104833123D01*
X160321500Y-104783060D01*
X159819981Y-104783060D01*
X159934555Y-104668686D01*
X160084828Y-104306788D01*
X160085170Y-103914931D01*
X159935529Y-103552771D01*
X159658686Y-103275445D01*
X159643063Y-103268957D01*
X159706500Y-103115809D01*
X159706500Y-102957750D01*
X159547750Y-102799000D01*
X158627000Y-102799000D01*
X158627000Y-102819000D01*
X158373000Y-102819000D01*
X158373000Y-102799000D01*
X158047750Y-102799000D01*
X157452250Y-102799000D01*
X157127000Y-102799000D01*
X157127000Y-102819000D01*
X156873000Y-102819000D01*
X156873000Y-102799000D01*
X156617750Y-102799000D01*
X156555750Y-102737000D01*
X155889000Y-102737000D01*
X155889000Y-102757000D01*
X155635000Y-102757000D01*
X155635000Y-102737000D01*
X155615000Y-102737000D01*
X155615000Y-102483000D01*
X155635000Y-102483000D01*
X155635000Y-102463000D01*
X155870250Y-102463000D01*
X155889000Y-102481750D01*
X155889000Y-102483000D01*
X155890250Y-102483000D01*
X155952250Y-102545000D01*
X156873000Y-102545000D01*
X156873000Y-102525000D01*
X157127000Y-102525000D01*
X157127000Y-102545000D01*
X157452250Y-102545000D01*
X158047750Y-102545000D01*
X158373000Y-102545000D01*
X158373000Y-102525000D01*
X158627000Y-102525000D01*
X158627000Y-102545000D01*
X159547750Y-102545000D01*
X159706500Y-102386250D01*
X159706500Y-102228191D01*
X159609827Y-101994802D01*
X159532379Y-101917354D01*
X159668877Y-101715140D01*
X159718940Y-101465500D01*
X159718940Y-100830500D01*
X159671963Y-100588377D01*
X159532173Y-100375573D01*
X159375585Y-100269874D01*
X159484828Y-100006788D01*
X159485170Y-99614931D01*
X159456275Y-99545000D01*
X160940000Y-99545000D01*
X160940000Y-99544999D01*
X161221272Y-99489051D01*
X161459723Y-99329723D01*
X163132446Y-97657000D01*
X173728202Y-97657000D01*
X173924990Y-98133263D01*
X174317630Y-98526589D01*
X174525512Y-98612909D01*
X174319697Y-98697950D01*
X173926371Y-99090590D01*
X173713243Y-99603860D01*
X173712758Y-100159621D01*
X173924990Y-100673263D01*
X174317630Y-101066589D01*
X174525512Y-101152909D01*
X174319697Y-101237950D01*
X173926371Y-101630590D01*
X173713243Y-102143860D01*
X173712758Y-102699621D01*
X173924990Y-103213263D01*
X174317630Y-103606589D01*
X174830900Y-103819717D01*
X175386661Y-103820202D01*
X175900303Y-103607970D01*
X176293629Y-103215330D01*
X176317451Y-103157960D01*
X176359501Y-103157960D01*
G36*
X189564784Y-94131067D02*
X189196681Y-93978218D01*
X188605911Y-93977703D01*
X188297844Y-94104993D01*
X188638188Y-93765243D01*
X188864742Y-93219641D01*
X188865257Y-92628871D01*
X188639656Y-92082874D01*
X188222283Y-91664772D01*
X188085681Y-91608049D01*
X188085681Y-74728134D01*
X187495471Y-73299717D01*
X186403557Y-72205895D01*
X184976173Y-71613194D01*
X183430624Y-71611845D01*
X182002207Y-72202055D01*
X180908385Y-73293969D01*
X180315684Y-74721353D01*
X180314335Y-76266902D01*
X180904545Y-77695319D01*
X181996459Y-78789141D01*
X183423843Y-79381842D01*
X184969392Y-79383191D01*
X186397809Y-78792981D01*
X187491631Y-77701067D01*
X188084332Y-76273683D01*
X188085681Y-74728134D01*
X188085681Y-91608049D01*
X187676681Y-91438218D01*
X187085911Y-91437703D01*
X186978550Y-91482063D01*
X186701566Y-91205079D01*
X186805069Y-91205170D01*
X187167229Y-91055529D01*
X187444555Y-90778686D01*
X187594828Y-90416788D01*
X187595170Y-90024931D01*
X187445529Y-89662771D01*
X187373293Y-89590409D01*
X187376623Y-89589763D01*
X187589427Y-89449973D01*
X187731877Y-89238940D01*
X187781940Y-88989300D01*
X187781940Y-88354300D01*
X187734963Y-88112177D01*
X187596473Y-87901352D01*
X187672827Y-87824998D01*
X187769500Y-87591609D01*
X187769500Y-87433550D01*
X187769500Y-86862050D01*
X187769500Y-86703991D01*
X187672827Y-86470602D01*
X187494199Y-86291973D01*
X187260810Y-86195300D01*
X187008191Y-86195300D01*
X186848750Y-86195300D01*
X186690000Y-86354050D01*
X186690000Y-87020800D01*
X187610750Y-87020800D01*
X187769500Y-86862050D01*
X187769500Y-87433550D01*
X187610750Y-87274800D01*
X186690000Y-87274800D01*
X186690000Y-87294800D01*
X186436000Y-87294800D01*
X186436000Y-87274800D01*
X186436000Y-87020800D01*
X186436000Y-86354050D01*
X186277250Y-86195300D01*
X186117809Y-86195300D01*
X185865190Y-86195300D01*
X185713000Y-86258339D01*
X185560810Y-86195300D01*
X185308191Y-86195300D01*
X185148750Y-86195300D01*
X184990000Y-86354050D01*
X184990000Y-87020800D01*
X185515250Y-87020800D01*
X185910750Y-87020800D01*
X186436000Y-87020800D01*
X186436000Y-87274800D01*
X185910750Y-87274800D01*
X185515250Y-87274800D01*
X184990000Y-87274800D01*
X184990000Y-87294800D01*
X184736000Y-87294800D01*
X184736000Y-87274800D01*
X184736000Y-87020800D01*
X184736000Y-86354050D01*
X184577250Y-86195300D01*
X184417809Y-86195300D01*
X184165190Y-86195300D01*
X183931801Y-86291973D01*
X183753173Y-86470602D01*
X183656500Y-86703991D01*
X183656500Y-86862050D01*
X183815250Y-87020800D01*
X184736000Y-87020800D01*
X184736000Y-87274800D01*
X183815250Y-87274800D01*
X183656500Y-87433550D01*
X183656500Y-87591609D01*
X183753173Y-87824998D01*
X183830620Y-87902445D01*
X183694123Y-88104660D01*
X183644060Y-88354300D01*
X183644060Y-88989300D01*
X183691037Y-89231423D01*
X183830827Y-89444227D01*
X184041860Y-89586677D01*
X184128000Y-89603951D01*
X184128000Y-90405960D01*
X184183949Y-90687232D01*
X184324941Y-90898242D01*
X183478166Y-90897503D01*
X182835270Y-91163142D01*
X182835326Y-91099655D01*
X182548957Y-90406588D01*
X182019161Y-89875867D01*
X181326595Y-89588288D01*
X180576695Y-89587634D01*
X179883628Y-89874003D01*
X179352907Y-90403799D01*
X179065328Y-91096365D01*
X179064674Y-91846265D01*
X179351043Y-92539332D01*
X179880839Y-93070053D01*
X180573405Y-93357632D01*
X181323305Y-93358286D01*
X181365166Y-93340989D01*
X181364543Y-94054794D01*
X181764853Y-95023618D01*
X182505443Y-95765502D01*
X183473567Y-96167502D01*
X184521834Y-96168417D01*
X185490658Y-95768107D01*
X186232542Y-95027517D01*
X186577180Y-94197534D01*
X187083319Y-94407702D01*
X187674089Y-94408217D01*
X187982155Y-94280926D01*
X187641812Y-94620677D01*
X187415258Y-95166279D01*
X187414743Y-95757049D01*
X187438792Y-95815254D01*
X179815000Y-103439047D01*
X179815000Y-103020000D01*
X179759051Y-102738728D01*
X179599723Y-102500277D01*
X179599723Y-102500276D01*
X179002683Y-101903237D01*
X178891964Y-101829256D01*
X179059144Y-101360658D01*
X179031362Y-100805592D01*
X178872397Y-100421817D01*
X178630213Y-100352352D01*
X177829605Y-101152960D01*
X177843747Y-101167102D01*
X177664142Y-101346707D01*
X177650000Y-101332565D01*
X177635857Y-101346707D01*
X177456252Y-101167102D01*
X177470395Y-101152960D01*
X176669787Y-100352352D01*
X176427603Y-100421817D01*
X176240856Y-100945262D01*
X176268638Y-101500328D01*
X176346357Y-101687960D01*
X176317860Y-101687960D01*
X176295010Y-101632657D01*
X175902370Y-101239331D01*
X175694487Y-101153010D01*
X175900303Y-101067970D01*
X176293629Y-100675330D01*
X176506757Y-100162060D01*
X176507242Y-99606299D01*
X176295010Y-99092657D01*
X175902370Y-98699331D01*
X175694487Y-98613010D01*
X175900303Y-98527970D01*
X176293629Y-98135330D01*
X176492248Y-97657000D01*
X176545800Y-97657000D01*
X176545800Y-96944214D01*
X176857630Y-97256589D01*
X177065512Y-97342909D01*
X176859697Y-97427950D01*
X176466371Y-97820590D01*
X176253243Y-98333860D01*
X176252758Y-98889621D01*
X176464990Y-99403263D01*
X176857630Y-99796589D01*
X177049727Y-99876354D01*
X176918857Y-99930563D01*
X176849392Y-100172747D01*
X177650000Y-100973355D01*
X178450608Y-100172747D01*
X178381143Y-99930563D01*
X178240682Y-99880451D01*
X178440303Y-99797970D01*
X178833629Y-99405330D01*
X179046757Y-98892060D01*
X179047242Y-98336299D01*
X178835010Y-97822657D01*
X178442370Y-97429331D01*
X178234487Y-97343010D01*
X178440303Y-97257970D01*
X178833629Y-96865330D01*
X179046757Y-96352060D01*
X179047242Y-95796299D01*
X178835010Y-95282657D01*
X178442370Y-94889331D01*
X177929100Y-94676203D01*
X177373339Y-94675718D01*
X176859697Y-94887950D01*
X176545800Y-95201299D01*
X176545800Y-93303000D01*
X167844659Y-93303000D01*
X167775000Y-93255978D01*
X167775000Y-92658000D01*
X167711439Y-92338460D01*
X167711439Y-92338459D01*
X167530434Y-92067566D01*
X167300436Y-91837568D01*
X167300434Y-91837566D01*
X167300434Y-91837565D01*
X167221160Y-91758291D01*
X167228940Y-91719500D01*
X167228940Y-91084500D01*
X167181963Y-90842377D01*
X167048194Y-90638739D01*
X167178877Y-90445140D01*
X167228940Y-90195500D01*
X167228940Y-89560500D01*
X167181963Y-89318377D01*
X167042173Y-89105573D01*
X166994970Y-89073710D01*
X166995170Y-88844931D01*
X166845529Y-88482771D01*
X166568686Y-88205445D01*
X166206788Y-88055172D01*
X165814931Y-88054830D01*
X165452771Y-88204471D01*
X165175445Y-88481314D01*
X165025172Y-88843212D01*
X165024971Y-89072632D01*
X164983573Y-89099827D01*
X164841123Y-89310860D01*
X164791060Y-89560500D01*
X164791060Y-90195500D01*
X164838037Y-90437623D01*
X164971805Y-90641260D01*
X164841123Y-90834860D01*
X164791060Y-91084500D01*
X164791060Y-91616072D01*
X164569566Y-91837566D01*
X164513486Y-91921494D01*
X164366377Y-91950037D01*
X164153573Y-92089827D01*
X164011123Y-92300860D01*
X163961060Y-92550500D01*
X163961060Y-93185500D01*
X163983857Y-93303000D01*
X160343000Y-93303000D01*
X160343000Y-93683060D01*
X159228500Y-93683060D01*
X159047050Y-93718265D01*
X158951405Y-93699084D01*
X158855079Y-93554921D01*
X157855079Y-92554921D01*
X157600407Y-92384755D01*
X157306500Y-92326292D01*
X157306500Y-87015809D01*
X157306500Y-86857750D01*
X157147750Y-86699000D01*
X156227000Y-86699000D01*
X156227000Y-87365750D01*
X156385750Y-87524500D01*
X156545191Y-87524500D01*
X156797810Y-87524500D01*
X157031199Y-87427827D01*
X157209827Y-87249198D01*
X157306500Y-87015809D01*
X157306500Y-92326292D01*
X157300000Y-92325000D01*
X155973000Y-92325000D01*
X155973000Y-87365750D01*
X155973000Y-86699000D01*
X155052250Y-86699000D01*
X154893500Y-86857750D01*
X154893500Y-87015809D01*
X154990173Y-87249198D01*
X155168801Y-87427827D01*
X155402190Y-87524500D01*
X155654809Y-87524500D01*
X155814250Y-87524500D01*
X155973000Y-87365750D01*
X155973000Y-92325000D01*
X155838000Y-92325000D01*
X155537594Y-92384755D01*
X155282921Y-92554921D01*
X154885170Y-92952672D01*
X154885170Y-89114931D01*
X154735529Y-88752771D01*
X154593000Y-88609993D01*
X154734555Y-88468686D01*
X154884828Y-88106788D01*
X154885170Y-87714931D01*
X154735529Y-87352771D01*
X154458686Y-87075445D01*
X154096788Y-86925172D01*
X153867367Y-86924971D01*
X153840173Y-86883573D01*
X153629140Y-86741123D01*
X153379500Y-86691060D01*
X152744500Y-86691060D01*
X152502377Y-86738037D01*
X152291552Y-86876526D01*
X152215198Y-86800173D01*
X151981809Y-86703500D01*
X151823750Y-86703500D01*
X151665000Y-86862250D01*
X151665000Y-87783000D01*
X151685000Y-87783000D01*
X151685000Y-88037000D01*
X151665000Y-88037000D01*
X151665000Y-88262250D01*
X151665000Y-88957750D01*
X151665000Y-89183000D01*
X151685000Y-89183000D01*
X151685000Y-89437000D01*
X151665000Y-89437000D01*
X151665000Y-90357750D01*
X151823750Y-90516500D01*
X151981809Y-90516500D01*
X152215198Y-90419827D01*
X152292645Y-90342379D01*
X152494860Y-90478877D01*
X152744500Y-90528940D01*
X153379500Y-90528940D01*
X153621623Y-90481963D01*
X153834427Y-90342173D01*
X153866289Y-90294970D01*
X154095069Y-90295170D01*
X154457229Y-90145529D01*
X154734555Y-89868686D01*
X154884828Y-89506788D01*
X154885170Y-89114931D01*
X154885170Y-92952672D01*
X154846782Y-92991060D01*
X154718940Y-92991060D01*
X154718940Y-92530500D01*
X154671963Y-92288377D01*
X154532173Y-92075573D01*
X154484970Y-92043710D01*
X154485170Y-91814931D01*
X154335529Y-91452771D01*
X154058686Y-91175445D01*
X153696788Y-91025172D01*
X153304931Y-91024830D01*
X152942771Y-91174471D01*
X152799993Y-91316999D01*
X152658686Y-91175445D01*
X152296788Y-91025172D01*
X151904931Y-91024830D01*
X151542771Y-91174471D01*
X151486994Y-91230150D01*
X151486994Y-84110159D01*
X150586440Y-83209605D01*
X150406835Y-83389210D01*
X150406835Y-83030000D01*
X149506281Y-82129446D01*
X149249797Y-82215852D01*
X149039982Y-82789336D01*
X149065601Y-83399460D01*
X149249797Y-83844148D01*
X149506281Y-83930554D01*
X150406835Y-83030000D01*
X150406835Y-83389210D01*
X149685886Y-84110159D01*
X149772292Y-84366643D01*
X150345776Y-84576458D01*
X150955900Y-84550839D01*
X151400588Y-84366643D01*
X151486994Y-84110159D01*
X151486994Y-91230150D01*
X151265445Y-91451314D01*
X151115172Y-91813212D01*
X151114971Y-92042632D01*
X151082334Y-92064071D01*
X151006500Y-92048863D01*
X151006500Y-91215809D01*
X151006500Y-91057750D01*
X150847750Y-90899000D01*
X149927000Y-90899000D01*
X149927000Y-91565750D01*
X150085750Y-91724500D01*
X150245191Y-91724500D01*
X150497810Y-91724500D01*
X150731199Y-91627827D01*
X150909827Y-91449198D01*
X151006500Y-91215809D01*
X151006500Y-92048863D01*
X151000000Y-92047560D01*
X149600000Y-92047560D01*
X149357877Y-92094537D01*
X149145073Y-92234327D01*
X149002623Y-92445360D01*
X148952560Y-92695000D01*
X148952560Y-92925000D01*
X148969324Y-93011404D01*
X148952560Y-93095000D01*
X148952560Y-93324958D01*
X148804931Y-93324830D01*
X148442771Y-93474471D01*
X148165445Y-93751314D01*
X148015172Y-94113212D01*
X148014830Y-94505069D01*
X148120239Y-94760180D01*
X148015172Y-95013212D01*
X148014830Y-95405069D01*
X148164471Y-95767229D01*
X148441314Y-96044555D01*
X148642470Y-96128082D01*
X147495553Y-97275000D01*
X146535000Y-97275000D01*
X146535000Y-94810000D01*
X146479051Y-94528728D01*
X146319724Y-94290277D01*
X145024292Y-92994846D01*
X145395069Y-92995170D01*
X145757229Y-92845529D01*
X146034555Y-92568686D01*
X146184828Y-92206788D01*
X146185045Y-91957440D01*
X146215000Y-91957440D01*
X146301404Y-91940675D01*
X146385000Y-91957440D01*
X146615000Y-91957440D01*
X146701404Y-91940675D01*
X146785000Y-91957440D01*
X147015000Y-91957440D01*
X147101404Y-91940675D01*
X147185000Y-91957440D01*
X147415000Y-91957440D01*
X147501404Y-91940675D01*
X147585000Y-91957440D01*
X147815000Y-91957440D01*
X147901404Y-91940675D01*
X147985000Y-91957440D01*
X148215000Y-91957440D01*
X148457123Y-91910463D01*
X148669927Y-91770673D01*
X148807636Y-91566662D01*
X148868801Y-91627827D01*
X149102190Y-91724500D01*
X149354809Y-91724500D01*
X149514250Y-91724500D01*
X149673000Y-91565750D01*
X149673000Y-90899000D01*
X149653000Y-90899000D01*
X149653000Y-90645000D01*
X149673000Y-90645000D01*
X149673000Y-90625000D01*
X149927000Y-90625000D01*
X149927000Y-90645000D01*
X150847750Y-90645000D01*
X151006500Y-90486250D01*
X151006500Y-90480177D01*
X151094191Y-90516500D01*
X151252250Y-90516500D01*
X151411000Y-90357750D01*
X151411000Y-89437000D01*
X151391000Y-89437000D01*
X151391000Y-89183000D01*
X151411000Y-89183000D01*
X151411000Y-88957750D01*
X151411000Y-88262250D01*
X151411000Y-88037000D01*
X151391000Y-88037000D01*
X151391000Y-87783000D01*
X151411000Y-87783000D01*
X151411000Y-86862250D01*
X151252250Y-86703500D01*
X151094191Y-86703500D01*
X150860802Y-86800173D01*
X150682173Y-86978801D01*
X150585500Y-87212190D01*
X150585500Y-87464809D01*
X150585500Y-87624250D01*
X150744248Y-87782998D01*
X150585500Y-87782998D01*
X150585500Y-87802654D01*
X150358686Y-87575445D01*
X149996788Y-87425172D01*
X149604931Y-87424830D01*
X149242771Y-87574471D01*
X148965445Y-87851314D01*
X148815172Y-88213212D01*
X148814971Y-88442632D01*
X148773573Y-88469827D01*
X148631123Y-88680860D01*
X148581060Y-88930500D01*
X148581060Y-89391208D01*
X148464640Y-89312623D01*
X148215000Y-89262560D01*
X147985000Y-89262560D01*
X147898595Y-89279324D01*
X147815000Y-89262560D01*
X147585000Y-89262560D01*
X147498595Y-89279324D01*
X147415000Y-89262560D01*
X147185000Y-89262560D01*
X147098595Y-89279324D01*
X147015000Y-89262560D01*
X146785000Y-89262560D01*
X146698595Y-89279324D01*
X146615000Y-89262560D01*
X146435000Y-89262560D01*
X146435000Y-87310000D01*
X146435000Y-87078670D01*
X146757229Y-86945529D01*
X147034555Y-86668686D01*
X147184828Y-86306788D01*
X147185170Y-85914931D01*
X147035529Y-85552771D01*
X146935000Y-85452066D01*
X146935000Y-83253086D01*
X149151438Y-81036647D01*
X149284372Y-81358371D01*
X149715797Y-81790551D01*
X149736633Y-81799203D01*
X149685886Y-81949841D01*
X150586440Y-82850395D01*
X150600582Y-82836252D01*
X150780187Y-83015857D01*
X150766045Y-83030000D01*
X151666599Y-83930554D01*
X151816766Y-83879964D01*
X151824372Y-83898371D01*
X152255797Y-84330551D01*
X152819770Y-84564733D01*
X153430431Y-84565265D01*
X153994811Y-84332068D01*
X154426991Y-83900643D01*
X154661173Y-83336670D01*
X154661705Y-82726009D01*
X154582426Y-82534140D01*
X154642022Y-82534140D01*
X155315000Y-83207118D01*
X155315000Y-84124483D01*
X155286377Y-84130037D01*
X155073573Y-84269827D01*
X154931123Y-84480860D01*
X154881060Y-84730500D01*
X154881060Y-85365500D01*
X154928037Y-85607623D01*
X155066526Y-85818447D01*
X154990173Y-85894802D01*
X154893500Y-86128191D01*
X154893500Y-86286250D01*
X155052250Y-86445000D01*
X155973000Y-86445000D01*
X155973000Y-86425000D01*
X156227000Y-86425000D01*
X156227000Y-86445000D01*
X157147750Y-86445000D01*
X157306500Y-86286250D01*
X157306500Y-86128191D01*
X157209827Y-85894802D01*
X157132379Y-85817354D01*
X157268877Y-85615140D01*
X157318940Y-85365500D01*
X157318940Y-84730500D01*
X157271963Y-84488377D01*
X157132173Y-84275573D01*
X156921140Y-84133123D01*
X156885000Y-84125875D01*
X156885000Y-82881960D01*
X156885000Y-74388200D01*
X156825245Y-74087794D01*
X156655079Y-73833121D01*
X155296679Y-72474721D01*
X155042007Y-72304555D01*
X154741600Y-72244800D01*
X149987285Y-72244800D01*
X149987280Y-72244799D01*
X149686874Y-72304555D01*
X149432201Y-72474721D01*
X124782321Y-97124600D01*
X123924440Y-97124600D01*
X123924440Y-96906300D01*
X123877463Y-96664177D01*
X123737673Y-96451373D01*
X123526640Y-96308923D01*
X123300000Y-96263472D01*
X123300000Y-95631410D01*
X123513623Y-95589963D01*
X123726427Y-95450173D01*
X123868877Y-95239140D01*
X123918940Y-94989500D01*
X123918940Y-94354500D01*
X123871963Y-94112377D01*
X123733473Y-93901552D01*
X123809827Y-93825198D01*
X123906500Y-93591809D01*
X123906500Y-93433750D01*
X123906500Y-92862250D01*
X123906500Y-92704191D01*
X123809827Y-92470802D01*
X123631199Y-92292173D01*
X123397810Y-92195500D01*
X123145191Y-92195500D01*
X122985750Y-92195500D01*
X122827000Y-92354250D01*
X122827000Y-93021000D01*
X123747750Y-93021000D01*
X123906500Y-92862250D01*
X123906500Y-93433750D01*
X123747750Y-93275000D01*
X122827000Y-93275000D01*
X122827000Y-93295000D01*
X122573000Y-93295000D01*
X122573000Y-93275000D01*
X122573000Y-93021000D01*
X122573000Y-92354250D01*
X122414250Y-92195500D01*
X122254809Y-92195500D01*
X122002190Y-92195500D01*
X121970154Y-92208769D01*
X122018940Y-91965500D01*
X122018940Y-91330500D01*
X121971963Y-91088377D01*
X121832173Y-90875573D01*
X121784970Y-90843710D01*
X121785170Y-90614931D01*
X121635529Y-90252771D01*
X121358686Y-89975445D01*
X120996788Y-89825172D01*
X120604931Y-89824830D01*
X120242771Y-89974471D01*
X119965445Y-90251314D01*
X119815172Y-90613212D01*
X119814971Y-90842632D01*
X119773573Y-90869827D01*
X119631123Y-91080860D01*
X119581060Y-91330500D01*
X119581060Y-91965500D01*
X119628037Y-92207623D01*
X119766526Y-92418447D01*
X119690173Y-92494802D01*
X119593500Y-92728191D01*
X119593500Y-92886250D01*
X119752250Y-93045000D01*
X120673000Y-93045000D01*
X120673000Y-93025000D01*
X120927000Y-93025000D01*
X120927000Y-93045000D01*
X121847750Y-93045000D01*
X121871750Y-93021000D01*
X122573000Y-93021000D01*
X122573000Y-93275000D01*
X121652250Y-93275000D01*
X121628250Y-93299000D01*
X120927000Y-93299000D01*
X120927000Y-93965750D01*
X121010050Y-94048800D01*
X120902100Y-94156750D01*
X120902100Y-95268000D01*
X120947500Y-95268000D01*
X120947500Y-95522000D01*
X120902100Y-95522000D01*
X120902100Y-96633250D01*
X121060850Y-96792000D01*
X121128481Y-96792000D01*
X121105560Y-96906300D01*
X121105560Y-97312700D01*
X121144384Y-97512802D01*
X121105560Y-97706400D01*
X121105560Y-98112800D01*
X121144384Y-98312902D01*
X121105560Y-98506500D01*
X121105560Y-98525048D01*
X120854931Y-98524830D01*
X120492771Y-98674471D01*
X120215445Y-98951314D01*
X120065172Y-99313212D01*
X120064830Y-99705069D01*
X120214471Y-100067229D01*
X120491314Y-100344555D01*
X120853212Y-100494828D01*
X121105560Y-100495048D01*
X121105560Y-100513100D01*
X121144384Y-100713202D01*
X121105560Y-100906800D01*
X121105560Y-101313200D01*
X121144384Y-101513302D01*
X121105560Y-101706900D01*
X121105560Y-102113300D01*
X121144384Y-102313402D01*
X121105560Y-102507000D01*
X121105560Y-102913400D01*
X121144384Y-103113502D01*
X121105560Y-103307100D01*
X121105560Y-103713500D01*
X121144858Y-103916047D01*
X121118000Y-103980890D01*
X121118000Y-104050050D01*
X121276750Y-104208800D01*
X121352137Y-104208800D01*
X121503360Y-104310877D01*
X121504407Y-104311087D01*
X121350786Y-104412000D01*
X121276750Y-104412000D01*
X121118000Y-104570750D01*
X121118000Y-104639910D01*
X121145748Y-104706900D01*
X121105560Y-104907300D01*
X121105560Y-105313700D01*
X121130246Y-105440937D01*
X121003700Y-105415560D01*
X120597300Y-105415560D01*
X120397197Y-105454384D01*
X120203600Y-105415560D01*
X119985300Y-105415560D01*
X119985300Y-104316404D01*
X119925545Y-104015998D01*
X119925544Y-104015997D01*
X119755379Y-103761325D01*
X119755375Y-103761322D01*
X119630027Y-103635973D01*
X119532179Y-103570593D01*
X119440759Y-103496496D01*
X119254545Y-103398420D01*
X119199529Y-103265271D01*
X118922686Y-102987945D01*
X118560788Y-102837672D01*
X118168931Y-102837330D01*
X117806771Y-102986971D01*
X117529445Y-103263814D01*
X117379172Y-103625712D01*
X117378830Y-104017569D01*
X117528471Y-104379729D01*
X117805314Y-104657055D01*
X118167212Y-104807328D01*
X118415300Y-104807544D01*
X118415300Y-105415560D01*
X118197000Y-105415560D01*
X117996897Y-105454384D01*
X117803300Y-105415560D01*
X117396900Y-105415560D01*
X117196797Y-105454384D01*
X117003200Y-105415560D01*
X116596800Y-105415560D01*
X116396697Y-105454384D01*
X116285067Y-105431997D01*
X116285170Y-105314931D01*
X116135529Y-104952771D01*
X115858686Y-104675445D01*
X115496788Y-104525172D01*
X115104931Y-104524830D01*
X114742771Y-104674471D01*
X114584893Y-104832073D01*
X114585170Y-104514931D01*
X114435529Y-104152771D01*
X114398210Y-104115387D01*
X114484828Y-103906788D01*
X114485170Y-103514931D01*
X114359049Y-103209695D01*
X114484828Y-102906788D01*
X114485170Y-102514931D01*
X114335529Y-102152771D01*
X114058686Y-101875445D01*
X113696788Y-101725172D01*
X113419937Y-101724930D01*
X113444434Y-101700434D01*
X113625439Y-101429541D01*
X113625439Y-101429540D01*
X113689000Y-101110000D01*
X113689000Y-98610000D01*
X113625439Y-98290460D01*
X113625439Y-98290459D01*
X113444434Y-98019566D01*
X112744034Y-97319166D01*
X112494440Y-97152393D01*
X112494440Y-97152392D01*
X112494440Y-96906300D01*
X112472263Y-96792000D01*
X112539150Y-96792000D01*
X112614994Y-96716155D01*
X112614830Y-96905069D01*
X112764471Y-97267229D01*
X113041314Y-97544555D01*
X113403212Y-97694828D01*
X113795069Y-97695170D01*
X114157229Y-97545529D01*
X114434555Y-97268686D01*
X114584828Y-96906788D01*
X114584917Y-96804440D01*
X114602900Y-96804440D01*
X114803002Y-96765615D01*
X114996600Y-96804440D01*
X115403000Y-96804440D01*
X115603102Y-96765615D01*
X115796700Y-96804440D01*
X116203100Y-96804440D01*
X116403202Y-96765615D01*
X116596800Y-96804440D01*
X117003200Y-96804440D01*
X117203302Y-96765615D01*
X117396900Y-96804440D01*
X117803300Y-96804440D01*
X118003402Y-96765615D01*
X118197000Y-96804440D01*
X118603400Y-96804440D01*
X118615094Y-96802171D01*
X118614830Y-97105069D01*
X118764471Y-97467229D01*
X119041314Y-97744555D01*
X119403212Y-97894828D01*
X119795069Y-97895170D01*
X120157229Y-97745529D01*
X120434555Y-97468686D01*
X120584828Y-97106788D01*
X120584903Y-97020642D01*
X120725645Y-96810007D01*
X120725645Y-96810006D01*
X120785400Y-96509600D01*
X120785400Y-96429716D01*
X120800977Y-96406640D01*
X120851040Y-96157000D01*
X120851040Y-94633000D01*
X120804063Y-94390877D01*
X120698900Y-94230786D01*
X120698900Y-94156750D01*
X120590450Y-94048300D01*
X120673000Y-93965750D01*
X120673000Y-93299000D01*
X119752250Y-93299000D01*
X119593500Y-93457750D01*
X119593500Y-93615809D01*
X119690173Y-93849198D01*
X119826534Y-93985560D01*
X119797200Y-93985560D01*
X119597097Y-94024384D01*
X119403500Y-93985560D01*
X118997100Y-93985560D01*
X118796997Y-94024384D01*
X118603400Y-93985560D01*
X118197000Y-93985560D01*
X117996897Y-94024384D01*
X117803300Y-93985560D01*
X117396900Y-93985560D01*
X117196797Y-94024384D01*
X117003200Y-93985560D01*
X116596800Y-93985560D01*
X116396697Y-94024384D01*
X116203100Y-93985560D01*
X115796700Y-93985560D01*
X115596597Y-94024384D01*
X115403000Y-93985560D01*
X115184700Y-93985560D01*
X115184700Y-93863844D01*
X115268877Y-93739140D01*
X115318940Y-93489500D01*
X115318940Y-92854500D01*
X115271963Y-92612377D01*
X115138194Y-92408739D01*
X115268877Y-92215140D01*
X115318940Y-91965500D01*
X115318940Y-91330500D01*
X115271963Y-91088377D01*
X115132173Y-90875573D01*
X115084970Y-90843710D01*
X115085170Y-90614931D01*
X114935529Y-90252771D01*
X114658686Y-89975445D01*
X114296788Y-89825172D01*
X113904931Y-89824830D01*
X113542771Y-89974471D01*
X113349906Y-90166999D01*
X113158686Y-89975445D01*
X112796788Y-89825172D01*
X112404931Y-89824830D01*
X112042771Y-89974471D01*
X111849906Y-90166999D01*
X111658686Y-89975445D01*
X111296788Y-89825172D01*
X110904931Y-89824830D01*
X110542771Y-89974471D01*
X110265445Y-90251314D01*
X110115172Y-90613212D01*
X110114971Y-90842632D01*
X110073573Y-90869827D01*
X109931123Y-91080860D01*
X109881060Y-91330500D01*
X109881060Y-91965500D01*
X109908055Y-92104634D01*
X109879502Y-92133187D01*
X109879502Y-91974440D01*
X109785030Y-91974440D01*
X109785170Y-91814931D01*
X109750166Y-91730214D01*
X109797427Y-91660200D01*
X109847490Y-91410560D01*
X109847490Y-90409800D01*
X109800513Y-90167677D01*
X109660723Y-89954873D01*
X109449690Y-89812423D01*
X109200050Y-89762360D01*
X108399950Y-89762360D01*
X108157827Y-89809337D01*
X107945023Y-89949127D01*
X107802573Y-90160160D01*
X107752510Y-90409800D01*
X107752510Y-91410560D01*
X107799487Y-91652683D01*
X107849938Y-91729485D01*
X107815172Y-91813212D01*
X107815042Y-91962000D01*
X107718940Y-91962000D01*
X107718940Y-91330500D01*
X107671963Y-91088377D01*
X107532173Y-90875573D01*
X107484970Y-90843710D01*
X107485170Y-90614931D01*
X107335529Y-90252771D01*
X107058686Y-89975445D01*
X106696788Y-89825172D01*
X106304931Y-89824830D01*
X105942771Y-89974471D01*
X105665445Y-90251314D01*
X105515172Y-90613212D01*
X105514971Y-90842632D01*
X105473573Y-90869827D01*
X105331123Y-91080860D01*
X105281060Y-91330500D01*
X105281060Y-91965500D01*
X105328037Y-92207623D01*
X105461805Y-92411260D01*
X105331123Y-92604860D01*
X105290518Y-92807333D01*
X105258686Y-92775445D01*
X104896788Y-92625172D01*
X104504931Y-92624830D01*
X104142771Y-92774471D01*
X103865445Y-93051314D01*
X103715172Y-93413212D01*
X103714971Y-93642632D01*
X103673573Y-93669827D01*
X103531123Y-93880860D01*
X103481060Y-94130500D01*
X103481060Y-94765500D01*
X103528037Y-95007623D01*
X103661805Y-95211260D01*
X103531123Y-95404860D01*
X103481060Y-95654500D01*
X103481060Y-96289500D01*
X103497648Y-96375000D01*
X102635197Y-96375000D01*
X102635197Y-75272743D01*
X102462767Y-74855432D01*
X102143765Y-74535873D01*
X101726756Y-74362715D01*
X101275225Y-74362321D01*
X100857914Y-74534751D01*
X100538355Y-74853753D01*
X100365197Y-75270762D01*
X100364803Y-75722293D01*
X100537233Y-76139604D01*
X100856235Y-76459163D01*
X101273244Y-76632321D01*
X101724775Y-76632715D01*
X102142086Y-76460285D01*
X102461645Y-76141283D01*
X102634803Y-75724274D01*
X102635197Y-75272743D01*
X102635197Y-96375000D01*
X102196059Y-96375000D01*
X102260543Y-96278494D01*
X102385000Y-95652807D01*
X102385000Y-94467193D01*
X102260543Y-93841506D01*
X101906120Y-93311073D01*
X101375687Y-92956650D01*
X100750000Y-92832193D01*
X100124313Y-92956650D01*
X99593880Y-93311073D01*
X99239457Y-93841506D01*
X99185681Y-94111855D01*
X99185681Y-74728134D01*
X98595471Y-73299717D01*
X97503557Y-72205895D01*
X96076173Y-71613194D01*
X94530624Y-71611845D01*
X93102207Y-72202055D01*
X92008385Y-73293969D01*
X91415684Y-74721353D01*
X91414335Y-76266902D01*
X92004545Y-77695319D01*
X93096459Y-78789141D01*
X94523843Y-79381842D01*
X96069392Y-79383191D01*
X97497809Y-78792981D01*
X98591631Y-77701067D01*
X99184332Y-76273683D01*
X99185681Y-74728134D01*
X99185681Y-94111855D01*
X99115000Y-94467193D01*
X99115000Y-95652807D01*
X99239457Y-96278494D01*
X99593880Y-96808927D01*
X100085158Y-97137188D01*
X99354869Y-97234560D01*
X95636110Y-97234560D01*
X95636110Y-95449560D01*
X95589133Y-95207437D01*
X95449343Y-94994633D01*
X95238310Y-94852183D01*
X94988670Y-94802120D01*
X93528670Y-94802120D01*
X93286547Y-94849097D01*
X93073743Y-94988887D01*
X92931293Y-95199920D01*
X92905784Y-95327120D01*
X90128670Y-95327120D01*
X89934784Y-95364737D01*
X89934784Y-75563341D01*
X90279328Y-73831194D01*
X91222293Y-72419947D01*
X92633542Y-71476980D01*
X94365689Y-71132436D01*
X116566350Y-71132436D01*
X116573098Y-85904013D01*
X134419080Y-85893707D01*
X134419080Y-71132436D01*
X185133878Y-71132436D01*
X186866025Y-71476980D01*
X188277272Y-72419945D01*
X189220239Y-73831194D01*
X189564784Y-75563341D01*
X189564784Y-94131067D01*
X189564784Y-94131067D01*
G37*
X189564784Y-94131067D02*
X189196681Y-93978218D01*
X188605911Y-93977703D01*
X188297844Y-94104993D01*
X188638188Y-93765243D01*
X188864742Y-93219641D01*
X188865257Y-92628871D01*
X188639656Y-92082874D01*
X188222283Y-91664772D01*
X188085681Y-91608049D01*
X188085681Y-74728134D01*
X187495471Y-73299717D01*
X186403557Y-72205895D01*
X184976173Y-71613194D01*
X183430624Y-71611845D01*
X182002207Y-72202055D01*
X180908385Y-73293969D01*
X180315684Y-74721353D01*
X180314335Y-76266902D01*
X180904545Y-77695319D01*
X181996459Y-78789141D01*
X183423843Y-79381842D01*
X184969392Y-79383191D01*
X186397809Y-78792981D01*
X187491631Y-77701067D01*
X188084332Y-76273683D01*
X188085681Y-74728134D01*
X188085681Y-91608049D01*
X187676681Y-91438218D01*
X187085911Y-91437703D01*
X186978550Y-91482063D01*
X186701566Y-91205079D01*
X186805069Y-91205170D01*
X187167229Y-91055529D01*
X187444555Y-90778686D01*
X187594828Y-90416788D01*
X187595170Y-90024931D01*
X187445529Y-89662771D01*
X187373293Y-89590409D01*
X187376623Y-89589763D01*
X187589427Y-89449973D01*
X187731877Y-89238940D01*
X187781940Y-88989300D01*
X187781940Y-88354300D01*
X187734963Y-88112177D01*
X187596473Y-87901352D01*
X187672827Y-87824998D01*
X187769500Y-87591609D01*
X187769500Y-87433550D01*
X187769500Y-86862050D01*
X187769500Y-86703991D01*
X187672827Y-86470602D01*
X187494199Y-86291973D01*
X187260810Y-86195300D01*
X187008191Y-86195300D01*
X186848750Y-86195300D01*
X186690000Y-86354050D01*
X186690000Y-87020800D01*
X187610750Y-87020800D01*
X187769500Y-86862050D01*
X187769500Y-87433550D01*
X187610750Y-87274800D01*
X186690000Y-87274800D01*
X186690000Y-87294800D01*
X186436000Y-87294800D01*
X186436000Y-87274800D01*
X186436000Y-87020800D01*
X186436000Y-86354050D01*
X186277250Y-86195300D01*
X186117809Y-86195300D01*
X185865190Y-86195300D01*
X185713000Y-86258339D01*
X185560810Y-86195300D01*
X185308191Y-86195300D01*
X185148750Y-86195300D01*
X184990000Y-86354050D01*
X184990000Y-87020800D01*
X185515250Y-87020800D01*
X185910750Y-87020800D01*
X186436000Y-87020800D01*
X186436000Y-87274800D01*
X185910750Y-87274800D01*
X185515250Y-87274800D01*
X184990000Y-87274800D01*
X184990000Y-87294800D01*
X184736000Y-87294800D01*
X184736000Y-87274800D01*
X184736000Y-87020800D01*
X184736000Y-86354050D01*
X184577250Y-86195300D01*
X184417809Y-86195300D01*
X184165190Y-86195300D01*
X183931801Y-86291973D01*
X183753173Y-86470602D01*
X183656500Y-86703991D01*
X183656500Y-86862050D01*
X183815250Y-87020800D01*
X184736000Y-87020800D01*
X184736000Y-87274800D01*
X183815250Y-87274800D01*
X183656500Y-87433550D01*
X183656500Y-87591609D01*
X183753173Y-87824998D01*
X183830620Y-87902445D01*
X183694123Y-88104660D01*
X183644060Y-88354300D01*
X183644060Y-88989300D01*
X183691037Y-89231423D01*
X183830827Y-89444227D01*
X184041860Y-89586677D01*
X184128000Y-89603951D01*
X184128000Y-90405960D01*
X184183949Y-90687232D01*
X184324941Y-90898242D01*
X183478166Y-90897503D01*
X182835270Y-91163142D01*
X182835326Y-91099655D01*
X182548957Y-90406588D01*
X182019161Y-89875867D01*
X181326595Y-89588288D01*
X180576695Y-89587634D01*
X179883628Y-89874003D01*
X179352907Y-90403799D01*
X179065328Y-91096365D01*
X179064674Y-91846265D01*
X179351043Y-92539332D01*
X179880839Y-93070053D01*
X180573405Y-93357632D01*
X181323305Y-93358286D01*
X181365166Y-93340989D01*
X181364543Y-94054794D01*
X181764853Y-95023618D01*
X182505443Y-95765502D01*
X183473567Y-96167502D01*
X184521834Y-96168417D01*
X185490658Y-95768107D01*
X186232542Y-95027517D01*
X186577180Y-94197534D01*
X187083319Y-94407702D01*
X187674089Y-94408217D01*
X187982155Y-94280926D01*
X187641812Y-94620677D01*
X187415258Y-95166279D01*
X187414743Y-95757049D01*
X187438792Y-95815254D01*
X179815000Y-103439047D01*
X179815000Y-103020000D01*
X179759051Y-102738728D01*
X179599723Y-102500277D01*
X179599723Y-102500276D01*
X179002683Y-101903237D01*
X178891964Y-101829256D01*
X179059144Y-101360658D01*
X179031362Y-100805592D01*
X178872397Y-100421817D01*
X178630213Y-100352352D01*
X177829605Y-101152960D01*
X177843747Y-101167102D01*
X177664142Y-101346707D01*
X177650000Y-101332565D01*
X177635857Y-101346707D01*
X177456252Y-101167102D01*
X177470395Y-101152960D01*
X176669787Y-100352352D01*
X176427603Y-100421817D01*
X176240856Y-100945262D01*
X176268638Y-101500328D01*
X176346357Y-101687960D01*
X176317860Y-101687960D01*
X176295010Y-101632657D01*
X175902370Y-101239331D01*
X175694487Y-101153010D01*
X175900303Y-101067970D01*
X176293629Y-100675330D01*
X176506757Y-100162060D01*
X176507242Y-99606299D01*
X176295010Y-99092657D01*
X175902370Y-98699331D01*
X175694487Y-98613010D01*
X175900303Y-98527970D01*
X176293629Y-98135330D01*
X176492248Y-97657000D01*
X176545800Y-97657000D01*
X176545800Y-96944214D01*
X176857630Y-97256589D01*
X177065512Y-97342909D01*
X176859697Y-97427950D01*
X176466371Y-97820590D01*
X176253243Y-98333860D01*
X176252758Y-98889621D01*
X176464990Y-99403263D01*
X176857630Y-99796589D01*
X177049727Y-99876354D01*
X176918857Y-99930563D01*
X176849392Y-100172747D01*
X177650000Y-100973355D01*
X178450608Y-100172747D01*
X178381143Y-99930563D01*
X178240682Y-99880451D01*
X178440303Y-99797970D01*
X178833629Y-99405330D01*
X179046757Y-98892060D01*
X179047242Y-98336299D01*
X178835010Y-97822657D01*
X178442370Y-97429331D01*
X178234487Y-97343010D01*
X178440303Y-97257970D01*
X178833629Y-96865330D01*
X179046757Y-96352060D01*
X179047242Y-95796299D01*
X178835010Y-95282657D01*
X178442370Y-94889331D01*
X177929100Y-94676203D01*
X177373339Y-94675718D01*
X176859697Y-94887950D01*
X176545800Y-95201299D01*
X176545800Y-93303000D01*
X167844659Y-93303000D01*
X167775000Y-93255978D01*
X167775000Y-92658000D01*
X167711439Y-92338460D01*
X167711439Y-92338459D01*
X167530434Y-92067566D01*
X167300436Y-91837568D01*
X167300434Y-91837566D01*
X167300434Y-91837565D01*
X167221160Y-91758291D01*
X167228940Y-91719500D01*
X167228940Y-91084500D01*
X167181963Y-90842377D01*
X167048194Y-90638739D01*
X167178877Y-90445140D01*
X167228940Y-90195500D01*
X167228940Y-89560500D01*
X167181963Y-89318377D01*
X167042173Y-89105573D01*
X166994970Y-89073710D01*
X166995170Y-88844931D01*
X166845529Y-88482771D01*
X166568686Y-88205445D01*
X166206788Y-88055172D01*
X165814931Y-88054830D01*
X165452771Y-88204471D01*
X165175445Y-88481314D01*
X165025172Y-88843212D01*
X165024971Y-89072632D01*
X164983573Y-89099827D01*
X164841123Y-89310860D01*
X164791060Y-89560500D01*
X164791060Y-90195500D01*
X164838037Y-90437623D01*
X164971805Y-90641260D01*
X164841123Y-90834860D01*
X164791060Y-91084500D01*
X164791060Y-91616072D01*
X164569566Y-91837566D01*
X164513486Y-91921494D01*
X164366377Y-91950037D01*
X164153573Y-92089827D01*
X164011123Y-92300860D01*
X163961060Y-92550500D01*
X163961060Y-93185500D01*
X163983857Y-93303000D01*
X160343000Y-93303000D01*
X160343000Y-93683060D01*
X159228500Y-93683060D01*
X159047050Y-93718265D01*
X158951405Y-93699084D01*
X158855079Y-93554921D01*
X157855079Y-92554921D01*
X157600407Y-92384755D01*
X157306500Y-92326292D01*
X157306500Y-87015809D01*
X157306500Y-86857750D01*
X157147750Y-86699000D01*
X156227000Y-86699000D01*
X156227000Y-87365750D01*
X156385750Y-87524500D01*
X156545191Y-87524500D01*
X156797810Y-87524500D01*
X157031199Y-87427827D01*
X157209827Y-87249198D01*
X157306500Y-87015809D01*
X157306500Y-92326292D01*
X157300000Y-92325000D01*
X155973000Y-92325000D01*
X155973000Y-87365750D01*
X155973000Y-86699000D01*
X155052250Y-86699000D01*
X154893500Y-86857750D01*
X154893500Y-87015809D01*
X154990173Y-87249198D01*
X155168801Y-87427827D01*
X155402190Y-87524500D01*
X155654809Y-87524500D01*
X155814250Y-87524500D01*
X155973000Y-87365750D01*
X155973000Y-92325000D01*
X155838000Y-92325000D01*
X155537594Y-92384755D01*
X155282921Y-92554921D01*
X154885170Y-92952672D01*
X154885170Y-89114931D01*
X154735529Y-88752771D01*
X154593000Y-88609993D01*
X154734555Y-88468686D01*
X154884828Y-88106788D01*
X154885170Y-87714931D01*
X154735529Y-87352771D01*
X154458686Y-87075445D01*
X154096788Y-86925172D01*
X153867367Y-86924971D01*
X153840173Y-86883573D01*
X153629140Y-86741123D01*
X153379500Y-86691060D01*
X152744500Y-86691060D01*
X152502377Y-86738037D01*
X152291552Y-86876526D01*
X152215198Y-86800173D01*
X151981809Y-86703500D01*
X151823750Y-86703500D01*
X151665000Y-86862250D01*
X151665000Y-87783000D01*
X151685000Y-87783000D01*
X151685000Y-88037000D01*
X151665000Y-88037000D01*
X151665000Y-88262250D01*
X151665000Y-88957750D01*
X151665000Y-89183000D01*
X151685000Y-89183000D01*
X151685000Y-89437000D01*
X151665000Y-89437000D01*
X151665000Y-90357750D01*
X151823750Y-90516500D01*
X151981809Y-90516500D01*
X152215198Y-90419827D01*
X152292645Y-90342379D01*
X152494860Y-90478877D01*
X152744500Y-90528940D01*
X153379500Y-90528940D01*
X153621623Y-90481963D01*
X153834427Y-90342173D01*
X153866289Y-90294970D01*
X154095069Y-90295170D01*
X154457229Y-90145529D01*
X154734555Y-89868686D01*
X154884828Y-89506788D01*
X154885170Y-89114931D01*
X154885170Y-92952672D01*
X154846782Y-92991060D01*
X154718940Y-92991060D01*
X154718940Y-92530500D01*
X154671963Y-92288377D01*
X154532173Y-92075573D01*
X154484970Y-92043710D01*
X154485170Y-91814931D01*
X154335529Y-91452771D01*
X154058686Y-91175445D01*
X153696788Y-91025172D01*
X153304931Y-91024830D01*
X152942771Y-91174471D01*
X152799993Y-91316999D01*
X152658686Y-91175445D01*
X152296788Y-91025172D01*
X151904931Y-91024830D01*
X151542771Y-91174471D01*
X151486994Y-91230150D01*
X151486994Y-84110159D01*
X150586440Y-83209605D01*
X150406835Y-83389210D01*
X150406835Y-83030000D01*
X149506281Y-82129446D01*
X149249797Y-82215852D01*
X149039982Y-82789336D01*
X149065601Y-83399460D01*
X149249797Y-83844148D01*
X149506281Y-83930554D01*
X150406835Y-83030000D01*
X150406835Y-83389210D01*
X149685886Y-84110159D01*
X149772292Y-84366643D01*
X150345776Y-84576458D01*
X150955900Y-84550839D01*
X151400588Y-84366643D01*
X151486994Y-84110159D01*
X151486994Y-91230150D01*
X151265445Y-91451314D01*
X151115172Y-91813212D01*
X151114971Y-92042632D01*
X151082334Y-92064071D01*
X151006500Y-92048863D01*
X151006500Y-91215809D01*
X151006500Y-91057750D01*
X150847750Y-90899000D01*
X149927000Y-90899000D01*
X149927000Y-91565750D01*
X150085750Y-91724500D01*
X150245191Y-91724500D01*
X150497810Y-91724500D01*
X150731199Y-91627827D01*
X150909827Y-91449198D01*
X151006500Y-91215809D01*
X151006500Y-92048863D01*
X151000000Y-92047560D01*
X149600000Y-92047560D01*
X149357877Y-92094537D01*
X149145073Y-92234327D01*
X149002623Y-92445360D01*
X148952560Y-92695000D01*
X148952560Y-92925000D01*
X148969324Y-93011404D01*
X148952560Y-93095000D01*
X148952560Y-93324958D01*
X148804931Y-93324830D01*
X148442771Y-93474471D01*
X148165445Y-93751314D01*
X148015172Y-94113212D01*
X148014830Y-94505069D01*
X148120239Y-94760180D01*
X148015172Y-95013212D01*
X148014830Y-95405069D01*
X148164471Y-95767229D01*
X148441314Y-96044555D01*
X148642470Y-96128082D01*
X147495553Y-97275000D01*
X146535000Y-97275000D01*
X146535000Y-94810000D01*
X146479051Y-94528728D01*
X146319724Y-94290277D01*
X145024292Y-92994846D01*
X145395069Y-92995170D01*
X145757229Y-92845529D01*
X146034555Y-92568686D01*
X146184828Y-92206788D01*
X146185045Y-91957440D01*
X146215000Y-91957440D01*
X146301404Y-91940675D01*
X146385000Y-91957440D01*
X146615000Y-91957440D01*
X146701404Y-91940675D01*
X146785000Y-91957440D01*
X147015000Y-91957440D01*
X147101404Y-91940675D01*
X147185000Y-91957440D01*
X147415000Y-91957440D01*
X147501404Y-91940675D01*
X147585000Y-91957440D01*
X147815000Y-91957440D01*
X147901404Y-91940675D01*
X147985000Y-91957440D01*
X148215000Y-91957440D01*
X148457123Y-91910463D01*
X148669927Y-91770673D01*
X148807636Y-91566662D01*
X148868801Y-91627827D01*
X149102190Y-91724500D01*
X149354809Y-91724500D01*
X149514250Y-91724500D01*
X149673000Y-91565750D01*
X149673000Y-90899000D01*
X149653000Y-90899000D01*
X149653000Y-90645000D01*
X149673000Y-90645000D01*
X149673000Y-90625000D01*
X149927000Y-90625000D01*
X149927000Y-90645000D01*
X150847750Y-90645000D01*
X151006500Y-90486250D01*
X151006500Y-90480177D01*
X151094191Y-90516500D01*
X151252250Y-90516500D01*
X151411000Y-90357750D01*
X151411000Y-89437000D01*
X151391000Y-89437000D01*
X151391000Y-89183000D01*
X151411000Y-89183000D01*
X151411000Y-88957750D01*
X151411000Y-88262250D01*
X151411000Y-88037000D01*
X151391000Y-88037000D01*
X151391000Y-87783000D01*
X151411000Y-87783000D01*
X151411000Y-86862250D01*
X151252250Y-86703500D01*
X151094191Y-86703500D01*
X150860802Y-86800173D01*
X150682173Y-86978801D01*
X150585500Y-87212190D01*
X150585500Y-87464809D01*
X150585500Y-87624250D01*
X150744248Y-87782998D01*
X150585500Y-87782998D01*
X150585500Y-87802654D01*
X150358686Y-87575445D01*
X149996788Y-87425172D01*
X149604931Y-87424830D01*
X149242771Y-87574471D01*
X148965445Y-87851314D01*
X148815172Y-88213212D01*
X148814971Y-88442632D01*
X148773573Y-88469827D01*
X148631123Y-88680860D01*
X148581060Y-88930500D01*
X148581060Y-89391208D01*
X148464640Y-89312623D01*
X148215000Y-89262560D01*
X147985000Y-89262560D01*
X147898595Y-89279324D01*
X147815000Y-89262560D01*
X147585000Y-89262560D01*
X147498595Y-89279324D01*
X147415000Y-89262560D01*
X147185000Y-89262560D01*
X147098595Y-89279324D01*
X147015000Y-89262560D01*
X146785000Y-89262560D01*
X146698595Y-89279324D01*
X146615000Y-89262560D01*
X146435000Y-89262560D01*
X146435000Y-87310000D01*
X146435000Y-87078670D01*
X146757229Y-86945529D01*
X147034555Y-86668686D01*
X147184828Y-86306788D01*
X147185170Y-85914931D01*
X147035529Y-85552771D01*
X146935000Y-85452066D01*
X146935000Y-83253086D01*
X149151438Y-81036647D01*
X149284372Y-81358371D01*
X149715797Y-81790551D01*
X149736633Y-81799203D01*
X149685886Y-81949841D01*
X150586440Y-82850395D01*
X150600582Y-82836252D01*
X150780187Y-83015857D01*
X150766045Y-83030000D01*
X151666599Y-83930554D01*
X151816766Y-83879964D01*
X151824372Y-83898371D01*
X152255797Y-84330551D01*
X152819770Y-84564733D01*
X153430431Y-84565265D01*
X153994811Y-84332068D01*
X154426991Y-83900643D01*
X154661173Y-83336670D01*
X154661705Y-82726009D01*
X154582426Y-82534140D01*
X154642022Y-82534140D01*
X155315000Y-83207118D01*
X155315000Y-84124483D01*
X155286377Y-84130037D01*
X155073573Y-84269827D01*
X154931123Y-84480860D01*
X154881060Y-84730500D01*
X154881060Y-85365500D01*
X154928037Y-85607623D01*
X155066526Y-85818447D01*
X154990173Y-85894802D01*
X154893500Y-86128191D01*
X154893500Y-86286250D01*
X155052250Y-86445000D01*
X155973000Y-86445000D01*
X155973000Y-86425000D01*
X156227000Y-86425000D01*
X156227000Y-86445000D01*
X157147750Y-86445000D01*
X157306500Y-86286250D01*
X157306500Y-86128191D01*
X157209827Y-85894802D01*
X157132379Y-85817354D01*
X157268877Y-85615140D01*
X157318940Y-85365500D01*
X157318940Y-84730500D01*
X157271963Y-84488377D01*
X157132173Y-84275573D01*
X156921140Y-84133123D01*
X156885000Y-84125875D01*
X156885000Y-82881960D01*
X156885000Y-74388200D01*
X156825245Y-74087794D01*
X156655079Y-73833121D01*
X155296679Y-72474721D01*
X155042007Y-72304555D01*
X154741600Y-72244800D01*
X149987285Y-72244800D01*
X149987280Y-72244799D01*
X149686874Y-72304555D01*
X149432201Y-72474721D01*
X124782321Y-97124600D01*
X123924440Y-97124600D01*
X123924440Y-96906300D01*
X123877463Y-96664177D01*
X123737673Y-96451373D01*
X123526640Y-96308923D01*
X123300000Y-96263472D01*
X123300000Y-95631410D01*
X123513623Y-95589963D01*
X123726427Y-95450173D01*
X123868877Y-95239140D01*
X123918940Y-94989500D01*
X123918940Y-94354500D01*
X123871963Y-94112377D01*
X123733473Y-93901552D01*
X123809827Y-93825198D01*
X123906500Y-93591809D01*
X123906500Y-93433750D01*
X123906500Y-92862250D01*
X123906500Y-92704191D01*
X123809827Y-92470802D01*
X123631199Y-92292173D01*
X123397810Y-92195500D01*
X123145191Y-92195500D01*
X122985750Y-92195500D01*
X122827000Y-92354250D01*
X122827000Y-93021000D01*
X123747750Y-93021000D01*
X123906500Y-92862250D01*
X123906500Y-93433750D01*
X123747750Y-93275000D01*
X122827000Y-93275000D01*
X122827000Y-93295000D01*
X122573000Y-93295000D01*
X122573000Y-93275000D01*
X122573000Y-93021000D01*
X122573000Y-92354250D01*
X122414250Y-92195500D01*
X122254809Y-92195500D01*
X122002190Y-92195500D01*
X121970154Y-92208769D01*
X122018940Y-91965500D01*
X122018940Y-91330500D01*
X121971963Y-91088377D01*
X121832173Y-90875573D01*
X121784970Y-90843710D01*
X121785170Y-90614931D01*
X121635529Y-90252771D01*
X121358686Y-89975445D01*
X120996788Y-89825172D01*
X120604931Y-89824830D01*
X120242771Y-89974471D01*
X119965445Y-90251314D01*
X119815172Y-90613212D01*
X119814971Y-90842632D01*
X119773573Y-90869827D01*
X119631123Y-91080860D01*
X119581060Y-91330500D01*
X119581060Y-91965500D01*
X119628037Y-92207623D01*
X119766526Y-92418447D01*
X119690173Y-92494802D01*
X119593500Y-92728191D01*
X119593500Y-92886250D01*
X119752250Y-93045000D01*
X120673000Y-93045000D01*
X120673000Y-93025000D01*
X120927000Y-93025000D01*
X120927000Y-93045000D01*
X121847750Y-93045000D01*
X121871750Y-93021000D01*
X122573000Y-93021000D01*
X122573000Y-93275000D01*
X121652250Y-93275000D01*
X121628250Y-93299000D01*
X120927000Y-93299000D01*
X120927000Y-93965750D01*
X121010050Y-94048800D01*
X120902100Y-94156750D01*
X120902100Y-95268000D01*
X120947500Y-95268000D01*
X120947500Y-95522000D01*
X120902100Y-95522000D01*
X120902100Y-96633250D01*
X121060850Y-96792000D01*
X121128481Y-96792000D01*
X121105560Y-96906300D01*
X121105560Y-97312700D01*
X121144384Y-97512802D01*
X121105560Y-97706400D01*
X121105560Y-98112800D01*
X121144384Y-98312902D01*
X121105560Y-98506500D01*
X121105560Y-98525048D01*
X120854931Y-98524830D01*
X120492771Y-98674471D01*
X120215445Y-98951314D01*
X120065172Y-99313212D01*
X120064830Y-99705069D01*
X120214471Y-100067229D01*
X120491314Y-100344555D01*
X120853212Y-100494828D01*
X121105560Y-100495048D01*
X121105560Y-100513100D01*
X121144384Y-100713202D01*
X121105560Y-100906800D01*
X121105560Y-101313200D01*
X121144384Y-101513302D01*
X121105560Y-101706900D01*
X121105560Y-102113300D01*
X121144384Y-102313402D01*
X121105560Y-102507000D01*
X121105560Y-102913400D01*
X121144384Y-103113502D01*
X121105560Y-103307100D01*
X121105560Y-103713500D01*
X121144858Y-103916047D01*
X121118000Y-103980890D01*
X121118000Y-104050050D01*
X121276750Y-104208800D01*
X121352137Y-104208800D01*
X121503360Y-104310877D01*
X121504407Y-104311087D01*
X121350786Y-104412000D01*
X121276750Y-104412000D01*
X121118000Y-104570750D01*
X121118000Y-104639910D01*
X121145748Y-104706900D01*
X121105560Y-104907300D01*
X121105560Y-105313700D01*
X121130246Y-105440937D01*
X121003700Y-105415560D01*
X120597300Y-105415560D01*
X120397197Y-105454384D01*
X120203600Y-105415560D01*
X119985300Y-105415560D01*
X119985300Y-104316404D01*
X119925545Y-104015998D01*
X119925544Y-104015997D01*
X119755379Y-103761325D01*
X119755375Y-103761322D01*
X119630027Y-103635973D01*
X119532179Y-103570593D01*
X119440759Y-103496496D01*
X119254545Y-103398420D01*
X119199529Y-103265271D01*
X118922686Y-102987945D01*
X118560788Y-102837672D01*
X118168931Y-102837330D01*
X117806771Y-102986971D01*
X117529445Y-103263814D01*
X117379172Y-103625712D01*
X117378830Y-104017569D01*
X117528471Y-104379729D01*
X117805314Y-104657055D01*
X118167212Y-104807328D01*
X118415300Y-104807544D01*
X118415300Y-105415560D01*
X118197000Y-105415560D01*
X117996897Y-105454384D01*
X117803300Y-105415560D01*
X117396900Y-105415560D01*
X117196797Y-105454384D01*
X117003200Y-105415560D01*
X116596800Y-105415560D01*
X116396697Y-105454384D01*
X116285067Y-105431997D01*
X116285170Y-105314931D01*
X116135529Y-104952771D01*
X115858686Y-104675445D01*
X115496788Y-104525172D01*
X115104931Y-104524830D01*
X114742771Y-104674471D01*
X114584893Y-104832073D01*
X114585170Y-104514931D01*
X114435529Y-104152771D01*
X114398210Y-104115387D01*
X114484828Y-103906788D01*
X114485170Y-103514931D01*
X114359049Y-103209695D01*
X114484828Y-102906788D01*
X114485170Y-102514931D01*
X114335529Y-102152771D01*
X114058686Y-101875445D01*
X113696788Y-101725172D01*
X113419937Y-101724930D01*
X113444434Y-101700434D01*
X113625439Y-101429541D01*
X113625439Y-101429540D01*
X113689000Y-101110000D01*
X113689000Y-98610000D01*
X113625439Y-98290460D01*
X113625439Y-98290459D01*
X113444434Y-98019566D01*
X112744034Y-97319166D01*
X112494440Y-97152393D01*
X112494440Y-97152392D01*
X112494440Y-96906300D01*
X112472263Y-96792000D01*
X112539150Y-96792000D01*
X112614994Y-96716155D01*
X112614830Y-96905069D01*
X112764471Y-97267229D01*
X113041314Y-97544555D01*
X113403212Y-97694828D01*
X113795069Y-97695170D01*
X114157229Y-97545529D01*
X114434555Y-97268686D01*
X114584828Y-96906788D01*
X114584917Y-96804440D01*
X114602900Y-96804440D01*
X114803002Y-96765615D01*
X114996600Y-96804440D01*
X115403000Y-96804440D01*
X115603102Y-96765615D01*
X115796700Y-96804440D01*
X116203100Y-96804440D01*
X116403202Y-96765615D01*
X116596800Y-96804440D01*
X117003200Y-96804440D01*
X117203302Y-96765615D01*
X117396900Y-96804440D01*
X117803300Y-96804440D01*
X118003402Y-96765615D01*
X118197000Y-96804440D01*
X118603400Y-96804440D01*
X118615094Y-96802171D01*
X118614830Y-97105069D01*
X118764471Y-97467229D01*
X119041314Y-97744555D01*
X119403212Y-97894828D01*
X119795069Y-97895170D01*
X120157229Y-97745529D01*
X120434555Y-97468686D01*
X120584828Y-97106788D01*
X120584903Y-97020642D01*
X120725645Y-96810007D01*
X120725645Y-96810006D01*
X120785400Y-96509600D01*
X120785400Y-96429716D01*
X120800977Y-96406640D01*
X120851040Y-96157000D01*
X120851040Y-94633000D01*
X120804063Y-94390877D01*
X120698900Y-94230786D01*
X120698900Y-94156750D01*
X120590450Y-94048300D01*
X120673000Y-93965750D01*
X120673000Y-93299000D01*
X119752250Y-93299000D01*
X119593500Y-93457750D01*
X119593500Y-93615809D01*
X119690173Y-93849198D01*
X119826534Y-93985560D01*
X119797200Y-93985560D01*
X119597097Y-94024384D01*
X119403500Y-93985560D01*
X118997100Y-93985560D01*
X118796997Y-94024384D01*
X118603400Y-93985560D01*
X118197000Y-93985560D01*
X117996897Y-94024384D01*
X117803300Y-93985560D01*
X117396900Y-93985560D01*
X117196797Y-94024384D01*
X117003200Y-93985560D01*
X116596800Y-93985560D01*
X116396697Y-94024384D01*
X116203100Y-93985560D01*
X115796700Y-93985560D01*
X115596597Y-94024384D01*
X115403000Y-93985560D01*
X115184700Y-93985560D01*
X115184700Y-93863844D01*
X115268877Y-93739140D01*
X115318940Y-93489500D01*
X115318940Y-92854500D01*
X115271963Y-92612377D01*
X115138194Y-92408739D01*
X115268877Y-92215140D01*
X115318940Y-91965500D01*
X115318940Y-91330500D01*
X115271963Y-91088377D01*
X115132173Y-90875573D01*
X115084970Y-90843710D01*
X115085170Y-90614931D01*
X114935529Y-90252771D01*
X114658686Y-89975445D01*
X114296788Y-89825172D01*
X113904931Y-89824830D01*
X113542771Y-89974471D01*
X113349906Y-90166999D01*
X113158686Y-89975445D01*
X112796788Y-89825172D01*
X112404931Y-89824830D01*
X112042771Y-89974471D01*
X111849906Y-90166999D01*
X111658686Y-89975445D01*
X111296788Y-89825172D01*
X110904931Y-89824830D01*
X110542771Y-89974471D01*
X110265445Y-90251314D01*
X110115172Y-90613212D01*
X110114971Y-90842632D01*
X110073573Y-90869827D01*
X109931123Y-91080860D01*
X109881060Y-91330500D01*
X109881060Y-91965500D01*
X109908055Y-92104634D01*
X109879502Y-92133187D01*
X109879502Y-91974440D01*
X109785030Y-91974440D01*
X109785170Y-91814931D01*
X109750166Y-91730214D01*
X109797427Y-91660200D01*
X109847490Y-91410560D01*
X109847490Y-90409800D01*
X109800513Y-90167677D01*
X109660723Y-89954873D01*
X109449690Y-89812423D01*
X109200050Y-89762360D01*
X108399950Y-89762360D01*
X108157827Y-89809337D01*
X107945023Y-89949127D01*
X107802573Y-90160160D01*
X107752510Y-90409800D01*
X107752510Y-91410560D01*
X107799487Y-91652683D01*
X107849938Y-91729485D01*
X107815172Y-91813212D01*
X107815042Y-91962000D01*
X107718940Y-91962000D01*
X107718940Y-91330500D01*
X107671963Y-91088377D01*
X107532173Y-90875573D01*
X107484970Y-90843710D01*
X107485170Y-90614931D01*
X107335529Y-90252771D01*
X107058686Y-89975445D01*
X106696788Y-89825172D01*
X106304931Y-89824830D01*
X105942771Y-89974471D01*
X105665445Y-90251314D01*
X105515172Y-90613212D01*
X105514971Y-90842632D01*
X105473573Y-90869827D01*
X105331123Y-91080860D01*
X105281060Y-91330500D01*
X105281060Y-91965500D01*
X105328037Y-92207623D01*
X105461805Y-92411260D01*
X105331123Y-92604860D01*
X105290518Y-92807333D01*
X105258686Y-92775445D01*
X104896788Y-92625172D01*
X104504931Y-92624830D01*
X104142771Y-92774471D01*
X103865445Y-93051314D01*
X103715172Y-93413212D01*
X103714971Y-93642632D01*
X103673573Y-93669827D01*
X103531123Y-93880860D01*
X103481060Y-94130500D01*
X103481060Y-94765500D01*
X103528037Y-95007623D01*
X103661805Y-95211260D01*
X103531123Y-95404860D01*
X103481060Y-95654500D01*
X103481060Y-96289500D01*
X103497648Y-96375000D01*
X102635197Y-96375000D01*
X102635197Y-75272743D01*
X102462767Y-74855432D01*
X102143765Y-74535873D01*
X101726756Y-74362715D01*
X101275225Y-74362321D01*
X100857914Y-74534751D01*
X100538355Y-74853753D01*
X100365197Y-75270762D01*
X100364803Y-75722293D01*
X100537233Y-76139604D01*
X100856235Y-76459163D01*
X101273244Y-76632321D01*
X101724775Y-76632715D01*
X102142086Y-76460285D01*
X102461645Y-76141283D01*
X102634803Y-75724274D01*
X102635197Y-75272743D01*
X102635197Y-96375000D01*
X102196059Y-96375000D01*
X102260543Y-96278494D01*
X102385000Y-95652807D01*
X102385000Y-94467193D01*
X102260543Y-93841506D01*
X101906120Y-93311073D01*
X101375687Y-92956650D01*
X100750000Y-92832193D01*
X100124313Y-92956650D01*
X99593880Y-93311073D01*
X99239457Y-93841506D01*
X99185681Y-94111855D01*
X99185681Y-74728134D01*
X98595471Y-73299717D01*
X97503557Y-72205895D01*
X96076173Y-71613194D01*
X94530624Y-71611845D01*
X93102207Y-72202055D01*
X92008385Y-73293969D01*
X91415684Y-74721353D01*
X91414335Y-76266902D01*
X92004545Y-77695319D01*
X93096459Y-78789141D01*
X94523843Y-79381842D01*
X96069392Y-79383191D01*
X97497809Y-78792981D01*
X98591631Y-77701067D01*
X99184332Y-76273683D01*
X99185681Y-74728134D01*
X99185681Y-94111855D01*
X99115000Y-94467193D01*
X99115000Y-95652807D01*
X99239457Y-96278494D01*
X99593880Y-96808927D01*
X100085158Y-97137188D01*
X99354869Y-97234560D01*
X95636110Y-97234560D01*
X95636110Y-95449560D01*
X95589133Y-95207437D01*
X95449343Y-94994633D01*
X95238310Y-94852183D01*
X94988670Y-94802120D01*
X93528670Y-94802120D01*
X93286547Y-94849097D01*
X93073743Y-94988887D01*
X92931293Y-95199920D01*
X92905784Y-95327120D01*
X90128670Y-95327120D01*
X89934784Y-95364737D01*
X89934784Y-75563341D01*
X90279328Y-73831194D01*
X91222293Y-72419947D01*
X92633542Y-71476980D01*
X94365689Y-71132436D01*
X116566350Y-71132436D01*
X116573098Y-85904013D01*
X134419080Y-85893707D01*
X134419080Y-71132436D01*
X185133878Y-71132436D01*
X186866025Y-71476980D01*
X188277272Y-72419945D01*
X189220239Y-73831194D01*
X189564784Y-75563341D01*
X189564784Y-94131067D01*
G36*
X189564784Y-123053406D02*
X189220239Y-124785553D01*
X188277272Y-126196802D01*
X188085681Y-126324819D01*
X188085681Y-122353134D01*
X187495471Y-120924717D01*
X186403557Y-119830895D01*
X184976173Y-119238194D01*
X183430624Y-119236845D01*
X183085796Y-119379324D01*
X183086084Y-119050165D01*
X183086084Y-114550165D01*
X182837694Y-113949017D01*
X182378163Y-113488682D01*
X181777448Y-113239244D01*
X181127005Y-113238676D01*
X180525857Y-113487066D01*
X180065522Y-113946597D01*
X179816084Y-114547312D01*
X179815516Y-115197755D01*
X180063906Y-115798903D01*
X180523437Y-116259238D01*
X181124152Y-116508676D01*
X181774595Y-116509244D01*
X182375743Y-116260854D01*
X182836078Y-115801323D01*
X183085516Y-115200608D01*
X183086084Y-114550165D01*
X183086084Y-119050165D01*
X182837694Y-118449017D01*
X182378163Y-117988682D01*
X181777448Y-117739244D01*
X181127005Y-117738676D01*
X180525857Y-117987066D01*
X180065522Y-118446597D01*
X179816084Y-119047312D01*
X179815516Y-119697755D01*
X180063906Y-120298903D01*
X180523437Y-120759238D01*
X180908344Y-120919065D01*
X180315684Y-122346353D01*
X180314335Y-123891902D01*
X180904545Y-125320319D01*
X181996459Y-126414141D01*
X183423843Y-127006842D01*
X184969392Y-127008191D01*
X186397809Y-126417981D01*
X187491631Y-125326067D01*
X188084332Y-123898683D01*
X188085681Y-122353134D01*
X188085681Y-126324819D01*
X186866025Y-127139767D01*
X185133878Y-127484312D01*
X179135197Y-127484312D01*
X179135197Y-122897743D01*
X178962767Y-122480432D01*
X178643765Y-122160873D01*
X178226756Y-121987715D01*
X177775225Y-121987321D01*
X177357914Y-122159751D01*
X177038355Y-122478753D01*
X176865197Y-122895762D01*
X176864803Y-123347293D01*
X177037233Y-123764604D01*
X177356235Y-124084163D01*
X177773244Y-124257321D01*
X178224775Y-124257715D01*
X178642086Y-124085285D01*
X178961645Y-123766283D01*
X179134803Y-123349274D01*
X179135197Y-122897743D01*
X179135197Y-127484312D01*
X176586084Y-127484312D01*
X176586084Y-119050165D01*
X176586084Y-114550165D01*
X176337694Y-113949017D01*
X175878163Y-113488682D01*
X175277448Y-113239244D01*
X174627005Y-113238676D01*
X174025857Y-113487066D01*
X173565522Y-113946597D01*
X173316084Y-114547312D01*
X173315516Y-115197755D01*
X173563906Y-115798903D01*
X174023437Y-116259238D01*
X174624152Y-116508676D01*
X175274595Y-116509244D01*
X175875743Y-116260854D01*
X176336078Y-115801323D01*
X176585516Y-115200608D01*
X176586084Y-114550165D01*
X176586084Y-119050165D01*
X176337694Y-118449017D01*
X175878163Y-117988682D01*
X175277448Y-117739244D01*
X174627005Y-117738676D01*
X174025857Y-117987066D01*
X173565522Y-118446597D01*
X173316084Y-119047312D01*
X173315516Y-119697755D01*
X173563906Y-120298903D01*
X174023437Y-120759238D01*
X174624152Y-121008676D01*
X175274595Y-121009244D01*
X175875743Y-120760854D01*
X176336078Y-120301323D01*
X176585516Y-119700608D01*
X176586084Y-119050165D01*
X176586084Y-127484312D01*
X132435000Y-127484312D01*
X132435000Y-126386310D01*
X132435000Y-126133691D01*
X132435000Y-125995750D01*
X132276250Y-125837000D01*
X131627000Y-125837000D01*
X131627000Y-126736250D01*
X131785750Y-126895000D01*
X131926309Y-126895000D01*
X132159698Y-126798327D01*
X132338327Y-126619699D01*
X132435000Y-126386310D01*
X132435000Y-127484312D01*
X131373000Y-127484312D01*
X129693000Y-127484312D01*
X129693000Y-126645750D01*
X129693000Y-125979000D01*
X128772250Y-125979000D01*
X128613500Y-126137750D01*
X128613500Y-126295809D01*
X128710173Y-126529198D01*
X128888801Y-126707827D01*
X129122190Y-126804500D01*
X129374809Y-126804500D01*
X129534250Y-126804500D01*
X129693000Y-126645750D01*
X129693000Y-127484312D01*
X102635197Y-127484312D01*
X102635197Y-122897743D01*
X102462767Y-122480432D01*
X102143765Y-122160873D01*
X101726756Y-121987715D01*
X101275225Y-121987321D01*
X100857914Y-122159751D01*
X100538355Y-122478753D01*
X100365197Y-122895762D01*
X100364803Y-123347293D01*
X100537233Y-123764604D01*
X100856235Y-124084163D01*
X101273244Y-124257321D01*
X101724775Y-124257715D01*
X102142086Y-124085285D01*
X102461645Y-123766283D01*
X102634803Y-123349274D01*
X102635197Y-122897743D01*
X102635197Y-127484312D01*
X99185681Y-127484312D01*
X99185681Y-122353134D01*
X98595471Y-120924717D01*
X97503557Y-119830895D01*
X96076173Y-119238194D01*
X94530624Y-119236845D01*
X93102207Y-119827055D01*
X92008385Y-120918969D01*
X91415684Y-122346353D01*
X91414335Y-123891902D01*
X92004545Y-125320319D01*
X93096459Y-126414141D01*
X94523843Y-127006842D01*
X96069392Y-127008191D01*
X97497809Y-126417981D01*
X98591631Y-125326067D01*
X99184332Y-123898683D01*
X99185681Y-122353134D01*
X99185681Y-127484312D01*
X94365689Y-127484312D01*
X92633542Y-127139767D01*
X91222293Y-126196800D01*
X90279328Y-124785553D01*
X89934784Y-123053406D01*
X89934784Y-103333117D01*
X90128670Y-103372000D01*
X92904985Y-103372000D01*
X92928207Y-103491683D01*
X93067997Y-103704487D01*
X93279030Y-103846937D01*
X93528670Y-103897000D01*
X94988670Y-103897000D01*
X95230793Y-103850023D01*
X95443597Y-103710233D01*
X95586047Y-103499200D01*
X95636110Y-103249560D01*
X95636110Y-103237000D01*
X104116131Y-103237000D01*
X104057566Y-103295566D01*
X103876561Y-103566459D01*
X103813000Y-103886000D01*
X103813000Y-104302132D01*
X103413132Y-104702000D01*
X101614920Y-104702000D01*
X101489173Y-104510573D01*
X101278140Y-104368123D01*
X101028500Y-104318060D01*
X100393500Y-104318060D01*
X100151377Y-104365037D01*
X99947739Y-104498805D01*
X99754140Y-104368123D01*
X99504500Y-104318060D01*
X98869500Y-104318060D01*
X98627377Y-104365037D01*
X98414573Y-104504827D01*
X98272123Y-104715860D01*
X98222060Y-104965500D01*
X98222060Y-106108500D01*
X98269037Y-106350623D01*
X98275964Y-106361168D01*
X98272123Y-106366860D01*
X98222060Y-106616500D01*
X98222060Y-107759500D01*
X98269037Y-108001623D01*
X98302000Y-108051802D01*
X98302000Y-109600994D01*
X98301999Y-109601000D01*
X98358189Y-109883484D01*
X98369367Y-109939675D01*
X98561210Y-110226790D01*
X99020207Y-110685786D01*
X99020210Y-110685790D01*
X99137095Y-110763889D01*
X99137095Y-110763890D01*
X99239457Y-111278494D01*
X99470392Y-111624114D01*
X96460139Y-108613861D01*
X96448114Y-108605826D01*
X96608084Y-108157438D01*
X96580302Y-107602372D01*
X96421337Y-107218597D01*
X96179153Y-107149132D01*
X95999548Y-107328737D01*
X95999548Y-106969527D01*
X95930083Y-106727343D01*
X95406638Y-106540596D01*
X94851572Y-106568378D01*
X94467797Y-106727343D01*
X94398332Y-106969527D01*
X95198940Y-107770135D01*
X95999548Y-106969527D01*
X95999548Y-107328737D01*
X95378545Y-107949740D01*
X95392687Y-107963882D01*
X95213082Y-108143487D01*
X95198940Y-108129345D01*
X95184797Y-108143487D01*
X95005192Y-107963882D01*
X95019335Y-107949740D01*
X94218727Y-107149132D01*
X94068380Y-107192255D01*
X94068380Y-107187740D01*
X94021403Y-106945617D01*
X93881613Y-106732813D01*
X93670580Y-106590363D01*
X93420940Y-106540300D01*
X91896940Y-106540300D01*
X91654817Y-106587277D01*
X91442013Y-106727067D01*
X91299563Y-106938100D01*
X91249500Y-107187740D01*
X91249500Y-108711740D01*
X91296477Y-108953863D01*
X91436267Y-109166667D01*
X91647300Y-109309117D01*
X91827951Y-109345344D01*
X91475311Y-109697370D01*
X91262183Y-110210640D01*
X91261698Y-110766401D01*
X91473930Y-111280043D01*
X91866570Y-111673369D01*
X92074452Y-111759689D01*
X91868637Y-111844730D01*
X91475311Y-112237370D01*
X91262183Y-112750640D01*
X91261698Y-113306401D01*
X91473930Y-113820043D01*
X91866570Y-114213369D01*
X91873940Y-114216429D01*
X91873940Y-114670580D01*
X91933695Y-114970987D01*
X92103861Y-115225659D01*
X92771881Y-115893679D01*
X93026554Y-116063845D01*
X93326960Y-116123600D01*
X106413040Y-116123600D01*
X106713446Y-116063845D01*
X106713447Y-116063845D01*
X106968119Y-115893679D01*
X108355079Y-114506719D01*
X108525245Y-114252046D01*
X108585000Y-113951640D01*
X108585001Y-113951640D01*
X108585000Y-113951634D01*
X108585000Y-113010000D01*
X108585000Y-112920520D01*
X108585000Y-109495000D01*
X108814483Y-109495000D01*
X108820037Y-109523623D01*
X108959827Y-109736427D01*
X109170860Y-109878877D01*
X109420500Y-109928940D01*
X110055500Y-109928940D01*
X110297623Y-109881963D01*
X110508447Y-109743473D01*
X110584802Y-109819827D01*
X110818191Y-109916500D01*
X110976250Y-109916500D01*
X111135000Y-109757750D01*
X111135000Y-108837000D01*
X111115000Y-108837000D01*
X111115000Y-108583000D01*
X111135000Y-108583000D01*
X111135000Y-107662250D01*
X110976250Y-107503500D01*
X110818191Y-107503500D01*
X110584802Y-107600173D01*
X110507354Y-107677620D01*
X110305140Y-107541123D01*
X110283395Y-107536762D01*
X111325158Y-106495000D01*
X111948860Y-106495000D01*
X111948860Y-107587000D01*
X111954356Y-107615331D01*
X111939198Y-107600173D01*
X111705809Y-107503500D01*
X111547750Y-107503500D01*
X111389000Y-107662250D01*
X111389000Y-108583000D01*
X112055750Y-108583000D01*
X112214500Y-108424250D01*
X112214500Y-108264809D01*
X112214500Y-108095167D01*
X112346660Y-108184377D01*
X112596300Y-108234440D01*
X112685500Y-108234440D01*
X112685500Y-108264809D01*
X112685500Y-108424250D01*
X112844250Y-108583000D01*
X113511000Y-108583000D01*
X113511000Y-108563000D01*
X113765000Y-108563000D01*
X113765000Y-108583000D01*
X113785000Y-108583000D01*
X113785000Y-108837000D01*
X113765000Y-108837000D01*
X113765000Y-109757750D01*
X113923750Y-109916500D01*
X114081809Y-109916500D01*
X114315198Y-109819827D01*
X114392645Y-109742379D01*
X114594860Y-109878877D01*
X114844500Y-109928940D01*
X115214900Y-109928940D01*
X115214900Y-110009900D01*
X115274655Y-110310307D01*
X115444821Y-110564979D01*
X115523000Y-110643158D01*
X115523000Y-112783000D01*
X113511000Y-112783000D01*
X113511000Y-109757750D01*
X113511000Y-108837000D01*
X112844250Y-108837000D01*
X112685500Y-108995750D01*
X112685500Y-109155191D01*
X112685500Y-109407810D01*
X112782173Y-109641199D01*
X112960802Y-109819827D01*
X113194191Y-109916500D01*
X113352250Y-109916500D01*
X113511000Y-109757750D01*
X113511000Y-112783000D01*
X112214500Y-112783000D01*
X112214500Y-109407810D01*
X112214500Y-109155191D01*
X112214500Y-108995750D01*
X112055750Y-108837000D01*
X111389000Y-108837000D01*
X111389000Y-109757750D01*
X111547750Y-109916500D01*
X111705809Y-109916500D01*
X111939198Y-109819827D01*
X112117827Y-109641199D01*
X112214500Y-109407810D01*
X112214500Y-112783000D01*
X111473000Y-112783000D01*
X111473000Y-120087000D01*
X129707500Y-120087000D01*
X129707500Y-120586500D01*
X129767255Y-120886907D01*
X129937421Y-121141579D01*
X130635921Y-121840079D01*
X130738706Y-121908757D01*
X130738706Y-121908758D01*
X130602623Y-122110360D01*
X130599687Y-122125000D01*
X130408137Y-122125000D01*
X130348686Y-122065445D01*
X129986788Y-121915172D01*
X129594931Y-121914830D01*
X129232771Y-122064471D01*
X128955445Y-122341314D01*
X128805172Y-122703212D01*
X128804830Y-123095069D01*
X128950215Y-123446929D01*
X128793573Y-123549827D01*
X128651123Y-123760860D01*
X128601060Y-124010500D01*
X128601060Y-124645500D01*
X128648037Y-124887623D01*
X128786526Y-125098447D01*
X128710173Y-125174802D01*
X128613500Y-125408191D01*
X128613500Y-125566250D01*
X128772250Y-125725000D01*
X129693000Y-125725000D01*
X129693000Y-125705000D01*
X129947000Y-125705000D01*
X129947000Y-125725000D01*
X129967000Y-125725000D01*
X129967000Y-125979000D01*
X129947000Y-125979000D01*
X129947000Y-126645750D01*
X130105750Y-126804500D01*
X130265191Y-126804500D01*
X130517810Y-126804500D01*
X130750210Y-126708236D01*
X130840302Y-126798327D01*
X131073691Y-126895000D01*
X131214250Y-126895000D01*
X131373000Y-126736250D01*
X131373000Y-125837000D01*
X131353000Y-125837000D01*
X131353000Y-125583000D01*
X131373000Y-125583000D01*
X131373000Y-125563000D01*
X131627000Y-125563000D01*
X131627000Y-125583000D01*
X132276250Y-125583000D01*
X132435000Y-125424250D01*
X132435000Y-125286309D01*
X132435000Y-125155000D01*
X132453562Y-125155000D01*
X132452560Y-125160000D01*
X132452560Y-126260000D01*
X132499537Y-126502123D01*
X132639327Y-126714927D01*
X132850360Y-126857377D01*
X133100000Y-126907440D01*
X133700000Y-126907440D01*
X133942123Y-126860463D01*
X134154927Y-126720673D01*
X134297377Y-126509640D01*
X134347440Y-126260000D01*
X134347440Y-125160000D01*
X134346469Y-125155000D01*
X134459994Y-125155000D01*
X134460000Y-125155001D01*
X134460000Y-125155000D01*
X134742484Y-125098810D01*
X134798674Y-125087633D01*
X134798675Y-125087633D01*
X135085790Y-124895790D01*
X135295786Y-124685792D01*
X135295790Y-124685790D01*
X135295790Y-124685789D01*
X135487633Y-124398675D01*
X135487633Y-124398674D01*
X135498810Y-124342484D01*
X135555000Y-124060000D01*
X135555001Y-124060000D01*
X135555000Y-124059994D01*
X135555000Y-120728053D01*
X135794972Y-120808112D01*
X136245375Y-120776217D01*
X136513352Y-120665217D01*
X136527565Y-120582908D01*
X136566235Y-120621645D01*
X136983244Y-120794803D01*
X137434775Y-120795197D01*
X137852086Y-120622767D01*
X137892372Y-120582550D01*
X137906648Y-120665217D01*
X138334972Y-120808112D01*
X138785375Y-120776217D01*
X139053352Y-120665217D01*
X139067565Y-120582908D01*
X139106235Y-120621645D01*
X139523244Y-120794803D01*
X139974775Y-120795197D01*
X140385495Y-120625490D01*
X140793244Y-120794803D01*
X141244775Y-120795197D01*
X141655495Y-120625490D01*
X142063244Y-120794803D01*
X142514775Y-120795197D01*
X142925495Y-120625490D01*
X143333244Y-120794803D01*
X143784775Y-120795197D01*
X144195495Y-120625490D01*
X144603244Y-120794803D01*
X145054775Y-120795197D01*
X145465495Y-120625490D01*
X145873244Y-120794803D01*
X146324775Y-120795197D01*
X146735495Y-120625490D01*
X147143244Y-120794803D01*
X147594775Y-120795197D01*
X148012086Y-120622767D01*
X148331645Y-120303765D01*
X148504803Y-119886756D01*
X148505022Y-119635135D01*
X148637079Y-119503079D01*
X148807245Y-119248407D01*
X148807245Y-119248406D01*
X148867000Y-118948000D01*
X148867000Y-118779516D01*
X148895623Y-118773963D01*
X149108427Y-118634173D01*
X149250877Y-118423140D01*
X149300940Y-118173500D01*
X149300940Y-117538500D01*
X149253963Y-117296377D01*
X149115473Y-117085552D01*
X149191827Y-117009198D01*
X149288500Y-116775809D01*
X149288500Y-116617750D01*
X149288500Y-116046250D01*
X149288500Y-115888191D01*
X149191827Y-115654802D01*
X149013199Y-115476173D01*
X148779810Y-115379500D01*
X148527191Y-115379500D01*
X148367750Y-115379500D01*
X148209000Y-115538250D01*
X148209000Y-116205000D01*
X149129750Y-116205000D01*
X149288500Y-116046250D01*
X149288500Y-116617750D01*
X149129750Y-116459000D01*
X148209000Y-116459000D01*
X148209000Y-116479000D01*
X147955000Y-116479000D01*
X147955000Y-116459000D01*
X147935000Y-116459000D01*
X147935000Y-116205000D01*
X147955000Y-116205000D01*
X147955000Y-115538250D01*
X147796250Y-115379500D01*
X147636809Y-115379500D01*
X147443000Y-115379500D01*
X147443000Y-114991200D01*
X147542828Y-114750788D01*
X147543170Y-114358931D01*
X147393529Y-113996771D01*
X147116686Y-113719445D01*
X146754788Y-113569172D01*
X146362931Y-113568830D01*
X146000771Y-113718471D01*
X145795885Y-113922999D01*
X145592686Y-113719445D01*
X145230788Y-113569172D01*
X144838931Y-113568830D01*
X144476771Y-113718471D01*
X144271885Y-113922999D01*
X144068686Y-113719445D01*
X143706788Y-113569172D01*
X143314931Y-113568830D01*
X142952771Y-113718471D01*
X142747885Y-113922999D01*
X142544686Y-113719445D01*
X142182788Y-113569172D01*
X141790931Y-113568830D01*
X141428771Y-113718471D01*
X141223885Y-113922999D01*
X141020686Y-113719445D01*
X140658788Y-113569172D01*
X140266931Y-113568830D01*
X139904771Y-113718471D01*
X139699885Y-113922999D01*
X139496686Y-113719445D01*
X139134788Y-113569172D01*
X138742931Y-113568830D01*
X138380771Y-113718471D01*
X138103445Y-113995314D01*
X137953172Y-114357212D01*
X137952830Y-114749069D01*
X138053000Y-114991499D01*
X138053000Y-115379500D01*
X137859191Y-115379500D01*
X137699750Y-115379500D01*
X137541000Y-115538250D01*
X137541000Y-116205000D01*
X137561000Y-116205000D01*
X137561000Y-116459000D01*
X137541000Y-116459000D01*
X137541000Y-116479000D01*
X137306500Y-116479000D01*
X137306500Y-102215809D01*
X137306500Y-102057750D01*
X137147750Y-101899000D01*
X136227000Y-101899000D01*
X136227000Y-102565750D01*
X136385750Y-102724500D01*
X136545191Y-102724500D01*
X136797810Y-102724500D01*
X137031199Y-102627827D01*
X137209827Y-102449198D01*
X137306500Y-102215809D01*
X137306500Y-116479000D01*
X137287000Y-116479000D01*
X137287000Y-116459000D01*
X137287000Y-116205000D01*
X137287000Y-115538250D01*
X137128250Y-115379500D01*
X136968809Y-115379500D01*
X136716190Y-115379500D01*
X136482801Y-115476173D01*
X136304173Y-115654802D01*
X136207500Y-115888191D01*
X136207500Y-116046250D01*
X136366250Y-116205000D01*
X137287000Y-116205000D01*
X137287000Y-116459000D01*
X136366250Y-116459000D01*
X136207500Y-116617750D01*
X136207500Y-116775809D01*
X136304173Y-117009198D01*
X136381620Y-117086645D01*
X136245123Y-117288860D01*
X136195060Y-117538500D01*
X136195060Y-118173500D01*
X136242037Y-118415623D01*
X136367085Y-118605986D01*
X136085028Y-118511888D01*
X135973000Y-118519821D01*
X135634625Y-118543783D01*
X135366648Y-118654783D01*
X135352434Y-118737091D01*
X135313765Y-118698355D01*
X134944582Y-118545056D01*
X135026877Y-118423140D01*
X135076940Y-118173500D01*
X135076940Y-117538500D01*
X135029963Y-117296377D01*
X134891473Y-117085552D01*
X134967827Y-117009198D01*
X135064500Y-116775809D01*
X135064500Y-116617750D01*
X135064500Y-116046250D01*
X135064500Y-115888191D01*
X134967827Y-115654802D01*
X134789199Y-115476173D01*
X134555810Y-115379500D01*
X134303191Y-115379500D01*
X134143750Y-115379500D01*
X133985000Y-115538250D01*
X133985000Y-116205000D01*
X134905750Y-116205000D01*
X135064500Y-116046250D01*
X135064500Y-116617750D01*
X134905750Y-116459000D01*
X133985000Y-116459000D01*
X133985000Y-116479000D01*
X133731000Y-116479000D01*
X133731000Y-116459000D01*
X133731000Y-116205000D01*
X133731000Y-115538250D01*
X133572250Y-115379500D01*
X133412809Y-115379500D01*
X133160190Y-115379500D01*
X133096000Y-115406088D01*
X133031810Y-115379500D01*
X132779191Y-115379500D01*
X132619750Y-115379500D01*
X132461000Y-115538250D01*
X132461000Y-116205000D01*
X132810250Y-116205000D01*
X133381750Y-116205000D01*
X133731000Y-116205000D01*
X133731000Y-116459000D01*
X133381750Y-116459000D01*
X132810250Y-116459000D01*
X132461000Y-116459000D01*
X132461000Y-116479000D01*
X132207000Y-116479000D01*
X132207000Y-116459000D01*
X132187000Y-116459000D01*
X132187000Y-116205000D01*
X132207000Y-116205000D01*
X132207000Y-115538250D01*
X132048250Y-115379500D01*
X132039500Y-115379500D01*
X132039500Y-113925500D01*
X132039500Y-113030005D01*
X132039500Y-113030000D01*
X132039501Y-113030000D01*
X131979745Y-112729594D01*
X131809579Y-112474922D01*
X131809579Y-112474921D01*
X131809575Y-112474918D01*
X129341000Y-110006342D01*
X129341000Y-104890268D01*
X129341000Y-103969518D01*
X129341000Y-103715518D01*
X129341000Y-102794768D01*
X129182250Y-102636018D01*
X129024191Y-102636018D01*
X128790802Y-102732691D01*
X128612173Y-102911319D01*
X128515500Y-103144708D01*
X128515500Y-103397327D01*
X128515500Y-103556768D01*
X128674250Y-103715518D01*
X129341000Y-103715518D01*
X129341000Y-103969518D01*
X128674250Y-103969518D01*
X128515500Y-104128268D01*
X128515500Y-104287709D01*
X128515500Y-104540328D01*
X128612173Y-104773717D01*
X128790802Y-104952345D01*
X129024191Y-105049018D01*
X129182250Y-105049018D01*
X129341000Y-104890268D01*
X129341000Y-110006342D01*
X127110579Y-107775921D01*
X126855907Y-107605755D01*
X126555500Y-107546000D01*
X126056931Y-107546000D01*
X126234555Y-107368686D01*
X126384828Y-107006788D01*
X126385028Y-106777367D01*
X126426427Y-106750173D01*
X126568877Y-106539140D01*
X126618940Y-106289500D01*
X126618940Y-105654500D01*
X126571963Y-105412377D01*
X126433473Y-105201552D01*
X126509827Y-105125198D01*
X126606500Y-104891809D01*
X126606500Y-104733750D01*
X126447750Y-104575000D01*
X125527000Y-104575000D01*
X125527000Y-104595000D01*
X125273000Y-104595000D01*
X125273000Y-104575000D01*
X125253000Y-104575000D01*
X125253000Y-104321000D01*
X125273000Y-104321000D01*
X125273000Y-104301000D01*
X125527000Y-104301000D01*
X125527000Y-104321000D01*
X126447750Y-104321000D01*
X126473450Y-104295300D01*
X126502075Y-104295300D01*
X126511314Y-104304555D01*
X126873212Y-104454828D01*
X127265069Y-104455170D01*
X127627229Y-104305529D01*
X127904555Y-104028686D01*
X128054828Y-103666788D01*
X128055170Y-103274931D01*
X127906072Y-102914085D01*
X129014917Y-101805240D01*
X129014830Y-101905069D01*
X129164471Y-102267229D01*
X129441314Y-102544555D01*
X129726707Y-102663060D01*
X129595000Y-102794768D01*
X129595000Y-103715518D01*
X129615000Y-103715518D01*
X129615000Y-103969518D01*
X129595000Y-103969518D01*
X129595000Y-104890268D01*
X129753750Y-105049018D01*
X129911809Y-105049018D01*
X130145198Y-104952345D01*
X130222645Y-104874897D01*
X130424860Y-105011395D01*
X130674500Y-105061458D01*
X131309500Y-105061458D01*
X131551623Y-105014481D01*
X131764427Y-104874691D01*
X131906877Y-104663658D01*
X131956940Y-104414018D01*
X131956940Y-103271018D01*
X131909963Y-103028895D01*
X131896000Y-103007638D01*
X131896000Y-102727382D01*
X131914995Y-102714903D01*
X131914830Y-102905069D01*
X132064471Y-103267229D01*
X132341314Y-103544555D01*
X132703212Y-103694828D01*
X133095069Y-103695170D01*
X133457229Y-103545529D01*
X133734555Y-103268686D01*
X133884828Y-102906788D01*
X133884987Y-102724500D01*
X134054809Y-102724500D01*
X134214250Y-102724500D01*
X134373000Y-102565750D01*
X134373000Y-101899000D01*
X134353000Y-101899000D01*
X134353000Y-101795000D01*
X134893500Y-101795000D01*
X134893500Y-101899000D01*
X134627000Y-101899000D01*
X134627000Y-102565750D01*
X134785750Y-102724500D01*
X134945191Y-102724500D01*
X135197810Y-102724500D01*
X135300000Y-102682171D01*
X135402190Y-102724500D01*
X135654809Y-102724500D01*
X135814250Y-102724500D01*
X135973000Y-102565750D01*
X135973000Y-101899000D01*
X135953000Y-101899000D01*
X135953000Y-101645000D01*
X135973000Y-101645000D01*
X135973000Y-101625000D01*
X136227000Y-101625000D01*
X136227000Y-101645000D01*
X137147750Y-101645000D01*
X137306500Y-101486250D01*
X137306500Y-101328191D01*
X137209827Y-101094802D01*
X137132379Y-101017354D01*
X137151910Y-100988420D01*
X137350360Y-101122377D01*
X137600000Y-101172440D01*
X139000000Y-101172440D01*
X139242123Y-101125463D01*
X139454927Y-100985673D01*
X139597377Y-100774640D01*
X139647440Y-100525000D01*
X139647440Y-100295000D01*
X139630675Y-100208595D01*
X139647440Y-100125000D01*
X139647440Y-99895000D01*
X139630675Y-99808595D01*
X139647440Y-99725000D01*
X139647440Y-99495000D01*
X139630675Y-99408595D01*
X139647440Y-99325000D01*
X139647440Y-99095000D01*
X139630675Y-99008595D01*
X139647440Y-98925000D01*
X139647440Y-98695000D01*
X139630675Y-98608595D01*
X139647440Y-98525000D01*
X139647440Y-98295000D01*
X139630675Y-98208595D01*
X139647440Y-98125000D01*
X139647440Y-97895000D01*
X139630675Y-97808595D01*
X139647440Y-97725000D01*
X139647440Y-97495000D01*
X139630675Y-97408595D01*
X139647440Y-97325000D01*
X139647440Y-97095000D01*
X139630675Y-97008595D01*
X139647440Y-96925000D01*
X139647440Y-96695000D01*
X139630675Y-96608595D01*
X139647440Y-96525000D01*
X139647440Y-96295000D01*
X139630675Y-96208595D01*
X139647440Y-96125000D01*
X139647440Y-95895000D01*
X139630675Y-95808595D01*
X139647440Y-95725000D01*
X139647440Y-95495000D01*
X139630675Y-95408595D01*
X139647440Y-95325000D01*
X139647440Y-95095000D01*
X139630675Y-95008595D01*
X139647440Y-94925000D01*
X139647440Y-94695000D01*
X139630675Y-94608595D01*
X139647440Y-94525000D01*
X139647440Y-94295780D01*
X139651577Y-94294957D01*
X139651578Y-94294957D01*
X139895069Y-94295170D01*
X140257229Y-94145529D01*
X140534555Y-93868686D01*
X140684828Y-93506788D01*
X140685170Y-93114931D01*
X140535529Y-92752771D01*
X140258686Y-92475445D01*
X139896788Y-92325172D01*
X139516356Y-92324839D01*
X139460673Y-92240073D01*
X139249640Y-92097623D01*
X139000000Y-92047560D01*
X137600000Y-92047560D01*
X137478267Y-92071178D01*
X139762171Y-89787274D01*
X139737560Y-89910000D01*
X139737560Y-91310000D01*
X139784537Y-91552123D01*
X139924327Y-91764927D01*
X140135360Y-91907377D01*
X140385000Y-91957440D01*
X140615000Y-91957440D01*
X140701404Y-91940675D01*
X140785000Y-91957440D01*
X141015000Y-91957440D01*
X141101404Y-91940675D01*
X141114971Y-91943396D01*
X141114830Y-92105069D01*
X141264471Y-92467229D01*
X141541314Y-92744555D01*
X141903212Y-92894828D01*
X142295069Y-92895170D01*
X142657229Y-92745529D01*
X142697295Y-92705532D01*
X142780277Y-92829723D01*
X145065000Y-95114446D01*
X145065000Y-97705553D01*
X143180277Y-99590277D01*
X143020949Y-99828728D01*
X142965000Y-100110000D01*
X142965000Y-100575000D01*
X142358067Y-100575000D01*
X142258686Y-100475445D01*
X141896788Y-100325172D01*
X141504931Y-100324830D01*
X141142771Y-100474471D01*
X140865445Y-100751314D01*
X140715172Y-101113212D01*
X140715029Y-101276135D01*
X140698595Y-101279324D01*
X140615000Y-101262560D01*
X140385000Y-101262560D01*
X140142877Y-101309537D01*
X139930073Y-101449327D01*
X139787623Y-101660360D01*
X139737560Y-101910000D01*
X139737560Y-103310000D01*
X139784537Y-103552123D01*
X139924327Y-103764927D01*
X140135360Y-103907377D01*
X140385000Y-103957440D01*
X140615000Y-103957440D01*
X140701404Y-103940675D01*
X140785000Y-103957440D01*
X141015000Y-103957440D01*
X141101404Y-103940675D01*
X141185000Y-103957440D01*
X141415000Y-103957440D01*
X141501404Y-103940675D01*
X141585000Y-103957440D01*
X141765000Y-103957440D01*
X141765000Y-104755553D01*
X138380277Y-108140277D01*
X138220949Y-108378728D01*
X138165000Y-108660000D01*
X138165000Y-111910000D01*
X138220949Y-112191272D01*
X138380277Y-112429723D01*
X139180277Y-113229724D01*
X139418728Y-113389051D01*
X139700000Y-113445000D01*
X153950000Y-113445000D01*
X153950000Y-113444999D01*
X154231272Y-113389051D01*
X154469723Y-113229723D01*
X155719723Y-111979723D01*
X155719724Y-111979723D01*
X155879051Y-111741272D01*
X155934999Y-111460000D01*
X155935000Y-111460000D01*
X155935000Y-111214446D01*
X157204446Y-109945000D01*
X162500000Y-109945000D01*
X175300000Y-109945000D01*
X185202094Y-109945000D01*
X185202094Y-109944999D01*
X185483366Y-109889051D01*
X185721817Y-109729723D01*
X188455301Y-106996239D01*
X188603319Y-107057702D01*
X189194089Y-107058217D01*
X189564784Y-106905049D01*
X189564784Y-123053406D01*
X189564784Y-123053406D01*
G37*
X189564784Y-123053406D02*
X189220239Y-124785553D01*
X188277272Y-126196802D01*
X188085681Y-126324819D01*
X188085681Y-122353134D01*
X187495471Y-120924717D01*
X186403557Y-119830895D01*
X184976173Y-119238194D01*
X183430624Y-119236845D01*
X183085796Y-119379324D01*
X183086084Y-119050165D01*
X183086084Y-114550165D01*
X182837694Y-113949017D01*
X182378163Y-113488682D01*
X181777448Y-113239244D01*
X181127005Y-113238676D01*
X180525857Y-113487066D01*
X180065522Y-113946597D01*
X179816084Y-114547312D01*
X179815516Y-115197755D01*
X180063906Y-115798903D01*
X180523437Y-116259238D01*
X181124152Y-116508676D01*
X181774595Y-116509244D01*
X182375743Y-116260854D01*
X182836078Y-115801323D01*
X183085516Y-115200608D01*
X183086084Y-114550165D01*
X183086084Y-119050165D01*
X182837694Y-118449017D01*
X182378163Y-117988682D01*
X181777448Y-117739244D01*
X181127005Y-117738676D01*
X180525857Y-117987066D01*
X180065522Y-118446597D01*
X179816084Y-119047312D01*
X179815516Y-119697755D01*
X180063906Y-120298903D01*
X180523437Y-120759238D01*
X180908344Y-120919065D01*
X180315684Y-122346353D01*
X180314335Y-123891902D01*
X180904545Y-125320319D01*
X181996459Y-126414141D01*
X183423843Y-127006842D01*
X184969392Y-127008191D01*
X186397809Y-126417981D01*
X187491631Y-125326067D01*
X188084332Y-123898683D01*
X188085681Y-122353134D01*
X188085681Y-126324819D01*
X186866025Y-127139767D01*
X185133878Y-127484312D01*
X179135197Y-127484312D01*
X179135197Y-122897743D01*
X178962767Y-122480432D01*
X178643765Y-122160873D01*
X178226756Y-121987715D01*
X177775225Y-121987321D01*
X177357914Y-122159751D01*
X177038355Y-122478753D01*
X176865197Y-122895762D01*
X176864803Y-123347293D01*
X177037233Y-123764604D01*
X177356235Y-124084163D01*
X177773244Y-124257321D01*
X178224775Y-124257715D01*
X178642086Y-124085285D01*
X178961645Y-123766283D01*
X179134803Y-123349274D01*
X179135197Y-122897743D01*
X179135197Y-127484312D01*
X176586084Y-127484312D01*
X176586084Y-119050165D01*
X176586084Y-114550165D01*
X176337694Y-113949017D01*
X175878163Y-113488682D01*
X175277448Y-113239244D01*
X174627005Y-113238676D01*
X174025857Y-113487066D01*
X173565522Y-113946597D01*
X173316084Y-114547312D01*
X173315516Y-115197755D01*
X173563906Y-115798903D01*
X174023437Y-116259238D01*
X174624152Y-116508676D01*
X175274595Y-116509244D01*
X175875743Y-116260854D01*
X176336078Y-115801323D01*
X176585516Y-115200608D01*
X176586084Y-114550165D01*
X176586084Y-119050165D01*
X176337694Y-118449017D01*
X175878163Y-117988682D01*
X175277448Y-117739244D01*
X174627005Y-117738676D01*
X174025857Y-117987066D01*
X173565522Y-118446597D01*
X173316084Y-119047312D01*
X173315516Y-119697755D01*
X173563906Y-120298903D01*
X174023437Y-120759238D01*
X174624152Y-121008676D01*
X175274595Y-121009244D01*
X175875743Y-120760854D01*
X176336078Y-120301323D01*
X176585516Y-119700608D01*
X176586084Y-119050165D01*
X176586084Y-127484312D01*
X132435000Y-127484312D01*
X132435000Y-126386310D01*
X132435000Y-126133691D01*
X132435000Y-125995750D01*
X132276250Y-125837000D01*
X131627000Y-125837000D01*
X131627000Y-126736250D01*
X131785750Y-126895000D01*
X131926309Y-126895000D01*
X132159698Y-126798327D01*
X132338327Y-126619699D01*
X132435000Y-126386310D01*
X132435000Y-127484312D01*
X131373000Y-127484312D01*
X129693000Y-127484312D01*
X129693000Y-126645750D01*
X129693000Y-125979000D01*
X128772250Y-125979000D01*
X128613500Y-126137750D01*
X128613500Y-126295809D01*
X128710173Y-126529198D01*
X128888801Y-126707827D01*
X129122190Y-126804500D01*
X129374809Y-126804500D01*
X129534250Y-126804500D01*
X129693000Y-126645750D01*
X129693000Y-127484312D01*
X102635197Y-127484312D01*
X102635197Y-122897743D01*
X102462767Y-122480432D01*
X102143765Y-122160873D01*
X101726756Y-121987715D01*
X101275225Y-121987321D01*
X100857914Y-122159751D01*
X100538355Y-122478753D01*
X100365197Y-122895762D01*
X100364803Y-123347293D01*
X100537233Y-123764604D01*
X100856235Y-124084163D01*
X101273244Y-124257321D01*
X101724775Y-124257715D01*
X102142086Y-124085285D01*
X102461645Y-123766283D01*
X102634803Y-123349274D01*
X102635197Y-122897743D01*
X102635197Y-127484312D01*
X99185681Y-127484312D01*
X99185681Y-122353134D01*
X98595471Y-120924717D01*
X97503557Y-119830895D01*
X96076173Y-119238194D01*
X94530624Y-119236845D01*
X93102207Y-119827055D01*
X92008385Y-120918969D01*
X91415684Y-122346353D01*
X91414335Y-123891902D01*
X92004545Y-125320319D01*
X93096459Y-126414141D01*
X94523843Y-127006842D01*
X96069392Y-127008191D01*
X97497809Y-126417981D01*
X98591631Y-125326067D01*
X99184332Y-123898683D01*
X99185681Y-122353134D01*
X99185681Y-127484312D01*
X94365689Y-127484312D01*
X92633542Y-127139767D01*
X91222293Y-126196800D01*
X90279328Y-124785553D01*
X89934784Y-123053406D01*
X89934784Y-103333117D01*
X90128670Y-103372000D01*
X92904985Y-103372000D01*
X92928207Y-103491683D01*
X93067997Y-103704487D01*
X93279030Y-103846937D01*
X93528670Y-103897000D01*
X94988670Y-103897000D01*
X95230793Y-103850023D01*
X95443597Y-103710233D01*
X95586047Y-103499200D01*
X95636110Y-103249560D01*
X95636110Y-103237000D01*
X104116131Y-103237000D01*
X104057566Y-103295566D01*
X103876561Y-103566459D01*
X103813000Y-103886000D01*
X103813000Y-104302132D01*
X103413132Y-104702000D01*
X101614920Y-104702000D01*
X101489173Y-104510573D01*
X101278140Y-104368123D01*
X101028500Y-104318060D01*
X100393500Y-104318060D01*
X100151377Y-104365037D01*
X99947739Y-104498805D01*
X99754140Y-104368123D01*
X99504500Y-104318060D01*
X98869500Y-104318060D01*
X98627377Y-104365037D01*
X98414573Y-104504827D01*
X98272123Y-104715860D01*
X98222060Y-104965500D01*
X98222060Y-106108500D01*
X98269037Y-106350623D01*
X98275964Y-106361168D01*
X98272123Y-106366860D01*
X98222060Y-106616500D01*
X98222060Y-107759500D01*
X98269037Y-108001623D01*
X98302000Y-108051802D01*
X98302000Y-109600994D01*
X98301999Y-109601000D01*
X98358189Y-109883484D01*
X98369367Y-109939675D01*
X98561210Y-110226790D01*
X99020207Y-110685786D01*
X99020210Y-110685790D01*
X99137095Y-110763889D01*
X99137095Y-110763890D01*
X99239457Y-111278494D01*
X99470392Y-111624114D01*
X96460139Y-108613861D01*
X96448114Y-108605826D01*
X96608084Y-108157438D01*
X96580302Y-107602372D01*
X96421337Y-107218597D01*
X96179153Y-107149132D01*
X95999548Y-107328737D01*
X95999548Y-106969527D01*
X95930083Y-106727343D01*
X95406638Y-106540596D01*
X94851572Y-106568378D01*
X94467797Y-106727343D01*
X94398332Y-106969527D01*
X95198940Y-107770135D01*
X95999548Y-106969527D01*
X95999548Y-107328737D01*
X95378545Y-107949740D01*
X95392687Y-107963882D01*
X95213082Y-108143487D01*
X95198940Y-108129345D01*
X95184797Y-108143487D01*
X95005192Y-107963882D01*
X95019335Y-107949740D01*
X94218727Y-107149132D01*
X94068380Y-107192255D01*
X94068380Y-107187740D01*
X94021403Y-106945617D01*
X93881613Y-106732813D01*
X93670580Y-106590363D01*
X93420940Y-106540300D01*
X91896940Y-106540300D01*
X91654817Y-106587277D01*
X91442013Y-106727067D01*
X91299563Y-106938100D01*
X91249500Y-107187740D01*
X91249500Y-108711740D01*
X91296477Y-108953863D01*
X91436267Y-109166667D01*
X91647300Y-109309117D01*
X91827951Y-109345344D01*
X91475311Y-109697370D01*
X91262183Y-110210640D01*
X91261698Y-110766401D01*
X91473930Y-111280043D01*
X91866570Y-111673369D01*
X92074452Y-111759689D01*
X91868637Y-111844730D01*
X91475311Y-112237370D01*
X91262183Y-112750640D01*
X91261698Y-113306401D01*
X91473930Y-113820043D01*
X91866570Y-114213369D01*
X91873940Y-114216429D01*
X91873940Y-114670580D01*
X91933695Y-114970987D01*
X92103861Y-115225659D01*
X92771881Y-115893679D01*
X93026554Y-116063845D01*
X93326960Y-116123600D01*
X106413040Y-116123600D01*
X106713446Y-116063845D01*
X106713447Y-116063845D01*
X106968119Y-115893679D01*
X108355079Y-114506719D01*
X108525245Y-114252046D01*
X108585000Y-113951640D01*
X108585001Y-113951640D01*
X108585000Y-113951634D01*
X108585000Y-113010000D01*
X108585000Y-112920520D01*
X108585000Y-109495000D01*
X108814483Y-109495000D01*
X108820037Y-109523623D01*
X108959827Y-109736427D01*
X109170860Y-109878877D01*
X109420500Y-109928940D01*
X110055500Y-109928940D01*
X110297623Y-109881963D01*
X110508447Y-109743473D01*
X110584802Y-109819827D01*
X110818191Y-109916500D01*
X110976250Y-109916500D01*
X111135000Y-109757750D01*
X111135000Y-108837000D01*
X111115000Y-108837000D01*
X111115000Y-108583000D01*
X111135000Y-108583000D01*
X111135000Y-107662250D01*
X110976250Y-107503500D01*
X110818191Y-107503500D01*
X110584802Y-107600173D01*
X110507354Y-107677620D01*
X110305140Y-107541123D01*
X110283395Y-107536762D01*
X111325158Y-106495000D01*
X111948860Y-106495000D01*
X111948860Y-107587000D01*
X111954356Y-107615331D01*
X111939198Y-107600173D01*
X111705809Y-107503500D01*
X111547750Y-107503500D01*
X111389000Y-107662250D01*
X111389000Y-108583000D01*
X112055750Y-108583000D01*
X112214500Y-108424250D01*
X112214500Y-108264809D01*
X112214500Y-108095167D01*
X112346660Y-108184377D01*
X112596300Y-108234440D01*
X112685500Y-108234440D01*
X112685500Y-108264809D01*
X112685500Y-108424250D01*
X112844250Y-108583000D01*
X113511000Y-108583000D01*
X113511000Y-108563000D01*
X113765000Y-108563000D01*
X113765000Y-108583000D01*
X113785000Y-108583000D01*
X113785000Y-108837000D01*
X113765000Y-108837000D01*
X113765000Y-109757750D01*
X113923750Y-109916500D01*
X114081809Y-109916500D01*
X114315198Y-109819827D01*
X114392645Y-109742379D01*
X114594860Y-109878877D01*
X114844500Y-109928940D01*
X115214900Y-109928940D01*
X115214900Y-110009900D01*
X115274655Y-110310307D01*
X115444821Y-110564979D01*
X115523000Y-110643158D01*
X115523000Y-112783000D01*
X113511000Y-112783000D01*
X113511000Y-109757750D01*
X113511000Y-108837000D01*
X112844250Y-108837000D01*
X112685500Y-108995750D01*
X112685500Y-109155191D01*
X112685500Y-109407810D01*
X112782173Y-109641199D01*
X112960802Y-109819827D01*
X113194191Y-109916500D01*
X113352250Y-109916500D01*
X113511000Y-109757750D01*
X113511000Y-112783000D01*
X112214500Y-112783000D01*
X112214500Y-109407810D01*
X112214500Y-109155191D01*
X112214500Y-108995750D01*
X112055750Y-108837000D01*
X111389000Y-108837000D01*
X111389000Y-109757750D01*
X111547750Y-109916500D01*
X111705809Y-109916500D01*
X111939198Y-109819827D01*
X112117827Y-109641199D01*
X112214500Y-109407810D01*
X112214500Y-112783000D01*
X111473000Y-112783000D01*
X111473000Y-120087000D01*
X129707500Y-120087000D01*
X129707500Y-120586500D01*
X129767255Y-120886907D01*
X129937421Y-121141579D01*
X130635921Y-121840079D01*
X130738706Y-121908757D01*
X130738706Y-121908758D01*
X130602623Y-122110360D01*
X130599687Y-122125000D01*
X130408137Y-122125000D01*
X130348686Y-122065445D01*
X129986788Y-121915172D01*
X129594931Y-121914830D01*
X129232771Y-122064471D01*
X128955445Y-122341314D01*
X128805172Y-122703212D01*
X128804830Y-123095069D01*
X128950215Y-123446929D01*
X128793573Y-123549827D01*
X128651123Y-123760860D01*
X128601060Y-124010500D01*
X128601060Y-124645500D01*
X128648037Y-124887623D01*
X128786526Y-125098447D01*
X128710173Y-125174802D01*
X128613500Y-125408191D01*
X128613500Y-125566250D01*
X128772250Y-125725000D01*
X129693000Y-125725000D01*
X129693000Y-125705000D01*
X129947000Y-125705000D01*
X129947000Y-125725000D01*
X129967000Y-125725000D01*
X129967000Y-125979000D01*
X129947000Y-125979000D01*
X129947000Y-126645750D01*
X130105750Y-126804500D01*
X130265191Y-126804500D01*
X130517810Y-126804500D01*
X130750210Y-126708236D01*
X130840302Y-126798327D01*
X131073691Y-126895000D01*
X131214250Y-126895000D01*
X131373000Y-126736250D01*
X131373000Y-125837000D01*
X131353000Y-125837000D01*
X131353000Y-125583000D01*
X131373000Y-125583000D01*
X131373000Y-125563000D01*
X131627000Y-125563000D01*
X131627000Y-125583000D01*
X132276250Y-125583000D01*
X132435000Y-125424250D01*
X132435000Y-125286309D01*
X132435000Y-125155000D01*
X132453562Y-125155000D01*
X132452560Y-125160000D01*
X132452560Y-126260000D01*
X132499537Y-126502123D01*
X132639327Y-126714927D01*
X132850360Y-126857377D01*
X133100000Y-126907440D01*
X133700000Y-126907440D01*
X133942123Y-126860463D01*
X134154927Y-126720673D01*
X134297377Y-126509640D01*
X134347440Y-126260000D01*
X134347440Y-125160000D01*
X134346469Y-125155000D01*
X134459994Y-125155000D01*
X134460000Y-125155001D01*
X134460000Y-125155000D01*
X134742484Y-125098810D01*
X134798674Y-125087633D01*
X134798675Y-125087633D01*
X135085790Y-124895790D01*
X135295786Y-124685792D01*
X135295790Y-124685790D01*
X135295790Y-124685789D01*
X135487633Y-124398675D01*
X135487633Y-124398674D01*
X135498810Y-124342484D01*
X135555000Y-124060000D01*
X135555001Y-124060000D01*
X135555000Y-124059994D01*
X135555000Y-120728053D01*
X135794972Y-120808112D01*
X136245375Y-120776217D01*
X136513352Y-120665217D01*
X136527565Y-120582908D01*
X136566235Y-120621645D01*
X136983244Y-120794803D01*
X137434775Y-120795197D01*
X137852086Y-120622767D01*
X137892372Y-120582550D01*
X137906648Y-120665217D01*
X138334972Y-120808112D01*
X138785375Y-120776217D01*
X139053352Y-120665217D01*
X139067565Y-120582908D01*
X139106235Y-120621645D01*
X139523244Y-120794803D01*
X139974775Y-120795197D01*
X140385495Y-120625490D01*
X140793244Y-120794803D01*
X141244775Y-120795197D01*
X141655495Y-120625490D01*
X142063244Y-120794803D01*
X142514775Y-120795197D01*
X142925495Y-120625490D01*
X143333244Y-120794803D01*
X143784775Y-120795197D01*
X144195495Y-120625490D01*
X144603244Y-120794803D01*
X145054775Y-120795197D01*
X145465495Y-120625490D01*
X145873244Y-120794803D01*
X146324775Y-120795197D01*
X146735495Y-120625490D01*
X147143244Y-120794803D01*
X147594775Y-120795197D01*
X148012086Y-120622767D01*
X148331645Y-120303765D01*
X148504803Y-119886756D01*
X148505022Y-119635135D01*
X148637079Y-119503079D01*
X148807245Y-119248407D01*
X148807245Y-119248406D01*
X148867000Y-118948000D01*
X148867000Y-118779516D01*
X148895623Y-118773963D01*
X149108427Y-118634173D01*
X149250877Y-118423140D01*
X149300940Y-118173500D01*
X149300940Y-117538500D01*
X149253963Y-117296377D01*
X149115473Y-117085552D01*
X149191827Y-117009198D01*
X149288500Y-116775809D01*
X149288500Y-116617750D01*
X149288500Y-116046250D01*
X149288500Y-115888191D01*
X149191827Y-115654802D01*
X149013199Y-115476173D01*
X148779810Y-115379500D01*
X148527191Y-115379500D01*
X148367750Y-115379500D01*
X148209000Y-115538250D01*
X148209000Y-116205000D01*
X149129750Y-116205000D01*
X149288500Y-116046250D01*
X149288500Y-116617750D01*
X149129750Y-116459000D01*
X148209000Y-116459000D01*
X148209000Y-116479000D01*
X147955000Y-116479000D01*
X147955000Y-116459000D01*
X147935000Y-116459000D01*
X147935000Y-116205000D01*
X147955000Y-116205000D01*
X147955000Y-115538250D01*
X147796250Y-115379500D01*
X147636809Y-115379500D01*
X147443000Y-115379500D01*
X147443000Y-114991200D01*
X147542828Y-114750788D01*
X147543170Y-114358931D01*
X147393529Y-113996771D01*
X147116686Y-113719445D01*
X146754788Y-113569172D01*
X146362931Y-113568830D01*
X146000771Y-113718471D01*
X145795885Y-113922999D01*
X145592686Y-113719445D01*
X145230788Y-113569172D01*
X144838931Y-113568830D01*
X144476771Y-113718471D01*
X144271885Y-113922999D01*
X144068686Y-113719445D01*
X143706788Y-113569172D01*
X143314931Y-113568830D01*
X142952771Y-113718471D01*
X142747885Y-113922999D01*
X142544686Y-113719445D01*
X142182788Y-113569172D01*
X141790931Y-113568830D01*
X141428771Y-113718471D01*
X141223885Y-113922999D01*
X141020686Y-113719445D01*
X140658788Y-113569172D01*
X140266931Y-113568830D01*
X139904771Y-113718471D01*
X139699885Y-113922999D01*
X139496686Y-113719445D01*
X139134788Y-113569172D01*
X138742931Y-113568830D01*
X138380771Y-113718471D01*
X138103445Y-113995314D01*
X137953172Y-114357212D01*
X137952830Y-114749069D01*
X138053000Y-114991499D01*
X138053000Y-115379500D01*
X137859191Y-115379500D01*
X137699750Y-115379500D01*
X137541000Y-115538250D01*
X137541000Y-116205000D01*
X137561000Y-116205000D01*
X137561000Y-116459000D01*
X137541000Y-116459000D01*
X137541000Y-116479000D01*
X137306500Y-116479000D01*
X137306500Y-102215809D01*
X137306500Y-102057750D01*
X137147750Y-101899000D01*
X136227000Y-101899000D01*
X136227000Y-102565750D01*
X136385750Y-102724500D01*
X136545191Y-102724500D01*
X136797810Y-102724500D01*
X137031199Y-102627827D01*
X137209827Y-102449198D01*
X137306500Y-102215809D01*
X137306500Y-116479000D01*
X137287000Y-116479000D01*
X137287000Y-116459000D01*
X137287000Y-116205000D01*
X137287000Y-115538250D01*
X137128250Y-115379500D01*
X136968809Y-115379500D01*
X136716190Y-115379500D01*
X136482801Y-115476173D01*
X136304173Y-115654802D01*
X136207500Y-115888191D01*
X136207500Y-116046250D01*
X136366250Y-116205000D01*
X137287000Y-116205000D01*
X137287000Y-116459000D01*
X136366250Y-116459000D01*
X136207500Y-116617750D01*
X136207500Y-116775809D01*
X136304173Y-117009198D01*
X136381620Y-117086645D01*
X136245123Y-117288860D01*
X136195060Y-117538500D01*
X136195060Y-118173500D01*
X136242037Y-118415623D01*
X136367085Y-118605986D01*
X136085028Y-118511888D01*
X135973000Y-118519821D01*
X135634625Y-118543783D01*
X135366648Y-118654783D01*
X135352434Y-118737091D01*
X135313765Y-118698355D01*
X134944582Y-118545056D01*
X135026877Y-118423140D01*
X135076940Y-118173500D01*
X135076940Y-117538500D01*
X135029963Y-117296377D01*
X134891473Y-117085552D01*
X134967827Y-117009198D01*
X135064500Y-116775809D01*
X135064500Y-116617750D01*
X135064500Y-116046250D01*
X135064500Y-115888191D01*
X134967827Y-115654802D01*
X134789199Y-115476173D01*
X134555810Y-115379500D01*
X134303191Y-115379500D01*
X134143750Y-115379500D01*
X133985000Y-115538250D01*
X133985000Y-116205000D01*
X134905750Y-116205000D01*
X135064500Y-116046250D01*
X135064500Y-116617750D01*
X134905750Y-116459000D01*
X133985000Y-116459000D01*
X133985000Y-116479000D01*
X133731000Y-116479000D01*
X133731000Y-116459000D01*
X133731000Y-116205000D01*
X133731000Y-115538250D01*
X133572250Y-115379500D01*
X133412809Y-115379500D01*
X133160190Y-115379500D01*
X133096000Y-115406088D01*
X133031810Y-115379500D01*
X132779191Y-115379500D01*
X132619750Y-115379500D01*
X132461000Y-115538250D01*
X132461000Y-116205000D01*
X132810250Y-116205000D01*
X133381750Y-116205000D01*
X133731000Y-116205000D01*
X133731000Y-116459000D01*
X133381750Y-116459000D01*
X132810250Y-116459000D01*
X132461000Y-116459000D01*
X132461000Y-116479000D01*
X132207000Y-116479000D01*
X132207000Y-116459000D01*
X132187000Y-116459000D01*
X132187000Y-116205000D01*
X132207000Y-116205000D01*
X132207000Y-115538250D01*
X132048250Y-115379500D01*
X132039500Y-115379500D01*
X132039500Y-113925500D01*
X132039500Y-113030005D01*
X132039500Y-113030000D01*
X132039501Y-113030000D01*
X131979745Y-112729594D01*
X131809579Y-112474922D01*
X131809579Y-112474921D01*
X131809575Y-112474918D01*
X129341000Y-110006342D01*
X129341000Y-104890268D01*
X129341000Y-103969518D01*
X129341000Y-103715518D01*
X129341000Y-102794768D01*
X129182250Y-102636018D01*
X129024191Y-102636018D01*
X128790802Y-102732691D01*
X128612173Y-102911319D01*
X128515500Y-103144708D01*
X128515500Y-103397327D01*
X128515500Y-103556768D01*
X128674250Y-103715518D01*
X129341000Y-103715518D01*
X129341000Y-103969518D01*
X128674250Y-103969518D01*
X128515500Y-104128268D01*
X128515500Y-104287709D01*
X128515500Y-104540328D01*
X128612173Y-104773717D01*
X128790802Y-104952345D01*
X129024191Y-105049018D01*
X129182250Y-105049018D01*
X129341000Y-104890268D01*
X129341000Y-110006342D01*
X127110579Y-107775921D01*
X126855907Y-107605755D01*
X126555500Y-107546000D01*
X126056931Y-107546000D01*
X126234555Y-107368686D01*
X126384828Y-107006788D01*
X126385028Y-106777367D01*
X126426427Y-106750173D01*
X126568877Y-106539140D01*
X126618940Y-106289500D01*
X126618940Y-105654500D01*
X126571963Y-105412377D01*
X126433473Y-105201552D01*
X126509827Y-105125198D01*
X126606500Y-104891809D01*
X126606500Y-104733750D01*
X126447750Y-104575000D01*
X125527000Y-104575000D01*
X125527000Y-104595000D01*
X125273000Y-104595000D01*
X125273000Y-104575000D01*
X125253000Y-104575000D01*
X125253000Y-104321000D01*
X125273000Y-104321000D01*
X125273000Y-104301000D01*
X125527000Y-104301000D01*
X125527000Y-104321000D01*
X126447750Y-104321000D01*
X126473450Y-104295300D01*
X126502075Y-104295300D01*
X126511314Y-104304555D01*
X126873212Y-104454828D01*
X127265069Y-104455170D01*
X127627229Y-104305529D01*
X127904555Y-104028686D01*
X128054828Y-103666788D01*
X128055170Y-103274931D01*
X127906072Y-102914085D01*
X129014917Y-101805240D01*
X129014830Y-101905069D01*
X129164471Y-102267229D01*
X129441314Y-102544555D01*
X129726707Y-102663060D01*
X129595000Y-102794768D01*
X129595000Y-103715518D01*
X129615000Y-103715518D01*
X129615000Y-103969518D01*
X129595000Y-103969518D01*
X129595000Y-104890268D01*
X129753750Y-105049018D01*
X129911809Y-105049018D01*
X130145198Y-104952345D01*
X130222645Y-104874897D01*
X130424860Y-105011395D01*
X130674500Y-105061458D01*
X131309500Y-105061458D01*
X131551623Y-105014481D01*
X131764427Y-104874691D01*
X131906877Y-104663658D01*
X131956940Y-104414018D01*
X131956940Y-103271018D01*
X131909963Y-103028895D01*
X131896000Y-103007638D01*
X131896000Y-102727382D01*
X131914995Y-102714903D01*
X131914830Y-102905069D01*
X132064471Y-103267229D01*
X132341314Y-103544555D01*
X132703212Y-103694828D01*
X133095069Y-103695170D01*
X133457229Y-103545529D01*
X133734555Y-103268686D01*
X133884828Y-102906788D01*
X133884987Y-102724500D01*
X134054809Y-102724500D01*
X134214250Y-102724500D01*
X134373000Y-102565750D01*
X134373000Y-101899000D01*
X134353000Y-101899000D01*
X134353000Y-101795000D01*
X134893500Y-101795000D01*
X134893500Y-101899000D01*
X134627000Y-101899000D01*
X134627000Y-102565750D01*
X134785750Y-102724500D01*
X134945191Y-102724500D01*
X135197810Y-102724500D01*
X135300000Y-102682171D01*
X135402190Y-102724500D01*
X135654809Y-102724500D01*
X135814250Y-102724500D01*
X135973000Y-102565750D01*
X135973000Y-101899000D01*
X135953000Y-101899000D01*
X135953000Y-101645000D01*
X135973000Y-101645000D01*
X135973000Y-101625000D01*
X136227000Y-101625000D01*
X136227000Y-101645000D01*
X137147750Y-101645000D01*
X137306500Y-101486250D01*
X137306500Y-101328191D01*
X137209827Y-101094802D01*
X137132379Y-101017354D01*
X137151910Y-100988420D01*
X137350360Y-101122377D01*
X137600000Y-101172440D01*
X139000000Y-101172440D01*
X139242123Y-101125463D01*
X139454927Y-100985673D01*
X139597377Y-100774640D01*
X139647440Y-100525000D01*
X139647440Y-100295000D01*
X139630675Y-100208595D01*
X139647440Y-100125000D01*
X139647440Y-99895000D01*
X139630675Y-99808595D01*
X139647440Y-99725000D01*
X139647440Y-99495000D01*
X139630675Y-99408595D01*
X139647440Y-99325000D01*
X139647440Y-99095000D01*
X139630675Y-99008595D01*
X139647440Y-98925000D01*
X139647440Y-98695000D01*
X139630675Y-98608595D01*
X139647440Y-98525000D01*
X139647440Y-98295000D01*
X139630675Y-98208595D01*
X139647440Y-98125000D01*
X139647440Y-97895000D01*
X139630675Y-97808595D01*
X139647440Y-97725000D01*
X139647440Y-97495000D01*
X139630675Y-97408595D01*
X139647440Y-97325000D01*
X139647440Y-97095000D01*
X139630675Y-97008595D01*
X139647440Y-96925000D01*
X139647440Y-96695000D01*
X139630675Y-96608595D01*
X139647440Y-96525000D01*
X139647440Y-96295000D01*
X139630675Y-96208595D01*
X139647440Y-96125000D01*
X139647440Y-95895000D01*
X139630675Y-95808595D01*
X139647440Y-95725000D01*
X139647440Y-95495000D01*
X139630675Y-95408595D01*
X139647440Y-95325000D01*
X139647440Y-95095000D01*
X139630675Y-95008595D01*
X139647440Y-94925000D01*
X139647440Y-94695000D01*
X139630675Y-94608595D01*
X139647440Y-94525000D01*
X139647440Y-94295780D01*
X139651577Y-94294957D01*
X139651578Y-94294957D01*
X139895069Y-94295170D01*
X140257229Y-94145529D01*
X140534555Y-93868686D01*
X140684828Y-93506788D01*
X140685170Y-93114931D01*
X140535529Y-92752771D01*
X140258686Y-92475445D01*
X139896788Y-92325172D01*
X139516356Y-92324839D01*
X139460673Y-92240073D01*
X139249640Y-92097623D01*
X139000000Y-92047560D01*
X137600000Y-92047560D01*
X137478267Y-92071178D01*
X139762171Y-89787274D01*
X139737560Y-89910000D01*
X139737560Y-91310000D01*
X139784537Y-91552123D01*
X139924327Y-91764927D01*
X140135360Y-91907377D01*
X140385000Y-91957440D01*
X140615000Y-91957440D01*
X140701404Y-91940675D01*
X140785000Y-91957440D01*
X141015000Y-91957440D01*
X141101404Y-91940675D01*
X141114971Y-91943396D01*
X141114830Y-92105069D01*
X141264471Y-92467229D01*
X141541314Y-92744555D01*
X141903212Y-92894828D01*
X142295069Y-92895170D01*
X142657229Y-92745529D01*
X142697295Y-92705532D01*
X142780277Y-92829723D01*
X145065000Y-95114446D01*
X145065000Y-97705553D01*
X143180277Y-99590277D01*
X143020949Y-99828728D01*
X142965000Y-100110000D01*
X142965000Y-100575000D01*
X142358067Y-100575000D01*
X142258686Y-100475445D01*
X141896788Y-100325172D01*
X141504931Y-100324830D01*
X141142771Y-100474471D01*
X140865445Y-100751314D01*
X140715172Y-101113212D01*
X140715029Y-101276135D01*
X140698595Y-101279324D01*
X140615000Y-101262560D01*
X140385000Y-101262560D01*
X140142877Y-101309537D01*
X139930073Y-101449327D01*
X139787623Y-101660360D01*
X139737560Y-101910000D01*
X139737560Y-103310000D01*
X139784537Y-103552123D01*
X139924327Y-103764927D01*
X140135360Y-103907377D01*
X140385000Y-103957440D01*
X140615000Y-103957440D01*
X140701404Y-103940675D01*
X140785000Y-103957440D01*
X141015000Y-103957440D01*
X141101404Y-103940675D01*
X141185000Y-103957440D01*
X141415000Y-103957440D01*
X141501404Y-103940675D01*
X141585000Y-103957440D01*
X141765000Y-103957440D01*
X141765000Y-104755553D01*
X138380277Y-108140277D01*
X138220949Y-108378728D01*
X138165000Y-108660000D01*
X138165000Y-111910000D01*
X138220949Y-112191272D01*
X138380277Y-112429723D01*
X139180277Y-113229724D01*
X139418728Y-113389051D01*
X139700000Y-113445000D01*
X153950000Y-113445000D01*
X153950000Y-113444999D01*
X154231272Y-113389051D01*
X154469723Y-113229723D01*
X155719723Y-111979723D01*
X155719724Y-111979723D01*
X155879051Y-111741272D01*
X155934999Y-111460000D01*
X155935000Y-111460000D01*
X155935000Y-111214446D01*
X157204446Y-109945000D01*
X162500000Y-109945000D01*
X175300000Y-109945000D01*
X185202094Y-109945000D01*
X185202094Y-109944999D01*
X185483366Y-109889051D01*
X185721817Y-109729723D01*
X188455301Y-106996239D01*
X188603319Y-107057702D01*
X189194089Y-107058217D01*
X189564784Y-106905049D01*
X189564784Y-123053406D01*
M02*
