G04 (created by PCBNEW (2013-07-07 BZR 4022)-stable) date 26/08/2014 17:06:37*
%MOIN*%
G04 Gerber Fmt 3.4, Leading zero omitted, Abs format*
%FSLAX34Y34*%
G01*
G70*
G90*
G04 APERTURE LIST*
%ADD10C,0.00590551*%
%ADD11C,0.00393701*%
G04 APERTURE END LIST*
G54D10*
G54D11*
X106983Y-58953D02*
X73173Y-58953D01*
X108558Y-60528D02*
G75*
G03X106983Y-58953I-1575J0D01*
G74*
G01*
X108558Y-74668D02*
X108558Y-60528D01*
X106983Y-76243D02*
G75*
G03X108558Y-74668I0J1575D01*
G74*
G01*
X73173Y-76243D02*
X106983Y-76243D01*
X71598Y-74668D02*
G75*
G03X73173Y-76243I1575J0D01*
G74*
G01*
X71598Y-60528D02*
X71598Y-74668D01*
X73173Y-58953D02*
G75*
G03X71598Y-60528I0J-1575D01*
G74*
G01*
G54D10*
G36*
X72802Y-67540D02*
X71738Y-67540D01*
X71738Y-66900D01*
X72802Y-66900D01*
X72802Y-67540D01*
X72802Y-67540D01*
G37*
G36*
X72802Y-68298D02*
X71738Y-68298D01*
X71738Y-67658D01*
X72802Y-67658D01*
X72802Y-68298D01*
X72802Y-68298D01*
G37*
G36*
X73963Y-68229D02*
X73195Y-68229D01*
X73195Y-67996D01*
X73195Y-67989D01*
X73195Y-67977D01*
X73195Y-67969D01*
X73195Y-67741D01*
X73195Y-67733D01*
X73195Y-67721D01*
X73195Y-67713D01*
X73195Y-67485D01*
X73195Y-67477D01*
X73195Y-67465D01*
X73195Y-67457D01*
X73195Y-67229D01*
X73195Y-67221D01*
X73195Y-67209D01*
X73195Y-67201D01*
X73195Y-66969D01*
X73963Y-66969D01*
X73963Y-67201D01*
X73963Y-67209D01*
X73963Y-67221D01*
X73963Y-67229D01*
X73963Y-67457D01*
X73963Y-67465D01*
X73963Y-67477D01*
X73963Y-67485D01*
X73963Y-67713D01*
X73963Y-67721D01*
X73963Y-67733D01*
X73963Y-67741D01*
X73963Y-67969D01*
X73963Y-67977D01*
X73963Y-67989D01*
X73963Y-67996D01*
X73963Y-68229D01*
X73963Y-68229D01*
G37*
G36*
X73987Y-66891D02*
X73333Y-66891D01*
X73333Y-66845D01*
X73333Y-66837D01*
X73330Y-66830D01*
X73324Y-66825D01*
X73317Y-66822D01*
X73310Y-66822D01*
X71994Y-66822D01*
X71994Y-66230D01*
X73310Y-66230D01*
X73317Y-66230D01*
X73324Y-66227D01*
X73330Y-66222D01*
X73333Y-66215D01*
X73333Y-66207D01*
X73333Y-66024D01*
X73987Y-66024D01*
X73987Y-66891D01*
X73987Y-66891D01*
G37*
G36*
X73987Y-69174D02*
X73333Y-69174D01*
X73333Y-68991D01*
X73333Y-68983D01*
X73330Y-68976D01*
X73324Y-68970D01*
X73317Y-68967D01*
X73310Y-68967D01*
X71994Y-68967D01*
X71994Y-68376D01*
X73310Y-68376D01*
X73317Y-68376D01*
X73324Y-68373D01*
X73330Y-68368D01*
X73333Y-68361D01*
X73333Y-68353D01*
X73333Y-68307D01*
X73987Y-68307D01*
X73987Y-69174D01*
X73987Y-69174D01*
G37*
G36*
X74197Y-60429D02*
X74194Y-60655D01*
X74149Y-60854D01*
X74068Y-61035D01*
X73951Y-61201D01*
X73808Y-61338D01*
X73636Y-61447D01*
X73451Y-61518D01*
X73251Y-61554D01*
X73053Y-61550D01*
X72854Y-61506D01*
X72673Y-61427D01*
X72505Y-61310D01*
X72368Y-61168D01*
X72258Y-60997D01*
X72185Y-60813D01*
X72148Y-60612D01*
X72151Y-60415D01*
X72193Y-60215D01*
X72271Y-60034D01*
X72386Y-59865D01*
X72527Y-59727D01*
X72698Y-59615D01*
X72881Y-59542D01*
X73082Y-59503D01*
X73279Y-59505D01*
X73479Y-59546D01*
X73661Y-59622D01*
X73830Y-59736D01*
X73969Y-59876D01*
X74082Y-60047D01*
X74158Y-60229D01*
X74158Y-60231D01*
X74197Y-60429D01*
X74197Y-60429D01*
G37*
G36*
X74197Y-74569D02*
X74194Y-74795D01*
X74149Y-74994D01*
X74068Y-75175D01*
X73951Y-75341D01*
X73808Y-75478D01*
X73636Y-75587D01*
X73451Y-75658D01*
X73251Y-75694D01*
X73053Y-75690D01*
X72854Y-75646D01*
X72673Y-75567D01*
X72505Y-75450D01*
X72368Y-75308D01*
X72258Y-75137D01*
X72185Y-74953D01*
X72148Y-74752D01*
X72151Y-74555D01*
X72193Y-74355D01*
X72271Y-74174D01*
X72386Y-74005D01*
X72527Y-73867D01*
X72698Y-73755D01*
X72881Y-73682D01*
X73082Y-73643D01*
X73279Y-73645D01*
X73479Y-73686D01*
X73661Y-73762D01*
X73830Y-73876D01*
X73969Y-74016D01*
X74082Y-74187D01*
X74158Y-74369D01*
X74158Y-74371D01*
X74197Y-74569D01*
X74197Y-74569D01*
G37*
G36*
X75779Y-70356D02*
X75777Y-70450D01*
X75758Y-70535D01*
X75724Y-70610D01*
X75674Y-70682D01*
X75614Y-70739D01*
X75540Y-70786D01*
X75464Y-70816D01*
X75377Y-70831D01*
X75295Y-70829D01*
X75209Y-70810D01*
X75134Y-70777D01*
X75062Y-70727D01*
X75005Y-70668D01*
X74957Y-70594D01*
X74927Y-70518D01*
X74911Y-70431D01*
X74912Y-70350D01*
X74931Y-70263D01*
X74963Y-70188D01*
X75013Y-70116D01*
X75071Y-70058D01*
X75145Y-70010D01*
X75221Y-69980D01*
X75308Y-69963D01*
X75389Y-69964D01*
X75476Y-69981D01*
X75551Y-70013D01*
X75624Y-70062D01*
X75681Y-70120D01*
X75730Y-70194D01*
X75761Y-70269D01*
X75778Y-70354D01*
X75779Y-70356D01*
X75779Y-70356D01*
G37*
G36*
X75779Y-72127D02*
X75777Y-72222D01*
X75758Y-72307D01*
X75724Y-72382D01*
X75674Y-72454D01*
X75614Y-72510D01*
X75540Y-72558D01*
X75464Y-72587D01*
X75377Y-72602D01*
X75295Y-72601D01*
X75209Y-72582D01*
X75134Y-72549D01*
X75062Y-72499D01*
X75005Y-72440D01*
X74957Y-72366D01*
X74927Y-72290D01*
X74911Y-72203D01*
X74912Y-72121D01*
X74931Y-72035D01*
X74963Y-71960D01*
X75013Y-71887D01*
X75071Y-71830D01*
X75145Y-71782D01*
X75221Y-71751D01*
X75308Y-71735D01*
X75389Y-71735D01*
X75476Y-71753D01*
X75551Y-71785D01*
X75624Y-71834D01*
X75681Y-71892D01*
X75730Y-71966D01*
X75761Y-72041D01*
X75778Y-72126D01*
X75779Y-72127D01*
X75779Y-72127D01*
G37*
G36*
X76546Y-67933D02*
X76132Y-67933D01*
X76132Y-67622D01*
X76132Y-67614D01*
X76132Y-67582D01*
X76132Y-67574D01*
X76132Y-67263D01*
X76546Y-67263D01*
X76546Y-67574D01*
X76546Y-67582D01*
X76546Y-67614D01*
X76546Y-67622D01*
X76546Y-67933D01*
X76546Y-67933D01*
G37*
G36*
X77117Y-67933D02*
X76703Y-67933D01*
X76703Y-67622D01*
X76703Y-67614D01*
X76703Y-67582D01*
X76703Y-67574D01*
X76703Y-67263D01*
X77117Y-67263D01*
X77117Y-67574D01*
X77117Y-67582D01*
X77117Y-67614D01*
X77117Y-67622D01*
X77117Y-67933D01*
X77117Y-67933D01*
G37*
G36*
X78338Y-70356D02*
X78336Y-70450D01*
X78317Y-70535D01*
X78283Y-70610D01*
X78233Y-70682D01*
X78173Y-70739D01*
X78099Y-70786D01*
X78023Y-70816D01*
X77936Y-70831D01*
X77854Y-70829D01*
X77768Y-70810D01*
X77693Y-70777D01*
X77621Y-70727D01*
X77564Y-70668D01*
X77516Y-70594D01*
X77486Y-70518D01*
X77470Y-70431D01*
X77471Y-70350D01*
X77490Y-70263D01*
X77522Y-70188D01*
X77572Y-70116D01*
X77630Y-70058D01*
X77704Y-70010D01*
X77780Y-69980D01*
X77867Y-69963D01*
X77948Y-69964D01*
X78035Y-69981D01*
X78110Y-70013D01*
X78183Y-70062D01*
X78240Y-70120D01*
X78290Y-70194D01*
X78320Y-70269D01*
X78337Y-70354D01*
X78338Y-70356D01*
X78338Y-70356D01*
G37*
G36*
X78338Y-72127D02*
X78336Y-72222D01*
X78317Y-72307D01*
X78283Y-72382D01*
X78233Y-72454D01*
X78173Y-72510D01*
X78099Y-72558D01*
X78023Y-72587D01*
X77936Y-72602D01*
X77854Y-72601D01*
X77768Y-72582D01*
X77693Y-72549D01*
X77621Y-72499D01*
X77564Y-72440D01*
X77516Y-72366D01*
X77486Y-72290D01*
X77470Y-72203D01*
X77471Y-72121D01*
X77490Y-72035D01*
X77522Y-71960D01*
X77572Y-71887D01*
X77630Y-71830D01*
X77704Y-71782D01*
X77780Y-71751D01*
X77867Y-71735D01*
X77948Y-71735D01*
X78035Y-71753D01*
X78110Y-71785D01*
X78183Y-71834D01*
X78240Y-71892D01*
X78290Y-71966D01*
X78320Y-72041D01*
X78337Y-72126D01*
X78338Y-72127D01*
X78338Y-72127D01*
G37*
G36*
X78832Y-67743D02*
X78303Y-67743D01*
X78303Y-67414D01*
X78832Y-67414D01*
X78832Y-67743D01*
X78832Y-67743D01*
G37*
G36*
X78832Y-68343D02*
X78303Y-68343D01*
X78303Y-68014D01*
X78832Y-68014D01*
X78832Y-68343D01*
X78832Y-68343D01*
G37*
G36*
X79553Y-67729D02*
X79024Y-67729D01*
X79024Y-67400D01*
X79553Y-67400D01*
X79553Y-67729D01*
X79553Y-67729D01*
G37*
G36*
X79553Y-68329D02*
X79024Y-68329D01*
X79024Y-68000D01*
X79553Y-68000D01*
X79553Y-68329D01*
X79553Y-68329D01*
G37*
G36*
X80942Y-72094D02*
X80941Y-72167D01*
X80925Y-72235D01*
X80899Y-72293D01*
X80859Y-72350D01*
X80813Y-72393D01*
X80754Y-72431D01*
X80695Y-72454D01*
X80627Y-72466D01*
X80563Y-72464D01*
X80495Y-72449D01*
X80437Y-72424D01*
X80380Y-72384D01*
X80335Y-72339D01*
X80298Y-72280D01*
X80274Y-72221D01*
X80262Y-72152D01*
X80263Y-72089D01*
X80277Y-72021D01*
X80302Y-71963D01*
X80342Y-71905D01*
X80387Y-71861D01*
X80445Y-71822D01*
X80504Y-71799D01*
X80573Y-71786D01*
X80636Y-71786D01*
X80705Y-71800D01*
X80763Y-71824D01*
X80821Y-71864D01*
X80865Y-71908D01*
X80904Y-71967D01*
X80928Y-72025D01*
X80941Y-72092D01*
X80942Y-72094D01*
X80942Y-72094D01*
G37*
G36*
X80942Y-73094D02*
X80941Y-73167D01*
X80925Y-73235D01*
X80899Y-73293D01*
X80859Y-73350D01*
X80813Y-73393D01*
X80754Y-73431D01*
X80695Y-73454D01*
X80627Y-73466D01*
X80563Y-73464D01*
X80495Y-73449D01*
X80437Y-73424D01*
X80380Y-73384D01*
X80335Y-73339D01*
X80298Y-73280D01*
X80274Y-73221D01*
X80262Y-73152D01*
X80263Y-73089D01*
X80277Y-73021D01*
X80302Y-72963D01*
X80342Y-72905D01*
X80387Y-72861D01*
X80445Y-72822D01*
X80504Y-72799D01*
X80573Y-72786D01*
X80636Y-72786D01*
X80705Y-72800D01*
X80763Y-72824D01*
X80821Y-72864D01*
X80865Y-72908D01*
X80904Y-72967D01*
X80928Y-73025D01*
X80941Y-73092D01*
X80942Y-73094D01*
X80942Y-73094D01*
G37*
G36*
X80942Y-71465D02*
X80262Y-71465D01*
X80262Y-70786D01*
X80942Y-70786D01*
X80942Y-71465D01*
X80942Y-71465D01*
G37*
G36*
X81400Y-65146D02*
X81070Y-65146D01*
X81070Y-64617D01*
X81400Y-64617D01*
X81400Y-65146D01*
X81400Y-65146D01*
G37*
G36*
X81485Y-65849D02*
X80955Y-65849D01*
X80955Y-65519D01*
X81485Y-65519D01*
X81485Y-65849D01*
X81485Y-65849D01*
G37*
G36*
X81485Y-66449D02*
X80955Y-66449D01*
X80955Y-66119D01*
X81485Y-66119D01*
X81485Y-66449D01*
X81485Y-66449D01*
G37*
G36*
X81675Y-67036D02*
X81346Y-67036D01*
X81346Y-66506D01*
X81675Y-66506D01*
X81675Y-67036D01*
X81675Y-67036D01*
G37*
G36*
X81675Y-67626D02*
X81346Y-67626D01*
X81346Y-67097D01*
X81675Y-67097D01*
X81675Y-67626D01*
X81675Y-67626D01*
G37*
G36*
X81675Y-68256D02*
X81346Y-68256D01*
X81346Y-67727D01*
X81675Y-67727D01*
X81675Y-68256D01*
X81675Y-68256D01*
G37*
G36*
X81675Y-68847D02*
X81346Y-68847D01*
X81346Y-68317D01*
X81675Y-68317D01*
X81675Y-68847D01*
X81675Y-68847D01*
G37*
G36*
X81911Y-63296D02*
X81582Y-63296D01*
X81582Y-62766D01*
X81911Y-62766D01*
X81911Y-63296D01*
X81911Y-63296D01*
G37*
G36*
X81911Y-63886D02*
X81582Y-63886D01*
X81582Y-63357D01*
X81911Y-63357D01*
X81911Y-63886D01*
X81911Y-63886D01*
G37*
G36*
X81942Y-71094D02*
X81941Y-71167D01*
X81925Y-71235D01*
X81899Y-71293D01*
X81859Y-71350D01*
X81813Y-71393D01*
X81754Y-71431D01*
X81695Y-71454D01*
X81627Y-71466D01*
X81563Y-71464D01*
X81495Y-71449D01*
X81437Y-71424D01*
X81380Y-71384D01*
X81335Y-71339D01*
X81298Y-71280D01*
X81274Y-71221D01*
X81262Y-71152D01*
X81263Y-71089D01*
X81277Y-71021D01*
X81302Y-70963D01*
X81342Y-70905D01*
X81387Y-70861D01*
X81445Y-70822D01*
X81504Y-70799D01*
X81573Y-70786D01*
X81636Y-70786D01*
X81705Y-70800D01*
X81763Y-70824D01*
X81821Y-70864D01*
X81865Y-70908D01*
X81904Y-70967D01*
X81928Y-71025D01*
X81941Y-71092D01*
X81942Y-71094D01*
X81942Y-71094D01*
G37*
G36*
X81942Y-72094D02*
X81941Y-72167D01*
X81925Y-72235D01*
X81899Y-72293D01*
X81859Y-72350D01*
X81813Y-72393D01*
X81754Y-72431D01*
X81695Y-72454D01*
X81627Y-72466D01*
X81563Y-72464D01*
X81495Y-72449D01*
X81437Y-72424D01*
X81380Y-72384D01*
X81335Y-72339D01*
X81298Y-72280D01*
X81274Y-72221D01*
X81262Y-72152D01*
X81263Y-72089D01*
X81277Y-72021D01*
X81302Y-71963D01*
X81342Y-71905D01*
X81387Y-71861D01*
X81445Y-71822D01*
X81504Y-71799D01*
X81573Y-71786D01*
X81636Y-71786D01*
X81705Y-71800D01*
X81763Y-71824D01*
X81821Y-71864D01*
X81865Y-71908D01*
X81904Y-71967D01*
X81928Y-72025D01*
X81941Y-72092D01*
X81942Y-72094D01*
X81942Y-72094D01*
G37*
G36*
X81942Y-73094D02*
X81941Y-73167D01*
X81925Y-73235D01*
X81899Y-73293D01*
X81859Y-73350D01*
X81813Y-73393D01*
X81754Y-73431D01*
X81695Y-73454D01*
X81627Y-73466D01*
X81563Y-73464D01*
X81495Y-73449D01*
X81437Y-73424D01*
X81380Y-73384D01*
X81335Y-73339D01*
X81298Y-73280D01*
X81274Y-73221D01*
X81262Y-73152D01*
X81263Y-73089D01*
X81277Y-73021D01*
X81302Y-72963D01*
X81342Y-72905D01*
X81387Y-72861D01*
X81445Y-72822D01*
X81504Y-72799D01*
X81573Y-72786D01*
X81636Y-72786D01*
X81705Y-72800D01*
X81763Y-72824D01*
X81821Y-72864D01*
X81865Y-72908D01*
X81904Y-72967D01*
X81928Y-73025D01*
X81941Y-73092D01*
X81942Y-73094D01*
X81942Y-73094D01*
G37*
G36*
X82000Y-65146D02*
X81670Y-65146D01*
X81670Y-64617D01*
X82000Y-64617D01*
X82000Y-65146D01*
X82000Y-65146D01*
G37*
G36*
X82275Y-67036D02*
X81946Y-67036D01*
X81946Y-66506D01*
X82275Y-66506D01*
X82275Y-67036D01*
X82275Y-67036D01*
G37*
G36*
X82275Y-67626D02*
X81946Y-67626D01*
X81946Y-67097D01*
X82275Y-67097D01*
X82275Y-67626D01*
X82275Y-67626D01*
G37*
G36*
X82275Y-68256D02*
X81946Y-68256D01*
X81946Y-67727D01*
X82275Y-67727D01*
X82275Y-68256D01*
X82275Y-68256D01*
G37*
G36*
X82275Y-68847D02*
X81946Y-68847D01*
X81946Y-68317D01*
X82275Y-68317D01*
X82275Y-68847D01*
X82275Y-68847D01*
G37*
G36*
X82511Y-63296D02*
X82182Y-63296D01*
X82182Y-62766D01*
X82511Y-62766D01*
X82511Y-63296D01*
X82511Y-63296D01*
G37*
G36*
X82511Y-63886D02*
X82182Y-63886D01*
X82182Y-63357D01*
X82511Y-63357D01*
X82511Y-63886D01*
X82511Y-63886D01*
G37*
G36*
X82618Y-62062D02*
X82617Y-62117D01*
X82605Y-62169D01*
X82586Y-62212D01*
X82556Y-62255D01*
X82521Y-62288D01*
X82476Y-62316D01*
X82432Y-62334D01*
X82380Y-62343D01*
X82333Y-62342D01*
X82281Y-62330D01*
X82238Y-62311D01*
X82194Y-62281D01*
X82161Y-62247D01*
X82132Y-62202D01*
X82125Y-62185D01*
X82122Y-62178D01*
X82117Y-62172D01*
X82110Y-62169D01*
X82102Y-62169D01*
X82095Y-62172D01*
X82090Y-62178D01*
X82074Y-62212D01*
X82044Y-62255D01*
X82009Y-62288D01*
X81965Y-62316D01*
X81921Y-62334D01*
X81868Y-62343D01*
X81821Y-62342D01*
X81769Y-62330D01*
X81726Y-62311D01*
X81682Y-62281D01*
X81649Y-62247D01*
X81620Y-62202D01*
X81613Y-62185D01*
X81610Y-62178D01*
X81605Y-62172D01*
X81598Y-62169D01*
X81590Y-62169D01*
X81583Y-62172D01*
X81578Y-62178D01*
X81562Y-62212D01*
X81532Y-62255D01*
X81498Y-62288D01*
X81453Y-62316D01*
X81409Y-62334D01*
X81356Y-62343D01*
X81309Y-62342D01*
X81257Y-62330D01*
X81214Y-62311D01*
X81170Y-62281D01*
X81137Y-62247D01*
X81108Y-62202D01*
X81091Y-62159D01*
X81082Y-62106D01*
X81082Y-62059D01*
X81093Y-62007D01*
X81112Y-61964D01*
X81142Y-61919D01*
X81175Y-61887D01*
X81220Y-61857D01*
X81264Y-61840D01*
X81317Y-61830D01*
X81363Y-61830D01*
X81416Y-61841D01*
X81459Y-61859D01*
X81504Y-61889D01*
X81536Y-61922D01*
X81566Y-61967D01*
X81575Y-61988D01*
X81578Y-61995D01*
X81583Y-62000D01*
X81590Y-62003D01*
X81598Y-62003D01*
X81605Y-62000D01*
X81610Y-61995D01*
X81624Y-61964D01*
X81654Y-61919D01*
X81687Y-61887D01*
X81732Y-61857D01*
X81776Y-61840D01*
X81828Y-61830D01*
X81875Y-61830D01*
X81928Y-61841D01*
X81971Y-61859D01*
X82015Y-61889D01*
X82048Y-61922D01*
X82078Y-61967D01*
X82086Y-61988D01*
X82089Y-61995D01*
X82095Y-62000D01*
X82102Y-62003D01*
X82110Y-62003D01*
X82117Y-62000D01*
X82122Y-61995D01*
X82135Y-61964D01*
X82166Y-61919D01*
X82199Y-61887D01*
X82244Y-61857D01*
X82287Y-61840D01*
X82340Y-61830D01*
X82387Y-61830D01*
X82440Y-61841D01*
X82482Y-61859D01*
X82527Y-61889D01*
X82560Y-61922D01*
X82590Y-61967D01*
X82608Y-62010D01*
X82618Y-62061D01*
X82618Y-62062D01*
X82618Y-62062D01*
G37*
G36*
X82656Y-65394D02*
X82262Y-65394D01*
X82262Y-64920D01*
X82656Y-64920D01*
X82656Y-65394D01*
X82656Y-65394D01*
G37*
G36*
X83031Y-64528D02*
X82637Y-64528D01*
X82637Y-64054D01*
X83031Y-64054D01*
X83031Y-64528D01*
X83031Y-64528D01*
G37*
G36*
X83099Y-63132D02*
X82569Y-63132D01*
X82569Y-62802D01*
X83099Y-62802D01*
X83099Y-63132D01*
X83099Y-63132D01*
G37*
G36*
X83099Y-63732D02*
X82569Y-63732D01*
X82569Y-63402D01*
X83099Y-63402D01*
X83099Y-63732D01*
X83099Y-63732D01*
G37*
G36*
X83368Y-71563D02*
X83039Y-71563D01*
X83039Y-71034D01*
X83368Y-71034D01*
X83368Y-71563D01*
X83368Y-71563D01*
G37*
G36*
X83406Y-65394D02*
X83012Y-65394D01*
X83012Y-64920D01*
X83406Y-64920D01*
X83406Y-65394D01*
X83406Y-65394D01*
G37*
G36*
X83968Y-71563D02*
X83639Y-71563D01*
X83639Y-71034D01*
X83968Y-71034D01*
X83968Y-71563D01*
X83968Y-71563D01*
G37*
G36*
X84004Y-64746D02*
X83475Y-64746D01*
X83475Y-64417D01*
X84004Y-64417D01*
X84004Y-64746D01*
X84004Y-64746D01*
G37*
G36*
X84004Y-65346D02*
X83475Y-65346D01*
X83475Y-65017D01*
X84004Y-65017D01*
X84004Y-65346D01*
X84004Y-65346D01*
G37*
G36*
X84074Y-66851D02*
X83394Y-66851D01*
X83394Y-66612D01*
X84074Y-66612D01*
X84074Y-66851D01*
X84074Y-66851D01*
G37*
G36*
X84074Y-67166D02*
X83394Y-67166D01*
X83394Y-66927D01*
X84074Y-66927D01*
X84074Y-67166D01*
X84074Y-67166D01*
G37*
G36*
X84074Y-67481D02*
X83394Y-67481D01*
X83394Y-67242D01*
X84074Y-67242D01*
X84074Y-67481D01*
X84074Y-67481D01*
G37*
G36*
X84074Y-67796D02*
X83394Y-67796D01*
X83394Y-67557D01*
X84074Y-67557D01*
X84074Y-67796D01*
X84074Y-67796D01*
G37*
G36*
X84074Y-68111D02*
X83394Y-68111D01*
X83394Y-67872D01*
X84074Y-67872D01*
X84074Y-68111D01*
X84074Y-68111D01*
G37*
G36*
X84074Y-68426D02*
X83394Y-68426D01*
X83394Y-68187D01*
X84074Y-68187D01*
X84074Y-68426D01*
X84074Y-68426D01*
G37*
G36*
X84074Y-68741D02*
X83394Y-68741D01*
X83394Y-68502D01*
X84074Y-68502D01*
X84074Y-68741D01*
X84074Y-68741D01*
G37*
G36*
X84074Y-69056D02*
X83394Y-69056D01*
X83394Y-68817D01*
X84074Y-68817D01*
X84074Y-69056D01*
X84074Y-69056D01*
G37*
G36*
X84074Y-69371D02*
X83394Y-69371D01*
X83394Y-69132D01*
X84074Y-69132D01*
X84074Y-69371D01*
X84074Y-69371D01*
G37*
G36*
X84074Y-69686D02*
X83394Y-69686D01*
X83394Y-69447D01*
X84074Y-69447D01*
X84074Y-69686D01*
X84074Y-69686D01*
G37*
G36*
X84074Y-70001D02*
X83394Y-70001D01*
X83394Y-69762D01*
X84074Y-69762D01*
X84074Y-70001D01*
X84074Y-70001D01*
G37*
G36*
X84529Y-66396D02*
X84289Y-66396D01*
X84289Y-65717D01*
X84529Y-65717D01*
X84529Y-66396D01*
X84529Y-66396D01*
G37*
G36*
X84529Y-70896D02*
X84289Y-70896D01*
X84289Y-70217D01*
X84529Y-70217D01*
X84529Y-70896D01*
X84529Y-70896D01*
G37*
G36*
X84595Y-64746D02*
X84065Y-64746D01*
X84065Y-64417D01*
X84595Y-64417D01*
X84595Y-64746D01*
X84595Y-64746D01*
G37*
G36*
X84595Y-65346D02*
X84065Y-65346D01*
X84065Y-65017D01*
X84595Y-65017D01*
X84595Y-65346D01*
X84595Y-65346D01*
G37*
G36*
X84844Y-66396D02*
X84604Y-66396D01*
X84604Y-65717D01*
X84844Y-65717D01*
X84844Y-66396D01*
X84844Y-66396D01*
G37*
G36*
X84844Y-70896D02*
X84604Y-70896D01*
X84604Y-70217D01*
X84844Y-70217D01*
X84844Y-70896D01*
X84844Y-70896D01*
G37*
G36*
X84904Y-71563D02*
X84574Y-71563D01*
X84574Y-71034D01*
X84904Y-71034D01*
X84904Y-71563D01*
X84904Y-71563D01*
G37*
G36*
X85159Y-66396D02*
X84919Y-66396D01*
X84919Y-65717D01*
X85159Y-65717D01*
X85159Y-66396D01*
X85159Y-66396D01*
G37*
G36*
X85159Y-70896D02*
X84919Y-70896D01*
X84919Y-70217D01*
X85159Y-70217D01*
X85159Y-70896D01*
X85159Y-70896D01*
G37*
G36*
X85186Y-64746D02*
X84656Y-64746D01*
X84656Y-64417D01*
X85186Y-64417D01*
X85186Y-64746D01*
X85186Y-64746D01*
G37*
G36*
X85186Y-65346D02*
X84656Y-65346D01*
X84656Y-65017D01*
X85186Y-65017D01*
X85186Y-65346D01*
X85186Y-65346D01*
G37*
G36*
X85474Y-66396D02*
X85234Y-66396D01*
X85234Y-65717D01*
X85474Y-65717D01*
X85474Y-66396D01*
X85474Y-66396D01*
G37*
G36*
X85474Y-70896D02*
X85234Y-70896D01*
X85234Y-70217D01*
X85474Y-70217D01*
X85474Y-70896D01*
X85474Y-70896D01*
G37*
G36*
X85504Y-71563D02*
X85174Y-71563D01*
X85174Y-71034D01*
X85504Y-71034D01*
X85504Y-71563D01*
X85504Y-71563D01*
G37*
G36*
X85789Y-66396D02*
X85549Y-66396D01*
X85549Y-65717D01*
X85789Y-65717D01*
X85789Y-66396D01*
X85789Y-66396D01*
G37*
G36*
X85789Y-70896D02*
X85549Y-70896D01*
X85549Y-70217D01*
X85789Y-70217D01*
X85789Y-70896D01*
X85789Y-70896D01*
G37*
G36*
X86104Y-66396D02*
X85864Y-66396D01*
X85864Y-65717D01*
X86104Y-65717D01*
X86104Y-66396D01*
X86104Y-66396D01*
G37*
G36*
X86104Y-70896D02*
X85864Y-70896D01*
X85864Y-70217D01*
X86104Y-70217D01*
X86104Y-70896D01*
X86104Y-70896D01*
G37*
G36*
X86282Y-74083D02*
X85952Y-74083D01*
X85952Y-73554D01*
X86282Y-73554D01*
X86282Y-74083D01*
X86282Y-74083D01*
G37*
G36*
X86419Y-66396D02*
X86179Y-66396D01*
X86179Y-65717D01*
X86419Y-65717D01*
X86419Y-66396D01*
X86419Y-66396D01*
G37*
G36*
X86419Y-70896D02*
X86179Y-70896D01*
X86179Y-70217D01*
X86419Y-70217D01*
X86419Y-70896D01*
X86419Y-70896D01*
G37*
G36*
X86734Y-66396D02*
X86494Y-66396D01*
X86494Y-65717D01*
X86734Y-65717D01*
X86734Y-66396D01*
X86734Y-66396D01*
G37*
G36*
X86734Y-70896D02*
X86494Y-70896D01*
X86494Y-70217D01*
X86734Y-70217D01*
X86734Y-70896D01*
X86734Y-70896D01*
G37*
G36*
X86882Y-74083D02*
X86552Y-74083D01*
X86552Y-73554D01*
X86882Y-73554D01*
X86882Y-74083D01*
X86882Y-74083D01*
G37*
G36*
X87049Y-66396D02*
X86809Y-66396D01*
X86809Y-65717D01*
X87049Y-65717D01*
X87049Y-66396D01*
X87049Y-66396D01*
G37*
G36*
X87049Y-70896D02*
X86809Y-70896D01*
X86809Y-70217D01*
X87049Y-70217D01*
X87049Y-70896D01*
X87049Y-70896D01*
G37*
G36*
X87146Y-75551D02*
X84861Y-75551D01*
X84861Y-74605D01*
X87146Y-74605D01*
X87146Y-75551D01*
X87146Y-75551D01*
G37*
G36*
X87364Y-66396D02*
X87124Y-66396D01*
X87124Y-65717D01*
X87364Y-65717D01*
X87364Y-66396D01*
X87364Y-66396D01*
G37*
G36*
X87364Y-70896D02*
X87124Y-70896D01*
X87124Y-70217D01*
X87364Y-70217D01*
X87364Y-70896D01*
X87364Y-70896D01*
G37*
G36*
X87541Y-74083D02*
X87212Y-74083D01*
X87212Y-73554D01*
X87541Y-73554D01*
X87541Y-74083D01*
X87541Y-74083D01*
G37*
G36*
X87679Y-66396D02*
X87439Y-66396D01*
X87439Y-65717D01*
X87679Y-65717D01*
X87679Y-66396D01*
X87679Y-66396D01*
G37*
G36*
X87679Y-70896D02*
X87439Y-70896D01*
X87439Y-70217D01*
X87679Y-70217D01*
X87679Y-70896D01*
X87679Y-70896D01*
G37*
G36*
X87823Y-64746D02*
X87294Y-64746D01*
X87294Y-64417D01*
X87823Y-64417D01*
X87823Y-64746D01*
X87823Y-64746D01*
G37*
G36*
X87823Y-65346D02*
X87294Y-65346D01*
X87294Y-65017D01*
X87823Y-65017D01*
X87823Y-65346D01*
X87823Y-65346D01*
G37*
G36*
X88141Y-74083D02*
X87812Y-74083D01*
X87812Y-73554D01*
X88141Y-73554D01*
X88141Y-74083D01*
X88141Y-74083D01*
G37*
G36*
X88571Y-65337D02*
X88042Y-65337D01*
X88042Y-65007D01*
X88571Y-65007D01*
X88571Y-65337D01*
X88571Y-65337D01*
G37*
G36*
X88571Y-65937D02*
X88042Y-65937D01*
X88042Y-65607D01*
X88571Y-65607D01*
X88571Y-65937D01*
X88571Y-65937D01*
G37*
G36*
X88574Y-66851D02*
X87894Y-66851D01*
X87894Y-66612D01*
X88574Y-66612D01*
X88574Y-66851D01*
X88574Y-66851D01*
G37*
G36*
X88574Y-67166D02*
X87894Y-67166D01*
X87894Y-66927D01*
X88574Y-66927D01*
X88574Y-67166D01*
X88574Y-67166D01*
G37*
G36*
X88574Y-67481D02*
X87894Y-67481D01*
X87894Y-67242D01*
X88574Y-67242D01*
X88574Y-67481D01*
X88574Y-67481D01*
G37*
G36*
X88574Y-67796D02*
X87894Y-67796D01*
X87894Y-67557D01*
X88574Y-67557D01*
X88574Y-67796D01*
X88574Y-67796D01*
G37*
G36*
X88574Y-68111D02*
X87894Y-68111D01*
X87894Y-67872D01*
X88574Y-67872D01*
X88574Y-68111D01*
X88574Y-68111D01*
G37*
G36*
X88574Y-68426D02*
X87894Y-68426D01*
X87894Y-68187D01*
X88574Y-68187D01*
X88574Y-68426D01*
X88574Y-68426D01*
G37*
G36*
X88574Y-68741D02*
X87894Y-68741D01*
X87894Y-68502D01*
X88574Y-68502D01*
X88574Y-68741D01*
X88574Y-68741D01*
G37*
G36*
X88574Y-69056D02*
X87894Y-69056D01*
X87894Y-68817D01*
X88574Y-68817D01*
X88574Y-69056D01*
X88574Y-69056D01*
G37*
G36*
X88574Y-69371D02*
X87894Y-69371D01*
X87894Y-69132D01*
X88574Y-69132D01*
X88574Y-69371D01*
X88574Y-69371D01*
G37*
G36*
X88574Y-69686D02*
X87894Y-69686D01*
X87894Y-69447D01*
X88574Y-69447D01*
X88574Y-69686D01*
X88574Y-69686D01*
G37*
G36*
X88574Y-70001D02*
X87894Y-70001D01*
X87894Y-69762D01*
X88574Y-69762D01*
X88574Y-70001D01*
X88574Y-70001D01*
G37*
G36*
X89634Y-69786D02*
X89105Y-69786D01*
X89105Y-69456D01*
X89634Y-69456D01*
X89634Y-69786D01*
X89634Y-69786D01*
G37*
G36*
X89634Y-70386D02*
X89105Y-70386D01*
X89105Y-70056D01*
X89634Y-70056D01*
X89634Y-70386D01*
X89634Y-70386D01*
G37*
G36*
X90886Y-75551D02*
X88601Y-75551D01*
X88601Y-74605D01*
X90886Y-74605D01*
X90886Y-75551D01*
X90886Y-75551D01*
G37*
G36*
X91360Y-66957D02*
X91031Y-66957D01*
X91031Y-66428D01*
X91360Y-66428D01*
X91360Y-66957D01*
X91360Y-66957D01*
G37*
G36*
X91518Y-68729D02*
X91188Y-68729D01*
X91188Y-68199D01*
X91518Y-68199D01*
X91518Y-68729D01*
X91518Y-68729D01*
G37*
G36*
X91594Y-67972D02*
X91161Y-67972D01*
X91161Y-67740D01*
X91161Y-67732D01*
X91161Y-67720D01*
X91161Y-67712D01*
X91161Y-67484D01*
X91161Y-67476D01*
X91161Y-67464D01*
X91161Y-67456D01*
X91161Y-67224D01*
X91594Y-67224D01*
X91594Y-67456D01*
X91594Y-67464D01*
X91594Y-67476D01*
X91594Y-67484D01*
X91594Y-67712D01*
X91594Y-67720D01*
X91594Y-67732D01*
X91594Y-67740D01*
X91594Y-67972D01*
X91594Y-67972D01*
G37*
G36*
X91960Y-66957D02*
X91631Y-66957D01*
X91631Y-66428D01*
X91960Y-66428D01*
X91960Y-66957D01*
X91960Y-66957D01*
G37*
G36*
X92118Y-68729D02*
X91788Y-68729D01*
X91788Y-68199D01*
X92118Y-68199D01*
X92118Y-68729D01*
X92118Y-68729D01*
G37*
G36*
X92146Y-67972D02*
X91712Y-67972D01*
X91712Y-67740D01*
X91712Y-67732D01*
X91712Y-67720D01*
X91712Y-67712D01*
X91712Y-67484D01*
X91712Y-67476D01*
X91712Y-67464D01*
X91712Y-67456D01*
X91712Y-67224D01*
X92146Y-67224D01*
X92146Y-67456D01*
X92146Y-67464D01*
X92146Y-67476D01*
X92146Y-67484D01*
X92146Y-67712D01*
X92146Y-67720D01*
X92146Y-67732D01*
X92146Y-67740D01*
X92146Y-67972D01*
X92146Y-67972D01*
G37*
G36*
X92384Y-66957D02*
X92054Y-66957D01*
X92054Y-66428D01*
X92384Y-66428D01*
X92384Y-66957D01*
X92384Y-66957D01*
G37*
G36*
X92660Y-69437D02*
X92330Y-69437D01*
X92330Y-68908D01*
X92660Y-68908D01*
X92660Y-69437D01*
X92660Y-69437D01*
G37*
G36*
X92984Y-66957D02*
X92654Y-66957D01*
X92654Y-66428D01*
X92984Y-66428D01*
X92984Y-66957D01*
X92984Y-66957D01*
G37*
G36*
X93260Y-69437D02*
X92930Y-69437D01*
X92930Y-68908D01*
X93260Y-68908D01*
X93260Y-69437D01*
X93260Y-69437D01*
G37*
G36*
X95908Y-64536D02*
X95578Y-64536D01*
X95578Y-64006D01*
X95908Y-64006D01*
X95908Y-64536D01*
X95908Y-64536D01*
G37*
G36*
X95925Y-66067D02*
X95924Y-66139D01*
X95909Y-66205D01*
X95883Y-66263D01*
X95844Y-66319D01*
X95798Y-66362D01*
X95740Y-66399D01*
X95682Y-66422D01*
X95614Y-66433D01*
X95552Y-66432D01*
X95485Y-66417D01*
X95427Y-66392D01*
X95371Y-66353D01*
X95327Y-66308D01*
X95290Y-66250D01*
X95267Y-66192D01*
X95255Y-66124D01*
X95256Y-66062D01*
X95270Y-65995D01*
X95294Y-65937D01*
X95333Y-65880D01*
X95378Y-65837D01*
X95436Y-65799D01*
X95493Y-65776D01*
X95561Y-65763D01*
X95623Y-65763D01*
X95691Y-65777D01*
X95748Y-65801D01*
X95806Y-65840D01*
X95850Y-65884D01*
X95888Y-65942D01*
X95912Y-65999D01*
X95925Y-66065D01*
X95925Y-66067D01*
X95925Y-66067D01*
G37*
G36*
X95925Y-67067D02*
X95924Y-67139D01*
X95909Y-67205D01*
X95883Y-67263D01*
X95844Y-67319D01*
X95798Y-67362D01*
X95740Y-67399D01*
X95682Y-67422D01*
X95614Y-67433D01*
X95552Y-67432D01*
X95485Y-67417D01*
X95427Y-67392D01*
X95371Y-67353D01*
X95327Y-67308D01*
X95290Y-67250D01*
X95267Y-67192D01*
X95255Y-67124D01*
X95256Y-67062D01*
X95270Y-66995D01*
X95294Y-66937D01*
X95333Y-66880D01*
X95378Y-66837D01*
X95436Y-66799D01*
X95493Y-66776D01*
X95561Y-66763D01*
X95623Y-66763D01*
X95691Y-66777D01*
X95748Y-66801D01*
X95806Y-66840D01*
X95850Y-66884D01*
X95888Y-66942D01*
X95912Y-66999D01*
X95925Y-67065D01*
X95925Y-67067D01*
X95925Y-67067D01*
G37*
G36*
X95925Y-68067D02*
X95924Y-68139D01*
X95909Y-68205D01*
X95883Y-68263D01*
X95844Y-68319D01*
X95798Y-68362D01*
X95740Y-68399D01*
X95682Y-68422D01*
X95614Y-68433D01*
X95552Y-68432D01*
X95485Y-68417D01*
X95427Y-68392D01*
X95371Y-68353D01*
X95327Y-68308D01*
X95290Y-68250D01*
X95267Y-68192D01*
X95255Y-68124D01*
X95256Y-68062D01*
X95270Y-67995D01*
X95294Y-67937D01*
X95333Y-67880D01*
X95378Y-67837D01*
X95436Y-67799D01*
X95493Y-67776D01*
X95561Y-67763D01*
X95623Y-67763D01*
X95691Y-67777D01*
X95748Y-67801D01*
X95806Y-67840D01*
X95850Y-67884D01*
X95888Y-67942D01*
X95912Y-67999D01*
X95925Y-68065D01*
X95925Y-68067D01*
X95925Y-68067D01*
G37*
G36*
X95925Y-69067D02*
X95924Y-69139D01*
X95909Y-69205D01*
X95883Y-69263D01*
X95844Y-69319D01*
X95798Y-69362D01*
X95740Y-69399D01*
X95682Y-69422D01*
X95614Y-69433D01*
X95552Y-69432D01*
X95485Y-69417D01*
X95427Y-69392D01*
X95371Y-69353D01*
X95327Y-69308D01*
X95290Y-69250D01*
X95267Y-69192D01*
X95255Y-69124D01*
X95256Y-69062D01*
X95270Y-68995D01*
X95294Y-68937D01*
X95333Y-68880D01*
X95378Y-68837D01*
X95436Y-68799D01*
X95493Y-68776D01*
X95561Y-68763D01*
X95623Y-68763D01*
X95691Y-68777D01*
X95748Y-68801D01*
X95806Y-68840D01*
X95850Y-68884D01*
X95888Y-68942D01*
X95912Y-68999D01*
X95925Y-69065D01*
X95925Y-69067D01*
X95925Y-69067D01*
G37*
G36*
X96508Y-64536D02*
X96178Y-64536D01*
X96178Y-64006D01*
X96508Y-64006D01*
X96508Y-64536D01*
X96508Y-64536D01*
G37*
G36*
X96911Y-63965D02*
X96582Y-63965D01*
X96582Y-63436D01*
X96911Y-63436D01*
X96911Y-63965D01*
X96911Y-63965D01*
G37*
G36*
X96911Y-64556D02*
X96582Y-64556D01*
X96582Y-64026D01*
X96911Y-64026D01*
X96911Y-64556D01*
X96911Y-64556D01*
G37*
G36*
X97511Y-63965D02*
X97182Y-63965D01*
X97182Y-63436D01*
X97511Y-63436D01*
X97511Y-63965D01*
X97511Y-63965D01*
G37*
G36*
X97511Y-64556D02*
X97182Y-64556D01*
X97182Y-64026D01*
X97511Y-64026D01*
X97511Y-64556D01*
X97511Y-64556D01*
G37*
G36*
X97581Y-63374D02*
X97251Y-63374D01*
X97251Y-62845D01*
X97581Y-62845D01*
X97581Y-63374D01*
X97581Y-63374D01*
G37*
G36*
X97974Y-67193D02*
X97645Y-67193D01*
X97645Y-66664D01*
X97974Y-66664D01*
X97974Y-67193D01*
X97974Y-67193D01*
G37*
G36*
X97974Y-67902D02*
X97645Y-67902D01*
X97645Y-67373D01*
X97974Y-67373D01*
X97974Y-67902D01*
X97974Y-67902D01*
G37*
G36*
X98181Y-63374D02*
X97851Y-63374D01*
X97851Y-62845D01*
X98181Y-62845D01*
X98181Y-63374D01*
X98181Y-63374D01*
G37*
G36*
X98574Y-67193D02*
X98245Y-67193D01*
X98245Y-66664D01*
X98574Y-66664D01*
X98574Y-67193D01*
X98574Y-67193D01*
G37*
G36*
X98574Y-67902D02*
X98245Y-67902D01*
X98245Y-67373D01*
X98574Y-67373D01*
X98574Y-67902D01*
X98574Y-67902D01*
G37*
G36*
X98880Y-63374D02*
X98550Y-63374D01*
X98550Y-62845D01*
X98880Y-62845D01*
X98880Y-63374D01*
X98880Y-63374D01*
G37*
G36*
X99480Y-63374D02*
X99150Y-63374D01*
X99150Y-62845D01*
X99480Y-62845D01*
X99480Y-63374D01*
X99480Y-63374D01*
G37*
G36*
X99904Y-63374D02*
X99574Y-63374D01*
X99574Y-62845D01*
X99904Y-62845D01*
X99904Y-63374D01*
X99904Y-63374D01*
G37*
G36*
X100504Y-63374D02*
X100174Y-63374D01*
X100174Y-62845D01*
X100504Y-62845D01*
X100504Y-63374D01*
X100504Y-63374D01*
G37*
G36*
X100528Y-64932D02*
X100527Y-65018D01*
X100510Y-65096D01*
X100479Y-65164D01*
X100433Y-65229D01*
X100379Y-65280D01*
X100312Y-65323D01*
X100242Y-65350D01*
X100163Y-65364D01*
X100089Y-65363D01*
X100011Y-65345D01*
X99943Y-65316D01*
X99877Y-65270D01*
X99825Y-65217D01*
X99782Y-65149D01*
X99755Y-65080D01*
X99740Y-65001D01*
X99741Y-64927D01*
X99758Y-64848D01*
X99787Y-64780D01*
X99832Y-64714D01*
X99885Y-64662D01*
X99953Y-64618D01*
X100021Y-64590D01*
X100100Y-64575D01*
X100174Y-64576D01*
X100253Y-64592D01*
X100321Y-64620D01*
X100388Y-64666D01*
X100440Y-64718D01*
X100485Y-64785D01*
X100513Y-64853D01*
X100528Y-64932D01*
X100528Y-64932D01*
G37*
G36*
X100528Y-65932D02*
X100527Y-66018D01*
X100510Y-66096D01*
X100479Y-66164D01*
X100433Y-66229D01*
X100379Y-66280D01*
X100312Y-66323D01*
X100242Y-66350D01*
X100163Y-66364D01*
X100089Y-66363D01*
X100011Y-66345D01*
X99943Y-66316D01*
X99877Y-66270D01*
X99825Y-66217D01*
X99782Y-66149D01*
X99755Y-66080D01*
X99740Y-66001D01*
X99741Y-65927D01*
X99758Y-65848D01*
X99787Y-65780D01*
X99832Y-65714D01*
X99885Y-65662D01*
X99953Y-65618D01*
X100021Y-65590D01*
X100100Y-65575D01*
X100174Y-65576D01*
X100253Y-65592D01*
X100321Y-65620D01*
X100388Y-65666D01*
X100440Y-65718D01*
X100485Y-65785D01*
X100513Y-65853D01*
X100528Y-65932D01*
X100528Y-65932D01*
G37*
G36*
X101528Y-64932D02*
X101527Y-65018D01*
X101510Y-65096D01*
X101479Y-65164D01*
X101433Y-65229D01*
X101379Y-65280D01*
X101312Y-65323D01*
X101242Y-65350D01*
X101163Y-65364D01*
X101089Y-65363D01*
X101011Y-65345D01*
X100943Y-65316D01*
X100877Y-65270D01*
X100825Y-65217D01*
X100782Y-65149D01*
X100755Y-65080D01*
X100740Y-65001D01*
X100741Y-64927D01*
X100758Y-64848D01*
X100787Y-64780D01*
X100832Y-64714D01*
X100885Y-64662D01*
X100953Y-64618D01*
X101021Y-64590D01*
X101100Y-64575D01*
X101174Y-64576D01*
X101253Y-64592D01*
X101321Y-64620D01*
X101388Y-64666D01*
X101440Y-64718D01*
X101485Y-64785D01*
X101513Y-64853D01*
X101528Y-64932D01*
X101528Y-64932D01*
G37*
G36*
X101528Y-65932D02*
X101527Y-66018D01*
X101510Y-66096D01*
X101479Y-66164D01*
X101433Y-66229D01*
X101379Y-66280D01*
X101312Y-66323D01*
X101242Y-66350D01*
X101163Y-66364D01*
X101089Y-66363D01*
X101011Y-66345D01*
X100943Y-66316D01*
X100877Y-66270D01*
X100825Y-66217D01*
X100782Y-66149D01*
X100755Y-66080D01*
X100740Y-66001D01*
X100741Y-65927D01*
X100758Y-65848D01*
X100787Y-65780D01*
X100832Y-65714D01*
X100885Y-65662D01*
X100953Y-65618D01*
X101021Y-65590D01*
X101100Y-65575D01*
X101174Y-65576D01*
X101253Y-65592D01*
X101321Y-65620D01*
X101388Y-65666D01*
X101440Y-65718D01*
X101485Y-65785D01*
X101513Y-65853D01*
X101528Y-65932D01*
X101528Y-65932D01*
G37*
G36*
X102528Y-64932D02*
X102527Y-65018D01*
X102510Y-65096D01*
X102479Y-65164D01*
X102433Y-65229D01*
X102379Y-65280D01*
X102312Y-65323D01*
X102242Y-65350D01*
X102163Y-65364D01*
X102089Y-65363D01*
X102011Y-65345D01*
X101943Y-65316D01*
X101877Y-65270D01*
X101825Y-65217D01*
X101782Y-65149D01*
X101755Y-65080D01*
X101740Y-65001D01*
X101741Y-64927D01*
X101758Y-64848D01*
X101787Y-64780D01*
X101832Y-64714D01*
X101885Y-64662D01*
X101953Y-64618D01*
X102021Y-64590D01*
X102100Y-64575D01*
X102174Y-64576D01*
X102253Y-64592D01*
X102321Y-64620D01*
X102388Y-64666D01*
X102440Y-64718D01*
X102485Y-64785D01*
X102513Y-64853D01*
X102528Y-64932D01*
X102528Y-64932D01*
G37*
G36*
X102528Y-65932D02*
X102527Y-66018D01*
X102510Y-66096D01*
X102479Y-66164D01*
X102433Y-66229D01*
X102379Y-66280D01*
X102312Y-66323D01*
X102242Y-66350D01*
X102163Y-66364D01*
X102089Y-66363D01*
X102011Y-66345D01*
X101943Y-66316D01*
X101877Y-66270D01*
X101825Y-66217D01*
X101782Y-66149D01*
X101755Y-66080D01*
X101740Y-66001D01*
X101741Y-65927D01*
X101758Y-65848D01*
X101787Y-65780D01*
X101832Y-65714D01*
X101885Y-65662D01*
X101953Y-65618D01*
X102021Y-65590D01*
X102100Y-65575D01*
X102174Y-65576D01*
X102253Y-65592D01*
X102321Y-65620D01*
X102388Y-65666D01*
X102440Y-65718D01*
X102485Y-65785D01*
X102513Y-65853D01*
X102528Y-65932D01*
X102528Y-65932D01*
G37*
G36*
X103528Y-64932D02*
X103527Y-65018D01*
X103510Y-65096D01*
X103479Y-65164D01*
X103433Y-65229D01*
X103379Y-65280D01*
X103312Y-65323D01*
X103242Y-65350D01*
X103163Y-65364D01*
X103089Y-65363D01*
X103011Y-65345D01*
X102943Y-65316D01*
X102877Y-65270D01*
X102825Y-65217D01*
X102782Y-65149D01*
X102755Y-65080D01*
X102740Y-65001D01*
X102741Y-64927D01*
X102758Y-64848D01*
X102787Y-64780D01*
X102832Y-64714D01*
X102885Y-64662D01*
X102953Y-64618D01*
X103021Y-64590D01*
X103100Y-64575D01*
X103174Y-64576D01*
X103253Y-64592D01*
X103321Y-64620D01*
X103388Y-64666D01*
X103440Y-64718D01*
X103485Y-64785D01*
X103513Y-64853D01*
X103528Y-64932D01*
X103528Y-64932D01*
G37*
G36*
X103528Y-65932D02*
X103527Y-66018D01*
X103510Y-66096D01*
X103479Y-66164D01*
X103433Y-66229D01*
X103379Y-66280D01*
X103312Y-66323D01*
X103242Y-66350D01*
X103163Y-66364D01*
X103089Y-66363D01*
X103011Y-66345D01*
X102943Y-66316D01*
X102877Y-66270D01*
X102825Y-66217D01*
X102782Y-66149D01*
X102755Y-66080D01*
X102740Y-66001D01*
X102741Y-65927D01*
X102758Y-65848D01*
X102787Y-65780D01*
X102832Y-65714D01*
X102885Y-65662D01*
X102953Y-65618D01*
X103021Y-65590D01*
X103100Y-65575D01*
X103174Y-65576D01*
X103253Y-65592D01*
X103321Y-65620D01*
X103388Y-65666D01*
X103440Y-65718D01*
X103485Y-65785D01*
X103513Y-65853D01*
X103528Y-65932D01*
X103528Y-65932D01*
G37*
G36*
X105726Y-68682D02*
X105725Y-68785D01*
X105704Y-68878D01*
X105667Y-68960D01*
X105612Y-69038D01*
X105547Y-69100D01*
X105466Y-69151D01*
X105383Y-69184D01*
X105289Y-69200D01*
X105199Y-69198D01*
X105105Y-69178D01*
X105023Y-69142D01*
X104945Y-69087D01*
X104882Y-69023D01*
X104830Y-68942D01*
X104798Y-68859D01*
X104780Y-68765D01*
X104781Y-68675D01*
X104801Y-68581D01*
X104837Y-68499D01*
X104891Y-68420D01*
X104955Y-68358D01*
X105035Y-68305D01*
X105118Y-68271D01*
X105212Y-68253D01*
X105301Y-68254D01*
X105396Y-68273D01*
X105478Y-68308D01*
X105558Y-68362D01*
X105620Y-68425D01*
X105674Y-68505D01*
X105708Y-68587D01*
X105726Y-68680D01*
X105726Y-68682D01*
X105726Y-68682D01*
G37*
G36*
X105726Y-70060D02*
X105725Y-70163D01*
X105704Y-70256D01*
X105667Y-70338D01*
X105612Y-70416D01*
X105547Y-70478D01*
X105466Y-70529D01*
X105383Y-70561D01*
X105289Y-70578D01*
X105199Y-70576D01*
X105105Y-70556D01*
X105023Y-70520D01*
X104945Y-70465D01*
X104882Y-70401D01*
X104830Y-70320D01*
X104798Y-70237D01*
X104780Y-70143D01*
X104781Y-70053D01*
X104801Y-69959D01*
X104837Y-69877D01*
X104891Y-69798D01*
X104955Y-69735D01*
X105035Y-69683D01*
X105118Y-69649D01*
X105212Y-69631D01*
X105301Y-69632D01*
X105396Y-69651D01*
X105478Y-69686D01*
X105558Y-69740D01*
X105620Y-69803D01*
X105674Y-69883D01*
X105708Y-69965D01*
X105726Y-70058D01*
X105726Y-70060D01*
X105726Y-70060D01*
G37*
G36*
X105726Y-71438D02*
X105725Y-71541D01*
X105704Y-71634D01*
X105667Y-71716D01*
X105612Y-71794D01*
X105547Y-71856D01*
X105466Y-71907D01*
X105383Y-71939D01*
X105289Y-71956D01*
X105199Y-71954D01*
X105105Y-71934D01*
X105023Y-71898D01*
X104945Y-71843D01*
X104882Y-71779D01*
X104830Y-71698D01*
X104798Y-71615D01*
X104780Y-71521D01*
X104781Y-71431D01*
X104801Y-71337D01*
X104837Y-71255D01*
X104891Y-71176D01*
X104955Y-71113D01*
X105035Y-71061D01*
X105118Y-71027D01*
X105212Y-71009D01*
X105301Y-71010D01*
X105396Y-71029D01*
X105478Y-71064D01*
X105558Y-71118D01*
X105620Y-71181D01*
X105674Y-71261D01*
X105708Y-71343D01*
X105726Y-71436D01*
X105726Y-71438D01*
X105726Y-71438D01*
G37*
G36*
X105730Y-63674D02*
X105728Y-63777D01*
X105707Y-63870D01*
X105671Y-63952D01*
X105616Y-64030D01*
X105551Y-64092D01*
X105470Y-64144D01*
X105386Y-64176D01*
X105292Y-64193D01*
X105202Y-64191D01*
X105109Y-64170D01*
X105027Y-64134D01*
X104948Y-64080D01*
X104886Y-64015D01*
X104834Y-63935D01*
X104801Y-63851D01*
X104784Y-63757D01*
X104785Y-63668D01*
X104805Y-63574D01*
X104840Y-63492D01*
X104894Y-63412D01*
X104958Y-63350D01*
X105039Y-63297D01*
X105121Y-63264D01*
X105216Y-63246D01*
X105305Y-63247D01*
X105399Y-63266D01*
X105481Y-63300D01*
X105561Y-63354D01*
X105624Y-63417D01*
X105677Y-63498D01*
X105711Y-63580D01*
X105730Y-63673D01*
X105730Y-63674D01*
X105730Y-63674D01*
G37*
G36*
X105730Y-65052D02*
X105728Y-65155D01*
X105707Y-65248D01*
X105671Y-65330D01*
X105616Y-65408D01*
X105551Y-65470D01*
X105470Y-65522D01*
X105386Y-65554D01*
X105292Y-65571D01*
X105202Y-65569D01*
X105109Y-65548D01*
X105027Y-65512D01*
X104948Y-65458D01*
X104886Y-65393D01*
X104834Y-65313D01*
X104801Y-65229D01*
X104784Y-65135D01*
X104785Y-65046D01*
X104805Y-64952D01*
X104840Y-64870D01*
X104894Y-64790D01*
X104958Y-64728D01*
X105039Y-64675D01*
X105121Y-64642D01*
X105216Y-64624D01*
X105305Y-64624D01*
X105399Y-64644D01*
X105481Y-64678D01*
X105561Y-64732D01*
X105624Y-64795D01*
X105677Y-64876D01*
X105711Y-64958D01*
X105730Y-65051D01*
X105730Y-65052D01*
X105730Y-65052D01*
G37*
G36*
X106509Y-73022D02*
X106180Y-73022D01*
X106180Y-72493D01*
X106509Y-72493D01*
X106509Y-73022D01*
X106509Y-73022D01*
G37*
G36*
X107109Y-73022D02*
X106780Y-73022D01*
X106780Y-72493D01*
X107109Y-72493D01*
X107109Y-73022D01*
X107109Y-73022D01*
G37*
G36*
X108007Y-60429D02*
X108004Y-60655D01*
X107959Y-60854D01*
X107878Y-61035D01*
X107761Y-61201D01*
X107618Y-61338D01*
X107446Y-61447D01*
X107261Y-61518D01*
X107061Y-61554D01*
X106863Y-61550D01*
X106664Y-61506D01*
X106483Y-61427D01*
X106315Y-61310D01*
X106178Y-61168D01*
X106068Y-60997D01*
X105995Y-60813D01*
X105958Y-60612D01*
X105961Y-60415D01*
X106003Y-60215D01*
X106081Y-60034D01*
X106196Y-59865D01*
X106337Y-59727D01*
X106508Y-59615D01*
X106691Y-59542D01*
X106892Y-59503D01*
X107089Y-59505D01*
X107289Y-59546D01*
X107471Y-59622D01*
X107640Y-59736D01*
X107779Y-59876D01*
X107892Y-60047D01*
X107968Y-60229D01*
X107968Y-60231D01*
X108007Y-60429D01*
X108007Y-60429D01*
G37*
G36*
X108007Y-74569D02*
X108004Y-74795D01*
X107959Y-74994D01*
X107878Y-75175D01*
X107761Y-75341D01*
X107618Y-75478D01*
X107446Y-75587D01*
X107261Y-75658D01*
X107061Y-75694D01*
X106863Y-75690D01*
X106664Y-75646D01*
X106483Y-75567D01*
X106315Y-75450D01*
X106178Y-75308D01*
X106068Y-75137D01*
X105995Y-74953D01*
X105958Y-74752D01*
X105961Y-74555D01*
X106003Y-74355D01*
X106081Y-74174D01*
X106196Y-74005D01*
X106337Y-73867D01*
X106508Y-73755D01*
X106691Y-73682D01*
X106892Y-73643D01*
X107089Y-73645D01*
X107289Y-73686D01*
X107471Y-73762D01*
X107640Y-73876D01*
X107779Y-74016D01*
X107892Y-74187D01*
X107968Y-74369D01*
X107968Y-74371D01*
X108007Y-74569D01*
X108007Y-74569D01*
G37*
G36*
X108482Y-68682D02*
X108481Y-68785D01*
X108460Y-68878D01*
X108423Y-68960D01*
X108368Y-69038D01*
X108303Y-69100D01*
X108222Y-69151D01*
X108139Y-69184D01*
X108044Y-69200D01*
X107955Y-69198D01*
X107861Y-69178D01*
X107779Y-69142D01*
X107701Y-69087D01*
X107638Y-69023D01*
X107586Y-68942D01*
X107553Y-68859D01*
X107536Y-68765D01*
X107537Y-68675D01*
X107557Y-68581D01*
X107593Y-68499D01*
X107647Y-68420D01*
X107711Y-68358D01*
X107791Y-68305D01*
X107874Y-68271D01*
X107968Y-68253D01*
X108057Y-68254D01*
X108152Y-68273D01*
X108234Y-68308D01*
X108314Y-68362D01*
X108376Y-68425D01*
X108430Y-68505D01*
X108464Y-68587D01*
X108482Y-68680D01*
X108482Y-68682D01*
X108482Y-68682D01*
G37*
G36*
X108482Y-70060D02*
X108481Y-70163D01*
X108460Y-70256D01*
X108423Y-70338D01*
X108368Y-70416D01*
X108303Y-70478D01*
X108222Y-70529D01*
X108139Y-70561D01*
X108044Y-70578D01*
X107955Y-70576D01*
X107861Y-70556D01*
X107779Y-70520D01*
X107701Y-70465D01*
X107638Y-70401D01*
X107586Y-70320D01*
X107553Y-70237D01*
X107536Y-70143D01*
X107537Y-70053D01*
X107557Y-69959D01*
X107593Y-69877D01*
X107647Y-69798D01*
X107711Y-69735D01*
X107791Y-69683D01*
X107874Y-69649D01*
X107968Y-69631D01*
X108057Y-69632D01*
X108152Y-69651D01*
X108234Y-69686D01*
X108314Y-69740D01*
X108376Y-69803D01*
X108430Y-69883D01*
X108464Y-69965D01*
X108482Y-70058D01*
X108482Y-70060D01*
X108482Y-70060D01*
G37*
G36*
X108482Y-71438D02*
X108481Y-71541D01*
X108460Y-71634D01*
X108423Y-71716D01*
X108368Y-71794D01*
X108303Y-71856D01*
X108222Y-71907D01*
X108139Y-71939D01*
X108044Y-71956D01*
X107955Y-71954D01*
X107861Y-71934D01*
X107779Y-71898D01*
X107701Y-71843D01*
X107638Y-71779D01*
X107586Y-71698D01*
X107553Y-71615D01*
X107536Y-71521D01*
X107537Y-71431D01*
X107557Y-71337D01*
X107593Y-71255D01*
X107647Y-71176D01*
X107711Y-71113D01*
X107791Y-71061D01*
X107874Y-71027D01*
X107968Y-71009D01*
X108057Y-71010D01*
X108152Y-71029D01*
X108234Y-71064D01*
X108314Y-71118D01*
X108376Y-71181D01*
X108430Y-71261D01*
X108464Y-71343D01*
X108482Y-71436D01*
X108482Y-71438D01*
X108482Y-71438D01*
G37*
G36*
X108486Y-63674D02*
X108484Y-63777D01*
X108463Y-63870D01*
X108427Y-63952D01*
X108372Y-64030D01*
X108307Y-64092D01*
X108226Y-64144D01*
X108142Y-64176D01*
X108048Y-64193D01*
X107958Y-64191D01*
X107865Y-64170D01*
X107783Y-64134D01*
X107704Y-64080D01*
X107642Y-64015D01*
X107590Y-63935D01*
X107557Y-63851D01*
X107540Y-63757D01*
X107541Y-63668D01*
X107561Y-63574D01*
X107596Y-63492D01*
X107650Y-63412D01*
X107714Y-63350D01*
X107795Y-63297D01*
X107877Y-63264D01*
X107972Y-63246D01*
X108061Y-63247D01*
X108155Y-63266D01*
X108237Y-63300D01*
X108317Y-63354D01*
X108380Y-63417D01*
X108433Y-63498D01*
X108467Y-63580D01*
X108485Y-63673D01*
X108486Y-63674D01*
X108486Y-63674D01*
G37*
G36*
X108486Y-65052D02*
X108484Y-65155D01*
X108463Y-65248D01*
X108427Y-65330D01*
X108372Y-65408D01*
X108307Y-65470D01*
X108226Y-65522D01*
X108142Y-65554D01*
X108048Y-65571D01*
X107958Y-65569D01*
X107865Y-65548D01*
X107783Y-65512D01*
X107704Y-65458D01*
X107642Y-65393D01*
X107590Y-65313D01*
X107557Y-65229D01*
X107540Y-65135D01*
X107541Y-65046D01*
X107561Y-64952D01*
X107596Y-64870D01*
X107650Y-64790D01*
X107714Y-64728D01*
X107795Y-64675D01*
X107877Y-64642D01*
X107972Y-64624D01*
X108061Y-64624D01*
X108155Y-64644D01*
X108237Y-64678D01*
X108317Y-64732D01*
X108380Y-64795D01*
X108433Y-64876D01*
X108467Y-64958D01*
X108485Y-65051D01*
X108486Y-65052D01*
X108486Y-65052D01*
G37*
M02*
