G04 (created by PCBNEW (2013-07-07 BZR 4022)-stable) date 26/08/2014 17:06:35*
%MOIN*%
G04 Gerber Fmt 3.4, Leading zero omitted, Abs format*
%FSLAX34Y34*%
G01*
G70*
G90*
G04 APERTURE LIST*
%ADD10C,0.00590551*%
%ADD11C,0.00393701*%
%ADD12C,0.00787402*%
%ADD13C,0.011811*%
%ADD14C,0.012*%
%ADD15C,0.008*%
%ADD16C,0.0031*%
%ADD17C,0.005*%
%ADD18C,0.0047*%
G04 APERTURE END LIST*
G54D10*
G54D11*
X106983Y-58953D02*
X73173Y-58953D01*
X108558Y-60528D02*
G75*
G03X106983Y-58953I-1575J0D01*
G74*
G01*
X108558Y-74668D02*
X108558Y-60528D01*
X106983Y-76243D02*
G75*
G03X108558Y-74668I0J1575D01*
G74*
G01*
X73173Y-76243D02*
X106983Y-76243D01*
X71598Y-74668D02*
G75*
G03X73173Y-76243I1575J0D01*
G74*
G01*
X71598Y-60528D02*
X71598Y-74668D01*
X73173Y-58953D02*
G75*
G03X71598Y-60528I0J-1575D01*
G74*
G01*
G54D12*
X77124Y-68077D02*
G75*
G03X77124Y-68077I-70J0D01*
G74*
G01*
X82893Y-61397D02*
X82893Y-61417D01*
X82539Y-61043D02*
X82893Y-61397D01*
X81181Y-61023D02*
X81259Y-61023D01*
X80767Y-61437D02*
X81181Y-61023D01*
X91397Y-67244D02*
G75*
G03X91397Y-67244I-98J0D01*
G74*
G01*
G54D13*
X87740Y-61069D02*
X87740Y-60478D01*
X87740Y-60759D02*
X88077Y-60759D01*
X88077Y-61069D02*
X88077Y-60478D01*
X88611Y-61069D02*
X88611Y-60759D01*
X88583Y-60703D01*
X88527Y-60675D01*
X88414Y-60675D01*
X88358Y-60703D01*
X88611Y-61040D02*
X88555Y-61069D01*
X88414Y-61069D01*
X88358Y-61040D01*
X88330Y-60984D01*
X88330Y-60928D01*
X88358Y-60872D01*
X88414Y-60844D01*
X88555Y-60844D01*
X88611Y-60815D01*
X88893Y-61069D02*
X88893Y-60675D01*
X88893Y-60787D02*
X88921Y-60731D01*
X88949Y-60703D01*
X89005Y-60675D01*
X89061Y-60675D01*
X89202Y-60675D02*
X89342Y-61069D01*
X89483Y-60675D01*
X89933Y-61040D02*
X89877Y-61069D01*
X89764Y-61069D01*
X89708Y-61040D01*
X89680Y-60984D01*
X89680Y-60759D01*
X89708Y-60703D01*
X89764Y-60675D01*
X89877Y-60675D01*
X89933Y-60703D01*
X89961Y-60759D01*
X89961Y-60815D01*
X89680Y-60872D01*
X90186Y-61040D02*
X90242Y-61069D01*
X90355Y-61069D01*
X90411Y-61040D01*
X90439Y-60984D01*
X90439Y-60956D01*
X90411Y-60900D01*
X90355Y-60872D01*
X90270Y-60872D01*
X90214Y-60844D01*
X90186Y-60787D01*
X90186Y-60759D01*
X90214Y-60703D01*
X90270Y-60675D01*
X90355Y-60675D01*
X90411Y-60703D01*
X90608Y-60675D02*
X90833Y-60675D01*
X90692Y-60478D02*
X90692Y-60984D01*
X90720Y-61040D01*
X90777Y-61069D01*
X90833Y-61069D01*
X91789Y-60506D02*
X91733Y-60478D01*
X91648Y-60478D01*
X91564Y-60506D01*
X91508Y-60562D01*
X91480Y-60619D01*
X91452Y-60731D01*
X91452Y-60815D01*
X91480Y-60928D01*
X91508Y-60984D01*
X91564Y-61040D01*
X91648Y-61069D01*
X91705Y-61069D01*
X91789Y-61040D01*
X91817Y-61012D01*
X91817Y-60815D01*
X91705Y-60815D01*
X92295Y-61040D02*
X92239Y-61069D01*
X92126Y-61069D01*
X92070Y-61040D01*
X92042Y-60984D01*
X92042Y-60759D01*
X92070Y-60703D01*
X92126Y-60675D01*
X92239Y-60675D01*
X92295Y-60703D01*
X92323Y-60759D01*
X92323Y-60815D01*
X92042Y-60872D01*
X92801Y-61040D02*
X92745Y-61069D01*
X92633Y-61069D01*
X92576Y-61040D01*
X92548Y-60984D01*
X92548Y-60759D01*
X92576Y-60703D01*
X92633Y-60675D01*
X92745Y-60675D01*
X92801Y-60703D01*
X92830Y-60759D01*
X92830Y-60815D01*
X92548Y-60872D01*
X93083Y-61069D02*
X93083Y-60478D01*
X93139Y-60844D02*
X93308Y-61069D01*
X93308Y-60675D02*
X93083Y-60900D01*
X89525Y-61423D02*
X89638Y-61423D01*
X89694Y-61451D01*
X89750Y-61507D01*
X89778Y-61620D01*
X89778Y-61817D01*
X89750Y-61929D01*
X89694Y-61985D01*
X89638Y-62013D01*
X89525Y-62013D01*
X89469Y-61985D01*
X89413Y-61929D01*
X89385Y-61817D01*
X89385Y-61620D01*
X89413Y-61507D01*
X89469Y-61451D01*
X89525Y-61423D01*
X90003Y-61985D02*
X90088Y-62013D01*
X90228Y-62013D01*
X90285Y-61985D01*
X90313Y-61957D01*
X90341Y-61901D01*
X90341Y-61845D01*
X90313Y-61788D01*
X90285Y-61760D01*
X90228Y-61732D01*
X90116Y-61704D01*
X90060Y-61676D01*
X90031Y-61648D01*
X90003Y-61592D01*
X90003Y-61535D01*
X90031Y-61479D01*
X90060Y-61451D01*
X90116Y-61423D01*
X90256Y-61423D01*
X90341Y-61451D01*
X90594Y-62013D02*
X90594Y-61423D01*
X90594Y-61704D02*
X90931Y-61704D01*
X90931Y-62013D02*
X90931Y-61423D01*
X91156Y-61423D02*
X91297Y-62013D01*
X91409Y-61592D01*
X91522Y-62013D01*
X91662Y-61423D01*
G54D14*
X87954Y-66337D02*
X87954Y-70277D01*
X87954Y-70277D02*
X84014Y-70277D01*
X84014Y-66527D02*
X84014Y-70277D01*
X84204Y-66337D02*
X87954Y-66337D01*
X84014Y-66527D02*
X84204Y-66337D01*
G54D15*
X84734Y-66807D02*
G75*
G03X84734Y-66807I-250J0D01*
G74*
G01*
G54D16*
X82434Y-64862D02*
G75*
G03X82434Y-64862I-62J0D01*
G74*
G01*
X83334Y-64524D02*
X83334Y-64924D01*
X82309Y-64524D02*
X82309Y-64924D01*
X83334Y-64924D02*
X82309Y-64924D01*
X82309Y-64524D02*
X83334Y-64524D01*
G54D17*
X81614Y-67717D02*
X81336Y-67717D01*
X81336Y-67717D02*
X81336Y-68267D01*
X81336Y-68267D02*
X81614Y-68267D01*
X82286Y-67717D02*
X82008Y-67717D01*
X82286Y-67717D02*
X82286Y-68267D01*
X82286Y-68267D02*
X82008Y-68267D01*
X97519Y-62835D02*
X97241Y-62835D01*
X97241Y-62835D02*
X97241Y-63385D01*
X97241Y-63385D02*
X97519Y-63385D01*
X98191Y-62835D02*
X97913Y-62835D01*
X98191Y-62835D02*
X98191Y-63385D01*
X98191Y-63385D02*
X97913Y-63385D01*
X91850Y-68739D02*
X92128Y-68739D01*
X92128Y-68739D02*
X92128Y-68189D01*
X92128Y-68189D02*
X91850Y-68189D01*
X91178Y-68739D02*
X91456Y-68739D01*
X91178Y-68739D02*
X91178Y-68189D01*
X91178Y-68189D02*
X91456Y-68189D01*
X92716Y-66967D02*
X92994Y-66967D01*
X92994Y-66967D02*
X92994Y-66417D01*
X92994Y-66417D02*
X92716Y-66417D01*
X92044Y-66967D02*
X92322Y-66967D01*
X92044Y-66967D02*
X92044Y-66417D01*
X92044Y-66417D02*
X92322Y-66417D01*
X81850Y-63347D02*
X81572Y-63347D01*
X81572Y-63347D02*
X81572Y-63897D01*
X81572Y-63897D02*
X81850Y-63897D01*
X82522Y-63347D02*
X82244Y-63347D01*
X82522Y-63347D02*
X82522Y-63897D01*
X82522Y-63897D02*
X82244Y-63897D01*
X88032Y-65669D02*
X88032Y-65947D01*
X88032Y-65947D02*
X88582Y-65947D01*
X88582Y-65947D02*
X88582Y-65669D01*
X88032Y-64997D02*
X88032Y-65275D01*
X88032Y-64997D02*
X88582Y-64997D01*
X88582Y-64997D02*
X88582Y-65275D01*
X83306Y-71024D02*
X83028Y-71024D01*
X83028Y-71024D02*
X83028Y-71574D01*
X83028Y-71574D02*
X83306Y-71574D01*
X83978Y-71024D02*
X83700Y-71024D01*
X83978Y-71024D02*
X83978Y-71574D01*
X83978Y-71574D02*
X83700Y-71574D01*
X92992Y-69448D02*
X93270Y-69448D01*
X93270Y-69448D02*
X93270Y-68898D01*
X93270Y-68898D02*
X92992Y-68898D01*
X92320Y-69448D02*
X92598Y-69448D01*
X92320Y-69448D02*
X92320Y-68898D01*
X92320Y-68898D02*
X92598Y-68898D01*
X81614Y-67087D02*
X81336Y-67087D01*
X81336Y-67087D02*
X81336Y-67637D01*
X81336Y-67637D02*
X81614Y-67637D01*
X82286Y-67087D02*
X82008Y-67087D01*
X82286Y-67087D02*
X82286Y-67637D01*
X82286Y-67637D02*
X82008Y-67637D01*
X96850Y-64016D02*
X96572Y-64016D01*
X96572Y-64016D02*
X96572Y-64566D01*
X96572Y-64566D02*
X96850Y-64566D01*
X97522Y-64016D02*
X97244Y-64016D01*
X97522Y-64016D02*
X97522Y-64566D01*
X97522Y-64566D02*
X97244Y-64566D01*
X97913Y-67362D02*
X97635Y-67362D01*
X97635Y-67362D02*
X97635Y-67912D01*
X97635Y-67912D02*
X97913Y-67912D01*
X98585Y-67362D02*
X98307Y-67362D01*
X98585Y-67362D02*
X98585Y-67912D01*
X98585Y-67912D02*
X98307Y-67912D01*
G54D18*
X91299Y-66436D02*
X91024Y-66436D01*
X91693Y-66436D02*
X91968Y-66436D01*
X91299Y-66948D02*
X91024Y-66948D01*
X91968Y-66948D02*
X91693Y-66948D01*
X91024Y-66942D02*
X91024Y-66442D01*
X91968Y-66442D02*
X91968Y-66942D01*
X85177Y-64684D02*
X85177Y-64409D01*
X85177Y-65078D02*
X85177Y-65353D01*
X84665Y-64684D02*
X84665Y-64409D01*
X84665Y-65353D02*
X84665Y-65078D01*
X84671Y-64409D02*
X85171Y-64409D01*
X85171Y-65353D02*
X84671Y-65353D01*
X85236Y-71555D02*
X85511Y-71555D01*
X84842Y-71555D02*
X84567Y-71555D01*
X85236Y-71043D02*
X85511Y-71043D01*
X84567Y-71043D02*
X84842Y-71043D01*
X85511Y-71049D02*
X85511Y-71549D01*
X84567Y-71549D02*
X84567Y-71049D01*
X89114Y-70118D02*
X89114Y-70393D01*
X89114Y-69724D02*
X89114Y-69449D01*
X89626Y-70118D02*
X89626Y-70393D01*
X89626Y-69449D02*
X89626Y-69724D01*
X89620Y-70393D02*
X89120Y-70393D01*
X89120Y-69449D02*
X89620Y-69449D01*
X87815Y-64684D02*
X87815Y-64409D01*
X87815Y-65078D02*
X87815Y-65353D01*
X87303Y-64684D02*
X87303Y-64409D01*
X87303Y-65353D02*
X87303Y-65078D01*
X87309Y-64409D02*
X87809Y-64409D01*
X87809Y-65353D02*
X87309Y-65353D01*
X84586Y-64684D02*
X84586Y-64409D01*
X84586Y-65078D02*
X84586Y-65353D01*
X84074Y-64684D02*
X84074Y-64409D01*
X84074Y-65353D02*
X84074Y-65078D01*
X84080Y-64409D02*
X84580Y-64409D01*
X84580Y-65353D02*
X84080Y-65353D01*
X82244Y-63287D02*
X82519Y-63287D01*
X81850Y-63287D02*
X81575Y-63287D01*
X82244Y-62775D02*
X82519Y-62775D01*
X81575Y-62775D02*
X81850Y-62775D01*
X82519Y-62781D02*
X82519Y-63281D01*
X81575Y-63281D02*
X81575Y-62781D01*
X96850Y-63444D02*
X96575Y-63444D01*
X97244Y-63444D02*
X97519Y-63444D01*
X96850Y-63956D02*
X96575Y-63956D01*
X97519Y-63956D02*
X97244Y-63956D01*
X96575Y-63950D02*
X96575Y-63450D01*
X97519Y-63450D02*
X97519Y-63950D01*
X95846Y-64015D02*
X95571Y-64015D01*
X96240Y-64015D02*
X96515Y-64015D01*
X95846Y-64527D02*
X95571Y-64527D01*
X96515Y-64527D02*
X96240Y-64527D01*
X95571Y-64521D02*
X95571Y-64021D01*
X96515Y-64021D02*
X96515Y-64521D01*
X98307Y-67185D02*
X98582Y-67185D01*
X97913Y-67185D02*
X97638Y-67185D01*
X98307Y-66673D02*
X98582Y-66673D01*
X97638Y-66673D02*
X97913Y-66673D01*
X98582Y-66679D02*
X98582Y-67179D01*
X97638Y-67179D02*
X97638Y-66679D01*
X106842Y-73014D02*
X107117Y-73014D01*
X106448Y-73014D02*
X106173Y-73014D01*
X106842Y-72502D02*
X107117Y-72502D01*
X106173Y-72502D02*
X106448Y-72502D01*
X107117Y-72508D02*
X107117Y-73008D01*
X106173Y-73008D02*
X106173Y-72508D01*
X81338Y-64625D02*
X81063Y-64625D01*
X81732Y-64625D02*
X82007Y-64625D01*
X81338Y-65137D02*
X81063Y-65137D01*
X82007Y-65137D02*
X81732Y-65137D01*
X81063Y-65131D02*
X81063Y-64631D01*
X82007Y-64631D02*
X82007Y-65131D01*
X83996Y-64684D02*
X83996Y-64409D01*
X83996Y-65078D02*
X83996Y-65353D01*
X83484Y-64684D02*
X83484Y-64409D01*
X83484Y-65353D02*
X83484Y-65078D01*
X83490Y-64409D02*
X83990Y-64409D01*
X83990Y-65353D02*
X83490Y-65353D01*
X100236Y-63366D02*
X100511Y-63366D01*
X99842Y-63366D02*
X99567Y-63366D01*
X100236Y-62854D02*
X100511Y-62854D01*
X99567Y-62854D02*
X99842Y-62854D01*
X100511Y-62860D02*
X100511Y-63360D01*
X99567Y-63360D02*
X99567Y-62860D01*
X98818Y-62854D02*
X98543Y-62854D01*
X99212Y-62854D02*
X99487Y-62854D01*
X98818Y-63366D02*
X98543Y-63366D01*
X99487Y-63366D02*
X99212Y-63366D01*
X98543Y-63360D02*
X98543Y-62860D01*
X99487Y-62860D02*
X99487Y-63360D01*
X87480Y-73562D02*
X87205Y-73562D01*
X87874Y-73562D02*
X88149Y-73562D01*
X87480Y-74074D02*
X87205Y-74074D01*
X88149Y-74074D02*
X87874Y-74074D01*
X87205Y-74068D02*
X87205Y-73568D01*
X88149Y-73568D02*
X88149Y-74068D01*
X83090Y-63070D02*
X83090Y-62795D01*
X83090Y-63464D02*
X83090Y-63739D01*
X82578Y-63070D02*
X82578Y-62795D01*
X82578Y-63739D02*
X82578Y-63464D01*
X82584Y-62795D02*
X83084Y-62795D01*
X83084Y-63739D02*
X82584Y-63739D01*
X81614Y-68326D02*
X81339Y-68326D01*
X82008Y-68326D02*
X82283Y-68326D01*
X81614Y-68838D02*
X81339Y-68838D01*
X82283Y-68838D02*
X82008Y-68838D01*
X81339Y-68832D02*
X81339Y-68332D01*
X82283Y-68332D02*
X82283Y-68832D01*
X86614Y-74074D02*
X86889Y-74074D01*
X86220Y-74074D02*
X85945Y-74074D01*
X86614Y-73562D02*
X86889Y-73562D01*
X85945Y-73562D02*
X86220Y-73562D01*
X86889Y-73568D02*
X86889Y-74068D01*
X85945Y-74068D02*
X85945Y-73568D01*
G54D10*
X97532Y-72540D02*
X103831Y-72540D01*
X103831Y-64273D02*
X97532Y-64273D01*
X97532Y-64273D02*
X97532Y-76084D01*
X97532Y-76084D02*
X103831Y-76084D01*
X103831Y-76084D02*
X103831Y-64273D01*
X85629Y-74133D02*
X90118Y-74133D01*
X90118Y-74133D02*
X90118Y-76023D01*
X90118Y-76023D02*
X85629Y-76023D01*
X85629Y-76023D02*
X85629Y-74133D01*
X71601Y-66123D02*
X71601Y-69075D01*
X71601Y-69075D02*
X73569Y-69075D01*
X73569Y-69075D02*
X73569Y-66123D01*
X73569Y-66123D02*
X71601Y-66123D01*
G54D15*
X80102Y-73625D02*
X80102Y-70625D01*
X82102Y-70625D02*
X82102Y-73625D01*
X82102Y-73625D02*
X80102Y-73625D01*
X80102Y-70625D02*
X82102Y-70625D01*
G54D18*
X81476Y-65787D02*
X81476Y-65512D01*
X81476Y-66181D02*
X81476Y-66456D01*
X80964Y-65787D02*
X80964Y-65512D01*
X80964Y-66456D02*
X80964Y-66181D01*
X80970Y-65512D02*
X81470Y-65512D01*
X81470Y-66456D02*
X80970Y-66456D01*
G54D17*
X81361Y-66521D02*
X82261Y-66521D01*
X82261Y-66521D02*
X82261Y-67021D01*
X82261Y-67021D02*
X81361Y-67021D01*
X81361Y-67021D02*
X81361Y-66521D01*
G54D10*
X109191Y-72309D02*
X109191Y-67900D01*
X109191Y-67900D02*
X104584Y-67900D01*
X104584Y-67900D02*
X104584Y-72309D01*
X104584Y-72309D02*
X109191Y-72309D01*
X109194Y-65924D02*
X109194Y-62892D01*
X109194Y-62892D02*
X104588Y-62892D01*
X104588Y-62892D02*
X104588Y-65924D01*
X104588Y-65924D02*
X109194Y-65924D01*
X82913Y-61023D02*
X80787Y-61023D01*
X80787Y-61023D02*
X80787Y-62716D01*
X80787Y-62716D02*
X82913Y-62716D01*
X82913Y-62716D02*
X82913Y-61023D01*
X91259Y-67204D02*
X92047Y-67204D01*
X92047Y-67204D02*
X92047Y-67992D01*
X92047Y-67992D02*
X91259Y-67992D01*
X91259Y-67992D02*
X91259Y-67204D01*
X75444Y-70101D02*
X77806Y-70101D01*
X77806Y-70101D02*
X77806Y-72464D01*
X77806Y-72464D02*
X75444Y-72464D01*
X75444Y-72464D02*
X75444Y-70101D01*
G54D17*
X78293Y-68076D02*
X78293Y-68354D01*
X78293Y-68354D02*
X78843Y-68354D01*
X78843Y-68354D02*
X78843Y-68076D01*
X78293Y-67404D02*
X78293Y-67682D01*
X78293Y-67404D02*
X78843Y-67404D01*
X78843Y-67404D02*
X78843Y-67682D01*
X79014Y-68062D02*
X79014Y-68340D01*
X79014Y-68340D02*
X79564Y-68340D01*
X79564Y-68340D02*
X79564Y-68062D01*
X79014Y-67390D02*
X79014Y-67668D01*
X79014Y-67390D02*
X79564Y-67390D01*
X79564Y-67390D02*
X79564Y-67668D01*
G54D10*
X76940Y-67303D02*
X76940Y-67893D01*
X76940Y-67893D02*
X76310Y-67893D01*
X76310Y-67893D02*
X76310Y-67303D01*
X76310Y-67303D02*
X76940Y-67303D01*
X93622Y-64606D02*
X93622Y-70590D01*
X93622Y-70590D02*
X97165Y-70590D01*
X97165Y-70590D02*
X97165Y-64606D01*
X97165Y-64606D02*
X93622Y-64606D01*
X74551Y-60528D02*
G75*
G03X74551Y-60528I-1377J0D01*
G74*
G01*
X74551Y-74668D02*
G75*
G03X74551Y-74668I-1377J0D01*
G74*
G01*
X108361Y-74668D02*
G75*
G03X108361Y-74668I-1377J0D01*
G74*
G01*
X108361Y-60528D02*
G75*
G03X108361Y-60528I-1377J0D01*
G74*
G01*
G54D12*
X85724Y-68080D02*
X85724Y-68335D01*
X85739Y-68365D01*
X85754Y-68380D01*
X85784Y-68395D01*
X85844Y-68395D01*
X85874Y-68380D01*
X85889Y-68365D01*
X85904Y-68335D01*
X85904Y-68080D01*
X86039Y-68110D02*
X86054Y-68095D01*
X86084Y-68080D01*
X86159Y-68080D01*
X86189Y-68095D01*
X86204Y-68110D01*
X86219Y-68140D01*
X86219Y-68170D01*
X86204Y-68215D01*
X86024Y-68395D01*
X86219Y-68395D01*
X82614Y-64556D02*
X82614Y-64811D01*
X82629Y-64841D01*
X82644Y-64856D01*
X82674Y-64871D01*
X82734Y-64871D01*
X82764Y-64856D01*
X82779Y-64841D01*
X82794Y-64811D01*
X82794Y-64556D01*
X83109Y-64871D02*
X82929Y-64871D01*
X83019Y-64871D02*
X83019Y-64556D01*
X82989Y-64601D01*
X82959Y-64631D01*
X82929Y-64646D01*
X81783Y-68094D02*
X81678Y-67944D01*
X81603Y-68094D02*
X81603Y-67779D01*
X81723Y-67779D01*
X81753Y-67794D01*
X81768Y-67809D01*
X81783Y-67839D01*
X81783Y-67884D01*
X81768Y-67914D01*
X81753Y-67929D01*
X81723Y-67944D01*
X81603Y-67944D01*
X81903Y-67809D02*
X81918Y-67794D01*
X81948Y-67779D01*
X82023Y-67779D01*
X82053Y-67794D01*
X82068Y-67809D01*
X82083Y-67839D01*
X82083Y-67869D01*
X82068Y-67914D01*
X81888Y-68094D01*
X82083Y-68094D01*
X97539Y-63212D02*
X97434Y-63062D01*
X97359Y-63212D02*
X97359Y-62897D01*
X97479Y-62897D01*
X97509Y-62912D01*
X97524Y-62927D01*
X97539Y-62957D01*
X97539Y-63002D01*
X97524Y-63032D01*
X97509Y-63047D01*
X97479Y-63062D01*
X97359Y-63062D01*
X97839Y-63212D02*
X97659Y-63212D01*
X97749Y-63212D02*
X97749Y-62897D01*
X97719Y-62942D01*
X97689Y-62972D01*
X97659Y-62987D01*
X97959Y-62927D02*
X97974Y-62912D01*
X98004Y-62897D01*
X98078Y-62897D01*
X98108Y-62912D01*
X98123Y-62927D01*
X98138Y-62957D01*
X98138Y-62987D01*
X98123Y-63032D01*
X97944Y-63212D01*
X98138Y-63212D01*
X91576Y-68617D02*
X91471Y-68467D01*
X91396Y-68617D02*
X91396Y-68302D01*
X91516Y-68302D01*
X91546Y-68317D01*
X91561Y-68332D01*
X91576Y-68362D01*
X91576Y-68407D01*
X91561Y-68437D01*
X91546Y-68452D01*
X91516Y-68467D01*
X91396Y-68467D01*
X91846Y-68302D02*
X91786Y-68302D01*
X91756Y-68317D01*
X91741Y-68332D01*
X91711Y-68377D01*
X91696Y-68437D01*
X91696Y-68557D01*
X91711Y-68587D01*
X91726Y-68602D01*
X91756Y-68617D01*
X91816Y-68617D01*
X91846Y-68602D01*
X91861Y-68587D01*
X91876Y-68557D01*
X91876Y-68482D01*
X91861Y-68452D01*
X91846Y-68437D01*
X91816Y-68422D01*
X91756Y-68422D01*
X91726Y-68437D01*
X91711Y-68452D01*
X91696Y-68482D01*
X92442Y-66845D02*
X92337Y-66695D01*
X92262Y-66845D02*
X92262Y-66530D01*
X92382Y-66530D01*
X92412Y-66545D01*
X92427Y-66560D01*
X92442Y-66590D01*
X92442Y-66635D01*
X92427Y-66665D01*
X92412Y-66680D01*
X92382Y-66695D01*
X92262Y-66695D01*
X92547Y-66530D02*
X92757Y-66530D01*
X92622Y-66845D01*
X82019Y-63724D02*
X81914Y-63574D01*
X81839Y-63724D02*
X81839Y-63409D01*
X81959Y-63409D01*
X81989Y-63424D01*
X82004Y-63439D01*
X82019Y-63469D01*
X82019Y-63514D01*
X82004Y-63544D01*
X81989Y-63559D01*
X81959Y-63574D01*
X81839Y-63574D01*
X82304Y-63409D02*
X82154Y-63409D01*
X82139Y-63559D01*
X82154Y-63544D01*
X82184Y-63529D01*
X82259Y-63529D01*
X82289Y-63544D01*
X82304Y-63559D01*
X82319Y-63589D01*
X82319Y-63664D01*
X82304Y-63694D01*
X82289Y-63709D01*
X82259Y-63724D01*
X82184Y-63724D01*
X82154Y-63709D01*
X82139Y-63694D01*
X88409Y-65499D02*
X88259Y-65604D01*
X88409Y-65679D02*
X88094Y-65679D01*
X88094Y-65559D01*
X88109Y-65529D01*
X88124Y-65514D01*
X88154Y-65499D01*
X88199Y-65499D01*
X88229Y-65514D01*
X88244Y-65529D01*
X88259Y-65559D01*
X88259Y-65679D01*
X88199Y-65229D02*
X88409Y-65229D01*
X88079Y-65304D02*
X88304Y-65379D01*
X88304Y-65184D01*
X83476Y-71401D02*
X83371Y-71251D01*
X83296Y-71401D02*
X83296Y-71086D01*
X83416Y-71086D01*
X83446Y-71101D01*
X83461Y-71116D01*
X83476Y-71146D01*
X83476Y-71191D01*
X83461Y-71221D01*
X83446Y-71236D01*
X83416Y-71251D01*
X83296Y-71251D01*
X83581Y-71086D02*
X83776Y-71086D01*
X83671Y-71206D01*
X83716Y-71206D01*
X83746Y-71221D01*
X83761Y-71236D01*
X83776Y-71266D01*
X83776Y-71341D01*
X83761Y-71371D01*
X83746Y-71386D01*
X83716Y-71401D01*
X83626Y-71401D01*
X83596Y-71386D01*
X83581Y-71371D01*
X92717Y-69325D02*
X92612Y-69175D01*
X92537Y-69325D02*
X92537Y-69010D01*
X92657Y-69010D01*
X92687Y-69025D01*
X92702Y-69040D01*
X92717Y-69070D01*
X92717Y-69115D01*
X92702Y-69145D01*
X92687Y-69160D01*
X92657Y-69175D01*
X92537Y-69175D01*
X92897Y-69145D02*
X92867Y-69130D01*
X92852Y-69115D01*
X92837Y-69085D01*
X92837Y-69070D01*
X92852Y-69040D01*
X92867Y-69025D01*
X92897Y-69010D01*
X92957Y-69010D01*
X92987Y-69025D01*
X93002Y-69040D01*
X93017Y-69070D01*
X93017Y-69085D01*
X93002Y-69115D01*
X92987Y-69130D01*
X92957Y-69145D01*
X92897Y-69145D01*
X92867Y-69160D01*
X92852Y-69175D01*
X92837Y-69205D01*
X92837Y-69265D01*
X92852Y-69295D01*
X92867Y-69310D01*
X92897Y-69325D01*
X92957Y-69325D01*
X92987Y-69310D01*
X93002Y-69295D01*
X93017Y-69265D01*
X93017Y-69205D01*
X93002Y-69175D01*
X92987Y-69160D01*
X92957Y-69145D01*
X81783Y-67464D02*
X81678Y-67314D01*
X81603Y-67464D02*
X81603Y-67149D01*
X81723Y-67149D01*
X81753Y-67164D01*
X81768Y-67179D01*
X81783Y-67209D01*
X81783Y-67254D01*
X81768Y-67284D01*
X81753Y-67299D01*
X81723Y-67314D01*
X81603Y-67314D01*
X82083Y-67464D02*
X81903Y-67464D01*
X81993Y-67464D02*
X81993Y-67149D01*
X81963Y-67194D01*
X81933Y-67224D01*
X81903Y-67239D01*
X96869Y-64393D02*
X96764Y-64243D01*
X96689Y-64393D02*
X96689Y-64078D01*
X96809Y-64078D01*
X96839Y-64093D01*
X96854Y-64108D01*
X96869Y-64138D01*
X96869Y-64183D01*
X96854Y-64213D01*
X96839Y-64228D01*
X96809Y-64243D01*
X96689Y-64243D01*
X97169Y-64393D02*
X96989Y-64393D01*
X97079Y-64393D02*
X97079Y-64078D01*
X97049Y-64123D01*
X97019Y-64153D01*
X96989Y-64168D01*
X97364Y-64078D02*
X97394Y-64078D01*
X97424Y-64093D01*
X97439Y-64108D01*
X97454Y-64138D01*
X97469Y-64198D01*
X97469Y-64273D01*
X97454Y-64333D01*
X97439Y-64363D01*
X97424Y-64378D01*
X97394Y-64393D01*
X97364Y-64393D01*
X97334Y-64378D01*
X97319Y-64363D01*
X97304Y-64333D01*
X97289Y-64273D01*
X97289Y-64198D01*
X97304Y-64138D01*
X97319Y-64108D01*
X97334Y-64093D01*
X97364Y-64078D01*
X98082Y-67740D02*
X97977Y-67590D01*
X97902Y-67740D02*
X97902Y-67425D01*
X98022Y-67425D01*
X98052Y-67440D01*
X98067Y-67455D01*
X98082Y-67485D01*
X98082Y-67530D01*
X98067Y-67560D01*
X98052Y-67575D01*
X98022Y-67590D01*
X97902Y-67590D01*
X98232Y-67740D02*
X98292Y-67740D01*
X98322Y-67725D01*
X98337Y-67710D01*
X98367Y-67665D01*
X98382Y-67605D01*
X98382Y-67485D01*
X98367Y-67455D01*
X98352Y-67440D01*
X98322Y-67425D01*
X98262Y-67425D01*
X98232Y-67440D01*
X98217Y-67455D01*
X98202Y-67485D01*
X98202Y-67560D01*
X98217Y-67590D01*
X98232Y-67605D01*
X98262Y-67620D01*
X98322Y-67620D01*
X98352Y-67605D01*
X98367Y-67590D01*
X98382Y-67560D01*
X91293Y-66790D02*
X91278Y-66805D01*
X91233Y-66820D01*
X91203Y-66820D01*
X91158Y-66805D01*
X91128Y-66775D01*
X91113Y-66745D01*
X91098Y-66685D01*
X91098Y-66640D01*
X91113Y-66580D01*
X91128Y-66550D01*
X91158Y-66520D01*
X91203Y-66505D01*
X91233Y-66505D01*
X91278Y-66520D01*
X91293Y-66535D01*
X91593Y-66820D02*
X91413Y-66820D01*
X91503Y-66820D02*
X91503Y-66505D01*
X91473Y-66550D01*
X91443Y-66580D01*
X91413Y-66595D01*
X91698Y-66505D02*
X91893Y-66505D01*
X91788Y-66625D01*
X91833Y-66625D01*
X91863Y-66640D01*
X91878Y-66655D01*
X91893Y-66685D01*
X91893Y-66760D01*
X91878Y-66790D01*
X91863Y-66805D01*
X91833Y-66820D01*
X91743Y-66820D01*
X91713Y-66805D01*
X91698Y-66790D01*
X85018Y-64934D02*
X85033Y-64949D01*
X85048Y-64994D01*
X85048Y-65024D01*
X85033Y-65069D01*
X85003Y-65099D01*
X84973Y-65114D01*
X84913Y-65129D01*
X84868Y-65129D01*
X84808Y-65114D01*
X84778Y-65099D01*
X84748Y-65069D01*
X84733Y-65024D01*
X84733Y-64994D01*
X84748Y-64949D01*
X84763Y-64934D01*
X84868Y-64754D02*
X84853Y-64784D01*
X84838Y-64799D01*
X84808Y-64814D01*
X84793Y-64814D01*
X84763Y-64799D01*
X84748Y-64784D01*
X84733Y-64754D01*
X84733Y-64694D01*
X84748Y-64664D01*
X84763Y-64649D01*
X84793Y-64634D01*
X84808Y-64634D01*
X84838Y-64649D01*
X84853Y-64664D01*
X84868Y-64694D01*
X84868Y-64754D01*
X84883Y-64784D01*
X84898Y-64799D01*
X84928Y-64814D01*
X84988Y-64814D01*
X85018Y-64799D01*
X85033Y-64784D01*
X85048Y-64754D01*
X85048Y-64694D01*
X85033Y-64664D01*
X85018Y-64649D01*
X84988Y-64634D01*
X84928Y-64634D01*
X84898Y-64649D01*
X84883Y-64664D01*
X84868Y-64694D01*
X84986Y-71396D02*
X84971Y-71411D01*
X84926Y-71426D01*
X84896Y-71426D01*
X84851Y-71411D01*
X84821Y-71381D01*
X84806Y-71351D01*
X84791Y-71291D01*
X84791Y-71246D01*
X84806Y-71186D01*
X84821Y-71156D01*
X84851Y-71126D01*
X84896Y-71111D01*
X84926Y-71111D01*
X84971Y-71126D01*
X84986Y-71141D01*
X85091Y-71111D02*
X85286Y-71111D01*
X85181Y-71231D01*
X85226Y-71231D01*
X85256Y-71246D01*
X85271Y-71261D01*
X85286Y-71291D01*
X85286Y-71366D01*
X85271Y-71396D01*
X85256Y-71411D01*
X85226Y-71426D01*
X85136Y-71426D01*
X85106Y-71411D01*
X85091Y-71396D01*
X89467Y-69973D02*
X89482Y-69988D01*
X89497Y-70033D01*
X89497Y-70063D01*
X89482Y-70108D01*
X89452Y-70138D01*
X89422Y-70153D01*
X89362Y-70168D01*
X89317Y-70168D01*
X89257Y-70153D01*
X89227Y-70138D01*
X89197Y-70108D01*
X89182Y-70063D01*
X89182Y-70033D01*
X89197Y-69988D01*
X89212Y-69973D01*
X89287Y-69703D02*
X89497Y-69703D01*
X89167Y-69778D02*
X89392Y-69853D01*
X89392Y-69658D01*
X87656Y-64934D02*
X87671Y-64949D01*
X87686Y-64994D01*
X87686Y-65024D01*
X87671Y-65069D01*
X87641Y-65099D01*
X87611Y-65114D01*
X87551Y-65129D01*
X87506Y-65129D01*
X87446Y-65114D01*
X87416Y-65099D01*
X87386Y-65069D01*
X87371Y-65024D01*
X87371Y-64994D01*
X87386Y-64949D01*
X87401Y-64934D01*
X87371Y-64649D02*
X87371Y-64799D01*
X87521Y-64814D01*
X87506Y-64799D01*
X87491Y-64769D01*
X87491Y-64694D01*
X87506Y-64664D01*
X87521Y-64649D01*
X87551Y-64634D01*
X87626Y-64634D01*
X87656Y-64649D01*
X87671Y-64664D01*
X87686Y-64694D01*
X87686Y-64769D01*
X87671Y-64799D01*
X87656Y-64814D01*
X84428Y-64934D02*
X84443Y-64949D01*
X84458Y-64994D01*
X84458Y-65024D01*
X84443Y-65069D01*
X84413Y-65099D01*
X84383Y-65114D01*
X84323Y-65129D01*
X84278Y-65129D01*
X84218Y-65114D01*
X84188Y-65099D01*
X84158Y-65069D01*
X84143Y-65024D01*
X84143Y-64994D01*
X84158Y-64949D01*
X84173Y-64934D01*
X84143Y-64664D02*
X84143Y-64724D01*
X84158Y-64754D01*
X84173Y-64769D01*
X84218Y-64799D01*
X84278Y-64814D01*
X84398Y-64814D01*
X84428Y-64799D01*
X84443Y-64784D01*
X84458Y-64754D01*
X84458Y-64694D01*
X84443Y-64664D01*
X84428Y-64649D01*
X84398Y-64634D01*
X84323Y-64634D01*
X84293Y-64649D01*
X84278Y-64664D01*
X84263Y-64694D01*
X84263Y-64754D01*
X84278Y-64784D01*
X84293Y-64799D01*
X84323Y-64814D01*
X81844Y-63128D02*
X81829Y-63143D01*
X81784Y-63158D01*
X81754Y-63158D01*
X81709Y-63143D01*
X81679Y-63113D01*
X81664Y-63083D01*
X81649Y-63023D01*
X81649Y-62979D01*
X81664Y-62919D01*
X81679Y-62889D01*
X81709Y-62859D01*
X81754Y-62844D01*
X81784Y-62844D01*
X81829Y-62859D01*
X81844Y-62874D01*
X82144Y-63158D02*
X81964Y-63158D01*
X82054Y-63158D02*
X82054Y-62844D01*
X82024Y-62889D01*
X81994Y-62919D01*
X81964Y-62934D01*
X82444Y-63158D02*
X82264Y-63158D01*
X82354Y-63158D02*
X82354Y-62844D01*
X82324Y-62889D01*
X82294Y-62919D01*
X82264Y-62934D01*
X96844Y-63798D02*
X96829Y-63813D01*
X96784Y-63828D01*
X96754Y-63828D01*
X96709Y-63813D01*
X96679Y-63783D01*
X96664Y-63753D01*
X96649Y-63693D01*
X96649Y-63648D01*
X96664Y-63588D01*
X96679Y-63558D01*
X96709Y-63528D01*
X96754Y-63513D01*
X96784Y-63513D01*
X96829Y-63528D01*
X96844Y-63543D01*
X97144Y-63828D02*
X96964Y-63828D01*
X97054Y-63828D02*
X97054Y-63513D01*
X97024Y-63558D01*
X96994Y-63588D01*
X96964Y-63603D01*
X97414Y-63618D02*
X97414Y-63828D01*
X97339Y-63498D02*
X97264Y-63723D01*
X97459Y-63723D01*
X95840Y-64369D02*
X95825Y-64384D01*
X95780Y-64399D01*
X95750Y-64399D01*
X95705Y-64384D01*
X95675Y-64354D01*
X95660Y-64324D01*
X95645Y-64264D01*
X95645Y-64219D01*
X95660Y-64159D01*
X95675Y-64129D01*
X95705Y-64099D01*
X95750Y-64084D01*
X95780Y-64084D01*
X95825Y-64099D01*
X95840Y-64114D01*
X96140Y-64399D02*
X95960Y-64399D01*
X96050Y-64399D02*
X96050Y-64084D01*
X96020Y-64129D01*
X95990Y-64159D01*
X95960Y-64174D01*
X96425Y-64084D02*
X96275Y-64084D01*
X96260Y-64234D01*
X96275Y-64219D01*
X96305Y-64204D01*
X96380Y-64204D01*
X96410Y-64219D01*
X96425Y-64234D01*
X96440Y-64264D01*
X96440Y-64339D01*
X96425Y-64369D01*
X96410Y-64384D01*
X96380Y-64399D01*
X96305Y-64399D01*
X96275Y-64384D01*
X96260Y-64369D01*
X97907Y-67026D02*
X97892Y-67041D01*
X97847Y-67056D01*
X97817Y-67056D01*
X97772Y-67041D01*
X97742Y-67011D01*
X97727Y-66981D01*
X97712Y-66921D01*
X97712Y-66876D01*
X97727Y-66816D01*
X97742Y-66786D01*
X97772Y-66756D01*
X97817Y-66741D01*
X97847Y-66741D01*
X97892Y-66756D01*
X97907Y-66771D01*
X98207Y-67056D02*
X98027Y-67056D01*
X98117Y-67056D02*
X98117Y-66741D01*
X98087Y-66786D01*
X98057Y-66816D01*
X98027Y-66831D01*
X98477Y-66741D02*
X98417Y-66741D01*
X98387Y-66756D01*
X98372Y-66771D01*
X98342Y-66816D01*
X98327Y-66876D01*
X98327Y-66996D01*
X98342Y-67026D01*
X98357Y-67041D01*
X98387Y-67056D01*
X98447Y-67056D01*
X98477Y-67041D01*
X98492Y-67026D01*
X98507Y-66996D01*
X98507Y-66921D01*
X98492Y-66891D01*
X98477Y-66876D01*
X98447Y-66861D01*
X98387Y-66861D01*
X98357Y-66876D01*
X98342Y-66891D01*
X98327Y-66921D01*
X106442Y-72855D02*
X106427Y-72870D01*
X106382Y-72885D01*
X106352Y-72885D01*
X106307Y-72870D01*
X106277Y-72840D01*
X106262Y-72810D01*
X106247Y-72750D01*
X106247Y-72705D01*
X106262Y-72645D01*
X106277Y-72615D01*
X106307Y-72585D01*
X106352Y-72570D01*
X106382Y-72570D01*
X106427Y-72585D01*
X106442Y-72600D01*
X106742Y-72885D02*
X106562Y-72885D01*
X106652Y-72885D02*
X106652Y-72570D01*
X106622Y-72615D01*
X106592Y-72645D01*
X106562Y-72660D01*
X106847Y-72570D02*
X107057Y-72570D01*
X106922Y-72885D01*
X81482Y-64979D02*
X81467Y-64994D01*
X81422Y-65009D01*
X81392Y-65009D01*
X81347Y-64994D01*
X81317Y-64964D01*
X81302Y-64934D01*
X81287Y-64874D01*
X81287Y-64829D01*
X81302Y-64769D01*
X81317Y-64739D01*
X81347Y-64709D01*
X81392Y-64694D01*
X81422Y-64694D01*
X81467Y-64709D01*
X81482Y-64724D01*
X81782Y-65009D02*
X81602Y-65009D01*
X81692Y-65009D02*
X81692Y-64694D01*
X81662Y-64739D01*
X81632Y-64769D01*
X81602Y-64784D01*
X83837Y-64934D02*
X83852Y-64949D01*
X83867Y-64994D01*
X83867Y-65024D01*
X83852Y-65069D01*
X83822Y-65099D01*
X83792Y-65114D01*
X83732Y-65129D01*
X83687Y-65129D01*
X83627Y-65114D01*
X83597Y-65099D01*
X83567Y-65069D01*
X83552Y-65024D01*
X83552Y-64994D01*
X83567Y-64949D01*
X83582Y-64934D01*
X83582Y-64814D02*
X83567Y-64799D01*
X83552Y-64769D01*
X83552Y-64694D01*
X83567Y-64664D01*
X83582Y-64649D01*
X83612Y-64634D01*
X83642Y-64634D01*
X83687Y-64649D01*
X83867Y-64829D01*
X83867Y-64634D01*
X99836Y-63207D02*
X99821Y-63222D01*
X99776Y-63237D01*
X99746Y-63237D01*
X99701Y-63222D01*
X99671Y-63192D01*
X99656Y-63162D01*
X99641Y-63102D01*
X99641Y-63057D01*
X99656Y-62997D01*
X99671Y-62967D01*
X99701Y-62937D01*
X99746Y-62922D01*
X99776Y-62922D01*
X99821Y-62937D01*
X99836Y-62952D01*
X99941Y-62922D02*
X100136Y-62922D01*
X100031Y-63042D01*
X100076Y-63042D01*
X100106Y-63057D01*
X100121Y-63072D01*
X100136Y-63102D01*
X100136Y-63177D01*
X100121Y-63207D01*
X100106Y-63222D01*
X100076Y-63237D01*
X99986Y-63237D01*
X99956Y-63222D01*
X99941Y-63207D01*
X100241Y-62922D02*
X100436Y-62922D01*
X100331Y-63042D01*
X100376Y-63042D01*
X100406Y-63057D01*
X100421Y-63072D01*
X100436Y-63102D01*
X100436Y-63177D01*
X100421Y-63207D01*
X100406Y-63222D01*
X100376Y-63237D01*
X100286Y-63237D01*
X100256Y-63222D01*
X100241Y-63207D01*
X98813Y-63207D02*
X98798Y-63222D01*
X98753Y-63237D01*
X98723Y-63237D01*
X98678Y-63222D01*
X98648Y-63192D01*
X98633Y-63162D01*
X98618Y-63102D01*
X98618Y-63057D01*
X98633Y-62997D01*
X98648Y-62967D01*
X98678Y-62937D01*
X98723Y-62922D01*
X98753Y-62922D01*
X98798Y-62937D01*
X98813Y-62952D01*
X98918Y-62922D02*
X99113Y-62922D01*
X99008Y-63042D01*
X99053Y-63042D01*
X99083Y-63057D01*
X99098Y-63072D01*
X99113Y-63102D01*
X99113Y-63177D01*
X99098Y-63207D01*
X99083Y-63222D01*
X99053Y-63237D01*
X98963Y-63237D01*
X98933Y-63222D01*
X98918Y-63207D01*
X99383Y-62922D02*
X99323Y-62922D01*
X99293Y-62937D01*
X99278Y-62952D01*
X99248Y-62997D01*
X99233Y-63057D01*
X99233Y-63177D01*
X99248Y-63207D01*
X99263Y-63222D01*
X99293Y-63237D01*
X99353Y-63237D01*
X99383Y-63222D01*
X99398Y-63207D01*
X99413Y-63177D01*
X99413Y-63102D01*
X99398Y-63072D01*
X99383Y-63057D01*
X99353Y-63042D01*
X99293Y-63042D01*
X99263Y-63057D01*
X99248Y-63072D01*
X99233Y-63102D01*
X87474Y-73916D02*
X87459Y-73931D01*
X87414Y-73946D01*
X87384Y-73946D01*
X87339Y-73931D01*
X87309Y-73901D01*
X87294Y-73871D01*
X87279Y-73811D01*
X87279Y-73766D01*
X87294Y-73706D01*
X87309Y-73676D01*
X87339Y-73646D01*
X87384Y-73631D01*
X87414Y-73631D01*
X87459Y-73646D01*
X87474Y-73661D01*
X87774Y-73946D02*
X87594Y-73946D01*
X87684Y-73946D02*
X87684Y-73631D01*
X87654Y-73676D01*
X87624Y-73706D01*
X87594Y-73721D01*
X87969Y-73631D02*
X87999Y-73631D01*
X88029Y-73646D01*
X88044Y-73661D01*
X88059Y-73691D01*
X88074Y-73751D01*
X88074Y-73826D01*
X88059Y-73886D01*
X88044Y-73916D01*
X88029Y-73931D01*
X87999Y-73946D01*
X87969Y-73946D01*
X87939Y-73931D01*
X87924Y-73916D01*
X87909Y-73886D01*
X87894Y-73826D01*
X87894Y-73751D01*
X87909Y-73691D01*
X87924Y-73661D01*
X87939Y-73646D01*
X87969Y-73631D01*
X82932Y-63470D02*
X82947Y-63485D01*
X82962Y-63530D01*
X82962Y-63560D01*
X82947Y-63605D01*
X82917Y-63635D01*
X82887Y-63650D01*
X82827Y-63665D01*
X82782Y-63665D01*
X82722Y-63650D01*
X82692Y-63635D01*
X82662Y-63605D01*
X82647Y-63560D01*
X82647Y-63530D01*
X82662Y-63485D01*
X82677Y-63470D01*
X82962Y-63170D02*
X82962Y-63350D01*
X82962Y-63260D02*
X82647Y-63260D01*
X82692Y-63290D01*
X82722Y-63320D01*
X82737Y-63350D01*
X82677Y-63050D02*
X82662Y-63035D01*
X82647Y-63005D01*
X82647Y-62930D01*
X82662Y-62900D01*
X82677Y-62885D01*
X82707Y-62870D01*
X82737Y-62870D01*
X82782Y-62885D01*
X82962Y-63065D01*
X82962Y-62870D01*
X81758Y-68680D02*
X81743Y-68695D01*
X81698Y-68710D01*
X81668Y-68710D01*
X81623Y-68695D01*
X81593Y-68665D01*
X81578Y-68635D01*
X81563Y-68575D01*
X81563Y-68530D01*
X81578Y-68470D01*
X81593Y-68440D01*
X81623Y-68410D01*
X81668Y-68395D01*
X81698Y-68395D01*
X81743Y-68410D01*
X81758Y-68425D01*
X81863Y-68395D02*
X82073Y-68395D01*
X81938Y-68710D01*
X86364Y-73916D02*
X86349Y-73931D01*
X86304Y-73946D01*
X86274Y-73946D01*
X86229Y-73931D01*
X86199Y-73901D01*
X86184Y-73871D01*
X86169Y-73811D01*
X86169Y-73766D01*
X86184Y-73706D01*
X86199Y-73676D01*
X86229Y-73646D01*
X86274Y-73631D01*
X86304Y-73631D01*
X86349Y-73646D01*
X86364Y-73661D01*
X86514Y-73946D02*
X86574Y-73946D01*
X86604Y-73931D01*
X86619Y-73916D01*
X86649Y-73871D01*
X86664Y-73811D01*
X86664Y-73691D01*
X86649Y-73661D01*
X86634Y-73646D01*
X86604Y-73631D01*
X86544Y-73631D01*
X86514Y-73646D01*
X86499Y-73661D01*
X86484Y-73691D01*
X86484Y-73766D01*
X86499Y-73796D01*
X86514Y-73811D01*
X86544Y-73826D01*
X86604Y-73826D01*
X86634Y-73811D01*
X86649Y-73796D01*
X86664Y-73766D01*
X100068Y-70207D02*
X100068Y-70462D01*
X100083Y-70492D01*
X100098Y-70507D01*
X100128Y-70522D01*
X100188Y-70522D01*
X100218Y-70507D01*
X100233Y-70492D01*
X100248Y-70462D01*
X100248Y-70207D01*
X100548Y-70207D02*
X100398Y-70207D01*
X100383Y-70357D01*
X100398Y-70342D01*
X100428Y-70327D01*
X100503Y-70327D01*
X100533Y-70342D01*
X100548Y-70357D01*
X100563Y-70387D01*
X100563Y-70462D01*
X100548Y-70492D01*
X100533Y-70507D01*
X100503Y-70522D01*
X100428Y-70522D01*
X100398Y-70507D01*
X100383Y-70492D01*
X87658Y-74910D02*
X87868Y-75225D01*
X87868Y-74910D02*
X87658Y-75225D01*
X88153Y-75225D02*
X87973Y-75225D01*
X88063Y-75225D02*
X88063Y-74910D01*
X88033Y-74955D01*
X88003Y-74985D01*
X87973Y-75000D01*
X72065Y-67716D02*
X72050Y-67731D01*
X72005Y-67746D01*
X71975Y-67746D01*
X71930Y-67731D01*
X71900Y-67701D01*
X71885Y-67671D01*
X71870Y-67611D01*
X71870Y-67566D01*
X71885Y-67506D01*
X71900Y-67476D01*
X71930Y-67446D01*
X71975Y-67431D01*
X72005Y-67431D01*
X72050Y-67446D01*
X72065Y-67461D01*
X72260Y-67431D02*
X72320Y-67431D01*
X72350Y-67446D01*
X72380Y-67476D01*
X72395Y-67536D01*
X72395Y-67641D01*
X72380Y-67701D01*
X72350Y-67731D01*
X72320Y-67746D01*
X72260Y-67746D01*
X72230Y-67731D01*
X72200Y-67701D01*
X72185Y-67641D01*
X72185Y-67536D01*
X72200Y-67476D01*
X72230Y-67446D01*
X72260Y-67431D01*
X72530Y-67746D02*
X72530Y-67431D01*
X72710Y-67746D01*
X72710Y-67431D01*
X73025Y-67746D02*
X72845Y-67746D01*
X72935Y-67746D02*
X72935Y-67431D01*
X72905Y-67476D01*
X72875Y-67506D01*
X72845Y-67521D01*
X81199Y-72508D02*
X81214Y-72523D01*
X81229Y-72568D01*
X81229Y-72598D01*
X81214Y-72643D01*
X81184Y-72673D01*
X81154Y-72688D01*
X81094Y-72703D01*
X81049Y-72703D01*
X80989Y-72688D01*
X80959Y-72673D01*
X80929Y-72643D01*
X80914Y-72598D01*
X80914Y-72568D01*
X80929Y-72523D01*
X80944Y-72508D01*
X80914Y-72313D02*
X80914Y-72253D01*
X80929Y-72223D01*
X80959Y-72193D01*
X81019Y-72178D01*
X81124Y-72178D01*
X81184Y-72193D01*
X81214Y-72223D01*
X81229Y-72253D01*
X81229Y-72313D01*
X81214Y-72343D01*
X81184Y-72373D01*
X81124Y-72388D01*
X81019Y-72388D01*
X80959Y-72373D01*
X80929Y-72343D01*
X80914Y-72313D01*
X81229Y-72043D02*
X80914Y-72043D01*
X81229Y-71863D01*
X80914Y-71863D01*
X80944Y-71728D02*
X80929Y-71713D01*
X80914Y-71683D01*
X80914Y-71608D01*
X80929Y-71578D01*
X80944Y-71563D01*
X80974Y-71548D01*
X81004Y-71548D01*
X81049Y-71563D01*
X81229Y-71743D01*
X81229Y-71548D01*
X81317Y-66186D02*
X81332Y-66201D01*
X81347Y-66246D01*
X81347Y-66276D01*
X81332Y-66321D01*
X81302Y-66351D01*
X81272Y-66366D01*
X81212Y-66381D01*
X81167Y-66381D01*
X81107Y-66366D01*
X81077Y-66351D01*
X81047Y-66321D01*
X81032Y-66276D01*
X81032Y-66246D01*
X81047Y-66201D01*
X81062Y-66186D01*
X81032Y-66081D02*
X81032Y-65886D01*
X81152Y-65991D01*
X81152Y-65946D01*
X81167Y-65916D01*
X81182Y-65901D01*
X81212Y-65886D01*
X81287Y-65886D01*
X81317Y-65901D01*
X81332Y-65916D01*
X81347Y-65946D01*
X81347Y-66036D01*
X81332Y-66066D01*
X81317Y-66081D01*
X81347Y-65736D02*
X81347Y-65676D01*
X81332Y-65646D01*
X81317Y-65631D01*
X81272Y-65601D01*
X81212Y-65586D01*
X81092Y-65586D01*
X81062Y-65601D01*
X81047Y-65616D01*
X81032Y-65646D01*
X81032Y-65706D01*
X81047Y-65736D01*
X81062Y-65751D01*
X81092Y-65766D01*
X81167Y-65766D01*
X81197Y-65751D01*
X81212Y-65736D01*
X81227Y-65706D01*
X81227Y-65646D01*
X81212Y-65616D01*
X81197Y-65601D01*
X81167Y-65586D01*
X81548Y-66734D02*
X81443Y-66734D01*
X81443Y-66899D02*
X81443Y-66584D01*
X81593Y-66584D01*
X81818Y-66734D02*
X81863Y-66749D01*
X81878Y-66764D01*
X81893Y-66794D01*
X81893Y-66839D01*
X81878Y-66869D01*
X81863Y-66884D01*
X81833Y-66899D01*
X81713Y-66899D01*
X81713Y-66584D01*
X81818Y-66584D01*
X81848Y-66599D01*
X81863Y-66614D01*
X81878Y-66644D01*
X81878Y-66674D01*
X81863Y-66704D01*
X81848Y-66719D01*
X81818Y-66734D01*
X81713Y-66734D01*
X81998Y-66584D02*
X82193Y-66584D01*
X82088Y-66704D01*
X82133Y-66704D01*
X82163Y-66719D01*
X82178Y-66734D01*
X82193Y-66764D01*
X82193Y-66839D01*
X82178Y-66869D01*
X82163Y-66884D01*
X82133Y-66899D01*
X82043Y-66899D01*
X82013Y-66884D01*
X81998Y-66869D01*
X106379Y-70193D02*
X106379Y-69878D01*
X106559Y-70193D02*
X106424Y-70013D01*
X106559Y-69878D02*
X106379Y-70058D01*
X106859Y-70193D02*
X106679Y-70193D01*
X106769Y-70193D02*
X106769Y-69878D01*
X106739Y-69923D01*
X106709Y-69953D01*
X106679Y-69968D01*
X106521Y-64496D02*
X106521Y-64181D01*
X106641Y-64181D01*
X106671Y-64196D01*
X106686Y-64211D01*
X106701Y-64241D01*
X106701Y-64286D01*
X106686Y-64316D01*
X106671Y-64331D01*
X106641Y-64346D01*
X106521Y-64346D01*
X106986Y-64181D02*
X106836Y-64181D01*
X106821Y-64331D01*
X106836Y-64316D01*
X106866Y-64301D01*
X106941Y-64301D01*
X106971Y-64316D01*
X106986Y-64331D01*
X107001Y-64361D01*
X107001Y-64436D01*
X106986Y-64466D01*
X106971Y-64481D01*
X106941Y-64496D01*
X106866Y-64496D01*
X106836Y-64481D01*
X106821Y-64466D01*
X81630Y-61249D02*
X81630Y-61504D01*
X81645Y-61534D01*
X81660Y-61549D01*
X81690Y-61564D01*
X81750Y-61564D01*
X81780Y-61549D01*
X81795Y-61534D01*
X81810Y-61504D01*
X81810Y-61249D01*
X81930Y-61249D02*
X82125Y-61249D01*
X82020Y-61369D01*
X82065Y-61369D01*
X82095Y-61384D01*
X82110Y-61399D01*
X82125Y-61429D01*
X82125Y-61504D01*
X82110Y-61534D01*
X82095Y-61549D01*
X82065Y-61564D01*
X81975Y-61564D01*
X81945Y-61549D01*
X81930Y-61534D01*
X91393Y-67450D02*
X91393Y-67705D01*
X91408Y-67735D01*
X91423Y-67750D01*
X91453Y-67765D01*
X91513Y-67765D01*
X91543Y-67750D01*
X91558Y-67735D01*
X91573Y-67705D01*
X91573Y-67450D01*
X91858Y-67555D02*
X91858Y-67765D01*
X91783Y-67435D02*
X91708Y-67660D01*
X91903Y-67660D01*
X76244Y-71395D02*
X76289Y-71410D01*
X76364Y-71410D01*
X76394Y-71395D01*
X76409Y-71380D01*
X76424Y-71350D01*
X76424Y-71320D01*
X76409Y-71290D01*
X76394Y-71275D01*
X76364Y-71260D01*
X76304Y-71245D01*
X76274Y-71230D01*
X76259Y-71215D01*
X76244Y-71185D01*
X76244Y-71155D01*
X76259Y-71125D01*
X76274Y-71110D01*
X76304Y-71095D01*
X76379Y-71095D01*
X76424Y-71110D01*
X76529Y-71095D02*
X76604Y-71410D01*
X76664Y-71185D01*
X76724Y-71410D01*
X76799Y-71095D01*
X77084Y-71410D02*
X76904Y-71410D01*
X76994Y-71410D02*
X76994Y-71095D01*
X76964Y-71140D01*
X76934Y-71170D01*
X76904Y-71185D01*
X78670Y-68056D02*
X78520Y-68161D01*
X78670Y-68236D02*
X78355Y-68236D01*
X78355Y-68116D01*
X78370Y-68086D01*
X78385Y-68071D01*
X78415Y-68056D01*
X78460Y-68056D01*
X78490Y-68071D01*
X78505Y-68086D01*
X78520Y-68116D01*
X78520Y-68236D01*
X78670Y-67756D02*
X78670Y-67936D01*
X78670Y-67846D02*
X78355Y-67846D01*
X78400Y-67876D01*
X78430Y-67906D01*
X78445Y-67936D01*
X78670Y-67456D02*
X78670Y-67636D01*
X78670Y-67546D02*
X78355Y-67546D01*
X78400Y-67576D01*
X78430Y-67606D01*
X78445Y-67636D01*
X79391Y-68042D02*
X79241Y-68147D01*
X79391Y-68222D02*
X79076Y-68222D01*
X79076Y-68102D01*
X79091Y-68072D01*
X79106Y-68057D01*
X79136Y-68042D01*
X79181Y-68042D01*
X79211Y-68057D01*
X79226Y-68072D01*
X79241Y-68102D01*
X79241Y-68222D01*
X79391Y-67742D02*
X79391Y-67922D01*
X79391Y-67832D02*
X79076Y-67832D01*
X79121Y-67862D01*
X79151Y-67892D01*
X79166Y-67922D01*
X79076Y-67637D02*
X79076Y-67442D01*
X79196Y-67547D01*
X79196Y-67502D01*
X79211Y-67472D01*
X79226Y-67457D01*
X79256Y-67442D01*
X79331Y-67442D01*
X79361Y-67457D01*
X79376Y-67472D01*
X79391Y-67502D01*
X79391Y-67592D01*
X79376Y-67622D01*
X79361Y-67637D01*
X76713Y-67830D02*
X76398Y-67830D01*
X76398Y-67755D01*
X76413Y-67710D01*
X76443Y-67680D01*
X76473Y-67665D01*
X76533Y-67650D01*
X76578Y-67650D01*
X76638Y-67665D01*
X76668Y-67680D01*
X76698Y-67710D01*
X76713Y-67755D01*
X76713Y-67830D01*
X76713Y-67351D02*
X76713Y-67531D01*
X76713Y-67441D02*
X76398Y-67441D01*
X76443Y-67471D01*
X76473Y-67501D01*
X76488Y-67531D01*
X95350Y-67430D02*
X95350Y-67685D01*
X95365Y-67715D01*
X95380Y-67730D01*
X95410Y-67745D01*
X95470Y-67745D01*
X95500Y-67730D01*
X95515Y-67715D01*
X95530Y-67685D01*
X95530Y-67430D01*
X95815Y-67430D02*
X95755Y-67430D01*
X95725Y-67445D01*
X95710Y-67460D01*
X95680Y-67505D01*
X95665Y-67565D01*
X95665Y-67685D01*
X95680Y-67715D01*
X95695Y-67730D01*
X95725Y-67745D01*
X95785Y-67745D01*
X95815Y-67730D01*
X95830Y-67715D01*
X95845Y-67685D01*
X95845Y-67610D01*
X95830Y-67580D01*
X95815Y-67565D01*
X95785Y-67550D01*
X95725Y-67550D01*
X95695Y-67565D01*
X95680Y-67580D01*
X95665Y-67610D01*
X72988Y-60679D02*
X72988Y-60364D01*
X73108Y-60364D01*
X73138Y-60379D01*
X73153Y-60394D01*
X73168Y-60424D01*
X73168Y-60469D01*
X73153Y-60499D01*
X73138Y-60514D01*
X73108Y-60529D01*
X72988Y-60529D01*
X73468Y-60679D02*
X73288Y-60679D01*
X73378Y-60679D02*
X73378Y-60364D01*
X73348Y-60409D01*
X73318Y-60439D01*
X73288Y-60454D01*
X72988Y-74819D02*
X72988Y-74504D01*
X73108Y-74504D01*
X73138Y-74519D01*
X73153Y-74534D01*
X73168Y-74564D01*
X73168Y-74609D01*
X73153Y-74639D01*
X73138Y-74654D01*
X73108Y-74669D01*
X72988Y-74669D01*
X73468Y-74819D02*
X73288Y-74819D01*
X73378Y-74819D02*
X73378Y-74504D01*
X73348Y-74549D01*
X73318Y-74579D01*
X73288Y-74594D01*
X106798Y-74819D02*
X106798Y-74504D01*
X106918Y-74504D01*
X106948Y-74519D01*
X106963Y-74534D01*
X106978Y-74564D01*
X106978Y-74609D01*
X106963Y-74639D01*
X106948Y-74654D01*
X106918Y-74669D01*
X106798Y-74669D01*
X107278Y-74819D02*
X107098Y-74819D01*
X107188Y-74819D02*
X107188Y-74504D01*
X107158Y-74549D01*
X107128Y-74579D01*
X107098Y-74594D01*
X106798Y-60679D02*
X106798Y-60364D01*
X106918Y-60364D01*
X106948Y-60379D01*
X106963Y-60394D01*
X106978Y-60424D01*
X106978Y-60469D01*
X106963Y-60499D01*
X106948Y-60514D01*
X106918Y-60529D01*
X106798Y-60529D01*
X107278Y-60679D02*
X107098Y-60679D01*
X107188Y-60679D02*
X107188Y-60364D01*
X107158Y-60409D01*
X107128Y-60439D01*
X107098Y-60454D01*
M02*
