G04 (created by PCBNEW (2013-07-07 BZR 4022)-stable) date 26/08/2014 17:06:35*
%MOIN*%
G04 Gerber Fmt 3.4, Leading zero omitted, Abs format*
%FSLAX34Y34*%
G01*
G70*
G90*
G04 APERTURE LIST*
%ADD10C,0.00590551*%
%ADD11C,0.00393701*%
%ADD12R,0.016X0.06*%
%ADD13R,0.06X0.016*%
%ADD14R,0.0315X0.0394*%
%ADD15R,0.025X0.045*%
%ADD16R,0.045X0.025*%
%ADD17C,0.0708661*%
%ADD18R,0.220472X0.0866142*%
%ADD19R,0.0688976X0.015748*%
%ADD20R,0.0574803X0.0787402*%
%ADD21R,0.124016X0.0511811*%
%ADD22R,0.0984252X0.0561024*%
%ADD23R,0.06X0.06*%
%ADD24C,0.06*%
%ADD25C,0.0866142*%
%ADD26C,0.0433071*%
%ADD27R,0.0354331X0.015748*%
%ADD28C,0.0787402*%
%ADD29R,0.0334646X0.0255906*%
%ADD30C,0.0590551*%
%ADD31C,0.19685*%
%ADD32C,0.0275591*%
%ADD33C,0.011811*%
%ADD34C,0.015748*%
%ADD35C,0.019685*%
%ADD36C,0.0393701*%
%ADD37C,0.01*%
G04 APERTURE END LIST*
G54D10*
G54D11*
X106983Y-58953D02*
X73173Y-58953D01*
X108558Y-60528D02*
G75*
G03X106983Y-58953I-1575J0D01*
G74*
G01*
X108558Y-74668D02*
X108558Y-60528D01*
X106983Y-76243D02*
G75*
G03X108558Y-74668I0J1575D01*
G74*
G01*
X73173Y-76243D02*
X106983Y-76243D01*
X71598Y-74668D02*
G75*
G03X73173Y-76243I1575J0D01*
G74*
G01*
X71598Y-60528D02*
X71598Y-74668D01*
X73173Y-58953D02*
G75*
G03X71598Y-60528I0J-1575D01*
G74*
G01*
G54D12*
X85984Y-66057D03*
X85669Y-66057D03*
X85354Y-66057D03*
X85039Y-66057D03*
X84724Y-66057D03*
X84409Y-66057D03*
X86299Y-66057D03*
X86614Y-66057D03*
X86929Y-66057D03*
X87244Y-66057D03*
X87559Y-66057D03*
X85984Y-70557D03*
X85669Y-70557D03*
X85354Y-70557D03*
X85039Y-70557D03*
X84724Y-70557D03*
X84409Y-70557D03*
X86299Y-70557D03*
X86614Y-70557D03*
X86929Y-70557D03*
X87244Y-70557D03*
X87559Y-70557D03*
G54D13*
X83734Y-68307D03*
X88234Y-68307D03*
X83734Y-68622D03*
X88234Y-68622D03*
X88234Y-68937D03*
X83734Y-68937D03*
X83734Y-69252D03*
X88234Y-69252D03*
X88234Y-69567D03*
X83734Y-69567D03*
X83734Y-69882D03*
X88234Y-69882D03*
X88234Y-67992D03*
X83734Y-67992D03*
X83734Y-67677D03*
X88234Y-67677D03*
X88234Y-67362D03*
X83734Y-67362D03*
X83734Y-67047D03*
X88234Y-67047D03*
X88234Y-66732D03*
X83734Y-66732D03*
G54D14*
X82834Y-64291D03*
X83209Y-65157D03*
X82459Y-65157D03*
G54D15*
X81511Y-67992D03*
X82111Y-67992D03*
X97416Y-63110D03*
X98016Y-63110D03*
X91953Y-68464D03*
X91353Y-68464D03*
X92819Y-66692D03*
X92219Y-66692D03*
X81747Y-63622D03*
X82347Y-63622D03*
G54D16*
X88307Y-65772D03*
X88307Y-65172D03*
G54D15*
X83203Y-71299D03*
X83803Y-71299D03*
X93095Y-69173D03*
X92495Y-69173D03*
X81511Y-67362D03*
X82111Y-67362D03*
X96747Y-64291D03*
X97347Y-64291D03*
X97810Y-67637D03*
X98410Y-67637D03*
X91796Y-66692D03*
X91196Y-66692D03*
G54D16*
X84921Y-65181D03*
X84921Y-64581D03*
G54D15*
X84739Y-71299D03*
X85339Y-71299D03*
G54D16*
X89370Y-69621D03*
X89370Y-70221D03*
X87559Y-65181D03*
X87559Y-64581D03*
X84330Y-65181D03*
X84330Y-64581D03*
G54D15*
X81747Y-63031D03*
X82347Y-63031D03*
X97347Y-63700D03*
X96747Y-63700D03*
X96343Y-64271D03*
X95743Y-64271D03*
X97810Y-66929D03*
X98410Y-66929D03*
X106345Y-72758D03*
X106945Y-72758D03*
X81835Y-64881D03*
X81235Y-64881D03*
G54D16*
X83740Y-65181D03*
X83740Y-64581D03*
G54D15*
X99739Y-63110D03*
X100339Y-63110D03*
X99315Y-63110D03*
X98715Y-63110D03*
X87977Y-73818D03*
X87377Y-73818D03*
G54D16*
X82834Y-63567D03*
X82834Y-62967D03*
G54D15*
X82111Y-68582D03*
X81511Y-68582D03*
X86117Y-73818D03*
X86717Y-73818D03*
G54D17*
X103135Y-64970D03*
X103135Y-65970D03*
X102135Y-64970D03*
X102135Y-65970D03*
X101135Y-64970D03*
X101135Y-65970D03*
X100135Y-64970D03*
X100135Y-65970D03*
G54D18*
X86003Y-75078D03*
X89744Y-75078D03*
G54D19*
X73579Y-67087D03*
X73579Y-67343D03*
X73579Y-67599D03*
X73579Y-67855D03*
X73579Y-68111D03*
G54D20*
X73660Y-66457D03*
X73660Y-68741D03*
G54D21*
X72654Y-66526D03*
X72654Y-68672D03*
G54D22*
X72270Y-67220D03*
X72270Y-67978D03*
G54D23*
X80602Y-71125D03*
G54D24*
X81602Y-71125D03*
X80602Y-72125D03*
X81602Y-72125D03*
X80602Y-73125D03*
X81602Y-73125D03*
G54D16*
X81220Y-66284D03*
X81220Y-65684D03*
G54D15*
X81511Y-66771D03*
X82111Y-66771D03*
G54D25*
X108010Y-71482D03*
X108010Y-70105D03*
X108010Y-68727D03*
X105254Y-71482D03*
X105254Y-70105D03*
X105254Y-68727D03*
X108013Y-65097D03*
X108013Y-63719D03*
X105257Y-65097D03*
X105257Y-63719D03*
G54D26*
X82362Y-62086D03*
X81850Y-62086D03*
X81338Y-62086D03*
G54D27*
X91377Y-67342D03*
X91377Y-67598D03*
X91377Y-67854D03*
X91929Y-67854D03*
X91929Y-67598D03*
X91929Y-67342D03*
G54D28*
X77904Y-70397D03*
X77904Y-72168D03*
X75345Y-72168D03*
X75345Y-70397D03*
G54D16*
X78568Y-68179D03*
X78568Y-67579D03*
X79289Y-68165D03*
X79289Y-67565D03*
G54D29*
X76910Y-67765D03*
X76910Y-67431D03*
X76339Y-67765D03*
X76339Y-67431D03*
G54D30*
X95590Y-66098D03*
X95590Y-67098D03*
X95590Y-68098D03*
X95590Y-69098D03*
G54D31*
X73173Y-60528D03*
X73173Y-74668D03*
X106983Y-74668D03*
X106983Y-60528D03*
G54D32*
X97328Y-64897D03*
X86247Y-65156D03*
X81614Y-69685D03*
X97375Y-67653D03*
X78627Y-68637D03*
X87801Y-71487D03*
X87362Y-71535D03*
X80052Y-68166D03*
X90354Y-64763D03*
X84645Y-69842D03*
X84645Y-69488D03*
X91535Y-64763D03*
X84645Y-69094D03*
X91141Y-64763D03*
X87084Y-67599D03*
X98063Y-65457D03*
X75690Y-67580D03*
X98385Y-63110D03*
X98740Y-66929D03*
X95413Y-64251D03*
X90984Y-67716D03*
X90866Y-66692D03*
X82834Y-62637D03*
X81220Y-65354D03*
X89370Y-70551D03*
X83228Y-67992D03*
X88740Y-69960D03*
X87047Y-73818D03*
X85393Y-70039D03*
X87559Y-64251D03*
X87086Y-66653D03*
X84921Y-64251D03*
X84330Y-64251D03*
X84724Y-66574D03*
X83740Y-64251D03*
X82834Y-64724D03*
X81181Y-68582D03*
G54D33*
X97347Y-64877D02*
X97347Y-64291D01*
X97328Y-64897D02*
X97347Y-64877D01*
X84921Y-65181D02*
X86221Y-65181D01*
X86221Y-65181D02*
X86247Y-65156D01*
X97347Y-63700D02*
X97347Y-64291D01*
G54D34*
X81850Y-62086D02*
X81850Y-61968D01*
X81850Y-61968D02*
X83346Y-60472D01*
X83346Y-60472D02*
X85275Y-60472D01*
X85275Y-60472D02*
X86220Y-61417D01*
X86220Y-61417D02*
X86220Y-63897D01*
X85054Y-65181D02*
X84921Y-65181D01*
X86220Y-63897D02*
X86220Y-64015D01*
X86220Y-64015D02*
X85054Y-65181D01*
X81747Y-63622D02*
X81747Y-63031D01*
X81747Y-63031D02*
X81850Y-62928D01*
X81850Y-62928D02*
X81850Y-62086D01*
G54D33*
X85039Y-66057D02*
X85039Y-65299D01*
X85039Y-65299D02*
X84921Y-65181D01*
G54D34*
X84672Y-66968D02*
X84662Y-66968D01*
X84662Y-66968D02*
X83706Y-66012D01*
X91353Y-68464D02*
X90652Y-68464D01*
X90616Y-67342D02*
X91377Y-67342D01*
X90363Y-67596D02*
X90616Y-67342D01*
X90363Y-68175D02*
X90363Y-67596D01*
X90652Y-68464D02*
X90363Y-68175D01*
X92495Y-69173D02*
X91547Y-69173D01*
X91353Y-68979D02*
X91353Y-68464D01*
X91547Y-69173D02*
X91353Y-68979D01*
X91377Y-67342D02*
X91377Y-67111D01*
X91377Y-67111D02*
X91796Y-66692D01*
X106345Y-72758D02*
X106345Y-71905D01*
X105922Y-71482D02*
X105254Y-71482D01*
X106345Y-71905D02*
X105922Y-71482D01*
G54D33*
X97311Y-66430D02*
X96706Y-66430D01*
X96374Y-66098D02*
X95590Y-66098D01*
X96706Y-66430D02*
X96374Y-66098D01*
X98016Y-63110D02*
X98016Y-62651D01*
X99315Y-62609D02*
X99315Y-63110D01*
X99229Y-62523D02*
X99315Y-62609D01*
X98145Y-62523D02*
X99229Y-62523D01*
X98016Y-62651D02*
X98145Y-62523D01*
G54D34*
X98016Y-63110D02*
X98016Y-62888D01*
X97298Y-66417D02*
X97311Y-66430D01*
X97311Y-66430D02*
X97810Y-66929D01*
X83209Y-65157D02*
X83209Y-63942D01*
X83209Y-63942D02*
X82834Y-63567D01*
X82834Y-63567D02*
X82401Y-63567D01*
X82401Y-63567D02*
X82347Y-63622D01*
G54D35*
X89424Y-69566D02*
X89342Y-69566D01*
X89342Y-69566D02*
X89342Y-69567D01*
X88234Y-69567D02*
X89342Y-69567D01*
X88234Y-69567D02*
X87244Y-69567D01*
X85984Y-68307D02*
X85078Y-67401D01*
X87244Y-69567D02*
X85984Y-68307D01*
G54D33*
X85039Y-70557D02*
X85039Y-67362D01*
X85039Y-67362D02*
X85078Y-67401D01*
X85039Y-70557D02*
X85039Y-70999D01*
X85039Y-70999D02*
X84739Y-71299D01*
X87559Y-65181D02*
X88297Y-65181D01*
X88297Y-65181D02*
X88307Y-65172D01*
X87559Y-66057D02*
X87559Y-65182D01*
X87559Y-65182D02*
X87559Y-65181D01*
X87559Y-66057D02*
X87559Y-66613D01*
X87204Y-66968D02*
X84672Y-66968D01*
X84672Y-66968D02*
X84645Y-66968D01*
X87559Y-66613D02*
X87204Y-66968D01*
G54D35*
X84645Y-66968D02*
X85078Y-67401D01*
G54D33*
X84409Y-66057D02*
X84409Y-65260D01*
X84409Y-65260D02*
X84330Y-65181D01*
G54D35*
X83740Y-65181D02*
X83234Y-65181D01*
X83234Y-65181D02*
X83209Y-65157D01*
X81835Y-64881D02*
X82184Y-64881D01*
X82184Y-64881D02*
X82459Y-65157D01*
X82111Y-66771D02*
X82111Y-65506D01*
X82111Y-65506D02*
X82459Y-65157D01*
X82435Y-65181D02*
X82459Y-65157D01*
G54D33*
X82435Y-65181D02*
X82459Y-65157D01*
G54D35*
X83734Y-67047D02*
X82834Y-67047D01*
X82559Y-66771D02*
X82111Y-66771D01*
X82834Y-67047D02*
X82559Y-66771D01*
G54D33*
X83734Y-68622D02*
X84015Y-68622D01*
X84054Y-67047D02*
X83734Y-67047D01*
X84330Y-67322D02*
X84054Y-67047D01*
X84330Y-68307D02*
X84330Y-67322D01*
X84015Y-68622D02*
X84330Y-68307D01*
X97810Y-67637D02*
X97390Y-67637D01*
X97390Y-67637D02*
X97375Y-67653D01*
X90787Y-65826D02*
X90106Y-65826D01*
X89566Y-66366D02*
X89566Y-67322D01*
X90106Y-65826D02*
X89566Y-66366D01*
X95590Y-67204D02*
X95590Y-67204D01*
X88582Y-68307D02*
X88234Y-68307D01*
X89566Y-67322D02*
X88582Y-68307D01*
X90984Y-65629D02*
X90787Y-65826D01*
X94015Y-65629D02*
X90984Y-65629D01*
X95590Y-67204D02*
X94015Y-65629D01*
X105254Y-70105D02*
X95774Y-70105D01*
X95774Y-70105D02*
X95078Y-69409D01*
G54D34*
X108010Y-70105D02*
X105254Y-70105D01*
G54D33*
X90866Y-66023D02*
X90196Y-66023D01*
X88503Y-68937D02*
X88234Y-68937D01*
X89763Y-67677D02*
X88503Y-68937D01*
X91062Y-65826D02*
X90866Y-66023D01*
X93897Y-65826D02*
X91062Y-65826D01*
X95078Y-67007D02*
X93897Y-65826D01*
X95078Y-69409D02*
X95078Y-67007D01*
X90196Y-66023D02*
X89763Y-66456D01*
X89763Y-66456D02*
X89763Y-67677D01*
G54D34*
X92795Y-68937D02*
X92795Y-68858D01*
X92401Y-68464D02*
X91953Y-68464D01*
X92795Y-68858D02*
X92401Y-68464D01*
X86299Y-70557D02*
X86299Y-70078D01*
X92460Y-67854D02*
X91929Y-67854D01*
X92795Y-68188D02*
X92460Y-67854D01*
X92795Y-69921D02*
X92795Y-68937D01*
X92795Y-68937D02*
X92795Y-68188D01*
X91771Y-70944D02*
X92795Y-69921D01*
X88622Y-70944D02*
X91771Y-70944D01*
X87559Y-69881D02*
X88622Y-70944D01*
X86496Y-69881D02*
X87559Y-69881D01*
X86299Y-70078D02*
X86496Y-69881D01*
X93110Y-67480D02*
X92819Y-67189D01*
X92819Y-67189D02*
X92819Y-66692D01*
X86614Y-70557D02*
X86614Y-71259D01*
X92972Y-67342D02*
X91929Y-67342D01*
X93425Y-67795D02*
X93110Y-67480D01*
X93110Y-67480D02*
X93051Y-67421D01*
X93051Y-67421D02*
X92972Y-67342D01*
X93425Y-70078D02*
X93425Y-67795D01*
X91653Y-71850D02*
X93425Y-70078D01*
X87204Y-71850D02*
X91653Y-71850D01*
X86614Y-71259D02*
X87204Y-71850D01*
X87244Y-70557D02*
X87244Y-70933D01*
X78638Y-68249D02*
X78568Y-68179D01*
X78641Y-68623D02*
X78638Y-68249D01*
X78627Y-68637D02*
X78641Y-68623D01*
X87798Y-71487D02*
X87801Y-71487D01*
X87244Y-70933D02*
X87798Y-71487D01*
X86929Y-71102D02*
X86929Y-70557D01*
X87362Y-71535D02*
X86929Y-71102D01*
G54D35*
X80052Y-68166D02*
X80051Y-68165D01*
X80051Y-68165D02*
X79289Y-68165D01*
G54D33*
X93149Y-68858D02*
X93095Y-68912D01*
X93095Y-68912D02*
X93095Y-69173D01*
G54D34*
X87559Y-70557D02*
X87559Y-70630D01*
X92677Y-67598D02*
X93149Y-68070D01*
X93149Y-68070D02*
X93149Y-68858D01*
X93149Y-68858D02*
X93149Y-69960D01*
X93149Y-69960D02*
X91889Y-71220D01*
X91889Y-71220D02*
X88149Y-71220D01*
X92677Y-67598D02*
X91929Y-67598D01*
X87559Y-70630D02*
X88149Y-71220D01*
G54D33*
X92952Y-65039D02*
X92971Y-65039D01*
X90551Y-65236D02*
X89803Y-65236D01*
X88976Y-66062D02*
X88976Y-66968D01*
X89803Y-65236D02*
X88976Y-66062D01*
X88234Y-67362D02*
X88582Y-67362D01*
X88582Y-67362D02*
X88976Y-66968D01*
X90748Y-65039D02*
X92952Y-65039D01*
X90551Y-65236D02*
X90748Y-65039D01*
X92971Y-65039D02*
X96431Y-61580D01*
X102135Y-61975D02*
X102135Y-64970D01*
X101740Y-61580D02*
X102135Y-61975D01*
X96420Y-61580D02*
X96431Y-61580D01*
X96431Y-61580D02*
X101740Y-61580D01*
X97416Y-62701D02*
X97416Y-62351D01*
X97416Y-63110D02*
X97416Y-62701D01*
X101626Y-65461D02*
X102135Y-65970D01*
X101626Y-62342D02*
X101626Y-65461D01*
X101346Y-62062D02*
X101626Y-62342D01*
X97706Y-62062D02*
X101346Y-62062D01*
X97416Y-62351D02*
X97706Y-62062D01*
X97416Y-63110D02*
X96771Y-63110D01*
X96771Y-63110D02*
X96232Y-63649D01*
X96232Y-63649D02*
X94709Y-63649D01*
X94709Y-63649D02*
X93122Y-65236D01*
X93122Y-65236D02*
X93122Y-65248D01*
X93122Y-65248D02*
X93122Y-65236D01*
X90629Y-65433D02*
X89907Y-65433D01*
X90629Y-65433D02*
X90826Y-65236D01*
X90826Y-65236D02*
X93122Y-65236D01*
X88582Y-67677D02*
X89173Y-67086D01*
X88234Y-67677D02*
X88582Y-67677D01*
X89907Y-65433D02*
X89173Y-66167D01*
X89173Y-66167D02*
X89173Y-67086D01*
X103936Y-66622D02*
X103936Y-66740D01*
X100305Y-67176D02*
X100135Y-67006D01*
X103500Y-67176D02*
X100305Y-67176D01*
X103936Y-66740D02*
X103500Y-67176D01*
X92677Y-64291D02*
X92788Y-64291D01*
X90787Y-64724D02*
X91220Y-64291D01*
X91220Y-64291D02*
X92677Y-64291D01*
X100135Y-67006D02*
X100135Y-65970D01*
X103936Y-61276D02*
X103936Y-66622D01*
X103550Y-60890D02*
X103936Y-61276D01*
X96190Y-60890D02*
X103550Y-60890D01*
X92788Y-64291D02*
X96190Y-60890D01*
X90472Y-65039D02*
X90000Y-65039D01*
X88779Y-65984D02*
X88779Y-66850D01*
X89724Y-65039D02*
X88779Y-65984D01*
X90000Y-65039D02*
X89724Y-65039D01*
X88234Y-67047D02*
X88582Y-67047D01*
X90787Y-64724D02*
X90787Y-64724D01*
X90472Y-65039D02*
X90787Y-64724D01*
X90472Y-65039D02*
X90472Y-65039D01*
X88582Y-67047D02*
X88779Y-66850D01*
X92530Y-64094D02*
X92685Y-64094D01*
X99490Y-64970D02*
X100135Y-64970D01*
X99290Y-65170D02*
X99490Y-64970D01*
X99290Y-66980D02*
X99290Y-65170D01*
X99720Y-67410D02*
X99290Y-66980D01*
X103600Y-67410D02*
X99720Y-67410D01*
X104170Y-66840D02*
X103600Y-67410D01*
X104170Y-61200D02*
X104170Y-66840D01*
X103630Y-60660D02*
X104170Y-61200D01*
X96120Y-60660D02*
X103630Y-60660D01*
X92685Y-64094D02*
X96120Y-60660D01*
X90354Y-64763D02*
X90354Y-64763D01*
X91023Y-64094D02*
X92530Y-64094D01*
X92530Y-64094D02*
X92559Y-64094D01*
X90354Y-64763D02*
X91023Y-64094D01*
X83734Y-69882D02*
X84606Y-69882D01*
X84606Y-69882D02*
X84645Y-69842D01*
X83734Y-69882D02*
X83413Y-69882D01*
X80118Y-71610D02*
X80602Y-71125D01*
X80118Y-72322D02*
X80118Y-71610D01*
X80433Y-72637D02*
X80118Y-72322D01*
X81771Y-72637D02*
X80433Y-72637D01*
X82244Y-72165D02*
X81771Y-72637D01*
X82244Y-71051D02*
X82244Y-72165D01*
X83413Y-69882D02*
X82244Y-71051D01*
X96369Y-61341D02*
X102231Y-61341D01*
X102645Y-66577D02*
X102645Y-61755D01*
X92946Y-64763D02*
X96369Y-61341D01*
X84566Y-69567D02*
X83734Y-69567D01*
X84566Y-69567D02*
X84645Y-69488D01*
X91535Y-64763D02*
X92834Y-64763D01*
X92834Y-64763D02*
X92946Y-64763D01*
X102231Y-61341D02*
X102645Y-61755D01*
X102645Y-66577D02*
X102645Y-66591D01*
X101135Y-66629D02*
X101135Y-65970D01*
X101214Y-66708D02*
X101135Y-66629D01*
X102528Y-66708D02*
X101214Y-66708D01*
X102645Y-66591D02*
X102528Y-66708D01*
X102645Y-66577D02*
X102645Y-66615D01*
X83734Y-69567D02*
X83149Y-69567D01*
X83149Y-69567D02*
X82047Y-70669D01*
X82047Y-70669D02*
X82047Y-71681D01*
X82047Y-71681D02*
X81602Y-72125D01*
X103705Y-62455D02*
X103705Y-61414D01*
X100625Y-66731D02*
X100625Y-65480D01*
X100856Y-66962D02*
X100625Y-66731D01*
X103376Y-66962D02*
X100856Y-66962D01*
X103705Y-66633D02*
X103376Y-66962D01*
X101135Y-64970D02*
X100625Y-65480D01*
X103362Y-61110D02*
X102354Y-61110D01*
X103705Y-62455D02*
X103705Y-66633D01*
X103401Y-61110D02*
X103362Y-61110D01*
X103705Y-61414D02*
X103401Y-61110D01*
X92920Y-64488D02*
X96299Y-61110D01*
X84488Y-69252D02*
X83734Y-69252D01*
X84488Y-69252D02*
X84645Y-69094D01*
X91417Y-64488D02*
X91141Y-64763D01*
X92795Y-64488D02*
X91417Y-64488D01*
X92795Y-64488D02*
X92920Y-64488D01*
X96299Y-61110D02*
X102354Y-61110D01*
X102354Y-61110D02*
X102370Y-61110D01*
X83734Y-69252D02*
X82795Y-69252D01*
X81102Y-71625D02*
X80602Y-72125D01*
X81102Y-70944D02*
X81102Y-71625D01*
X82795Y-69252D02*
X81102Y-70944D01*
G54D34*
X87090Y-67760D02*
X87090Y-67605D01*
X87592Y-69252D02*
X87090Y-68750D01*
X87090Y-68750D02*
X87090Y-67760D01*
X88234Y-69252D02*
X87592Y-69252D01*
X87090Y-67605D02*
X87084Y-67599D01*
G54D33*
X97322Y-65452D02*
X97871Y-65452D01*
G54D35*
X96747Y-64877D02*
X97322Y-65452D01*
X96747Y-64291D02*
X96747Y-64877D01*
G54D33*
X97875Y-65457D02*
X98063Y-65457D01*
X97871Y-65452D02*
X97875Y-65457D01*
X93956Y-65433D02*
X97303Y-65433D01*
X96747Y-64291D02*
X96727Y-64271D01*
X96727Y-64271D02*
X96343Y-64271D01*
X90708Y-65629D02*
X90000Y-65629D01*
X89370Y-66259D02*
X89370Y-67204D01*
X90000Y-65629D02*
X89370Y-66259D01*
X90905Y-65433D02*
X90708Y-65629D01*
X93956Y-65433D02*
X90905Y-65433D01*
X88582Y-67992D02*
X88234Y-67992D01*
X89370Y-67204D02*
X88582Y-67992D01*
X83734Y-67677D02*
X82913Y-67677D01*
X82598Y-67992D02*
X82111Y-67992D01*
X82913Y-67677D02*
X82598Y-67992D01*
X83734Y-67362D02*
X82111Y-67362D01*
X82111Y-67362D02*
X82111Y-67362D01*
X83203Y-71299D02*
X82519Y-71299D01*
X84724Y-70557D02*
X84724Y-70275D01*
X81059Y-73582D02*
X80602Y-73125D01*
X81811Y-73582D02*
X81059Y-73582D01*
X82440Y-72952D02*
X81811Y-73582D01*
X82440Y-71377D02*
X82440Y-72952D01*
X83700Y-70118D02*
X82519Y-71299D01*
X82519Y-71299D02*
X82440Y-71377D01*
X84566Y-70118D02*
X83700Y-70118D01*
X84724Y-70275D02*
X84566Y-70118D01*
G54D35*
X75926Y-67684D02*
X75926Y-67636D01*
X75870Y-67580D02*
X75690Y-67580D01*
X75926Y-67636D02*
X75870Y-67580D01*
X76339Y-67431D02*
X75982Y-67431D01*
X76007Y-67765D02*
X76339Y-67765D01*
X75926Y-67684D02*
X76007Y-67765D01*
X75926Y-67488D02*
X75926Y-67684D01*
X75982Y-67431D02*
X75926Y-67488D01*
G54D34*
X106945Y-72758D02*
X106945Y-73298D01*
X106983Y-73337D02*
X106983Y-74668D01*
X106945Y-73298D02*
X106983Y-73337D01*
G54D33*
X100339Y-63110D02*
X100339Y-63649D01*
G54D34*
X98385Y-63110D02*
X98715Y-63110D01*
G54D33*
X98385Y-63672D02*
X98385Y-63110D01*
X98490Y-63777D02*
X98385Y-63672D01*
X100212Y-63777D02*
X98490Y-63777D01*
X100339Y-63649D02*
X100212Y-63777D01*
G54D34*
X73579Y-68111D02*
X72403Y-68111D01*
X72403Y-68111D02*
X72270Y-67978D01*
G54D33*
X98410Y-66929D02*
X98740Y-66929D01*
X95743Y-64271D02*
X95723Y-64251D01*
X95723Y-64251D02*
X95413Y-64251D01*
X96747Y-63700D02*
X96589Y-63858D01*
X96156Y-63858D02*
X95743Y-64271D01*
X96589Y-63858D02*
X96156Y-63858D01*
G54D35*
X81220Y-65393D02*
X81220Y-64896D01*
X81220Y-64896D02*
X81235Y-64881D01*
G54D33*
X91377Y-67854D02*
X91122Y-67854D01*
X91102Y-67598D02*
X90984Y-67716D01*
X91102Y-67598D02*
X91377Y-67598D01*
X91122Y-67854D02*
X90984Y-67716D01*
X91196Y-66692D02*
X90866Y-66692D01*
G54D34*
X82834Y-62967D02*
X82411Y-62967D01*
X82411Y-62967D02*
X82347Y-63031D01*
X82834Y-62967D02*
X82834Y-62637D01*
X82347Y-63031D02*
X82347Y-62101D01*
X82347Y-62101D02*
X82362Y-62086D01*
G54D36*
X72467Y-68672D02*
X73542Y-68672D01*
X73542Y-68672D02*
X73660Y-68554D01*
X72270Y-67978D02*
X72270Y-68475D01*
X72270Y-68475D02*
X72467Y-68672D01*
X72467Y-66526D02*
X73542Y-66526D01*
X73542Y-66526D02*
X73660Y-66644D01*
X72270Y-67220D02*
X72270Y-66723D01*
X72270Y-66723D02*
X72467Y-66526D01*
G54D35*
X81220Y-65684D02*
X81220Y-65393D01*
X81220Y-65393D02*
X81220Y-65354D01*
X89370Y-70221D02*
X89370Y-70551D01*
G54D34*
X83734Y-67992D02*
X83228Y-67992D01*
X83228Y-67992D02*
X83228Y-67992D01*
G54D33*
X88234Y-69882D02*
X88661Y-69882D01*
X88661Y-69882D02*
X88740Y-69960D01*
X87377Y-73818D02*
X87047Y-73818D01*
X87047Y-73818D02*
X86717Y-73818D01*
X85354Y-70557D02*
X85354Y-70078D01*
X85354Y-70078D02*
X85393Y-70039D01*
X85354Y-70557D02*
X85354Y-71284D01*
X85354Y-71284D02*
X85339Y-71299D01*
X87559Y-64581D02*
X87559Y-64251D01*
X87244Y-66057D02*
X87244Y-66495D01*
X87244Y-66495D02*
X87086Y-66653D01*
G54D35*
X84921Y-64581D02*
X84921Y-64251D01*
X84330Y-64581D02*
X84330Y-64251D01*
G54D33*
X84724Y-66057D02*
X84724Y-66574D01*
X84724Y-66574D02*
X84724Y-66574D01*
G54D35*
X83740Y-64581D02*
X83740Y-64251D01*
X82834Y-64291D02*
X82834Y-64724D01*
G54D33*
X81511Y-68582D02*
X81181Y-68582D01*
G54D35*
X78568Y-67579D02*
X78071Y-67579D01*
X77884Y-67765D02*
X76910Y-67765D01*
X78071Y-67579D02*
X77884Y-67765D01*
X79289Y-67565D02*
X79289Y-67259D01*
X77426Y-67431D02*
X76910Y-67431D01*
X77670Y-67188D02*
X77426Y-67431D01*
X79218Y-67188D02*
X77670Y-67188D01*
X79289Y-67259D02*
X79218Y-67188D01*
G54D33*
X85984Y-70557D02*
X85984Y-71692D01*
X87977Y-73685D02*
X87977Y-73818D01*
X85984Y-71692D02*
X87977Y-73685D01*
X89744Y-75078D02*
X88700Y-75078D01*
X87977Y-74355D02*
X87977Y-73818D01*
X88700Y-75078D02*
X87977Y-74355D01*
X86117Y-73818D02*
X86117Y-72259D01*
X85669Y-71810D02*
X85669Y-70557D01*
X86117Y-72259D02*
X85669Y-71810D01*
X86117Y-73818D02*
X86117Y-74965D01*
X86117Y-74965D02*
X86003Y-75078D01*
X88234Y-66732D02*
X88234Y-65845D01*
X88234Y-65845D02*
X88307Y-65772D01*
X83734Y-68307D02*
X83070Y-68307D01*
X82795Y-68582D02*
X82111Y-68582D01*
X83070Y-68307D02*
X82795Y-68582D01*
X73579Y-67343D02*
X74553Y-67343D01*
X80655Y-67362D02*
X81511Y-67362D01*
X80108Y-66815D02*
X80655Y-67362D01*
X75082Y-66815D02*
X80108Y-66815D01*
X74553Y-67343D02*
X75082Y-66815D01*
G54D34*
X81491Y-67342D02*
X81511Y-67362D01*
G54D33*
X73579Y-67599D02*
X74564Y-67599D01*
X80657Y-67992D02*
X81511Y-67992D01*
X79720Y-68930D02*
X80657Y-67992D01*
X75895Y-68930D02*
X79720Y-68930D01*
X74564Y-67599D02*
X75895Y-68930D01*
G54D34*
X81338Y-67992D02*
X81511Y-67992D01*
G54D33*
X73579Y-67087D02*
X74410Y-67087D01*
X80638Y-66771D02*
X81511Y-66771D01*
X80297Y-66430D02*
X80638Y-66771D01*
X75068Y-66430D02*
X80297Y-66430D01*
X74410Y-67087D02*
X75068Y-66430D01*
G54D34*
X81220Y-66284D02*
X81220Y-66481D01*
X81220Y-66481D02*
X81511Y-66771D01*
X81299Y-66771D02*
X81511Y-66771D01*
G54D10*
G36*
X81678Y-71131D02*
X81607Y-71202D01*
X81602Y-71196D01*
X81596Y-71202D01*
X81526Y-71131D01*
X81531Y-71125D01*
X81526Y-71120D01*
X81596Y-71049D01*
X81602Y-71055D01*
X81607Y-71049D01*
X81678Y-71120D01*
X81673Y-71125D01*
X81678Y-71131D01*
X81678Y-71131D01*
G37*
G54D37*
X81678Y-71131D02*
X81607Y-71202D01*
X81602Y-71196D01*
X81596Y-71202D01*
X81526Y-71131D01*
X81531Y-71125D01*
X81526Y-71120D01*
X81596Y-71049D01*
X81602Y-71055D01*
X81607Y-71049D01*
X81678Y-71120D01*
X81673Y-71125D01*
X81678Y-71131D01*
G54D10*
G36*
X84394Y-66114D02*
X84369Y-66114D01*
X84369Y-66107D01*
X84141Y-66107D01*
X84079Y-66169D01*
X84079Y-66307D01*
X84079Y-66402D01*
X83984Y-66402D01*
X83690Y-66402D01*
X83690Y-65494D01*
X83690Y-65231D01*
X83579Y-65231D01*
X83554Y-65207D01*
X83259Y-65207D01*
X83259Y-65541D01*
X83322Y-65604D01*
X83416Y-65604D01*
X83508Y-65566D01*
X83518Y-65556D01*
X83564Y-65556D01*
X83627Y-65556D01*
X83690Y-65494D01*
X83690Y-66402D01*
X83475Y-66402D01*
X83475Y-66288D01*
X82459Y-66288D01*
X82459Y-65650D01*
X82505Y-65604D01*
X82666Y-65604D01*
X82758Y-65566D01*
X82828Y-65496D01*
X82834Y-65482D01*
X82840Y-65496D01*
X82910Y-65566D01*
X83002Y-65604D01*
X83097Y-65604D01*
X83159Y-65541D01*
X83159Y-65207D01*
X83151Y-65207D01*
X83151Y-65107D01*
X83159Y-65107D01*
X83159Y-65099D01*
X83259Y-65099D01*
X83259Y-65107D01*
X83303Y-65107D01*
X83327Y-65131D01*
X83690Y-65131D01*
X83690Y-65124D01*
X83790Y-65124D01*
X83790Y-65131D01*
X83918Y-65131D01*
X84152Y-65131D01*
X84280Y-65131D01*
X84280Y-65124D01*
X84380Y-65124D01*
X84380Y-65131D01*
X84388Y-65131D01*
X84388Y-65231D01*
X84380Y-65231D01*
X84380Y-65239D01*
X84280Y-65239D01*
X84280Y-65231D01*
X84152Y-65231D01*
X83918Y-65231D01*
X83790Y-65231D01*
X83790Y-65494D01*
X83852Y-65556D01*
X83915Y-65556D01*
X84015Y-65556D01*
X84035Y-65548D01*
X84055Y-65556D01*
X84155Y-65556D01*
X84175Y-65556D01*
X84117Y-65615D01*
X84079Y-65707D01*
X84079Y-65806D01*
X84079Y-65944D01*
X84141Y-66007D01*
X84369Y-66007D01*
X84369Y-65999D01*
X84394Y-65999D01*
X84394Y-66114D01*
X84394Y-66114D01*
G37*
G54D37*
X84394Y-66114D02*
X84369Y-66114D01*
X84369Y-66107D01*
X84141Y-66107D01*
X84079Y-66169D01*
X84079Y-66307D01*
X84079Y-66402D01*
X83984Y-66402D01*
X83690Y-66402D01*
X83690Y-65494D01*
X83690Y-65231D01*
X83579Y-65231D01*
X83554Y-65207D01*
X83259Y-65207D01*
X83259Y-65541D01*
X83322Y-65604D01*
X83416Y-65604D01*
X83508Y-65566D01*
X83518Y-65556D01*
X83564Y-65556D01*
X83627Y-65556D01*
X83690Y-65494D01*
X83690Y-66402D01*
X83475Y-66402D01*
X83475Y-66288D01*
X82459Y-66288D01*
X82459Y-65650D01*
X82505Y-65604D01*
X82666Y-65604D01*
X82758Y-65566D01*
X82828Y-65496D01*
X82834Y-65482D01*
X82840Y-65496D01*
X82910Y-65566D01*
X83002Y-65604D01*
X83097Y-65604D01*
X83159Y-65541D01*
X83159Y-65207D01*
X83151Y-65207D01*
X83151Y-65107D01*
X83159Y-65107D01*
X83159Y-65099D01*
X83259Y-65099D01*
X83259Y-65107D01*
X83303Y-65107D01*
X83327Y-65131D01*
X83690Y-65131D01*
X83690Y-65124D01*
X83790Y-65124D01*
X83790Y-65131D01*
X83918Y-65131D01*
X84152Y-65131D01*
X84280Y-65131D01*
X84280Y-65124D01*
X84380Y-65124D01*
X84380Y-65131D01*
X84388Y-65131D01*
X84388Y-65231D01*
X84380Y-65231D01*
X84380Y-65239D01*
X84280Y-65239D01*
X84280Y-65231D01*
X84152Y-65231D01*
X83918Y-65231D01*
X83790Y-65231D01*
X83790Y-65494D01*
X83852Y-65556D01*
X83915Y-65556D01*
X84015Y-65556D01*
X84035Y-65548D01*
X84055Y-65556D01*
X84155Y-65556D01*
X84175Y-65556D01*
X84117Y-65615D01*
X84079Y-65707D01*
X84079Y-65806D01*
X84079Y-65944D01*
X84141Y-66007D01*
X84369Y-66007D01*
X84369Y-65999D01*
X84394Y-65999D01*
X84394Y-66114D01*
G54D10*
G36*
X85383Y-73414D02*
X84689Y-73414D01*
X84689Y-71711D01*
X84689Y-71349D01*
X84426Y-71349D01*
X84364Y-71411D01*
X84364Y-71474D01*
X84364Y-71574D01*
X84402Y-71666D01*
X84472Y-71736D01*
X84564Y-71774D01*
X84626Y-71774D01*
X84689Y-71711D01*
X84689Y-73414D01*
X84178Y-73414D01*
X84178Y-71474D01*
X84178Y-71411D01*
X84116Y-71349D01*
X83853Y-71349D01*
X83853Y-71711D01*
X83916Y-71774D01*
X83978Y-71774D01*
X84070Y-71736D01*
X84140Y-71666D01*
X84178Y-71574D01*
X84178Y-71474D01*
X84178Y-73414D01*
X83887Y-73414D01*
X83887Y-75973D01*
X78548Y-75973D01*
X78548Y-72041D01*
X78548Y-70269D01*
X78450Y-70033D01*
X78269Y-69851D01*
X78033Y-69753D01*
X77777Y-69753D01*
X77540Y-69851D01*
X77359Y-70032D01*
X77261Y-70268D01*
X77260Y-70524D01*
X77358Y-70761D01*
X77539Y-70942D01*
X77776Y-71040D01*
X78032Y-71040D01*
X78268Y-70943D01*
X78450Y-70762D01*
X78548Y-70525D01*
X78548Y-70269D01*
X78548Y-72041D01*
X78450Y-71804D01*
X78269Y-71623D01*
X78033Y-71525D01*
X77777Y-71525D01*
X77540Y-71622D01*
X77359Y-71803D01*
X77261Y-72040D01*
X77260Y-72296D01*
X77358Y-72532D01*
X77539Y-72714D01*
X77776Y-72812D01*
X78032Y-72812D01*
X78268Y-72714D01*
X78450Y-72533D01*
X78548Y-72297D01*
X78548Y-72041D01*
X78548Y-75973D01*
X75989Y-75973D01*
X75989Y-72041D01*
X75989Y-70269D01*
X75891Y-70033D01*
X75710Y-69851D01*
X75474Y-69753D01*
X75218Y-69753D01*
X74981Y-69851D01*
X74800Y-70032D01*
X74702Y-70268D01*
X74701Y-70524D01*
X74799Y-70761D01*
X74980Y-70942D01*
X75217Y-71040D01*
X75473Y-71040D01*
X75709Y-70943D01*
X75891Y-70762D01*
X75989Y-70525D01*
X75989Y-70269D01*
X75989Y-72041D01*
X75891Y-71804D01*
X75710Y-71623D01*
X75474Y-71525D01*
X75218Y-71525D01*
X74981Y-71622D01*
X74800Y-71803D01*
X74702Y-72040D01*
X74701Y-72296D01*
X74799Y-72532D01*
X74980Y-72714D01*
X75217Y-72812D01*
X75473Y-72812D01*
X75709Y-72714D01*
X75891Y-72533D01*
X75989Y-72297D01*
X75989Y-72041D01*
X75989Y-75973D01*
X74408Y-75973D01*
X74408Y-74424D01*
X74220Y-73970D01*
X73873Y-73622D01*
X73420Y-73434D01*
X72929Y-73433D01*
X72475Y-73621D01*
X72127Y-73968D01*
X71939Y-74421D01*
X71939Y-74912D01*
X72126Y-75366D01*
X72473Y-75714D01*
X72927Y-75902D01*
X73418Y-75902D01*
X73871Y-75715D01*
X74219Y-75368D01*
X74407Y-74915D01*
X74408Y-74424D01*
X74408Y-75973D01*
X73197Y-75973D01*
X72677Y-75869D01*
X72253Y-75586D01*
X71973Y-75167D01*
X71868Y-74641D01*
X71868Y-69115D01*
X71892Y-69139D01*
X71984Y-69178D01*
X72083Y-69178D01*
X73122Y-69178D01*
X73122Y-69184D01*
X73160Y-69276D01*
X73231Y-69346D01*
X73323Y-69384D01*
X73422Y-69384D01*
X73997Y-69384D01*
X74089Y-69346D01*
X74159Y-69276D01*
X74197Y-69184D01*
X74197Y-69085D01*
X74197Y-68297D01*
X74173Y-68240D01*
X74174Y-68239D01*
X74174Y-68140D01*
X74174Y-67982D01*
X74174Y-67982D01*
X74174Y-67908D01*
X74436Y-67908D01*
X75676Y-69148D01*
X75776Y-69215D01*
X75776Y-69215D01*
X75895Y-69239D01*
X79720Y-69239D01*
X79838Y-69215D01*
X79838Y-69215D01*
X79938Y-69148D01*
X80698Y-68389D01*
X80698Y-69144D01*
X82465Y-69144D01*
X81010Y-70600D01*
X80952Y-70576D01*
X80852Y-70575D01*
X80252Y-70575D01*
X80160Y-70613D01*
X80090Y-70684D01*
X80052Y-70776D01*
X80052Y-70875D01*
X80052Y-71238D01*
X79899Y-71391D01*
X79832Y-71491D01*
X79809Y-71610D01*
X79809Y-72322D01*
X79832Y-72441D01*
X79899Y-72541D01*
X80154Y-72796D01*
X80136Y-72814D01*
X80052Y-73016D01*
X80052Y-73234D01*
X80135Y-73437D01*
X80290Y-73591D01*
X80492Y-73675D01*
X80711Y-73676D01*
X80714Y-73674D01*
X80840Y-73801D01*
X80840Y-73801D01*
X80940Y-73868D01*
X80940Y-73868D01*
X81035Y-73887D01*
X81059Y-73891D01*
X81059Y-73891D01*
X81059Y-73891D01*
X81811Y-73891D01*
X81929Y-73868D01*
X81929Y-73868D01*
X82029Y-73801D01*
X82659Y-73171D01*
X82659Y-73171D01*
X82659Y-73171D01*
X82726Y-73071D01*
X82726Y-73071D01*
X82750Y-72952D01*
X82750Y-71608D01*
X82843Y-71608D01*
X82866Y-71665D01*
X82937Y-71736D01*
X83028Y-71774D01*
X83128Y-71774D01*
X83378Y-71774D01*
X83470Y-71736D01*
X83503Y-71702D01*
X83537Y-71736D01*
X83629Y-71774D01*
X83691Y-71774D01*
X83753Y-71711D01*
X83753Y-71349D01*
X83746Y-71349D01*
X83746Y-71249D01*
X83753Y-71249D01*
X83753Y-70886D01*
X83691Y-70824D01*
X83629Y-70824D01*
X83537Y-70862D01*
X83503Y-70895D01*
X83470Y-70862D01*
X83416Y-70839D01*
X83828Y-70427D01*
X84079Y-70427D01*
X84079Y-70870D01*
X84070Y-70862D01*
X83978Y-70824D01*
X83916Y-70824D01*
X83853Y-70886D01*
X83853Y-71249D01*
X84116Y-71249D01*
X84178Y-71186D01*
X84178Y-71123D01*
X84178Y-71060D01*
X84187Y-71068D01*
X84279Y-71107D01*
X84364Y-71107D01*
X84364Y-71123D01*
X84364Y-71186D01*
X84426Y-71249D01*
X84689Y-71249D01*
X84689Y-71241D01*
X84789Y-71241D01*
X84789Y-71249D01*
X84797Y-71249D01*
X84797Y-71349D01*
X84789Y-71349D01*
X84789Y-71711D01*
X84851Y-71774D01*
X84913Y-71774D01*
X85005Y-71736D01*
X85039Y-71702D01*
X85072Y-71736D01*
X85164Y-71774D01*
X85263Y-71774D01*
X85360Y-71774D01*
X85360Y-71810D01*
X85383Y-71925D01*
X85383Y-73414D01*
X85383Y-73414D01*
G37*
G54D37*
X85383Y-73414D02*
X84689Y-73414D01*
X84689Y-71711D01*
X84689Y-71349D01*
X84426Y-71349D01*
X84364Y-71411D01*
X84364Y-71474D01*
X84364Y-71574D01*
X84402Y-71666D01*
X84472Y-71736D01*
X84564Y-71774D01*
X84626Y-71774D01*
X84689Y-71711D01*
X84689Y-73414D01*
X84178Y-73414D01*
X84178Y-71474D01*
X84178Y-71411D01*
X84116Y-71349D01*
X83853Y-71349D01*
X83853Y-71711D01*
X83916Y-71774D01*
X83978Y-71774D01*
X84070Y-71736D01*
X84140Y-71666D01*
X84178Y-71574D01*
X84178Y-71474D01*
X84178Y-73414D01*
X83887Y-73414D01*
X83887Y-75973D01*
X78548Y-75973D01*
X78548Y-72041D01*
X78548Y-70269D01*
X78450Y-70033D01*
X78269Y-69851D01*
X78033Y-69753D01*
X77777Y-69753D01*
X77540Y-69851D01*
X77359Y-70032D01*
X77261Y-70268D01*
X77260Y-70524D01*
X77358Y-70761D01*
X77539Y-70942D01*
X77776Y-71040D01*
X78032Y-71040D01*
X78268Y-70943D01*
X78450Y-70762D01*
X78548Y-70525D01*
X78548Y-70269D01*
X78548Y-72041D01*
X78450Y-71804D01*
X78269Y-71623D01*
X78033Y-71525D01*
X77777Y-71525D01*
X77540Y-71622D01*
X77359Y-71803D01*
X77261Y-72040D01*
X77260Y-72296D01*
X77358Y-72532D01*
X77539Y-72714D01*
X77776Y-72812D01*
X78032Y-72812D01*
X78268Y-72714D01*
X78450Y-72533D01*
X78548Y-72297D01*
X78548Y-72041D01*
X78548Y-75973D01*
X75989Y-75973D01*
X75989Y-72041D01*
X75989Y-70269D01*
X75891Y-70033D01*
X75710Y-69851D01*
X75474Y-69753D01*
X75218Y-69753D01*
X74981Y-69851D01*
X74800Y-70032D01*
X74702Y-70268D01*
X74701Y-70524D01*
X74799Y-70761D01*
X74980Y-70942D01*
X75217Y-71040D01*
X75473Y-71040D01*
X75709Y-70943D01*
X75891Y-70762D01*
X75989Y-70525D01*
X75989Y-70269D01*
X75989Y-72041D01*
X75891Y-71804D01*
X75710Y-71623D01*
X75474Y-71525D01*
X75218Y-71525D01*
X74981Y-71622D01*
X74800Y-71803D01*
X74702Y-72040D01*
X74701Y-72296D01*
X74799Y-72532D01*
X74980Y-72714D01*
X75217Y-72812D01*
X75473Y-72812D01*
X75709Y-72714D01*
X75891Y-72533D01*
X75989Y-72297D01*
X75989Y-72041D01*
X75989Y-75973D01*
X74408Y-75973D01*
X74408Y-74424D01*
X74220Y-73970D01*
X73873Y-73622D01*
X73420Y-73434D01*
X72929Y-73433D01*
X72475Y-73621D01*
X72127Y-73968D01*
X71939Y-74421D01*
X71939Y-74912D01*
X72126Y-75366D01*
X72473Y-75714D01*
X72927Y-75902D01*
X73418Y-75902D01*
X73871Y-75715D01*
X74219Y-75368D01*
X74407Y-74915D01*
X74408Y-74424D01*
X74408Y-75973D01*
X73197Y-75973D01*
X72677Y-75869D01*
X72253Y-75586D01*
X71973Y-75167D01*
X71868Y-74641D01*
X71868Y-69115D01*
X71892Y-69139D01*
X71984Y-69178D01*
X72083Y-69178D01*
X73122Y-69178D01*
X73122Y-69184D01*
X73160Y-69276D01*
X73231Y-69346D01*
X73323Y-69384D01*
X73422Y-69384D01*
X73997Y-69384D01*
X74089Y-69346D01*
X74159Y-69276D01*
X74197Y-69184D01*
X74197Y-69085D01*
X74197Y-68297D01*
X74173Y-68240D01*
X74174Y-68239D01*
X74174Y-68140D01*
X74174Y-67982D01*
X74174Y-67982D01*
X74174Y-67908D01*
X74436Y-67908D01*
X75676Y-69148D01*
X75776Y-69215D01*
X75776Y-69215D01*
X75895Y-69239D01*
X79720Y-69239D01*
X79838Y-69215D01*
X79838Y-69215D01*
X79938Y-69148D01*
X80698Y-68389D01*
X80698Y-69144D01*
X82465Y-69144D01*
X81010Y-70600D01*
X80952Y-70576D01*
X80852Y-70575D01*
X80252Y-70575D01*
X80160Y-70613D01*
X80090Y-70684D01*
X80052Y-70776D01*
X80052Y-70875D01*
X80052Y-71238D01*
X79899Y-71391D01*
X79832Y-71491D01*
X79809Y-71610D01*
X79809Y-72322D01*
X79832Y-72441D01*
X79899Y-72541D01*
X80154Y-72796D01*
X80136Y-72814D01*
X80052Y-73016D01*
X80052Y-73234D01*
X80135Y-73437D01*
X80290Y-73591D01*
X80492Y-73675D01*
X80711Y-73676D01*
X80714Y-73674D01*
X80840Y-73801D01*
X80840Y-73801D01*
X80940Y-73868D01*
X80940Y-73868D01*
X81035Y-73887D01*
X81059Y-73891D01*
X81059Y-73891D01*
X81059Y-73891D01*
X81811Y-73891D01*
X81929Y-73868D01*
X81929Y-73868D01*
X82029Y-73801D01*
X82659Y-73171D01*
X82659Y-73171D01*
X82659Y-73171D01*
X82726Y-73071D01*
X82726Y-73071D01*
X82750Y-72952D01*
X82750Y-71608D01*
X82843Y-71608D01*
X82866Y-71665D01*
X82937Y-71736D01*
X83028Y-71774D01*
X83128Y-71774D01*
X83378Y-71774D01*
X83470Y-71736D01*
X83503Y-71702D01*
X83537Y-71736D01*
X83629Y-71774D01*
X83691Y-71774D01*
X83753Y-71711D01*
X83753Y-71349D01*
X83746Y-71349D01*
X83746Y-71249D01*
X83753Y-71249D01*
X83753Y-70886D01*
X83691Y-70824D01*
X83629Y-70824D01*
X83537Y-70862D01*
X83503Y-70895D01*
X83470Y-70862D01*
X83416Y-70839D01*
X83828Y-70427D01*
X84079Y-70427D01*
X84079Y-70870D01*
X84070Y-70862D01*
X83978Y-70824D01*
X83916Y-70824D01*
X83853Y-70886D01*
X83853Y-71249D01*
X84116Y-71249D01*
X84178Y-71186D01*
X84178Y-71123D01*
X84178Y-71060D01*
X84187Y-71068D01*
X84279Y-71107D01*
X84364Y-71107D01*
X84364Y-71123D01*
X84364Y-71186D01*
X84426Y-71249D01*
X84689Y-71249D01*
X84689Y-71241D01*
X84789Y-71241D01*
X84789Y-71249D01*
X84797Y-71249D01*
X84797Y-71349D01*
X84789Y-71349D01*
X84789Y-71711D01*
X84851Y-71774D01*
X84913Y-71774D01*
X85005Y-71736D01*
X85039Y-71702D01*
X85072Y-71736D01*
X85164Y-71774D01*
X85263Y-71774D01*
X85360Y-71774D01*
X85360Y-71810D01*
X85383Y-71925D01*
X85383Y-73414D01*
G54D10*
G36*
X85891Y-63879D02*
X85386Y-64384D01*
X85358Y-64315D01*
X85309Y-64266D01*
X85309Y-64175D01*
X85250Y-64032D01*
X85141Y-63923D01*
X84998Y-63864D01*
X84844Y-63864D01*
X84701Y-63923D01*
X84625Y-63998D01*
X84550Y-63923D01*
X84408Y-63864D01*
X84253Y-63864D01*
X84111Y-63923D01*
X84035Y-63998D01*
X83960Y-63923D01*
X83817Y-63864D01*
X83663Y-63864D01*
X83520Y-63923D01*
X83411Y-64032D01*
X83352Y-64174D01*
X83352Y-64266D01*
X83303Y-64315D01*
X83265Y-64406D01*
X83265Y-64506D01*
X83265Y-64756D01*
X83268Y-64764D01*
X83259Y-64772D01*
X83259Y-64710D01*
X83222Y-64710D01*
X83222Y-64647D01*
X83209Y-64616D01*
X83242Y-64538D01*
X83242Y-64438D01*
X83242Y-64044D01*
X83204Y-63952D01*
X83169Y-63917D01*
X83201Y-63904D01*
X83271Y-63834D01*
X83309Y-63742D01*
X83309Y-63680D01*
X83247Y-63617D01*
X82884Y-63617D01*
X82884Y-63625D01*
X82784Y-63625D01*
X82784Y-63617D01*
X82722Y-63617D01*
X82722Y-63572D01*
X82659Y-63572D01*
X82714Y-63517D01*
X82784Y-63517D01*
X82784Y-63509D01*
X82884Y-63509D01*
X82884Y-63517D01*
X83247Y-63517D01*
X83309Y-63455D01*
X83309Y-63393D01*
X83271Y-63301D01*
X83238Y-63267D01*
X83271Y-63234D01*
X83309Y-63142D01*
X83309Y-63043D01*
X83309Y-62793D01*
X83271Y-62701D01*
X83222Y-62651D01*
X83222Y-62560D01*
X83163Y-62418D01*
X83054Y-62309D01*
X82912Y-62250D01*
X82799Y-62249D01*
X82828Y-62179D01*
X82828Y-61994D01*
X82757Y-61822D01*
X82626Y-61691D01*
X82602Y-61681D01*
X83482Y-60801D01*
X85139Y-60801D01*
X85891Y-61553D01*
X85891Y-63879D01*
X85891Y-63879D01*
G37*
G54D37*
X85891Y-63879D02*
X85386Y-64384D01*
X85358Y-64315D01*
X85309Y-64266D01*
X85309Y-64175D01*
X85250Y-64032D01*
X85141Y-63923D01*
X84998Y-63864D01*
X84844Y-63864D01*
X84701Y-63923D01*
X84625Y-63998D01*
X84550Y-63923D01*
X84408Y-63864D01*
X84253Y-63864D01*
X84111Y-63923D01*
X84035Y-63998D01*
X83960Y-63923D01*
X83817Y-63864D01*
X83663Y-63864D01*
X83520Y-63923D01*
X83411Y-64032D01*
X83352Y-64174D01*
X83352Y-64266D01*
X83303Y-64315D01*
X83265Y-64406D01*
X83265Y-64506D01*
X83265Y-64756D01*
X83268Y-64764D01*
X83259Y-64772D01*
X83259Y-64710D01*
X83222Y-64710D01*
X83222Y-64647D01*
X83209Y-64616D01*
X83242Y-64538D01*
X83242Y-64438D01*
X83242Y-64044D01*
X83204Y-63952D01*
X83169Y-63917D01*
X83201Y-63904D01*
X83271Y-63834D01*
X83309Y-63742D01*
X83309Y-63680D01*
X83247Y-63617D01*
X82884Y-63617D01*
X82884Y-63625D01*
X82784Y-63625D01*
X82784Y-63617D01*
X82722Y-63617D01*
X82722Y-63572D01*
X82659Y-63572D01*
X82714Y-63517D01*
X82784Y-63517D01*
X82784Y-63509D01*
X82884Y-63509D01*
X82884Y-63517D01*
X83247Y-63517D01*
X83309Y-63455D01*
X83309Y-63393D01*
X83271Y-63301D01*
X83238Y-63267D01*
X83271Y-63234D01*
X83309Y-63142D01*
X83309Y-63043D01*
X83309Y-62793D01*
X83271Y-62701D01*
X83222Y-62651D01*
X83222Y-62560D01*
X83163Y-62418D01*
X83054Y-62309D01*
X82912Y-62250D01*
X82799Y-62249D01*
X82828Y-62179D01*
X82828Y-61994D01*
X82757Y-61822D01*
X82626Y-61691D01*
X82602Y-61681D01*
X83482Y-60801D01*
X85139Y-60801D01*
X85891Y-61553D01*
X85891Y-63879D01*
G54D10*
G36*
X92466Y-69785D02*
X92445Y-69806D01*
X91635Y-70616D01*
X91303Y-70616D01*
X91303Y-68877D01*
X91303Y-68514D01*
X91041Y-68514D01*
X90978Y-68577D01*
X90978Y-68640D01*
X90978Y-68739D01*
X91016Y-68831D01*
X91087Y-68901D01*
X91179Y-68939D01*
X91241Y-68939D01*
X91303Y-68877D01*
X91303Y-70616D01*
X89757Y-70616D01*
X89757Y-70536D01*
X89806Y-70488D01*
X89845Y-70396D01*
X89845Y-70296D01*
X89845Y-70046D01*
X89807Y-69954D01*
X89773Y-69921D01*
X89807Y-69887D01*
X89845Y-69795D01*
X89845Y-69446D01*
X89807Y-69354D01*
X89736Y-69284D01*
X89645Y-69246D01*
X89545Y-69246D01*
X89482Y-69246D01*
X89420Y-69308D01*
X89420Y-69571D01*
X89782Y-69571D01*
X89845Y-69508D01*
X89845Y-69446D01*
X89845Y-69795D01*
X89845Y-69733D01*
X89782Y-69671D01*
X89420Y-69671D01*
X89420Y-69679D01*
X89320Y-69679D01*
X89320Y-69671D01*
X89312Y-69671D01*
X89312Y-69571D01*
X89320Y-69571D01*
X89320Y-69308D01*
X89257Y-69246D01*
X89194Y-69246D01*
X89095Y-69246D01*
X89003Y-69284D01*
X88933Y-69354D01*
X88895Y-69446D01*
X88895Y-69508D01*
X88957Y-69571D01*
X88895Y-69571D01*
X88895Y-69605D01*
X88817Y-69572D01*
X88663Y-69572D01*
X88662Y-69573D01*
X88661Y-69573D01*
X88634Y-69573D01*
X88620Y-69567D01*
X88675Y-69544D01*
X88692Y-69527D01*
X88721Y-69527D01*
X88784Y-69464D01*
X88784Y-69437D01*
X88772Y-69409D01*
X88784Y-69382D01*
X88784Y-69282D01*
X88784Y-69122D01*
X88775Y-69102D01*
X89982Y-67895D01*
X90049Y-67795D01*
X90049Y-67795D01*
X90072Y-67677D01*
X90072Y-66584D01*
X90324Y-66332D01*
X90722Y-66332D01*
X90646Y-66363D01*
X90537Y-66472D01*
X90478Y-66615D01*
X90478Y-66769D01*
X90537Y-66912D01*
X90646Y-67021D01*
X90788Y-67080D01*
X90880Y-67080D01*
X90929Y-67129D01*
X90977Y-67149D01*
X90950Y-67213D01*
X90950Y-67240D01*
X91002Y-67292D01*
X90950Y-67292D01*
X90950Y-67328D01*
X90907Y-67328D01*
X90764Y-67387D01*
X90655Y-67496D01*
X90596Y-67639D01*
X90596Y-67793D01*
X90655Y-67935D01*
X90764Y-68045D01*
X90906Y-68104D01*
X90950Y-68104D01*
X90950Y-68104D01*
X91000Y-68137D01*
X90978Y-68189D01*
X90978Y-68289D01*
X90978Y-68352D01*
X91041Y-68414D01*
X91303Y-68414D01*
X91303Y-68406D01*
X91403Y-68406D01*
X91403Y-68414D01*
X91411Y-68414D01*
X91411Y-68514D01*
X91403Y-68514D01*
X91403Y-68877D01*
X91466Y-68939D01*
X91528Y-68939D01*
X91619Y-68901D01*
X91653Y-68868D01*
X91686Y-68901D01*
X91778Y-68939D01*
X91878Y-68939D01*
X92120Y-68939D01*
X92120Y-68997D01*
X92120Y-69060D01*
X92182Y-69123D01*
X92445Y-69123D01*
X92445Y-69115D01*
X92466Y-69115D01*
X92466Y-69231D01*
X92445Y-69231D01*
X92445Y-69223D01*
X92182Y-69223D01*
X92120Y-69285D01*
X92120Y-69348D01*
X92120Y-69448D01*
X92158Y-69540D01*
X92228Y-69610D01*
X92320Y-69648D01*
X92382Y-69648D01*
X92445Y-69585D01*
X92445Y-69648D01*
X92445Y-69648D01*
X92466Y-69648D01*
X92466Y-69785D01*
X92466Y-69785D01*
G37*
G54D37*
X92466Y-69785D02*
X92445Y-69806D01*
X91635Y-70616D01*
X91303Y-70616D01*
X91303Y-68877D01*
X91303Y-68514D01*
X91041Y-68514D01*
X90978Y-68577D01*
X90978Y-68640D01*
X90978Y-68739D01*
X91016Y-68831D01*
X91087Y-68901D01*
X91179Y-68939D01*
X91241Y-68939D01*
X91303Y-68877D01*
X91303Y-70616D01*
X89757Y-70616D01*
X89757Y-70536D01*
X89806Y-70488D01*
X89845Y-70396D01*
X89845Y-70296D01*
X89845Y-70046D01*
X89807Y-69954D01*
X89773Y-69921D01*
X89807Y-69887D01*
X89845Y-69795D01*
X89845Y-69446D01*
X89807Y-69354D01*
X89736Y-69284D01*
X89645Y-69246D01*
X89545Y-69246D01*
X89482Y-69246D01*
X89420Y-69308D01*
X89420Y-69571D01*
X89782Y-69571D01*
X89845Y-69508D01*
X89845Y-69446D01*
X89845Y-69795D01*
X89845Y-69733D01*
X89782Y-69671D01*
X89420Y-69671D01*
X89420Y-69679D01*
X89320Y-69679D01*
X89320Y-69671D01*
X89312Y-69671D01*
X89312Y-69571D01*
X89320Y-69571D01*
X89320Y-69308D01*
X89257Y-69246D01*
X89194Y-69246D01*
X89095Y-69246D01*
X89003Y-69284D01*
X88933Y-69354D01*
X88895Y-69446D01*
X88895Y-69508D01*
X88957Y-69571D01*
X88895Y-69571D01*
X88895Y-69605D01*
X88817Y-69572D01*
X88663Y-69572D01*
X88662Y-69573D01*
X88661Y-69573D01*
X88634Y-69573D01*
X88620Y-69567D01*
X88675Y-69544D01*
X88692Y-69527D01*
X88721Y-69527D01*
X88784Y-69464D01*
X88784Y-69437D01*
X88772Y-69409D01*
X88784Y-69382D01*
X88784Y-69282D01*
X88784Y-69122D01*
X88775Y-69102D01*
X89982Y-67895D01*
X90049Y-67795D01*
X90049Y-67795D01*
X90072Y-67677D01*
X90072Y-66584D01*
X90324Y-66332D01*
X90722Y-66332D01*
X90646Y-66363D01*
X90537Y-66472D01*
X90478Y-66615D01*
X90478Y-66769D01*
X90537Y-66912D01*
X90646Y-67021D01*
X90788Y-67080D01*
X90880Y-67080D01*
X90929Y-67129D01*
X90977Y-67149D01*
X90950Y-67213D01*
X90950Y-67240D01*
X91002Y-67292D01*
X90950Y-67292D01*
X90950Y-67328D01*
X90907Y-67328D01*
X90764Y-67387D01*
X90655Y-67496D01*
X90596Y-67639D01*
X90596Y-67793D01*
X90655Y-67935D01*
X90764Y-68045D01*
X90906Y-68104D01*
X90950Y-68104D01*
X90950Y-68104D01*
X91000Y-68137D01*
X90978Y-68189D01*
X90978Y-68289D01*
X90978Y-68352D01*
X91041Y-68414D01*
X91303Y-68414D01*
X91303Y-68406D01*
X91403Y-68406D01*
X91403Y-68414D01*
X91411Y-68414D01*
X91411Y-68514D01*
X91403Y-68514D01*
X91403Y-68877D01*
X91466Y-68939D01*
X91528Y-68939D01*
X91619Y-68901D01*
X91653Y-68868D01*
X91686Y-68901D01*
X91778Y-68939D01*
X91878Y-68939D01*
X92120Y-68939D01*
X92120Y-68997D01*
X92120Y-69060D01*
X92182Y-69123D01*
X92445Y-69123D01*
X92445Y-69115D01*
X92466Y-69115D01*
X92466Y-69231D01*
X92445Y-69231D01*
X92445Y-69223D01*
X92182Y-69223D01*
X92120Y-69285D01*
X92120Y-69348D01*
X92120Y-69448D01*
X92158Y-69540D01*
X92228Y-69610D01*
X92320Y-69648D01*
X92382Y-69648D01*
X92445Y-69585D01*
X92445Y-69648D01*
X92445Y-69648D01*
X92466Y-69648D01*
X92466Y-69785D01*
G54D10*
G36*
X103211Y-65975D02*
X103140Y-66046D01*
X103135Y-66040D01*
X103129Y-66046D01*
X103058Y-65975D01*
X103064Y-65970D01*
X103058Y-65964D01*
X103129Y-65893D01*
X103135Y-65899D01*
X103140Y-65893D01*
X103211Y-65964D01*
X103205Y-65970D01*
X103211Y-65975D01*
X103211Y-65975D01*
G37*
G54D37*
X103211Y-65975D02*
X103140Y-66046D01*
X103135Y-66040D01*
X103129Y-66046D01*
X103058Y-65975D01*
X103064Y-65970D01*
X103058Y-65964D01*
X103129Y-65893D01*
X103135Y-65899D01*
X103140Y-65893D01*
X103211Y-65964D01*
X103205Y-65970D01*
X103211Y-65975D01*
G54D10*
G36*
X108289Y-69481D02*
X108146Y-69422D01*
X107874Y-69421D01*
X107623Y-69525D01*
X107431Y-69717D01*
X107406Y-69776D01*
X105940Y-69776D01*
X105940Y-64962D01*
X105940Y-63584D01*
X105837Y-63333D01*
X105645Y-63140D01*
X105394Y-63036D01*
X105122Y-63036D01*
X104871Y-63140D01*
X104678Y-63332D01*
X104574Y-63583D01*
X104574Y-63854D01*
X104678Y-64105D01*
X104870Y-64298D01*
X105121Y-64402D01*
X105392Y-64402D01*
X105644Y-64298D01*
X105836Y-64106D01*
X105940Y-63855D01*
X105940Y-63584D01*
X105940Y-64962D01*
X105837Y-64711D01*
X105645Y-64518D01*
X105394Y-64414D01*
X105122Y-64414D01*
X104871Y-64518D01*
X104678Y-64710D01*
X104574Y-64961D01*
X104574Y-65232D01*
X104678Y-65483D01*
X104870Y-65676D01*
X105121Y-65780D01*
X105392Y-65780D01*
X105644Y-65676D01*
X105836Y-65484D01*
X105940Y-65233D01*
X105940Y-64962D01*
X105940Y-69776D01*
X105937Y-69776D01*
X105937Y-68591D01*
X105833Y-68340D01*
X105641Y-68148D01*
X105390Y-68044D01*
X105118Y-68043D01*
X104867Y-68147D01*
X104675Y-68339D01*
X104571Y-68590D01*
X104570Y-68862D01*
X104674Y-69113D01*
X104866Y-69305D01*
X105117Y-69409D01*
X105389Y-69410D01*
X105640Y-69306D01*
X105832Y-69114D01*
X105937Y-68863D01*
X105937Y-68591D01*
X105937Y-69776D01*
X105857Y-69776D01*
X105833Y-69718D01*
X105641Y-69526D01*
X105390Y-69422D01*
X105118Y-69421D01*
X104867Y-69525D01*
X104675Y-69717D01*
X104642Y-69795D01*
X98785Y-69795D01*
X98785Y-67813D01*
X98785Y-67750D01*
X98722Y-67687D01*
X98460Y-67687D01*
X98460Y-68050D01*
X98522Y-68112D01*
X98584Y-68112D01*
X98676Y-68074D01*
X98747Y-68004D01*
X98785Y-67912D01*
X98785Y-67813D01*
X98785Y-69795D01*
X96140Y-69795D01*
X95902Y-69795D01*
X95735Y-69628D01*
X95899Y-69560D01*
X96052Y-69407D01*
X96135Y-69207D01*
X96135Y-68990D01*
X96053Y-68789D01*
X95899Y-68636D01*
X95808Y-68598D01*
X95899Y-68560D01*
X96052Y-68407D01*
X96135Y-68207D01*
X96135Y-67990D01*
X96053Y-67789D01*
X95899Y-67636D01*
X95808Y-67598D01*
X95899Y-67560D01*
X96052Y-67407D01*
X96135Y-67207D01*
X96135Y-66990D01*
X96053Y-66789D01*
X95899Y-66636D01*
X95814Y-66601D01*
X95875Y-66575D01*
X95902Y-66480D01*
X95590Y-66169D01*
X95584Y-66174D01*
X95514Y-66103D01*
X95519Y-66098D01*
X95514Y-66092D01*
X95584Y-66022D01*
X95590Y-66027D01*
X95596Y-66022D01*
X95666Y-66092D01*
X95661Y-66098D01*
X95973Y-66410D01*
X96067Y-66383D01*
X96140Y-66179D01*
X96129Y-65962D01*
X96067Y-65813D01*
X95973Y-65786D01*
X96017Y-65742D01*
X97140Y-65742D01*
X97189Y-65774D01*
X97322Y-65801D01*
X97456Y-65774D01*
X97475Y-65761D01*
X97819Y-65761D01*
X97843Y-65785D01*
X97985Y-65844D01*
X98139Y-65844D01*
X98282Y-65785D01*
X98391Y-65676D01*
X98450Y-65534D01*
X98450Y-65380D01*
X98391Y-65237D01*
X98282Y-65128D01*
X98140Y-65069D01*
X97986Y-65069D01*
X97843Y-65128D01*
X97827Y-65143D01*
X97629Y-65143D01*
X97656Y-65116D01*
X97715Y-64974D01*
X97715Y-64820D01*
X97659Y-64682D01*
X97684Y-64658D01*
X97722Y-64566D01*
X97722Y-64466D01*
X97722Y-64016D01*
X97713Y-63996D01*
X97722Y-63975D01*
X97722Y-63876D01*
X97722Y-63519D01*
X97750Y-63547D01*
X97842Y-63585D01*
X97904Y-63585D01*
X97966Y-63522D01*
X97966Y-63160D01*
X97958Y-63160D01*
X97958Y-63060D01*
X97966Y-63060D01*
X97966Y-62697D01*
X97904Y-62635D01*
X97842Y-62635D01*
X97750Y-62673D01*
X97725Y-62697D01*
X97725Y-62479D01*
X97834Y-62371D01*
X101217Y-62371D01*
X101316Y-62470D01*
X101316Y-64391D01*
X101255Y-64365D01*
X101015Y-64365D01*
X100793Y-64457D01*
X100714Y-64535D01*
X100714Y-63285D01*
X100714Y-62835D01*
X100676Y-62743D01*
X100606Y-62673D01*
X100514Y-62635D01*
X100414Y-62635D01*
X100164Y-62635D01*
X100072Y-62673D01*
X100039Y-62706D01*
X100005Y-62673D01*
X99913Y-62635D01*
X99851Y-62635D01*
X99789Y-62697D01*
X99789Y-63060D01*
X99797Y-63060D01*
X99797Y-63160D01*
X99789Y-63160D01*
X99789Y-63168D01*
X99690Y-63168D01*
X99690Y-62934D01*
X99690Y-62835D01*
X99689Y-62832D01*
X99689Y-62697D01*
X99626Y-62635D01*
X99564Y-62635D01*
X99527Y-62650D01*
X99490Y-62635D01*
X99428Y-62635D01*
X99365Y-62697D01*
X99365Y-62832D01*
X99364Y-62835D01*
X99364Y-62934D01*
X99364Y-62997D01*
X99365Y-62999D01*
X99365Y-63060D01*
X99426Y-63060D01*
X99628Y-63060D01*
X99689Y-63060D01*
X99689Y-62999D01*
X99690Y-62997D01*
X99690Y-62934D01*
X99690Y-63168D01*
X99689Y-63168D01*
X99689Y-63160D01*
X99628Y-63160D01*
X99426Y-63160D01*
X99365Y-63160D01*
X99365Y-63168D01*
X99265Y-63168D01*
X99265Y-63160D01*
X99257Y-63160D01*
X99257Y-63060D01*
X99265Y-63060D01*
X99265Y-62697D01*
X99203Y-62635D01*
X99141Y-62635D01*
X99049Y-62673D01*
X99015Y-62706D01*
X98982Y-62673D01*
X98890Y-62635D01*
X98791Y-62635D01*
X98541Y-62635D01*
X98449Y-62673D01*
X98399Y-62722D01*
X98332Y-62722D01*
X98282Y-62673D01*
X98191Y-62635D01*
X98129Y-62635D01*
X98066Y-62697D01*
X98066Y-62881D01*
X98057Y-62890D01*
X97998Y-63032D01*
X97997Y-63187D01*
X98056Y-63329D01*
X98066Y-63339D01*
X98066Y-63522D01*
X98076Y-63532D01*
X98076Y-63672D01*
X98100Y-63791D01*
X98167Y-63891D01*
X98271Y-63995D01*
X98271Y-63995D01*
X98371Y-64062D01*
X98371Y-64062D01*
X98466Y-64081D01*
X98489Y-64086D01*
X98489Y-64086D01*
X98490Y-64086D01*
X100212Y-64086D01*
X100330Y-64062D01*
X100330Y-64062D01*
X100430Y-63995D01*
X100557Y-63868D01*
X100624Y-63767D01*
X100624Y-63767D01*
X100648Y-63649D01*
X100648Y-63504D01*
X100676Y-63477D01*
X100714Y-63385D01*
X100714Y-63285D01*
X100714Y-64535D01*
X100634Y-64615D01*
X100477Y-64457D01*
X100255Y-64365D01*
X100015Y-64365D01*
X99793Y-64457D01*
X99622Y-64627D01*
X99608Y-64660D01*
X99490Y-64660D01*
X99371Y-64684D01*
X99271Y-64751D01*
X99271Y-64751D01*
X99071Y-64951D01*
X99004Y-65051D01*
X98980Y-65170D01*
X98980Y-66621D01*
X98960Y-66600D01*
X98817Y-66541D01*
X98725Y-66541D01*
X98677Y-66492D01*
X98585Y-66454D01*
X98485Y-66454D01*
X98235Y-66454D01*
X98143Y-66492D01*
X98110Y-66525D01*
X98076Y-66492D01*
X97984Y-66454D01*
X97922Y-66454D01*
X97860Y-66516D01*
X97860Y-66879D01*
X97868Y-66879D01*
X97868Y-66979D01*
X97860Y-66979D01*
X97860Y-66987D01*
X97760Y-66987D01*
X97760Y-66979D01*
X97760Y-66879D01*
X97760Y-66516D01*
X97697Y-66454D01*
X97635Y-66454D01*
X97543Y-66492D01*
X97473Y-66562D01*
X97435Y-66654D01*
X97435Y-66753D01*
X97435Y-66816D01*
X97497Y-66879D01*
X97760Y-66879D01*
X97760Y-66979D01*
X97497Y-66979D01*
X97435Y-67041D01*
X97435Y-67104D01*
X97435Y-67204D01*
X97462Y-67269D01*
X97452Y-67265D01*
X97298Y-67265D01*
X97156Y-67324D01*
X97046Y-67433D01*
X96987Y-67575D01*
X96987Y-67729D01*
X97046Y-67872D01*
X97155Y-67981D01*
X97298Y-68040D01*
X97452Y-68040D01*
X97492Y-68024D01*
X97543Y-68074D01*
X97635Y-68112D01*
X97734Y-68112D01*
X97984Y-68112D01*
X98076Y-68074D01*
X98110Y-68041D01*
X98143Y-68074D01*
X98235Y-68112D01*
X98297Y-68112D01*
X98360Y-68050D01*
X98360Y-67687D01*
X98352Y-67687D01*
X98352Y-67587D01*
X98360Y-67587D01*
X98360Y-67579D01*
X98460Y-67579D01*
X98460Y-67587D01*
X98722Y-67587D01*
X98785Y-67525D01*
X98785Y-67462D01*
X98785Y-67362D01*
X98766Y-67316D01*
X98816Y-67316D01*
X98959Y-67258D01*
X99050Y-67167D01*
X99071Y-67198D01*
X99501Y-67628D01*
X99601Y-67695D01*
X99601Y-67695D01*
X99720Y-67719D01*
X103600Y-67719D01*
X103718Y-67695D01*
X103718Y-67695D01*
X103818Y-67628D01*
X104388Y-67058D01*
X104455Y-66958D01*
X104455Y-66958D01*
X104479Y-66840D01*
X104479Y-61200D01*
X104455Y-61081D01*
X104455Y-61081D01*
X104388Y-60981D01*
X103848Y-60441D01*
X103748Y-60374D01*
X103630Y-60350D01*
X96120Y-60350D01*
X96001Y-60374D01*
X95901Y-60441D01*
X92557Y-63785D01*
X92530Y-63785D01*
X91023Y-63785D01*
X90905Y-63808D01*
X90805Y-63875D01*
X90305Y-64375D01*
X90277Y-64375D01*
X90134Y-64434D01*
X90025Y-64543D01*
X89966Y-64686D01*
X89966Y-64730D01*
X89724Y-64730D01*
X89606Y-64753D01*
X89505Y-64820D01*
X89505Y-64820D01*
X88766Y-65560D01*
X88744Y-65506D01*
X88710Y-65472D01*
X88744Y-65438D01*
X88782Y-65346D01*
X88782Y-64997D01*
X88744Y-64906D01*
X88673Y-64835D01*
X88582Y-64797D01*
X88482Y-64797D01*
X88419Y-64797D01*
X88357Y-64859D01*
X88357Y-65122D01*
X88719Y-65122D01*
X88782Y-65059D01*
X88782Y-64997D01*
X88782Y-65346D01*
X88782Y-65284D01*
X88719Y-65222D01*
X88357Y-65222D01*
X88357Y-65230D01*
X88257Y-65230D01*
X88257Y-65222D01*
X88257Y-65122D01*
X88257Y-64859D01*
X88194Y-64797D01*
X88131Y-64797D01*
X88032Y-64797D01*
X88014Y-64805D01*
X88034Y-64756D01*
X88034Y-64657D01*
X88034Y-64407D01*
X87996Y-64315D01*
X87946Y-64266D01*
X87946Y-64175D01*
X87888Y-64032D01*
X87779Y-63923D01*
X87636Y-63864D01*
X87482Y-63864D01*
X87339Y-63923D01*
X87230Y-64032D01*
X87171Y-64174D01*
X87171Y-64266D01*
X87122Y-64315D01*
X87084Y-64406D01*
X87084Y-64506D01*
X87084Y-64756D01*
X87121Y-64848D01*
X87155Y-64881D01*
X87121Y-64915D01*
X87084Y-65007D01*
X87084Y-65069D01*
X87146Y-65131D01*
X87509Y-65131D01*
X87509Y-65124D01*
X87609Y-65124D01*
X87609Y-65131D01*
X87971Y-65131D01*
X87981Y-65122D01*
X88257Y-65122D01*
X88257Y-65222D01*
X87894Y-65222D01*
X87885Y-65231D01*
X87609Y-65231D01*
X87609Y-65494D01*
X87641Y-65527D01*
X87599Y-65569D01*
X87599Y-66007D01*
X87617Y-66007D01*
X87617Y-66107D01*
X87599Y-66107D01*
X87599Y-66544D01*
X87661Y-66607D01*
X87684Y-66607D01*
X87684Y-66701D01*
X87684Y-66861D01*
X87695Y-66889D01*
X87684Y-66917D01*
X87684Y-67016D01*
X87684Y-67176D01*
X87695Y-67204D01*
X87684Y-67232D01*
X87684Y-67331D01*
X87684Y-67491D01*
X87695Y-67519D01*
X87684Y-67547D01*
X87684Y-67646D01*
X87684Y-67806D01*
X87695Y-67834D01*
X87684Y-67862D01*
X87684Y-67961D01*
X87684Y-68121D01*
X87695Y-68149D01*
X87684Y-68177D01*
X87684Y-68276D01*
X87684Y-68436D01*
X87695Y-68464D01*
X87684Y-68492D01*
X87684Y-68591D01*
X87684Y-68751D01*
X87695Y-68779D01*
X87684Y-68807D01*
X87684Y-68879D01*
X87418Y-68613D01*
X87418Y-67804D01*
X87471Y-67676D01*
X87471Y-67522D01*
X87412Y-67379D01*
X87303Y-67270D01*
X87161Y-67211D01*
X87007Y-67211D01*
X86864Y-67270D01*
X86755Y-67379D01*
X86696Y-67521D01*
X86696Y-67675D01*
X86755Y-67818D01*
X86761Y-67824D01*
X86761Y-68750D01*
X86786Y-68875D01*
X86857Y-68982D01*
X87359Y-69484D01*
X87359Y-69484D01*
X87462Y-69553D01*
X86496Y-69553D01*
X86370Y-69578D01*
X86263Y-69649D01*
X86066Y-69846D01*
X85995Y-69952D01*
X85984Y-70007D01*
X85854Y-70007D01*
X85826Y-70018D01*
X85799Y-70007D01*
X85781Y-70007D01*
X85781Y-69962D01*
X85722Y-69819D01*
X85613Y-69710D01*
X85471Y-69651D01*
X85316Y-69651D01*
X85174Y-69710D01*
X85065Y-69819D01*
X85033Y-69895D01*
X85033Y-69765D01*
X84992Y-69665D01*
X85033Y-69565D01*
X85033Y-69411D01*
X84983Y-69291D01*
X85033Y-69171D01*
X85033Y-69017D01*
X84974Y-68875D01*
X84865Y-68765D01*
X84723Y-68706D01*
X84568Y-68706D01*
X84426Y-68765D01*
X84317Y-68874D01*
X84288Y-68943D01*
X84284Y-68943D01*
X84284Y-68807D01*
X84279Y-68795D01*
X84549Y-68525D01*
X84616Y-68425D01*
X84616Y-68425D01*
X84639Y-68307D01*
X84639Y-67322D01*
X84616Y-67204D01*
X84616Y-67204D01*
X84549Y-67104D01*
X84284Y-66839D01*
X84284Y-66762D01*
X84284Y-66607D01*
X84306Y-66607D01*
X84336Y-66577D01*
X84336Y-66651D01*
X84395Y-66794D01*
X84504Y-66903D01*
X84646Y-66962D01*
X84801Y-66962D01*
X84943Y-66903D01*
X85052Y-66794D01*
X85112Y-66652D01*
X85112Y-66607D01*
X85168Y-66607D01*
X85196Y-66595D01*
X85224Y-66607D01*
X85323Y-66607D01*
X85483Y-66607D01*
X85511Y-66595D01*
X85539Y-66607D01*
X85638Y-66607D01*
X85798Y-66607D01*
X85826Y-66595D01*
X85854Y-66607D01*
X85953Y-66607D01*
X86113Y-66607D01*
X86141Y-66595D01*
X86169Y-66607D01*
X86268Y-66607D01*
X86428Y-66607D01*
X86456Y-66595D01*
X86484Y-66607D01*
X86583Y-66607D01*
X86698Y-66607D01*
X86698Y-66730D01*
X86757Y-66872D01*
X86866Y-66982D01*
X87009Y-67041D01*
X87163Y-67041D01*
X87305Y-66982D01*
X87415Y-66873D01*
X87474Y-66731D01*
X87474Y-66697D01*
X87529Y-66614D01*
X87529Y-66614D01*
X87553Y-66495D01*
X87553Y-66457D01*
X87574Y-66407D01*
X87574Y-66307D01*
X87574Y-65707D01*
X87536Y-65615D01*
X87519Y-65598D01*
X87519Y-65569D01*
X87476Y-65526D01*
X87509Y-65494D01*
X87509Y-65231D01*
X87146Y-65231D01*
X87084Y-65294D01*
X87084Y-65356D01*
X87121Y-65448D01*
X87180Y-65507D01*
X87114Y-65507D01*
X87086Y-65518D01*
X87059Y-65507D01*
X86959Y-65507D01*
X86799Y-65507D01*
X86771Y-65518D01*
X86744Y-65507D01*
X86644Y-65507D01*
X86484Y-65507D01*
X86456Y-65518D01*
X86429Y-65507D01*
X86412Y-65507D01*
X86466Y-65484D01*
X86575Y-65375D01*
X86634Y-65233D01*
X86634Y-65079D01*
X86575Y-64936D01*
X86466Y-64827D01*
X86324Y-64768D01*
X86170Y-64768D01*
X86027Y-64827D01*
X85981Y-64872D01*
X85828Y-64872D01*
X86452Y-64248D01*
X86452Y-64248D01*
X86524Y-64141D01*
X86549Y-64015D01*
X86549Y-64015D01*
X86549Y-63897D01*
X86549Y-61417D01*
X86524Y-61291D01*
X86452Y-61184D01*
X86452Y-61184D01*
X85508Y-60239D01*
X85401Y-60168D01*
X85275Y-60143D01*
X83346Y-60143D01*
X83220Y-60168D01*
X83114Y-60239D01*
X81717Y-61636D01*
X81594Y-61687D01*
X81431Y-61620D01*
X81246Y-61619D01*
X81074Y-61690D01*
X80943Y-61821D01*
X80872Y-61993D01*
X80871Y-62179D01*
X80942Y-62350D01*
X81073Y-62481D01*
X81245Y-62553D01*
X81430Y-62553D01*
X81521Y-62515D01*
X81521Y-62577D01*
X81480Y-62594D01*
X81410Y-62664D01*
X81372Y-62756D01*
X81372Y-62856D01*
X81372Y-63306D01*
X81380Y-63326D01*
X81372Y-63347D01*
X81372Y-63446D01*
X81372Y-63896D01*
X81410Y-63988D01*
X81480Y-64058D01*
X81572Y-64097D01*
X81671Y-64097D01*
X81921Y-64097D01*
X82013Y-64059D01*
X82047Y-64025D01*
X82080Y-64059D01*
X82172Y-64097D01*
X82234Y-64097D01*
X82297Y-64034D01*
X82297Y-63672D01*
X82289Y-63672D01*
X82289Y-63572D01*
X82297Y-63572D01*
X82297Y-63564D01*
X82397Y-63564D01*
X82397Y-63572D01*
X82405Y-63572D01*
X82405Y-63634D01*
X82359Y-63680D01*
X82359Y-63742D01*
X82397Y-63833D01*
X82397Y-64034D01*
X82427Y-64064D01*
X82427Y-64143D01*
X82427Y-64537D01*
X82459Y-64616D01*
X82446Y-64646D01*
X82446Y-64651D01*
X82430Y-64635D01*
X82317Y-64559D01*
X82295Y-64555D01*
X82184Y-64533D01*
X82184Y-64533D01*
X82179Y-64533D01*
X82172Y-64515D01*
X82102Y-64445D01*
X82010Y-64406D01*
X81910Y-64406D01*
X81660Y-64406D01*
X81569Y-64444D01*
X81535Y-64478D01*
X81502Y-64445D01*
X81410Y-64406D01*
X81310Y-64406D01*
X81060Y-64406D01*
X80969Y-64444D01*
X80898Y-64515D01*
X80860Y-64606D01*
X80860Y-64706D01*
X80860Y-65156D01*
X80871Y-65183D01*
X80832Y-65276D01*
X80832Y-65368D01*
X80783Y-65417D01*
X80745Y-65509D01*
X80745Y-65608D01*
X80745Y-65858D01*
X80783Y-65950D01*
X80816Y-65984D01*
X80783Y-66017D01*
X80745Y-66109D01*
X80745Y-66208D01*
X80745Y-66288D01*
X80698Y-66288D01*
X80698Y-66393D01*
X80515Y-66211D01*
X80415Y-66144D01*
X80297Y-66120D01*
X75068Y-66120D01*
X74949Y-66144D01*
X74849Y-66211D01*
X74849Y-66211D01*
X74408Y-66652D01*
X74408Y-60284D01*
X74220Y-59830D01*
X73873Y-59482D01*
X73420Y-59294D01*
X72929Y-59293D01*
X72475Y-59481D01*
X72127Y-59828D01*
X71939Y-60281D01*
X71939Y-60772D01*
X72126Y-61226D01*
X72473Y-61574D01*
X72927Y-61762D01*
X73418Y-61762D01*
X73871Y-61575D01*
X74219Y-61228D01*
X74407Y-60775D01*
X74408Y-60284D01*
X74408Y-66652D01*
X74282Y-66778D01*
X74197Y-66778D01*
X74197Y-66014D01*
X74159Y-65922D01*
X74089Y-65852D01*
X73997Y-65814D01*
X73898Y-65813D01*
X73323Y-65813D01*
X73231Y-65851D01*
X73161Y-65922D01*
X73123Y-66014D01*
X73122Y-66020D01*
X71984Y-66020D01*
X71892Y-66058D01*
X71868Y-66083D01*
X71868Y-60555D01*
X71973Y-60029D01*
X72253Y-59609D01*
X72677Y-59327D01*
X73197Y-59223D01*
X106957Y-59223D01*
X107482Y-59328D01*
X107902Y-59608D01*
X108185Y-60032D01*
X108289Y-60552D01*
X108289Y-63094D01*
X108218Y-63064D01*
X108218Y-60284D01*
X108030Y-59830D01*
X107683Y-59482D01*
X107230Y-59294D01*
X106739Y-59293D01*
X106285Y-59481D01*
X105937Y-59828D01*
X105749Y-60281D01*
X105749Y-60772D01*
X105936Y-61226D01*
X106283Y-61574D01*
X106737Y-61762D01*
X107228Y-61762D01*
X107681Y-61575D01*
X108029Y-61228D01*
X108217Y-60775D01*
X108218Y-60284D01*
X108218Y-63064D01*
X108149Y-63036D01*
X107878Y-63036D01*
X107627Y-63140D01*
X107434Y-63332D01*
X107330Y-63583D01*
X107330Y-63854D01*
X107434Y-64105D01*
X107626Y-64298D01*
X107877Y-64402D01*
X108148Y-64402D01*
X108289Y-64344D01*
X108289Y-64472D01*
X108149Y-64414D01*
X107878Y-64414D01*
X107627Y-64518D01*
X107434Y-64710D01*
X107330Y-64961D01*
X107330Y-65232D01*
X107434Y-65483D01*
X107626Y-65676D01*
X107877Y-65780D01*
X108148Y-65780D01*
X108289Y-65722D01*
X108289Y-68103D01*
X108146Y-68044D01*
X107874Y-68043D01*
X107623Y-68147D01*
X107431Y-68339D01*
X107327Y-68590D01*
X107326Y-68862D01*
X107430Y-69113D01*
X107622Y-69305D01*
X107873Y-69409D01*
X108145Y-69410D01*
X108289Y-69350D01*
X108289Y-69481D01*
X108289Y-69481D01*
G37*
G54D37*
X108289Y-69481D02*
X108146Y-69422D01*
X107874Y-69421D01*
X107623Y-69525D01*
X107431Y-69717D01*
X107406Y-69776D01*
X105940Y-69776D01*
X105940Y-64962D01*
X105940Y-63584D01*
X105837Y-63333D01*
X105645Y-63140D01*
X105394Y-63036D01*
X105122Y-63036D01*
X104871Y-63140D01*
X104678Y-63332D01*
X104574Y-63583D01*
X104574Y-63854D01*
X104678Y-64105D01*
X104870Y-64298D01*
X105121Y-64402D01*
X105392Y-64402D01*
X105644Y-64298D01*
X105836Y-64106D01*
X105940Y-63855D01*
X105940Y-63584D01*
X105940Y-64962D01*
X105837Y-64711D01*
X105645Y-64518D01*
X105394Y-64414D01*
X105122Y-64414D01*
X104871Y-64518D01*
X104678Y-64710D01*
X104574Y-64961D01*
X104574Y-65232D01*
X104678Y-65483D01*
X104870Y-65676D01*
X105121Y-65780D01*
X105392Y-65780D01*
X105644Y-65676D01*
X105836Y-65484D01*
X105940Y-65233D01*
X105940Y-64962D01*
X105940Y-69776D01*
X105937Y-69776D01*
X105937Y-68591D01*
X105833Y-68340D01*
X105641Y-68148D01*
X105390Y-68044D01*
X105118Y-68043D01*
X104867Y-68147D01*
X104675Y-68339D01*
X104571Y-68590D01*
X104570Y-68862D01*
X104674Y-69113D01*
X104866Y-69305D01*
X105117Y-69409D01*
X105389Y-69410D01*
X105640Y-69306D01*
X105832Y-69114D01*
X105937Y-68863D01*
X105937Y-68591D01*
X105937Y-69776D01*
X105857Y-69776D01*
X105833Y-69718D01*
X105641Y-69526D01*
X105390Y-69422D01*
X105118Y-69421D01*
X104867Y-69525D01*
X104675Y-69717D01*
X104642Y-69795D01*
X98785Y-69795D01*
X98785Y-67813D01*
X98785Y-67750D01*
X98722Y-67687D01*
X98460Y-67687D01*
X98460Y-68050D01*
X98522Y-68112D01*
X98584Y-68112D01*
X98676Y-68074D01*
X98747Y-68004D01*
X98785Y-67912D01*
X98785Y-67813D01*
X98785Y-69795D01*
X96140Y-69795D01*
X95902Y-69795D01*
X95735Y-69628D01*
X95899Y-69560D01*
X96052Y-69407D01*
X96135Y-69207D01*
X96135Y-68990D01*
X96053Y-68789D01*
X95899Y-68636D01*
X95808Y-68598D01*
X95899Y-68560D01*
X96052Y-68407D01*
X96135Y-68207D01*
X96135Y-67990D01*
X96053Y-67789D01*
X95899Y-67636D01*
X95808Y-67598D01*
X95899Y-67560D01*
X96052Y-67407D01*
X96135Y-67207D01*
X96135Y-66990D01*
X96053Y-66789D01*
X95899Y-66636D01*
X95814Y-66601D01*
X95875Y-66575D01*
X95902Y-66480D01*
X95590Y-66169D01*
X95584Y-66174D01*
X95514Y-66103D01*
X95519Y-66098D01*
X95514Y-66092D01*
X95584Y-66022D01*
X95590Y-66027D01*
X95596Y-66022D01*
X95666Y-66092D01*
X95661Y-66098D01*
X95973Y-66410D01*
X96067Y-66383D01*
X96140Y-66179D01*
X96129Y-65962D01*
X96067Y-65813D01*
X95973Y-65786D01*
X96017Y-65742D01*
X97140Y-65742D01*
X97189Y-65774D01*
X97322Y-65801D01*
X97456Y-65774D01*
X97475Y-65761D01*
X97819Y-65761D01*
X97843Y-65785D01*
X97985Y-65844D01*
X98139Y-65844D01*
X98282Y-65785D01*
X98391Y-65676D01*
X98450Y-65534D01*
X98450Y-65380D01*
X98391Y-65237D01*
X98282Y-65128D01*
X98140Y-65069D01*
X97986Y-65069D01*
X97843Y-65128D01*
X97827Y-65143D01*
X97629Y-65143D01*
X97656Y-65116D01*
X97715Y-64974D01*
X97715Y-64820D01*
X97659Y-64682D01*
X97684Y-64658D01*
X97722Y-64566D01*
X97722Y-64466D01*
X97722Y-64016D01*
X97713Y-63996D01*
X97722Y-63975D01*
X97722Y-63876D01*
X97722Y-63519D01*
X97750Y-63547D01*
X97842Y-63585D01*
X97904Y-63585D01*
X97966Y-63522D01*
X97966Y-63160D01*
X97958Y-63160D01*
X97958Y-63060D01*
X97966Y-63060D01*
X97966Y-62697D01*
X97904Y-62635D01*
X97842Y-62635D01*
X97750Y-62673D01*
X97725Y-62697D01*
X97725Y-62479D01*
X97834Y-62371D01*
X101217Y-62371D01*
X101316Y-62470D01*
X101316Y-64391D01*
X101255Y-64365D01*
X101015Y-64365D01*
X100793Y-64457D01*
X100714Y-64535D01*
X100714Y-63285D01*
X100714Y-62835D01*
X100676Y-62743D01*
X100606Y-62673D01*
X100514Y-62635D01*
X100414Y-62635D01*
X100164Y-62635D01*
X100072Y-62673D01*
X100039Y-62706D01*
X100005Y-62673D01*
X99913Y-62635D01*
X99851Y-62635D01*
X99789Y-62697D01*
X99789Y-63060D01*
X99797Y-63060D01*
X99797Y-63160D01*
X99789Y-63160D01*
X99789Y-63168D01*
X99690Y-63168D01*
X99690Y-62934D01*
X99690Y-62835D01*
X99689Y-62832D01*
X99689Y-62697D01*
X99626Y-62635D01*
X99564Y-62635D01*
X99527Y-62650D01*
X99490Y-62635D01*
X99428Y-62635D01*
X99365Y-62697D01*
X99365Y-62832D01*
X99364Y-62835D01*
X99364Y-62934D01*
X99364Y-62997D01*
X99365Y-62999D01*
X99365Y-63060D01*
X99426Y-63060D01*
X99628Y-63060D01*
X99689Y-63060D01*
X99689Y-62999D01*
X99690Y-62997D01*
X99690Y-62934D01*
X99690Y-63168D01*
X99689Y-63168D01*
X99689Y-63160D01*
X99628Y-63160D01*
X99426Y-63160D01*
X99365Y-63160D01*
X99365Y-63168D01*
X99265Y-63168D01*
X99265Y-63160D01*
X99257Y-63160D01*
X99257Y-63060D01*
X99265Y-63060D01*
X99265Y-62697D01*
X99203Y-62635D01*
X99141Y-62635D01*
X99049Y-62673D01*
X99015Y-62706D01*
X98982Y-62673D01*
X98890Y-62635D01*
X98791Y-62635D01*
X98541Y-62635D01*
X98449Y-62673D01*
X98399Y-62722D01*
X98332Y-62722D01*
X98282Y-62673D01*
X98191Y-62635D01*
X98129Y-62635D01*
X98066Y-62697D01*
X98066Y-62881D01*
X98057Y-62890D01*
X97998Y-63032D01*
X97997Y-63187D01*
X98056Y-63329D01*
X98066Y-63339D01*
X98066Y-63522D01*
X98076Y-63532D01*
X98076Y-63672D01*
X98100Y-63791D01*
X98167Y-63891D01*
X98271Y-63995D01*
X98271Y-63995D01*
X98371Y-64062D01*
X98371Y-64062D01*
X98466Y-64081D01*
X98489Y-64086D01*
X98489Y-64086D01*
X98490Y-64086D01*
X100212Y-64086D01*
X100330Y-64062D01*
X100330Y-64062D01*
X100430Y-63995D01*
X100557Y-63868D01*
X100624Y-63767D01*
X100624Y-63767D01*
X100648Y-63649D01*
X100648Y-63504D01*
X100676Y-63477D01*
X100714Y-63385D01*
X100714Y-63285D01*
X100714Y-64535D01*
X100634Y-64615D01*
X100477Y-64457D01*
X100255Y-64365D01*
X100015Y-64365D01*
X99793Y-64457D01*
X99622Y-64627D01*
X99608Y-64660D01*
X99490Y-64660D01*
X99371Y-64684D01*
X99271Y-64751D01*
X99271Y-64751D01*
X99071Y-64951D01*
X99004Y-65051D01*
X98980Y-65170D01*
X98980Y-66621D01*
X98960Y-66600D01*
X98817Y-66541D01*
X98725Y-66541D01*
X98677Y-66492D01*
X98585Y-66454D01*
X98485Y-66454D01*
X98235Y-66454D01*
X98143Y-66492D01*
X98110Y-66525D01*
X98076Y-66492D01*
X97984Y-66454D01*
X97922Y-66454D01*
X97860Y-66516D01*
X97860Y-66879D01*
X97868Y-66879D01*
X97868Y-66979D01*
X97860Y-66979D01*
X97860Y-66987D01*
X97760Y-66987D01*
X97760Y-66979D01*
X97760Y-66879D01*
X97760Y-66516D01*
X97697Y-66454D01*
X97635Y-66454D01*
X97543Y-66492D01*
X97473Y-66562D01*
X97435Y-66654D01*
X97435Y-66753D01*
X97435Y-66816D01*
X97497Y-66879D01*
X97760Y-66879D01*
X97760Y-66979D01*
X97497Y-66979D01*
X97435Y-67041D01*
X97435Y-67104D01*
X97435Y-67204D01*
X97462Y-67269D01*
X97452Y-67265D01*
X97298Y-67265D01*
X97156Y-67324D01*
X97046Y-67433D01*
X96987Y-67575D01*
X96987Y-67729D01*
X97046Y-67872D01*
X97155Y-67981D01*
X97298Y-68040D01*
X97452Y-68040D01*
X97492Y-68024D01*
X97543Y-68074D01*
X97635Y-68112D01*
X97734Y-68112D01*
X97984Y-68112D01*
X98076Y-68074D01*
X98110Y-68041D01*
X98143Y-68074D01*
X98235Y-68112D01*
X98297Y-68112D01*
X98360Y-68050D01*
X98360Y-67687D01*
X98352Y-67687D01*
X98352Y-67587D01*
X98360Y-67587D01*
X98360Y-67579D01*
X98460Y-67579D01*
X98460Y-67587D01*
X98722Y-67587D01*
X98785Y-67525D01*
X98785Y-67462D01*
X98785Y-67362D01*
X98766Y-67316D01*
X98816Y-67316D01*
X98959Y-67258D01*
X99050Y-67167D01*
X99071Y-67198D01*
X99501Y-67628D01*
X99601Y-67695D01*
X99601Y-67695D01*
X99720Y-67719D01*
X103600Y-67719D01*
X103718Y-67695D01*
X103718Y-67695D01*
X103818Y-67628D01*
X104388Y-67058D01*
X104455Y-66958D01*
X104455Y-66958D01*
X104479Y-66840D01*
X104479Y-61200D01*
X104455Y-61081D01*
X104455Y-61081D01*
X104388Y-60981D01*
X103848Y-60441D01*
X103748Y-60374D01*
X103630Y-60350D01*
X96120Y-60350D01*
X96001Y-60374D01*
X95901Y-60441D01*
X92557Y-63785D01*
X92530Y-63785D01*
X91023Y-63785D01*
X90905Y-63808D01*
X90805Y-63875D01*
X90305Y-64375D01*
X90277Y-64375D01*
X90134Y-64434D01*
X90025Y-64543D01*
X89966Y-64686D01*
X89966Y-64730D01*
X89724Y-64730D01*
X89606Y-64753D01*
X89505Y-64820D01*
X89505Y-64820D01*
X88766Y-65560D01*
X88744Y-65506D01*
X88710Y-65472D01*
X88744Y-65438D01*
X88782Y-65346D01*
X88782Y-64997D01*
X88744Y-64906D01*
X88673Y-64835D01*
X88582Y-64797D01*
X88482Y-64797D01*
X88419Y-64797D01*
X88357Y-64859D01*
X88357Y-65122D01*
X88719Y-65122D01*
X88782Y-65059D01*
X88782Y-64997D01*
X88782Y-65346D01*
X88782Y-65284D01*
X88719Y-65222D01*
X88357Y-65222D01*
X88357Y-65230D01*
X88257Y-65230D01*
X88257Y-65222D01*
X88257Y-65122D01*
X88257Y-64859D01*
X88194Y-64797D01*
X88131Y-64797D01*
X88032Y-64797D01*
X88014Y-64805D01*
X88034Y-64756D01*
X88034Y-64657D01*
X88034Y-64407D01*
X87996Y-64315D01*
X87946Y-64266D01*
X87946Y-64175D01*
X87888Y-64032D01*
X87779Y-63923D01*
X87636Y-63864D01*
X87482Y-63864D01*
X87339Y-63923D01*
X87230Y-64032D01*
X87171Y-64174D01*
X87171Y-64266D01*
X87122Y-64315D01*
X87084Y-64406D01*
X87084Y-64506D01*
X87084Y-64756D01*
X87121Y-64848D01*
X87155Y-64881D01*
X87121Y-64915D01*
X87084Y-65007D01*
X87084Y-65069D01*
X87146Y-65131D01*
X87509Y-65131D01*
X87509Y-65124D01*
X87609Y-65124D01*
X87609Y-65131D01*
X87971Y-65131D01*
X87981Y-65122D01*
X88257Y-65122D01*
X88257Y-65222D01*
X87894Y-65222D01*
X87885Y-65231D01*
X87609Y-65231D01*
X87609Y-65494D01*
X87641Y-65527D01*
X87599Y-65569D01*
X87599Y-66007D01*
X87617Y-66007D01*
X87617Y-66107D01*
X87599Y-66107D01*
X87599Y-66544D01*
X87661Y-66607D01*
X87684Y-66607D01*
X87684Y-66701D01*
X87684Y-66861D01*
X87695Y-66889D01*
X87684Y-66917D01*
X87684Y-67016D01*
X87684Y-67176D01*
X87695Y-67204D01*
X87684Y-67232D01*
X87684Y-67331D01*
X87684Y-67491D01*
X87695Y-67519D01*
X87684Y-67547D01*
X87684Y-67646D01*
X87684Y-67806D01*
X87695Y-67834D01*
X87684Y-67862D01*
X87684Y-67961D01*
X87684Y-68121D01*
X87695Y-68149D01*
X87684Y-68177D01*
X87684Y-68276D01*
X87684Y-68436D01*
X87695Y-68464D01*
X87684Y-68492D01*
X87684Y-68591D01*
X87684Y-68751D01*
X87695Y-68779D01*
X87684Y-68807D01*
X87684Y-68879D01*
X87418Y-68613D01*
X87418Y-67804D01*
X87471Y-67676D01*
X87471Y-67522D01*
X87412Y-67379D01*
X87303Y-67270D01*
X87161Y-67211D01*
X87007Y-67211D01*
X86864Y-67270D01*
X86755Y-67379D01*
X86696Y-67521D01*
X86696Y-67675D01*
X86755Y-67818D01*
X86761Y-67824D01*
X86761Y-68750D01*
X86786Y-68875D01*
X86857Y-68982D01*
X87359Y-69484D01*
X87359Y-69484D01*
X87462Y-69553D01*
X86496Y-69553D01*
X86370Y-69578D01*
X86263Y-69649D01*
X86066Y-69846D01*
X85995Y-69952D01*
X85984Y-70007D01*
X85854Y-70007D01*
X85826Y-70018D01*
X85799Y-70007D01*
X85781Y-70007D01*
X85781Y-69962D01*
X85722Y-69819D01*
X85613Y-69710D01*
X85471Y-69651D01*
X85316Y-69651D01*
X85174Y-69710D01*
X85065Y-69819D01*
X85033Y-69895D01*
X85033Y-69765D01*
X84992Y-69665D01*
X85033Y-69565D01*
X85033Y-69411D01*
X84983Y-69291D01*
X85033Y-69171D01*
X85033Y-69017D01*
X84974Y-68875D01*
X84865Y-68765D01*
X84723Y-68706D01*
X84568Y-68706D01*
X84426Y-68765D01*
X84317Y-68874D01*
X84288Y-68943D01*
X84284Y-68943D01*
X84284Y-68807D01*
X84279Y-68795D01*
X84549Y-68525D01*
X84616Y-68425D01*
X84616Y-68425D01*
X84639Y-68307D01*
X84639Y-67322D01*
X84616Y-67204D01*
X84616Y-67204D01*
X84549Y-67104D01*
X84284Y-66839D01*
X84284Y-66762D01*
X84284Y-66607D01*
X84306Y-66607D01*
X84336Y-66577D01*
X84336Y-66651D01*
X84395Y-66794D01*
X84504Y-66903D01*
X84646Y-66962D01*
X84801Y-66962D01*
X84943Y-66903D01*
X85052Y-66794D01*
X85112Y-66652D01*
X85112Y-66607D01*
X85168Y-66607D01*
X85196Y-66595D01*
X85224Y-66607D01*
X85323Y-66607D01*
X85483Y-66607D01*
X85511Y-66595D01*
X85539Y-66607D01*
X85638Y-66607D01*
X85798Y-66607D01*
X85826Y-66595D01*
X85854Y-66607D01*
X85953Y-66607D01*
X86113Y-66607D01*
X86141Y-66595D01*
X86169Y-66607D01*
X86268Y-66607D01*
X86428Y-66607D01*
X86456Y-66595D01*
X86484Y-66607D01*
X86583Y-66607D01*
X86698Y-66607D01*
X86698Y-66730D01*
X86757Y-66872D01*
X86866Y-66982D01*
X87009Y-67041D01*
X87163Y-67041D01*
X87305Y-66982D01*
X87415Y-66873D01*
X87474Y-66731D01*
X87474Y-66697D01*
X87529Y-66614D01*
X87529Y-66614D01*
X87553Y-66495D01*
X87553Y-66457D01*
X87574Y-66407D01*
X87574Y-66307D01*
X87574Y-65707D01*
X87536Y-65615D01*
X87519Y-65598D01*
X87519Y-65569D01*
X87476Y-65526D01*
X87509Y-65494D01*
X87509Y-65231D01*
X87146Y-65231D01*
X87084Y-65294D01*
X87084Y-65356D01*
X87121Y-65448D01*
X87180Y-65507D01*
X87114Y-65507D01*
X87086Y-65518D01*
X87059Y-65507D01*
X86959Y-65507D01*
X86799Y-65507D01*
X86771Y-65518D01*
X86744Y-65507D01*
X86644Y-65507D01*
X86484Y-65507D01*
X86456Y-65518D01*
X86429Y-65507D01*
X86412Y-65507D01*
X86466Y-65484D01*
X86575Y-65375D01*
X86634Y-65233D01*
X86634Y-65079D01*
X86575Y-64936D01*
X86466Y-64827D01*
X86324Y-64768D01*
X86170Y-64768D01*
X86027Y-64827D01*
X85981Y-64872D01*
X85828Y-64872D01*
X86452Y-64248D01*
X86452Y-64248D01*
X86524Y-64141D01*
X86549Y-64015D01*
X86549Y-64015D01*
X86549Y-63897D01*
X86549Y-61417D01*
X86524Y-61291D01*
X86452Y-61184D01*
X86452Y-61184D01*
X85508Y-60239D01*
X85401Y-60168D01*
X85275Y-60143D01*
X83346Y-60143D01*
X83220Y-60168D01*
X83114Y-60239D01*
X81717Y-61636D01*
X81594Y-61687D01*
X81431Y-61620D01*
X81246Y-61619D01*
X81074Y-61690D01*
X80943Y-61821D01*
X80872Y-61993D01*
X80871Y-62179D01*
X80942Y-62350D01*
X81073Y-62481D01*
X81245Y-62553D01*
X81430Y-62553D01*
X81521Y-62515D01*
X81521Y-62577D01*
X81480Y-62594D01*
X81410Y-62664D01*
X81372Y-62756D01*
X81372Y-62856D01*
X81372Y-63306D01*
X81380Y-63326D01*
X81372Y-63347D01*
X81372Y-63446D01*
X81372Y-63896D01*
X81410Y-63988D01*
X81480Y-64058D01*
X81572Y-64097D01*
X81671Y-64097D01*
X81921Y-64097D01*
X82013Y-64059D01*
X82047Y-64025D01*
X82080Y-64059D01*
X82172Y-64097D01*
X82234Y-64097D01*
X82297Y-64034D01*
X82297Y-63672D01*
X82289Y-63672D01*
X82289Y-63572D01*
X82297Y-63572D01*
X82297Y-63564D01*
X82397Y-63564D01*
X82397Y-63572D01*
X82405Y-63572D01*
X82405Y-63634D01*
X82359Y-63680D01*
X82359Y-63742D01*
X82397Y-63833D01*
X82397Y-64034D01*
X82427Y-64064D01*
X82427Y-64143D01*
X82427Y-64537D01*
X82459Y-64616D01*
X82446Y-64646D01*
X82446Y-64651D01*
X82430Y-64635D01*
X82317Y-64559D01*
X82295Y-64555D01*
X82184Y-64533D01*
X82184Y-64533D01*
X82179Y-64533D01*
X82172Y-64515D01*
X82102Y-64445D01*
X82010Y-64406D01*
X81910Y-64406D01*
X81660Y-64406D01*
X81569Y-64444D01*
X81535Y-64478D01*
X81502Y-64445D01*
X81410Y-64406D01*
X81310Y-64406D01*
X81060Y-64406D01*
X80969Y-64444D01*
X80898Y-64515D01*
X80860Y-64606D01*
X80860Y-64706D01*
X80860Y-65156D01*
X80871Y-65183D01*
X80832Y-65276D01*
X80832Y-65368D01*
X80783Y-65417D01*
X80745Y-65509D01*
X80745Y-65608D01*
X80745Y-65858D01*
X80783Y-65950D01*
X80816Y-65984D01*
X80783Y-66017D01*
X80745Y-66109D01*
X80745Y-66208D01*
X80745Y-66288D01*
X80698Y-66288D01*
X80698Y-66393D01*
X80515Y-66211D01*
X80415Y-66144D01*
X80297Y-66120D01*
X75068Y-66120D01*
X74949Y-66144D01*
X74849Y-66211D01*
X74849Y-66211D01*
X74408Y-66652D01*
X74408Y-60284D01*
X74220Y-59830D01*
X73873Y-59482D01*
X73420Y-59294D01*
X72929Y-59293D01*
X72475Y-59481D01*
X72127Y-59828D01*
X71939Y-60281D01*
X71939Y-60772D01*
X72126Y-61226D01*
X72473Y-61574D01*
X72927Y-61762D01*
X73418Y-61762D01*
X73871Y-61575D01*
X74219Y-61228D01*
X74407Y-60775D01*
X74408Y-60284D01*
X74408Y-66652D01*
X74282Y-66778D01*
X74197Y-66778D01*
X74197Y-66014D01*
X74159Y-65922D01*
X74089Y-65852D01*
X73997Y-65814D01*
X73898Y-65813D01*
X73323Y-65813D01*
X73231Y-65851D01*
X73161Y-65922D01*
X73123Y-66014D01*
X73122Y-66020D01*
X71984Y-66020D01*
X71892Y-66058D01*
X71868Y-66083D01*
X71868Y-60555D01*
X71973Y-60029D01*
X72253Y-59609D01*
X72677Y-59327D01*
X73197Y-59223D01*
X106957Y-59223D01*
X107482Y-59328D01*
X107902Y-59608D01*
X108185Y-60032D01*
X108289Y-60552D01*
X108289Y-63094D01*
X108218Y-63064D01*
X108218Y-60284D01*
X108030Y-59830D01*
X107683Y-59482D01*
X107230Y-59294D01*
X106739Y-59293D01*
X106285Y-59481D01*
X105937Y-59828D01*
X105749Y-60281D01*
X105749Y-60772D01*
X105936Y-61226D01*
X106283Y-61574D01*
X106737Y-61762D01*
X107228Y-61762D01*
X107681Y-61575D01*
X108029Y-61228D01*
X108217Y-60775D01*
X108218Y-60284D01*
X108218Y-63064D01*
X108149Y-63036D01*
X107878Y-63036D01*
X107627Y-63140D01*
X107434Y-63332D01*
X107330Y-63583D01*
X107330Y-63854D01*
X107434Y-64105D01*
X107626Y-64298D01*
X107877Y-64402D01*
X108148Y-64402D01*
X108289Y-64344D01*
X108289Y-64472D01*
X108149Y-64414D01*
X107878Y-64414D01*
X107627Y-64518D01*
X107434Y-64710D01*
X107330Y-64961D01*
X107330Y-65232D01*
X107434Y-65483D01*
X107626Y-65676D01*
X107877Y-65780D01*
X108148Y-65780D01*
X108289Y-65722D01*
X108289Y-68103D01*
X108146Y-68044D01*
X107874Y-68043D01*
X107623Y-68147D01*
X107431Y-68339D01*
X107327Y-68590D01*
X107326Y-68862D01*
X107430Y-69113D01*
X107622Y-69305D01*
X107873Y-69409D01*
X108145Y-69410D01*
X108289Y-69350D01*
X108289Y-69481D01*
G54D10*
G36*
X108289Y-74644D02*
X108218Y-74999D01*
X108218Y-74424D01*
X108030Y-73970D01*
X107683Y-73622D01*
X107312Y-73468D01*
X107312Y-73337D01*
X107287Y-73211D01*
X107287Y-73211D01*
X107273Y-73190D01*
X107273Y-73190D01*
X107273Y-73132D01*
X107281Y-73124D01*
X107319Y-73032D01*
X107320Y-72933D01*
X107320Y-72483D01*
X107282Y-72391D01*
X107211Y-72321D01*
X107119Y-72283D01*
X107020Y-72282D01*
X106770Y-72282D01*
X106678Y-72320D01*
X106645Y-72354D01*
X106611Y-72320D01*
X106519Y-72282D01*
X106457Y-72283D01*
X106395Y-72345D01*
X106395Y-72708D01*
X106402Y-72708D01*
X106402Y-72808D01*
X106395Y-72808D01*
X106395Y-73170D01*
X106457Y-73233D01*
X106519Y-73233D01*
X106611Y-73195D01*
X106616Y-73190D01*
X106616Y-73298D01*
X106641Y-73424D01*
X106654Y-73444D01*
X106654Y-73468D01*
X106295Y-73617D01*
X106295Y-73170D01*
X106295Y-72808D01*
X106295Y-72708D01*
X106295Y-72345D01*
X106232Y-72283D01*
X106170Y-72282D01*
X106078Y-72320D01*
X106008Y-72391D01*
X105970Y-72483D01*
X105969Y-72582D01*
X105970Y-72645D01*
X106032Y-72708D01*
X106295Y-72708D01*
X106295Y-72808D01*
X106032Y-72808D01*
X105970Y-72870D01*
X105969Y-72933D01*
X105970Y-73032D01*
X106008Y-73124D01*
X106078Y-73195D01*
X106170Y-73233D01*
X106232Y-73233D01*
X106295Y-73170D01*
X106295Y-73617D01*
X106285Y-73621D01*
X105941Y-73965D01*
X105941Y-71596D01*
X105932Y-71324D01*
X105845Y-71115D01*
X105736Y-71071D01*
X105665Y-71142D01*
X105665Y-71000D01*
X105621Y-70891D01*
X105367Y-70795D01*
X105096Y-70804D01*
X104886Y-70891D01*
X104842Y-71000D01*
X105254Y-71412D01*
X105665Y-71000D01*
X105665Y-71142D01*
X105324Y-71482D01*
X105736Y-71894D01*
X105845Y-71850D01*
X105941Y-71596D01*
X105941Y-73965D01*
X105937Y-73968D01*
X105749Y-74421D01*
X105749Y-74912D01*
X105936Y-75366D01*
X106283Y-75714D01*
X106737Y-75902D01*
X107228Y-75902D01*
X107681Y-75715D01*
X108029Y-75368D01*
X108217Y-74915D01*
X108218Y-74424D01*
X108218Y-74999D01*
X108185Y-75164D01*
X107902Y-75588D01*
X107482Y-75868D01*
X106957Y-75973D01*
X105665Y-75973D01*
X105665Y-71965D01*
X105254Y-71553D01*
X105183Y-71624D01*
X105183Y-71482D01*
X104771Y-71071D01*
X104662Y-71115D01*
X104566Y-71369D01*
X104575Y-71641D01*
X104662Y-71850D01*
X104771Y-71894D01*
X105183Y-71482D01*
X105183Y-71624D01*
X104842Y-71965D01*
X104886Y-72074D01*
X105140Y-72170D01*
X105412Y-72161D01*
X105621Y-72074D01*
X105665Y-71965D01*
X105665Y-75973D01*
X104930Y-75973D01*
X104930Y-72909D01*
X104924Y-72909D01*
X104924Y-72869D01*
X104238Y-72869D01*
X104240Y-71835D01*
X104240Y-71783D01*
X95650Y-71785D01*
X95647Y-75973D01*
X91546Y-75973D01*
X91546Y-73414D01*
X90286Y-73414D01*
X90286Y-72179D01*
X91653Y-72179D01*
X91779Y-72154D01*
X91779Y-72154D01*
X91885Y-72082D01*
X93657Y-70311D01*
X93728Y-70204D01*
X93728Y-70204D01*
X93753Y-70078D01*
X93753Y-67795D01*
X93753Y-67795D01*
X93728Y-67669D01*
X93657Y-67562D01*
X93657Y-67562D01*
X93342Y-67247D01*
X93342Y-67247D01*
X93342Y-67247D01*
X93283Y-67188D01*
X93283Y-67188D01*
X93283Y-67188D01*
X93261Y-67166D01*
X93204Y-67110D01*
X93155Y-67060D01*
X93156Y-67059D01*
X93194Y-66967D01*
X93194Y-66868D01*
X93194Y-66418D01*
X93156Y-66326D01*
X93086Y-66256D01*
X92994Y-66217D01*
X92895Y-66217D01*
X92645Y-66217D01*
X92553Y-66255D01*
X92519Y-66289D01*
X92486Y-66255D01*
X92394Y-66217D01*
X92332Y-66217D01*
X92269Y-66280D01*
X92269Y-66642D01*
X92277Y-66642D01*
X92277Y-66742D01*
X92269Y-66742D01*
X92269Y-66750D01*
X92171Y-66750D01*
X92171Y-66517D01*
X92171Y-66417D01*
X92169Y-66414D01*
X92169Y-66280D01*
X92107Y-66217D01*
X92045Y-66217D01*
X92007Y-66233D01*
X91970Y-66217D01*
X91908Y-66217D01*
X91846Y-66280D01*
X91846Y-66414D01*
X91844Y-66417D01*
X91844Y-66517D01*
X91844Y-66580D01*
X91846Y-66581D01*
X91846Y-66642D01*
X91907Y-66642D01*
X92108Y-66642D01*
X92169Y-66642D01*
X92169Y-66581D01*
X92171Y-66580D01*
X92171Y-66517D01*
X92171Y-66750D01*
X92169Y-66750D01*
X92169Y-66742D01*
X92108Y-66742D01*
X91907Y-66742D01*
X91846Y-66742D01*
X91846Y-66750D01*
X91746Y-66750D01*
X91746Y-66742D01*
X91738Y-66742D01*
X91738Y-66642D01*
X91746Y-66642D01*
X91746Y-66280D01*
X91683Y-66217D01*
X91621Y-66217D01*
X91529Y-66255D01*
X91496Y-66289D01*
X91462Y-66256D01*
X91371Y-66217D01*
X91271Y-66217D01*
X91108Y-66217D01*
X91191Y-66135D01*
X93769Y-66135D01*
X94769Y-67135D01*
X94769Y-69409D01*
X94793Y-69527D01*
X94860Y-69627D01*
X95555Y-70323D01*
X95656Y-70390D01*
X95656Y-70390D01*
X95774Y-70414D01*
X104642Y-70414D01*
X104674Y-70491D01*
X104866Y-70683D01*
X105117Y-70787D01*
X105389Y-70788D01*
X105640Y-70684D01*
X105832Y-70492D01*
X105857Y-70433D01*
X107406Y-70433D01*
X107430Y-70491D01*
X107622Y-70683D01*
X107873Y-70787D01*
X108145Y-70788D01*
X108289Y-70728D01*
X108289Y-70858D01*
X108123Y-70795D01*
X107851Y-70804D01*
X107642Y-70891D01*
X107598Y-71000D01*
X108010Y-71412D01*
X108015Y-71406D01*
X108086Y-71477D01*
X108080Y-71482D01*
X108086Y-71488D01*
X108015Y-71559D01*
X108010Y-71553D01*
X107939Y-71624D01*
X107939Y-71482D01*
X107527Y-71071D01*
X107418Y-71115D01*
X107322Y-71369D01*
X107331Y-71641D01*
X107418Y-71850D01*
X107527Y-71894D01*
X107939Y-71482D01*
X107939Y-71624D01*
X107598Y-71965D01*
X107642Y-72074D01*
X107896Y-72170D01*
X108168Y-72161D01*
X108289Y-72111D01*
X108289Y-74644D01*
X108289Y-74644D01*
G37*
G54D37*
X108289Y-74644D02*
X108218Y-74999D01*
X108218Y-74424D01*
X108030Y-73970D01*
X107683Y-73622D01*
X107312Y-73468D01*
X107312Y-73337D01*
X107287Y-73211D01*
X107287Y-73211D01*
X107273Y-73190D01*
X107273Y-73190D01*
X107273Y-73132D01*
X107281Y-73124D01*
X107319Y-73032D01*
X107320Y-72933D01*
X107320Y-72483D01*
X107282Y-72391D01*
X107211Y-72321D01*
X107119Y-72283D01*
X107020Y-72282D01*
X106770Y-72282D01*
X106678Y-72320D01*
X106645Y-72354D01*
X106611Y-72320D01*
X106519Y-72282D01*
X106457Y-72283D01*
X106395Y-72345D01*
X106395Y-72708D01*
X106402Y-72708D01*
X106402Y-72808D01*
X106395Y-72808D01*
X106395Y-73170D01*
X106457Y-73233D01*
X106519Y-73233D01*
X106611Y-73195D01*
X106616Y-73190D01*
X106616Y-73298D01*
X106641Y-73424D01*
X106654Y-73444D01*
X106654Y-73468D01*
X106295Y-73617D01*
X106295Y-73170D01*
X106295Y-72808D01*
X106295Y-72708D01*
X106295Y-72345D01*
X106232Y-72283D01*
X106170Y-72282D01*
X106078Y-72320D01*
X106008Y-72391D01*
X105970Y-72483D01*
X105969Y-72582D01*
X105970Y-72645D01*
X106032Y-72708D01*
X106295Y-72708D01*
X106295Y-72808D01*
X106032Y-72808D01*
X105970Y-72870D01*
X105969Y-72933D01*
X105970Y-73032D01*
X106008Y-73124D01*
X106078Y-73195D01*
X106170Y-73233D01*
X106232Y-73233D01*
X106295Y-73170D01*
X106295Y-73617D01*
X106285Y-73621D01*
X105941Y-73965D01*
X105941Y-71596D01*
X105932Y-71324D01*
X105845Y-71115D01*
X105736Y-71071D01*
X105665Y-71142D01*
X105665Y-71000D01*
X105621Y-70891D01*
X105367Y-70795D01*
X105096Y-70804D01*
X104886Y-70891D01*
X104842Y-71000D01*
X105254Y-71412D01*
X105665Y-71000D01*
X105665Y-71142D01*
X105324Y-71482D01*
X105736Y-71894D01*
X105845Y-71850D01*
X105941Y-71596D01*
X105941Y-73965D01*
X105937Y-73968D01*
X105749Y-74421D01*
X105749Y-74912D01*
X105936Y-75366D01*
X106283Y-75714D01*
X106737Y-75902D01*
X107228Y-75902D01*
X107681Y-75715D01*
X108029Y-75368D01*
X108217Y-74915D01*
X108218Y-74424D01*
X108218Y-74999D01*
X108185Y-75164D01*
X107902Y-75588D01*
X107482Y-75868D01*
X106957Y-75973D01*
X105665Y-75973D01*
X105665Y-71965D01*
X105254Y-71553D01*
X105183Y-71624D01*
X105183Y-71482D01*
X104771Y-71071D01*
X104662Y-71115D01*
X104566Y-71369D01*
X104575Y-71641D01*
X104662Y-71850D01*
X104771Y-71894D01*
X105183Y-71482D01*
X105183Y-71624D01*
X104842Y-71965D01*
X104886Y-72074D01*
X105140Y-72170D01*
X105412Y-72161D01*
X105621Y-72074D01*
X105665Y-71965D01*
X105665Y-75973D01*
X104930Y-75973D01*
X104930Y-72909D01*
X104924Y-72909D01*
X104924Y-72869D01*
X104238Y-72869D01*
X104240Y-71835D01*
X104240Y-71783D01*
X95650Y-71785D01*
X95647Y-75973D01*
X91546Y-75973D01*
X91546Y-73414D01*
X90286Y-73414D01*
X90286Y-72179D01*
X91653Y-72179D01*
X91779Y-72154D01*
X91779Y-72154D01*
X91885Y-72082D01*
X93657Y-70311D01*
X93728Y-70204D01*
X93728Y-70204D01*
X93753Y-70078D01*
X93753Y-67795D01*
X93753Y-67795D01*
X93728Y-67669D01*
X93657Y-67562D01*
X93657Y-67562D01*
X93342Y-67247D01*
X93342Y-67247D01*
X93342Y-67247D01*
X93283Y-67188D01*
X93283Y-67188D01*
X93283Y-67188D01*
X93261Y-67166D01*
X93204Y-67110D01*
X93155Y-67060D01*
X93156Y-67059D01*
X93194Y-66967D01*
X93194Y-66868D01*
X93194Y-66418D01*
X93156Y-66326D01*
X93086Y-66256D01*
X92994Y-66217D01*
X92895Y-66217D01*
X92645Y-66217D01*
X92553Y-66255D01*
X92519Y-66289D01*
X92486Y-66255D01*
X92394Y-66217D01*
X92332Y-66217D01*
X92269Y-66280D01*
X92269Y-66642D01*
X92277Y-66642D01*
X92277Y-66742D01*
X92269Y-66742D01*
X92269Y-66750D01*
X92171Y-66750D01*
X92171Y-66517D01*
X92171Y-66417D01*
X92169Y-66414D01*
X92169Y-66280D01*
X92107Y-66217D01*
X92045Y-66217D01*
X92007Y-66233D01*
X91970Y-66217D01*
X91908Y-66217D01*
X91846Y-66280D01*
X91846Y-66414D01*
X91844Y-66417D01*
X91844Y-66517D01*
X91844Y-66580D01*
X91846Y-66581D01*
X91846Y-66642D01*
X91907Y-66642D01*
X92108Y-66642D01*
X92169Y-66642D01*
X92169Y-66581D01*
X92171Y-66580D01*
X92171Y-66517D01*
X92171Y-66750D01*
X92169Y-66750D01*
X92169Y-66742D01*
X92108Y-66742D01*
X91907Y-66742D01*
X91846Y-66742D01*
X91846Y-66750D01*
X91746Y-66750D01*
X91746Y-66742D01*
X91738Y-66742D01*
X91738Y-66642D01*
X91746Y-66642D01*
X91746Y-66280D01*
X91683Y-66217D01*
X91621Y-66217D01*
X91529Y-66255D01*
X91496Y-66289D01*
X91462Y-66256D01*
X91371Y-66217D01*
X91271Y-66217D01*
X91108Y-66217D01*
X91191Y-66135D01*
X93769Y-66135D01*
X94769Y-67135D01*
X94769Y-69409D01*
X94793Y-69527D01*
X94860Y-69627D01*
X95555Y-70323D01*
X95656Y-70390D01*
X95656Y-70390D01*
X95774Y-70414D01*
X104642Y-70414D01*
X104674Y-70491D01*
X104866Y-70683D01*
X105117Y-70787D01*
X105389Y-70788D01*
X105640Y-70684D01*
X105832Y-70492D01*
X105857Y-70433D01*
X107406Y-70433D01*
X107430Y-70491D01*
X107622Y-70683D01*
X107873Y-70787D01*
X108145Y-70788D01*
X108289Y-70728D01*
X108289Y-70858D01*
X108123Y-70795D01*
X107851Y-70804D01*
X107642Y-70891D01*
X107598Y-71000D01*
X108010Y-71412D01*
X108015Y-71406D01*
X108086Y-71477D01*
X108080Y-71482D01*
X108086Y-71488D01*
X108015Y-71559D01*
X108010Y-71553D01*
X107939Y-71624D01*
X107939Y-71482D01*
X107527Y-71071D01*
X107418Y-71115D01*
X107322Y-71369D01*
X107331Y-71641D01*
X107418Y-71850D01*
X107527Y-71894D01*
X107939Y-71482D01*
X107939Y-71624D01*
X107598Y-71965D01*
X107642Y-72074D01*
X107896Y-72170D01*
X108168Y-72161D01*
X108289Y-72111D01*
X108289Y-74644D01*
M02*
