G04 (created by PCBNEW (2013-07-07 BZR 4022)-stable) date 26/08/2014 17:06:35*
%MOIN*%
G04 Gerber Fmt 3.4, Leading zero omitted, Abs format*
%FSLAX34Y34*%
G01*
G70*
G90*
G04 APERTURE LIST*
%ADD10C,0.00590551*%
%ADD11C,0.00393701*%
%ADD12C,0.0708661*%
%ADD13R,0.0574803X0.0787402*%
%ADD14R,0.124016X0.0511811*%
%ADD15R,0.06X0.06*%
%ADD16C,0.06*%
%ADD17C,0.0866142*%
%ADD18C,0.0433071*%
%ADD19C,0.0787402*%
%ADD20C,0.0590551*%
%ADD21C,0.19685*%
%ADD22C,0.0275591*%
%ADD23C,0.011811*%
%ADD24C,0.015748*%
%ADD25C,0.0393701*%
%ADD26C,0.019685*%
%ADD27C,0.01*%
G04 APERTURE END LIST*
G54D10*
G54D11*
X106983Y-58953D02*
X73173Y-58953D01*
X108558Y-60528D02*
G75*
G03X106983Y-58953I-1575J0D01*
G74*
G01*
X108558Y-74668D02*
X108558Y-60528D01*
X106983Y-76243D02*
G75*
G03X108558Y-74668I0J1575D01*
G74*
G01*
X73173Y-76243D02*
X106983Y-76243D01*
X71598Y-74668D02*
G75*
G03X73173Y-76243I1575J0D01*
G74*
G01*
X71598Y-60528D02*
X71598Y-74668D01*
X73173Y-58953D02*
G75*
G03X71598Y-60528I0J-1575D01*
G74*
G01*
G54D12*
X103135Y-64970D03*
X103135Y-65970D03*
X102135Y-64970D03*
X102135Y-65970D03*
X101135Y-64970D03*
X101135Y-65970D03*
X100135Y-64970D03*
X100135Y-65970D03*
G54D13*
X73660Y-66457D03*
X73660Y-68741D03*
G54D14*
X72654Y-66526D03*
X72654Y-68672D03*
G54D15*
X80602Y-71125D03*
G54D16*
X81602Y-71125D03*
X80602Y-72125D03*
X81602Y-72125D03*
X80602Y-73125D03*
X81602Y-73125D03*
G54D17*
X108010Y-71482D03*
X108010Y-70105D03*
X108010Y-68727D03*
X105254Y-71482D03*
X105254Y-70105D03*
X105254Y-68727D03*
X108013Y-65097D03*
X108013Y-63719D03*
X105257Y-65097D03*
X105257Y-63719D03*
G54D18*
X82362Y-62086D03*
X81850Y-62086D03*
X81338Y-62086D03*
G54D19*
X77904Y-70397D03*
X77904Y-72168D03*
X75345Y-72168D03*
X75345Y-70397D03*
G54D20*
X95590Y-66098D03*
X95590Y-67098D03*
X95590Y-68098D03*
X95590Y-69098D03*
G54D21*
X73173Y-60528D03*
X73173Y-74668D03*
X106983Y-74668D03*
X106983Y-60528D03*
G54D22*
X97328Y-64897D03*
X86247Y-65156D03*
X81614Y-69685D03*
X97375Y-67653D03*
X78627Y-68637D03*
X87801Y-71487D03*
X87362Y-71535D03*
X80052Y-68166D03*
X90354Y-64763D03*
X84645Y-69842D03*
X84645Y-69488D03*
X91535Y-64763D03*
X84645Y-69094D03*
X91141Y-64763D03*
X87084Y-67599D03*
X98063Y-65457D03*
X75690Y-67580D03*
X98385Y-63110D03*
X98740Y-66929D03*
X95413Y-64251D03*
X90984Y-67716D03*
X90866Y-66692D03*
X82834Y-62637D03*
X81220Y-65354D03*
X89370Y-70551D03*
X83228Y-67992D03*
X88740Y-69960D03*
X87047Y-73818D03*
X85393Y-70039D03*
X87559Y-64251D03*
X87086Y-66653D03*
X84921Y-64251D03*
X84330Y-64251D03*
X84724Y-66574D03*
X83740Y-64251D03*
X82834Y-64724D03*
X81181Y-68582D03*
G54D23*
X95515Y-63490D02*
X96229Y-63490D01*
X96621Y-64897D02*
X97328Y-64897D01*
X96390Y-64666D02*
X96621Y-64897D01*
X96390Y-63651D02*
X96390Y-64666D01*
X96229Y-63490D02*
X96390Y-63651D01*
X86247Y-65156D02*
X86513Y-65156D01*
X87430Y-63490D02*
X95515Y-63490D01*
X95515Y-63490D02*
X95520Y-63490D01*
X86870Y-64050D02*
X87430Y-63490D01*
X86870Y-64799D02*
X86870Y-64050D01*
X86513Y-65156D02*
X86870Y-64799D01*
X86240Y-65163D02*
X86233Y-65163D01*
X86247Y-65156D02*
X86240Y-65163D01*
G54D24*
X103135Y-65970D02*
X103135Y-66734D01*
X98879Y-66098D02*
X95590Y-66098D01*
X99575Y-66794D02*
X98879Y-66098D01*
X103075Y-66794D02*
X99575Y-66794D01*
X103135Y-66734D02*
X103075Y-66794D01*
G54D25*
X81602Y-71125D02*
X81602Y-69696D01*
X81602Y-69696D02*
X81614Y-69685D01*
G54D23*
X96136Y-67644D02*
X95590Y-67098D01*
X97384Y-67644D02*
X96136Y-67644D01*
X97375Y-67653D02*
X97384Y-67644D01*
G54D24*
X78624Y-69104D02*
X78627Y-68637D01*
X78932Y-69412D02*
X78624Y-69104D01*
X78932Y-73817D02*
X78932Y-69412D01*
X79350Y-74235D02*
X78932Y-73817D01*
X81945Y-74235D02*
X79350Y-74235D01*
X82965Y-73215D02*
X81945Y-74235D01*
X82965Y-72465D02*
X82965Y-73215D01*
X83400Y-72030D02*
X82965Y-72465D01*
X87585Y-72030D02*
X83400Y-72030D01*
X87795Y-71820D02*
X87585Y-72030D01*
X87795Y-71493D02*
X87795Y-71820D01*
X87801Y-71487D02*
X87795Y-71493D01*
G54D26*
X87362Y-71535D02*
X83127Y-71535D01*
X83127Y-71535D02*
X82607Y-71015D01*
X82607Y-71015D02*
X82607Y-68600D01*
X82607Y-68600D02*
X82173Y-68166D01*
X82173Y-68166D02*
X80052Y-68166D01*
G54D23*
X90354Y-65551D02*
X90354Y-64763D01*
X84566Y-69842D02*
X84330Y-69606D01*
X84330Y-69606D02*
X84330Y-68937D01*
X84330Y-68937D02*
X84488Y-68779D01*
X84488Y-68779D02*
X87125Y-68779D01*
X87125Y-68779D02*
X90354Y-65551D01*
X84645Y-69842D02*
X84566Y-69842D01*
X91535Y-64763D02*
X91535Y-65157D01*
X87204Y-69488D02*
X91535Y-65157D01*
X84645Y-69488D02*
X87204Y-69488D01*
X91141Y-64763D02*
X91141Y-65157D01*
X87204Y-69094D02*
X91141Y-65157D01*
X84645Y-69094D02*
X87204Y-69094D01*
G54D24*
X75345Y-70397D02*
X77904Y-70397D01*
X78231Y-67599D02*
X77904Y-67925D01*
X77904Y-67925D02*
X77904Y-70397D01*
X87084Y-67599D02*
X78231Y-67599D01*
G54D23*
X98063Y-65457D02*
X98063Y-64317D01*
X104497Y-65097D02*
X105257Y-65097D01*
X104180Y-64780D02*
X104497Y-65097D01*
X104180Y-64220D02*
X104180Y-64780D01*
X103780Y-63820D02*
X104180Y-64220D01*
X98560Y-63820D02*
X103780Y-63820D01*
X98063Y-64317D02*
X98560Y-63820D01*
X98063Y-65457D02*
X98100Y-65457D01*
G54D24*
X108013Y-65097D02*
X105257Y-65097D01*
G54D26*
X75692Y-67578D02*
X75692Y-67576D01*
X75690Y-67580D02*
X75692Y-67578D01*
G54D10*
G36*
X108289Y-74644D02*
X108218Y-74999D01*
X108218Y-74913D01*
X108217Y-74422D01*
X108030Y-73969D01*
X107864Y-73858D01*
X107793Y-73929D01*
X107793Y-73788D01*
X107682Y-73621D01*
X107228Y-73434D01*
X106737Y-73434D01*
X106285Y-73621D01*
X106174Y-73788D01*
X106983Y-74597D01*
X107793Y-73788D01*
X107793Y-73929D01*
X107054Y-74668D01*
X107864Y-75477D01*
X108030Y-75367D01*
X108218Y-74913D01*
X108218Y-74999D01*
X108185Y-75164D01*
X107902Y-75588D01*
X107793Y-75661D01*
X107793Y-75548D01*
X106983Y-74739D01*
X106913Y-74809D01*
X106913Y-74668D01*
X106103Y-73858D01*
X105941Y-73966D01*
X105941Y-68840D01*
X105932Y-68568D01*
X105845Y-68359D01*
X105736Y-68315D01*
X105665Y-68386D01*
X105665Y-68244D01*
X105621Y-68135D01*
X105367Y-68039D01*
X105096Y-68048D01*
X104886Y-68135D01*
X104842Y-68244D01*
X105254Y-68656D01*
X105665Y-68244D01*
X105665Y-68386D01*
X105324Y-68727D01*
X105736Y-69138D01*
X105845Y-69094D01*
X105941Y-68840D01*
X105941Y-73966D01*
X105937Y-73969D01*
X105937Y-71347D01*
X105937Y-69969D01*
X105833Y-69718D01*
X105665Y-69550D01*
X105665Y-69209D01*
X105254Y-68797D01*
X105183Y-68868D01*
X105183Y-68727D01*
X104771Y-68315D01*
X104662Y-68359D01*
X104566Y-68613D01*
X104575Y-68885D01*
X104662Y-69094D01*
X104771Y-69138D01*
X105183Y-68727D01*
X105183Y-68868D01*
X104842Y-69209D01*
X104886Y-69318D01*
X105140Y-69414D01*
X105412Y-69405D01*
X105621Y-69318D01*
X105665Y-69209D01*
X105665Y-69550D01*
X105641Y-69526D01*
X105390Y-69422D01*
X105118Y-69421D01*
X104867Y-69525D01*
X104675Y-69717D01*
X104571Y-69968D01*
X104570Y-70240D01*
X104674Y-70491D01*
X104866Y-70683D01*
X105117Y-70787D01*
X105389Y-70788D01*
X105640Y-70684D01*
X105832Y-70492D01*
X105937Y-70241D01*
X105937Y-69969D01*
X105937Y-71347D01*
X105833Y-71096D01*
X105641Y-70904D01*
X105390Y-70800D01*
X105118Y-70799D01*
X104867Y-70903D01*
X104675Y-71095D01*
X104571Y-71346D01*
X104570Y-71618D01*
X104674Y-71869D01*
X104866Y-72061D01*
X105117Y-72165D01*
X105389Y-72166D01*
X105640Y-72062D01*
X105832Y-71870D01*
X105937Y-71619D01*
X105937Y-71347D01*
X105937Y-73969D01*
X105937Y-73969D01*
X105749Y-74423D01*
X105749Y-74914D01*
X105937Y-75367D01*
X106103Y-75477D01*
X106913Y-74668D01*
X106913Y-74809D01*
X106174Y-75548D01*
X106285Y-75715D01*
X106738Y-75902D01*
X107229Y-75902D01*
X107682Y-75715D01*
X107793Y-75548D01*
X107793Y-75661D01*
X107482Y-75868D01*
X106957Y-75973D01*
X104930Y-75973D01*
X104930Y-72909D01*
X104924Y-72909D01*
X104924Y-72869D01*
X104238Y-72869D01*
X104240Y-71835D01*
X104240Y-71783D01*
X103743Y-71783D01*
X103743Y-65064D01*
X103733Y-64824D01*
X103661Y-64649D01*
X103560Y-64615D01*
X103489Y-64686D01*
X103489Y-64544D01*
X103455Y-64443D01*
X103229Y-64361D01*
X102989Y-64371D01*
X102814Y-64443D01*
X102780Y-64544D01*
X103135Y-64899D01*
X103489Y-64544D01*
X103489Y-64686D01*
X103205Y-64970D01*
X103560Y-65324D01*
X103661Y-65290D01*
X103743Y-65064D01*
X103743Y-71783D01*
X96140Y-71784D01*
X96140Y-69179D01*
X96129Y-68962D01*
X96067Y-68813D01*
X95973Y-68786D01*
X95902Y-68857D01*
X95902Y-68715D01*
X95875Y-68621D01*
X95816Y-68600D01*
X95875Y-68575D01*
X95902Y-68480D01*
X95590Y-68169D01*
X95519Y-68239D01*
X95519Y-68098D01*
X95208Y-67786D01*
X95113Y-67813D01*
X95040Y-68017D01*
X95051Y-68234D01*
X95113Y-68383D01*
X95208Y-68410D01*
X95519Y-68098D01*
X95519Y-68239D01*
X95278Y-68480D01*
X95305Y-68575D01*
X95364Y-68596D01*
X95305Y-68621D01*
X95278Y-68715D01*
X95590Y-69027D01*
X95902Y-68715D01*
X95902Y-68857D01*
X95661Y-69098D01*
X95973Y-69410D01*
X96067Y-69383D01*
X96140Y-69179D01*
X96140Y-71784D01*
X95902Y-71784D01*
X95902Y-69480D01*
X95590Y-69169D01*
X95519Y-69239D01*
X95519Y-69098D01*
X95208Y-68786D01*
X95113Y-68813D01*
X95040Y-69017D01*
X95051Y-69234D01*
X95113Y-69383D01*
X95208Y-69410D01*
X95519Y-69098D01*
X95519Y-69239D01*
X95278Y-69480D01*
X95305Y-69575D01*
X95509Y-69648D01*
X95726Y-69637D01*
X95875Y-69575D01*
X95902Y-69480D01*
X95902Y-71784D01*
X95650Y-71785D01*
X95647Y-75973D01*
X91923Y-75973D01*
X91923Y-64686D01*
X91864Y-64544D01*
X91755Y-64435D01*
X91612Y-64376D01*
X91458Y-64375D01*
X91338Y-64425D01*
X91219Y-64376D01*
X91064Y-64375D01*
X90922Y-64434D01*
X90813Y-64543D01*
X90754Y-64686D01*
X90753Y-64840D01*
X90812Y-64983D01*
X90832Y-65003D01*
X90832Y-65029D01*
X90663Y-65198D01*
X90663Y-65003D01*
X90682Y-64983D01*
X90742Y-64841D01*
X90742Y-64686D01*
X90683Y-64544D01*
X90574Y-64435D01*
X90431Y-64376D01*
X90277Y-64375D01*
X90134Y-64434D01*
X90025Y-64543D01*
X89966Y-64686D01*
X89966Y-64840D01*
X90025Y-64983D01*
X90045Y-65003D01*
X90045Y-65423D01*
X86997Y-68470D01*
X84488Y-68470D01*
X84369Y-68493D01*
X84269Y-68560D01*
X84112Y-68718D01*
X84045Y-68818D01*
X84021Y-68937D01*
X84021Y-69606D01*
X84045Y-69724D01*
X84112Y-69824D01*
X84293Y-70006D01*
X84316Y-70061D01*
X84425Y-70171D01*
X84568Y-70230D01*
X84722Y-70230D01*
X84865Y-70171D01*
X84974Y-70062D01*
X85033Y-69919D01*
X85033Y-69797D01*
X87204Y-69797D01*
X87322Y-69773D01*
X87322Y-69773D01*
X87423Y-69706D01*
X91753Y-65376D01*
X91820Y-65275D01*
X91820Y-65275D01*
X91844Y-65157D01*
X91844Y-65003D01*
X91863Y-64983D01*
X91923Y-64841D01*
X91923Y-64686D01*
X91923Y-75973D01*
X88188Y-75973D01*
X88188Y-71410D01*
X88129Y-71267D01*
X88020Y-71158D01*
X87878Y-71099D01*
X87724Y-71099D01*
X87581Y-71158D01*
X87547Y-71192D01*
X87439Y-71147D01*
X87285Y-71147D01*
X87189Y-71187D01*
X83271Y-71187D01*
X82955Y-70870D01*
X82955Y-68600D01*
X82928Y-68466D01*
X82853Y-68353D01*
X82853Y-68353D01*
X82427Y-67927D01*
X86864Y-67927D01*
X87006Y-67986D01*
X87160Y-67986D01*
X87303Y-67927D01*
X87412Y-67818D01*
X87471Y-67676D01*
X87471Y-67522D01*
X87412Y-67379D01*
X87303Y-67270D01*
X87161Y-67211D01*
X87007Y-67211D01*
X86864Y-67270D01*
X86864Y-67270D01*
X82833Y-67270D01*
X82833Y-62148D01*
X82821Y-61963D01*
X82774Y-61849D01*
X82687Y-61831D01*
X82432Y-62086D01*
X82687Y-62341D01*
X82774Y-62324D01*
X82833Y-62148D01*
X82833Y-67270D01*
X82616Y-67270D01*
X82616Y-62411D01*
X82362Y-62157D01*
X82356Y-62162D01*
X82316Y-62123D01*
X82316Y-62050D01*
X82356Y-62010D01*
X82362Y-62015D01*
X82616Y-61761D01*
X82599Y-61674D01*
X82424Y-61614D01*
X82238Y-61627D01*
X82124Y-61674D01*
X82120Y-61696D01*
X82115Y-61691D01*
X81943Y-61620D01*
X81758Y-61619D01*
X81594Y-61687D01*
X81431Y-61620D01*
X81246Y-61619D01*
X81074Y-61690D01*
X80943Y-61821D01*
X80872Y-61993D01*
X80871Y-62179D01*
X80942Y-62350D01*
X81073Y-62481D01*
X81245Y-62553D01*
X81430Y-62553D01*
X81594Y-62485D01*
X81757Y-62553D01*
X81942Y-62553D01*
X82114Y-62482D01*
X82120Y-62476D01*
X82124Y-62498D01*
X82300Y-62558D01*
X82485Y-62546D01*
X82599Y-62498D01*
X82616Y-62411D01*
X82616Y-67270D01*
X78231Y-67270D01*
X78105Y-67295D01*
X77998Y-67366D01*
X77672Y-67692D01*
X77601Y-67799D01*
X77575Y-67925D01*
X77575Y-69836D01*
X77540Y-69851D01*
X77359Y-70032D01*
X77344Y-70068D01*
X75906Y-70068D01*
X75891Y-70033D01*
X75710Y-69851D01*
X75474Y-69753D01*
X75218Y-69753D01*
X74981Y-69851D01*
X74800Y-70032D01*
X74702Y-70268D01*
X74701Y-70524D01*
X74799Y-70761D01*
X74980Y-70942D01*
X75217Y-71040D01*
X75473Y-71040D01*
X75709Y-70943D01*
X75891Y-70762D01*
X75906Y-70725D01*
X77344Y-70725D01*
X77358Y-70761D01*
X77539Y-70942D01*
X77776Y-71040D01*
X78032Y-71040D01*
X78268Y-70943D01*
X78450Y-70762D01*
X78548Y-70525D01*
X78548Y-70269D01*
X78450Y-70033D01*
X78269Y-69851D01*
X78233Y-69836D01*
X78233Y-68061D01*
X78367Y-67927D01*
X79741Y-67927D01*
X79723Y-67946D01*
X79664Y-68088D01*
X79664Y-68242D01*
X79723Y-68385D01*
X79832Y-68494D01*
X79974Y-68553D01*
X80128Y-68553D01*
X80224Y-68514D01*
X82028Y-68514D01*
X82258Y-68744D01*
X82258Y-71014D01*
X82258Y-71015D01*
X82280Y-71126D01*
X82285Y-71148D01*
X82360Y-71261D01*
X82881Y-71781D01*
X82881Y-71781D01*
X82994Y-71857D01*
X83088Y-71876D01*
X82732Y-72232D01*
X82661Y-72339D01*
X82636Y-72465D01*
X82636Y-73078D01*
X82157Y-73557D01*
X82157Y-73207D01*
X82152Y-73114D01*
X82152Y-72017D01*
X82068Y-71814D01*
X81914Y-71659D01*
X81832Y-71626D01*
X81913Y-71592D01*
X82068Y-71437D01*
X82152Y-71235D01*
X82152Y-71017D01*
X82068Y-70814D01*
X82049Y-70795D01*
X82049Y-69744D01*
X82061Y-69685D01*
X82027Y-69514D01*
X81930Y-69369D01*
X81785Y-69272D01*
X81614Y-69238D01*
X81443Y-69272D01*
X81298Y-69369D01*
X81286Y-69380D01*
X81189Y-69525D01*
X81155Y-69696D01*
X81155Y-70794D01*
X81152Y-70798D01*
X81152Y-70776D01*
X81114Y-70684D01*
X81044Y-70614D01*
X80952Y-70576D01*
X80852Y-70575D01*
X80252Y-70575D01*
X80160Y-70613D01*
X80090Y-70684D01*
X80052Y-70776D01*
X80052Y-70875D01*
X80052Y-71475D01*
X80090Y-71567D01*
X80160Y-71637D01*
X80252Y-71675D01*
X80274Y-71675D01*
X80136Y-71814D01*
X80052Y-72016D01*
X80052Y-72234D01*
X80135Y-72437D01*
X80290Y-72591D01*
X80372Y-72625D01*
X80291Y-72659D01*
X80136Y-72814D01*
X80052Y-73016D01*
X80052Y-73234D01*
X80135Y-73437D01*
X80290Y-73591D01*
X80492Y-73675D01*
X80711Y-73676D01*
X80913Y-73592D01*
X81068Y-73437D01*
X81099Y-73362D01*
X81121Y-73413D01*
X81216Y-73441D01*
X81531Y-73125D01*
X81216Y-72810D01*
X81121Y-72838D01*
X81101Y-72893D01*
X81068Y-72814D01*
X80914Y-72659D01*
X80832Y-72626D01*
X80913Y-72592D01*
X81068Y-72437D01*
X81102Y-72356D01*
X81135Y-72437D01*
X81290Y-72591D01*
X81366Y-72623D01*
X81314Y-72644D01*
X81287Y-72740D01*
X81602Y-73055D01*
X81917Y-72740D01*
X81890Y-72644D01*
X81834Y-72624D01*
X81913Y-72592D01*
X82068Y-72437D01*
X82152Y-72235D01*
X82152Y-72017D01*
X82152Y-73114D01*
X82146Y-72989D01*
X82083Y-72838D01*
X81988Y-72810D01*
X81673Y-73125D01*
X81988Y-73441D01*
X82083Y-73413D01*
X82157Y-73207D01*
X82157Y-73557D01*
X81917Y-73797D01*
X81917Y-73511D01*
X81602Y-73196D01*
X81287Y-73511D01*
X81314Y-73607D01*
X81520Y-73680D01*
X81739Y-73669D01*
X81890Y-73607D01*
X81917Y-73511D01*
X81917Y-73797D01*
X81808Y-73906D01*
X79486Y-73906D01*
X79260Y-73680D01*
X79260Y-69412D01*
X79235Y-69286D01*
X79164Y-69179D01*
X79164Y-69179D01*
X78953Y-68968D01*
X78954Y-68858D01*
X78955Y-68856D01*
X79014Y-68714D01*
X79014Y-68560D01*
X78955Y-68417D01*
X78846Y-68308D01*
X78704Y-68249D01*
X78550Y-68249D01*
X78407Y-68308D01*
X78298Y-68417D01*
X78239Y-68559D01*
X78239Y-68713D01*
X78296Y-68853D01*
X78295Y-69101D01*
X78295Y-69102D01*
X78295Y-69104D01*
X78307Y-69165D01*
X78319Y-69227D01*
X78320Y-69228D01*
X78320Y-69229D01*
X78355Y-69282D01*
X78389Y-69334D01*
X78390Y-69335D01*
X78391Y-69336D01*
X78603Y-69548D01*
X78603Y-73817D01*
X78628Y-73942D01*
X78699Y-74049D01*
X79117Y-74467D01*
X79117Y-74467D01*
X79224Y-74538D01*
X79349Y-74563D01*
X79350Y-74563D01*
X81945Y-74563D01*
X82070Y-74538D01*
X82070Y-74538D01*
X82177Y-74467D01*
X83197Y-73447D01*
X83197Y-73447D01*
X83233Y-73394D01*
X83268Y-73340D01*
X83268Y-73340D01*
X83293Y-73215D01*
X83293Y-73215D01*
X83293Y-72601D01*
X83536Y-72358D01*
X87585Y-72358D01*
X87710Y-72333D01*
X87710Y-72333D01*
X87817Y-72262D01*
X88027Y-72052D01*
X88027Y-72052D01*
X88098Y-71945D01*
X88123Y-71820D01*
X88123Y-71820D01*
X88123Y-71712D01*
X88129Y-71706D01*
X88188Y-71564D01*
X88188Y-71410D01*
X88188Y-75973D01*
X78552Y-75973D01*
X78552Y-72272D01*
X78543Y-72017D01*
X78463Y-71824D01*
X78358Y-71785D01*
X78287Y-71856D01*
X78287Y-71715D01*
X78248Y-71610D01*
X78008Y-71520D01*
X77752Y-71530D01*
X77560Y-71610D01*
X77521Y-71715D01*
X77904Y-72098D01*
X78287Y-71715D01*
X78287Y-71856D01*
X77975Y-72168D01*
X78358Y-72551D01*
X78463Y-72513D01*
X78552Y-72272D01*
X78552Y-75973D01*
X78287Y-75973D01*
X78287Y-72622D01*
X77904Y-72239D01*
X77834Y-72310D01*
X77834Y-72168D01*
X77450Y-71785D01*
X77345Y-71824D01*
X77256Y-72064D01*
X77266Y-72320D01*
X77345Y-72513D01*
X77450Y-72551D01*
X77834Y-72168D01*
X77834Y-72310D01*
X77521Y-72622D01*
X77560Y-72727D01*
X77800Y-72816D01*
X78056Y-72807D01*
X78248Y-72727D01*
X78287Y-72622D01*
X78287Y-75973D01*
X75993Y-75973D01*
X75993Y-72272D01*
X75984Y-72017D01*
X75904Y-71824D01*
X75799Y-71785D01*
X75728Y-71856D01*
X75728Y-71715D01*
X75689Y-71610D01*
X75449Y-71520D01*
X75193Y-71530D01*
X75001Y-71610D01*
X74962Y-71715D01*
X75345Y-72098D01*
X75728Y-71715D01*
X75728Y-71856D01*
X75416Y-72168D01*
X75799Y-72551D01*
X75904Y-72513D01*
X75993Y-72272D01*
X75993Y-75973D01*
X75728Y-75973D01*
X75728Y-72622D01*
X75345Y-72239D01*
X75274Y-72310D01*
X75274Y-72168D01*
X74891Y-71785D01*
X74786Y-71824D01*
X74697Y-72064D01*
X74707Y-72320D01*
X74786Y-72513D01*
X74891Y-72551D01*
X75274Y-72168D01*
X75274Y-72310D01*
X74962Y-72622D01*
X75001Y-72727D01*
X75241Y-72816D01*
X75497Y-72807D01*
X75689Y-72727D01*
X75728Y-72622D01*
X75728Y-75973D01*
X74408Y-75973D01*
X74408Y-74913D01*
X74408Y-60773D01*
X74407Y-60282D01*
X74220Y-59829D01*
X74054Y-59718D01*
X73983Y-59789D01*
X73983Y-59648D01*
X73872Y-59481D01*
X73418Y-59294D01*
X72927Y-59294D01*
X72475Y-59481D01*
X72364Y-59648D01*
X73173Y-60457D01*
X73983Y-59648D01*
X73983Y-59789D01*
X73244Y-60528D01*
X74054Y-61337D01*
X74220Y-61227D01*
X74408Y-60773D01*
X74408Y-74913D01*
X74407Y-74422D01*
X74220Y-73969D01*
X74197Y-73954D01*
X74197Y-69184D01*
X74197Y-68297D01*
X74197Y-66900D01*
X74197Y-66014D01*
X74159Y-65922D01*
X74089Y-65852D01*
X73997Y-65814D01*
X73983Y-65814D01*
X73983Y-61408D01*
X73173Y-60599D01*
X73103Y-60669D01*
X73103Y-60528D01*
X72293Y-59718D01*
X72127Y-59829D01*
X71939Y-60283D01*
X71939Y-60774D01*
X72127Y-61227D01*
X72293Y-61337D01*
X73103Y-60528D01*
X73103Y-60669D01*
X72364Y-61408D01*
X72475Y-61575D01*
X72928Y-61762D01*
X73419Y-61762D01*
X73872Y-61575D01*
X73983Y-61408D01*
X73983Y-65814D01*
X73898Y-65813D01*
X73772Y-65813D01*
X73710Y-65876D01*
X73710Y-66407D01*
X74135Y-66407D01*
X74197Y-66345D01*
X74197Y-66014D01*
X74197Y-66900D01*
X74197Y-66570D01*
X74135Y-66507D01*
X73710Y-66507D01*
X73710Y-67038D01*
X73772Y-67101D01*
X73898Y-67101D01*
X73997Y-67101D01*
X74089Y-67063D01*
X74159Y-66992D01*
X74197Y-66900D01*
X74197Y-68297D01*
X74159Y-68206D01*
X74089Y-68135D01*
X73997Y-68097D01*
X73898Y-68097D01*
X73772Y-68097D01*
X73710Y-68159D01*
X73710Y-68691D01*
X74135Y-68691D01*
X74197Y-68628D01*
X74197Y-68297D01*
X74197Y-69184D01*
X74197Y-68853D01*
X74135Y-68791D01*
X73710Y-68791D01*
X73710Y-69322D01*
X73772Y-69384D01*
X73898Y-69384D01*
X73997Y-69384D01*
X74089Y-69346D01*
X74159Y-69276D01*
X74197Y-69184D01*
X74197Y-73954D01*
X74054Y-73858D01*
X73983Y-73929D01*
X73983Y-73788D01*
X73872Y-73621D01*
X73610Y-73513D01*
X73610Y-69322D01*
X73610Y-68791D01*
X73602Y-68791D01*
X73602Y-68691D01*
X73610Y-68691D01*
X73610Y-68159D01*
X73610Y-67038D01*
X73610Y-66507D01*
X73602Y-66507D01*
X73602Y-66407D01*
X73610Y-66407D01*
X73610Y-65876D01*
X73547Y-65813D01*
X73422Y-65813D01*
X73323Y-65814D01*
X73231Y-65852D01*
X73160Y-65922D01*
X73122Y-66014D01*
X73122Y-66020D01*
X72766Y-66020D01*
X72704Y-66083D01*
X72704Y-66476D01*
X72712Y-66476D01*
X72712Y-66576D01*
X72704Y-66576D01*
X72704Y-66969D01*
X72766Y-67032D01*
X73200Y-67032D01*
X73231Y-67063D01*
X73323Y-67101D01*
X73422Y-67101D01*
X73547Y-67101D01*
X73610Y-67038D01*
X73610Y-68159D01*
X73547Y-68097D01*
X73422Y-68097D01*
X73323Y-68097D01*
X73231Y-68135D01*
X73200Y-68166D01*
X72766Y-68166D01*
X72704Y-68228D01*
X72704Y-68622D01*
X72712Y-68622D01*
X72712Y-68722D01*
X72704Y-68722D01*
X72704Y-69115D01*
X72766Y-69178D01*
X73122Y-69178D01*
X73122Y-69184D01*
X73160Y-69276D01*
X73231Y-69346D01*
X73323Y-69384D01*
X73422Y-69384D01*
X73547Y-69384D01*
X73610Y-69322D01*
X73610Y-73513D01*
X73418Y-73434D01*
X72927Y-73434D01*
X72475Y-73621D01*
X72364Y-73788D01*
X73173Y-74597D01*
X73983Y-73788D01*
X73983Y-73929D01*
X73244Y-74668D01*
X74054Y-75477D01*
X74220Y-75367D01*
X74408Y-74913D01*
X74408Y-75973D01*
X73983Y-75973D01*
X73983Y-75548D01*
X73173Y-74739D01*
X73103Y-74809D01*
X73103Y-74668D01*
X72293Y-73858D01*
X72127Y-73969D01*
X71939Y-74423D01*
X71939Y-74914D01*
X72127Y-75367D01*
X72293Y-75477D01*
X73103Y-74668D01*
X73103Y-74809D01*
X72364Y-75548D01*
X72475Y-75715D01*
X72928Y-75902D01*
X73419Y-75902D01*
X73872Y-75715D01*
X73983Y-75548D01*
X73983Y-75973D01*
X73197Y-75973D01*
X72677Y-75869D01*
X72253Y-75586D01*
X71973Y-75167D01*
X71868Y-74641D01*
X71868Y-69115D01*
X71892Y-69139D01*
X71984Y-69178D01*
X72083Y-69178D01*
X72541Y-69178D01*
X72604Y-69115D01*
X72604Y-68722D01*
X72596Y-68722D01*
X72596Y-68622D01*
X72604Y-68622D01*
X72604Y-68228D01*
X72541Y-68166D01*
X72083Y-68166D01*
X71984Y-68166D01*
X71892Y-68204D01*
X71868Y-68228D01*
X71868Y-66970D01*
X71892Y-66994D01*
X71984Y-67032D01*
X72083Y-67032D01*
X72541Y-67032D01*
X72604Y-66969D01*
X72604Y-66576D01*
X72596Y-66576D01*
X72596Y-66476D01*
X72604Y-66476D01*
X72604Y-66083D01*
X72541Y-66020D01*
X72083Y-66020D01*
X71984Y-66020D01*
X71892Y-66058D01*
X71868Y-66083D01*
X71868Y-60555D01*
X71973Y-60029D01*
X72253Y-59609D01*
X72677Y-59327D01*
X73197Y-59223D01*
X106957Y-59223D01*
X107482Y-59328D01*
X107902Y-59608D01*
X108185Y-60032D01*
X108289Y-60552D01*
X108289Y-63093D01*
X108218Y-63066D01*
X108218Y-60773D01*
X108217Y-60282D01*
X108030Y-59829D01*
X107864Y-59718D01*
X107793Y-59789D01*
X107793Y-59648D01*
X107682Y-59481D01*
X107228Y-59294D01*
X106737Y-59294D01*
X106285Y-59481D01*
X106174Y-59648D01*
X106983Y-60457D01*
X107793Y-59648D01*
X107793Y-59789D01*
X107054Y-60528D01*
X107864Y-61337D01*
X108030Y-61227D01*
X108218Y-60773D01*
X108218Y-63066D01*
X108127Y-63032D01*
X107855Y-63041D01*
X107793Y-63066D01*
X107793Y-61408D01*
X106983Y-60599D01*
X106913Y-60669D01*
X106913Y-60528D01*
X106103Y-59718D01*
X105937Y-59829D01*
X105749Y-60283D01*
X105749Y-60774D01*
X105937Y-61227D01*
X106103Y-61337D01*
X106913Y-60528D01*
X106913Y-60669D01*
X106174Y-61408D01*
X106285Y-61575D01*
X106738Y-61762D01*
X107229Y-61762D01*
X107682Y-61575D01*
X107793Y-61408D01*
X107793Y-63066D01*
X107645Y-63128D01*
X107601Y-63237D01*
X108013Y-63648D01*
X108019Y-63643D01*
X108089Y-63713D01*
X108084Y-63719D01*
X108089Y-63725D01*
X108019Y-63795D01*
X108013Y-63790D01*
X107942Y-63860D01*
X107942Y-63719D01*
X107531Y-63308D01*
X107422Y-63351D01*
X107326Y-63605D01*
X107335Y-63877D01*
X107422Y-64087D01*
X107531Y-64131D01*
X107942Y-63719D01*
X107942Y-63860D01*
X107601Y-64201D01*
X107645Y-64310D01*
X107899Y-64406D01*
X108171Y-64397D01*
X108289Y-64349D01*
X108289Y-64472D01*
X108149Y-64414D01*
X107878Y-64414D01*
X107627Y-64518D01*
X107434Y-64710D01*
X107410Y-64768D01*
X105944Y-64768D01*
X105944Y-63833D01*
X105935Y-63561D01*
X105848Y-63351D01*
X105739Y-63308D01*
X105669Y-63378D01*
X105669Y-63237D01*
X105625Y-63128D01*
X105371Y-63032D01*
X105099Y-63041D01*
X104889Y-63128D01*
X104846Y-63237D01*
X105257Y-63648D01*
X105669Y-63237D01*
X105669Y-63378D01*
X105328Y-63719D01*
X105739Y-64131D01*
X105848Y-64087D01*
X105944Y-63833D01*
X105944Y-64768D01*
X105860Y-64768D01*
X105837Y-64711D01*
X105669Y-64542D01*
X105669Y-64201D01*
X105257Y-63790D01*
X105186Y-63860D01*
X105186Y-63719D01*
X104775Y-63308D01*
X104666Y-63351D01*
X104570Y-63605D01*
X104579Y-63877D01*
X104666Y-64087D01*
X104775Y-64131D01*
X105186Y-63719D01*
X105186Y-63860D01*
X104846Y-64201D01*
X104889Y-64310D01*
X105144Y-64406D01*
X105415Y-64397D01*
X105625Y-64310D01*
X105669Y-64201D01*
X105669Y-64542D01*
X105645Y-64518D01*
X105394Y-64414D01*
X105122Y-64414D01*
X104871Y-64518D01*
X104678Y-64710D01*
X104646Y-64788D01*
X104625Y-64788D01*
X104489Y-64651D01*
X104489Y-64220D01*
X104489Y-64219D01*
X104489Y-64219D01*
X104484Y-64196D01*
X104465Y-64101D01*
X104465Y-64101D01*
X104398Y-64001D01*
X104398Y-64001D01*
X103998Y-63601D01*
X103898Y-63534D01*
X103780Y-63510D01*
X98560Y-63510D01*
X98559Y-63510D01*
X98536Y-63515D01*
X98441Y-63534D01*
X98341Y-63601D01*
X98341Y-63601D01*
X97844Y-64098D01*
X97777Y-64198D01*
X97753Y-64317D01*
X97753Y-65217D01*
X97734Y-65237D01*
X97715Y-65281D01*
X97715Y-64820D01*
X97656Y-64677D01*
X97547Y-64568D01*
X97405Y-64509D01*
X97251Y-64509D01*
X97108Y-64568D01*
X97088Y-64587D01*
X96749Y-64587D01*
X96699Y-64537D01*
X96699Y-63651D01*
X96675Y-63532D01*
X96675Y-63532D01*
X96608Y-63432D01*
X96608Y-63432D01*
X96447Y-63271D01*
X96347Y-63204D01*
X96229Y-63180D01*
X95520Y-63180D01*
X95515Y-63180D01*
X87430Y-63180D01*
X87311Y-63204D01*
X87211Y-63271D01*
X86651Y-63831D01*
X86584Y-63931D01*
X86560Y-64050D01*
X86560Y-64670D01*
X86422Y-64809D01*
X86324Y-64768D01*
X86170Y-64768D01*
X86027Y-64827D01*
X85918Y-64936D01*
X85859Y-65078D01*
X85859Y-65232D01*
X85918Y-65375D01*
X86027Y-65484D01*
X86169Y-65543D01*
X86323Y-65543D01*
X86466Y-65484D01*
X86486Y-65465D01*
X86513Y-65465D01*
X86631Y-65441D01*
X86631Y-65441D01*
X86731Y-65374D01*
X87088Y-65017D01*
X87088Y-65017D01*
X87088Y-65017D01*
X87155Y-64917D01*
X87155Y-64917D01*
X87179Y-64799D01*
X87179Y-64178D01*
X87558Y-63799D01*
X95515Y-63799D01*
X95520Y-63799D01*
X96080Y-63799D01*
X96080Y-64666D01*
X96104Y-64784D01*
X96171Y-64884D01*
X96402Y-65115D01*
X96402Y-65115D01*
X96502Y-65182D01*
X96502Y-65182D01*
X96621Y-65206D01*
X97088Y-65206D01*
X97108Y-65225D01*
X97250Y-65284D01*
X97404Y-65284D01*
X97547Y-65225D01*
X97656Y-65116D01*
X97715Y-64974D01*
X97715Y-64820D01*
X97715Y-65281D01*
X97675Y-65379D01*
X97675Y-65533D01*
X97734Y-65676D01*
X97827Y-65769D01*
X96032Y-65769D01*
X95899Y-65636D01*
X95699Y-65553D01*
X95482Y-65553D01*
X95282Y-65635D01*
X95128Y-65789D01*
X95045Y-65989D01*
X95045Y-66206D01*
X95128Y-66406D01*
X95281Y-66560D01*
X95372Y-66598D01*
X95282Y-66635D01*
X95128Y-66789D01*
X95045Y-66989D01*
X95045Y-67206D01*
X95128Y-67406D01*
X95281Y-67560D01*
X95366Y-67595D01*
X95305Y-67621D01*
X95278Y-67715D01*
X95590Y-68027D01*
X95596Y-68022D01*
X95666Y-68092D01*
X95661Y-68098D01*
X95973Y-68410D01*
X96067Y-68383D01*
X96140Y-68179D01*
X96129Y-67962D01*
X96124Y-67950D01*
X96136Y-67953D01*
X97127Y-67953D01*
X97155Y-67981D01*
X97298Y-68040D01*
X97452Y-68040D01*
X97594Y-67981D01*
X97704Y-67872D01*
X97763Y-67730D01*
X97763Y-67576D01*
X97704Y-67433D01*
X97595Y-67324D01*
X97452Y-67265D01*
X97298Y-67265D01*
X97156Y-67324D01*
X97145Y-67334D01*
X96264Y-67334D01*
X96135Y-67206D01*
X96135Y-66990D01*
X96053Y-66789D01*
X95899Y-66636D01*
X95808Y-66598D01*
X95899Y-66560D01*
X96033Y-66427D01*
X98743Y-66427D01*
X99342Y-67026D01*
X99342Y-67026D01*
X99449Y-67097D01*
X99574Y-67122D01*
X99575Y-67122D01*
X103075Y-67122D01*
X103200Y-67097D01*
X103200Y-67097D01*
X103307Y-67026D01*
X103367Y-66966D01*
X103438Y-66859D01*
X103438Y-66859D01*
X103463Y-66734D01*
X103463Y-66488D01*
X103476Y-66482D01*
X103647Y-66312D01*
X103739Y-66090D01*
X103739Y-65850D01*
X103647Y-65628D01*
X103477Y-65457D01*
X103469Y-65454D01*
X103489Y-65395D01*
X103135Y-65040D01*
X102780Y-65395D01*
X102800Y-65454D01*
X102793Y-65457D01*
X102634Y-65615D01*
X102489Y-65469D01*
X102647Y-65312D01*
X102650Y-65304D01*
X102709Y-65324D01*
X103064Y-64970D01*
X102709Y-64615D01*
X102650Y-64635D01*
X102647Y-64628D01*
X102477Y-64457D01*
X102255Y-64365D01*
X102015Y-64365D01*
X101793Y-64457D01*
X101634Y-64615D01*
X101477Y-64457D01*
X101255Y-64365D01*
X101015Y-64365D01*
X100793Y-64457D01*
X100634Y-64615D01*
X100477Y-64457D01*
X100255Y-64365D01*
X100015Y-64365D01*
X99793Y-64457D01*
X99622Y-64627D01*
X99530Y-64849D01*
X99530Y-65089D01*
X99622Y-65311D01*
X99780Y-65470D01*
X99622Y-65627D01*
X99530Y-65849D01*
X99530Y-66089D01*
X99622Y-66311D01*
X99775Y-66465D01*
X99711Y-66465D01*
X99111Y-65865D01*
X99005Y-65794D01*
X98879Y-65769D01*
X98298Y-65769D01*
X98391Y-65676D01*
X98450Y-65534D01*
X98450Y-65380D01*
X98391Y-65237D01*
X98372Y-65217D01*
X98372Y-64445D01*
X98688Y-64129D01*
X103651Y-64129D01*
X103870Y-64348D01*
X103870Y-64780D01*
X103894Y-64898D01*
X103961Y-64998D01*
X104278Y-65316D01*
X104278Y-65316D01*
X104379Y-65383D01*
X104379Y-65383D01*
X104497Y-65406D01*
X104646Y-65406D01*
X104678Y-65483D01*
X104870Y-65676D01*
X105121Y-65780D01*
X105392Y-65780D01*
X105644Y-65676D01*
X105836Y-65484D01*
X105860Y-65426D01*
X107410Y-65426D01*
X107434Y-65483D01*
X107626Y-65676D01*
X107877Y-65780D01*
X108148Y-65780D01*
X108289Y-65722D01*
X108289Y-68102D01*
X108123Y-68039D01*
X107851Y-68048D01*
X107642Y-68135D01*
X107598Y-68244D01*
X108010Y-68656D01*
X108015Y-68650D01*
X108086Y-68721D01*
X108080Y-68727D01*
X108086Y-68732D01*
X108015Y-68803D01*
X108010Y-68797D01*
X107939Y-68868D01*
X107939Y-68727D01*
X107527Y-68315D01*
X107418Y-68359D01*
X107322Y-68613D01*
X107331Y-68885D01*
X107418Y-69094D01*
X107527Y-69138D01*
X107939Y-68727D01*
X107939Y-68868D01*
X107598Y-69209D01*
X107642Y-69318D01*
X107896Y-69414D01*
X108168Y-69405D01*
X108289Y-69355D01*
X108289Y-69481D01*
X108146Y-69422D01*
X107874Y-69421D01*
X107623Y-69525D01*
X107431Y-69717D01*
X107327Y-69968D01*
X107326Y-70240D01*
X107430Y-70491D01*
X107622Y-70683D01*
X107873Y-70787D01*
X108145Y-70788D01*
X108289Y-70728D01*
X108289Y-70859D01*
X108146Y-70800D01*
X107874Y-70799D01*
X107623Y-70903D01*
X107431Y-71095D01*
X107327Y-71346D01*
X107326Y-71618D01*
X107430Y-71869D01*
X107622Y-72061D01*
X107873Y-72165D01*
X108145Y-72166D01*
X108289Y-72106D01*
X108289Y-74644D01*
X108289Y-74644D01*
G37*
G54D27*
X108289Y-74644D02*
X108218Y-74999D01*
X108218Y-74913D01*
X108217Y-74422D01*
X108030Y-73969D01*
X107864Y-73858D01*
X107793Y-73929D01*
X107793Y-73788D01*
X107682Y-73621D01*
X107228Y-73434D01*
X106737Y-73434D01*
X106285Y-73621D01*
X106174Y-73788D01*
X106983Y-74597D01*
X107793Y-73788D01*
X107793Y-73929D01*
X107054Y-74668D01*
X107864Y-75477D01*
X108030Y-75367D01*
X108218Y-74913D01*
X108218Y-74999D01*
X108185Y-75164D01*
X107902Y-75588D01*
X107793Y-75661D01*
X107793Y-75548D01*
X106983Y-74739D01*
X106913Y-74809D01*
X106913Y-74668D01*
X106103Y-73858D01*
X105941Y-73966D01*
X105941Y-68840D01*
X105932Y-68568D01*
X105845Y-68359D01*
X105736Y-68315D01*
X105665Y-68386D01*
X105665Y-68244D01*
X105621Y-68135D01*
X105367Y-68039D01*
X105096Y-68048D01*
X104886Y-68135D01*
X104842Y-68244D01*
X105254Y-68656D01*
X105665Y-68244D01*
X105665Y-68386D01*
X105324Y-68727D01*
X105736Y-69138D01*
X105845Y-69094D01*
X105941Y-68840D01*
X105941Y-73966D01*
X105937Y-73969D01*
X105937Y-71347D01*
X105937Y-69969D01*
X105833Y-69718D01*
X105665Y-69550D01*
X105665Y-69209D01*
X105254Y-68797D01*
X105183Y-68868D01*
X105183Y-68727D01*
X104771Y-68315D01*
X104662Y-68359D01*
X104566Y-68613D01*
X104575Y-68885D01*
X104662Y-69094D01*
X104771Y-69138D01*
X105183Y-68727D01*
X105183Y-68868D01*
X104842Y-69209D01*
X104886Y-69318D01*
X105140Y-69414D01*
X105412Y-69405D01*
X105621Y-69318D01*
X105665Y-69209D01*
X105665Y-69550D01*
X105641Y-69526D01*
X105390Y-69422D01*
X105118Y-69421D01*
X104867Y-69525D01*
X104675Y-69717D01*
X104571Y-69968D01*
X104570Y-70240D01*
X104674Y-70491D01*
X104866Y-70683D01*
X105117Y-70787D01*
X105389Y-70788D01*
X105640Y-70684D01*
X105832Y-70492D01*
X105937Y-70241D01*
X105937Y-69969D01*
X105937Y-71347D01*
X105833Y-71096D01*
X105641Y-70904D01*
X105390Y-70800D01*
X105118Y-70799D01*
X104867Y-70903D01*
X104675Y-71095D01*
X104571Y-71346D01*
X104570Y-71618D01*
X104674Y-71869D01*
X104866Y-72061D01*
X105117Y-72165D01*
X105389Y-72166D01*
X105640Y-72062D01*
X105832Y-71870D01*
X105937Y-71619D01*
X105937Y-71347D01*
X105937Y-73969D01*
X105937Y-73969D01*
X105749Y-74423D01*
X105749Y-74914D01*
X105937Y-75367D01*
X106103Y-75477D01*
X106913Y-74668D01*
X106913Y-74809D01*
X106174Y-75548D01*
X106285Y-75715D01*
X106738Y-75902D01*
X107229Y-75902D01*
X107682Y-75715D01*
X107793Y-75548D01*
X107793Y-75661D01*
X107482Y-75868D01*
X106957Y-75973D01*
X104930Y-75973D01*
X104930Y-72909D01*
X104924Y-72909D01*
X104924Y-72869D01*
X104238Y-72869D01*
X104240Y-71835D01*
X104240Y-71783D01*
X103743Y-71783D01*
X103743Y-65064D01*
X103733Y-64824D01*
X103661Y-64649D01*
X103560Y-64615D01*
X103489Y-64686D01*
X103489Y-64544D01*
X103455Y-64443D01*
X103229Y-64361D01*
X102989Y-64371D01*
X102814Y-64443D01*
X102780Y-64544D01*
X103135Y-64899D01*
X103489Y-64544D01*
X103489Y-64686D01*
X103205Y-64970D01*
X103560Y-65324D01*
X103661Y-65290D01*
X103743Y-65064D01*
X103743Y-71783D01*
X96140Y-71784D01*
X96140Y-69179D01*
X96129Y-68962D01*
X96067Y-68813D01*
X95973Y-68786D01*
X95902Y-68857D01*
X95902Y-68715D01*
X95875Y-68621D01*
X95816Y-68600D01*
X95875Y-68575D01*
X95902Y-68480D01*
X95590Y-68169D01*
X95519Y-68239D01*
X95519Y-68098D01*
X95208Y-67786D01*
X95113Y-67813D01*
X95040Y-68017D01*
X95051Y-68234D01*
X95113Y-68383D01*
X95208Y-68410D01*
X95519Y-68098D01*
X95519Y-68239D01*
X95278Y-68480D01*
X95305Y-68575D01*
X95364Y-68596D01*
X95305Y-68621D01*
X95278Y-68715D01*
X95590Y-69027D01*
X95902Y-68715D01*
X95902Y-68857D01*
X95661Y-69098D01*
X95973Y-69410D01*
X96067Y-69383D01*
X96140Y-69179D01*
X96140Y-71784D01*
X95902Y-71784D01*
X95902Y-69480D01*
X95590Y-69169D01*
X95519Y-69239D01*
X95519Y-69098D01*
X95208Y-68786D01*
X95113Y-68813D01*
X95040Y-69017D01*
X95051Y-69234D01*
X95113Y-69383D01*
X95208Y-69410D01*
X95519Y-69098D01*
X95519Y-69239D01*
X95278Y-69480D01*
X95305Y-69575D01*
X95509Y-69648D01*
X95726Y-69637D01*
X95875Y-69575D01*
X95902Y-69480D01*
X95902Y-71784D01*
X95650Y-71785D01*
X95647Y-75973D01*
X91923Y-75973D01*
X91923Y-64686D01*
X91864Y-64544D01*
X91755Y-64435D01*
X91612Y-64376D01*
X91458Y-64375D01*
X91338Y-64425D01*
X91219Y-64376D01*
X91064Y-64375D01*
X90922Y-64434D01*
X90813Y-64543D01*
X90754Y-64686D01*
X90753Y-64840D01*
X90812Y-64983D01*
X90832Y-65003D01*
X90832Y-65029D01*
X90663Y-65198D01*
X90663Y-65003D01*
X90682Y-64983D01*
X90742Y-64841D01*
X90742Y-64686D01*
X90683Y-64544D01*
X90574Y-64435D01*
X90431Y-64376D01*
X90277Y-64375D01*
X90134Y-64434D01*
X90025Y-64543D01*
X89966Y-64686D01*
X89966Y-64840D01*
X90025Y-64983D01*
X90045Y-65003D01*
X90045Y-65423D01*
X86997Y-68470D01*
X84488Y-68470D01*
X84369Y-68493D01*
X84269Y-68560D01*
X84112Y-68718D01*
X84045Y-68818D01*
X84021Y-68937D01*
X84021Y-69606D01*
X84045Y-69724D01*
X84112Y-69824D01*
X84293Y-70006D01*
X84316Y-70061D01*
X84425Y-70171D01*
X84568Y-70230D01*
X84722Y-70230D01*
X84865Y-70171D01*
X84974Y-70062D01*
X85033Y-69919D01*
X85033Y-69797D01*
X87204Y-69797D01*
X87322Y-69773D01*
X87322Y-69773D01*
X87423Y-69706D01*
X91753Y-65376D01*
X91820Y-65275D01*
X91820Y-65275D01*
X91844Y-65157D01*
X91844Y-65003D01*
X91863Y-64983D01*
X91923Y-64841D01*
X91923Y-64686D01*
X91923Y-75973D01*
X88188Y-75973D01*
X88188Y-71410D01*
X88129Y-71267D01*
X88020Y-71158D01*
X87878Y-71099D01*
X87724Y-71099D01*
X87581Y-71158D01*
X87547Y-71192D01*
X87439Y-71147D01*
X87285Y-71147D01*
X87189Y-71187D01*
X83271Y-71187D01*
X82955Y-70870D01*
X82955Y-68600D01*
X82928Y-68466D01*
X82853Y-68353D01*
X82853Y-68353D01*
X82427Y-67927D01*
X86864Y-67927D01*
X87006Y-67986D01*
X87160Y-67986D01*
X87303Y-67927D01*
X87412Y-67818D01*
X87471Y-67676D01*
X87471Y-67522D01*
X87412Y-67379D01*
X87303Y-67270D01*
X87161Y-67211D01*
X87007Y-67211D01*
X86864Y-67270D01*
X86864Y-67270D01*
X82833Y-67270D01*
X82833Y-62148D01*
X82821Y-61963D01*
X82774Y-61849D01*
X82687Y-61831D01*
X82432Y-62086D01*
X82687Y-62341D01*
X82774Y-62324D01*
X82833Y-62148D01*
X82833Y-67270D01*
X82616Y-67270D01*
X82616Y-62411D01*
X82362Y-62157D01*
X82356Y-62162D01*
X82316Y-62123D01*
X82316Y-62050D01*
X82356Y-62010D01*
X82362Y-62015D01*
X82616Y-61761D01*
X82599Y-61674D01*
X82424Y-61614D01*
X82238Y-61627D01*
X82124Y-61674D01*
X82120Y-61696D01*
X82115Y-61691D01*
X81943Y-61620D01*
X81758Y-61619D01*
X81594Y-61687D01*
X81431Y-61620D01*
X81246Y-61619D01*
X81074Y-61690D01*
X80943Y-61821D01*
X80872Y-61993D01*
X80871Y-62179D01*
X80942Y-62350D01*
X81073Y-62481D01*
X81245Y-62553D01*
X81430Y-62553D01*
X81594Y-62485D01*
X81757Y-62553D01*
X81942Y-62553D01*
X82114Y-62482D01*
X82120Y-62476D01*
X82124Y-62498D01*
X82300Y-62558D01*
X82485Y-62546D01*
X82599Y-62498D01*
X82616Y-62411D01*
X82616Y-67270D01*
X78231Y-67270D01*
X78105Y-67295D01*
X77998Y-67366D01*
X77672Y-67692D01*
X77601Y-67799D01*
X77575Y-67925D01*
X77575Y-69836D01*
X77540Y-69851D01*
X77359Y-70032D01*
X77344Y-70068D01*
X75906Y-70068D01*
X75891Y-70033D01*
X75710Y-69851D01*
X75474Y-69753D01*
X75218Y-69753D01*
X74981Y-69851D01*
X74800Y-70032D01*
X74702Y-70268D01*
X74701Y-70524D01*
X74799Y-70761D01*
X74980Y-70942D01*
X75217Y-71040D01*
X75473Y-71040D01*
X75709Y-70943D01*
X75891Y-70762D01*
X75906Y-70725D01*
X77344Y-70725D01*
X77358Y-70761D01*
X77539Y-70942D01*
X77776Y-71040D01*
X78032Y-71040D01*
X78268Y-70943D01*
X78450Y-70762D01*
X78548Y-70525D01*
X78548Y-70269D01*
X78450Y-70033D01*
X78269Y-69851D01*
X78233Y-69836D01*
X78233Y-68061D01*
X78367Y-67927D01*
X79741Y-67927D01*
X79723Y-67946D01*
X79664Y-68088D01*
X79664Y-68242D01*
X79723Y-68385D01*
X79832Y-68494D01*
X79974Y-68553D01*
X80128Y-68553D01*
X80224Y-68514D01*
X82028Y-68514D01*
X82258Y-68744D01*
X82258Y-71014D01*
X82258Y-71015D01*
X82280Y-71126D01*
X82285Y-71148D01*
X82360Y-71261D01*
X82881Y-71781D01*
X82881Y-71781D01*
X82994Y-71857D01*
X83088Y-71876D01*
X82732Y-72232D01*
X82661Y-72339D01*
X82636Y-72465D01*
X82636Y-73078D01*
X82157Y-73557D01*
X82157Y-73207D01*
X82152Y-73114D01*
X82152Y-72017D01*
X82068Y-71814D01*
X81914Y-71659D01*
X81832Y-71626D01*
X81913Y-71592D01*
X82068Y-71437D01*
X82152Y-71235D01*
X82152Y-71017D01*
X82068Y-70814D01*
X82049Y-70795D01*
X82049Y-69744D01*
X82061Y-69685D01*
X82027Y-69514D01*
X81930Y-69369D01*
X81785Y-69272D01*
X81614Y-69238D01*
X81443Y-69272D01*
X81298Y-69369D01*
X81286Y-69380D01*
X81189Y-69525D01*
X81155Y-69696D01*
X81155Y-70794D01*
X81152Y-70798D01*
X81152Y-70776D01*
X81114Y-70684D01*
X81044Y-70614D01*
X80952Y-70576D01*
X80852Y-70575D01*
X80252Y-70575D01*
X80160Y-70613D01*
X80090Y-70684D01*
X80052Y-70776D01*
X80052Y-70875D01*
X80052Y-71475D01*
X80090Y-71567D01*
X80160Y-71637D01*
X80252Y-71675D01*
X80274Y-71675D01*
X80136Y-71814D01*
X80052Y-72016D01*
X80052Y-72234D01*
X80135Y-72437D01*
X80290Y-72591D01*
X80372Y-72625D01*
X80291Y-72659D01*
X80136Y-72814D01*
X80052Y-73016D01*
X80052Y-73234D01*
X80135Y-73437D01*
X80290Y-73591D01*
X80492Y-73675D01*
X80711Y-73676D01*
X80913Y-73592D01*
X81068Y-73437D01*
X81099Y-73362D01*
X81121Y-73413D01*
X81216Y-73441D01*
X81531Y-73125D01*
X81216Y-72810D01*
X81121Y-72838D01*
X81101Y-72893D01*
X81068Y-72814D01*
X80914Y-72659D01*
X80832Y-72626D01*
X80913Y-72592D01*
X81068Y-72437D01*
X81102Y-72356D01*
X81135Y-72437D01*
X81290Y-72591D01*
X81366Y-72623D01*
X81314Y-72644D01*
X81287Y-72740D01*
X81602Y-73055D01*
X81917Y-72740D01*
X81890Y-72644D01*
X81834Y-72624D01*
X81913Y-72592D01*
X82068Y-72437D01*
X82152Y-72235D01*
X82152Y-72017D01*
X82152Y-73114D01*
X82146Y-72989D01*
X82083Y-72838D01*
X81988Y-72810D01*
X81673Y-73125D01*
X81988Y-73441D01*
X82083Y-73413D01*
X82157Y-73207D01*
X82157Y-73557D01*
X81917Y-73797D01*
X81917Y-73511D01*
X81602Y-73196D01*
X81287Y-73511D01*
X81314Y-73607D01*
X81520Y-73680D01*
X81739Y-73669D01*
X81890Y-73607D01*
X81917Y-73511D01*
X81917Y-73797D01*
X81808Y-73906D01*
X79486Y-73906D01*
X79260Y-73680D01*
X79260Y-69412D01*
X79235Y-69286D01*
X79164Y-69179D01*
X79164Y-69179D01*
X78953Y-68968D01*
X78954Y-68858D01*
X78955Y-68856D01*
X79014Y-68714D01*
X79014Y-68560D01*
X78955Y-68417D01*
X78846Y-68308D01*
X78704Y-68249D01*
X78550Y-68249D01*
X78407Y-68308D01*
X78298Y-68417D01*
X78239Y-68559D01*
X78239Y-68713D01*
X78296Y-68853D01*
X78295Y-69101D01*
X78295Y-69102D01*
X78295Y-69104D01*
X78307Y-69165D01*
X78319Y-69227D01*
X78320Y-69228D01*
X78320Y-69229D01*
X78355Y-69282D01*
X78389Y-69334D01*
X78390Y-69335D01*
X78391Y-69336D01*
X78603Y-69548D01*
X78603Y-73817D01*
X78628Y-73942D01*
X78699Y-74049D01*
X79117Y-74467D01*
X79117Y-74467D01*
X79224Y-74538D01*
X79349Y-74563D01*
X79350Y-74563D01*
X81945Y-74563D01*
X82070Y-74538D01*
X82070Y-74538D01*
X82177Y-74467D01*
X83197Y-73447D01*
X83197Y-73447D01*
X83233Y-73394D01*
X83268Y-73340D01*
X83268Y-73340D01*
X83293Y-73215D01*
X83293Y-73215D01*
X83293Y-72601D01*
X83536Y-72358D01*
X87585Y-72358D01*
X87710Y-72333D01*
X87710Y-72333D01*
X87817Y-72262D01*
X88027Y-72052D01*
X88027Y-72052D01*
X88098Y-71945D01*
X88123Y-71820D01*
X88123Y-71820D01*
X88123Y-71712D01*
X88129Y-71706D01*
X88188Y-71564D01*
X88188Y-71410D01*
X88188Y-75973D01*
X78552Y-75973D01*
X78552Y-72272D01*
X78543Y-72017D01*
X78463Y-71824D01*
X78358Y-71785D01*
X78287Y-71856D01*
X78287Y-71715D01*
X78248Y-71610D01*
X78008Y-71520D01*
X77752Y-71530D01*
X77560Y-71610D01*
X77521Y-71715D01*
X77904Y-72098D01*
X78287Y-71715D01*
X78287Y-71856D01*
X77975Y-72168D01*
X78358Y-72551D01*
X78463Y-72513D01*
X78552Y-72272D01*
X78552Y-75973D01*
X78287Y-75973D01*
X78287Y-72622D01*
X77904Y-72239D01*
X77834Y-72310D01*
X77834Y-72168D01*
X77450Y-71785D01*
X77345Y-71824D01*
X77256Y-72064D01*
X77266Y-72320D01*
X77345Y-72513D01*
X77450Y-72551D01*
X77834Y-72168D01*
X77834Y-72310D01*
X77521Y-72622D01*
X77560Y-72727D01*
X77800Y-72816D01*
X78056Y-72807D01*
X78248Y-72727D01*
X78287Y-72622D01*
X78287Y-75973D01*
X75993Y-75973D01*
X75993Y-72272D01*
X75984Y-72017D01*
X75904Y-71824D01*
X75799Y-71785D01*
X75728Y-71856D01*
X75728Y-71715D01*
X75689Y-71610D01*
X75449Y-71520D01*
X75193Y-71530D01*
X75001Y-71610D01*
X74962Y-71715D01*
X75345Y-72098D01*
X75728Y-71715D01*
X75728Y-71856D01*
X75416Y-72168D01*
X75799Y-72551D01*
X75904Y-72513D01*
X75993Y-72272D01*
X75993Y-75973D01*
X75728Y-75973D01*
X75728Y-72622D01*
X75345Y-72239D01*
X75274Y-72310D01*
X75274Y-72168D01*
X74891Y-71785D01*
X74786Y-71824D01*
X74697Y-72064D01*
X74707Y-72320D01*
X74786Y-72513D01*
X74891Y-72551D01*
X75274Y-72168D01*
X75274Y-72310D01*
X74962Y-72622D01*
X75001Y-72727D01*
X75241Y-72816D01*
X75497Y-72807D01*
X75689Y-72727D01*
X75728Y-72622D01*
X75728Y-75973D01*
X74408Y-75973D01*
X74408Y-74913D01*
X74408Y-60773D01*
X74407Y-60282D01*
X74220Y-59829D01*
X74054Y-59718D01*
X73983Y-59789D01*
X73983Y-59648D01*
X73872Y-59481D01*
X73418Y-59294D01*
X72927Y-59294D01*
X72475Y-59481D01*
X72364Y-59648D01*
X73173Y-60457D01*
X73983Y-59648D01*
X73983Y-59789D01*
X73244Y-60528D01*
X74054Y-61337D01*
X74220Y-61227D01*
X74408Y-60773D01*
X74408Y-74913D01*
X74407Y-74422D01*
X74220Y-73969D01*
X74197Y-73954D01*
X74197Y-69184D01*
X74197Y-68297D01*
X74197Y-66900D01*
X74197Y-66014D01*
X74159Y-65922D01*
X74089Y-65852D01*
X73997Y-65814D01*
X73983Y-65814D01*
X73983Y-61408D01*
X73173Y-60599D01*
X73103Y-60669D01*
X73103Y-60528D01*
X72293Y-59718D01*
X72127Y-59829D01*
X71939Y-60283D01*
X71939Y-60774D01*
X72127Y-61227D01*
X72293Y-61337D01*
X73103Y-60528D01*
X73103Y-60669D01*
X72364Y-61408D01*
X72475Y-61575D01*
X72928Y-61762D01*
X73419Y-61762D01*
X73872Y-61575D01*
X73983Y-61408D01*
X73983Y-65814D01*
X73898Y-65813D01*
X73772Y-65813D01*
X73710Y-65876D01*
X73710Y-66407D01*
X74135Y-66407D01*
X74197Y-66345D01*
X74197Y-66014D01*
X74197Y-66900D01*
X74197Y-66570D01*
X74135Y-66507D01*
X73710Y-66507D01*
X73710Y-67038D01*
X73772Y-67101D01*
X73898Y-67101D01*
X73997Y-67101D01*
X74089Y-67063D01*
X74159Y-66992D01*
X74197Y-66900D01*
X74197Y-68297D01*
X74159Y-68206D01*
X74089Y-68135D01*
X73997Y-68097D01*
X73898Y-68097D01*
X73772Y-68097D01*
X73710Y-68159D01*
X73710Y-68691D01*
X74135Y-68691D01*
X74197Y-68628D01*
X74197Y-68297D01*
X74197Y-69184D01*
X74197Y-68853D01*
X74135Y-68791D01*
X73710Y-68791D01*
X73710Y-69322D01*
X73772Y-69384D01*
X73898Y-69384D01*
X73997Y-69384D01*
X74089Y-69346D01*
X74159Y-69276D01*
X74197Y-69184D01*
X74197Y-73954D01*
X74054Y-73858D01*
X73983Y-73929D01*
X73983Y-73788D01*
X73872Y-73621D01*
X73610Y-73513D01*
X73610Y-69322D01*
X73610Y-68791D01*
X73602Y-68791D01*
X73602Y-68691D01*
X73610Y-68691D01*
X73610Y-68159D01*
X73610Y-67038D01*
X73610Y-66507D01*
X73602Y-66507D01*
X73602Y-66407D01*
X73610Y-66407D01*
X73610Y-65876D01*
X73547Y-65813D01*
X73422Y-65813D01*
X73323Y-65814D01*
X73231Y-65852D01*
X73160Y-65922D01*
X73122Y-66014D01*
X73122Y-66020D01*
X72766Y-66020D01*
X72704Y-66083D01*
X72704Y-66476D01*
X72712Y-66476D01*
X72712Y-66576D01*
X72704Y-66576D01*
X72704Y-66969D01*
X72766Y-67032D01*
X73200Y-67032D01*
X73231Y-67063D01*
X73323Y-67101D01*
X73422Y-67101D01*
X73547Y-67101D01*
X73610Y-67038D01*
X73610Y-68159D01*
X73547Y-68097D01*
X73422Y-68097D01*
X73323Y-68097D01*
X73231Y-68135D01*
X73200Y-68166D01*
X72766Y-68166D01*
X72704Y-68228D01*
X72704Y-68622D01*
X72712Y-68622D01*
X72712Y-68722D01*
X72704Y-68722D01*
X72704Y-69115D01*
X72766Y-69178D01*
X73122Y-69178D01*
X73122Y-69184D01*
X73160Y-69276D01*
X73231Y-69346D01*
X73323Y-69384D01*
X73422Y-69384D01*
X73547Y-69384D01*
X73610Y-69322D01*
X73610Y-73513D01*
X73418Y-73434D01*
X72927Y-73434D01*
X72475Y-73621D01*
X72364Y-73788D01*
X73173Y-74597D01*
X73983Y-73788D01*
X73983Y-73929D01*
X73244Y-74668D01*
X74054Y-75477D01*
X74220Y-75367D01*
X74408Y-74913D01*
X74408Y-75973D01*
X73983Y-75973D01*
X73983Y-75548D01*
X73173Y-74739D01*
X73103Y-74809D01*
X73103Y-74668D01*
X72293Y-73858D01*
X72127Y-73969D01*
X71939Y-74423D01*
X71939Y-74914D01*
X72127Y-75367D01*
X72293Y-75477D01*
X73103Y-74668D01*
X73103Y-74809D01*
X72364Y-75548D01*
X72475Y-75715D01*
X72928Y-75902D01*
X73419Y-75902D01*
X73872Y-75715D01*
X73983Y-75548D01*
X73983Y-75973D01*
X73197Y-75973D01*
X72677Y-75869D01*
X72253Y-75586D01*
X71973Y-75167D01*
X71868Y-74641D01*
X71868Y-69115D01*
X71892Y-69139D01*
X71984Y-69178D01*
X72083Y-69178D01*
X72541Y-69178D01*
X72604Y-69115D01*
X72604Y-68722D01*
X72596Y-68722D01*
X72596Y-68622D01*
X72604Y-68622D01*
X72604Y-68228D01*
X72541Y-68166D01*
X72083Y-68166D01*
X71984Y-68166D01*
X71892Y-68204D01*
X71868Y-68228D01*
X71868Y-66970D01*
X71892Y-66994D01*
X71984Y-67032D01*
X72083Y-67032D01*
X72541Y-67032D01*
X72604Y-66969D01*
X72604Y-66576D01*
X72596Y-66576D01*
X72596Y-66476D01*
X72604Y-66476D01*
X72604Y-66083D01*
X72541Y-66020D01*
X72083Y-66020D01*
X71984Y-66020D01*
X71892Y-66058D01*
X71868Y-66083D01*
X71868Y-60555D01*
X71973Y-60029D01*
X72253Y-59609D01*
X72677Y-59327D01*
X73197Y-59223D01*
X106957Y-59223D01*
X107482Y-59328D01*
X107902Y-59608D01*
X108185Y-60032D01*
X108289Y-60552D01*
X108289Y-63093D01*
X108218Y-63066D01*
X108218Y-60773D01*
X108217Y-60282D01*
X108030Y-59829D01*
X107864Y-59718D01*
X107793Y-59789D01*
X107793Y-59648D01*
X107682Y-59481D01*
X107228Y-59294D01*
X106737Y-59294D01*
X106285Y-59481D01*
X106174Y-59648D01*
X106983Y-60457D01*
X107793Y-59648D01*
X107793Y-59789D01*
X107054Y-60528D01*
X107864Y-61337D01*
X108030Y-61227D01*
X108218Y-60773D01*
X108218Y-63066D01*
X108127Y-63032D01*
X107855Y-63041D01*
X107793Y-63066D01*
X107793Y-61408D01*
X106983Y-60599D01*
X106913Y-60669D01*
X106913Y-60528D01*
X106103Y-59718D01*
X105937Y-59829D01*
X105749Y-60283D01*
X105749Y-60774D01*
X105937Y-61227D01*
X106103Y-61337D01*
X106913Y-60528D01*
X106913Y-60669D01*
X106174Y-61408D01*
X106285Y-61575D01*
X106738Y-61762D01*
X107229Y-61762D01*
X107682Y-61575D01*
X107793Y-61408D01*
X107793Y-63066D01*
X107645Y-63128D01*
X107601Y-63237D01*
X108013Y-63648D01*
X108019Y-63643D01*
X108089Y-63713D01*
X108084Y-63719D01*
X108089Y-63725D01*
X108019Y-63795D01*
X108013Y-63790D01*
X107942Y-63860D01*
X107942Y-63719D01*
X107531Y-63308D01*
X107422Y-63351D01*
X107326Y-63605D01*
X107335Y-63877D01*
X107422Y-64087D01*
X107531Y-64131D01*
X107942Y-63719D01*
X107942Y-63860D01*
X107601Y-64201D01*
X107645Y-64310D01*
X107899Y-64406D01*
X108171Y-64397D01*
X108289Y-64349D01*
X108289Y-64472D01*
X108149Y-64414D01*
X107878Y-64414D01*
X107627Y-64518D01*
X107434Y-64710D01*
X107410Y-64768D01*
X105944Y-64768D01*
X105944Y-63833D01*
X105935Y-63561D01*
X105848Y-63351D01*
X105739Y-63308D01*
X105669Y-63378D01*
X105669Y-63237D01*
X105625Y-63128D01*
X105371Y-63032D01*
X105099Y-63041D01*
X104889Y-63128D01*
X104846Y-63237D01*
X105257Y-63648D01*
X105669Y-63237D01*
X105669Y-63378D01*
X105328Y-63719D01*
X105739Y-64131D01*
X105848Y-64087D01*
X105944Y-63833D01*
X105944Y-64768D01*
X105860Y-64768D01*
X105837Y-64711D01*
X105669Y-64542D01*
X105669Y-64201D01*
X105257Y-63790D01*
X105186Y-63860D01*
X105186Y-63719D01*
X104775Y-63308D01*
X104666Y-63351D01*
X104570Y-63605D01*
X104579Y-63877D01*
X104666Y-64087D01*
X104775Y-64131D01*
X105186Y-63719D01*
X105186Y-63860D01*
X104846Y-64201D01*
X104889Y-64310D01*
X105144Y-64406D01*
X105415Y-64397D01*
X105625Y-64310D01*
X105669Y-64201D01*
X105669Y-64542D01*
X105645Y-64518D01*
X105394Y-64414D01*
X105122Y-64414D01*
X104871Y-64518D01*
X104678Y-64710D01*
X104646Y-64788D01*
X104625Y-64788D01*
X104489Y-64651D01*
X104489Y-64220D01*
X104489Y-64219D01*
X104489Y-64219D01*
X104484Y-64196D01*
X104465Y-64101D01*
X104465Y-64101D01*
X104398Y-64001D01*
X104398Y-64001D01*
X103998Y-63601D01*
X103898Y-63534D01*
X103780Y-63510D01*
X98560Y-63510D01*
X98559Y-63510D01*
X98536Y-63515D01*
X98441Y-63534D01*
X98341Y-63601D01*
X98341Y-63601D01*
X97844Y-64098D01*
X97777Y-64198D01*
X97753Y-64317D01*
X97753Y-65217D01*
X97734Y-65237D01*
X97715Y-65281D01*
X97715Y-64820D01*
X97656Y-64677D01*
X97547Y-64568D01*
X97405Y-64509D01*
X97251Y-64509D01*
X97108Y-64568D01*
X97088Y-64587D01*
X96749Y-64587D01*
X96699Y-64537D01*
X96699Y-63651D01*
X96675Y-63532D01*
X96675Y-63532D01*
X96608Y-63432D01*
X96608Y-63432D01*
X96447Y-63271D01*
X96347Y-63204D01*
X96229Y-63180D01*
X95520Y-63180D01*
X95515Y-63180D01*
X87430Y-63180D01*
X87311Y-63204D01*
X87211Y-63271D01*
X86651Y-63831D01*
X86584Y-63931D01*
X86560Y-64050D01*
X86560Y-64670D01*
X86422Y-64809D01*
X86324Y-64768D01*
X86170Y-64768D01*
X86027Y-64827D01*
X85918Y-64936D01*
X85859Y-65078D01*
X85859Y-65232D01*
X85918Y-65375D01*
X86027Y-65484D01*
X86169Y-65543D01*
X86323Y-65543D01*
X86466Y-65484D01*
X86486Y-65465D01*
X86513Y-65465D01*
X86631Y-65441D01*
X86631Y-65441D01*
X86731Y-65374D01*
X87088Y-65017D01*
X87088Y-65017D01*
X87088Y-65017D01*
X87155Y-64917D01*
X87155Y-64917D01*
X87179Y-64799D01*
X87179Y-64178D01*
X87558Y-63799D01*
X95515Y-63799D01*
X95520Y-63799D01*
X96080Y-63799D01*
X96080Y-64666D01*
X96104Y-64784D01*
X96171Y-64884D01*
X96402Y-65115D01*
X96402Y-65115D01*
X96502Y-65182D01*
X96502Y-65182D01*
X96621Y-65206D01*
X97088Y-65206D01*
X97108Y-65225D01*
X97250Y-65284D01*
X97404Y-65284D01*
X97547Y-65225D01*
X97656Y-65116D01*
X97715Y-64974D01*
X97715Y-64820D01*
X97715Y-65281D01*
X97675Y-65379D01*
X97675Y-65533D01*
X97734Y-65676D01*
X97827Y-65769D01*
X96032Y-65769D01*
X95899Y-65636D01*
X95699Y-65553D01*
X95482Y-65553D01*
X95282Y-65635D01*
X95128Y-65789D01*
X95045Y-65989D01*
X95045Y-66206D01*
X95128Y-66406D01*
X95281Y-66560D01*
X95372Y-66598D01*
X95282Y-66635D01*
X95128Y-66789D01*
X95045Y-66989D01*
X95045Y-67206D01*
X95128Y-67406D01*
X95281Y-67560D01*
X95366Y-67595D01*
X95305Y-67621D01*
X95278Y-67715D01*
X95590Y-68027D01*
X95596Y-68022D01*
X95666Y-68092D01*
X95661Y-68098D01*
X95973Y-68410D01*
X96067Y-68383D01*
X96140Y-68179D01*
X96129Y-67962D01*
X96124Y-67950D01*
X96136Y-67953D01*
X97127Y-67953D01*
X97155Y-67981D01*
X97298Y-68040D01*
X97452Y-68040D01*
X97594Y-67981D01*
X97704Y-67872D01*
X97763Y-67730D01*
X97763Y-67576D01*
X97704Y-67433D01*
X97595Y-67324D01*
X97452Y-67265D01*
X97298Y-67265D01*
X97156Y-67324D01*
X97145Y-67334D01*
X96264Y-67334D01*
X96135Y-67206D01*
X96135Y-66990D01*
X96053Y-66789D01*
X95899Y-66636D01*
X95808Y-66598D01*
X95899Y-66560D01*
X96033Y-66427D01*
X98743Y-66427D01*
X99342Y-67026D01*
X99342Y-67026D01*
X99449Y-67097D01*
X99574Y-67122D01*
X99575Y-67122D01*
X103075Y-67122D01*
X103200Y-67097D01*
X103200Y-67097D01*
X103307Y-67026D01*
X103367Y-66966D01*
X103438Y-66859D01*
X103438Y-66859D01*
X103463Y-66734D01*
X103463Y-66488D01*
X103476Y-66482D01*
X103647Y-66312D01*
X103739Y-66090D01*
X103739Y-65850D01*
X103647Y-65628D01*
X103477Y-65457D01*
X103469Y-65454D01*
X103489Y-65395D01*
X103135Y-65040D01*
X102780Y-65395D01*
X102800Y-65454D01*
X102793Y-65457D01*
X102634Y-65615D01*
X102489Y-65469D01*
X102647Y-65312D01*
X102650Y-65304D01*
X102709Y-65324D01*
X103064Y-64970D01*
X102709Y-64615D01*
X102650Y-64635D01*
X102647Y-64628D01*
X102477Y-64457D01*
X102255Y-64365D01*
X102015Y-64365D01*
X101793Y-64457D01*
X101634Y-64615D01*
X101477Y-64457D01*
X101255Y-64365D01*
X101015Y-64365D01*
X100793Y-64457D01*
X100634Y-64615D01*
X100477Y-64457D01*
X100255Y-64365D01*
X100015Y-64365D01*
X99793Y-64457D01*
X99622Y-64627D01*
X99530Y-64849D01*
X99530Y-65089D01*
X99622Y-65311D01*
X99780Y-65470D01*
X99622Y-65627D01*
X99530Y-65849D01*
X99530Y-66089D01*
X99622Y-66311D01*
X99775Y-66465D01*
X99711Y-66465D01*
X99111Y-65865D01*
X99005Y-65794D01*
X98879Y-65769D01*
X98298Y-65769D01*
X98391Y-65676D01*
X98450Y-65534D01*
X98450Y-65380D01*
X98391Y-65237D01*
X98372Y-65217D01*
X98372Y-64445D01*
X98688Y-64129D01*
X103651Y-64129D01*
X103870Y-64348D01*
X103870Y-64780D01*
X103894Y-64898D01*
X103961Y-64998D01*
X104278Y-65316D01*
X104278Y-65316D01*
X104379Y-65383D01*
X104379Y-65383D01*
X104497Y-65406D01*
X104646Y-65406D01*
X104678Y-65483D01*
X104870Y-65676D01*
X105121Y-65780D01*
X105392Y-65780D01*
X105644Y-65676D01*
X105836Y-65484D01*
X105860Y-65426D01*
X107410Y-65426D01*
X107434Y-65483D01*
X107626Y-65676D01*
X107877Y-65780D01*
X108148Y-65780D01*
X108289Y-65722D01*
X108289Y-68102D01*
X108123Y-68039D01*
X107851Y-68048D01*
X107642Y-68135D01*
X107598Y-68244D01*
X108010Y-68656D01*
X108015Y-68650D01*
X108086Y-68721D01*
X108080Y-68727D01*
X108086Y-68732D01*
X108015Y-68803D01*
X108010Y-68797D01*
X107939Y-68868D01*
X107939Y-68727D01*
X107527Y-68315D01*
X107418Y-68359D01*
X107322Y-68613D01*
X107331Y-68885D01*
X107418Y-69094D01*
X107527Y-69138D01*
X107939Y-68727D01*
X107939Y-68868D01*
X107598Y-69209D01*
X107642Y-69318D01*
X107896Y-69414D01*
X108168Y-69405D01*
X108289Y-69355D01*
X108289Y-69481D01*
X108146Y-69422D01*
X107874Y-69421D01*
X107623Y-69525D01*
X107431Y-69717D01*
X107327Y-69968D01*
X107326Y-70240D01*
X107430Y-70491D01*
X107622Y-70683D01*
X107873Y-70787D01*
X108145Y-70788D01*
X108289Y-70728D01*
X108289Y-70859D01*
X108146Y-70800D01*
X107874Y-70799D01*
X107623Y-70903D01*
X107431Y-71095D01*
X107327Y-71346D01*
X107326Y-71618D01*
X107430Y-71869D01*
X107622Y-72061D01*
X107873Y-72165D01*
X108145Y-72166D01*
X108289Y-72106D01*
X108289Y-74644D01*
M02*
