M48
;DRILL file {Pcbnew (2013-07-07 BZR 4022)-stable} date 26/08/2014 17:02:17
;FORMAT={-:-/ absolute / metric / decimal}
FMAT,2
METRIC,TZ
T1C0.300
T2C0.700
T3C0.750
T4C0.800
T5C1.000
T6C1.016
T7C1.200
T8C2.700
%
G90
G05
M71
T1
X192.253Y-171.653
X199.713Y-174.338
X203.332Y-173.142
X206.2Y-174.2
X206.3Y-166.
X207.3Y-177.
X210.4Y-159.1
X210.4Y-164.4
X211.4Y-172.7
X212.7Y-163.2
X214.2Y-163.2
X215.Y-175.5
X215.Y-176.5
X215.Y-177.4
X215.2Y-169.1
X215.7Y-163.2
X216.9Y-177.9
X219.067Y-165.496
X221.1Y-187.5
X221.193Y-171.701
X221.2Y-169.3
X221.9Y-181.7
X222.4Y-163.2
X223.015Y-181.577
X225.4Y-177.7
X227.Y-179.2
X229.5Y-164.5
X230.8Y-169.4
X231.1Y-172.
X231.5Y-164.5
X232.5Y-164.5
X242.35Y-163.2
X247.213Y-164.838
X247.334Y-171.839
X249.08Y-166.261
X249.9Y-160.3
X250.8Y-170.
T2
X206.6Y-157.7
X207.9Y-157.7
X209.2Y-157.7
T3
X242.8Y-167.89
X242.8Y-170.43
X242.8Y-172.97
X242.8Y-175.51
T5
X191.378Y-178.809
X191.378Y-183.309
X197.878Y-178.809
X197.878Y-183.309
X254.343Y-165.024
X254.343Y-167.564
X256.883Y-165.024
X256.883Y-167.564
X259.423Y-165.024
X259.423Y-167.564
X261.963Y-165.024
X261.963Y-167.564
T6
X204.73Y-180.66
X204.73Y-183.2
X204.73Y-185.74
X207.27Y-180.66
X207.27Y-183.2
X207.27Y-185.74
T7
X267.345Y-174.567
X267.345Y-178.067
X267.345Y-181.567
X267.354Y-161.848
X267.354Y-165.348
X274.345Y-174.567
X274.345Y-178.067
X274.345Y-181.567
X274.354Y-161.848
X274.354Y-165.348
T8
X185.861Y-153.742
X185.861Y-189.658
X271.739Y-153.742
X271.739Y-189.658
T3
X187.247Y-169.278G85X186.947Y-169.278
G05
X186.947Y-174.128G85X187.247Y-174.128
G05
T4
X184.317Y-168.978G85X183.817Y-168.978
G05
X184.317Y-174.428G85X183.817Y-174.428
G05
T0
M30
