G04 #@! TF.FileFunction,Soldermask,Top*
%FSLAX46Y46*%
G04 Gerber Fmt 4.6, Leading zero omitted, Abs format (unit mm)*
G04 Created by KiCad (PCBNEW (2015-01-16 BZR 5376)-product) date 22/05/2015 17:40:37*
%MOMM*%
G01*
G04 APERTURE LIST*
%ADD10C,0.150000*%
%ADD11C,0.100000*%
G04 APERTURE END LIST*
D10*
D11*
X79767400Y39916100D02*
X-6110000Y39916100D01*
X83767900Y35915600D02*
G75*
G03X79767400Y39916100I-4000500J0D01*
G01*
X83767900Y0D02*
X83767900Y35915600D01*
X79767400Y-4000500D02*
G75*
G03X83767900Y0I0J4000500D01*
G01*
X-6110000Y-4000500D02*
X79767400Y-4000500D01*
X-10110500Y0D02*
G75*
G03X-6110000Y-4000500I4000500J0D01*
G01*
X-10110500Y35915600D02*
X-10110500Y0D01*
X-6110000Y39916100D02*
G75*
G03X-10110500Y35915600I0J-4000500D01*
G01*
D10*
G36*
X-7053962Y18105278D02*
X-9753962Y18105278D01*
X-9753962Y19730278D01*
X-7053962Y19730278D01*
X-7053962Y18105278D01*
X-7053962Y18105278D01*
G37*
G36*
X-7053962Y16180278D02*
X-9753962Y16180278D01*
X-9753962Y17805278D01*
X-7053962Y17805278D01*
X-7053962Y16180278D01*
X-7053962Y16180278D01*
G37*
G36*
X-4103962Y16355278D02*
X-6053962Y16355278D01*
X-6053962Y16955278D01*
X-6053962Y17005278D01*
X-6053962Y17605278D01*
X-6053962Y17655278D01*
X-6053962Y18255278D01*
X-6053962Y18305278D01*
X-6053962Y18905278D01*
X-6053962Y18955278D01*
X-6053962Y19555278D01*
X-4103962Y19555278D01*
X-4103962Y18955278D01*
X-4103962Y18905278D01*
X-4103962Y18305278D01*
X-4103962Y18255278D01*
X-4103962Y17655278D01*
X-4103962Y17605278D01*
X-4103962Y17005278D01*
X-4103962Y16955278D01*
X-4103962Y16355278D01*
X-4103962Y16355278D01*
G37*
G36*
X-4043962Y19755278D02*
X-5703962Y19755278D01*
X-5703962Y19880278D01*
X-5707903Y19899735D01*
X-5719106Y19916125D01*
X-5735803Y19926864D01*
X-5753962Y19930278D01*
X-9103962Y19930278D01*
X-9103962Y21430278D01*
X-5753962Y21430278D01*
X-5734505Y21434219D01*
X-5718115Y21445422D01*
X-5707376Y21462119D01*
X-5703962Y21480278D01*
X-5703962Y21955278D01*
X-4043962Y21955278D01*
X-4043962Y19755278D01*
X-4043962Y19755278D01*
G37*
G36*
X-4043962Y13955278D02*
X-5703962Y13955278D01*
X-5703962Y14430278D01*
X-5707903Y14449735D01*
X-5719106Y14466125D01*
X-5735803Y14476864D01*
X-5753962Y14480278D01*
X-9103962Y14480278D01*
X-9103962Y15980278D01*
X-5753962Y15980278D01*
X-5734505Y15984219D01*
X-5718115Y15995422D01*
X-5707376Y16012119D01*
X-5703962Y16030278D01*
X-5703962Y16155278D01*
X-4043962Y16155278D01*
X-4043962Y13955278D01*
X-4043962Y13955278D01*
G37*
G36*
X-3509889Y36170543D02*
X-3518021Y35588157D01*
X-3518097Y35587824D01*
X-3518097Y35587811D01*
X-3630982Y35090943D01*
X-3838373Y34625137D01*
X-4132287Y34208486D01*
X-4501537Y33856855D01*
X-4932044Y33583647D01*
X-5407425Y33399258D01*
X-5909563Y33310718D01*
X-6419338Y33321396D01*
X-6917336Y33430888D01*
X-7384573Y33635019D01*
X-7803266Y33926018D01*
X-8157465Y34292802D01*
X-8433672Y34721392D01*
X-8621375Y35195473D01*
X-8713420Y35696988D01*
X-8706300Y36206823D01*
X-8600290Y36705564D01*
X-8399423Y37174221D01*
X-8111354Y37594935D01*
X-7747052Y37951686D01*
X-7320399Y38230880D01*
X-6847640Y38421887D01*
X-6346788Y38517430D01*
X-5836911Y38513870D01*
X-5337437Y38411342D01*
X-4867394Y38213755D01*
X-4444678Y37928630D01*
X-4085393Y37566827D01*
X-3803226Y37142132D01*
X-3608925Y36670721D01*
X-3509955Y36170887D01*
X-3509956Y36170878D01*
X-3509889Y36170543D01*
X-3509889Y36170543D01*
G37*
G36*
X-3509889Y254943D02*
X-3518021Y-327443D01*
X-3518097Y-327776D01*
X-3518097Y-327789D01*
X-3630982Y-824657D01*
X-3838373Y-1290463D01*
X-4132287Y-1707114D01*
X-4501537Y-2058745D01*
X-4932044Y-2331953D01*
X-5407425Y-2516342D01*
X-5909563Y-2604882D01*
X-6419338Y-2594204D01*
X-6917336Y-2484712D01*
X-7384573Y-2280581D01*
X-7803266Y-1989582D01*
X-8157465Y-1622798D01*
X-8433672Y-1194208D01*
X-8621375Y-720127D01*
X-8713420Y-218612D01*
X-8706300Y291223D01*
X-8600290Y789964D01*
X-8399423Y1258621D01*
X-8111354Y1679335D01*
X-7747052Y2036086D01*
X-7320399Y2315280D01*
X-6847640Y2506287D01*
X-6346788Y2601830D01*
X-5836911Y2598270D01*
X-5337437Y2495742D01*
X-4867394Y2298155D01*
X-4444678Y2013030D01*
X-4085393Y1651227D01*
X-3803226Y1226532D01*
X-3608925Y755121D01*
X-3509955Y255287D01*
X-3509956Y255278D01*
X-3509889Y254943D01*
X-3509889Y254943D01*
G37*
G36*
X506773Y10956859D02*
X503332Y10710464D01*
X503256Y10710131D01*
X503256Y10710118D01*
X455543Y10500105D01*
X367800Y10303033D01*
X243452Y10126758D01*
X87228Y9977988D01*
X-94907Y9862402D01*
X-296031Y9784390D01*
X-508472Y9746932D01*
X-724146Y9751449D01*
X-934840Y9797773D01*
X-1132518Y9884137D01*
X-1309656Y10007251D01*
X-1459511Y10162431D01*
X-1576367Y10343754D01*
X-1655779Y10544327D01*
X-1694722Y10756510D01*
X-1691709Y10972209D01*
X-1646860Y11183212D01*
X-1561876Y11381492D01*
X-1440001Y11559486D01*
X-1285873Y11710421D01*
X-1105366Y11828541D01*
X-905353Y11909352D01*
X-693456Y11949773D01*
X-477737Y11948267D01*
X-266419Y11904889D01*
X-67557Y11821295D01*
X111285Y11700665D01*
X263294Y11547591D01*
X382668Y11367917D01*
X464874Y11168474D01*
X506707Y10957202D01*
X506706Y10957193D01*
X506773Y10956859D01*
X506773Y10956859D01*
G37*
G36*
X506773Y6456859D02*
X503332Y6210464D01*
X503256Y6210131D01*
X503256Y6210118D01*
X455543Y6000105D01*
X367800Y5803033D01*
X243452Y5626758D01*
X87228Y5477988D01*
X-94907Y5362402D01*
X-296031Y5284390D01*
X-508472Y5246932D01*
X-724146Y5251449D01*
X-934840Y5297773D01*
X-1132518Y5384137D01*
X-1309656Y5507251D01*
X-1459511Y5662431D01*
X-1576367Y5843754D01*
X-1655779Y6044327D01*
X-1694722Y6256510D01*
X-1691709Y6472209D01*
X-1646860Y6683212D01*
X-1561876Y6881492D01*
X-1440001Y7059486D01*
X-1285873Y7210421D01*
X-1105366Y7328541D01*
X-905353Y7409352D01*
X-693456Y7449773D01*
X-477737Y7448267D01*
X-266419Y7404889D01*
X-67557Y7321295D01*
X111285Y7200665D01*
X263294Y7047591D01*
X382668Y6867917D01*
X464874Y6668474D01*
X506707Y6457202D01*
X506706Y6457193D01*
X506773Y6456859D01*
X506773Y6456859D01*
G37*
G36*
X1000043Y36013655D02*
X996916Y35789660D01*
X996839Y35789322D01*
X996839Y35789314D01*
X953471Y35598425D01*
X873705Y35419267D01*
X760661Y35259017D01*
X618639Y35123772D01*
X453061Y35018694D01*
X270221Y34947773D01*
X77093Y34913721D01*
X-118975Y34917827D01*
X-310515Y34959940D01*
X-490221Y35038453D01*
X-651258Y35150375D01*
X-787489Y35291447D01*
X-893721Y35456287D01*
X-965915Y35638626D01*
X-1001318Y35831520D01*
X-998579Y36027610D01*
X-957806Y36219432D01*
X-880549Y36399686D01*
X-769753Y36561499D01*
X-629636Y36698713D01*
X-465539Y36806095D01*
X-283708Y36879559D01*
X-91075Y36916306D01*
X105034Y36914936D01*
X297141Y36875502D01*
X477925Y36799507D01*
X640509Y36689844D01*
X778697Y36550687D01*
X887223Y36387344D01*
X961954Y36206033D01*
X999978Y36013999D01*
X999977Y36013985D01*
X1000043Y36013655D01*
X1000043Y36013655D01*
G37*
G36*
X1000043Y98055D02*
X996916Y-125940D01*
X996839Y-126278D01*
X996839Y-126286D01*
X953471Y-317175D01*
X873705Y-496333D01*
X760661Y-656583D01*
X618639Y-791828D01*
X453061Y-896906D01*
X270221Y-967827D01*
X77093Y-1001879D01*
X-118975Y-997773D01*
X-310515Y-955660D01*
X-490221Y-877147D01*
X-651258Y-765225D01*
X-787489Y-624153D01*
X-893721Y-459313D01*
X-965915Y-276974D01*
X-1001318Y-84080D01*
X-998579Y112010D01*
X-957806Y303832D01*
X-880549Y484086D01*
X-769753Y645899D01*
X-629636Y783113D01*
X-465539Y890495D01*
X-283708Y963959D01*
X-91075Y1000706D01*
X105034Y999336D01*
X297141Y959902D01*
X477925Y883907D01*
X640509Y774244D01*
X778697Y635087D01*
X887223Y471744D01*
X961954Y290433D01*
X999978Y98399D01*
X999977Y98385D01*
X1000043Y98055D01*
X1000043Y98055D01*
G37*
G36*
X2456726Y17107628D02*
X1406726Y17107628D01*
X1406726Y17957628D01*
X1406726Y18807628D01*
X2456726Y18807628D01*
X2456726Y17957628D01*
X2456726Y17107628D01*
X2456726Y17107628D01*
G37*
G36*
X3906726Y17107628D02*
X2856726Y17107628D01*
X2856726Y17957628D01*
X2856726Y18807628D01*
X3906726Y18807628D01*
X3906726Y17957628D01*
X3906726Y17107628D01*
X3906726Y17107628D01*
G37*
G36*
X7006773Y10956859D02*
X7003332Y10710464D01*
X7003256Y10710131D01*
X7003256Y10710118D01*
X6955543Y10500105D01*
X6867800Y10303033D01*
X6743452Y10126758D01*
X6587228Y9977988D01*
X6405093Y9862402D01*
X6203969Y9784390D01*
X5991528Y9746932D01*
X5775854Y9751449D01*
X5565160Y9797773D01*
X5367482Y9884137D01*
X5190344Y10007251D01*
X5040489Y10162431D01*
X4923633Y10343754D01*
X4844221Y10544327D01*
X4805278Y10756510D01*
X4808291Y10972209D01*
X4853140Y11183212D01*
X4938124Y11381492D01*
X5059999Y11559486D01*
X5214127Y11710421D01*
X5394634Y11828541D01*
X5594647Y11909352D01*
X5806544Y11949773D01*
X6022263Y11948267D01*
X6233581Y11904889D01*
X6432443Y11821295D01*
X6611285Y11700665D01*
X6763294Y11547591D01*
X6882668Y11367917D01*
X6964874Y11168474D01*
X7006707Y10957202D01*
X7006706Y10957193D01*
X7006773Y10956859D01*
X7006773Y10956859D01*
G37*
G36*
X7006773Y6456859D02*
X7003332Y6210464D01*
X7003256Y6210131D01*
X7003256Y6210118D01*
X6955543Y6000105D01*
X6867800Y5803033D01*
X6743452Y5626758D01*
X6587228Y5477988D01*
X6405093Y5362402D01*
X6203969Y5284390D01*
X5991528Y5246932D01*
X5775854Y5251449D01*
X5565160Y5297773D01*
X5367482Y5384137D01*
X5190344Y5507251D01*
X5040489Y5662431D01*
X4923633Y5843754D01*
X4844221Y6044327D01*
X4805278Y6256510D01*
X4808291Y6472209D01*
X4853140Y6683212D01*
X4938124Y6881492D01*
X5059999Y7059486D01*
X5214127Y7210421D01*
X5394634Y7328541D01*
X5594647Y7409352D01*
X5806544Y7449773D01*
X6022263Y7448267D01*
X6233581Y7404889D01*
X6432443Y7321295D01*
X6611285Y7200665D01*
X6763294Y7047591D01*
X6882668Y6867917D01*
X6964874Y6668474D01*
X7006707Y6457202D01*
X7006706Y6457193D01*
X7006773Y6456859D01*
X7006773Y6456859D01*
G37*
G36*
X8262938Y17589658D02*
X6919938Y17589658D01*
X6919938Y18424658D01*
X8262938Y18424658D01*
X8262938Y17589658D01*
X8262938Y17589658D01*
G37*
G36*
X8262938Y16065658D02*
X6919938Y16065658D01*
X6919938Y16900658D01*
X8262938Y16900658D01*
X8262938Y16065658D01*
X8262938Y16065658D01*
G37*
G36*
X10094278Y17625218D02*
X8751278Y17625218D01*
X8751278Y18460218D01*
X10094278Y18460218D01*
X10094278Y17625218D01*
X10094278Y17625218D01*
G37*
G36*
X10094278Y16101218D02*
X8751278Y16101218D01*
X8751278Y16936218D01*
X10094278Y16936218D01*
X10094278Y16101218D01*
X10094278Y16101218D01*
G37*
G36*
X13620718Y8135818D02*
X11896718Y8135818D01*
X11896718Y9859818D01*
X13620718Y9859818D01*
X13620718Y8135818D01*
X13620718Y8135818D01*
G37*
G36*
X13620755Y6542341D02*
X13618059Y6349258D01*
X13617983Y6348925D01*
X13617983Y6348913D01*
X13580609Y6184412D01*
X13511851Y6029979D01*
X13414408Y5891844D01*
X13291984Y5775262D01*
X13149257Y5684684D01*
X12991649Y5623551D01*
X12825172Y5594198D01*
X12656162Y5597737D01*
X12491054Y5634039D01*
X12336149Y5701715D01*
X12197331Y5798196D01*
X12079902Y5919798D01*
X11988330Y6061890D01*
X11926099Y6219066D01*
X11895582Y6385342D01*
X11897943Y6554371D01*
X11933089Y6719721D01*
X11999685Y6875100D01*
X12095191Y7014583D01*
X12215972Y7132861D01*
X12357423Y7225424D01*
X12514162Y7288751D01*
X12680211Y7320426D01*
X12849257Y7319246D01*
X13014854Y7285254D01*
X13170689Y7219746D01*
X13310837Y7125216D01*
X13429955Y7005263D01*
X13523506Y6864459D01*
X13587921Y6708173D01*
X13620689Y6542685D01*
X13620688Y6542676D01*
X13620755Y6542341D01*
X13620755Y6542341D01*
G37*
G36*
X13620755Y4002341D02*
X13618059Y3809258D01*
X13617983Y3808925D01*
X13617983Y3808913D01*
X13580609Y3644412D01*
X13511851Y3489979D01*
X13414408Y3351844D01*
X13291984Y3235262D01*
X13149257Y3144684D01*
X12991649Y3083551D01*
X12825172Y3054198D01*
X12656162Y3057737D01*
X12491054Y3094039D01*
X12336149Y3161715D01*
X12197331Y3258196D01*
X12079902Y3379798D01*
X11988330Y3521890D01*
X11926099Y3679066D01*
X11895582Y3845342D01*
X11897943Y4014371D01*
X11933089Y4179721D01*
X11999685Y4335100D01*
X12095191Y4474583D01*
X12215972Y4592861D01*
X12357423Y4685424D01*
X12514162Y4748751D01*
X12680211Y4780426D01*
X12849257Y4779246D01*
X13014854Y4745254D01*
X13170689Y4679746D01*
X13310837Y4585216D01*
X13429955Y4465263D01*
X13523506Y4324459D01*
X13587921Y4168173D01*
X13620689Y4002685D01*
X13620688Y4002676D01*
X13620755Y4002341D01*
X13620755Y4002341D01*
G37*
G36*
X14784218Y24186318D02*
X13949218Y24186318D01*
X13949218Y25529318D01*
X14784218Y25529318D01*
X14784218Y24186318D01*
X14784218Y24186318D01*
G37*
G36*
X15000218Y22402318D02*
X13657218Y22402318D01*
X13657218Y23237318D01*
X15000218Y23237318D01*
X15000218Y22402318D01*
X15000218Y22402318D01*
G37*
G36*
X15000218Y20878318D02*
X13657218Y20878318D01*
X13657218Y21713318D01*
X15000218Y21713318D01*
X15000218Y20878318D01*
X15000218Y20878318D01*
G37*
G36*
X15484218Y19386318D02*
X14649218Y19386318D01*
X14649218Y20729318D01*
X15484218Y20729318D01*
X15484218Y19386318D01*
X15484218Y19386318D01*
G37*
G36*
X15484218Y17886318D02*
X14649218Y17886318D01*
X14649218Y19229318D01*
X15484218Y19229318D01*
X15484218Y17886318D01*
X15484218Y17886318D01*
G37*
G36*
X15484218Y16286318D02*
X14649218Y16286318D01*
X14649218Y17629318D01*
X15484218Y17629318D01*
X15484218Y16286318D01*
X15484218Y16286318D01*
G37*
G36*
X15484218Y14786318D02*
X14649218Y14786318D01*
X14649218Y16129318D01*
X15484218Y16129318D01*
X15484218Y14786318D01*
X15484218Y14786318D01*
G37*
G36*
X16084218Y28886318D02*
X15249218Y28886318D01*
X15249218Y30229318D01*
X16084218Y30229318D01*
X16084218Y28886318D01*
X16084218Y28886318D01*
G37*
G36*
X16084218Y27386318D02*
X15249218Y27386318D01*
X15249218Y28729318D01*
X16084218Y28729318D01*
X16084218Y27386318D01*
X16084218Y27386318D01*
G37*
G36*
X16160755Y9082341D02*
X16158059Y8889258D01*
X16157983Y8888925D01*
X16157983Y8888913D01*
X16120609Y8724412D01*
X16051851Y8569979D01*
X15954408Y8431844D01*
X15831984Y8315262D01*
X15689257Y8224684D01*
X15531649Y8163551D01*
X15365172Y8134198D01*
X15196162Y8137737D01*
X15031054Y8174039D01*
X14876149Y8241715D01*
X14737331Y8338196D01*
X14619902Y8459798D01*
X14528330Y8601890D01*
X14466099Y8759066D01*
X14435582Y8925342D01*
X14437943Y9094371D01*
X14473089Y9259721D01*
X14539685Y9415100D01*
X14635191Y9554583D01*
X14755972Y9672861D01*
X14897423Y9765424D01*
X15054162Y9828751D01*
X15220211Y9860426D01*
X15389257Y9859246D01*
X15554854Y9825254D01*
X15710689Y9759746D01*
X15850837Y9665216D01*
X15969955Y9545263D01*
X16063506Y9404459D01*
X16127921Y9248173D01*
X16160689Y9082685D01*
X16160688Y9082676D01*
X16160755Y9082341D01*
X16160755Y9082341D01*
G37*
G36*
X16160755Y6542341D02*
X16158059Y6349258D01*
X16157983Y6348925D01*
X16157983Y6348913D01*
X16120609Y6184412D01*
X16051851Y6029979D01*
X15954408Y5891844D01*
X15831984Y5775262D01*
X15689257Y5684684D01*
X15531649Y5623551D01*
X15365172Y5594198D01*
X15196162Y5597737D01*
X15031054Y5634039D01*
X14876149Y5701715D01*
X14737331Y5798196D01*
X14619902Y5919798D01*
X14528330Y6061890D01*
X14466099Y6219066D01*
X14435582Y6385342D01*
X14437943Y6554371D01*
X14473089Y6719721D01*
X14539685Y6875100D01*
X14635191Y7014583D01*
X14755972Y7132861D01*
X14897423Y7225424D01*
X15054162Y7288751D01*
X15220211Y7320426D01*
X15389257Y7319246D01*
X15554854Y7285254D01*
X15710689Y7219746D01*
X15850837Y7125216D01*
X15969955Y7005263D01*
X16063506Y6864459D01*
X16127921Y6708173D01*
X16160689Y6542685D01*
X16160688Y6542676D01*
X16160755Y6542341D01*
X16160755Y6542341D01*
G37*
G36*
X16160755Y4002341D02*
X16158059Y3809258D01*
X16157983Y3808925D01*
X16157983Y3808913D01*
X16120609Y3644412D01*
X16051851Y3489979D01*
X15954408Y3351844D01*
X15831984Y3235262D01*
X15689257Y3144684D01*
X15531649Y3083551D01*
X15365172Y3054198D01*
X15196162Y3057737D01*
X15031054Y3094039D01*
X14876149Y3161715D01*
X14737331Y3258196D01*
X14619902Y3379798D01*
X14528330Y3521890D01*
X14466099Y3679066D01*
X14435582Y3845342D01*
X14437943Y4014371D01*
X14473089Y4179721D01*
X14539685Y4335100D01*
X14635191Y4474583D01*
X14755972Y4592861D01*
X14897423Y4685424D01*
X15054162Y4748751D01*
X15220211Y4780426D01*
X15389257Y4779246D01*
X15554854Y4745254D01*
X15710689Y4679746D01*
X15850837Y4585216D01*
X15969955Y4465263D01*
X16063506Y4324459D01*
X16127921Y4168173D01*
X16160689Y4002685D01*
X16160688Y4002676D01*
X16160755Y4002341D01*
X16160755Y4002341D01*
G37*
G36*
X16308218Y24186318D02*
X15473218Y24186318D01*
X15473218Y25529318D01*
X16308218Y25529318D01*
X16308218Y24186318D01*
X16308218Y24186318D01*
G37*
G36*
X17008218Y19386318D02*
X16173218Y19386318D01*
X16173218Y20729318D01*
X17008218Y20729318D01*
X17008218Y19386318D01*
X17008218Y19386318D01*
G37*
G36*
X17008218Y17886318D02*
X16173218Y17886318D01*
X16173218Y19229318D01*
X17008218Y19229318D01*
X17008218Y17886318D01*
X17008218Y17886318D01*
G37*
G36*
X17008218Y16286318D02*
X16173218Y16286318D01*
X16173218Y17629318D01*
X17008218Y17629318D01*
X17008218Y16286318D01*
X17008218Y16286318D01*
G37*
G36*
X17008218Y14786318D02*
X16173218Y14786318D01*
X16173218Y16129318D01*
X17008218Y16129318D01*
X17008218Y14786318D01*
X17008218Y14786318D01*
G37*
G36*
X17608218Y28886318D02*
X16773218Y28886318D01*
X16773218Y30229318D01*
X17608218Y30229318D01*
X17608218Y28886318D01*
X17608218Y28886318D01*
G37*
G36*
X17608218Y27386318D02*
X16773218Y27386318D01*
X16773218Y28729318D01*
X17608218Y28729318D01*
X17608218Y27386318D01*
X17608218Y27386318D01*
G37*
G36*
X17878746Y32021554D02*
X17876713Y31875957D01*
X17876637Y31875624D01*
X17876637Y31875612D01*
X17848474Y31751654D01*
X17796626Y31635202D01*
X17723148Y31531039D01*
X17630835Y31443131D01*
X17523204Y31374827D01*
X17404362Y31328730D01*
X17278829Y31306596D01*
X17151385Y31309265D01*
X17026882Y31336639D01*
X16910073Y31387672D01*
X16805401Y31460421D01*
X16716849Y31552119D01*
X16647799Y31659263D01*
X16625472Y31715655D01*
X16614645Y31732295D01*
X16598195Y31743411D01*
X16578717Y31747248D01*
X16559281Y31743204D01*
X16542951Y31731914D01*
X16533306Y31717586D01*
X16496626Y31635202D01*
X16423148Y31531039D01*
X16330835Y31443131D01*
X16223204Y31374827D01*
X16104362Y31328730D01*
X15978829Y31306596D01*
X15851385Y31309265D01*
X15726882Y31336639D01*
X15610073Y31387672D01*
X15505401Y31460421D01*
X15416849Y31552119D01*
X15347799Y31659263D01*
X15325472Y31715655D01*
X15314645Y31732295D01*
X15298195Y31743411D01*
X15278717Y31747248D01*
X15259281Y31743204D01*
X15242951Y31731914D01*
X15233306Y31717586D01*
X15196626Y31635202D01*
X15123148Y31531039D01*
X15030835Y31443131D01*
X14923204Y31374827D01*
X14804362Y31328730D01*
X14678829Y31306596D01*
X14551385Y31309265D01*
X14426882Y31336639D01*
X14310073Y31387672D01*
X14205401Y31460421D01*
X14116849Y31552119D01*
X14047799Y31659263D01*
X14000873Y31777784D01*
X13977861Y31903167D01*
X13979642Y32030626D01*
X14006143Y32155307D01*
X14056361Y32272474D01*
X14128378Y32377652D01*
X14219455Y32466842D01*
X14326118Y32536640D01*
X14444308Y32584392D01*
X14569518Y32608277D01*
X14696990Y32607387D01*
X14821860Y32581755D01*
X14939369Y32532358D01*
X15045049Y32461077D01*
X15134872Y32370624D01*
X15205414Y32264451D01*
X15232400Y32198977D01*
X15243458Y32182490D01*
X15260061Y32171606D01*
X15279591Y32168040D01*
X15298969Y32172356D01*
X15315140Y32183872D01*
X15324584Y32198334D01*
X15356361Y32272474D01*
X15428378Y32377652D01*
X15519455Y32466842D01*
X15626118Y32536640D01*
X15744308Y32584392D01*
X15869518Y32608277D01*
X15996990Y32607387D01*
X16121860Y32581755D01*
X16239369Y32532358D01*
X16345049Y32461077D01*
X16434872Y32370624D01*
X16505414Y32264451D01*
X16532400Y32198977D01*
X16543458Y32182490D01*
X16560061Y32171606D01*
X16579591Y32168040D01*
X16598969Y32172356D01*
X16615140Y32183872D01*
X16624584Y32198334D01*
X16656361Y32272474D01*
X16728378Y32377652D01*
X16819455Y32466842D01*
X16926118Y32536640D01*
X17044308Y32584392D01*
X17169518Y32608277D01*
X17296990Y32607387D01*
X17421860Y32581755D01*
X17539369Y32532358D01*
X17645049Y32461077D01*
X17734872Y32370624D01*
X17805415Y32264449D01*
X17853987Y32146602D01*
X17878680Y32021898D01*
X17878679Y32021889D01*
X17878746Y32021554D01*
X17878746Y32021554D01*
G37*
G36*
X17976268Y23557618D02*
X16976168Y23557618D01*
X16976168Y24758378D01*
X17976268Y24758378D01*
X17976268Y23557618D01*
X17976268Y23557618D01*
G37*
G36*
X18928768Y25757258D02*
X17928668Y25757258D01*
X17928668Y26958018D01*
X18928768Y26958018D01*
X18928768Y25757258D01*
X18928768Y25757258D01*
G37*
G36*
X19100218Y29302318D02*
X17757218Y29302318D01*
X17757218Y30137318D01*
X19100218Y30137318D01*
X19100218Y29302318D01*
X19100218Y29302318D01*
G37*
G36*
X19100218Y27778318D02*
X17757218Y27778318D01*
X17757218Y28613318D01*
X19100218Y28613318D01*
X19100218Y27778318D01*
X19100218Y27778318D01*
G37*
G36*
X19784218Y7886318D02*
X18949218Y7886318D01*
X18949218Y9229318D01*
X19784218Y9229318D01*
X19784218Y7886318D01*
X19784218Y7886318D01*
G37*
G36*
X19881268Y23557618D02*
X18881168Y23557618D01*
X18881168Y24758378D01*
X19881268Y24758378D01*
X19881268Y23557618D01*
X19881268Y23557618D01*
G37*
G36*
X21308218Y7886318D02*
X20473218Y7886318D01*
X20473218Y9229318D01*
X21308218Y9229318D01*
X21308218Y7886318D01*
X21308218Y7886318D01*
G37*
G36*
X21400218Y25202318D02*
X20057218Y25202318D01*
X20057218Y26037318D01*
X21400218Y26037318D01*
X21400218Y25202318D01*
X21400218Y25202318D01*
G37*
G36*
X21400218Y23678318D02*
X20057218Y23678318D01*
X20057218Y24513318D01*
X21400218Y24513318D01*
X21400218Y23678318D01*
X21400218Y23678318D01*
G37*
G36*
X21575718Y19855118D02*
X19851718Y19855118D01*
X19851718Y20461518D01*
X21575718Y20461518D01*
X21575718Y19855118D01*
X21575718Y19855118D01*
G37*
G36*
X21575718Y19055018D02*
X19851718Y19055018D01*
X19851718Y19661418D01*
X21575718Y19661418D01*
X21575718Y19055018D01*
X21575718Y19055018D01*
G37*
G36*
X21575718Y18254918D02*
X19851718Y18254918D01*
X19851718Y18861318D01*
X21575718Y18861318D01*
X21575718Y18254918D01*
X21575718Y18254918D01*
G37*
G36*
X21575718Y17454818D02*
X19851718Y17454818D01*
X19851718Y18061218D01*
X21575718Y18061218D01*
X21575718Y17454818D01*
X21575718Y17454818D01*
G37*
G36*
X21575718Y16654718D02*
X19851718Y16654718D01*
X19851718Y17261118D01*
X21575718Y17261118D01*
X21575718Y16654718D01*
X21575718Y16654718D01*
G37*
G36*
X21575718Y15854618D02*
X19851718Y15854618D01*
X19851718Y16461018D01*
X21575718Y16461018D01*
X21575718Y15854618D01*
X21575718Y15854618D01*
G37*
G36*
X21575718Y15054518D02*
X19851718Y15054518D01*
X19851718Y15660918D01*
X21575718Y15660918D01*
X21575718Y15054518D01*
X21575718Y15054518D01*
G37*
G36*
X21575718Y14254418D02*
X19851718Y14254418D01*
X19851718Y14860818D01*
X21575718Y14860818D01*
X21575718Y14254418D01*
X21575718Y14254418D01*
G37*
G36*
X21575718Y13454318D02*
X19851718Y13454318D01*
X19851718Y14060718D01*
X21575718Y14060718D01*
X21575718Y13454318D01*
X21575718Y13454318D01*
G37*
G36*
X21575718Y12654218D02*
X19851718Y12654218D01*
X19851718Y13260618D01*
X21575718Y13260618D01*
X21575718Y12654218D01*
X21575718Y12654218D01*
G37*
G36*
X21575718Y11854118D02*
X19851718Y11854118D01*
X19851718Y12460518D01*
X21575718Y12460518D01*
X21575718Y11854118D01*
X21575718Y11854118D01*
G37*
G36*
X22731418Y21010818D02*
X22125018Y21010818D01*
X22125018Y22734818D01*
X22731418Y22734818D01*
X22731418Y21010818D01*
X22731418Y21010818D01*
G37*
G36*
X22731418Y9580818D02*
X22125018Y9580818D01*
X22125018Y11304818D01*
X22731418Y11304818D01*
X22731418Y9580818D01*
X22731418Y9580818D01*
G37*
G36*
X22900218Y25202318D02*
X21557218Y25202318D01*
X21557218Y26037318D01*
X22900218Y26037318D01*
X22900218Y25202318D01*
X22900218Y25202318D01*
G37*
G36*
X22900218Y23678318D02*
X21557218Y23678318D01*
X21557218Y24513318D01*
X22900218Y24513318D01*
X22900218Y23678318D01*
X22900218Y23678318D01*
G37*
G36*
X23531518Y21010818D02*
X22925118Y21010818D01*
X22925118Y22734818D01*
X23531518Y22734818D01*
X23531518Y21010818D01*
X23531518Y21010818D01*
G37*
G36*
X23531518Y9580818D02*
X22925118Y9580818D01*
X22925118Y11304818D01*
X23531518Y11304818D01*
X23531518Y9580818D01*
X23531518Y9580818D01*
G37*
G36*
X23684218Y7886318D02*
X22849218Y7886318D01*
X22849218Y9229318D01*
X23684218Y9229318D01*
X23684218Y7886318D01*
X23684218Y7886318D01*
G37*
G36*
X24331618Y21010818D02*
X23725218Y21010818D01*
X23725218Y22734818D01*
X24331618Y22734818D01*
X24331618Y21010818D01*
X24331618Y21010818D01*
G37*
G36*
X24331618Y9580818D02*
X23725218Y9580818D01*
X23725218Y11304818D01*
X24331618Y11304818D01*
X24331618Y9580818D01*
X24331618Y9580818D01*
G37*
G36*
X24400218Y25202318D02*
X23057218Y25202318D01*
X23057218Y26037318D01*
X24400218Y26037318D01*
X24400218Y25202318D01*
X24400218Y25202318D01*
G37*
G36*
X24400218Y23678318D02*
X23057218Y23678318D01*
X23057218Y24513318D01*
X24400218Y24513318D01*
X24400218Y23678318D01*
X24400218Y23678318D01*
G37*
G36*
X25131718Y21010818D02*
X24525318Y21010818D01*
X24525318Y22734818D01*
X25131718Y22734818D01*
X25131718Y21010818D01*
X25131718Y21010818D01*
G37*
G36*
X25131718Y9580818D02*
X24525318Y9580818D01*
X24525318Y11304818D01*
X25131718Y11304818D01*
X25131718Y9580818D01*
X25131718Y9580818D01*
G37*
G36*
X25208218Y7886318D02*
X24373218Y7886318D01*
X24373218Y9229318D01*
X25208218Y9229318D01*
X25208218Y7886318D01*
X25208218Y7886318D01*
G37*
G36*
X25931818Y21010818D02*
X25325418Y21010818D01*
X25325418Y22734818D01*
X25931818Y22734818D01*
X25931818Y21010818D01*
X25931818Y21010818D01*
G37*
G36*
X25931818Y9580818D02*
X25325418Y9580818D01*
X25325418Y11304818D01*
X25931818Y11304818D01*
X25931818Y9580818D01*
X25931818Y9580818D01*
G37*
G36*
X26731918Y21010818D02*
X26125518Y21010818D01*
X26125518Y22734818D01*
X26731918Y22734818D01*
X26731918Y21010818D01*
X26731918Y21010818D01*
G37*
G36*
X26731918Y9580818D02*
X26125518Y9580818D01*
X26125518Y11304818D01*
X26731918Y11304818D01*
X26731918Y9580818D01*
X26731918Y9580818D01*
G37*
G36*
X27184218Y1486318D02*
X26349218Y1486318D01*
X26349218Y2829318D01*
X27184218Y2829318D01*
X27184218Y1486318D01*
X27184218Y1486318D01*
G37*
G36*
X27532018Y21010818D02*
X26925618Y21010818D01*
X26925618Y22734818D01*
X27532018Y22734818D01*
X27532018Y21010818D01*
X27532018Y21010818D01*
G37*
G36*
X27532018Y9580818D02*
X26925618Y9580818D01*
X26925618Y11304818D01*
X27532018Y11304818D01*
X27532018Y9580818D01*
X27532018Y9580818D01*
G37*
G36*
X28332118Y21010818D02*
X27725718Y21010818D01*
X27725718Y22734818D01*
X28332118Y22734818D01*
X28332118Y21010818D01*
X28332118Y21010818D01*
G37*
G36*
X28332118Y9580818D02*
X27725718Y9580818D01*
X27725718Y11304818D01*
X28332118Y11304818D01*
X28332118Y9580818D01*
X28332118Y9580818D01*
G37*
G36*
X28708218Y1486318D02*
X27873218Y1486318D01*
X27873218Y2829318D01*
X28708218Y2829318D01*
X28708218Y1486318D01*
X28708218Y1486318D01*
G37*
G36*
X29132218Y21010818D02*
X28525818Y21010818D01*
X28525818Y22734818D01*
X29132218Y22734818D01*
X29132218Y21010818D01*
X29132218Y21010818D01*
G37*
G36*
X29132218Y9580818D02*
X28525818Y9580818D01*
X28525818Y11304818D01*
X29132218Y11304818D01*
X29132218Y9580818D01*
X29132218Y9580818D01*
G37*
G36*
X29378718Y-2242182D02*
X23578718Y-2242182D01*
X23578718Y157818D01*
X29378718Y157818D01*
X29378718Y-2242182D01*
X29378718Y-2242182D01*
G37*
G36*
X29932318Y21010818D02*
X29325918Y21010818D01*
X29325918Y22734818D01*
X29932318Y22734818D01*
X29932318Y21010818D01*
X29932318Y21010818D01*
G37*
G36*
X29932318Y9580818D02*
X29325918Y9580818D01*
X29325918Y11304818D01*
X29932318Y11304818D01*
X29932318Y9580818D01*
X29932318Y9580818D01*
G37*
G36*
X30384218Y1486318D02*
X29549218Y1486318D01*
X29549218Y2829318D01*
X30384218Y2829318D01*
X30384218Y1486318D01*
X30384218Y1486318D01*
G37*
G36*
X30732418Y21010818D02*
X30126018Y21010818D01*
X30126018Y22734818D01*
X30732418Y22734818D01*
X30732418Y21010818D01*
X30732418Y21010818D01*
G37*
G36*
X30732418Y9580818D02*
X30126018Y9580818D01*
X30126018Y11304818D01*
X30732418Y11304818D01*
X30732418Y9580818D01*
X30732418Y9580818D01*
G37*
G36*
X31100218Y25202318D02*
X29757218Y25202318D01*
X29757218Y26037318D01*
X31100218Y26037318D01*
X31100218Y25202318D01*
X31100218Y25202318D01*
G37*
G36*
X31100218Y23678318D02*
X29757218Y23678318D01*
X29757218Y24513318D01*
X31100218Y24513318D01*
X31100218Y23678318D01*
X31100218Y23678318D01*
G37*
G36*
X31908218Y1486318D02*
X31073218Y1486318D01*
X31073218Y2829318D01*
X31908218Y2829318D01*
X31908218Y1486318D01*
X31908218Y1486318D01*
G37*
G36*
X33000218Y23702318D02*
X31657218Y23702318D01*
X31657218Y24537318D01*
X33000218Y24537318D01*
X33000218Y23702318D01*
X33000218Y23702318D01*
G37*
G36*
X33000218Y22178318D02*
X31657218Y22178318D01*
X31657218Y23013318D01*
X33000218Y23013318D01*
X33000218Y22178318D01*
X33000218Y22178318D01*
G37*
G36*
X33005718Y19855118D02*
X31281718Y19855118D01*
X31281718Y20461518D01*
X33005718Y20461518D01*
X33005718Y19855118D01*
X33005718Y19855118D01*
G37*
G36*
X33005718Y19055018D02*
X31281718Y19055018D01*
X31281718Y19661418D01*
X33005718Y19661418D01*
X33005718Y19055018D01*
X33005718Y19055018D01*
G37*
G36*
X33005718Y18254918D02*
X31281718Y18254918D01*
X31281718Y18861318D01*
X33005718Y18861318D01*
X33005718Y18254918D01*
X33005718Y18254918D01*
G37*
G36*
X33005718Y17454818D02*
X31281718Y17454818D01*
X31281718Y18061218D01*
X33005718Y18061218D01*
X33005718Y17454818D01*
X33005718Y17454818D01*
G37*
G36*
X33005718Y16654718D02*
X31281718Y16654718D01*
X31281718Y17261118D01*
X33005718Y17261118D01*
X33005718Y16654718D01*
X33005718Y16654718D01*
G37*
G36*
X33005718Y15854618D02*
X31281718Y15854618D01*
X31281718Y16461018D01*
X33005718Y16461018D01*
X33005718Y15854618D01*
X33005718Y15854618D01*
G37*
G36*
X33005718Y15054518D02*
X31281718Y15054518D01*
X31281718Y15660918D01*
X33005718Y15660918D01*
X33005718Y15054518D01*
X33005718Y15054518D01*
G37*
G36*
X33005718Y14254418D02*
X31281718Y14254418D01*
X31281718Y14860818D01*
X33005718Y14860818D01*
X33005718Y14254418D01*
X33005718Y14254418D01*
G37*
G36*
X33005718Y13454318D02*
X31281718Y13454318D01*
X31281718Y14060718D01*
X33005718Y14060718D01*
X33005718Y13454318D01*
X33005718Y13454318D01*
G37*
G36*
X33005718Y12654218D02*
X31281718Y12654218D01*
X31281718Y13260618D01*
X33005718Y13260618D01*
X33005718Y12654218D01*
X33005718Y12654218D01*
G37*
G36*
X33005718Y11854118D02*
X31281718Y11854118D01*
X31281718Y12460518D01*
X33005718Y12460518D01*
X33005718Y11854118D01*
X33005718Y11854118D01*
G37*
G36*
X35700218Y12402318D02*
X34357218Y12402318D01*
X34357218Y13237318D01*
X35700218Y13237318D01*
X35700218Y12402318D01*
X35700218Y12402318D01*
G37*
G36*
X35700218Y10878318D02*
X34357218Y10878318D01*
X34357218Y11713318D01*
X35700218Y11713318D01*
X35700218Y10878318D01*
X35700218Y10878318D01*
G37*
G36*
X38878718Y-2242182D02*
X33078718Y-2242182D01*
X33078718Y157818D01*
X38878718Y157818D01*
X38878718Y-2242182D01*
X38878718Y-2242182D01*
G37*
G36*
X40084218Y19586318D02*
X39249218Y19586318D01*
X39249218Y20929318D01*
X40084218Y20929318D01*
X40084218Y19586318D01*
X40084218Y19586318D01*
G37*
G36*
X40484218Y15086318D02*
X39649218Y15086318D01*
X39649218Y16429318D01*
X40484218Y16429318D01*
X40484218Y15086318D01*
X40484218Y15086318D01*
G37*
G36*
X40678718Y17007818D02*
X39578718Y17007818D01*
X39578718Y17607818D01*
X39578718Y17657818D01*
X39578718Y18257818D01*
X39578718Y18307818D01*
X39578718Y18907818D01*
X40678718Y18907818D01*
X40678718Y18307818D01*
X40678718Y18257818D01*
X40678718Y17657818D01*
X40678718Y17607818D01*
X40678718Y17007818D01*
X40678718Y17007818D01*
G37*
G36*
X41608218Y19586318D02*
X40773218Y19586318D01*
X40773218Y20929318D01*
X41608218Y20929318D01*
X41608218Y19586318D01*
X41608218Y19586318D01*
G37*
G36*
X42008218Y15086318D02*
X41173218Y15086318D01*
X41173218Y16429318D01*
X42008218Y16429318D01*
X42008218Y15086318D01*
X42008218Y15086318D01*
G37*
G36*
X42078718Y17007818D02*
X40978718Y17007818D01*
X40978718Y17607818D01*
X40978718Y17657818D01*
X40978718Y18257818D01*
X40978718Y18307818D01*
X40978718Y18907818D01*
X42078718Y18907818D01*
X42078718Y18307818D01*
X42078718Y18257818D01*
X42078718Y17657818D01*
X42078718Y17607818D01*
X42078718Y17007818D01*
X42078718Y17007818D01*
G37*
G36*
X42684218Y19586318D02*
X41849218Y19586318D01*
X41849218Y20929318D01*
X42684218Y20929318D01*
X42684218Y19586318D01*
X42684218Y19586318D01*
G37*
G36*
X43384218Y13286318D02*
X42549218Y13286318D01*
X42549218Y14629318D01*
X43384218Y14629318D01*
X43384218Y13286318D01*
X43384218Y13286318D01*
G37*
G36*
X44208218Y19586318D02*
X43373218Y19586318D01*
X43373218Y20929318D01*
X44208218Y20929318D01*
X44208218Y19586318D01*
X44208218Y19586318D01*
G37*
G36*
X44908218Y13286318D02*
X44073218Y13286318D01*
X44073218Y14629318D01*
X44908218Y14629318D01*
X44908218Y13286318D01*
X44908218Y13286318D01*
G37*
G36*
X51634218Y25736318D02*
X50799218Y25736318D01*
X50799218Y27079318D01*
X51634218Y27079318D01*
X51634218Y25736318D01*
X51634218Y25736318D01*
G37*
G36*
X51678755Y21851165D02*
X51676096Y21660769D01*
X51676020Y21660436D01*
X51676020Y21660423D01*
X51639169Y21498219D01*
X51571367Y21345935D01*
X51475280Y21209723D01*
X51354561Y21094764D01*
X51213820Y21005448D01*
X51058406Y20945165D01*
X50894247Y20916220D01*
X50727590Y20919711D01*
X50564780Y20955507D01*
X50412033Y21022241D01*
X50275147Y21117379D01*
X50159352Y21237288D01*
X50069055Y21377401D01*
X50007690Y21532390D01*
X49977598Y21696351D01*
X49979926Y21863027D01*
X50014582Y22026074D01*
X50080252Y22179291D01*
X50174428Y22316832D01*
X50293528Y22433464D01*
X50433010Y22524739D01*
X50587566Y22587183D01*
X50751304Y22618418D01*
X50917997Y22617254D01*
X51081288Y22583735D01*
X51234954Y22519140D01*
X51373151Y22425926D01*
X51490611Y22307642D01*
X51582858Y22168800D01*
X51646379Y22014686D01*
X51678689Y21851509D01*
X51678688Y21851500D01*
X51678755Y21851165D01*
X51678755Y21851165D01*
G37*
G36*
X51678755Y19311165D02*
X51676096Y19120769D01*
X51676020Y19120436D01*
X51676020Y19120423D01*
X51639169Y18958219D01*
X51571367Y18805935D01*
X51475280Y18669723D01*
X51354561Y18554764D01*
X51213820Y18465448D01*
X51058406Y18405165D01*
X50894247Y18376220D01*
X50727590Y18379711D01*
X50564780Y18415507D01*
X50412033Y18482241D01*
X50275147Y18577379D01*
X50159352Y18697288D01*
X50069055Y18837401D01*
X50007690Y18992390D01*
X49977598Y19156351D01*
X49979926Y19323027D01*
X50014582Y19486074D01*
X50080252Y19639291D01*
X50174428Y19776832D01*
X50293528Y19893464D01*
X50433010Y19984739D01*
X50587566Y20047183D01*
X50751304Y20078418D01*
X50917997Y20077254D01*
X51081288Y20043735D01*
X51234954Y19979140D01*
X51373151Y19885926D01*
X51490611Y19767642D01*
X51582858Y19628800D01*
X51646379Y19474686D01*
X51678689Y19311509D01*
X51678688Y19311500D01*
X51678755Y19311165D01*
X51678755Y19311165D01*
G37*
G36*
X51678755Y16771165D02*
X51676096Y16580769D01*
X51676020Y16580436D01*
X51676020Y16580423D01*
X51639169Y16418219D01*
X51571367Y16265935D01*
X51475280Y16129723D01*
X51354561Y16014764D01*
X51213820Y15925448D01*
X51058406Y15865165D01*
X50894247Y15836220D01*
X50727590Y15839711D01*
X50564780Y15875507D01*
X50412033Y15942241D01*
X50275147Y16037379D01*
X50159352Y16157288D01*
X50069055Y16297401D01*
X50007690Y16452390D01*
X49977598Y16616351D01*
X49979926Y16783027D01*
X50014582Y16946074D01*
X50080252Y17099291D01*
X50174428Y17236832D01*
X50293528Y17353464D01*
X50433010Y17444739D01*
X50587566Y17507183D01*
X50751304Y17538418D01*
X50917997Y17537254D01*
X51081288Y17503735D01*
X51234954Y17439140D01*
X51373151Y17345926D01*
X51490611Y17227642D01*
X51582858Y17088800D01*
X51646379Y16934686D01*
X51678689Y16771509D01*
X51678688Y16771500D01*
X51678755Y16771165D01*
X51678755Y16771165D01*
G37*
G36*
X51678755Y14231165D02*
X51676096Y14040769D01*
X51676020Y14040436D01*
X51676020Y14040423D01*
X51639169Y13878219D01*
X51571367Y13725935D01*
X51475280Y13589723D01*
X51354561Y13474764D01*
X51213820Y13385448D01*
X51058406Y13325165D01*
X50894247Y13296220D01*
X50727590Y13299711D01*
X50564780Y13335507D01*
X50412033Y13402241D01*
X50275147Y13497379D01*
X50159352Y13617288D01*
X50069055Y13757401D01*
X50007690Y13912390D01*
X49977598Y14076351D01*
X49979926Y14243027D01*
X50014582Y14406074D01*
X50080252Y14559291D01*
X50174428Y14696832D01*
X50293528Y14813464D01*
X50433010Y14904739D01*
X50587566Y14967183D01*
X50751304Y14998418D01*
X50917997Y14997254D01*
X51081288Y14963735D01*
X51234954Y14899140D01*
X51373151Y14805926D01*
X51490611Y14687642D01*
X51582858Y14548800D01*
X51646379Y14394686D01*
X51678689Y14231509D01*
X51678688Y14231500D01*
X51678755Y14231165D01*
X51678755Y14231165D01*
G37*
G36*
X53158218Y25736318D02*
X52323218Y25736318D01*
X52323218Y27079318D01*
X53158218Y27079318D01*
X53158218Y25736318D01*
X53158218Y25736318D01*
G37*
G36*
X54184218Y27186318D02*
X53349218Y27186318D01*
X53349218Y28529318D01*
X54184218Y28529318D01*
X54184218Y27186318D01*
X54184218Y27186318D01*
G37*
G36*
X54184218Y25686318D02*
X53349218Y25686318D01*
X53349218Y27029318D01*
X54184218Y27029318D01*
X54184218Y25686318D01*
X54184218Y25686318D01*
G37*
G36*
X55708218Y27186318D02*
X54873218Y27186318D01*
X54873218Y28529318D01*
X55708218Y28529318D01*
X55708218Y27186318D01*
X55708218Y27186318D01*
G37*
G36*
X55708218Y25686318D02*
X54873218Y25686318D01*
X54873218Y27029318D01*
X55708218Y27029318D01*
X55708218Y25686318D01*
X55708218Y25686318D01*
G37*
G36*
X55884218Y28686318D02*
X55049218Y28686318D01*
X55049218Y30029318D01*
X55884218Y30029318D01*
X55884218Y28686318D01*
X55884218Y28686318D01*
G37*
G36*
X56884218Y18986318D02*
X56049218Y18986318D01*
X56049218Y20329318D01*
X56884218Y20329318D01*
X56884218Y18986318D01*
X56884218Y18986318D01*
G37*
G36*
X56884218Y17186318D02*
X56049218Y17186318D01*
X56049218Y18529318D01*
X56884218Y18529318D01*
X56884218Y17186318D01*
X56884218Y17186318D01*
G37*
G36*
X57408218Y28686318D02*
X56573218Y28686318D01*
X56573218Y30029318D01*
X57408218Y30029318D01*
X57408218Y28686318D01*
X57408218Y28686318D01*
G37*
G36*
X58408218Y18986318D02*
X57573218Y18986318D01*
X57573218Y20329318D01*
X58408218Y20329318D01*
X58408218Y18986318D01*
X58408218Y18986318D01*
G37*
G36*
X58408218Y17186318D02*
X57573218Y17186318D01*
X57573218Y18529318D01*
X58408218Y18529318D01*
X58408218Y17186318D01*
X58408218Y17186318D01*
G37*
G36*
X59184218Y28686318D02*
X58349218Y28686318D01*
X58349218Y30029318D01*
X59184218Y30029318D01*
X59184218Y28686318D01*
X59184218Y28686318D01*
G37*
G36*
X60708218Y28686318D02*
X59873218Y28686318D01*
X59873218Y30029318D01*
X60708218Y30029318D01*
X60708218Y28686318D01*
X60708218Y28686318D01*
G37*
G36*
X61784218Y28686318D02*
X60949218Y28686318D01*
X60949218Y30029318D01*
X61784218Y30029318D01*
X61784218Y28686318D01*
X61784218Y28686318D01*
G37*
G36*
X63308218Y28686318D02*
X62473218Y28686318D01*
X62473218Y30029318D01*
X63308218Y30029318D01*
X63308218Y28686318D01*
X63308218Y28686318D01*
G37*
G36*
X63371661Y24732073D02*
X63368534Y24508078D01*
X63368457Y24507740D01*
X63368457Y24507732D01*
X63325089Y24316843D01*
X63245323Y24137685D01*
X63132279Y23977435D01*
X62990257Y23842190D01*
X62824679Y23737112D01*
X62641839Y23666191D01*
X62448711Y23632139D01*
X62252643Y23636245D01*
X62061103Y23678358D01*
X61881397Y23756871D01*
X61720360Y23868793D01*
X61584129Y24009865D01*
X61477897Y24174705D01*
X61405703Y24357044D01*
X61370300Y24549938D01*
X61373039Y24746028D01*
X61413812Y24937850D01*
X61491069Y25118104D01*
X61601865Y25279917D01*
X61741982Y25417131D01*
X61906079Y25524513D01*
X62087910Y25597977D01*
X62280543Y25634724D01*
X62476652Y25633354D01*
X62668759Y25593920D01*
X62849543Y25517925D01*
X63012127Y25408262D01*
X63150315Y25269105D01*
X63258841Y25105762D01*
X63333572Y24924451D01*
X63371596Y24732417D01*
X63371595Y24732403D01*
X63371661Y24732073D01*
X63371661Y24732073D01*
G37*
G36*
X63371661Y22192073D02*
X63368534Y21968078D01*
X63368457Y21967740D01*
X63368457Y21967732D01*
X63325089Y21776843D01*
X63245323Y21597685D01*
X63132279Y21437435D01*
X62990257Y21302190D01*
X62824679Y21197112D01*
X62641839Y21126191D01*
X62448711Y21092139D01*
X62252643Y21096245D01*
X62061103Y21138358D01*
X61881397Y21216871D01*
X61720360Y21328793D01*
X61584129Y21469865D01*
X61477897Y21634705D01*
X61405703Y21817044D01*
X61370300Y22009938D01*
X61373039Y22206028D01*
X61413812Y22397850D01*
X61491069Y22578104D01*
X61601865Y22739917D01*
X61741982Y22877131D01*
X61906079Y22984513D01*
X62087910Y23057977D01*
X62280543Y23094724D01*
X62476652Y23093354D01*
X62668759Y23053920D01*
X62849543Y22977925D01*
X63012127Y22868262D01*
X63150315Y22729105D01*
X63258841Y22565762D01*
X63333572Y22384451D01*
X63371596Y22192417D01*
X63371595Y22192403D01*
X63371661Y22192073D01*
X63371661Y22192073D01*
G37*
G36*
X65911661Y24732073D02*
X65908534Y24508078D01*
X65908457Y24507740D01*
X65908457Y24507732D01*
X65865089Y24316843D01*
X65785323Y24137685D01*
X65672279Y23977435D01*
X65530257Y23842190D01*
X65364679Y23737112D01*
X65181839Y23666191D01*
X64988711Y23632139D01*
X64792643Y23636245D01*
X64601103Y23678358D01*
X64421397Y23756871D01*
X64260360Y23868793D01*
X64124129Y24009865D01*
X64017897Y24174705D01*
X63945703Y24357044D01*
X63910300Y24549938D01*
X63913039Y24746028D01*
X63953812Y24937850D01*
X64031069Y25118104D01*
X64141865Y25279917D01*
X64281982Y25417131D01*
X64446079Y25524513D01*
X64627910Y25597977D01*
X64820543Y25634724D01*
X65016652Y25633354D01*
X65208759Y25593920D01*
X65389543Y25517925D01*
X65552127Y25408262D01*
X65690315Y25269105D01*
X65798841Y25105762D01*
X65873572Y24924451D01*
X65911596Y24732417D01*
X65911595Y24732403D01*
X65911661Y24732073D01*
X65911661Y24732073D01*
G37*
G36*
X65911661Y22192073D02*
X65908534Y21968078D01*
X65908457Y21967740D01*
X65908457Y21967732D01*
X65865089Y21776843D01*
X65785323Y21597685D01*
X65672279Y21437435D01*
X65530257Y21302190D01*
X65364679Y21197112D01*
X65181839Y21126191D01*
X64988711Y21092139D01*
X64792643Y21096245D01*
X64601103Y21138358D01*
X64421397Y21216871D01*
X64260360Y21328793D01*
X64124129Y21469865D01*
X64017897Y21634705D01*
X63945703Y21817044D01*
X63910300Y22009938D01*
X63913039Y22206028D01*
X63953812Y22397850D01*
X64031069Y22578104D01*
X64141865Y22739917D01*
X64281982Y22877131D01*
X64446079Y22984513D01*
X64627910Y23057977D01*
X64820543Y23094724D01*
X65016652Y23093354D01*
X65208759Y23053920D01*
X65389543Y22977925D01*
X65552127Y22868262D01*
X65690315Y22729105D01*
X65798841Y22565762D01*
X65873572Y22384451D01*
X65911596Y22192417D01*
X65911595Y22192403D01*
X65911661Y22192073D01*
X65911661Y22192073D01*
G37*
G36*
X68451661Y24732073D02*
X68448534Y24508078D01*
X68448457Y24507740D01*
X68448457Y24507732D01*
X68405089Y24316843D01*
X68325323Y24137685D01*
X68212279Y23977435D01*
X68070257Y23842190D01*
X67904679Y23737112D01*
X67721839Y23666191D01*
X67528711Y23632139D01*
X67332643Y23636245D01*
X67141103Y23678358D01*
X66961397Y23756871D01*
X66800360Y23868793D01*
X66664129Y24009865D01*
X66557897Y24174705D01*
X66485703Y24357044D01*
X66450300Y24549938D01*
X66453039Y24746028D01*
X66493812Y24937850D01*
X66571069Y25118104D01*
X66681865Y25279917D01*
X66821982Y25417131D01*
X66986079Y25524513D01*
X67167910Y25597977D01*
X67360543Y25634724D01*
X67556652Y25633354D01*
X67748759Y25593920D01*
X67929543Y25517925D01*
X68092127Y25408262D01*
X68230315Y25269105D01*
X68338841Y25105762D01*
X68413572Y24924451D01*
X68451596Y24732417D01*
X68451595Y24732403D01*
X68451661Y24732073D01*
X68451661Y24732073D01*
G37*
G36*
X68451661Y22192073D02*
X68448534Y21968078D01*
X68448457Y21967740D01*
X68448457Y21967732D01*
X68405089Y21776843D01*
X68325323Y21597685D01*
X68212279Y21437435D01*
X68070257Y21302190D01*
X67904679Y21197112D01*
X67721839Y21126191D01*
X67528711Y21092139D01*
X67332643Y21096245D01*
X67141103Y21138358D01*
X66961397Y21216871D01*
X66800360Y21328793D01*
X66664129Y21469865D01*
X66557897Y21634705D01*
X66485703Y21817044D01*
X66450300Y22009938D01*
X66453039Y22206028D01*
X66493812Y22397850D01*
X66571069Y22578104D01*
X66681865Y22739917D01*
X66821982Y22877131D01*
X66986079Y22984513D01*
X67167910Y23057977D01*
X67360543Y23094724D01*
X67556652Y23093354D01*
X67748759Y23053920D01*
X67929543Y22977925D01*
X68092127Y22868262D01*
X68230315Y22729105D01*
X68338841Y22565762D01*
X68413572Y22384451D01*
X68451596Y22192417D01*
X68451595Y22192403D01*
X68451661Y22192073D01*
X68451661Y22192073D01*
G37*
G36*
X70991661Y24732073D02*
X70988534Y24508078D01*
X70988457Y24507740D01*
X70988457Y24507732D01*
X70945089Y24316843D01*
X70865323Y24137685D01*
X70752279Y23977435D01*
X70610257Y23842190D01*
X70444679Y23737112D01*
X70261839Y23666191D01*
X70068711Y23632139D01*
X69872643Y23636245D01*
X69681103Y23678358D01*
X69501397Y23756871D01*
X69340360Y23868793D01*
X69204129Y24009865D01*
X69097897Y24174705D01*
X69025703Y24357044D01*
X68990300Y24549938D01*
X68993039Y24746028D01*
X69033812Y24937850D01*
X69111069Y25118104D01*
X69221865Y25279917D01*
X69361982Y25417131D01*
X69526079Y25524513D01*
X69707910Y25597977D01*
X69900543Y25634724D01*
X70096652Y25633354D01*
X70288759Y25593920D01*
X70469543Y25517925D01*
X70632127Y25408262D01*
X70770315Y25269105D01*
X70878841Y25105762D01*
X70953572Y24924451D01*
X70991596Y24732417D01*
X70991595Y24732403D01*
X70991661Y24732073D01*
X70991661Y24732073D01*
G37*
G36*
X70991661Y22192073D02*
X70988534Y21968078D01*
X70988457Y21967740D01*
X70988457Y21967732D01*
X70945089Y21776843D01*
X70865323Y21597685D01*
X70752279Y21437435D01*
X70610257Y21302190D01*
X70444679Y21197112D01*
X70261839Y21126191D01*
X70068711Y21092139D01*
X69872643Y21096245D01*
X69681103Y21138358D01*
X69501397Y21216871D01*
X69340360Y21328793D01*
X69204129Y21469865D01*
X69097897Y21634705D01*
X69025703Y21817044D01*
X68990300Y22009938D01*
X68993039Y22206028D01*
X69033812Y22397850D01*
X69111069Y22578104D01*
X69221865Y22739917D01*
X69361982Y22877131D01*
X69526079Y22984513D01*
X69707910Y23057977D01*
X69900543Y23094724D01*
X70096652Y23093354D01*
X70288759Y23053920D01*
X70469543Y22977925D01*
X70632127Y22868262D01*
X70770315Y22729105D01*
X70878841Y22565762D01*
X70953572Y22384451D01*
X70991596Y22192417D01*
X70991595Y22192403D01*
X70991661Y22192073D01*
X70991661Y22192073D01*
G37*
G36*
X74656443Y98055D02*
X74653316Y-125940D01*
X74653239Y-126278D01*
X74653239Y-126286D01*
X74609871Y-317175D01*
X74530105Y-496333D01*
X74417061Y-656583D01*
X74275039Y-791828D01*
X74109461Y-896906D01*
X73926621Y-967827D01*
X73733493Y-1001879D01*
X73537425Y-997773D01*
X73345885Y-955660D01*
X73166179Y-877147D01*
X73005142Y-765225D01*
X72868911Y-624153D01*
X72762679Y-459313D01*
X72690485Y-276974D01*
X72655082Y-84080D01*
X72657821Y112010D01*
X72698594Y303832D01*
X72775851Y484086D01*
X72886647Y645899D01*
X73026764Y783113D01*
X73190861Y890495D01*
X73372692Y963959D01*
X73565325Y1000706D01*
X73761434Y999336D01*
X73953541Y959902D01*
X74134325Y883907D01*
X74296909Y774244D01*
X74435097Y635087D01*
X74543623Y471744D01*
X74618354Y290433D01*
X74656378Y98399D01*
X74656377Y98385D01*
X74656443Y98055D01*
X74656443Y98055D01*
G37*
G36*
X76574169Y15208784D02*
X76570416Y14939990D01*
X76570340Y14939657D01*
X76570340Y14939644D01*
X76518282Y14710508D01*
X76422562Y14495519D01*
X76286910Y14303219D01*
X76116484Y14140926D01*
X75917791Y14014831D01*
X75698383Y13929728D01*
X75466629Y13888864D01*
X75231348Y13893792D01*
X75001501Y13944327D01*
X74785855Y14038540D01*
X74592607Y14172851D01*
X74429132Y14342135D01*
X74301653Y14539943D01*
X74215021Y14758750D01*
X74172538Y14990222D01*
X74175825Y15225529D01*
X74224752Y15455716D01*
X74317461Y15672021D01*
X74450415Y15866196D01*
X74618556Y16030852D01*
X74815472Y16159710D01*
X75033669Y16247867D01*
X75264829Y16291964D01*
X75500159Y16290320D01*
X75730687Y16242999D01*
X75947628Y16151806D01*
X76142728Y16020210D01*
X76308553Y15853222D01*
X76438786Y15657208D01*
X76528460Y15439639D01*
X76528460Y15439634D01*
X76574103Y15209128D01*
X76574102Y15209119D01*
X76574169Y15208784D01*
X76574169Y15208784D01*
G37*
G36*
X76574169Y11708784D02*
X76570416Y11439990D01*
X76570340Y11439657D01*
X76570340Y11439644D01*
X76518282Y11210508D01*
X76422562Y10995519D01*
X76286910Y10803219D01*
X76116484Y10640926D01*
X75917791Y10514831D01*
X75698383Y10429728D01*
X75466629Y10388864D01*
X75231348Y10393792D01*
X75001501Y10444327D01*
X74785855Y10538540D01*
X74592607Y10672851D01*
X74429132Y10842135D01*
X74301653Y11039943D01*
X74215021Y11258750D01*
X74172538Y11490222D01*
X74175825Y11725529D01*
X74224752Y11955716D01*
X74317461Y12172021D01*
X74450415Y12366196D01*
X74618556Y12530852D01*
X74815472Y12659710D01*
X75033669Y12747867D01*
X75264829Y12791964D01*
X75500159Y12790320D01*
X75730687Y12742999D01*
X75947628Y12651806D01*
X76142728Y12520210D01*
X76308553Y12353222D01*
X76438786Y12157208D01*
X76528460Y11939639D01*
X76528460Y11939634D01*
X76574103Y11709128D01*
X76574102Y11709119D01*
X76574169Y11708784D01*
X76574169Y11708784D01*
G37*
G36*
X76574169Y8208784D02*
X76570416Y7939990D01*
X76570340Y7939657D01*
X76570340Y7939644D01*
X76518282Y7710508D01*
X76422562Y7495519D01*
X76286910Y7303219D01*
X76116484Y7140926D01*
X75917791Y7014831D01*
X75698383Y6929728D01*
X75466629Y6888864D01*
X75231348Y6893792D01*
X75001501Y6944327D01*
X74785855Y7038540D01*
X74592607Y7172851D01*
X74429132Y7342135D01*
X74301653Y7539943D01*
X74215021Y7758750D01*
X74172538Y7990222D01*
X74175825Y8225529D01*
X74224752Y8455716D01*
X74317461Y8672021D01*
X74450415Y8866196D01*
X74618556Y9030852D01*
X74815472Y9159710D01*
X75033669Y9247867D01*
X75264829Y9291964D01*
X75500159Y9290320D01*
X75730687Y9242999D01*
X75947628Y9151806D01*
X76142728Y9020210D01*
X76308553Y8853222D01*
X76438786Y8657208D01*
X76528460Y8439639D01*
X76528460Y8439634D01*
X76574103Y8209128D01*
X76574102Y8209119D01*
X76574169Y8208784D01*
X76574169Y8208784D01*
G37*
G36*
X76583059Y27927894D02*
X76579306Y27659100D01*
X76579230Y27658767D01*
X76579230Y27658754D01*
X76527172Y27429618D01*
X76431452Y27214629D01*
X76295800Y27022329D01*
X76125374Y26860036D01*
X75926681Y26733941D01*
X75707273Y26648838D01*
X75475519Y26607974D01*
X75240238Y26612902D01*
X75010391Y26663437D01*
X74794745Y26757650D01*
X74601497Y26891961D01*
X74438022Y27061245D01*
X74310543Y27259053D01*
X74223911Y27477860D01*
X74181428Y27709332D01*
X74184715Y27944639D01*
X74233642Y28174826D01*
X74326351Y28391131D01*
X74459305Y28585306D01*
X74627446Y28749962D01*
X74824362Y28878820D01*
X75042559Y28966977D01*
X75273719Y29011074D01*
X75509049Y29009430D01*
X75739577Y28962109D01*
X75956518Y28870916D01*
X76151618Y28739320D01*
X76317443Y28572332D01*
X76447676Y28376318D01*
X76537350Y28158749D01*
X76537350Y28158744D01*
X76582993Y27928238D01*
X76582992Y27928229D01*
X76583059Y27927894D01*
X76583059Y27927894D01*
G37*
G36*
X76583059Y24427894D02*
X76579306Y24159100D01*
X76579230Y24158767D01*
X76579230Y24158754D01*
X76527172Y23929618D01*
X76431452Y23714629D01*
X76295800Y23522329D01*
X76125374Y23360036D01*
X75926681Y23233941D01*
X75707273Y23148838D01*
X75475519Y23107974D01*
X75240238Y23112902D01*
X75010391Y23163437D01*
X74794745Y23257650D01*
X74601497Y23391961D01*
X74438022Y23561245D01*
X74310543Y23759053D01*
X74223911Y23977860D01*
X74181428Y24209332D01*
X74184715Y24444639D01*
X74233642Y24674826D01*
X74326351Y24891131D01*
X74459305Y25085306D01*
X74627446Y25249962D01*
X74824362Y25378820D01*
X75042559Y25466977D01*
X75273719Y25511074D01*
X75509049Y25509430D01*
X75739577Y25462109D01*
X75956518Y25370916D01*
X76151618Y25239320D01*
X76317443Y25072332D01*
X76447676Y24876318D01*
X76537350Y24658749D01*
X76537350Y24658744D01*
X76582993Y24428238D01*
X76582992Y24428229D01*
X76583059Y24427894D01*
X76583059Y24427894D01*
G37*
G36*
X78562518Y4180998D02*
X77727518Y4180998D01*
X77727518Y5523998D01*
X78562518Y5523998D01*
X78562518Y4180998D01*
X78562518Y4180998D01*
G37*
G36*
X80086518Y4180998D02*
X79251518Y4180998D01*
X79251518Y5523998D01*
X80086518Y5523998D01*
X80086518Y4180998D01*
X80086518Y4180998D01*
G37*
G36*
X82367511Y36170543D02*
X82359379Y35588157D01*
X82359303Y35587824D01*
X82359303Y35587811D01*
X82246418Y35090943D01*
X82039027Y34625137D01*
X81745113Y34208486D01*
X81375863Y33856855D01*
X80945356Y33583647D01*
X80469975Y33399258D01*
X79967837Y33310718D01*
X79458062Y33321396D01*
X78960064Y33430888D01*
X78492827Y33635019D01*
X78074134Y33926018D01*
X77719935Y34292802D01*
X77443728Y34721392D01*
X77256025Y35195473D01*
X77163980Y35696988D01*
X77171100Y36206823D01*
X77277110Y36705564D01*
X77477977Y37174221D01*
X77766046Y37594935D01*
X78130348Y37951686D01*
X78557001Y38230880D01*
X79029760Y38421887D01*
X79530612Y38517430D01*
X80040489Y38513870D01*
X80539963Y38411342D01*
X81010006Y38213755D01*
X81432722Y37928630D01*
X81792007Y37566827D01*
X82074174Y37142132D01*
X82268475Y36670721D01*
X82367445Y36170887D01*
X82367444Y36170878D01*
X82367511Y36170543D01*
X82367511Y36170543D01*
G37*
G36*
X82367511Y254943D02*
X82359379Y-327443D01*
X82359303Y-327776D01*
X82359303Y-327789D01*
X82246418Y-824657D01*
X82039027Y-1290463D01*
X81745113Y-1707114D01*
X81375863Y-2058745D01*
X80945356Y-2331953D01*
X80469975Y-2516342D01*
X79967837Y-2604882D01*
X79458062Y-2594204D01*
X78960064Y-2484712D01*
X78492827Y-2280581D01*
X78074134Y-1989582D01*
X77719935Y-1622798D01*
X77443728Y-1194208D01*
X77256025Y-720127D01*
X77163980Y-218612D01*
X77171100Y291223D01*
X77277110Y789964D01*
X77477977Y1258621D01*
X77766046Y1679335D01*
X78130348Y2036086D01*
X78557001Y2315280D01*
X79029760Y2506287D01*
X79530612Y2601830D01*
X80040489Y2598270D01*
X80539963Y2495742D01*
X81010006Y2298155D01*
X81432722Y2013030D01*
X81792007Y1651227D01*
X82074174Y1226532D01*
X82268475Y755121D01*
X82367445Y255287D01*
X82367444Y255278D01*
X82367511Y254943D01*
X82367511Y254943D01*
G37*
G36*
X83574169Y15208784D02*
X83570416Y14939990D01*
X83570340Y14939657D01*
X83570340Y14939644D01*
X83518282Y14710508D01*
X83422562Y14495519D01*
X83286910Y14303219D01*
X83116484Y14140926D01*
X82917791Y14014831D01*
X82698383Y13929728D01*
X82466629Y13888864D01*
X82231348Y13893792D01*
X82001501Y13944327D01*
X81785855Y14038540D01*
X81592607Y14172851D01*
X81429132Y14342135D01*
X81301653Y14539943D01*
X81215021Y14758750D01*
X81172538Y14990222D01*
X81175825Y15225529D01*
X81224752Y15455716D01*
X81317461Y15672021D01*
X81450415Y15866196D01*
X81618556Y16030852D01*
X81815472Y16159710D01*
X82033669Y16247867D01*
X82264829Y16291964D01*
X82500159Y16290320D01*
X82730687Y16242999D01*
X82947628Y16151806D01*
X83142728Y16020210D01*
X83308553Y15853222D01*
X83438786Y15657208D01*
X83528460Y15439639D01*
X83528460Y15439634D01*
X83574103Y15209128D01*
X83574102Y15209119D01*
X83574169Y15208784D01*
X83574169Y15208784D01*
G37*
G36*
X83574169Y11708784D02*
X83570416Y11439990D01*
X83570340Y11439657D01*
X83570340Y11439644D01*
X83518282Y11210508D01*
X83422562Y10995519D01*
X83286910Y10803219D01*
X83116484Y10640926D01*
X82917791Y10514831D01*
X82698383Y10429728D01*
X82466629Y10388864D01*
X82231348Y10393792D01*
X82001501Y10444327D01*
X81785855Y10538540D01*
X81592607Y10672851D01*
X81429132Y10842135D01*
X81301653Y11039943D01*
X81215021Y11258750D01*
X81172538Y11490222D01*
X81175825Y11725529D01*
X81224752Y11955716D01*
X81317461Y12172021D01*
X81450415Y12366196D01*
X81618556Y12530852D01*
X81815472Y12659710D01*
X82033669Y12747867D01*
X82264829Y12791964D01*
X82500159Y12790320D01*
X82730687Y12742999D01*
X82947628Y12651806D01*
X83142728Y12520210D01*
X83308553Y12353222D01*
X83438786Y12157208D01*
X83528460Y11939639D01*
X83528460Y11939634D01*
X83574103Y11709128D01*
X83574102Y11709119D01*
X83574169Y11708784D01*
X83574169Y11708784D01*
G37*
G36*
X83574169Y8208784D02*
X83570416Y7939990D01*
X83570340Y7939657D01*
X83570340Y7939644D01*
X83518282Y7710508D01*
X83422562Y7495519D01*
X83286910Y7303219D01*
X83116484Y7140926D01*
X82917791Y7014831D01*
X82698383Y6929728D01*
X82466629Y6888864D01*
X82231348Y6893792D01*
X82001501Y6944327D01*
X81785855Y7038540D01*
X81592607Y7172851D01*
X81429132Y7342135D01*
X81301653Y7539943D01*
X81215021Y7758750D01*
X81172538Y7990222D01*
X81175825Y8225529D01*
X81224752Y8455716D01*
X81317461Y8672021D01*
X81450415Y8866196D01*
X81618556Y9030852D01*
X81815472Y9159710D01*
X82033669Y9247867D01*
X82264829Y9291964D01*
X82500159Y9290320D01*
X82730687Y9242999D01*
X82947628Y9151806D01*
X83142728Y9020210D01*
X83308553Y8853222D01*
X83438786Y8657208D01*
X83528460Y8439639D01*
X83528460Y8439634D01*
X83574103Y8209128D01*
X83574102Y8209119D01*
X83574169Y8208784D01*
X83574169Y8208784D01*
G37*
G36*
X83583059Y27927894D02*
X83579306Y27659100D01*
X83579230Y27658767D01*
X83579230Y27658754D01*
X83527172Y27429618D01*
X83431452Y27214629D01*
X83295800Y27022329D01*
X83125374Y26860036D01*
X82926681Y26733941D01*
X82707273Y26648838D01*
X82475519Y26607974D01*
X82240238Y26612902D01*
X82010391Y26663437D01*
X81794745Y26757650D01*
X81601497Y26891961D01*
X81438022Y27061245D01*
X81310543Y27259053D01*
X81223911Y27477860D01*
X81181428Y27709332D01*
X81184715Y27944639D01*
X81233642Y28174826D01*
X81326351Y28391131D01*
X81459305Y28585306D01*
X81627446Y28749962D01*
X81824362Y28878820D01*
X82042559Y28966977D01*
X82273719Y29011074D01*
X82509049Y29009430D01*
X82739577Y28962109D01*
X82956518Y28870916D01*
X83151618Y28739320D01*
X83317443Y28572332D01*
X83447676Y28376318D01*
X83537350Y28158749D01*
X83537350Y28158744D01*
X83582993Y27928238D01*
X83582992Y27928229D01*
X83583059Y27927894D01*
X83583059Y27927894D01*
G37*
G36*
X83583059Y24427894D02*
X83579306Y24159100D01*
X83579230Y24158767D01*
X83579230Y24158754D01*
X83527172Y23929618D01*
X83431452Y23714629D01*
X83295800Y23522329D01*
X83125374Y23360036D01*
X82926681Y23233941D01*
X82707273Y23148838D01*
X82475519Y23107974D01*
X82240238Y23112902D01*
X82010391Y23163437D01*
X81794745Y23257650D01*
X81601497Y23391961D01*
X81438022Y23561245D01*
X81310543Y23759053D01*
X81223911Y23977860D01*
X81181428Y24209332D01*
X81184715Y24444639D01*
X81233642Y24674826D01*
X81326351Y24891131D01*
X81459305Y25085306D01*
X81627446Y25249962D01*
X81824362Y25378820D01*
X82042559Y25466977D01*
X82273719Y25511074D01*
X82509049Y25509430D01*
X82739577Y25462109D01*
X82956518Y25370916D01*
X83151618Y25239320D01*
X83317443Y25072332D01*
X83447676Y24876318D01*
X83537350Y24658749D01*
X83537350Y24658744D01*
X83582993Y24428238D01*
X83582992Y24428229D01*
X83583059Y24427894D01*
X83583059Y24427894D01*
G37*
M02*
