G04 #@! TF.FileFunction,Legend,Bot*
%FSLAX46Y46*%
G04 Gerber Fmt 4.6, Leading zero omitted, Abs format (unit mm)*
G04 Created by KiCad (PCBNEW (2015-01-16 BZR 5376)-product) date 17/05/2015 14:23:26*
%MOMM*%
G01*
G04 APERTURE LIST*
%ADD10C,0.150000*%
%ADD11C,0.100000*%
%ADD12C,0.200000*%
G04 APERTURE END LIST*
D10*
D11*
X89249784Y-123120874D02*
X89249784Y-75495874D01*
X89249784Y-123120874D02*
G75*
G03X94298222Y-128169312I5048438J0D01*
G01*
X185201346Y-128169312D02*
X94298222Y-128169312D01*
X185201346Y-128169312D02*
G75*
G03X190249784Y-123120874I0J5048438D01*
G01*
X190249784Y-75495874D02*
X190249784Y-123120874D01*
X190249784Y-75495874D02*
G75*
G03X185201346Y-70447436I-5048438J0D01*
G01*
X94298222Y-70447436D02*
X185201346Y-70447436D01*
X94298222Y-70447436D02*
G75*
G03X89249784Y-75495874I0J-5048438D01*
G01*
D10*
X175200800Y-120123960D02*
X181200800Y-120123960D01*
X181200800Y-120123960D02*
X181200800Y-114123960D01*
X181200800Y-114123960D02*
X175200800Y-114123960D01*
X175200800Y-114123960D02*
X175200800Y-120123960D01*
X170000000Y-88220000D02*
X109500000Y-88220000D01*
X109500000Y-88220000D02*
X109500000Y-110400000D01*
X170000000Y-110400000D02*
X109500000Y-110400000D01*
X170000000Y-88220000D02*
X170000000Y-110400000D01*
X173900000Y-84360000D02*
X99600000Y-84360000D01*
X99600000Y-84360000D02*
X99600000Y-120760000D01*
X173900000Y-120760000D02*
X99600000Y-120760000D01*
X173900000Y-84360000D02*
X173900000Y-120760000D01*
D12*
X181836667Y-112646328D02*
X181722381Y-112684423D01*
X181531905Y-112684423D01*
X181455715Y-112646328D01*
X181417619Y-112608232D01*
X181379524Y-112532042D01*
X181379524Y-112455851D01*
X181417619Y-112379661D01*
X181455715Y-112341566D01*
X181531905Y-112303470D01*
X181684286Y-112265375D01*
X181760477Y-112227280D01*
X181798572Y-112189185D01*
X181836667Y-112112994D01*
X181836667Y-112036804D01*
X181798572Y-111960613D01*
X181760477Y-111922518D01*
X181684286Y-111884423D01*
X181493810Y-111884423D01*
X181379524Y-111922518D01*
X181112857Y-111884423D02*
X180922381Y-112684423D01*
X180770000Y-112112994D01*
X180617619Y-112684423D01*
X180427143Y-111884423D01*
X179703333Y-112684423D02*
X180160476Y-112684423D01*
X179931905Y-112684423D02*
X179931905Y-111884423D01*
X180008095Y-111998708D01*
X180084286Y-112074899D01*
X180160476Y-112112994D01*
X174649524Y-79851905D02*
X174649524Y-80499524D01*
X174611429Y-80575714D01*
X174573333Y-80613810D01*
X174497143Y-80651905D01*
X174344762Y-80651905D01*
X174268571Y-80613810D01*
X174230476Y-80575714D01*
X174192381Y-80499524D01*
X174192381Y-79851905D01*
X173468572Y-80118571D02*
X173468572Y-80651905D01*
X173659048Y-79813810D02*
X173849524Y-80385238D01*
X173354286Y-80385238D01*
D10*
X149448572Y-98522381D02*
X150020001Y-98522381D01*
X149734287Y-98522381D02*
X149734287Y-97522381D01*
X149829525Y-97665238D01*
X149924763Y-97760476D01*
X150020001Y-97808095D01*
X148591429Y-97522381D02*
X148781906Y-97522381D01*
X148877144Y-97570000D01*
X148924763Y-97617619D01*
X149020001Y-97760476D01*
X149067620Y-97950952D01*
X149067620Y-98331905D01*
X149020001Y-98427143D01*
X148972382Y-98474762D01*
X148877144Y-98522381D01*
X148686667Y-98522381D01*
X148591429Y-98474762D01*
X148543810Y-98427143D01*
X148496191Y-98331905D01*
X148496191Y-98093810D01*
X148543810Y-97998571D01*
X148591429Y-97950952D01*
X148686667Y-97903333D01*
X148877144Y-97903333D01*
X148972382Y-97950952D01*
X149020001Y-97998571D01*
X149067620Y-98093810D01*
X148162858Y-98522381D02*
X147639048Y-97855714D01*
X148162858Y-97855714D02*
X147639048Y-98522381D01*
X146829524Y-97855714D02*
X146829524Y-98522381D01*
X147067620Y-97474762D02*
X147305715Y-98189048D01*
X146686667Y-98189048D01*
X144972381Y-98427143D02*
X145020000Y-98474762D01*
X145162857Y-98522381D01*
X145258095Y-98522381D01*
X145400953Y-98474762D01*
X145496191Y-98379524D01*
X145543810Y-98284286D01*
X145591429Y-98093810D01*
X145591429Y-97950952D01*
X145543810Y-97760476D01*
X145496191Y-97665238D01*
X145400953Y-97570000D01*
X145258095Y-97522381D01*
X145162857Y-97522381D01*
X145020000Y-97570000D01*
X144972381Y-97617619D01*
X144543810Y-98522381D02*
X144543810Y-97522381D01*
X144115238Y-98522381D02*
X144115238Y-97998571D01*
X144162857Y-97903333D01*
X144258095Y-97855714D01*
X144400953Y-97855714D01*
X144496191Y-97903333D01*
X144543810Y-97950952D01*
X143210476Y-98522381D02*
X143210476Y-97998571D01*
X143258095Y-97903333D01*
X143353333Y-97855714D01*
X143543810Y-97855714D01*
X143639048Y-97903333D01*
X143210476Y-98474762D02*
X143305714Y-98522381D01*
X143543810Y-98522381D01*
X143639048Y-98474762D01*
X143686667Y-98379524D01*
X143686667Y-98284286D01*
X143639048Y-98189048D01*
X143543810Y-98141429D01*
X143305714Y-98141429D01*
X143210476Y-98093810D01*
X142734286Y-98522381D02*
X142734286Y-97855714D01*
X142734286Y-98046190D02*
X142686667Y-97950952D01*
X142639048Y-97903333D01*
X142543810Y-97855714D01*
X142448571Y-97855714D01*
X141686666Y-98522381D02*
X141686666Y-97998571D01*
X141734285Y-97903333D01*
X141829523Y-97855714D01*
X142020000Y-97855714D01*
X142115238Y-97903333D01*
X141686666Y-98474762D02*
X141781904Y-98522381D01*
X142020000Y-98522381D01*
X142115238Y-98474762D01*
X142162857Y-98379524D01*
X142162857Y-98284286D01*
X142115238Y-98189048D01*
X142020000Y-98141429D01*
X141781904Y-98141429D01*
X141686666Y-98093810D01*
X140781904Y-98474762D02*
X140877142Y-98522381D01*
X141067619Y-98522381D01*
X141162857Y-98474762D01*
X141210476Y-98427143D01*
X141258095Y-98331905D01*
X141258095Y-98046190D01*
X141210476Y-97950952D01*
X141162857Y-97903333D01*
X141067619Y-97855714D01*
X140877142Y-97855714D01*
X140781904Y-97903333D01*
X140496190Y-97855714D02*
X140115238Y-97855714D01*
X140353333Y-97522381D02*
X140353333Y-98379524D01*
X140305714Y-98474762D01*
X140210476Y-98522381D01*
X140115238Y-98522381D01*
X139400951Y-98474762D02*
X139496189Y-98522381D01*
X139686666Y-98522381D01*
X139781904Y-98474762D01*
X139829523Y-98379524D01*
X139829523Y-97998571D01*
X139781904Y-97903333D01*
X139686666Y-97855714D01*
X139496189Y-97855714D01*
X139400951Y-97903333D01*
X139353332Y-97998571D01*
X139353332Y-98093810D01*
X139829523Y-98189048D01*
X138924761Y-98522381D02*
X138924761Y-97855714D01*
X138924761Y-98046190D02*
X138877142Y-97950952D01*
X138829523Y-97903333D01*
X138734285Y-97855714D01*
X138639046Y-97855714D01*
X137543808Y-98522381D02*
X137543808Y-97522381D01*
X137305713Y-97522381D01*
X137162855Y-97570000D01*
X137067617Y-97665238D01*
X137019998Y-97760476D01*
X136972379Y-97950952D01*
X136972379Y-98093810D01*
X137019998Y-98284286D01*
X137067617Y-98379524D01*
X137162855Y-98474762D01*
X137305713Y-98522381D01*
X137543808Y-98522381D01*
X136543808Y-98522381D02*
X136543808Y-97522381D01*
X136115237Y-98474762D02*
X135972380Y-98522381D01*
X135734284Y-98522381D01*
X135639046Y-98474762D01*
X135591427Y-98427143D01*
X135543808Y-98331905D01*
X135543808Y-98236667D01*
X135591427Y-98141429D01*
X135639046Y-98093810D01*
X135734284Y-98046190D01*
X135924761Y-97998571D01*
X136019999Y-97950952D01*
X136067618Y-97903333D01*
X136115237Y-97808095D01*
X136115237Y-97712857D01*
X136067618Y-97617619D01*
X136019999Y-97570000D01*
X135924761Y-97522381D01*
X135686665Y-97522381D01*
X135543808Y-97570000D01*
X135115237Y-98522381D02*
X135115237Y-97522381D01*
X134734284Y-97522381D01*
X134639046Y-97570000D01*
X134591427Y-97617619D01*
X134543808Y-97712857D01*
X134543808Y-97855714D01*
X134591427Y-97950952D01*
X134639046Y-97998571D01*
X134734284Y-98046190D01*
X135115237Y-98046190D01*
X133639046Y-98522381D02*
X134115237Y-98522381D01*
X134115237Y-97522381D01*
X133353332Y-98236667D02*
X132877141Y-98236667D01*
X133448570Y-98522381D02*
X133115237Y-97522381D01*
X132781903Y-98522381D01*
X132258094Y-98046190D02*
X132258094Y-98522381D01*
X132591427Y-97522381D02*
X132258094Y-98046190D01*
X131924760Y-97522381D01*
M02*
