G04 #@! TF.FileFunction,Legend,Top*
%FSLAX46Y46*%
G04 Gerber Fmt 4.6, Leading zero omitted, Abs format (unit mm)*
G04 Created by KiCad (PCBNEW (2015-01-16 BZR 5376)-product) date 26/05/2015 16:36:23*
%MOMM*%
G01*
G04 APERTURE LIST*
%ADD10C,0.150000*%
%ADD11C,0.100000*%
%ADD12C,0.200000*%
%ADD13C,0.300000*%
%ADD14C,0.119380*%
%ADD15C,0.078740*%
%ADD16C,0.203200*%
%ADD17C,0.127000*%
%ADD18C,0.304800*%
G04 APERTURE END LIST*
D10*
D11*
X-12250216Y1644D02*
X-12250216Y47626644D01*
X-12250216Y1644D02*
G75*
G03X-7201778Y-5046794I5048438J0D01*
G01*
X83701346Y-5046794D02*
X-7201778Y-5046794D01*
X83701346Y-5046794D02*
G75*
G03X88749784Y1644I0J5048438D01*
G01*
X88749784Y47626644D02*
X88749784Y1644D01*
X88749784Y47626644D02*
G75*
G03X83701346Y52675082I-5048438J0D01*
G01*
X-7201778Y52675082D02*
X83701346Y52675082D01*
X-7201778Y52675082D02*
G75*
G03X-12250216Y47626644I0J-5048438D01*
G01*
D12*
X47588516Y22162518D02*
G75*
G03X47588516Y22162518I-538516J0D01*
G01*
D13*
X54537143Y-578571D02*
X54537143Y921429D01*
X54537143Y207143D02*
X55394286Y207143D01*
X55394286Y-578571D02*
X55394286Y921429D01*
X56751429Y-578571D02*
X56751429Y207143D01*
X56680000Y350000D01*
X56537143Y421429D01*
X56251429Y421429D01*
X56108572Y350000D01*
X56751429Y-507143D02*
X56608572Y-578571D01*
X56251429Y-578571D01*
X56108572Y-507143D01*
X56037143Y-364286D01*
X56037143Y-221429D01*
X56108572Y-78571D01*
X56251429Y-7143D01*
X56608572Y-7143D01*
X56751429Y64286D01*
X57465715Y-578571D02*
X57465715Y421429D01*
X57465715Y135714D02*
X57537143Y278571D01*
X57608572Y350000D01*
X57751429Y421429D01*
X57894286Y421429D01*
X58251429Y421429D02*
X58608572Y-578571D01*
X58965714Y421429D01*
X60108571Y-507143D02*
X59965714Y-578571D01*
X59680000Y-578571D01*
X59537143Y-507143D01*
X59465714Y-364286D01*
X59465714Y207143D01*
X59537143Y350000D01*
X59680000Y421429D01*
X59965714Y421429D01*
X60108571Y350000D01*
X60180000Y207143D01*
X60180000Y64286D01*
X59465714Y-78571D01*
X60751428Y-507143D02*
X60894285Y-578571D01*
X61180000Y-578571D01*
X61322857Y-507143D01*
X61394285Y-364286D01*
X61394285Y-292857D01*
X61322857Y-150000D01*
X61180000Y-78571D01*
X60965714Y-78571D01*
X60822857Y-7143D01*
X60751428Y135714D01*
X60751428Y207143D01*
X60822857Y350000D01*
X60965714Y421429D01*
X61180000Y421429D01*
X61322857Y350000D01*
X61822857Y421429D02*
X62394286Y421429D01*
X62037143Y921429D02*
X62037143Y-364286D01*
X62108571Y-507143D01*
X62251429Y-578571D01*
X62394286Y-578571D01*
X63680000Y850000D02*
X63537143Y921429D01*
X63322857Y921429D01*
X63108572Y850000D01*
X62965714Y707143D01*
X62894286Y564286D01*
X62822857Y278571D01*
X62822857Y64286D01*
X62894286Y-221429D01*
X62965714Y-364286D01*
X63108572Y-507143D01*
X63322857Y-578571D01*
X63465714Y-578571D01*
X63680000Y-507143D01*
X63751429Y-435714D01*
X63751429Y64286D01*
X63465714Y64286D01*
X64965714Y-507143D02*
X64822857Y-578571D01*
X64537143Y-578571D01*
X64394286Y-507143D01*
X64322857Y-364286D01*
X64322857Y207143D01*
X64394286Y350000D01*
X64537143Y421429D01*
X64822857Y421429D01*
X64965714Y350000D01*
X65037143Y207143D01*
X65037143Y64286D01*
X64322857Y-78571D01*
X66251428Y-507143D02*
X66108571Y-578571D01*
X65822857Y-578571D01*
X65680000Y-507143D01*
X65608571Y-364286D01*
X65608571Y207143D01*
X65680000Y350000D01*
X65822857Y421429D01*
X66108571Y421429D01*
X66251428Y350000D01*
X66322857Y207143D01*
X66322857Y64286D01*
X65608571Y-78571D01*
X66965714Y-578571D02*
X66965714Y921429D01*
X67108571Y-7143D02*
X67537142Y-578571D01*
X67537142Y421429D02*
X66965714Y-150000D01*
X55037143Y-2192857D02*
X55251429Y-2264286D01*
X55322857Y-2335714D01*
X55394286Y-2478571D01*
X55394286Y-2692857D01*
X55322857Y-2835714D01*
X55251429Y-2907143D01*
X55108571Y-2978571D01*
X54537143Y-2978571D01*
X54537143Y-1478571D01*
X55037143Y-1478571D01*
X55180000Y-1550000D01*
X55251429Y-1621429D01*
X55322857Y-1764286D01*
X55322857Y-1907143D01*
X55251429Y-2050000D01*
X55180000Y-2121429D01*
X55037143Y-2192857D01*
X54537143Y-2192857D01*
X56680000Y-2978571D02*
X56680000Y-2192857D01*
X56608571Y-2050000D01*
X56465714Y-1978571D01*
X56180000Y-1978571D01*
X56037143Y-2050000D01*
X56680000Y-2907143D02*
X56537143Y-2978571D01*
X56180000Y-2978571D01*
X56037143Y-2907143D01*
X55965714Y-2764286D01*
X55965714Y-2621429D01*
X56037143Y-2478571D01*
X56180000Y-2407143D01*
X56537143Y-2407143D01*
X56680000Y-2335714D01*
X57322857Y-2907143D02*
X57465714Y-2978571D01*
X57751429Y-2978571D01*
X57894286Y-2907143D01*
X57965714Y-2764286D01*
X57965714Y-2692857D01*
X57894286Y-2550000D01*
X57751429Y-2478571D01*
X57537143Y-2478571D01*
X57394286Y-2407143D01*
X57322857Y-2264286D01*
X57322857Y-2192857D01*
X57394286Y-2050000D01*
X57537143Y-1978571D01*
X57751429Y-1978571D01*
X57894286Y-2050000D01*
X59180000Y-2907143D02*
X59037143Y-2978571D01*
X58751429Y-2978571D01*
X58608572Y-2907143D01*
X58537143Y-2764286D01*
X58537143Y-2192857D01*
X58608572Y-2050000D01*
X58751429Y-1978571D01*
X59037143Y-1978571D01*
X59180000Y-2050000D01*
X59251429Y-2192857D01*
X59251429Y-2335714D01*
X58537143Y-2478571D01*
X60965714Y-2907143D02*
X61180000Y-2978571D01*
X61537143Y-2978571D01*
X61680000Y-2907143D01*
X61751429Y-2835714D01*
X61822857Y-2692857D01*
X61822857Y-2550000D01*
X61751429Y-2407143D01*
X61680000Y-2335714D01*
X61537143Y-2264286D01*
X61251429Y-2192857D01*
X61108571Y-2121429D01*
X61037143Y-2050000D01*
X60965714Y-1907143D01*
X60965714Y-1764286D01*
X61037143Y-1621429D01*
X61108571Y-1550000D01*
X61251429Y-1478571D01*
X61608571Y-1478571D01*
X61822857Y-1550000D01*
X62251428Y-1978571D02*
X62822857Y-1978571D01*
X62465714Y-1478571D02*
X62465714Y-2764286D01*
X62537142Y-2907143D01*
X62680000Y-2978571D01*
X62822857Y-2978571D01*
X63965714Y-2978571D02*
X63965714Y-2192857D01*
X63894285Y-2050000D01*
X63751428Y-1978571D01*
X63465714Y-1978571D01*
X63322857Y-2050000D01*
X63965714Y-2907143D02*
X63822857Y-2978571D01*
X63465714Y-2978571D01*
X63322857Y-2907143D01*
X63251428Y-2764286D01*
X63251428Y-2621429D01*
X63322857Y-2478571D01*
X63465714Y-2407143D01*
X63822857Y-2407143D01*
X63965714Y-2335714D01*
X64465714Y-1978571D02*
X65037143Y-1978571D01*
X64680000Y-1478571D02*
X64680000Y-2764286D01*
X64751428Y-2907143D01*
X64894286Y-2978571D01*
X65037143Y-2978571D01*
X65537143Y-2978571D02*
X65537143Y-1978571D01*
X65537143Y-1478571D02*
X65465714Y-1550000D01*
X65537143Y-1621429D01*
X65608571Y-1550000D01*
X65537143Y-1478571D01*
X65537143Y-1621429D01*
X66465715Y-2978571D02*
X66322857Y-2907143D01*
X66251429Y-2835714D01*
X66180000Y-2692857D01*
X66180000Y-2264286D01*
X66251429Y-2121429D01*
X66322857Y-2050000D01*
X66465715Y-1978571D01*
X66680000Y-1978571D01*
X66822857Y-2050000D01*
X66894286Y-2121429D01*
X66965715Y-2264286D01*
X66965715Y-2692857D01*
X66894286Y-2835714D01*
X66822857Y-2907143D01*
X66680000Y-2978571D01*
X66465715Y-2978571D01*
X67608572Y-1978571D02*
X67608572Y-2978571D01*
X67608572Y-2121429D02*
X67680000Y-2050000D01*
X67822858Y-1978571D01*
X68037143Y-1978571D01*
X68180000Y-2050000D01*
X68251429Y-2192857D01*
X68251429Y-2978571D01*
X69894286Y-1478571D02*
X70394286Y-2978571D01*
X70894286Y-1478571D01*
X72180000Y-2978571D02*
X71322857Y-2978571D01*
X71751429Y-2978571D02*
X71751429Y-1478571D01*
X71608572Y-1692857D01*
X71465714Y-1835714D01*
X71322857Y-1907143D01*
X72822857Y-2835714D02*
X72894285Y-2907143D01*
X72822857Y-2978571D01*
X72751428Y-2907143D01*
X72822857Y-2835714D01*
X72822857Y-2978571D01*
X73465714Y-1621429D02*
X73537143Y-1550000D01*
X73680000Y-1478571D01*
X74037143Y-1478571D01*
X74180000Y-1550000D01*
X74251429Y-1621429D01*
X74322857Y-1764286D01*
X74322857Y-1907143D01*
X74251429Y-2121429D01*
X73394286Y-2978571D01*
X74322857Y-2978571D01*
D14*
X28970240Y-1467102D02*
X28970240Y-768602D01*
X28970240Y-2467862D02*
X28970240Y-3166362D01*
X27669760Y-1467102D02*
X27669760Y-768602D01*
X27669760Y-3166362D02*
X27669760Y-2467862D01*
X27685000Y-768602D02*
X28955000Y-768602D01*
X28955000Y-3166362D02*
X27685000Y-3166362D01*
D10*
X86200008Y0D02*
G75*
G03X86200008Y0I-3500000J0D01*
G01*
X86200008Y47625000D02*
G75*
G03X86200008Y47625000I-3500000J0D01*
G01*
X-2699992Y47625000D02*
G75*
G03X-2699992Y47625000I-3500000J0D01*
G01*
X32950000Y212518D02*
G75*
G03X32950000Y212518I-200000J0D01*
G01*
X32350000Y-1787482D02*
X29550000Y-1787482D01*
X29550000Y-1787482D02*
X29550000Y-587482D01*
X29550000Y-587482D02*
X32350000Y-587482D01*
X32350000Y-587482D02*
X32350000Y-1787482D01*
X28900000Y20612518D02*
G75*
G03X28900000Y20612518I-200000J0D01*
G01*
D14*
X32024000Y22031518D02*
X28976000Y22031518D01*
X28976000Y22031518D02*
X28976000Y22793518D01*
X28976000Y22793518D02*
X32024000Y22793518D01*
X32024000Y22793518D02*
X32024000Y22031518D01*
D15*
X6283050Y30761998D02*
G75*
G03X6283050Y30761998I-159070J0D01*
G01*
X8570000Y31620518D02*
X8570000Y30604518D01*
X5966500Y31620518D02*
X5966500Y30604518D01*
X8570000Y30604518D02*
X5966500Y30604518D01*
X5966500Y31620518D02*
X8570000Y31620518D01*
D14*
X5650240Y31212898D02*
X5650240Y31911398D01*
X5650240Y30212138D02*
X5650240Y29513638D01*
X4349760Y31212898D02*
X4349760Y31911398D01*
X4349760Y29513638D02*
X4349760Y30212138D01*
X4365000Y31911398D02*
X5635000Y31911398D01*
X5635000Y29513638D02*
X4365000Y29513638D01*
X10250240Y31212898D02*
X10250240Y31911398D01*
X10250240Y30212138D02*
X10250240Y29513638D01*
X8949760Y31212898D02*
X8949760Y31911398D01*
X8949760Y29513638D02*
X8949760Y30212138D01*
X8965000Y31911398D02*
X10235000Y31911398D01*
X10235000Y29513638D02*
X8965000Y29513638D01*
X13400380Y13762278D02*
X14098880Y13762278D01*
X12399620Y13762278D02*
X11701120Y13762278D01*
X13400380Y15062758D02*
X14098880Y15062758D01*
X11701120Y15062758D02*
X12399620Y15062758D01*
X14098880Y15047518D02*
X14098880Y13777518D01*
X11701120Y13777518D02*
X11701120Y15047518D01*
X23249760Y17412138D02*
X23249760Y16713638D01*
X23249760Y18412898D02*
X23249760Y19111398D01*
X24550240Y17412138D02*
X24550240Y16713638D01*
X24550240Y19111398D02*
X24550240Y18412898D01*
X24535000Y16713638D02*
X23265000Y16713638D01*
X23265000Y19111398D02*
X24535000Y19111398D01*
X19950240Y31212898D02*
X19950240Y31911398D01*
X19950240Y30212138D02*
X19950240Y29513638D01*
X18649760Y31212898D02*
X18649760Y31911398D01*
X18649760Y29513638D02*
X18649760Y30212138D01*
X18665000Y31911398D02*
X19935000Y31911398D01*
X19935000Y29513638D02*
X18665000Y29513638D01*
X11750240Y31212898D02*
X11750240Y31911398D01*
X11750240Y30212138D02*
X11750240Y29513638D01*
X10449760Y31212898D02*
X10449760Y31911398D01*
X10449760Y29513638D02*
X10449760Y30212138D01*
X10465000Y31911398D02*
X11735000Y31911398D01*
X11735000Y29513638D02*
X10465000Y29513638D01*
X4199620Y21962758D02*
X3501120Y21962758D01*
X5200380Y21962758D02*
X5898880Y21962758D01*
X4199620Y20662278D02*
X3501120Y20662278D01*
X5898880Y20662278D02*
X5200380Y20662278D01*
X3501120Y20677518D02*
X3501120Y21947518D01*
X5898880Y21947518D02*
X5898880Y20677518D01*
X13250240Y31212898D02*
X13250240Y31911398D01*
X13250240Y30212138D02*
X13250240Y29513638D01*
X11949760Y31212898D02*
X11949760Y31911398D01*
X11949760Y29513638D02*
X11949760Y30212138D01*
X11965000Y31911398D02*
X13235000Y31911398D01*
X13235000Y29513638D02*
X11965000Y29513638D01*
X16900380Y7362278D02*
X17598880Y7362278D01*
X15899620Y7362278D02*
X15201120Y7362278D01*
X16900380Y8662758D02*
X17598880Y8662758D01*
X15201120Y8662758D02*
X15899620Y8662758D01*
X17598880Y8647518D02*
X17598880Y7377518D01*
X15201120Y7377518D02*
X15201120Y8647518D01*
X19099620Y8662758D02*
X18401120Y8662758D01*
X20100380Y8662758D02*
X20798880Y8662758D01*
X19099620Y7362278D02*
X18401120Y7362278D01*
X20798880Y7362278D02*
X20100380Y7362278D01*
X18401120Y7377518D02*
X18401120Y8647518D01*
X20798880Y8647518D02*
X20798880Y7377518D01*
X54000380Y21262278D02*
X54698880Y21262278D01*
X52999620Y21262278D02*
X52301120Y21262278D01*
X54000380Y22562758D02*
X54698880Y22562758D01*
X52301120Y22562758D02*
X52999620Y22562758D01*
X54698880Y22547518D02*
X54698880Y21277518D01*
X52301120Y21277518D02*
X52301120Y22547518D01*
X54000380Y22662278D02*
X54698880Y22662278D01*
X52999620Y22662278D02*
X52301120Y22662278D01*
X54000380Y23962758D02*
X54698880Y23962758D01*
X52301120Y23962758D02*
X52999620Y23962758D01*
X54698880Y23947518D02*
X54698880Y22677518D01*
X52301120Y22677518D02*
X52301120Y23947518D01*
X44184240Y6528898D02*
X44184240Y7227398D01*
X44184240Y5528138D02*
X44184240Y4829638D01*
X42883760Y6528898D02*
X42883760Y7227398D01*
X42883760Y4829638D02*
X42883760Y5528138D01*
X42899000Y7227398D02*
X44169000Y7227398D01*
X44169000Y4829638D02*
X42899000Y4829638D01*
X42660240Y6528898D02*
X42660240Y7227398D01*
X42660240Y5528138D02*
X42660240Y4829638D01*
X41359760Y6528898D02*
X41359760Y7227398D01*
X41359760Y4829638D02*
X41359760Y5528138D01*
X41375000Y7227398D02*
X42645000Y7227398D01*
X42645000Y4829638D02*
X41375000Y4829638D01*
X45708240Y6528898D02*
X45708240Y7227398D01*
X45708240Y5528138D02*
X45708240Y4829638D01*
X44407760Y6528898D02*
X44407760Y7227398D01*
X44407760Y4829638D02*
X44407760Y5528138D01*
X44423000Y7227398D02*
X45693000Y7227398D01*
X45693000Y4829638D02*
X44423000Y4829638D01*
X41136240Y6528898D02*
X41136240Y7227398D01*
X41136240Y5528138D02*
X41136240Y4829638D01*
X39835760Y6528898D02*
X39835760Y7227398D01*
X39835760Y4829638D02*
X39835760Y5528138D01*
X39851000Y7227398D02*
X41121000Y7227398D01*
X41121000Y4829638D02*
X39851000Y4829638D01*
X39612240Y6528898D02*
X39612240Y7227398D01*
X39612240Y5528138D02*
X39612240Y4829638D01*
X38311760Y6528898D02*
X38311760Y7227398D01*
X38311760Y4829638D02*
X38311760Y5528138D01*
X38327000Y7227398D02*
X39597000Y7227398D01*
X39597000Y4829638D02*
X38327000Y4829638D01*
X38088240Y6528898D02*
X38088240Y7227398D01*
X38088240Y5528138D02*
X38088240Y4829638D01*
X36787760Y6528898D02*
X36787760Y7227398D01*
X36787760Y4829638D02*
X36787760Y5528138D01*
X36803000Y7227398D02*
X38073000Y7227398D01*
X38073000Y4829638D02*
X36803000Y4829638D01*
X57300380Y25062278D02*
X57998880Y25062278D01*
X56299620Y25062278D02*
X55601120Y25062278D01*
X57300380Y26362758D02*
X57998880Y26362758D01*
X55601120Y26362758D02*
X56299620Y26362758D01*
X57998880Y26347518D02*
X57998880Y25077518D01*
X55601120Y25077518D02*
X55601120Y26347518D01*
X54000380Y25062278D02*
X54698880Y25062278D01*
X52999620Y25062278D02*
X52301120Y25062278D01*
X54000380Y26362758D02*
X54698880Y26362758D01*
X52301120Y26362758D02*
X52999620Y26362758D01*
X54698880Y26347518D02*
X54698880Y25077518D01*
X52301120Y25077518D02*
X52301120Y26347518D01*
X42849760Y17512138D02*
X42849760Y16813638D01*
X42849760Y18512898D02*
X42849760Y19211398D01*
X44150240Y17512138D02*
X44150240Y16813638D01*
X44150240Y19211398D02*
X44150240Y18512898D01*
X44135000Y16813638D02*
X42865000Y16813638D01*
X42865000Y19211398D02*
X44135000Y19211398D01*
X56150240Y21712898D02*
X56150240Y22411398D01*
X56150240Y20712138D02*
X56150240Y20013638D01*
X54849760Y21712898D02*
X54849760Y22411398D01*
X54849760Y20013638D02*
X54849760Y20712138D01*
X54865000Y22411398D02*
X56135000Y22411398D01*
X56135000Y20013638D02*
X54865000Y20013638D01*
X52650240Y30012898D02*
X52650240Y30711398D01*
X52650240Y29012138D02*
X52650240Y28313638D01*
X51349760Y30012898D02*
X51349760Y30711398D01*
X51349760Y28313638D02*
X51349760Y29012138D01*
X51365000Y30711398D02*
X52635000Y30711398D01*
X52635000Y28313638D02*
X51365000Y28313638D01*
X46999760Y16512138D02*
X46999760Y15813638D01*
X46999760Y17512898D02*
X46999760Y18211398D01*
X48300240Y16512138D02*
X48300240Y15813638D01*
X48300240Y18211398D02*
X48300240Y17512898D01*
X48285000Y15813638D02*
X47015000Y15813638D01*
X47015000Y18211398D02*
X48285000Y18211398D01*
X46100380Y15362278D02*
X46798880Y15362278D01*
X45099620Y15362278D02*
X44401120Y15362278D01*
X46100380Y16662758D02*
X46798880Y16662758D01*
X44401120Y16662758D02*
X45099620Y16662758D01*
X46798880Y16647518D02*
X46798880Y15377518D01*
X44401120Y15377518D02*
X44401120Y16647518D01*
X33949760Y27612138D02*
X33949760Y26913638D01*
X33949760Y28612898D02*
X33949760Y29311398D01*
X35250240Y27612138D02*
X35250240Y26913638D01*
X35250240Y29311398D02*
X35250240Y28612898D01*
X35235000Y26913638D02*
X33965000Y26913638D01*
X33965000Y29311398D02*
X35235000Y29311398D01*
X48950240Y33612898D02*
X48950240Y34311398D01*
X48950240Y32612138D02*
X48950240Y31913638D01*
X47649760Y33612898D02*
X47649760Y34311398D01*
X47649760Y31913638D02*
X47649760Y32612138D01*
X47665000Y34311398D02*
X48935000Y34311398D01*
X48935000Y31913638D02*
X47665000Y31913638D01*
X57650240Y21712898D02*
X57650240Y22411398D01*
X57650240Y20712138D02*
X57650240Y20013638D01*
X56349760Y21712898D02*
X56349760Y22411398D01*
X56349760Y20013638D02*
X56349760Y20712138D01*
X56365000Y22411398D02*
X57635000Y22411398D01*
X57635000Y20013638D02*
X56365000Y20013638D01*
X57649760Y27212138D02*
X57649760Y26513638D01*
X57649760Y28212898D02*
X57649760Y28911398D01*
X58950240Y27212138D02*
X58950240Y26513638D01*
X58950240Y28911398D02*
X58950240Y28212898D01*
X58935000Y26513638D02*
X57665000Y26513638D01*
X57665000Y28911398D02*
X58935000Y28911398D01*
X54500380Y28262278D02*
X55198880Y28262278D01*
X53499620Y28262278D02*
X52801120Y28262278D01*
X54500380Y29562758D02*
X55198880Y29562758D01*
X52801120Y29562758D02*
X53499620Y29562758D01*
X55198880Y29547518D02*
X55198880Y28277518D01*
X52801120Y28277518D02*
X52801120Y29547518D01*
X51300380Y34562278D02*
X51998880Y34562278D01*
X50299620Y34562278D02*
X49601120Y34562278D01*
X51300380Y35862758D02*
X51998880Y35862758D01*
X49601120Y35862758D02*
X50299620Y35862758D01*
X51998880Y35847518D02*
X51998880Y34577518D01*
X49601120Y34577518D02*
X49601120Y35847518D01*
X54500380Y26862278D02*
X55198880Y26862278D01*
X53499620Y26862278D02*
X52801120Y26862278D01*
X54500380Y28162758D02*
X55198880Y28162758D01*
X52801120Y28162758D02*
X53499620Y28162758D01*
X55198880Y28147518D02*
X55198880Y26877518D01*
X52801120Y26877518D02*
X52801120Y28147518D01*
X51250240Y30012898D02*
X51250240Y30711398D01*
X51250240Y29012138D02*
X51250240Y28313638D01*
X49949760Y30012898D02*
X49949760Y30711398D01*
X49949760Y28313638D02*
X49949760Y29012138D01*
X49965000Y30711398D02*
X51235000Y30711398D01*
X51235000Y28313638D02*
X49965000Y28313638D01*
X51300380Y33162278D02*
X51998880Y33162278D01*
X50299620Y33162278D02*
X49601120Y33162278D01*
X51300380Y34462758D02*
X51998880Y34462758D01*
X49601120Y34462758D02*
X50299620Y34462758D01*
X51998880Y34447518D02*
X51998880Y33177518D01*
X49601120Y33177518D02*
X49601120Y34447518D01*
X40599620Y34862758D02*
X39901120Y34862758D01*
X41600380Y34862758D02*
X42298880Y34862758D01*
X40599620Y33562278D02*
X39901120Y33562278D01*
X42298880Y33562278D02*
X41600380Y33562278D01*
X39901120Y33577518D02*
X39901120Y34847518D01*
X42298880Y34847518D02*
X42298880Y33577518D01*
X41349760Y17512138D02*
X41349760Y16813638D01*
X41349760Y18512898D02*
X41349760Y19211398D01*
X42650240Y17512138D02*
X42650240Y16813638D01*
X42650240Y19211398D02*
X42650240Y18512898D01*
X42635000Y16813638D02*
X41365000Y16813638D01*
X41365000Y19211398D02*
X42635000Y19211398D01*
X3850240Y28412898D02*
X3850240Y29111398D01*
X3850240Y27412138D02*
X3850240Y26713638D01*
X2549760Y28412898D02*
X2549760Y29111398D01*
X2549760Y26713638D02*
X2549760Y27412138D01*
X2565000Y29111398D02*
X3835000Y29111398D01*
X3835000Y26713638D02*
X2565000Y26713638D01*
X35263760Y5528138D02*
X35263760Y4829638D01*
X35263760Y6528898D02*
X35263760Y7227398D01*
X36564240Y5528138D02*
X36564240Y4829638D01*
X36564240Y7227398D02*
X36564240Y6528898D01*
X36549000Y4829638D02*
X35279000Y4829638D01*
X35279000Y7227398D02*
X36549000Y7227398D01*
X65160240Y32982898D02*
X65160240Y33681398D01*
X65160240Y31982138D02*
X65160240Y31283638D01*
X63859760Y32982898D02*
X63859760Y33681398D01*
X63859760Y31283638D02*
X63859760Y31982138D01*
X63875000Y33681398D02*
X65145000Y33681398D01*
X65145000Y31283638D02*
X63875000Y31283638D01*
X54149620Y16162758D02*
X53451120Y16162758D01*
X55150380Y16162758D02*
X55848880Y16162758D01*
X54149620Y14862278D02*
X53451120Y14862278D01*
X55848880Y14862278D02*
X55150380Y14862278D01*
X53451120Y14877518D02*
X53451120Y16147518D01*
X55848880Y16147518D02*
X55848880Y14877518D01*
D10*
X-12471330Y27522958D02*
X-12471330Y20022958D01*
X-12471330Y20022958D02*
X-7471330Y20022958D01*
X-7471330Y20022958D02*
X-7471330Y27522958D01*
X-7471330Y27522958D02*
X-12471330Y27522958D01*
D16*
X-10111060Y8822778D02*
X-10111060Y16442778D01*
X-5031060Y16442778D02*
X-5031060Y8822778D01*
X-5031060Y8822778D02*
X-10111060Y8822778D01*
X-10111060Y16442778D02*
X-5031060Y16442778D01*
D17*
X54643000Y19877518D02*
X52357000Y19877518D01*
X52357000Y19877518D02*
X52357000Y21147518D01*
X52357000Y21147518D02*
X54643000Y21147518D01*
X54643000Y21147518D02*
X54643000Y19877518D01*
X57435000Y28855518D02*
X57435000Y26569518D01*
X57435000Y26569518D02*
X56165000Y26569518D01*
X56165000Y26569518D02*
X56165000Y28855518D01*
X56165000Y28855518D02*
X57435000Y28855518D01*
X3557000Y26547518D02*
X5843000Y26547518D01*
X5843000Y26547518D02*
X5843000Y25277518D01*
X5843000Y25277518D02*
X3557000Y25277518D01*
X3557000Y25277518D02*
X3557000Y26547518D01*
D10*
X93400000Y15974558D02*
X93400000Y31774558D01*
X93400000Y31774558D02*
X71600000Y31774558D01*
X71600000Y31774558D02*
X71600000Y15974558D01*
X71600000Y15974558D02*
X93400000Y15974558D01*
X-2699992Y0D02*
G75*
G03X-2699992Y0I-3500000J0D01*
G01*
D17*
X4199620Y25111018D02*
X3493500Y25111018D01*
X3493500Y25111018D02*
X3493500Y23714018D01*
X3493500Y23714018D02*
X4199620Y23714018D01*
X5906500Y25111018D02*
X5200380Y25111018D01*
X5906500Y25111018D02*
X5906500Y23714018D01*
X5906500Y23714018D02*
X5200380Y23714018D01*
X4199620Y23511018D02*
X3493500Y23511018D01*
X3493500Y23511018D02*
X3493500Y22114018D01*
X3493500Y22114018D02*
X4199620Y22114018D01*
X5906500Y23511018D02*
X5200380Y23511018D01*
X5906500Y23511018D02*
X5906500Y22114018D01*
X5906500Y22114018D02*
X5200380Y22114018D01*
X8499620Y15111018D02*
X7793500Y15111018D01*
X7793500Y15111018D02*
X7793500Y13714018D01*
X7793500Y13714018D02*
X8499620Y13714018D01*
X10206500Y15111018D02*
X9500380Y15111018D01*
X10206500Y15111018D02*
X10206500Y13714018D01*
X10206500Y13714018D02*
X9500380Y13714018D01*
X20501500Y28712138D02*
X20501500Y28006018D01*
X20501500Y28006018D02*
X21898500Y28006018D01*
X21898500Y28006018D02*
X21898500Y28712138D01*
X20501500Y30419018D02*
X20501500Y29712898D01*
X20501500Y30419018D02*
X21898500Y30419018D01*
X21898500Y30419018D02*
X21898500Y29712898D01*
X29230380Y18581500D02*
X29936500Y18581500D01*
X29936500Y18581500D02*
X29936500Y19978500D01*
X29936500Y19978500D02*
X29230380Y19978500D01*
X27523500Y18581500D02*
X28229620Y18581500D01*
X27523500Y18581500D02*
X27523500Y19978500D01*
X27523500Y19978500D02*
X28229620Y19978500D01*
X45883500Y5528138D02*
X45883500Y4822018D01*
X45883500Y4822018D02*
X47280500Y4822018D01*
X47280500Y4822018D02*
X47280500Y5528138D01*
X45883500Y7235018D02*
X45883500Y6528898D01*
X45883500Y7235018D02*
X47280500Y7235018D01*
X47280500Y7235018D02*
X47280500Y6528898D01*
X-2051380Y16633018D02*
X-2757500Y16633018D01*
X-2757500Y16633018D02*
X-2757500Y15236018D01*
X-2757500Y15236018D02*
X-2051380Y15236018D01*
X-344500Y16633018D02*
X-1050620Y16633018D01*
X-344500Y16633018D02*
X-344500Y15236018D01*
X-344500Y15236018D02*
X-1050620Y15236018D01*
X45099620Y18211018D02*
X44393500Y18211018D01*
X44393500Y18211018D02*
X44393500Y16814018D01*
X44393500Y16814018D02*
X45099620Y16814018D01*
X46806500Y18211018D02*
X46100380Y18211018D01*
X46806500Y18211018D02*
X46806500Y16814018D01*
X46806500Y16814018D02*
X46100380Y16814018D01*
X54000380Y18314018D02*
X54706500Y18314018D01*
X54706500Y18314018D02*
X54706500Y19711018D01*
X54706500Y19711018D02*
X54000380Y19711018D01*
X52293500Y18314018D02*
X52999620Y18314018D01*
X52293500Y18314018D02*
X52293500Y19711018D01*
X52293500Y19711018D02*
X52999620Y19711018D01*
X35298500Y22612898D02*
X35298500Y23319018D01*
X35298500Y23319018D02*
X33901500Y23319018D01*
X33901500Y23319018D02*
X33901500Y22612898D01*
X35298500Y20906018D02*
X35298500Y21612138D01*
X35298500Y20906018D02*
X33901500Y20906018D01*
X33901500Y20906018D02*
X33901500Y21612138D01*
X33698500Y22612898D02*
X33698500Y23319018D01*
X33698500Y23319018D02*
X32301500Y23319018D01*
X32301500Y23319018D02*
X32301500Y22612898D01*
X33698500Y20906018D02*
X33698500Y21612138D01*
X33698500Y20906018D02*
X32301500Y20906018D01*
X32301500Y20906018D02*
X32301500Y21612138D01*
X55298500Y37812898D02*
X55298500Y38519018D01*
X55298500Y38519018D02*
X53901500Y38519018D01*
X53901500Y38519018D02*
X53901500Y37812898D01*
X55298500Y36106018D02*
X55298500Y36812138D01*
X55298500Y36106018D02*
X53901500Y36106018D01*
X53901500Y36106018D02*
X53901500Y36812138D01*
X84364500Y34712338D02*
X84364500Y34006218D01*
X84364500Y34006218D02*
X85761500Y34006218D01*
X85761500Y34006218D02*
X85761500Y34712338D01*
X84364500Y36419218D02*
X84364500Y35713098D01*
X84364500Y36419218D02*
X85761500Y36419218D01*
X85761500Y36419218D02*
X85761500Y35713098D01*
X82664500Y34712338D02*
X82664500Y34006218D01*
X82664500Y34006218D02*
X84061500Y34006218D01*
X84061500Y34006218D02*
X84061500Y34712338D01*
X82664500Y36419218D02*
X82664500Y35713098D01*
X82664500Y36419218D02*
X84061500Y36419218D01*
X84061500Y36419218D02*
X84061500Y35713098D01*
X56500380Y18314018D02*
X57206500Y18314018D01*
X57206500Y18314018D02*
X57206500Y19711018D01*
X57206500Y19711018D02*
X56500380Y19711018D01*
X54793500Y18314018D02*
X55499620Y18314018D01*
X54793500Y18314018D02*
X54793500Y19711018D01*
X54793500Y19711018D02*
X55499620Y19711018D01*
X-2051380Y18284018D02*
X-2757500Y18284018D01*
X-2757500Y18284018D02*
X-2757500Y16887018D01*
X-2757500Y16887018D02*
X-2051380Y16887018D01*
X-344500Y18284018D02*
X-1050620Y18284018D01*
X-344500Y18284018D02*
X-344500Y16887018D01*
X-344500Y16887018D02*
X-1050620Y16887018D01*
X64378500Y29992898D02*
X64378500Y30699018D01*
X64378500Y30699018D02*
X62981500Y30699018D01*
X62981500Y30699018D02*
X62981500Y29992898D01*
X64378500Y28286018D02*
X64378500Y28992138D01*
X64378500Y28286018D02*
X62981500Y28286018D01*
X62981500Y28286018D02*
X62981500Y28992138D01*
X66118500Y28712898D02*
X66118500Y29419018D01*
X66118500Y29419018D02*
X64721500Y29419018D01*
X64721500Y29419018D02*
X64721500Y28712898D01*
X66118500Y27006018D02*
X66118500Y27712138D01*
X66118500Y27006018D02*
X64721500Y27006018D01*
X64721500Y27006018D02*
X64721500Y27712138D01*
X56001500Y15562138D02*
X56001500Y14856018D01*
X56001500Y14856018D02*
X57398500Y14856018D01*
X57398500Y14856018D02*
X57398500Y15562138D01*
X56001500Y17269018D02*
X56001500Y16562898D01*
X56001500Y17269018D02*
X57398500Y17269018D01*
X57398500Y17269018D02*
X57398500Y16562898D01*
X57551500Y16112138D02*
X57551500Y15406018D01*
X57551500Y15406018D02*
X58948500Y15406018D01*
X58948500Y15406018D02*
X58948500Y16112138D01*
X57551500Y17819018D02*
X57551500Y17112898D01*
X57551500Y17819018D02*
X58948500Y17819018D01*
X58948500Y17819018D02*
X58948500Y17112898D01*
X30135500Y5528138D02*
X30135500Y4822018D01*
X30135500Y4822018D02*
X31532500Y4822018D01*
X31532500Y4822018D02*
X31532500Y5528138D01*
X30135500Y7235018D02*
X30135500Y6528898D01*
X30135500Y7235018D02*
X31532500Y7235018D01*
X31532500Y7235018D02*
X31532500Y6528898D01*
X31659500Y5528138D02*
X31659500Y4822018D01*
X31659500Y4822018D02*
X33056500Y4822018D01*
X33056500Y4822018D02*
X33056500Y5528138D01*
X31659500Y7235018D02*
X31659500Y6528898D01*
X31659500Y7235018D02*
X33056500Y7235018D01*
X33056500Y7235018D02*
X33056500Y6528898D01*
D18*
X20303800Y27016318D02*
X20303800Y17008718D01*
X20303800Y17008718D02*
X10296200Y17008718D01*
X10296200Y26533718D02*
X10296200Y17008718D01*
X10778800Y27016318D02*
X20303800Y27016318D01*
X10296200Y26533718D02*
X10778800Y27016318D01*
D16*
X12125000Y25822518D02*
G75*
G03X12125000Y25822518I-635000J0D01*
G01*
D10*
X47800000Y21512518D02*
X37800000Y21512518D01*
X37800000Y21512518D02*
X37800000Y31512518D01*
X37800000Y31512518D02*
X47800000Y31512518D01*
X47800000Y31512518D02*
X47800000Y21512518D01*
X32396440Y54322518D02*
X32396440Y38322518D01*
X53396440Y38322518D02*
X53396440Y54322518D01*
X53396440Y54322518D02*
X23396440Y54322518D01*
X23396440Y54322518D02*
X23396440Y38322518D01*
X23396440Y38322518D02*
X53396440Y38322518D01*
X14400000Y7212518D02*
X25800000Y7212518D01*
X25800000Y7212518D02*
X25800000Y2412518D01*
X25800000Y2412518D02*
X14400000Y2412518D01*
X14400000Y2412518D02*
X14400000Y7212518D01*
X39800000Y15212518D02*
X51200000Y15212518D01*
X51200000Y15212518D02*
X51200000Y10412518D01*
X51200000Y10412518D02*
X39800000Y10412518D01*
X39800000Y10412518D02*
X39800000Y15212518D01*
X69148780Y4930140D02*
X69509460Y3459480D01*
X69509460Y3459480D02*
X69788860Y4521200D01*
X69788860Y4521200D02*
X70098740Y3449320D01*
X70098740Y3449320D02*
X70439100Y4899660D01*
X67728920Y4239260D02*
X68518860Y4249420D01*
X68518860Y4249420D02*
X68529020Y4239260D01*
X68529020Y4239260D02*
X68529020Y4249420D01*
X68569660Y4960620D02*
X68569660Y3418840D01*
X67680660Y4970780D02*
X67680660Y3401060D01*
X67680660Y3401060D02*
X67690820Y3411220D01*
X67129480Y4869180D02*
X66778960Y4950460D01*
X66778960Y4950460D02*
X66458920Y4960620D01*
X66458920Y4960620D02*
X66220160Y4759960D01*
X66220160Y4759960D02*
X66189680Y4490720D01*
X66189680Y4490720D02*
X66430980Y4249420D01*
X66430980Y4249420D02*
X66819600Y4119880D01*
X66819600Y4119880D02*
X66999940Y3959860D01*
X66999940Y3959860D02*
X67040580Y3660140D01*
X67040580Y3660140D02*
X66809440Y3439160D01*
X66809440Y3439160D02*
X66489400Y3411220D01*
X66489400Y3411220D02*
X66138880Y3520440D01*
X65100020Y4970780D02*
X64851100Y4950460D01*
X64851100Y4950460D02*
X64609800Y4709160D01*
X64609800Y4709160D02*
X64520900Y4218940D01*
X64520900Y4218940D02*
X64548840Y3870960D01*
X64548840Y3870960D02*
X64749500Y3550920D01*
X64749500Y3550920D02*
X65000960Y3429000D01*
X65000960Y3429000D02*
X65310840Y3500120D01*
X65310840Y3500120D02*
X65529280Y3680460D01*
X65529280Y3680460D02*
X65600400Y4140200D01*
X65600400Y4140200D02*
X65549600Y4549140D01*
X65549600Y4549140D02*
X65440380Y4831080D01*
X65440380Y4831080D02*
X65079700Y4960620D01*
X65699460Y6690360D02*
X65440380Y6129020D01*
X65440380Y6129020D02*
X65978860Y5610860D01*
X65978860Y5610860D02*
X66499560Y5880100D01*
X66499560Y5880100D02*
X66778960Y5720080D01*
X68219140Y5740400D02*
X68549340Y5930900D01*
X68549340Y5930900D02*
X68988760Y5600700D01*
X68988760Y5600700D02*
X69461200Y6090920D01*
X69461200Y6090920D02*
X69179260Y6570980D01*
X69179260Y6570980D02*
X69369760Y7040880D01*
X69369760Y7040880D02*
X69979360Y7228840D01*
X69979360Y7228840D02*
X69979360Y7909560D01*
X69979360Y7909560D02*
X69420560Y8049260D01*
X69420560Y8049260D02*
X69219900Y8620760D01*
X69219900Y8620760D02*
X69489140Y9090660D01*
X69489140Y9090660D02*
X69019240Y9601200D01*
X69019240Y9601200D02*
X68501080Y9339580D01*
X68501080Y9339580D02*
X68031180Y9540240D01*
X68031180Y9540240D02*
X67861000Y10081260D01*
X67861000Y10081260D02*
X67170120Y10099040D01*
X67170120Y10099040D02*
X66959300Y9550400D01*
X66959300Y9550400D02*
X66540200Y9380220D01*
X66540200Y9380220D02*
X65989020Y9649460D01*
X65989020Y9649460D02*
X65470860Y9121140D01*
X65470860Y9121140D02*
X65719780Y8580120D01*
X65719780Y8580120D02*
X65549600Y8100060D01*
X65549600Y8100060D02*
X65000960Y8001000D01*
X65000960Y8001000D02*
X64990800Y7299960D01*
X64990800Y7299960D02*
X65549600Y7099300D01*
X65549600Y7099300D02*
X65689300Y6700520D01*
X67830520Y6720840D02*
X68130240Y6870700D01*
X68130240Y6870700D02*
X68330900Y7068820D01*
X68330900Y7068820D02*
X68480760Y7470140D01*
X68480760Y7470140D02*
X68480760Y7868920D01*
X68480760Y7868920D02*
X68330900Y8219440D01*
X68330900Y8219440D02*
X67878780Y8569960D01*
X67878780Y8569960D02*
X67429200Y8620760D01*
X67429200Y8620760D02*
X67030420Y8519160D01*
X67030420Y8519160D02*
X66629100Y8171180D01*
X66629100Y8171180D02*
X66479240Y7719060D01*
X66479240Y7719060D02*
X66530040Y7221220D01*
X66530040Y7221220D02*
X66778960Y6918960D01*
X66778960Y6918960D02*
X67129480Y6720840D01*
X67129480Y6720840D02*
X66778960Y5720080D01*
X67830520Y6720840D02*
X68229300Y5720080D01*
D11*
G36*
X56605429Y2424571D02*
X56541929Y2424571D01*
X56478429Y2424571D01*
X56478429Y2261286D01*
X56478429Y2098000D01*
X56324215Y2098000D01*
X56170000Y2098000D01*
X56170000Y2261286D01*
X56170000Y2424571D01*
X56106500Y2424571D01*
X56043000Y2424571D01*
X56043000Y2705786D01*
X56043000Y2987000D01*
X56324215Y2987000D01*
X56605429Y2987000D01*
X56605429Y2705786D01*
X56605429Y2424571D01*
X56605429Y2424571D01*
X56605429Y2424571D01*
G37*
X56605429Y2424571D02*
X56541929Y2424571D01*
X56478429Y2424571D01*
X56478429Y2261286D01*
X56478429Y2098000D01*
X56324215Y2098000D01*
X56170000Y2098000D01*
X56170000Y2261286D01*
X56170000Y2424571D01*
X56106500Y2424571D01*
X56043000Y2424571D01*
X56043000Y2705786D01*
X56043000Y2987000D01*
X56324215Y2987000D01*
X56605429Y2987000D01*
X56605429Y2705786D01*
X56605429Y2424571D01*
X56605429Y2424571D01*
G36*
X57548858Y2424571D02*
X57485358Y2424571D01*
X57421858Y2424571D01*
X57421858Y2261286D01*
X57421858Y2098000D01*
X57267643Y2098000D01*
X57113429Y2098000D01*
X57113429Y2261286D01*
X57113429Y2424571D01*
X57059000Y2424571D01*
X57004572Y2424571D01*
X57004572Y2705786D01*
X57004572Y2987000D01*
X57276715Y2987000D01*
X57548858Y2987000D01*
X57548858Y2705786D01*
X57548858Y2424571D01*
X57548858Y2424571D01*
X57548858Y2424571D01*
G37*
X57548858Y2424571D02*
X57485358Y2424571D01*
X57421858Y2424571D01*
X57421858Y2261286D01*
X57421858Y2098000D01*
X57267643Y2098000D01*
X57113429Y2098000D01*
X57113429Y2261286D01*
X57113429Y2424571D01*
X57059000Y2424571D01*
X57004572Y2424571D01*
X57004572Y2705786D01*
X57004572Y2987000D01*
X57276715Y2987000D01*
X57548858Y2987000D01*
X57548858Y2705786D01*
X57548858Y2424571D01*
X57548858Y2424571D01*
G36*
X58492286Y2424571D02*
X58437858Y2424571D01*
X58383429Y2424571D01*
X58383429Y2261286D01*
X58383429Y2098000D01*
X58229215Y2098000D01*
X58075000Y2098000D01*
X58075000Y2261286D01*
X58075000Y2424571D01*
X58011500Y2424571D01*
X57948000Y2424571D01*
X57948000Y2705786D01*
X57948000Y2987000D01*
X58220143Y2987000D01*
X58492286Y2987000D01*
X58492286Y2705786D01*
X58492286Y2424571D01*
X58492286Y2424571D01*
X58492286Y2424571D01*
G37*
X58492286Y2424571D02*
X58437858Y2424571D01*
X58383429Y2424571D01*
X58383429Y2261286D01*
X58383429Y2098000D01*
X58229215Y2098000D01*
X58075000Y2098000D01*
X58075000Y2261286D01*
X58075000Y2424571D01*
X58011500Y2424571D01*
X57948000Y2424571D01*
X57948000Y2705786D01*
X57948000Y2987000D01*
X58220143Y2987000D01*
X58492286Y2987000D01*
X58492286Y2705786D01*
X58492286Y2424571D01*
X58492286Y2424571D01*
G36*
X59453858Y2424571D02*
X59390358Y2424571D01*
X59326858Y2424571D01*
X59326858Y2261286D01*
X59326858Y2098000D01*
X59172643Y2098000D01*
X59018429Y2098000D01*
X59018429Y2261286D01*
X59018429Y2424571D01*
X58964000Y2424571D01*
X58909572Y2424571D01*
X58909572Y2705786D01*
X58909572Y2987000D01*
X59181715Y2987000D01*
X59453858Y2987000D01*
X59453858Y2705786D01*
X59453858Y2424571D01*
X59453858Y2424571D01*
X59453858Y2424571D01*
G37*
X59453858Y2424571D02*
X59390358Y2424571D01*
X59326858Y2424571D01*
X59326858Y2261286D01*
X59326858Y2098000D01*
X59172643Y2098000D01*
X59018429Y2098000D01*
X59018429Y2261286D01*
X59018429Y2424571D01*
X58964000Y2424571D01*
X58909572Y2424571D01*
X58909572Y2705786D01*
X58909572Y2987000D01*
X59181715Y2987000D01*
X59453858Y2987000D01*
X59453858Y2705786D01*
X59453858Y2424571D01*
X59453858Y2424571D01*
G36*
X60397286Y2424571D02*
X60342858Y2424571D01*
X60288429Y2424571D01*
X60288429Y2261286D01*
X60288429Y2098000D01*
X60134215Y2098000D01*
X59980000Y2098000D01*
X59980000Y2261286D01*
X59980000Y2424571D01*
X59916500Y2424571D01*
X59853000Y2424571D01*
X59853000Y2705786D01*
X59853000Y2987000D01*
X60125143Y2987000D01*
X60397286Y2987000D01*
X60397286Y2705786D01*
X60397286Y2424571D01*
X60397286Y2424571D01*
X60397286Y2424571D01*
G37*
X60397286Y2424571D02*
X60342858Y2424571D01*
X60288429Y2424571D01*
X60288429Y2261286D01*
X60288429Y2098000D01*
X60134215Y2098000D01*
X59980000Y2098000D01*
X59980000Y2261286D01*
X59980000Y2424571D01*
X59916500Y2424571D01*
X59853000Y2424571D01*
X59853000Y2705786D01*
X59853000Y2987000D01*
X60125143Y2987000D01*
X60397286Y2987000D01*
X60397286Y2705786D01*
X60397286Y2424571D01*
X60397286Y2424571D01*
G36*
X61358858Y2424571D02*
X61295358Y2424571D01*
X61231858Y2424571D01*
X61231858Y2261286D01*
X61231858Y2098000D01*
X61077643Y2098000D01*
X60923429Y2098000D01*
X60923429Y2261286D01*
X60923429Y2424571D01*
X60869000Y2424571D01*
X60814572Y2424571D01*
X60814572Y2705786D01*
X60814572Y2987000D01*
X61086715Y2987000D01*
X61358858Y2987000D01*
X61358858Y2705786D01*
X61358858Y2424571D01*
X61358858Y2424571D01*
X61358858Y2424571D01*
G37*
X61358858Y2424571D02*
X61295358Y2424571D01*
X61231858Y2424571D01*
X61231858Y2261286D01*
X61231858Y2098000D01*
X61077643Y2098000D01*
X60923429Y2098000D01*
X60923429Y2261286D01*
X60923429Y2424571D01*
X60869000Y2424571D01*
X60814572Y2424571D01*
X60814572Y2705786D01*
X60814572Y2987000D01*
X61086715Y2987000D01*
X61358858Y2987000D01*
X61358858Y2705786D01*
X61358858Y2424571D01*
X61358858Y2424571D01*
G36*
X62175286Y3168429D02*
X61594715Y3168429D01*
X61594715Y6679071D01*
X61594669Y7023834D01*
X61594519Y7334099D01*
X61594245Y7611655D01*
X61593828Y7858290D01*
X61593248Y8075792D01*
X61592486Y8265950D01*
X61591522Y8430552D01*
X61590337Y8571386D01*
X61588911Y8690240D01*
X61587225Y8788903D01*
X61585259Y8869163D01*
X61582994Y8932807D01*
X61580410Y8981625D01*
X61577488Y9017405D01*
X61574208Y9041934D01*
X61570551Y9057001D01*
X61568750Y9061222D01*
X61546980Y9090424D01*
X61503960Y9139063D01*
X61444882Y9201975D01*
X61374940Y9273993D01*
X61299327Y9349951D01*
X61223237Y9424683D01*
X61151864Y9493025D01*
X61090399Y9549810D01*
X61044038Y9589872D01*
X61019872Y9607183D01*
X61001235Y9610427D01*
X60958076Y9613356D01*
X60889386Y9615978D01*
X60794160Y9618303D01*
X60671391Y9620339D01*
X60520071Y9622094D01*
X60339194Y9623579D01*
X60127753Y9624801D01*
X59884742Y9625768D01*
X59609153Y9626491D01*
X59299979Y9626977D01*
X58956215Y9627236D01*
X58701221Y9627286D01*
X58360633Y9627239D01*
X58054522Y9627084D01*
X57781076Y9626803D01*
X57538487Y9626373D01*
X57324943Y9625776D01*
X57138636Y9624990D01*
X56977756Y9623997D01*
X56840492Y9622774D01*
X56725036Y9621304D01*
X56629576Y9619564D01*
X56552304Y9617535D01*
X56491408Y9615197D01*
X56445081Y9612530D01*
X56411511Y9609513D01*
X56388889Y9606127D01*
X56375405Y9602351D01*
X56373207Y9601321D01*
X56344005Y9579551D01*
X56295366Y9536531D01*
X56232454Y9477453D01*
X56160436Y9407511D01*
X56084478Y9331898D01*
X56009746Y9255808D01*
X55941404Y9184434D01*
X55884619Y9122970D01*
X55844557Y9076609D01*
X55827246Y9052443D01*
X55824033Y9033902D01*
X55821130Y8990899D01*
X55818527Y8922433D01*
X55816216Y8827503D01*
X55814188Y8705110D01*
X55812436Y8554252D01*
X55810949Y8373930D01*
X55809720Y8163143D01*
X55808741Y7920891D01*
X55808002Y7646173D01*
X55807496Y7337990D01*
X55807214Y6995340D01*
X55807143Y6688613D01*
X55807156Y6350472D01*
X55807212Y6046713D01*
X55807341Y5775431D01*
X55807568Y5534720D01*
X55807923Y5322677D01*
X55808434Y5137396D01*
X55809127Y4976974D01*
X55810031Y4839506D01*
X55811175Y4723087D01*
X55812585Y4625812D01*
X55814290Y4545778D01*
X55816317Y4481079D01*
X55818694Y4429810D01*
X55821450Y4390069D01*
X55824612Y4359948D01*
X55828207Y4337545D01*
X55832265Y4320955D01*
X55836812Y4308273D01*
X55841877Y4297594D01*
X55842133Y4297099D01*
X55865600Y4264222D01*
X55910204Y4211981D01*
X55970598Y4145813D01*
X56041433Y4071154D01*
X56117360Y3993442D01*
X56193030Y3918114D01*
X56263096Y3850605D01*
X56322207Y3796355D01*
X56365016Y3760799D01*
X56378643Y3751726D01*
X56402057Y3748724D01*
X56459091Y3745946D01*
X56547080Y3743391D01*
X56663361Y3741060D01*
X56805269Y3738953D01*
X56970138Y3737071D01*
X57155305Y3735414D01*
X57358105Y3733983D01*
X57575873Y3732779D01*
X57805944Y3731801D01*
X58045655Y3731050D01*
X58292339Y3730526D01*
X58543334Y3730230D01*
X58795974Y3730163D01*
X59047594Y3730325D01*
X59295530Y3730715D01*
X59537118Y3731336D01*
X59769692Y3732187D01*
X59990588Y3733268D01*
X60197142Y3734580D01*
X60386689Y3736124D01*
X60556564Y3737899D01*
X60704103Y3739907D01*
X60826641Y3742148D01*
X60921514Y3744621D01*
X60986056Y3747329D01*
X61017603Y3750270D01*
X61019872Y3750959D01*
X61048666Y3772053D01*
X61097129Y3814411D01*
X61160067Y3872867D01*
X61232287Y3942255D01*
X61308595Y4017411D01*
X61383799Y4093167D01*
X61452703Y4164359D01*
X61510116Y4225819D01*
X61550844Y4272384D01*
X61568750Y4296920D01*
X61572586Y4308261D01*
X61576035Y4328247D01*
X61579118Y4358666D01*
X61581854Y4401307D01*
X61584263Y4457958D01*
X61586363Y4530407D01*
X61588174Y4620443D01*
X61589717Y4729853D01*
X61591010Y4860427D01*
X61592072Y5013951D01*
X61592924Y5192215D01*
X61593585Y5397006D01*
X61594074Y5630114D01*
X61594411Y5893325D01*
X61594615Y6188429D01*
X61594706Y6517214D01*
X61594715Y6679071D01*
X61594715Y3168429D01*
X58700929Y3168429D01*
X55226572Y3168429D01*
X55226572Y6688143D01*
X55226572Y10207857D01*
X58700929Y10207857D01*
X62175286Y10207857D01*
X62175286Y6688143D01*
X62175286Y3168429D01*
X62175286Y3168429D01*
X62175286Y3168429D01*
G37*
X62175286Y3168429D02*
X61594715Y3168429D01*
X61594715Y6679071D01*
X61594669Y7023834D01*
X61594519Y7334099D01*
X61594245Y7611655D01*
X61593828Y7858290D01*
X61593248Y8075792D01*
X61592486Y8265950D01*
X61591522Y8430552D01*
X61590337Y8571386D01*
X61588911Y8690240D01*
X61587225Y8788903D01*
X61585259Y8869163D01*
X61582994Y8932807D01*
X61580410Y8981625D01*
X61577488Y9017405D01*
X61574208Y9041934D01*
X61570551Y9057001D01*
X61568750Y9061222D01*
X61546980Y9090424D01*
X61503960Y9139063D01*
X61444882Y9201975D01*
X61374940Y9273993D01*
X61299327Y9349951D01*
X61223237Y9424683D01*
X61151864Y9493025D01*
X61090399Y9549810D01*
X61044038Y9589872D01*
X61019872Y9607183D01*
X61001235Y9610427D01*
X60958076Y9613356D01*
X60889386Y9615978D01*
X60794160Y9618303D01*
X60671391Y9620339D01*
X60520071Y9622094D01*
X60339194Y9623579D01*
X60127753Y9624801D01*
X59884742Y9625768D01*
X59609153Y9626491D01*
X59299979Y9626977D01*
X58956215Y9627236D01*
X58701221Y9627286D01*
X58360633Y9627239D01*
X58054522Y9627084D01*
X57781076Y9626803D01*
X57538487Y9626373D01*
X57324943Y9625776D01*
X57138636Y9624990D01*
X56977756Y9623997D01*
X56840492Y9622774D01*
X56725036Y9621304D01*
X56629576Y9619564D01*
X56552304Y9617535D01*
X56491408Y9615197D01*
X56445081Y9612530D01*
X56411511Y9609513D01*
X56388889Y9606127D01*
X56375405Y9602351D01*
X56373207Y9601321D01*
X56344005Y9579551D01*
X56295366Y9536531D01*
X56232454Y9477453D01*
X56160436Y9407511D01*
X56084478Y9331898D01*
X56009746Y9255808D01*
X55941404Y9184434D01*
X55884619Y9122970D01*
X55844557Y9076609D01*
X55827246Y9052443D01*
X55824033Y9033902D01*
X55821130Y8990899D01*
X55818527Y8922433D01*
X55816216Y8827503D01*
X55814188Y8705110D01*
X55812436Y8554252D01*
X55810949Y8373930D01*
X55809720Y8163143D01*
X55808741Y7920891D01*
X55808002Y7646173D01*
X55807496Y7337990D01*
X55807214Y6995340D01*
X55807143Y6688613D01*
X55807156Y6350472D01*
X55807212Y6046713D01*
X55807341Y5775431D01*
X55807568Y5534720D01*
X55807923Y5322677D01*
X55808434Y5137396D01*
X55809127Y4976974D01*
X55810031Y4839506D01*
X55811175Y4723087D01*
X55812585Y4625812D01*
X55814290Y4545778D01*
X55816317Y4481079D01*
X55818694Y4429810D01*
X55821450Y4390069D01*
X55824612Y4359948D01*
X55828207Y4337545D01*
X55832265Y4320955D01*
X55836812Y4308273D01*
X55841877Y4297594D01*
X55842133Y4297099D01*
X55865600Y4264222D01*
X55910204Y4211981D01*
X55970598Y4145813D01*
X56041433Y4071154D01*
X56117360Y3993442D01*
X56193030Y3918114D01*
X56263096Y3850605D01*
X56322207Y3796355D01*
X56365016Y3760799D01*
X56378643Y3751726D01*
X56402057Y3748724D01*
X56459091Y3745946D01*
X56547080Y3743391D01*
X56663361Y3741060D01*
X56805269Y3738953D01*
X56970138Y3737071D01*
X57155305Y3735414D01*
X57358105Y3733983D01*
X57575873Y3732779D01*
X57805944Y3731801D01*
X58045655Y3731050D01*
X58292339Y3730526D01*
X58543334Y3730230D01*
X58795974Y3730163D01*
X59047594Y3730325D01*
X59295530Y3730715D01*
X59537118Y3731336D01*
X59769692Y3732187D01*
X59990588Y3733268D01*
X60197142Y3734580D01*
X60386689Y3736124D01*
X60556564Y3737899D01*
X60704103Y3739907D01*
X60826641Y3742148D01*
X60921514Y3744621D01*
X60986056Y3747329D01*
X61017603Y3750270D01*
X61019872Y3750959D01*
X61048666Y3772053D01*
X61097129Y3814411D01*
X61160067Y3872867D01*
X61232287Y3942255D01*
X61308595Y4017411D01*
X61383799Y4093167D01*
X61452703Y4164359D01*
X61510116Y4225819D01*
X61550844Y4272384D01*
X61568750Y4296920D01*
X61572586Y4308261D01*
X61576035Y4328247D01*
X61579118Y4358666D01*
X61581854Y4401307D01*
X61584263Y4457958D01*
X61586363Y4530407D01*
X61588174Y4620443D01*
X61589717Y4729853D01*
X61591010Y4860427D01*
X61592072Y5013951D01*
X61592924Y5192215D01*
X61593585Y5397006D01*
X61594074Y5630114D01*
X61594411Y5893325D01*
X61594615Y6188429D01*
X61594706Y6517214D01*
X61594715Y6679071D01*
X61594715Y3168429D01*
X58700929Y3168429D01*
X55226572Y3168429D01*
X55226572Y6688143D01*
X55226572Y10207857D01*
X58700929Y10207857D01*
X62175286Y10207857D01*
X62175286Y6688143D01*
X62175286Y3168429D01*
X62175286Y3168429D01*
G36*
X55008858Y4021143D02*
X54727643Y4021143D01*
X54446429Y4021143D01*
X54446429Y4084643D01*
X54446429Y4148143D01*
X54283143Y4148143D01*
X54119858Y4148143D01*
X54119858Y4302357D01*
X54119858Y4456571D01*
X54283143Y4456571D01*
X54446429Y4456571D01*
X54446429Y4520071D01*
X54446429Y4583571D01*
X54727643Y4583571D01*
X55008858Y4583571D01*
X55008858Y4302357D01*
X55008858Y4021143D01*
X55008858Y4021143D01*
X55008858Y4021143D01*
G37*
X55008858Y4021143D02*
X54727643Y4021143D01*
X54446429Y4021143D01*
X54446429Y4084643D01*
X54446429Y4148143D01*
X54283143Y4148143D01*
X54119858Y4148143D01*
X54119858Y4302357D01*
X54119858Y4456571D01*
X54283143Y4456571D01*
X54446429Y4456571D01*
X54446429Y4520071D01*
X54446429Y4583571D01*
X54727643Y4583571D01*
X55008858Y4583571D01*
X55008858Y4302357D01*
X55008858Y4021143D01*
X55008858Y4021143D01*
G36*
X63300143Y4148143D02*
X63127786Y4148143D01*
X62955429Y4148143D01*
X62955429Y4084643D01*
X62955429Y4021143D01*
X62674215Y4021143D01*
X62393000Y4021143D01*
X62393000Y4302357D01*
X62393000Y4583571D01*
X62674215Y4583571D01*
X62955429Y4583571D01*
X62955429Y4520071D01*
X62955429Y4456571D01*
X63127786Y4456571D01*
X63300143Y4456571D01*
X63300143Y4302357D01*
X63300143Y4148143D01*
X63300143Y4148143D01*
X63300143Y4148143D01*
G37*
X63300143Y4148143D02*
X63127786Y4148143D01*
X62955429Y4148143D01*
X62955429Y4084643D01*
X62955429Y4021143D01*
X62674215Y4021143D01*
X62393000Y4021143D01*
X62393000Y4302357D01*
X62393000Y4583571D01*
X62674215Y4583571D01*
X62955429Y4583571D01*
X62955429Y4520071D01*
X62955429Y4456571D01*
X63127786Y4456571D01*
X63300143Y4456571D01*
X63300143Y4302357D01*
X63300143Y4148143D01*
X63300143Y4148143D01*
G36*
X55008858Y4982714D02*
X54727643Y4982714D01*
X54446429Y4982714D01*
X54446429Y5037143D01*
X54446429Y5091571D01*
X54283143Y5091571D01*
X54119858Y5091571D01*
X54119858Y5245786D01*
X54119858Y5400000D01*
X54283143Y5400000D01*
X54446429Y5400000D01*
X54446429Y5463500D01*
X54446429Y5527000D01*
X54727643Y5527000D01*
X55008858Y5527000D01*
X55008858Y5254857D01*
X55008858Y4982714D01*
X55008858Y4982714D01*
X55008858Y4982714D01*
G37*
X55008858Y4982714D02*
X54727643Y4982714D01*
X54446429Y4982714D01*
X54446429Y5037143D01*
X54446429Y5091571D01*
X54283143Y5091571D01*
X54119858Y5091571D01*
X54119858Y5245786D01*
X54119858Y5400000D01*
X54283143Y5400000D01*
X54446429Y5400000D01*
X54446429Y5463500D01*
X54446429Y5527000D01*
X54727643Y5527000D01*
X55008858Y5527000D01*
X55008858Y5254857D01*
X55008858Y4982714D01*
X55008858Y4982714D01*
G36*
X63300143Y5091571D02*
X63127786Y5091571D01*
X62955429Y5091571D01*
X62955429Y5037143D01*
X62955429Y4982714D01*
X62674215Y4982714D01*
X62393000Y4982714D01*
X62393000Y5254857D01*
X62393000Y5527000D01*
X62674215Y5527000D01*
X62955429Y5527000D01*
X62955429Y5463500D01*
X62955429Y5400000D01*
X63127786Y5400000D01*
X63300143Y5400000D01*
X63300143Y5245786D01*
X63300143Y5091571D01*
X63300143Y5091571D01*
X63300143Y5091571D01*
G37*
X63300143Y5091571D02*
X63127786Y5091571D01*
X62955429Y5091571D01*
X62955429Y5037143D01*
X62955429Y4982714D01*
X62674215Y4982714D01*
X62393000Y4982714D01*
X62393000Y5254857D01*
X62393000Y5527000D01*
X62674215Y5527000D01*
X62955429Y5527000D01*
X62955429Y5463500D01*
X62955429Y5400000D01*
X63127786Y5400000D01*
X63300143Y5400000D01*
X63300143Y5245786D01*
X63300143Y5091571D01*
X63300143Y5091571D01*
G36*
X55008858Y5926143D02*
X54727643Y5926143D01*
X54446429Y5926143D01*
X54446429Y5989643D01*
X54446429Y6053143D01*
X54283143Y6053143D01*
X54119858Y6053143D01*
X54119858Y6207357D01*
X54119858Y6361571D01*
X54283143Y6361571D01*
X54446429Y6361571D01*
X54446429Y6416000D01*
X54446429Y6470429D01*
X54727643Y6470429D01*
X55008858Y6470429D01*
X55008858Y6198286D01*
X55008858Y5926143D01*
X55008858Y5926143D01*
X55008858Y5926143D01*
G37*
X55008858Y5926143D02*
X54727643Y5926143D01*
X54446429Y5926143D01*
X54446429Y5989643D01*
X54446429Y6053143D01*
X54283143Y6053143D01*
X54119858Y6053143D01*
X54119858Y6207357D01*
X54119858Y6361571D01*
X54283143Y6361571D01*
X54446429Y6361571D01*
X54446429Y6416000D01*
X54446429Y6470429D01*
X54727643Y6470429D01*
X55008858Y6470429D01*
X55008858Y6198286D01*
X55008858Y5926143D01*
X55008858Y5926143D01*
G36*
X63300143Y6053143D02*
X63127786Y6053143D01*
X62955429Y6053143D01*
X62955429Y5989643D01*
X62955429Y5926143D01*
X62674215Y5926143D01*
X62393000Y5926143D01*
X62393000Y6198286D01*
X62393000Y6470429D01*
X62674215Y6470429D01*
X62955429Y6470429D01*
X62955429Y6416000D01*
X62955429Y6361571D01*
X63127786Y6361571D01*
X63300143Y6361571D01*
X63300143Y6207357D01*
X63300143Y6053143D01*
X63300143Y6053143D01*
X63300143Y6053143D01*
G37*
X63300143Y6053143D02*
X63127786Y6053143D01*
X62955429Y6053143D01*
X62955429Y5989643D01*
X62955429Y5926143D01*
X62674215Y5926143D01*
X62393000Y5926143D01*
X62393000Y6198286D01*
X62393000Y6470429D01*
X62674215Y6470429D01*
X62955429Y6470429D01*
X62955429Y6416000D01*
X62955429Y6361571D01*
X63127786Y6361571D01*
X63300143Y6361571D01*
X63300143Y6207357D01*
X63300143Y6053143D01*
X63300143Y6053143D01*
G36*
X55008858Y6887714D02*
X54727643Y6887714D01*
X54446429Y6887714D01*
X54446429Y6942143D01*
X54446429Y6996571D01*
X54283143Y6996571D01*
X54119858Y6996571D01*
X54119858Y7150786D01*
X54119858Y7305000D01*
X54283143Y7305000D01*
X54446429Y7305000D01*
X54446429Y7368500D01*
X54446429Y7432000D01*
X54727643Y7432000D01*
X55008858Y7432000D01*
X55008858Y7159857D01*
X55008858Y6887714D01*
X55008858Y6887714D01*
X55008858Y6887714D01*
G37*
X55008858Y6887714D02*
X54727643Y6887714D01*
X54446429Y6887714D01*
X54446429Y6942143D01*
X54446429Y6996571D01*
X54283143Y6996571D01*
X54119858Y6996571D01*
X54119858Y7150786D01*
X54119858Y7305000D01*
X54283143Y7305000D01*
X54446429Y7305000D01*
X54446429Y7368500D01*
X54446429Y7432000D01*
X54727643Y7432000D01*
X55008858Y7432000D01*
X55008858Y7159857D01*
X55008858Y6887714D01*
X55008858Y6887714D01*
G36*
X63300143Y6996571D02*
X63127786Y6996571D01*
X62955429Y6996571D01*
X62955429Y6942143D01*
X62955429Y6887714D01*
X62674215Y6887714D01*
X62393000Y6887714D01*
X62393000Y7159857D01*
X62393000Y7432000D01*
X62674215Y7432000D01*
X62955429Y7432000D01*
X62955429Y7368500D01*
X62955429Y7305000D01*
X63127786Y7305000D01*
X63300143Y7305000D01*
X63300143Y7150786D01*
X63300143Y6996571D01*
X63300143Y6996571D01*
X63300143Y6996571D01*
G37*
X63300143Y6996571D02*
X63127786Y6996571D01*
X62955429Y6996571D01*
X62955429Y6942143D01*
X62955429Y6887714D01*
X62674215Y6887714D01*
X62393000Y6887714D01*
X62393000Y7159857D01*
X62393000Y7432000D01*
X62674215Y7432000D01*
X62955429Y7432000D01*
X62955429Y7368500D01*
X62955429Y7305000D01*
X63127786Y7305000D01*
X63300143Y7305000D01*
X63300143Y7150786D01*
X63300143Y6996571D01*
X63300143Y6996571D01*
G36*
X55008858Y7831143D02*
X54727643Y7831143D01*
X54446429Y7831143D01*
X54446429Y7894643D01*
X54446429Y7958143D01*
X54283143Y7958143D01*
X54119858Y7958143D01*
X54119858Y8112357D01*
X54119858Y8266571D01*
X54283143Y8266571D01*
X54446429Y8266571D01*
X54446429Y8321000D01*
X54446429Y8375429D01*
X54727643Y8375429D01*
X55008858Y8375429D01*
X55008858Y8103286D01*
X55008858Y7831143D01*
X55008858Y7831143D01*
X55008858Y7831143D01*
G37*
X55008858Y7831143D02*
X54727643Y7831143D01*
X54446429Y7831143D01*
X54446429Y7894643D01*
X54446429Y7958143D01*
X54283143Y7958143D01*
X54119858Y7958143D01*
X54119858Y8112357D01*
X54119858Y8266571D01*
X54283143Y8266571D01*
X54446429Y8266571D01*
X54446429Y8321000D01*
X54446429Y8375429D01*
X54727643Y8375429D01*
X55008858Y8375429D01*
X55008858Y8103286D01*
X55008858Y7831143D01*
X55008858Y7831143D01*
G36*
X63300143Y7958143D02*
X63127786Y7958143D01*
X62955429Y7958143D01*
X62955429Y7894643D01*
X62955429Y7831143D01*
X62674215Y7831143D01*
X62393000Y7831143D01*
X62393000Y8103286D01*
X62393000Y8375429D01*
X62674215Y8375429D01*
X62955429Y8375429D01*
X62955429Y8321000D01*
X62955429Y8266571D01*
X63127786Y8266571D01*
X63300143Y8266571D01*
X63300143Y8112357D01*
X63300143Y7958143D01*
X63300143Y7958143D01*
X63300143Y7958143D01*
G37*
X63300143Y7958143D02*
X63127786Y7958143D01*
X62955429Y7958143D01*
X62955429Y7894643D01*
X62955429Y7831143D01*
X62674215Y7831143D01*
X62393000Y7831143D01*
X62393000Y8103286D01*
X62393000Y8375429D01*
X62674215Y8375429D01*
X62955429Y8375429D01*
X62955429Y8321000D01*
X62955429Y8266571D01*
X63127786Y8266571D01*
X63300143Y8266571D01*
X63300143Y8112357D01*
X63300143Y7958143D01*
X63300143Y7958143D01*
G36*
X55008858Y8792714D02*
X54727643Y8792714D01*
X54446429Y8792714D01*
X54446429Y8847143D01*
X54446429Y8901571D01*
X54283143Y8901571D01*
X54119858Y8901571D01*
X54119858Y9055786D01*
X54119858Y9210000D01*
X54283143Y9210000D01*
X54446429Y9210000D01*
X54446429Y9273500D01*
X54446429Y9337000D01*
X54727643Y9337000D01*
X55008858Y9337000D01*
X55008858Y9064857D01*
X55008858Y8792714D01*
X55008858Y8792714D01*
X55008858Y8792714D01*
G37*
X55008858Y8792714D02*
X54727643Y8792714D01*
X54446429Y8792714D01*
X54446429Y8847143D01*
X54446429Y8901571D01*
X54283143Y8901571D01*
X54119858Y8901571D01*
X54119858Y9055786D01*
X54119858Y9210000D01*
X54283143Y9210000D01*
X54446429Y9210000D01*
X54446429Y9273500D01*
X54446429Y9337000D01*
X54727643Y9337000D01*
X55008858Y9337000D01*
X55008858Y9064857D01*
X55008858Y8792714D01*
X55008858Y8792714D01*
G36*
X63300143Y8901571D02*
X63127786Y8901571D01*
X62955429Y8901571D01*
X62955429Y8847143D01*
X62955429Y8792714D01*
X62674215Y8792714D01*
X62393000Y8792714D01*
X62393000Y9064857D01*
X62393000Y9337000D01*
X62674215Y9337000D01*
X62955429Y9337000D01*
X62955429Y9273500D01*
X62955429Y9210000D01*
X63127786Y9210000D01*
X63300143Y9210000D01*
X63300143Y9055786D01*
X63300143Y8901571D01*
X63300143Y8901571D01*
X63300143Y8901571D01*
G37*
X63300143Y8901571D02*
X63127786Y8901571D01*
X62955429Y8901571D01*
X62955429Y8847143D01*
X62955429Y8792714D01*
X62674215Y8792714D01*
X62393000Y8792714D01*
X62393000Y9064857D01*
X62393000Y9337000D01*
X62674215Y9337000D01*
X62955429Y9337000D01*
X62955429Y9273500D01*
X62955429Y9210000D01*
X63127786Y9210000D01*
X63300143Y9210000D01*
X63300143Y9055786D01*
X63300143Y8901571D01*
X63300143Y8901571D01*
G36*
X56605429Y10371143D02*
X56324215Y10371143D01*
X56043000Y10371143D01*
X56043000Y10652357D01*
X56043000Y10933571D01*
X56106500Y10933571D01*
X56170000Y10933571D01*
X56170000Y11105929D01*
X56170000Y11278286D01*
X56324215Y11278286D01*
X56478429Y11278286D01*
X56478429Y11105929D01*
X56478429Y10933571D01*
X56541929Y10933571D01*
X56605429Y10933571D01*
X56605429Y10652357D01*
X56605429Y10371143D01*
X56605429Y10371143D01*
X56605429Y10371143D01*
G37*
X56605429Y10371143D02*
X56324215Y10371143D01*
X56043000Y10371143D01*
X56043000Y10652357D01*
X56043000Y10933571D01*
X56106500Y10933571D01*
X56170000Y10933571D01*
X56170000Y11105929D01*
X56170000Y11278286D01*
X56324215Y11278286D01*
X56478429Y11278286D01*
X56478429Y11105929D01*
X56478429Y10933571D01*
X56541929Y10933571D01*
X56605429Y10933571D01*
X56605429Y10652357D01*
X56605429Y10371143D01*
X56605429Y10371143D01*
G36*
X57548858Y10371143D02*
X57276715Y10371143D01*
X57004572Y10371143D01*
X57004572Y10652357D01*
X57004572Y10933571D01*
X57059000Y10933571D01*
X57113429Y10933571D01*
X57113429Y11105929D01*
X57113429Y11278286D01*
X57267643Y11278286D01*
X57421858Y11278286D01*
X57421858Y11105929D01*
X57421858Y10933571D01*
X57485358Y10933571D01*
X57548858Y10933571D01*
X57548858Y10652357D01*
X57548858Y10371143D01*
X57548858Y10371143D01*
X57548858Y10371143D01*
G37*
X57548858Y10371143D02*
X57276715Y10371143D01*
X57004572Y10371143D01*
X57004572Y10652357D01*
X57004572Y10933571D01*
X57059000Y10933571D01*
X57113429Y10933571D01*
X57113429Y11105929D01*
X57113429Y11278286D01*
X57267643Y11278286D01*
X57421858Y11278286D01*
X57421858Y11105929D01*
X57421858Y10933571D01*
X57485358Y10933571D01*
X57548858Y10933571D01*
X57548858Y10652357D01*
X57548858Y10371143D01*
X57548858Y10371143D01*
G36*
X58492286Y10371143D02*
X58220143Y10371143D01*
X57948000Y10371143D01*
X57948000Y10652357D01*
X57948000Y10933571D01*
X58011500Y10933571D01*
X58075000Y10933571D01*
X58075000Y11105929D01*
X58075000Y11278286D01*
X58229215Y11278286D01*
X58383429Y11278286D01*
X58383429Y11105929D01*
X58383429Y10933571D01*
X58437858Y10933571D01*
X58492286Y10933571D01*
X58492286Y10652357D01*
X58492286Y10371143D01*
X58492286Y10371143D01*
X58492286Y10371143D01*
G37*
X58492286Y10371143D02*
X58220143Y10371143D01*
X57948000Y10371143D01*
X57948000Y10652357D01*
X57948000Y10933571D01*
X58011500Y10933571D01*
X58075000Y10933571D01*
X58075000Y11105929D01*
X58075000Y11278286D01*
X58229215Y11278286D01*
X58383429Y11278286D01*
X58383429Y11105929D01*
X58383429Y10933571D01*
X58437858Y10933571D01*
X58492286Y10933571D01*
X58492286Y10652357D01*
X58492286Y10371143D01*
X58492286Y10371143D01*
G36*
X59453858Y10371143D02*
X59181715Y10371143D01*
X58909572Y10371143D01*
X58909572Y10652357D01*
X58909572Y10933571D01*
X58964000Y10933571D01*
X59018429Y10933571D01*
X59018429Y11105929D01*
X59018429Y11278286D01*
X59172643Y11278286D01*
X59326858Y11278286D01*
X59326858Y11105929D01*
X59326858Y10933571D01*
X59390358Y10933571D01*
X59453858Y10933571D01*
X59453858Y10652357D01*
X59453858Y10371143D01*
X59453858Y10371143D01*
X59453858Y10371143D01*
G37*
X59453858Y10371143D02*
X59181715Y10371143D01*
X58909572Y10371143D01*
X58909572Y10652357D01*
X58909572Y10933571D01*
X58964000Y10933571D01*
X59018429Y10933571D01*
X59018429Y11105929D01*
X59018429Y11278286D01*
X59172643Y11278286D01*
X59326858Y11278286D01*
X59326858Y11105929D01*
X59326858Y10933571D01*
X59390358Y10933571D01*
X59453858Y10933571D01*
X59453858Y10652357D01*
X59453858Y10371143D01*
X59453858Y10371143D01*
G36*
X60397286Y10371143D02*
X60125143Y10371143D01*
X59853000Y10371143D01*
X59853000Y10652357D01*
X59853000Y10933571D01*
X59916500Y10933571D01*
X59980000Y10933571D01*
X59980000Y11105929D01*
X59980000Y11278286D01*
X60134215Y11278286D01*
X60288429Y11278286D01*
X60288429Y11105929D01*
X60288429Y10933571D01*
X60342858Y10933571D01*
X60397286Y10933571D01*
X60397286Y10652357D01*
X60397286Y10371143D01*
X60397286Y10371143D01*
X60397286Y10371143D01*
G37*
X60397286Y10371143D02*
X60125143Y10371143D01*
X59853000Y10371143D01*
X59853000Y10652357D01*
X59853000Y10933571D01*
X59916500Y10933571D01*
X59980000Y10933571D01*
X59980000Y11105929D01*
X59980000Y11278286D01*
X60134215Y11278286D01*
X60288429Y11278286D01*
X60288429Y11105929D01*
X60288429Y10933571D01*
X60342858Y10933571D01*
X60397286Y10933571D01*
X60397286Y10652357D01*
X60397286Y10371143D01*
X60397286Y10371143D01*
G36*
X61358858Y10371143D02*
X61086715Y10371143D01*
X60814572Y10371143D01*
X60814572Y10652357D01*
X60814572Y10933571D01*
X60869000Y10933571D01*
X60923429Y10933571D01*
X60923429Y11105929D01*
X60923429Y11278286D01*
X61077643Y11278286D01*
X61231858Y11278286D01*
X61231858Y11105929D01*
X61231858Y10933571D01*
X61295358Y10933571D01*
X61358858Y10933571D01*
X61358858Y10652357D01*
X61358858Y10371143D01*
X61358858Y10371143D01*
X61358858Y10371143D01*
G37*
X61358858Y10371143D02*
X61086715Y10371143D01*
X60814572Y10371143D01*
X60814572Y10652357D01*
X60814572Y10933571D01*
X60869000Y10933571D01*
X60923429Y10933571D01*
X60923429Y11105929D01*
X60923429Y11278286D01*
X61077643Y11278286D01*
X61231858Y11278286D01*
X61231858Y11105929D01*
X61231858Y10933571D01*
X61295358Y10933571D01*
X61358858Y10933571D01*
X61358858Y10652357D01*
X61358858Y10371143D01*
X61358858Y10371143D01*
G36*
X61159286Y4547547D02*
X60979747Y4365988D01*
X60800208Y4184429D01*
X60478873Y4184429D01*
X60478873Y6885839D01*
X60469094Y7028687D01*
X60449081Y7155723D01*
X60437684Y7201234D01*
X60387769Y7342950D01*
X60317453Y7497697D01*
X60232675Y7653550D01*
X60141994Y7794857D01*
X60072461Y7884482D01*
X59981111Y7988229D01*
X59875375Y8098743D01*
X59762684Y8208670D01*
X59650470Y8310655D01*
X59546162Y8397343D01*
X59493139Y8437059D01*
X59342599Y8544046D01*
X59266693Y8502017D01*
X59023691Y8352628D01*
X58805882Y8188221D01*
X58615383Y8011035D01*
X58454311Y7823307D01*
X58324784Y7627274D01*
X58228917Y7425176D01*
X58216756Y7392178D01*
X58186057Y7300156D01*
X58170155Y7234966D01*
X58169160Y7190260D01*
X58183186Y7159689D01*
X58212342Y7136903D01*
X58221319Y7132035D01*
X58260433Y7105423D01*
X58313960Y7060823D01*
X58371671Y7006880D01*
X58383890Y6994641D01*
X58496818Y6855457D01*
X58578862Y6698473D01*
X58630091Y6523326D01*
X58650577Y6329654D01*
X58640390Y6117095D01*
X58600201Y5887877D01*
X58559937Y5713540D01*
X58632320Y5615559D01*
X58683191Y5550264D01*
X58745217Y5475623D01*
X58801152Y5412047D01*
X58897601Y5306516D01*
X58867647Y5221722D01*
X58844514Y5148774D01*
X58821808Y5064676D01*
X58802188Y4980807D01*
X58788314Y4908550D01*
X58782845Y4859284D01*
X58782840Y4858770D01*
X58782572Y4816469D01*
X58841536Y4851442D01*
X58880173Y4874328D01*
X58941547Y4910649D01*
X59017160Y4955376D01*
X59097024Y5002600D01*
X59320557Y5144904D01*
X59536243Y5301819D01*
X59738047Y5468196D01*
X59919930Y5638889D01*
X60075855Y5808750D01*
X60146430Y5897375D01*
X60230703Y6021968D01*
X60310485Y6162587D01*
X60379523Y6306866D01*
X60431562Y6442439D01*
X60445434Y6488571D01*
X60467181Y6603166D01*
X60478281Y6739794D01*
X60478873Y6885839D01*
X60478873Y4184429D01*
X58707030Y4184429D01*
X58515111Y4184429D01*
X58515111Y6298071D01*
X58504821Y6451451D01*
X58470474Y6587435D01*
X58408265Y6718738D01*
X58371497Y6777684D01*
X58257301Y6921030D01*
X58110504Y7057879D01*
X57934590Y7185515D01*
X57733046Y7301222D01*
X57643955Y7344517D01*
X57485358Y7417835D01*
X57389672Y7311525D01*
X57261269Y7154212D01*
X57148956Y6987269D01*
X57055432Y6816398D01*
X56983397Y6647299D01*
X56935550Y6485673D01*
X56914592Y6337221D01*
X56913858Y6306717D01*
X56931718Y6129503D01*
X56984572Y5957514D01*
X57071330Y5792152D01*
X57190903Y5634822D01*
X57342199Y5486925D01*
X57524130Y5349865D01*
X57735605Y5225044D01*
X57766572Y5209099D01*
X57896620Y5144867D01*
X58008589Y5092869D01*
X58099691Y5054220D01*
X58167139Y5030035D01*
X58208145Y5021431D01*
X58220143Y5027657D01*
X58213516Y5052917D01*
X58196522Y5100575D01*
X58173494Y5159853D01*
X58148765Y5219974D01*
X58126666Y5270160D01*
X58111531Y5299634D01*
X58109917Y5301864D01*
X58107508Y5321911D01*
X58122534Y5359218D01*
X58156883Y5417480D01*
X58207880Y5493795D01*
X58319000Y5665786D01*
X58403021Y5821968D01*
X58462105Y5967996D01*
X58498410Y6109522D01*
X58514096Y6252201D01*
X58515111Y6298071D01*
X58515111Y4184429D01*
X56613852Y4184429D01*
X56428212Y4370703D01*
X56242572Y4556977D01*
X56242572Y6679705D01*
X56242572Y8802434D01*
X56428846Y8988074D01*
X56615120Y9173714D01*
X58706280Y9173714D01*
X60797440Y9173714D01*
X60978363Y8994428D01*
X61159286Y8815142D01*
X61159286Y6681344D01*
X61159286Y4547547D01*
X61159286Y4547547D01*
X61159286Y4547547D01*
G37*
X61159286Y4547547D02*
X60979747Y4365988D01*
X60800208Y4184429D01*
X60478873Y4184429D01*
X60478873Y6885839D01*
X60469094Y7028687D01*
X60449081Y7155723D01*
X60437684Y7201234D01*
X60387769Y7342950D01*
X60317453Y7497697D01*
X60232675Y7653550D01*
X60141994Y7794857D01*
X60072461Y7884482D01*
X59981111Y7988229D01*
X59875375Y8098743D01*
X59762684Y8208670D01*
X59650470Y8310655D01*
X59546162Y8397343D01*
X59493139Y8437059D01*
X59342599Y8544046D01*
X59266693Y8502017D01*
X59023691Y8352628D01*
X58805882Y8188221D01*
X58615383Y8011035D01*
X58454311Y7823307D01*
X58324784Y7627274D01*
X58228917Y7425176D01*
X58216756Y7392178D01*
X58186057Y7300156D01*
X58170155Y7234966D01*
X58169160Y7190260D01*
X58183186Y7159689D01*
X58212342Y7136903D01*
X58221319Y7132035D01*
X58260433Y7105423D01*
X58313960Y7060823D01*
X58371671Y7006880D01*
X58383890Y6994641D01*
X58496818Y6855457D01*
X58578862Y6698473D01*
X58630091Y6523326D01*
X58650577Y6329654D01*
X58640390Y6117095D01*
X58600201Y5887877D01*
X58559937Y5713540D01*
X58632320Y5615559D01*
X58683191Y5550264D01*
X58745217Y5475623D01*
X58801152Y5412047D01*
X58897601Y5306516D01*
X58867647Y5221722D01*
X58844514Y5148774D01*
X58821808Y5064676D01*
X58802188Y4980807D01*
X58788314Y4908550D01*
X58782845Y4859284D01*
X58782840Y4858770D01*
X58782572Y4816469D01*
X58841536Y4851442D01*
X58880173Y4874328D01*
X58941547Y4910649D01*
X59017160Y4955376D01*
X59097024Y5002600D01*
X59320557Y5144904D01*
X59536243Y5301819D01*
X59738047Y5468196D01*
X59919930Y5638889D01*
X60075855Y5808750D01*
X60146430Y5897375D01*
X60230703Y6021968D01*
X60310485Y6162587D01*
X60379523Y6306866D01*
X60431562Y6442439D01*
X60445434Y6488571D01*
X60467181Y6603166D01*
X60478281Y6739794D01*
X60478873Y6885839D01*
X60478873Y4184429D01*
X58707030Y4184429D01*
X58515111Y4184429D01*
X58515111Y6298071D01*
X58504821Y6451451D01*
X58470474Y6587435D01*
X58408265Y6718738D01*
X58371497Y6777684D01*
X58257301Y6921030D01*
X58110504Y7057879D01*
X57934590Y7185515D01*
X57733046Y7301222D01*
X57643955Y7344517D01*
X57485358Y7417835D01*
X57389672Y7311525D01*
X57261269Y7154212D01*
X57148956Y6987269D01*
X57055432Y6816398D01*
X56983397Y6647299D01*
X56935550Y6485673D01*
X56914592Y6337221D01*
X56913858Y6306717D01*
X56931718Y6129503D01*
X56984572Y5957514D01*
X57071330Y5792152D01*
X57190903Y5634822D01*
X57342199Y5486925D01*
X57524130Y5349865D01*
X57735605Y5225044D01*
X57766572Y5209099D01*
X57896620Y5144867D01*
X58008589Y5092869D01*
X58099691Y5054220D01*
X58167139Y5030035D01*
X58208145Y5021431D01*
X58220143Y5027657D01*
X58213516Y5052917D01*
X58196522Y5100575D01*
X58173494Y5159853D01*
X58148765Y5219974D01*
X58126666Y5270160D01*
X58111531Y5299634D01*
X58109917Y5301864D01*
X58107508Y5321911D01*
X58122534Y5359218D01*
X58156883Y5417480D01*
X58207880Y5493795D01*
X58319000Y5665786D01*
X58403021Y5821968D01*
X58462105Y5967996D01*
X58498410Y6109522D01*
X58514096Y6252201D01*
X58515111Y6298071D01*
X58515111Y4184429D01*
X56613852Y4184429D01*
X56428212Y4370703D01*
X56242572Y4556977D01*
X56242572Y6679705D01*
X56242572Y8802434D01*
X56428846Y8988074D01*
X56615120Y9173714D01*
X58706280Y9173714D01*
X60797440Y9173714D01*
X60978363Y8994428D01*
X61159286Y8815142D01*
X61159286Y6681344D01*
X61159286Y4547547D01*
X61159286Y4547547D01*
G36*
X59864703Y7305000D02*
X59864075Y7292181D01*
X59848781Y7264179D01*
X59775410Y7141110D01*
X59701687Y6999313D01*
X59632410Y6849477D01*
X59572376Y6702291D01*
X59526384Y6568446D01*
X59510062Y6509502D01*
X59483889Y6400496D01*
X59467364Y6322602D01*
X59460006Y6272088D01*
X59461334Y6245224D01*
X59470866Y6238278D01*
X59475258Y6239522D01*
X59501890Y6251231D01*
X59552293Y6274009D01*
X59617297Y6303702D01*
X59643996Y6315970D01*
X59788777Y6382603D01*
X59662083Y6258694D01*
X59589461Y6185163D01*
X59510739Y6101528D01*
X59440547Y6023409D01*
X59427081Y6007786D01*
X59366999Y5937995D01*
X59304622Y5866605D01*
X59251403Y5806701D01*
X59241173Y5795384D01*
X59163572Y5709983D01*
X59163572Y5864185D01*
X59153548Y6030953D01*
X59125282Y6197011D01*
X59081480Y6348100D01*
X59062696Y6395465D01*
X59040360Y6448876D01*
X59032732Y6473152D01*
X59039251Y6472072D01*
X59053661Y6456220D01*
X59130021Y6367529D01*
X59187122Y6305133D01*
X59227729Y6266490D01*
X59254603Y6249055D01*
X59270509Y6250284D01*
X59273486Y6253803D01*
X59285015Y6293692D01*
X59289980Y6360009D01*
X59288769Y6443569D01*
X59281772Y6535188D01*
X59269378Y6625681D01*
X59254794Y6695228D01*
X59211356Y6828289D01*
X59151073Y6962089D01*
X59080604Y7083248D01*
X59023968Y7159066D01*
X58990149Y7201974D01*
X58970840Y7233288D01*
X58969112Y7243587D01*
X58989824Y7241327D01*
X59033052Y7223837D01*
X59090613Y7195232D01*
X59154323Y7159627D01*
X59216002Y7121138D01*
X59225998Y7114398D01*
X59269806Y7085919D01*
X59294729Y7076905D01*
X59311320Y7085603D01*
X59321619Y7098530D01*
X59352156Y7162665D01*
X59373767Y7255568D01*
X59385787Y7370674D01*
X59387549Y7501419D01*
X59378389Y7641236D01*
X59377484Y7649714D01*
X59371079Y7711500D01*
X59369759Y7741169D01*
X59374445Y7742653D01*
X59386058Y7719882D01*
X59391237Y7708447D01*
X59414670Y7647489D01*
X59442389Y7561949D01*
X59471278Y7462767D01*
X59498219Y7360884D01*
X59520097Y7267238D01*
X59527709Y7229372D01*
X59539880Y7165908D01*
X59550164Y7115264D01*
X59555698Y7090970D01*
X59571889Y7090564D01*
X59611554Y7113265D01*
X59671791Y7157258D01*
X59708159Y7186220D01*
X59769638Y7235478D01*
X59820501Y7274765D01*
X59854382Y7299250D01*
X59864703Y7305000D01*
X59864703Y7305000D01*
X59864703Y7305000D01*
G37*
X59864703Y7305000D02*
X59864075Y7292181D01*
X59848781Y7264179D01*
X59775410Y7141110D01*
X59701687Y6999313D01*
X59632410Y6849477D01*
X59572376Y6702291D01*
X59526384Y6568446D01*
X59510062Y6509502D01*
X59483889Y6400496D01*
X59467364Y6322602D01*
X59460006Y6272088D01*
X59461334Y6245224D01*
X59470866Y6238278D01*
X59475258Y6239522D01*
X59501890Y6251231D01*
X59552293Y6274009D01*
X59617297Y6303702D01*
X59643996Y6315970D01*
X59788777Y6382603D01*
X59662083Y6258694D01*
X59589461Y6185163D01*
X59510739Y6101528D01*
X59440547Y6023409D01*
X59427081Y6007786D01*
X59366999Y5937995D01*
X59304622Y5866605D01*
X59251403Y5806701D01*
X59241173Y5795384D01*
X59163572Y5709983D01*
X59163572Y5864185D01*
X59153548Y6030953D01*
X59125282Y6197011D01*
X59081480Y6348100D01*
X59062696Y6395465D01*
X59040360Y6448876D01*
X59032732Y6473152D01*
X59039251Y6472072D01*
X59053661Y6456220D01*
X59130021Y6367529D01*
X59187122Y6305133D01*
X59227729Y6266490D01*
X59254603Y6249055D01*
X59270509Y6250284D01*
X59273486Y6253803D01*
X59285015Y6293692D01*
X59289980Y6360009D01*
X59288769Y6443569D01*
X59281772Y6535188D01*
X59269378Y6625681D01*
X59254794Y6695228D01*
X59211356Y6828289D01*
X59151073Y6962089D01*
X59080604Y7083248D01*
X59023968Y7159066D01*
X58990149Y7201974D01*
X58970840Y7233288D01*
X58969112Y7243587D01*
X58989824Y7241327D01*
X59033052Y7223837D01*
X59090613Y7195232D01*
X59154323Y7159627D01*
X59216002Y7121138D01*
X59225998Y7114398D01*
X59269806Y7085919D01*
X59294729Y7076905D01*
X59311320Y7085603D01*
X59321619Y7098530D01*
X59352156Y7162665D01*
X59373767Y7255568D01*
X59385787Y7370674D01*
X59387549Y7501419D01*
X59378389Y7641236D01*
X59377484Y7649714D01*
X59371079Y7711500D01*
X59369759Y7741169D01*
X59374445Y7742653D01*
X59386058Y7719882D01*
X59391237Y7708447D01*
X59414670Y7647489D01*
X59442389Y7561949D01*
X59471278Y7462767D01*
X59498219Y7360884D01*
X59520097Y7267238D01*
X59527709Y7229372D01*
X59539880Y7165908D01*
X59550164Y7115264D01*
X59555698Y7090970D01*
X59571889Y7090564D01*
X59611554Y7113265D01*
X59671791Y7157258D01*
X59708159Y7186220D01*
X59769638Y7235478D01*
X59820501Y7274765D01*
X59854382Y7299250D01*
X59864703Y7305000D01*
X59864703Y7305000D01*
G36*
X59359267Y7785421D02*
X59357096Y7782762D01*
X59346310Y7785252D01*
X59345000Y7794857D01*
X59351639Y7809791D01*
X59357096Y7806952D01*
X59359267Y7785421D01*
X59359267Y7785421D01*
X59359267Y7785421D01*
G37*
X59359267Y7785421D02*
X59357096Y7782762D01*
X59346310Y7785252D01*
X59345000Y7794857D01*
X59351639Y7809791D01*
X59357096Y7806952D01*
X59359267Y7785421D01*
X59359267Y7785421D01*
G36*
X57907300Y5604845D02*
X57888392Y5605966D01*
X57846723Y5634581D01*
X57821000Y5656085D01*
X57778180Y5691621D01*
X57716623Y5740742D01*
X57646635Y5795280D01*
X57612358Y5821525D01*
X57548487Y5871223D01*
X57512158Y5902676D01*
X57501098Y5918320D01*
X57513035Y5920595D01*
X57521643Y5918825D01*
X57575864Y5905748D01*
X57616893Y5895823D01*
X57649696Y5895553D01*
X57657715Y5913260D01*
X57648341Y5950050D01*
X57623004Y6009389D01*
X57585884Y6083648D01*
X57541159Y6165194D01*
X57493009Y6246395D01*
X57445611Y6319619D01*
X57404741Y6375270D01*
X57361993Y6429392D01*
X57329867Y6472431D01*
X57313851Y6496958D01*
X57313000Y6499466D01*
X57327257Y6496921D01*
X57364502Y6479766D01*
X57412786Y6453862D01*
X57512572Y6397547D01*
X57513711Y6502023D01*
X57517709Y6575291D01*
X57527033Y6663974D01*
X57538641Y6742571D01*
X57562432Y6878643D01*
X57564716Y6777614D01*
X57572885Y6688933D01*
X57591414Y6598082D01*
X57616989Y6517971D01*
X57645660Y6462369D01*
X57661748Y6444094D01*
X57679030Y6441574D01*
X57706550Y6457332D01*
X57750532Y6491621D01*
X57808366Y6537143D01*
X57841157Y6558667D01*
X57851716Y6555445D01*
X57842860Y6526727D01*
X57818282Y6473597D01*
X57766551Y6328526D01*
X57743912Y6175111D01*
X57749269Y6046219D01*
X57762477Y5970879D01*
X57777709Y5930482D01*
X57797236Y5923687D01*
X57823328Y5949153D01*
X57848116Y5987837D01*
X57876266Y6034295D01*
X57896395Y6064591D01*
X57902439Y6071286D01*
X57902053Y6055554D01*
X57894759Y6015870D01*
X57889938Y5994179D01*
X57882406Y5936067D01*
X57880076Y5858873D01*
X57882477Y5775507D01*
X57889141Y5698881D01*
X57899599Y5641907D01*
X57903109Y5631321D01*
X57907300Y5604845D01*
X57907300Y5604845D01*
X57907300Y5604845D01*
G37*
X57907300Y5604845D02*
X57888392Y5605966D01*
X57846723Y5634581D01*
X57821000Y5656085D01*
X57778180Y5691621D01*
X57716623Y5740742D01*
X57646635Y5795280D01*
X57612358Y5821525D01*
X57548487Y5871223D01*
X57512158Y5902676D01*
X57501098Y5918320D01*
X57513035Y5920595D01*
X57521643Y5918825D01*
X57575864Y5905748D01*
X57616893Y5895823D01*
X57649696Y5895553D01*
X57657715Y5913260D01*
X57648341Y5950050D01*
X57623004Y6009389D01*
X57585884Y6083648D01*
X57541159Y6165194D01*
X57493009Y6246395D01*
X57445611Y6319619D01*
X57404741Y6375270D01*
X57361993Y6429392D01*
X57329867Y6472431D01*
X57313851Y6496958D01*
X57313000Y6499466D01*
X57327257Y6496921D01*
X57364502Y6479766D01*
X57412786Y6453862D01*
X57512572Y6397547D01*
X57513711Y6502023D01*
X57517709Y6575291D01*
X57527033Y6663974D01*
X57538641Y6742571D01*
X57562432Y6878643D01*
X57564716Y6777614D01*
X57572885Y6688933D01*
X57591414Y6598082D01*
X57616989Y6517971D01*
X57645660Y6462369D01*
X57661748Y6444094D01*
X57679030Y6441574D01*
X57706550Y6457332D01*
X57750532Y6491621D01*
X57808366Y6537143D01*
X57841157Y6558667D01*
X57851716Y6555445D01*
X57842860Y6526727D01*
X57818282Y6473597D01*
X57766551Y6328526D01*
X57743912Y6175111D01*
X57749269Y6046219D01*
X57762477Y5970879D01*
X57777709Y5930482D01*
X57797236Y5923687D01*
X57823328Y5949153D01*
X57848116Y5987837D01*
X57876266Y6034295D01*
X57896395Y6064591D01*
X57902439Y6071286D01*
X57902053Y6055554D01*
X57894759Y6015870D01*
X57889938Y5994179D01*
X57882406Y5936067D01*
X57880076Y5858873D01*
X57882477Y5775507D01*
X57889141Y5698881D01*
X57899599Y5641907D01*
X57903109Y5631321D01*
X57907300Y5604845D01*
X57907300Y5604845D01*
G36*
X57458143Y5935214D02*
X57449072Y5926143D01*
X57440000Y5935214D01*
X57449072Y5944286D01*
X57458143Y5935214D01*
X57458143Y5935214D01*
X57458143Y5935214D01*
G37*
X57458143Y5935214D02*
X57449072Y5926143D01*
X57440000Y5935214D01*
X57449072Y5944286D01*
X57458143Y5935214D01*
X57458143Y5935214D01*
D12*
X27025714Y-2464286D02*
X27063810Y-2502381D01*
X27101905Y-2616667D01*
X27101905Y-2692857D01*
X27063810Y-2807143D01*
X26987619Y-2883334D01*
X26911429Y-2921429D01*
X26759048Y-2959524D01*
X26644762Y-2959524D01*
X26492381Y-2921429D01*
X26416190Y-2883334D01*
X26340000Y-2807143D01*
X26301905Y-2692857D01*
X26301905Y-2616667D01*
X26340000Y-2502381D01*
X26378095Y-2464286D01*
X27101905Y-1702381D02*
X27101905Y-2159524D01*
X27101905Y-1930953D02*
X26301905Y-1930953D01*
X26416190Y-2007143D01*
X26492381Y-2083334D01*
X26530476Y-2159524D01*
X27101905Y-1321429D02*
X27101905Y-1169048D01*
X27063810Y-1092857D01*
X27025714Y-1054762D01*
X26911429Y-978571D01*
X26759048Y-940476D01*
X26454286Y-940476D01*
X26378095Y-978571D01*
X26340000Y-1016667D01*
X26301905Y-1092857D01*
X26301905Y-1245238D01*
X26340000Y-1321429D01*
X26378095Y-1359524D01*
X26454286Y-1397619D01*
X26644762Y-1397619D01*
X26720952Y-1359524D01*
X26759048Y-1321429D01*
X26797143Y-1245238D01*
X26797143Y-1092857D01*
X26759048Y-1016667D01*
X26720952Y-978571D01*
X26644762Y-940476D01*
X-897142Y-2622857D02*
X-1163809Y-2622857D01*
X-1163809Y-3041905D02*
X-1163809Y-2241905D01*
X-782856Y-2241905D01*
X-478095Y-3041905D02*
X-478095Y-2241905D01*
X-97143Y-3041905D02*
X-97143Y-2241905D01*
X93333Y-2241905D01*
X207619Y-2280000D01*
X283810Y-2356190D01*
X321905Y-2432381D01*
X360000Y-2584762D01*
X360000Y-2699048D01*
X321905Y-2851429D01*
X283810Y-2927619D01*
X207619Y-3003810D01*
X93333Y-3041905D01*
X-97143Y-3041905D01*
X1121905Y-3041905D02*
X664762Y-3041905D01*
X893333Y-3041905D02*
X893333Y-2241905D01*
X817143Y-2356190D01*
X740952Y-2432381D01*
X664762Y-2470476D01*
X76942858Y-2512857D02*
X76676191Y-2512857D01*
X76676191Y-2931905D02*
X76676191Y-2131905D01*
X77057144Y-2131905D01*
X77361905Y-2931905D02*
X77361905Y-2131905D01*
X77742857Y-2931905D02*
X77742857Y-2131905D01*
X77933333Y-2131905D01*
X78047619Y-2170000D01*
X78123810Y-2246190D01*
X78161905Y-2322381D01*
X78200000Y-2474762D01*
X78200000Y-2589048D01*
X78161905Y-2741429D01*
X78123810Y-2817619D01*
X78047619Y-2893810D01*
X77933333Y-2931905D01*
X77742857Y-2931905D01*
X78504762Y-2208095D02*
X78542857Y-2170000D01*
X78619048Y-2131905D01*
X78809524Y-2131905D01*
X78885714Y-2170000D01*
X78923810Y-2208095D01*
X78961905Y-2284286D01*
X78961905Y-2360476D01*
X78923810Y-2474762D01*
X78466667Y-2931905D01*
X78961905Y-2931905D01*
X-897142Y44847143D02*
X-1163809Y44847143D01*
X-1163809Y44428095D02*
X-1163809Y45228095D01*
X-782856Y45228095D01*
X-478095Y44428095D02*
X-478095Y45228095D01*
X-97143Y44428095D02*
X-97143Y45228095D01*
X93333Y45228095D01*
X207619Y45190000D01*
X283810Y45113810D01*
X321905Y45037619D01*
X360000Y44885238D01*
X360000Y44770952D01*
X321905Y44618571D01*
X283810Y44542381D01*
X207619Y44466190D01*
X93333Y44428095D01*
X-97143Y44428095D01*
X626667Y45228095D02*
X1121905Y45228095D01*
X855238Y44923333D01*
X969524Y44923333D01*
X1045714Y44885238D01*
X1083810Y44847143D01*
X1121905Y44770952D01*
X1121905Y44580476D01*
X1083810Y44504286D01*
X1045714Y44466190D01*
X969524Y44428095D01*
X740952Y44428095D01*
X664762Y44466190D01*
X626667Y44504286D01*
X32820476Y-801905D02*
X32820476Y-1449524D01*
X32858571Y-1525714D01*
X32896667Y-1563810D01*
X32972857Y-1601905D01*
X33125238Y-1601905D01*
X33201429Y-1563810D01*
X33239524Y-1525714D01*
X33277619Y-1449524D01*
X33277619Y-801905D01*
X34001428Y-801905D02*
X33849047Y-801905D01*
X33772857Y-840000D01*
X33734762Y-878095D01*
X33658571Y-992381D01*
X33620476Y-1144762D01*
X33620476Y-1449524D01*
X33658571Y-1525714D01*
X33696666Y-1563810D01*
X33772857Y-1601905D01*
X33925238Y-1601905D01*
X34001428Y-1563810D01*
X34039524Y-1525714D01*
X34077619Y-1449524D01*
X34077619Y-1259048D01*
X34039524Y-1182857D01*
X34001428Y-1144762D01*
X33925238Y-1106667D01*
X33772857Y-1106667D01*
X33696666Y-1144762D01*
X33658571Y-1182857D01*
X33620476Y-1259048D01*
X27793810Y23191905D02*
X27717619Y23230000D01*
X27641429Y23306190D01*
X27527143Y23420476D01*
X27450952Y23458571D01*
X27374762Y23458571D01*
X27412857Y23268095D02*
X27336667Y23306190D01*
X27260476Y23382381D01*
X27222381Y23534762D01*
X27222381Y23801429D01*
X27260476Y23953810D01*
X27336667Y24030000D01*
X27412857Y24068095D01*
X27565238Y24068095D01*
X27641429Y24030000D01*
X27717619Y23953810D01*
X27755714Y23801429D01*
X27755714Y23534762D01*
X27717619Y23382381D01*
X27641429Y23306190D01*
X27565238Y23268095D01*
X27412857Y23268095D01*
X28517619Y23268095D02*
X28060476Y23268095D01*
X28289047Y23268095D02*
X28289047Y24068095D01*
X28212857Y23953810D01*
X28136666Y23877619D01*
X28060476Y23839524D01*
X5140476Y34068095D02*
X5140476Y33420476D01*
X5178571Y33344286D01*
X5216667Y33306190D01*
X5292857Y33268095D01*
X5445238Y33268095D01*
X5521429Y33306190D01*
X5559524Y33344286D01*
X5597619Y33420476D01*
X5597619Y34068095D01*
X6397619Y33268095D02*
X5940476Y33268095D01*
X6169047Y33268095D02*
X6169047Y34068095D01*
X6092857Y33953810D01*
X6016666Y33877619D01*
X5940476Y33839524D01*
X3775714Y30476667D02*
X3813810Y30438572D01*
X3851905Y30324286D01*
X3851905Y30248096D01*
X3813810Y30133810D01*
X3737619Y30057619D01*
X3661429Y30019524D01*
X3509048Y29981429D01*
X3394762Y29981429D01*
X3242381Y30019524D01*
X3166190Y30057619D01*
X3090000Y30133810D01*
X3051905Y30248096D01*
X3051905Y30324286D01*
X3090000Y30438572D01*
X3128095Y30476667D01*
X3851905Y31238572D02*
X3851905Y30781429D01*
X3851905Y31010000D02*
X3051905Y31010000D01*
X3166190Y30933810D01*
X3242381Y30857619D01*
X3280476Y30781429D01*
X9895714Y32996667D02*
X9933810Y32958572D01*
X9971905Y32844286D01*
X9971905Y32768096D01*
X9933810Y32653810D01*
X9857619Y32577619D01*
X9781429Y32539524D01*
X9629048Y32501429D01*
X9514762Y32501429D01*
X9362381Y32539524D01*
X9286190Y32577619D01*
X9210000Y32653810D01*
X9171905Y32768096D01*
X9171905Y32844286D01*
X9210000Y32958572D01*
X9248095Y32996667D01*
X9248095Y33301429D02*
X9210000Y33339524D01*
X9171905Y33415715D01*
X9171905Y33606191D01*
X9210000Y33682381D01*
X9248095Y33720477D01*
X9324286Y33758572D01*
X9400476Y33758572D01*
X9514762Y33720477D01*
X9971905Y33263334D01*
X9971905Y33758572D01*
X12696667Y12544286D02*
X12658572Y12506190D01*
X12544286Y12468095D01*
X12468096Y12468095D01*
X12353810Y12506190D01*
X12277619Y12582381D01*
X12239524Y12658571D01*
X12201429Y12810952D01*
X12201429Y12925238D01*
X12239524Y13077619D01*
X12277619Y13153810D01*
X12353810Y13230000D01*
X12468096Y13268095D01*
X12544286Y13268095D01*
X12658572Y13230000D01*
X12696667Y13191905D01*
X12963334Y13268095D02*
X13458572Y13268095D01*
X13191905Y12963333D01*
X13306191Y12963333D01*
X13382381Y12925238D01*
X13420477Y12887143D01*
X13458572Y12810952D01*
X13458572Y12620476D01*
X13420477Y12544286D01*
X13382381Y12506190D01*
X13306191Y12468095D01*
X13077619Y12468095D01*
X13001429Y12506190D01*
X12963334Y12544286D01*
X25775714Y17966667D02*
X25813810Y17928572D01*
X25851905Y17814286D01*
X25851905Y17738096D01*
X25813810Y17623810D01*
X25737619Y17547619D01*
X25661429Y17509524D01*
X25509048Y17471429D01*
X25394762Y17471429D01*
X25242381Y17509524D01*
X25166190Y17547619D01*
X25090000Y17623810D01*
X25051905Y17738096D01*
X25051905Y17814286D01*
X25090000Y17928572D01*
X25128095Y17966667D01*
X25318571Y18652381D02*
X25851905Y18652381D01*
X25013810Y18461905D02*
X25585238Y18271429D01*
X25585238Y18766667D01*
X19485714Y32846667D02*
X19523810Y32808572D01*
X19561905Y32694286D01*
X19561905Y32618096D01*
X19523810Y32503810D01*
X19447619Y32427619D01*
X19371429Y32389524D01*
X19219048Y32351429D01*
X19104762Y32351429D01*
X18952381Y32389524D01*
X18876190Y32427619D01*
X18800000Y32503810D01*
X18761905Y32618096D01*
X18761905Y32694286D01*
X18800000Y32808572D01*
X18838095Y32846667D01*
X18761905Y33570477D02*
X18761905Y33189524D01*
X19142857Y33151429D01*
X19104762Y33189524D01*
X19066667Y33265715D01*
X19066667Y33456191D01*
X19104762Y33532381D01*
X19142857Y33570477D01*
X19219048Y33608572D01*
X19409524Y33608572D01*
X19485714Y33570477D01*
X19523810Y33532381D01*
X19561905Y33456191D01*
X19561905Y33265715D01*
X19523810Y33189524D01*
X19485714Y33151429D01*
X11475714Y32966667D02*
X11513810Y32928572D01*
X11551905Y32814286D01*
X11551905Y32738096D01*
X11513810Y32623810D01*
X11437619Y32547619D01*
X11361429Y32509524D01*
X11209048Y32471429D01*
X11094762Y32471429D01*
X10942381Y32509524D01*
X10866190Y32547619D01*
X10790000Y32623810D01*
X10751905Y32738096D01*
X10751905Y32814286D01*
X10790000Y32928572D01*
X10828095Y32966667D01*
X10751905Y33652381D02*
X10751905Y33500000D01*
X10790000Y33423810D01*
X10828095Y33385715D01*
X10942381Y33309524D01*
X11094762Y33271429D01*
X11399524Y33271429D01*
X11475714Y33309524D01*
X11513810Y33347619D01*
X11551905Y33423810D01*
X11551905Y33576191D01*
X11513810Y33652381D01*
X11475714Y33690477D01*
X11399524Y33728572D01*
X11209048Y33728572D01*
X11132857Y33690477D01*
X11094762Y33652381D01*
X11056667Y33576191D01*
X11056667Y33423810D01*
X11094762Y33347619D01*
X11132857Y33309524D01*
X11209048Y33271429D01*
X2156667Y20954286D02*
X2118572Y20916190D01*
X2004286Y20878095D01*
X1928096Y20878095D01*
X1813810Y20916190D01*
X1737619Y20992381D01*
X1699524Y21068571D01*
X1661429Y21220952D01*
X1661429Y21335238D01*
X1699524Y21487619D01*
X1737619Y21563810D01*
X1813810Y21640000D01*
X1928096Y21678095D01*
X2004286Y21678095D01*
X2118572Y21640000D01*
X2156667Y21601905D01*
X2423334Y21678095D02*
X2956667Y21678095D01*
X2613810Y20878095D01*
X12885714Y32946667D02*
X12923810Y32908572D01*
X12961905Y32794286D01*
X12961905Y32718096D01*
X12923810Y32603810D01*
X12847619Y32527619D01*
X12771429Y32489524D01*
X12619048Y32451429D01*
X12504762Y32451429D01*
X12352381Y32489524D01*
X12276190Y32527619D01*
X12200000Y32603810D01*
X12161905Y32718096D01*
X12161905Y32794286D01*
X12200000Y32908572D01*
X12238095Y32946667D01*
X12504762Y33403810D02*
X12466667Y33327619D01*
X12428571Y33289524D01*
X12352381Y33251429D01*
X12314286Y33251429D01*
X12238095Y33289524D01*
X12200000Y33327619D01*
X12161905Y33403810D01*
X12161905Y33556191D01*
X12200000Y33632381D01*
X12238095Y33670477D01*
X12314286Y33708572D01*
X12352381Y33708572D01*
X12428571Y33670477D01*
X12466667Y33632381D01*
X12504762Y33556191D01*
X12504762Y33403810D01*
X12542857Y33327619D01*
X12580952Y33289524D01*
X12657143Y33251429D01*
X12809524Y33251429D01*
X12885714Y33289524D01*
X12923810Y33327619D01*
X12961905Y33403810D01*
X12961905Y33556191D01*
X12923810Y33632381D01*
X12885714Y33670477D01*
X12809524Y33708572D01*
X12657143Y33708572D01*
X12580952Y33670477D01*
X12542857Y33632381D01*
X12504762Y33556191D01*
X16246667Y9374286D02*
X16208572Y9336190D01*
X16094286Y9298095D01*
X16018096Y9298095D01*
X15903810Y9336190D01*
X15827619Y9412381D01*
X15789524Y9488571D01*
X15751429Y9640952D01*
X15751429Y9755238D01*
X15789524Y9907619D01*
X15827619Y9983810D01*
X15903810Y10060000D01*
X16018096Y10098095D01*
X16094286Y10098095D01*
X16208572Y10060000D01*
X16246667Y10021905D01*
X16627619Y9298095D02*
X16780000Y9298095D01*
X16856191Y9336190D01*
X16894286Y9374286D01*
X16970477Y9488571D01*
X17008572Y9640952D01*
X17008572Y9945714D01*
X16970477Y10021905D01*
X16932381Y10060000D01*
X16856191Y10098095D01*
X16703810Y10098095D01*
X16627619Y10060000D01*
X16589524Y10021905D01*
X16551429Y9945714D01*
X16551429Y9755238D01*
X16589524Y9679048D01*
X16627619Y9640952D01*
X16703810Y9602857D01*
X16856191Y9602857D01*
X16932381Y9640952D01*
X16970477Y9679048D01*
X17008572Y9755238D01*
X19035714Y9434286D02*
X18997619Y9396190D01*
X18883333Y9358095D01*
X18807143Y9358095D01*
X18692857Y9396190D01*
X18616666Y9472381D01*
X18578571Y9548571D01*
X18540476Y9700952D01*
X18540476Y9815238D01*
X18578571Y9967619D01*
X18616666Y10043810D01*
X18692857Y10120000D01*
X18807143Y10158095D01*
X18883333Y10158095D01*
X18997619Y10120000D01*
X19035714Y10081905D01*
X19797619Y9358095D02*
X19340476Y9358095D01*
X19569047Y9358095D02*
X19569047Y10158095D01*
X19492857Y10043810D01*
X19416666Y9967619D01*
X19340476Y9929524D01*
X20292857Y10158095D02*
X20369048Y10158095D01*
X20445238Y10120000D01*
X20483333Y10081905D01*
X20521429Y10005714D01*
X20559524Y9853333D01*
X20559524Y9662857D01*
X20521429Y9510476D01*
X20483333Y9434286D01*
X20445238Y9396190D01*
X20369048Y9358095D01*
X20292857Y9358095D01*
X20216667Y9396190D01*
X20178571Y9434286D01*
X20140476Y9510476D01*
X20102381Y9662857D01*
X20102381Y9853333D01*
X20140476Y10005714D01*
X20178571Y10081905D01*
X20216667Y10120000D01*
X20292857Y10158095D01*
X50465714Y21644286D02*
X50427619Y21606190D01*
X50313333Y21568095D01*
X50237143Y21568095D01*
X50122857Y21606190D01*
X50046666Y21682381D01*
X50008571Y21758571D01*
X49970476Y21910952D01*
X49970476Y22025238D01*
X50008571Y22177619D01*
X50046666Y22253810D01*
X50122857Y22330000D01*
X50237143Y22368095D01*
X50313333Y22368095D01*
X50427619Y22330000D01*
X50465714Y22291905D01*
X51227619Y21568095D02*
X50770476Y21568095D01*
X50999047Y21568095D02*
X50999047Y22368095D01*
X50922857Y22253810D01*
X50846666Y22177619D01*
X50770476Y22139524D01*
X51989524Y21568095D02*
X51532381Y21568095D01*
X51760952Y21568095D02*
X51760952Y22368095D01*
X51684762Y22253810D01*
X51608571Y22177619D01*
X51532381Y22139524D01*
X50505714Y23044286D02*
X50467619Y23006190D01*
X50353333Y22968095D01*
X50277143Y22968095D01*
X50162857Y23006190D01*
X50086666Y23082381D01*
X50048571Y23158571D01*
X50010476Y23310952D01*
X50010476Y23425238D01*
X50048571Y23577619D01*
X50086666Y23653810D01*
X50162857Y23730000D01*
X50277143Y23768095D01*
X50353333Y23768095D01*
X50467619Y23730000D01*
X50505714Y23691905D01*
X51267619Y22968095D02*
X50810476Y22968095D01*
X51039047Y22968095D02*
X51039047Y23768095D01*
X50962857Y23653810D01*
X50886666Y23577619D01*
X50810476Y23539524D01*
X51572381Y23691905D02*
X51610476Y23730000D01*
X51686667Y23768095D01*
X51877143Y23768095D01*
X51953333Y23730000D01*
X51991429Y23691905D01*
X52029524Y23615714D01*
X52029524Y23539524D01*
X51991429Y23425238D01*
X51534286Y22968095D01*
X52029524Y22968095D01*
X43845714Y8245714D02*
X43883810Y8207619D01*
X43921905Y8093333D01*
X43921905Y8017143D01*
X43883810Y7902857D01*
X43807619Y7826666D01*
X43731429Y7788571D01*
X43579048Y7750476D01*
X43464762Y7750476D01*
X43312381Y7788571D01*
X43236190Y7826666D01*
X43160000Y7902857D01*
X43121905Y8017143D01*
X43121905Y8093333D01*
X43160000Y8207619D01*
X43198095Y8245714D01*
X43921905Y9007619D02*
X43921905Y8550476D01*
X43921905Y8779047D02*
X43121905Y8779047D01*
X43236190Y8702857D01*
X43312381Y8626666D01*
X43350476Y8550476D01*
X43121905Y9274286D02*
X43121905Y9769524D01*
X43426667Y9502857D01*
X43426667Y9617143D01*
X43464762Y9693333D01*
X43502857Y9731429D01*
X43579048Y9769524D01*
X43769524Y9769524D01*
X43845714Y9731429D01*
X43883810Y9693333D01*
X43921905Y9617143D01*
X43921905Y9388571D01*
X43883810Y9312381D01*
X43845714Y9274286D01*
X42305714Y8205714D02*
X42343810Y8167619D01*
X42381905Y8053333D01*
X42381905Y7977143D01*
X42343810Y7862857D01*
X42267619Y7786666D01*
X42191429Y7748571D01*
X42039048Y7710476D01*
X41924762Y7710476D01*
X41772381Y7748571D01*
X41696190Y7786666D01*
X41620000Y7862857D01*
X41581905Y7977143D01*
X41581905Y8053333D01*
X41620000Y8167619D01*
X41658095Y8205714D01*
X42381905Y8967619D02*
X42381905Y8510476D01*
X42381905Y8739047D02*
X41581905Y8739047D01*
X41696190Y8662857D01*
X41772381Y8586666D01*
X41810476Y8510476D01*
X41848571Y9653333D02*
X42381905Y9653333D01*
X41543810Y9462857D02*
X42115238Y9272381D01*
X42115238Y9767619D01*
X45355714Y8265714D02*
X45393810Y8227619D01*
X45431905Y8113333D01*
X45431905Y8037143D01*
X45393810Y7922857D01*
X45317619Y7846666D01*
X45241429Y7808571D01*
X45089048Y7770476D01*
X44974762Y7770476D01*
X44822381Y7808571D01*
X44746190Y7846666D01*
X44670000Y7922857D01*
X44631905Y8037143D01*
X44631905Y8113333D01*
X44670000Y8227619D01*
X44708095Y8265714D01*
X45431905Y9027619D02*
X45431905Y8570476D01*
X45431905Y8799047D02*
X44631905Y8799047D01*
X44746190Y8722857D01*
X44822381Y8646666D01*
X44860476Y8570476D01*
X44631905Y9751429D02*
X44631905Y9370476D01*
X45012857Y9332381D01*
X44974762Y9370476D01*
X44936667Y9446667D01*
X44936667Y9637143D01*
X44974762Y9713333D01*
X45012857Y9751429D01*
X45089048Y9789524D01*
X45279524Y9789524D01*
X45355714Y9751429D01*
X45393810Y9713333D01*
X45431905Y9637143D01*
X45431905Y9446667D01*
X45393810Y9370476D01*
X45355714Y9332381D01*
X40805714Y8225714D02*
X40843810Y8187619D01*
X40881905Y8073333D01*
X40881905Y7997143D01*
X40843810Y7882857D01*
X40767619Y7806666D01*
X40691429Y7768571D01*
X40539048Y7730476D01*
X40424762Y7730476D01*
X40272381Y7768571D01*
X40196190Y7806666D01*
X40120000Y7882857D01*
X40081905Y7997143D01*
X40081905Y8073333D01*
X40120000Y8187619D01*
X40158095Y8225714D01*
X40881905Y8987619D02*
X40881905Y8530476D01*
X40881905Y8759047D02*
X40081905Y8759047D01*
X40196190Y8682857D01*
X40272381Y8606666D01*
X40310476Y8530476D01*
X40081905Y9673333D02*
X40081905Y9520952D01*
X40120000Y9444762D01*
X40158095Y9406667D01*
X40272381Y9330476D01*
X40424762Y9292381D01*
X40729524Y9292381D01*
X40805714Y9330476D01*
X40843810Y9368571D01*
X40881905Y9444762D01*
X40881905Y9597143D01*
X40843810Y9673333D01*
X40805714Y9711429D01*
X40729524Y9749524D01*
X40539048Y9749524D01*
X40462857Y9711429D01*
X40424762Y9673333D01*
X40386667Y9597143D01*
X40386667Y9444762D01*
X40424762Y9368571D01*
X40462857Y9330476D01*
X40539048Y9292381D01*
X39295714Y8265714D02*
X39333810Y8227619D01*
X39371905Y8113333D01*
X39371905Y8037143D01*
X39333810Y7922857D01*
X39257619Y7846666D01*
X39181429Y7808571D01*
X39029048Y7770476D01*
X38914762Y7770476D01*
X38762381Y7808571D01*
X38686190Y7846666D01*
X38610000Y7922857D01*
X38571905Y8037143D01*
X38571905Y8113333D01*
X38610000Y8227619D01*
X38648095Y8265714D01*
X39371905Y9027619D02*
X39371905Y8570476D01*
X39371905Y8799047D02*
X38571905Y8799047D01*
X38686190Y8722857D01*
X38762381Y8646666D01*
X38800476Y8570476D01*
X38571905Y9294286D02*
X38571905Y9827619D01*
X39371905Y9484762D01*
X37775714Y8285714D02*
X37813810Y8247619D01*
X37851905Y8133333D01*
X37851905Y8057143D01*
X37813810Y7942857D01*
X37737619Y7866666D01*
X37661429Y7828571D01*
X37509048Y7790476D01*
X37394762Y7790476D01*
X37242381Y7828571D01*
X37166190Y7866666D01*
X37090000Y7942857D01*
X37051905Y8057143D01*
X37051905Y8133333D01*
X37090000Y8247619D01*
X37128095Y8285714D01*
X37851905Y9047619D02*
X37851905Y8590476D01*
X37851905Y8819047D02*
X37051905Y8819047D01*
X37166190Y8742857D01*
X37242381Y8666666D01*
X37280476Y8590476D01*
X37394762Y9504762D02*
X37356667Y9428571D01*
X37318571Y9390476D01*
X37242381Y9352381D01*
X37204286Y9352381D01*
X37128095Y9390476D01*
X37090000Y9428571D01*
X37051905Y9504762D01*
X37051905Y9657143D01*
X37090000Y9733333D01*
X37128095Y9771429D01*
X37204286Y9809524D01*
X37242381Y9809524D01*
X37318571Y9771429D01*
X37356667Y9733333D01*
X37394762Y9657143D01*
X37394762Y9504762D01*
X37432857Y9428571D01*
X37470952Y9390476D01*
X37547143Y9352381D01*
X37699524Y9352381D01*
X37775714Y9390476D01*
X37813810Y9428571D01*
X37851905Y9504762D01*
X37851905Y9657143D01*
X37813810Y9733333D01*
X37775714Y9771429D01*
X37699524Y9809524D01*
X37547143Y9809524D01*
X37470952Y9771429D01*
X37432857Y9733333D01*
X37394762Y9657143D01*
X58735714Y25444286D02*
X58697619Y25406190D01*
X58583333Y25368095D01*
X58507143Y25368095D01*
X58392857Y25406190D01*
X58316666Y25482381D01*
X58278571Y25558571D01*
X58240476Y25710952D01*
X58240476Y25825238D01*
X58278571Y25977619D01*
X58316666Y26053810D01*
X58392857Y26130000D01*
X58507143Y26168095D01*
X58583333Y26168095D01*
X58697619Y26130000D01*
X58735714Y26091905D01*
X59040476Y26091905D02*
X59078571Y26130000D01*
X59154762Y26168095D01*
X59345238Y26168095D01*
X59421428Y26130000D01*
X59459524Y26091905D01*
X59497619Y26015714D01*
X59497619Y25939524D01*
X59459524Y25825238D01*
X59002381Y25368095D01*
X59497619Y25368095D01*
X60259524Y25368095D02*
X59802381Y25368095D01*
X60030952Y25368095D02*
X60030952Y26168095D01*
X59954762Y26053810D01*
X59878571Y25977619D01*
X59802381Y25939524D01*
X50565714Y25364286D02*
X50527619Y25326190D01*
X50413333Y25288095D01*
X50337143Y25288095D01*
X50222857Y25326190D01*
X50146666Y25402381D01*
X50108571Y25478571D01*
X50070476Y25630952D01*
X50070476Y25745238D01*
X50108571Y25897619D01*
X50146666Y25973810D01*
X50222857Y26050000D01*
X50337143Y26088095D01*
X50413333Y26088095D01*
X50527619Y26050000D01*
X50565714Y26011905D01*
X50870476Y26011905D02*
X50908571Y26050000D01*
X50984762Y26088095D01*
X51175238Y26088095D01*
X51251428Y26050000D01*
X51289524Y26011905D01*
X51327619Y25935714D01*
X51327619Y25859524D01*
X51289524Y25745238D01*
X50832381Y25288095D01*
X51327619Y25288095D01*
X51632381Y26011905D02*
X51670476Y26050000D01*
X51746667Y26088095D01*
X51937143Y26088095D01*
X52013333Y26050000D01*
X52051429Y26011905D01*
X52089524Y25935714D01*
X52089524Y25859524D01*
X52051429Y25745238D01*
X51594286Y25288095D01*
X52089524Y25288095D01*
X40445714Y17615714D02*
X40483810Y17577619D01*
X40521905Y17463333D01*
X40521905Y17387143D01*
X40483810Y17272857D01*
X40407619Y17196666D01*
X40331429Y17158571D01*
X40179048Y17120476D01*
X40064762Y17120476D01*
X39912381Y17158571D01*
X39836190Y17196666D01*
X39760000Y17272857D01*
X39721905Y17387143D01*
X39721905Y17463333D01*
X39760000Y17577619D01*
X39798095Y17615714D01*
X39798095Y17920476D02*
X39760000Y17958571D01*
X39721905Y18034762D01*
X39721905Y18225238D01*
X39760000Y18301428D01*
X39798095Y18339524D01*
X39874286Y18377619D01*
X39950476Y18377619D01*
X40064762Y18339524D01*
X40521905Y17882381D01*
X40521905Y18377619D01*
X39721905Y18644286D02*
X39721905Y19139524D01*
X40026667Y18872857D01*
X40026667Y18987143D01*
X40064762Y19063333D01*
X40102857Y19101429D01*
X40179048Y19139524D01*
X40369524Y19139524D01*
X40445714Y19101429D01*
X40483810Y19063333D01*
X40521905Y18987143D01*
X40521905Y18758571D01*
X40483810Y18682381D01*
X40445714Y18644286D01*
X55755714Y23185714D02*
X55793810Y23147619D01*
X55831905Y23033333D01*
X55831905Y22957143D01*
X55793810Y22842857D01*
X55717619Y22766666D01*
X55641429Y22728571D01*
X55489048Y22690476D01*
X55374762Y22690476D01*
X55222381Y22728571D01*
X55146190Y22766666D01*
X55070000Y22842857D01*
X55031905Y22957143D01*
X55031905Y23033333D01*
X55070000Y23147619D01*
X55108095Y23185714D01*
X55108095Y23490476D02*
X55070000Y23528571D01*
X55031905Y23604762D01*
X55031905Y23795238D01*
X55070000Y23871428D01*
X55108095Y23909524D01*
X55184286Y23947619D01*
X55260476Y23947619D01*
X55374762Y23909524D01*
X55831905Y23452381D01*
X55831905Y23947619D01*
X55298571Y24633333D02*
X55831905Y24633333D01*
X54993810Y24442857D02*
X55565238Y24252381D01*
X55565238Y24747619D01*
X52365714Y31395714D02*
X52403810Y31357619D01*
X52441905Y31243333D01*
X52441905Y31167143D01*
X52403810Y31052857D01*
X52327619Y30976666D01*
X52251429Y30938571D01*
X52099048Y30900476D01*
X51984762Y30900476D01*
X51832381Y30938571D01*
X51756190Y30976666D01*
X51680000Y31052857D01*
X51641905Y31167143D01*
X51641905Y31243333D01*
X51680000Y31357619D01*
X51718095Y31395714D01*
X51718095Y31700476D02*
X51680000Y31738571D01*
X51641905Y31814762D01*
X51641905Y32005238D01*
X51680000Y32081428D01*
X51718095Y32119524D01*
X51794286Y32157619D01*
X51870476Y32157619D01*
X51984762Y32119524D01*
X52441905Y31662381D01*
X52441905Y32157619D01*
X51641905Y32881429D02*
X51641905Y32500476D01*
X52022857Y32462381D01*
X51984762Y32500476D01*
X51946667Y32576667D01*
X51946667Y32767143D01*
X51984762Y32843333D01*
X52022857Y32881429D01*
X52099048Y32919524D01*
X52289524Y32919524D01*
X52365714Y32881429D01*
X52403810Y32843333D01*
X52441905Y32767143D01*
X52441905Y32576667D01*
X52403810Y32500476D01*
X52365714Y32462381D01*
X49385714Y16585714D02*
X49423810Y16547619D01*
X49461905Y16433333D01*
X49461905Y16357143D01*
X49423810Y16242857D01*
X49347619Y16166666D01*
X49271429Y16128571D01*
X49119048Y16090476D01*
X49004762Y16090476D01*
X48852381Y16128571D01*
X48776190Y16166666D01*
X48700000Y16242857D01*
X48661905Y16357143D01*
X48661905Y16433333D01*
X48700000Y16547619D01*
X48738095Y16585714D01*
X48738095Y16890476D02*
X48700000Y16928571D01*
X48661905Y17004762D01*
X48661905Y17195238D01*
X48700000Y17271428D01*
X48738095Y17309524D01*
X48814286Y17347619D01*
X48890476Y17347619D01*
X49004762Y17309524D01*
X49461905Y16852381D01*
X49461905Y17347619D01*
X48661905Y18033333D02*
X48661905Y17880952D01*
X48700000Y17804762D01*
X48738095Y17766667D01*
X48852381Y17690476D01*
X49004762Y17652381D01*
X49309524Y17652381D01*
X49385714Y17690476D01*
X49423810Y17728571D01*
X49461905Y17804762D01*
X49461905Y17957143D01*
X49423810Y18033333D01*
X49385714Y18071429D01*
X49309524Y18109524D01*
X49119048Y18109524D01*
X49042857Y18071429D01*
X49004762Y18033333D01*
X48966667Y17957143D01*
X48966667Y17804762D01*
X49004762Y17728571D01*
X49042857Y17690476D01*
X49119048Y17652381D01*
X42425714Y15704286D02*
X42387619Y15666190D01*
X42273333Y15628095D01*
X42197143Y15628095D01*
X42082857Y15666190D01*
X42006666Y15742381D01*
X41968571Y15818571D01*
X41930476Y15970952D01*
X41930476Y16085238D01*
X41968571Y16237619D01*
X42006666Y16313810D01*
X42082857Y16390000D01*
X42197143Y16428095D01*
X42273333Y16428095D01*
X42387619Y16390000D01*
X42425714Y16351905D01*
X42730476Y16351905D02*
X42768571Y16390000D01*
X42844762Y16428095D01*
X43035238Y16428095D01*
X43111428Y16390000D01*
X43149524Y16351905D01*
X43187619Y16275714D01*
X43187619Y16199524D01*
X43149524Y16085238D01*
X42692381Y15628095D01*
X43187619Y15628095D01*
X43454286Y16428095D02*
X43987619Y16428095D01*
X43644762Y15628095D01*
X33245714Y27695714D02*
X33283810Y27657619D01*
X33321905Y27543333D01*
X33321905Y27467143D01*
X33283810Y27352857D01*
X33207619Y27276666D01*
X33131429Y27238571D01*
X32979048Y27200476D01*
X32864762Y27200476D01*
X32712381Y27238571D01*
X32636190Y27276666D01*
X32560000Y27352857D01*
X32521905Y27467143D01*
X32521905Y27543333D01*
X32560000Y27657619D01*
X32598095Y27695714D01*
X32598095Y28000476D02*
X32560000Y28038571D01*
X32521905Y28114762D01*
X32521905Y28305238D01*
X32560000Y28381428D01*
X32598095Y28419524D01*
X32674286Y28457619D01*
X32750476Y28457619D01*
X32864762Y28419524D01*
X33321905Y27962381D01*
X33321905Y28457619D01*
X32864762Y28914762D02*
X32826667Y28838571D01*
X32788571Y28800476D01*
X32712381Y28762381D01*
X32674286Y28762381D01*
X32598095Y28800476D01*
X32560000Y28838571D01*
X32521905Y28914762D01*
X32521905Y29067143D01*
X32560000Y29143333D01*
X32598095Y29181429D01*
X32674286Y29219524D01*
X32712381Y29219524D01*
X32788571Y29181429D01*
X32826667Y29143333D01*
X32864762Y29067143D01*
X32864762Y28914762D01*
X32902857Y28838571D01*
X32940952Y28800476D01*
X33017143Y28762381D01*
X33169524Y28762381D01*
X33245714Y28800476D01*
X33283810Y28838571D01*
X33321905Y28914762D01*
X33321905Y29067143D01*
X33283810Y29143333D01*
X33245714Y29181429D01*
X33169524Y29219524D01*
X33017143Y29219524D01*
X32940952Y29181429D01*
X32902857Y29143333D01*
X32864762Y29067143D01*
X48655714Y35165714D02*
X48693810Y35127619D01*
X48731905Y35013333D01*
X48731905Y34937143D01*
X48693810Y34822857D01*
X48617619Y34746666D01*
X48541429Y34708571D01*
X48389048Y34670476D01*
X48274762Y34670476D01*
X48122381Y34708571D01*
X48046190Y34746666D01*
X47970000Y34822857D01*
X47931905Y34937143D01*
X47931905Y35013333D01*
X47970000Y35127619D01*
X48008095Y35165714D01*
X48008095Y35470476D02*
X47970000Y35508571D01*
X47931905Y35584762D01*
X47931905Y35775238D01*
X47970000Y35851428D01*
X48008095Y35889524D01*
X48084286Y35927619D01*
X48160476Y35927619D01*
X48274762Y35889524D01*
X48731905Y35432381D01*
X48731905Y35927619D01*
X48731905Y36308571D02*
X48731905Y36460952D01*
X48693810Y36537143D01*
X48655714Y36575238D01*
X48541429Y36651429D01*
X48389048Y36689524D01*
X48084286Y36689524D01*
X48008095Y36651429D01*
X47970000Y36613333D01*
X47931905Y36537143D01*
X47931905Y36384762D01*
X47970000Y36308571D01*
X48008095Y36270476D01*
X48084286Y36232381D01*
X48274762Y36232381D01*
X48350952Y36270476D01*
X48389048Y36308571D01*
X48427143Y36384762D01*
X48427143Y36537143D01*
X48389048Y36613333D01*
X48350952Y36651429D01*
X48274762Y36689524D01*
X57245714Y23165714D02*
X57283810Y23127619D01*
X57321905Y23013333D01*
X57321905Y22937143D01*
X57283810Y22822857D01*
X57207619Y22746666D01*
X57131429Y22708571D01*
X56979048Y22670476D01*
X56864762Y22670476D01*
X56712381Y22708571D01*
X56636190Y22746666D01*
X56560000Y22822857D01*
X56521905Y22937143D01*
X56521905Y23013333D01*
X56560000Y23127619D01*
X56598095Y23165714D01*
X56521905Y23432381D02*
X56521905Y23927619D01*
X56826667Y23660952D01*
X56826667Y23775238D01*
X56864762Y23851428D01*
X56902857Y23889524D01*
X56979048Y23927619D01*
X57169524Y23927619D01*
X57245714Y23889524D01*
X57283810Y23851428D01*
X57321905Y23775238D01*
X57321905Y23546666D01*
X57283810Y23470476D01*
X57245714Y23432381D01*
X56521905Y24422857D02*
X56521905Y24499048D01*
X56560000Y24575238D01*
X56598095Y24613333D01*
X56674286Y24651429D01*
X56826667Y24689524D01*
X57017143Y24689524D01*
X57169524Y24651429D01*
X57245714Y24613333D01*
X57283810Y24575238D01*
X57321905Y24499048D01*
X57321905Y24422857D01*
X57283810Y24346667D01*
X57245714Y24308571D01*
X57169524Y24270476D01*
X57017143Y24232381D01*
X56826667Y24232381D01*
X56674286Y24270476D01*
X56598095Y24308571D01*
X56560000Y24346667D01*
X56521905Y24422857D01*
X58545714Y29785714D02*
X58583810Y29747619D01*
X58621905Y29633333D01*
X58621905Y29557143D01*
X58583810Y29442857D01*
X58507619Y29366666D01*
X58431429Y29328571D01*
X58279048Y29290476D01*
X58164762Y29290476D01*
X58012381Y29328571D01*
X57936190Y29366666D01*
X57860000Y29442857D01*
X57821905Y29557143D01*
X57821905Y29633333D01*
X57860000Y29747619D01*
X57898095Y29785714D01*
X57821905Y30052381D02*
X57821905Y30547619D01*
X58126667Y30280952D01*
X58126667Y30395238D01*
X58164762Y30471428D01*
X58202857Y30509524D01*
X58279048Y30547619D01*
X58469524Y30547619D01*
X58545714Y30509524D01*
X58583810Y30471428D01*
X58621905Y30395238D01*
X58621905Y30166666D01*
X58583810Y30090476D01*
X58545714Y30052381D01*
X58621905Y31309524D02*
X58621905Y30852381D01*
X58621905Y31080952D02*
X57821905Y31080952D01*
X57936190Y31004762D01*
X58012381Y30928571D01*
X58050476Y30852381D01*
X53395714Y31114286D02*
X53357619Y31076190D01*
X53243333Y31038095D01*
X53167143Y31038095D01*
X53052857Y31076190D01*
X52976666Y31152381D01*
X52938571Y31228571D01*
X52900476Y31380952D01*
X52900476Y31495238D01*
X52938571Y31647619D01*
X52976666Y31723810D01*
X53052857Y31800000D01*
X53167143Y31838095D01*
X53243333Y31838095D01*
X53357619Y31800000D01*
X53395714Y31761905D01*
X53662381Y31838095D02*
X54157619Y31838095D01*
X53890952Y31533333D01*
X54005238Y31533333D01*
X54081428Y31495238D01*
X54119524Y31457143D01*
X54157619Y31380952D01*
X54157619Y31190476D01*
X54119524Y31114286D01*
X54081428Y31076190D01*
X54005238Y31038095D01*
X53776666Y31038095D01*
X53700476Y31076190D01*
X53662381Y31114286D01*
X54462381Y31761905D02*
X54500476Y31800000D01*
X54576667Y31838095D01*
X54767143Y31838095D01*
X54843333Y31800000D01*
X54881429Y31761905D01*
X54919524Y31685714D01*
X54919524Y31609524D01*
X54881429Y31495238D01*
X54424286Y31038095D01*
X54919524Y31038095D01*
X52775714Y34964286D02*
X52737619Y34926190D01*
X52623333Y34888095D01*
X52547143Y34888095D01*
X52432857Y34926190D01*
X52356666Y35002381D01*
X52318571Y35078571D01*
X52280476Y35230952D01*
X52280476Y35345238D01*
X52318571Y35497619D01*
X52356666Y35573810D01*
X52432857Y35650000D01*
X52547143Y35688095D01*
X52623333Y35688095D01*
X52737619Y35650000D01*
X52775714Y35611905D01*
X53042381Y35688095D02*
X53537619Y35688095D01*
X53270952Y35383333D01*
X53385238Y35383333D01*
X53461428Y35345238D01*
X53499524Y35307143D01*
X53537619Y35230952D01*
X53537619Y35040476D01*
X53499524Y34964286D01*
X53461428Y34926190D01*
X53385238Y34888095D01*
X53156666Y34888095D01*
X53080476Y34926190D01*
X53042381Y34964286D01*
X53804286Y35688095D02*
X54299524Y35688095D01*
X54032857Y35383333D01*
X54147143Y35383333D01*
X54223333Y35345238D01*
X54261429Y35307143D01*
X54299524Y35230952D01*
X54299524Y35040476D01*
X54261429Y34964286D01*
X54223333Y34926190D01*
X54147143Y34888095D01*
X53918571Y34888095D01*
X53842381Y34926190D01*
X53804286Y34964286D01*
X53435714Y29954286D02*
X53397619Y29916190D01*
X53283333Y29878095D01*
X53207143Y29878095D01*
X53092857Y29916190D01*
X53016666Y29992381D01*
X52978571Y30068571D01*
X52940476Y30220952D01*
X52940476Y30335238D01*
X52978571Y30487619D01*
X53016666Y30563810D01*
X53092857Y30640000D01*
X53207143Y30678095D01*
X53283333Y30678095D01*
X53397619Y30640000D01*
X53435714Y30601905D01*
X53702381Y30678095D02*
X54197619Y30678095D01*
X53930952Y30373333D01*
X54045238Y30373333D01*
X54121428Y30335238D01*
X54159524Y30297143D01*
X54197619Y30220952D01*
X54197619Y30030476D01*
X54159524Y29954286D01*
X54121428Y29916190D01*
X54045238Y29878095D01*
X53816666Y29878095D01*
X53740476Y29916190D01*
X53702381Y29954286D01*
X54883333Y30411429D02*
X54883333Y29878095D01*
X54692857Y30716190D02*
X54502381Y30144762D01*
X54997619Y30144762D01*
X50855714Y31395714D02*
X50893810Y31357619D01*
X50931905Y31243333D01*
X50931905Y31167143D01*
X50893810Y31052857D01*
X50817619Y30976666D01*
X50741429Y30938571D01*
X50589048Y30900476D01*
X50474762Y30900476D01*
X50322381Y30938571D01*
X50246190Y30976666D01*
X50170000Y31052857D01*
X50131905Y31167143D01*
X50131905Y31243333D01*
X50170000Y31357619D01*
X50208095Y31395714D01*
X50131905Y31662381D02*
X50131905Y32157619D01*
X50436667Y31890952D01*
X50436667Y32005238D01*
X50474762Y32081428D01*
X50512857Y32119524D01*
X50589048Y32157619D01*
X50779524Y32157619D01*
X50855714Y32119524D01*
X50893810Y32081428D01*
X50931905Y32005238D01*
X50931905Y31776666D01*
X50893810Y31700476D01*
X50855714Y31662381D01*
X50131905Y32881429D02*
X50131905Y32500476D01*
X50512857Y32462381D01*
X50474762Y32500476D01*
X50436667Y32576667D01*
X50436667Y32767143D01*
X50474762Y32843333D01*
X50512857Y32881429D01*
X50589048Y32919524D01*
X50779524Y32919524D01*
X50855714Y32881429D01*
X50893810Y32843333D01*
X50931905Y32767143D01*
X50931905Y32576667D01*
X50893810Y32500476D01*
X50855714Y32462381D01*
X52855714Y33514286D02*
X52817619Y33476190D01*
X52703333Y33438095D01*
X52627143Y33438095D01*
X52512857Y33476190D01*
X52436666Y33552381D01*
X52398571Y33628571D01*
X52360476Y33780952D01*
X52360476Y33895238D01*
X52398571Y34047619D01*
X52436666Y34123810D01*
X52512857Y34200000D01*
X52627143Y34238095D01*
X52703333Y34238095D01*
X52817619Y34200000D01*
X52855714Y34161905D01*
X53122381Y34238095D02*
X53617619Y34238095D01*
X53350952Y33933333D01*
X53465238Y33933333D01*
X53541428Y33895238D01*
X53579524Y33857143D01*
X53617619Y33780952D01*
X53617619Y33590476D01*
X53579524Y33514286D01*
X53541428Y33476190D01*
X53465238Y33438095D01*
X53236666Y33438095D01*
X53160476Y33476190D01*
X53122381Y33514286D01*
X54303333Y34238095D02*
X54150952Y34238095D01*
X54074762Y34200000D01*
X54036667Y34161905D01*
X53960476Y34047619D01*
X53922381Y33895238D01*
X53922381Y33590476D01*
X53960476Y33514286D01*
X53998571Y33476190D01*
X54074762Y33438095D01*
X54227143Y33438095D01*
X54303333Y33476190D01*
X54341429Y33514286D01*
X54379524Y33590476D01*
X54379524Y33780952D01*
X54341429Y33857143D01*
X54303333Y33895238D01*
X54227143Y33933333D01*
X54074762Y33933333D01*
X53998571Y33895238D01*
X53960476Y33857143D01*
X53922381Y33780952D01*
X40595714Y35524286D02*
X40557619Y35486190D01*
X40443333Y35448095D01*
X40367143Y35448095D01*
X40252857Y35486190D01*
X40176666Y35562381D01*
X40138571Y35638571D01*
X40100476Y35790952D01*
X40100476Y35905238D01*
X40138571Y36057619D01*
X40176666Y36133810D01*
X40252857Y36210000D01*
X40367143Y36248095D01*
X40443333Y36248095D01*
X40557619Y36210000D01*
X40595714Y36171905D01*
X40862381Y36248095D02*
X41357619Y36248095D01*
X41090952Y35943333D01*
X41205238Y35943333D01*
X41281428Y35905238D01*
X41319524Y35867143D01*
X41357619Y35790952D01*
X41357619Y35600476D01*
X41319524Y35524286D01*
X41281428Y35486190D01*
X41205238Y35448095D01*
X40976666Y35448095D01*
X40900476Y35486190D01*
X40862381Y35524286D01*
X41624286Y36248095D02*
X42157619Y36248095D01*
X41814762Y35448095D01*
X39065714Y17585714D02*
X39103810Y17547619D01*
X39141905Y17433333D01*
X39141905Y17357143D01*
X39103810Y17242857D01*
X39027619Y17166666D01*
X38951429Y17128571D01*
X38799048Y17090476D01*
X38684762Y17090476D01*
X38532381Y17128571D01*
X38456190Y17166666D01*
X38380000Y17242857D01*
X38341905Y17357143D01*
X38341905Y17433333D01*
X38380000Y17547619D01*
X38418095Y17585714D01*
X38341905Y17852381D02*
X38341905Y18347619D01*
X38646667Y18080952D01*
X38646667Y18195238D01*
X38684762Y18271428D01*
X38722857Y18309524D01*
X38799048Y18347619D01*
X38989524Y18347619D01*
X39065714Y18309524D01*
X39103810Y18271428D01*
X39141905Y18195238D01*
X39141905Y17966666D01*
X39103810Y17890476D01*
X39065714Y17852381D01*
X38684762Y18804762D02*
X38646667Y18728571D01*
X38608571Y18690476D01*
X38532381Y18652381D01*
X38494286Y18652381D01*
X38418095Y18690476D01*
X38380000Y18728571D01*
X38341905Y18804762D01*
X38341905Y18957143D01*
X38380000Y19033333D01*
X38418095Y19071429D01*
X38494286Y19109524D01*
X38532381Y19109524D01*
X38608571Y19071429D01*
X38646667Y19033333D01*
X38684762Y18957143D01*
X38684762Y18804762D01*
X38722857Y18728571D01*
X38760952Y18690476D01*
X38837143Y18652381D01*
X38989524Y18652381D01*
X39065714Y18690476D01*
X39103810Y18728571D01*
X39141905Y18804762D01*
X39141905Y18957143D01*
X39103810Y19033333D01*
X39065714Y19071429D01*
X38989524Y19109524D01*
X38837143Y19109524D01*
X38760952Y19071429D01*
X38722857Y19033333D01*
X38684762Y18957143D01*
X2015714Y27465714D02*
X2053810Y27427619D01*
X2091905Y27313333D01*
X2091905Y27237143D01*
X2053810Y27122857D01*
X1977619Y27046666D01*
X1901429Y27008571D01*
X1749048Y26970476D01*
X1634762Y26970476D01*
X1482381Y27008571D01*
X1406190Y27046666D01*
X1330000Y27122857D01*
X1291905Y27237143D01*
X1291905Y27313333D01*
X1330000Y27427619D01*
X1368095Y27465714D01*
X1291905Y27732381D02*
X1291905Y28227619D01*
X1596667Y27960952D01*
X1596667Y28075238D01*
X1634762Y28151428D01*
X1672857Y28189524D01*
X1749048Y28227619D01*
X1939524Y28227619D01*
X2015714Y28189524D01*
X2053810Y28151428D01*
X2091905Y28075238D01*
X2091905Y27846666D01*
X2053810Y27770476D01*
X2015714Y27732381D01*
X2091905Y28608571D02*
X2091905Y28760952D01*
X2053810Y28837143D01*
X2015714Y28875238D01*
X1901429Y28951429D01*
X1749048Y28989524D01*
X1444286Y28989524D01*
X1368095Y28951429D01*
X1330000Y28913333D01*
X1291905Y28837143D01*
X1291905Y28684762D01*
X1330000Y28608571D01*
X1368095Y28570476D01*
X1444286Y28532381D01*
X1634762Y28532381D01*
X1710952Y28570476D01*
X1749048Y28608571D01*
X1787143Y28684762D01*
X1787143Y28837143D01*
X1749048Y28913333D01*
X1710952Y28951429D01*
X1634762Y28989524D01*
X36225714Y8245714D02*
X36263810Y8207619D01*
X36301905Y8093333D01*
X36301905Y8017143D01*
X36263810Y7902857D01*
X36187619Y7826666D01*
X36111429Y7788571D01*
X35959048Y7750476D01*
X35844762Y7750476D01*
X35692381Y7788571D01*
X35616190Y7826666D01*
X35540000Y7902857D01*
X35501905Y8017143D01*
X35501905Y8093333D01*
X35540000Y8207619D01*
X35578095Y8245714D01*
X35768571Y8931428D02*
X36301905Y8931428D01*
X35463810Y8740952D02*
X36035238Y8550476D01*
X36035238Y9045714D01*
X35501905Y9502857D02*
X35501905Y9579048D01*
X35540000Y9655238D01*
X35578095Y9693333D01*
X35654286Y9731429D01*
X35806667Y9769524D01*
X35997143Y9769524D01*
X36149524Y9731429D01*
X36225714Y9693333D01*
X36263810Y9655238D01*
X36301905Y9579048D01*
X36301905Y9502857D01*
X36263810Y9426667D01*
X36225714Y9388571D01*
X36149524Y9350476D01*
X35997143Y9312381D01*
X35806667Y9312381D01*
X35654286Y9350476D01*
X35578095Y9388571D01*
X35540000Y9426667D01*
X35501905Y9502857D01*
X66325714Y31985714D02*
X66363810Y31947619D01*
X66401905Y31833333D01*
X66401905Y31757143D01*
X66363810Y31642857D01*
X66287619Y31566666D01*
X66211429Y31528571D01*
X66059048Y31490476D01*
X65944762Y31490476D01*
X65792381Y31528571D01*
X65716190Y31566666D01*
X65640000Y31642857D01*
X65601905Y31757143D01*
X65601905Y31833333D01*
X65640000Y31947619D01*
X65678095Y31985714D01*
X65868571Y32671428D02*
X66401905Y32671428D01*
X65563810Y32480952D02*
X66135238Y32290476D01*
X66135238Y32785714D01*
X66401905Y33509524D02*
X66401905Y33052381D01*
X66401905Y33280952D02*
X65601905Y33280952D01*
X65716190Y33204762D01*
X65792381Y33128571D01*
X65830476Y33052381D01*
X54105714Y13744286D02*
X54067619Y13706190D01*
X53953333Y13668095D01*
X53877143Y13668095D01*
X53762857Y13706190D01*
X53686666Y13782381D01*
X53648571Y13858571D01*
X53610476Y14010952D01*
X53610476Y14125238D01*
X53648571Y14277619D01*
X53686666Y14353810D01*
X53762857Y14430000D01*
X53877143Y14468095D01*
X53953333Y14468095D01*
X54067619Y14430000D01*
X54105714Y14391905D01*
X54791428Y14201429D02*
X54791428Y13668095D01*
X54600952Y14506190D02*
X54410476Y13934762D01*
X54905714Y13934762D01*
X55172381Y14391905D02*
X55210476Y14430000D01*
X55286667Y14468095D01*
X55477143Y14468095D01*
X55553333Y14430000D01*
X55591429Y14391905D01*
X55629524Y14315714D01*
X55629524Y14239524D01*
X55591429Y14125238D01*
X55134286Y13668095D01*
X55629524Y13668095D01*
X-10661428Y28764286D02*
X-10699523Y28726190D01*
X-10813809Y28688095D01*
X-10889999Y28688095D01*
X-11004285Y28726190D01*
X-11080476Y28802381D01*
X-11118571Y28878571D01*
X-11156666Y29030952D01*
X-11156666Y29145238D01*
X-11118571Y29297619D01*
X-11080476Y29373810D01*
X-11004285Y29450000D01*
X-10889999Y29488095D01*
X-10813809Y29488095D01*
X-10699523Y29450000D01*
X-10661428Y29411905D01*
X-10166190Y29488095D02*
X-10013809Y29488095D01*
X-9937618Y29450000D01*
X-9861428Y29373810D01*
X-9823333Y29221429D01*
X-9823333Y28954762D01*
X-9861428Y28802381D01*
X-9937618Y28726190D01*
X-10013809Y28688095D01*
X-10166190Y28688095D01*
X-10242380Y28726190D01*
X-10318571Y28802381D01*
X-10356666Y28954762D01*
X-10356666Y29221429D01*
X-10318571Y29373810D01*
X-10242380Y29450000D01*
X-10166190Y29488095D01*
X-9480476Y28688095D02*
X-9480476Y29488095D01*
X-9023333Y28688095D01*
X-9023333Y29488095D01*
X-8223333Y28688095D02*
X-8680476Y28688095D01*
X-8451905Y28688095D02*
X-8451905Y29488095D01*
X-8528095Y29373810D01*
X-8604286Y29297619D01*
X-8680476Y29259524D01*
X-3604286Y11738572D02*
X-3566190Y11700477D01*
X-3528095Y11586191D01*
X-3528095Y11510001D01*
X-3566190Y11395715D01*
X-3642381Y11319524D01*
X-3718571Y11281429D01*
X-3870952Y11243334D01*
X-3985238Y11243334D01*
X-4137619Y11281429D01*
X-4213810Y11319524D01*
X-4290000Y11395715D01*
X-4328095Y11510001D01*
X-4328095Y11586191D01*
X-4290000Y11700477D01*
X-4251905Y11738572D01*
X-4328095Y12233810D02*
X-4328095Y12386191D01*
X-4290000Y12462382D01*
X-4213810Y12538572D01*
X-4061429Y12576667D01*
X-3794762Y12576667D01*
X-3642381Y12538572D01*
X-3566190Y12462382D01*
X-3528095Y12386191D01*
X-3528095Y12233810D01*
X-3566190Y12157620D01*
X-3642381Y12081429D01*
X-3794762Y12043334D01*
X-4061429Y12043334D01*
X-4213810Y12081429D01*
X-4290000Y12157620D01*
X-4328095Y12233810D01*
X-3528095Y12919524D02*
X-4328095Y12919524D01*
X-3528095Y13376667D01*
X-4328095Y13376667D01*
X-4251905Y13719524D02*
X-4290000Y13757619D01*
X-4328095Y13833810D01*
X-4328095Y14024286D01*
X-4290000Y14100476D01*
X-4251905Y14138572D01*
X-4175714Y14176667D01*
X-4099524Y14176667D01*
X-3985238Y14138572D01*
X-3528095Y13681429D01*
X-3528095Y14176667D01*
X50393334Y20607143D02*
X50126667Y20607143D01*
X50126667Y20188095D02*
X50126667Y20988095D01*
X50507620Y20988095D01*
X51079048Y20607143D02*
X51193334Y20569048D01*
X51231429Y20530952D01*
X51269524Y20454762D01*
X51269524Y20340476D01*
X51231429Y20264286D01*
X51193334Y20226190D01*
X51117143Y20188095D01*
X50812381Y20188095D01*
X50812381Y20988095D01*
X51079048Y20988095D01*
X51155238Y20950000D01*
X51193334Y20911905D01*
X51231429Y20835714D01*
X51231429Y20759524D01*
X51193334Y20683333D01*
X51155238Y20645238D01*
X51079048Y20607143D01*
X50812381Y20607143D01*
X52031429Y20188095D02*
X51574286Y20188095D01*
X51802857Y20188095D02*
X51802857Y20988095D01*
X51726667Y20873810D01*
X51650476Y20797619D01*
X51574286Y20759524D01*
X56772857Y29553334D02*
X56772857Y29286667D01*
X57191905Y29286667D02*
X56391905Y29286667D01*
X56391905Y29667620D01*
X56772857Y30239048D02*
X56810952Y30353334D01*
X56849048Y30391429D01*
X56925238Y30429524D01*
X57039524Y30429524D01*
X57115714Y30391429D01*
X57153810Y30353334D01*
X57191905Y30277143D01*
X57191905Y29972381D01*
X56391905Y29972381D01*
X56391905Y30239048D01*
X56430000Y30315238D01*
X56468095Y30353334D01*
X56544286Y30391429D01*
X56620476Y30391429D01*
X56696667Y30353334D01*
X56734762Y30315238D01*
X56772857Y30239048D01*
X56772857Y29972381D01*
X56468095Y30734286D02*
X56430000Y30772381D01*
X56391905Y30848572D01*
X56391905Y31039048D01*
X56430000Y31115238D01*
X56468095Y31153334D01*
X56544286Y31191429D01*
X56620476Y31191429D01*
X56734762Y31153334D01*
X57191905Y30696191D01*
X57191905Y31191429D01*
X1243334Y25947143D02*
X976667Y25947143D01*
X976667Y25528095D02*
X976667Y26328095D01*
X1357620Y26328095D01*
X1929048Y25947143D02*
X2043334Y25909048D01*
X2081429Y25870952D01*
X2119524Y25794762D01*
X2119524Y25680476D01*
X2081429Y25604286D01*
X2043334Y25566190D01*
X1967143Y25528095D01*
X1662381Y25528095D01*
X1662381Y26328095D01*
X1929048Y26328095D01*
X2005238Y26290000D01*
X2043334Y26251905D01*
X2081429Y26175714D01*
X2081429Y26099524D01*
X2043334Y26023333D01*
X2005238Y25985238D01*
X1929048Y25947143D01*
X1662381Y25947143D01*
X2386191Y26328095D02*
X2881429Y26328095D01*
X2614762Y26023333D01*
X2729048Y26023333D01*
X2805238Y25985238D01*
X2843334Y25947143D01*
X2881429Y25870952D01*
X2881429Y25680476D01*
X2843334Y25604286D01*
X2805238Y25566190D01*
X2729048Y25528095D01*
X2500476Y25528095D01*
X2424286Y25566190D01*
X2386191Y25604286D01*
X70231905Y16353334D02*
X70803333Y16353334D01*
X70917619Y16315238D01*
X70993810Y16239048D01*
X71031905Y16124762D01*
X71031905Y16048572D01*
X71031905Y17153334D02*
X71031905Y16696191D01*
X71031905Y16924762D02*
X70231905Y16924762D01*
X70346190Y16848572D01*
X70422381Y16772381D01*
X70460476Y16696191D01*
X2246667Y24228095D02*
X1980000Y24609048D01*
X1789524Y24228095D02*
X1789524Y25028095D01*
X2094286Y25028095D01*
X2170477Y24990000D01*
X2208572Y24951905D01*
X2246667Y24875714D01*
X2246667Y24761429D01*
X2208572Y24685238D01*
X2170477Y24647143D01*
X2094286Y24609048D01*
X1789524Y24609048D01*
X3008572Y24228095D02*
X2551429Y24228095D01*
X2780000Y24228095D02*
X2780000Y25028095D01*
X2703810Y24913810D01*
X2627619Y24837619D01*
X2551429Y24799524D01*
X2206667Y22538095D02*
X1940000Y22919048D01*
X1749524Y22538095D02*
X1749524Y23338095D01*
X2054286Y23338095D01*
X2130477Y23300000D01*
X2168572Y23261905D01*
X2206667Y23185714D01*
X2206667Y23071429D01*
X2168572Y22995238D01*
X2130477Y22957143D01*
X2054286Y22919048D01*
X1749524Y22919048D01*
X2511429Y23261905D02*
X2549524Y23300000D01*
X2625715Y23338095D01*
X2816191Y23338095D01*
X2892381Y23300000D01*
X2930477Y23261905D01*
X2968572Y23185714D01*
X2968572Y23109524D01*
X2930477Y22995238D01*
X2473334Y22538095D01*
X2968572Y22538095D01*
X8826667Y12498095D02*
X8560000Y12879048D01*
X8369524Y12498095D02*
X8369524Y13298095D01*
X8674286Y13298095D01*
X8750477Y13260000D01*
X8788572Y13221905D01*
X8826667Y13145714D01*
X8826667Y13031429D01*
X8788572Y12955238D01*
X8750477Y12917143D01*
X8674286Y12879048D01*
X8369524Y12879048D01*
X9093334Y13298095D02*
X9588572Y13298095D01*
X9321905Y12993333D01*
X9436191Y12993333D01*
X9512381Y12955238D01*
X9550477Y12917143D01*
X9588572Y12840952D01*
X9588572Y12650476D01*
X9550477Y12574286D01*
X9512381Y12536190D01*
X9436191Y12498095D01*
X9207619Y12498095D01*
X9131429Y12536190D01*
X9093334Y12574286D01*
X21581905Y31316667D02*
X21200952Y31050000D01*
X21581905Y30859524D02*
X20781905Y30859524D01*
X20781905Y31164286D01*
X20820000Y31240477D01*
X20858095Y31278572D01*
X20934286Y31316667D01*
X21048571Y31316667D01*
X21124762Y31278572D01*
X21162857Y31240477D01*
X21200952Y31164286D01*
X21200952Y30859524D01*
X21048571Y32002381D02*
X21581905Y32002381D01*
X20743810Y31811905D02*
X21315238Y31621429D01*
X21315238Y32116667D01*
X28536667Y17338095D02*
X28270000Y17719048D01*
X28079524Y17338095D02*
X28079524Y18138095D01*
X28384286Y18138095D01*
X28460477Y18100000D01*
X28498572Y18061905D01*
X28536667Y17985714D01*
X28536667Y17871429D01*
X28498572Y17795238D01*
X28460477Y17757143D01*
X28384286Y17719048D01*
X28079524Y17719048D01*
X29260477Y18138095D02*
X28879524Y18138095D01*
X28841429Y17757143D01*
X28879524Y17795238D01*
X28955715Y17833333D01*
X29146191Y17833333D01*
X29222381Y17795238D01*
X29260477Y17757143D01*
X29298572Y17680952D01*
X29298572Y17490476D01*
X29260477Y17414286D01*
X29222381Y17376190D01*
X29146191Y17338095D01*
X28955715Y17338095D01*
X28879524Y17376190D01*
X28841429Y17414286D01*
X46931905Y8326667D02*
X46550952Y8060000D01*
X46931905Y7869524D02*
X46131905Y7869524D01*
X46131905Y8174286D01*
X46170000Y8250477D01*
X46208095Y8288572D01*
X46284286Y8326667D01*
X46398571Y8326667D01*
X46474762Y8288572D01*
X46512857Y8250477D01*
X46550952Y8174286D01*
X46550952Y7869524D01*
X46131905Y9012381D02*
X46131905Y8860000D01*
X46170000Y8783810D01*
X46208095Y8745715D01*
X46322381Y8669524D01*
X46474762Y8631429D01*
X46779524Y8631429D01*
X46855714Y8669524D01*
X46893810Y8707619D01*
X46931905Y8783810D01*
X46931905Y8936191D01*
X46893810Y9012381D01*
X46855714Y9050477D01*
X46779524Y9088572D01*
X46589048Y9088572D01*
X46512857Y9050477D01*
X46474762Y9012381D01*
X46436667Y8936191D01*
X46436667Y8783810D01*
X46474762Y8707619D01*
X46512857Y8669524D01*
X46589048Y8631429D01*
X736667Y15588095D02*
X470000Y15969048D01*
X279524Y15588095D02*
X279524Y16388095D01*
X584286Y16388095D01*
X660477Y16350000D01*
X698572Y16311905D01*
X736667Y16235714D01*
X736667Y16121429D01*
X698572Y16045238D01*
X660477Y16007143D01*
X584286Y15969048D01*
X279524Y15969048D01*
X1003334Y16388095D02*
X1536667Y16388095D01*
X1193810Y15588095D01*
X45326667Y18488095D02*
X45060000Y18869048D01*
X44869524Y18488095D02*
X44869524Y19288095D01*
X45174286Y19288095D01*
X45250477Y19250000D01*
X45288572Y19211905D01*
X45326667Y19135714D01*
X45326667Y19021429D01*
X45288572Y18945238D01*
X45250477Y18907143D01*
X45174286Y18869048D01*
X44869524Y18869048D01*
X45783810Y18945238D02*
X45707619Y18983333D01*
X45669524Y19021429D01*
X45631429Y19097619D01*
X45631429Y19135714D01*
X45669524Y19211905D01*
X45707619Y19250000D01*
X45783810Y19288095D01*
X45936191Y19288095D01*
X46012381Y19250000D01*
X46050477Y19211905D01*
X46088572Y19135714D01*
X46088572Y19097619D01*
X46050477Y19021429D01*
X46012381Y18983333D01*
X45936191Y18945238D01*
X45783810Y18945238D01*
X45707619Y18907143D01*
X45669524Y18869048D01*
X45631429Y18792857D01*
X45631429Y18640476D01*
X45669524Y18564286D01*
X45707619Y18526190D01*
X45783810Y18488095D01*
X45936191Y18488095D01*
X46012381Y18526190D01*
X46050477Y18564286D01*
X46088572Y18640476D01*
X46088572Y18792857D01*
X46050477Y18869048D01*
X46012381Y18907143D01*
X45936191Y18945238D01*
X51156667Y18558095D02*
X50890000Y18939048D01*
X50699524Y18558095D02*
X50699524Y19358095D01*
X51004286Y19358095D01*
X51080477Y19320000D01*
X51118572Y19281905D01*
X51156667Y19205714D01*
X51156667Y19091429D01*
X51118572Y19015238D01*
X51080477Y18977143D01*
X51004286Y18939048D01*
X50699524Y18939048D01*
X51537619Y18558095D02*
X51690000Y18558095D01*
X51766191Y18596190D01*
X51804286Y18634286D01*
X51880477Y18748571D01*
X51918572Y18900952D01*
X51918572Y19205714D01*
X51880477Y19281905D01*
X51842381Y19320000D01*
X51766191Y19358095D01*
X51613810Y19358095D01*
X51537619Y19320000D01*
X51499524Y19281905D01*
X51461429Y19205714D01*
X51461429Y19015238D01*
X51499524Y18939048D01*
X51537619Y18900952D01*
X51613810Y18862857D01*
X51766191Y18862857D01*
X51842381Y18900952D01*
X51880477Y18939048D01*
X51918572Y19015238D01*
X35011905Y19085714D02*
X34630952Y18819047D01*
X35011905Y18628571D02*
X34211905Y18628571D01*
X34211905Y18933333D01*
X34250000Y19009524D01*
X34288095Y19047619D01*
X34364286Y19085714D01*
X34478571Y19085714D01*
X34554762Y19047619D01*
X34592857Y19009524D01*
X34630952Y18933333D01*
X34630952Y18628571D01*
X35011905Y19847619D02*
X35011905Y19390476D01*
X35011905Y19619047D02*
X34211905Y19619047D01*
X34326190Y19542857D01*
X34402381Y19466666D01*
X34440476Y19390476D01*
X34211905Y20342857D02*
X34211905Y20419048D01*
X34250000Y20495238D01*
X34288095Y20533333D01*
X34364286Y20571429D01*
X34516667Y20609524D01*
X34707143Y20609524D01*
X34859524Y20571429D01*
X34935714Y20533333D01*
X34973810Y20495238D01*
X35011905Y20419048D01*
X35011905Y20342857D01*
X34973810Y20266667D01*
X34935714Y20228571D01*
X34859524Y20190476D01*
X34707143Y20152381D01*
X34516667Y20152381D01*
X34364286Y20190476D01*
X34288095Y20228571D01*
X34250000Y20266667D01*
X34211905Y20342857D01*
X33381905Y19095714D02*
X33000952Y18829047D01*
X33381905Y18638571D02*
X32581905Y18638571D01*
X32581905Y18943333D01*
X32620000Y19019524D01*
X32658095Y19057619D01*
X32734286Y19095714D01*
X32848571Y19095714D01*
X32924762Y19057619D01*
X32962857Y19019524D01*
X33000952Y18943333D01*
X33000952Y18638571D01*
X33381905Y19857619D02*
X33381905Y19400476D01*
X33381905Y19629047D02*
X32581905Y19629047D01*
X32696190Y19552857D01*
X32772381Y19476666D01*
X32810476Y19400476D01*
X33381905Y20619524D02*
X33381905Y20162381D01*
X33381905Y20390952D02*
X32581905Y20390952D01*
X32696190Y20314762D01*
X32772381Y20238571D01*
X32810476Y20162381D01*
X56601905Y36855714D02*
X56220952Y36589047D01*
X56601905Y36398571D02*
X55801905Y36398571D01*
X55801905Y36703333D01*
X55840000Y36779524D01*
X55878095Y36817619D01*
X55954286Y36855714D01*
X56068571Y36855714D01*
X56144762Y36817619D01*
X56182857Y36779524D01*
X56220952Y36703333D01*
X56220952Y36398571D01*
X56601905Y37617619D02*
X56601905Y37160476D01*
X56601905Y37389047D02*
X55801905Y37389047D01*
X55916190Y37312857D01*
X55992381Y37236666D01*
X56030476Y37160476D01*
X55878095Y37922381D02*
X55840000Y37960476D01*
X55801905Y38036667D01*
X55801905Y38227143D01*
X55840000Y38303333D01*
X55878095Y38341429D01*
X55954286Y38379524D01*
X56030476Y38379524D01*
X56144762Y38341429D01*
X56601905Y37884286D01*
X56601905Y38379524D01*
X85401905Y37365714D02*
X85020952Y37099047D01*
X85401905Y36908571D02*
X84601905Y36908571D01*
X84601905Y37213333D01*
X84640000Y37289524D01*
X84678095Y37327619D01*
X84754286Y37365714D01*
X84868571Y37365714D01*
X84944762Y37327619D01*
X84982857Y37289524D01*
X85020952Y37213333D01*
X85020952Y36908571D01*
X85401905Y38127619D02*
X85401905Y37670476D01*
X85401905Y37899047D02*
X84601905Y37899047D01*
X84716190Y37822857D01*
X84792381Y37746666D01*
X84830476Y37670476D01*
X84601905Y38394286D02*
X84601905Y38889524D01*
X84906667Y38622857D01*
X84906667Y38737143D01*
X84944762Y38813333D01*
X84982857Y38851429D01*
X85059048Y38889524D01*
X85249524Y38889524D01*
X85325714Y38851429D01*
X85363810Y38813333D01*
X85401905Y38737143D01*
X85401905Y38508571D01*
X85363810Y38432381D01*
X85325714Y38394286D01*
X83711905Y37445714D02*
X83330952Y37179047D01*
X83711905Y36988571D02*
X82911905Y36988571D01*
X82911905Y37293333D01*
X82950000Y37369524D01*
X82988095Y37407619D01*
X83064286Y37445714D01*
X83178571Y37445714D01*
X83254762Y37407619D01*
X83292857Y37369524D01*
X83330952Y37293333D01*
X83330952Y36988571D01*
X83711905Y38207619D02*
X83711905Y37750476D01*
X83711905Y37979047D02*
X82911905Y37979047D01*
X83026190Y37902857D01*
X83102381Y37826666D01*
X83140476Y37750476D01*
X83178571Y38893333D02*
X83711905Y38893333D01*
X82873810Y38702857D02*
X83445238Y38512381D01*
X83445238Y39007619D01*
X58165714Y18638095D02*
X57899047Y19019048D01*
X57708571Y18638095D02*
X57708571Y19438095D01*
X58013333Y19438095D01*
X58089524Y19400000D01*
X58127619Y19361905D01*
X58165714Y19285714D01*
X58165714Y19171429D01*
X58127619Y19095238D01*
X58089524Y19057143D01*
X58013333Y19019048D01*
X57708571Y19019048D01*
X58927619Y18638095D02*
X58470476Y18638095D01*
X58699047Y18638095D02*
X58699047Y19438095D01*
X58622857Y19323810D01*
X58546666Y19247619D01*
X58470476Y19209524D01*
X59651429Y19438095D02*
X59270476Y19438095D01*
X59232381Y19057143D01*
X59270476Y19095238D01*
X59346667Y19133333D01*
X59537143Y19133333D01*
X59613333Y19095238D01*
X59651429Y19057143D01*
X59689524Y18980952D01*
X59689524Y18790476D01*
X59651429Y18714286D01*
X59613333Y18676190D01*
X59537143Y18638095D01*
X59346667Y18638095D01*
X59270476Y18676190D01*
X59232381Y18714286D01*
X745714Y17258095D02*
X479047Y17639048D01*
X288571Y17258095D02*
X288571Y18058095D01*
X593333Y18058095D01*
X669524Y18020000D01*
X707619Y17981905D01*
X745714Y17905714D01*
X745714Y17791429D01*
X707619Y17715238D01*
X669524Y17677143D01*
X593333Y17639048D01*
X288571Y17639048D01*
X1507619Y17258095D02*
X1050476Y17258095D01*
X1279047Y17258095D02*
X1279047Y18058095D01*
X1202857Y17943810D01*
X1126666Y17867619D01*
X1050476Y17829524D01*
X2193333Y18058095D02*
X2040952Y18058095D01*
X1964762Y18020000D01*
X1926667Y17981905D01*
X1850476Y17867619D01*
X1812381Y17715238D01*
X1812381Y17410476D01*
X1850476Y17334286D01*
X1888571Y17296190D01*
X1964762Y17258095D01*
X2117143Y17258095D01*
X2193333Y17296190D01*
X2231429Y17334286D01*
X2269524Y17410476D01*
X2269524Y17600952D01*
X2231429Y17677143D01*
X2193333Y17715238D01*
X2117143Y17753333D01*
X1964762Y17753333D01*
X1888571Y17715238D01*
X1850476Y17677143D01*
X1812381Y17600952D01*
X64061905Y26335714D02*
X63680952Y26069047D01*
X64061905Y25878571D02*
X63261905Y25878571D01*
X63261905Y26183333D01*
X63300000Y26259524D01*
X63338095Y26297619D01*
X63414286Y26335714D01*
X63528571Y26335714D01*
X63604762Y26297619D01*
X63642857Y26259524D01*
X63680952Y26183333D01*
X63680952Y25878571D01*
X64061905Y27097619D02*
X64061905Y26640476D01*
X64061905Y26869047D02*
X63261905Y26869047D01*
X63376190Y26792857D01*
X63452381Y26716666D01*
X63490476Y26640476D01*
X63261905Y27364286D02*
X63261905Y27897619D01*
X64061905Y27554762D01*
X65831905Y25075714D02*
X65450952Y24809047D01*
X65831905Y24618571D02*
X65031905Y24618571D01*
X65031905Y24923333D01*
X65070000Y24999524D01*
X65108095Y25037619D01*
X65184286Y25075714D01*
X65298571Y25075714D01*
X65374762Y25037619D01*
X65412857Y24999524D01*
X65450952Y24923333D01*
X65450952Y24618571D01*
X65831905Y25837619D02*
X65831905Y25380476D01*
X65831905Y25609047D02*
X65031905Y25609047D01*
X65146190Y25532857D01*
X65222381Y25456666D01*
X65260476Y25380476D01*
X65374762Y26294762D02*
X65336667Y26218571D01*
X65298571Y26180476D01*
X65222381Y26142381D01*
X65184286Y26142381D01*
X65108095Y26180476D01*
X65070000Y26218571D01*
X65031905Y26294762D01*
X65031905Y26447143D01*
X65070000Y26523333D01*
X65108095Y26561429D01*
X65184286Y26599524D01*
X65222381Y26599524D01*
X65298571Y26561429D01*
X65336667Y26523333D01*
X65374762Y26447143D01*
X65374762Y26294762D01*
X65412857Y26218571D01*
X65450952Y26180476D01*
X65527143Y26142381D01*
X65679524Y26142381D01*
X65755714Y26180476D01*
X65793810Y26218571D01*
X65831905Y26294762D01*
X65831905Y26447143D01*
X65793810Y26523333D01*
X65755714Y26561429D01*
X65679524Y26599524D01*
X65527143Y26599524D01*
X65450952Y26561429D01*
X65412857Y26523333D01*
X65374762Y26447143D01*
X57161905Y13075714D02*
X56780952Y12809047D01*
X57161905Y12618571D02*
X56361905Y12618571D01*
X56361905Y12923333D01*
X56400000Y12999524D01*
X56438095Y13037619D01*
X56514286Y13075714D01*
X56628571Y13075714D01*
X56704762Y13037619D01*
X56742857Y12999524D01*
X56780952Y12923333D01*
X56780952Y12618571D01*
X57161905Y13837619D02*
X57161905Y13380476D01*
X57161905Y13609047D02*
X56361905Y13609047D01*
X56476190Y13532857D01*
X56552381Y13456666D01*
X56590476Y13380476D01*
X57161905Y14218571D02*
X57161905Y14370952D01*
X57123810Y14447143D01*
X57085714Y14485238D01*
X56971429Y14561429D01*
X56819048Y14599524D01*
X56514286Y14599524D01*
X56438095Y14561429D01*
X56400000Y14523333D01*
X56361905Y14447143D01*
X56361905Y14294762D01*
X56400000Y14218571D01*
X56438095Y14180476D01*
X56514286Y14142381D01*
X56704762Y14142381D01*
X56780952Y14180476D01*
X56819048Y14218571D01*
X56857143Y14294762D01*
X56857143Y14447143D01*
X56819048Y14523333D01*
X56780952Y14561429D01*
X56704762Y14599524D01*
X58621905Y13535714D02*
X58240952Y13269047D01*
X58621905Y13078571D02*
X57821905Y13078571D01*
X57821905Y13383333D01*
X57860000Y13459524D01*
X57898095Y13497619D01*
X57974286Y13535714D01*
X58088571Y13535714D01*
X58164762Y13497619D01*
X58202857Y13459524D01*
X58240952Y13383333D01*
X58240952Y13078571D01*
X57898095Y13840476D02*
X57860000Y13878571D01*
X57821905Y13954762D01*
X57821905Y14145238D01*
X57860000Y14221428D01*
X57898095Y14259524D01*
X57974286Y14297619D01*
X58050476Y14297619D01*
X58164762Y14259524D01*
X58621905Y13802381D01*
X58621905Y14297619D01*
X57821905Y14792857D02*
X57821905Y14869048D01*
X57860000Y14945238D01*
X57898095Y14983333D01*
X57974286Y15021429D01*
X58126667Y15059524D01*
X58317143Y15059524D01*
X58469524Y15021429D01*
X58545714Y14983333D01*
X58583810Y14945238D01*
X58621905Y14869048D01*
X58621905Y14792857D01*
X58583810Y14716667D01*
X58545714Y14678571D01*
X58469524Y14640476D01*
X58317143Y14602381D01*
X58126667Y14602381D01*
X57974286Y14640476D01*
X57898095Y14678571D01*
X57860000Y14716667D01*
X57821905Y14792857D01*
X31221905Y8295714D02*
X30840952Y8029047D01*
X31221905Y7838571D02*
X30421905Y7838571D01*
X30421905Y8143333D01*
X30460000Y8219524D01*
X30498095Y8257619D01*
X30574286Y8295714D01*
X30688571Y8295714D01*
X30764762Y8257619D01*
X30802857Y8219524D01*
X30840952Y8143333D01*
X30840952Y7838571D01*
X30498095Y8600476D02*
X30460000Y8638571D01*
X30421905Y8714762D01*
X30421905Y8905238D01*
X30460000Y8981428D01*
X30498095Y9019524D01*
X30574286Y9057619D01*
X30650476Y9057619D01*
X30764762Y9019524D01*
X31221905Y8562381D01*
X31221905Y9057619D01*
X31221905Y9819524D02*
X31221905Y9362381D01*
X31221905Y9590952D02*
X30421905Y9590952D01*
X30536190Y9514762D01*
X30612381Y9438571D01*
X30650476Y9362381D01*
X32821905Y8275714D02*
X32440952Y8009047D01*
X32821905Y7818571D02*
X32021905Y7818571D01*
X32021905Y8123333D01*
X32060000Y8199524D01*
X32098095Y8237619D01*
X32174286Y8275714D01*
X32288571Y8275714D01*
X32364762Y8237619D01*
X32402857Y8199524D01*
X32440952Y8123333D01*
X32440952Y7818571D01*
X32098095Y8580476D02*
X32060000Y8618571D01*
X32021905Y8694762D01*
X32021905Y8885238D01*
X32060000Y8961428D01*
X32098095Y8999524D01*
X32174286Y9037619D01*
X32250476Y9037619D01*
X32364762Y8999524D01*
X32821905Y8542381D01*
X32821905Y9037619D01*
X32098095Y9342381D02*
X32060000Y9380476D01*
X32021905Y9456667D01*
X32021905Y9647143D01*
X32060000Y9723333D01*
X32098095Y9761429D01*
X32174286Y9799524D01*
X32250476Y9799524D01*
X32364762Y9761429D01*
X32821905Y9304286D01*
X32821905Y9799524D01*
X8610476Y28118095D02*
X8610476Y27470476D01*
X8648571Y27394286D01*
X8686667Y27356190D01*
X8762857Y27318095D01*
X8915238Y27318095D01*
X8991429Y27356190D01*
X9029524Y27394286D01*
X9067619Y27470476D01*
X9067619Y28118095D01*
X9410476Y28041905D02*
X9448571Y28080000D01*
X9524762Y28118095D01*
X9715238Y28118095D01*
X9791428Y28080000D01*
X9829524Y28041905D01*
X9867619Y27965714D01*
X9867619Y27889524D01*
X9829524Y27775238D01*
X9372381Y27318095D01*
X9867619Y27318095D01*
X36080476Y32978095D02*
X36080476Y32330476D01*
X36118571Y32254286D01*
X36156667Y32216190D01*
X36232857Y32178095D01*
X36385238Y32178095D01*
X36461429Y32216190D01*
X36499524Y32254286D01*
X36537619Y32330476D01*
X36537619Y32978095D01*
X36842381Y32978095D02*
X37337619Y32978095D01*
X37070952Y32673333D01*
X37185238Y32673333D01*
X37261428Y32635238D01*
X37299524Y32597143D01*
X37337619Y32520952D01*
X37337619Y32330476D01*
X37299524Y32254286D01*
X37261428Y32216190D01*
X37185238Y32178095D01*
X36956666Y32178095D01*
X36880476Y32216190D01*
X36842381Y32254286D01*
X53950476Y41718095D02*
X53950476Y41070476D01*
X53988571Y40994286D01*
X54026667Y40956190D01*
X54102857Y40918095D01*
X54255238Y40918095D01*
X54331429Y40956190D01*
X54369524Y40994286D01*
X54407619Y41070476D01*
X54407619Y41718095D01*
X55169524Y41718095D02*
X54788571Y41718095D01*
X54750476Y41337143D01*
X54788571Y41375238D01*
X54864762Y41413333D01*
X55055238Y41413333D01*
X55131428Y41375238D01*
X55169524Y41337143D01*
X55207619Y41260952D01*
X55207619Y41070476D01*
X55169524Y40994286D01*
X55131428Y40956190D01*
X55055238Y40918095D01*
X54864762Y40918095D01*
X54788571Y40956190D01*
X54750476Y40994286D01*
X19392381Y1758095D02*
X19925714Y958095D01*
X19925714Y1758095D02*
X19392381Y958095D01*
X20649524Y958095D02*
X20192381Y958095D01*
X20420952Y958095D02*
X20420952Y1758095D01*
X20344762Y1643810D01*
X20268571Y1567619D01*
X20192381Y1529524D01*
X49872381Y9928095D02*
X50405714Y9128095D01*
X50405714Y9928095D02*
X49872381Y9128095D01*
X50672381Y9851905D02*
X50710476Y9890000D01*
X50786667Y9928095D01*
X50977143Y9928095D01*
X51053333Y9890000D01*
X51091429Y9851905D01*
X51129524Y9775714D01*
X51129524Y9699524D01*
X51091429Y9585238D01*
X50634286Y9128095D01*
X51129524Y9128095D01*
M02*
