G04 #@! TF.FileFunction,Copper,L1,Top,Signal*
%FSLAX46Y46*%
G04 Gerber Fmt 4.6, Leading zero omitted, Abs format (unit mm)*
G04 Created by KiCad (PCBNEW (2015-01-16 BZR 5376)-product) date 26/05/2015 16:36:23*
%MOMM*%
G01*
G04 APERTURE LIST*
%ADD10C,0.150000*%
%ADD11C,0.100000*%
%ADD12R,1.143000X0.635000*%
%ADD13C,6.500000*%
%ADD14C,1.000000*%
%ADD15R,0.600000X1.100000*%
%ADD16R,0.914400X0.914400*%
%ADD17R,0.800100X1.000760*%
%ADD18R,0.635000X1.143000*%
%ADD19R,1.750000X0.400000*%
%ADD20R,1.460000X2.000000*%
%ADD21R,3.150000X1.300000*%
%ADD22R,2.500000X1.425000*%
%ADD23R,1.524000X1.524000*%
%ADD24C,1.524000*%
%ADD25C,4.000000*%
%ADD26C,2.500000*%
%ADD27C,1.700000*%
%ADD28C,2.000000*%
%ADD29R,0.406400X1.524000*%
%ADD30R,1.524000X0.406400*%
%ADD31R,1.400000X0.230000*%
%ADD32R,0.230000X1.400000*%
%ADD33O,2.000000X3.100000*%
%ADD34C,1.800000*%
%ADD35R,5.600000X2.200000*%
%ADD36C,0.700000*%
%ADD37C,0.400000*%
%ADD38C,0.300000*%
%ADD39C,0.200000*%
%ADD40C,0.500000*%
%ADD41C,1.000000*%
%ADD42C,0.254000*%
G04 APERTURE END LIST*
D10*
D11*
X-12250216Y1644D02*
X-12250216Y47626644D01*
X-12250216Y1644D02*
G75*
G03X-7201778Y-5046794I5048438J0D01*
G01*
X83701346Y-5046794D02*
X-7201778Y-5046794D01*
X83701346Y-5046794D02*
G75*
G03X88749784Y1644I0J5048438D01*
G01*
X88749784Y47626644D02*
X88749784Y1644D01*
X88749784Y47626644D02*
G75*
G03X83701346Y52675082I-5048438J0D01*
G01*
X-7201778Y52675082D02*
X83701346Y52675082D01*
X-7201778Y52675082D02*
G75*
G03X-12250216Y47626644I0J-5048438D01*
G01*
D12*
X28320000Y-2729482D03*
X28320000Y-1205482D03*
D13*
X82700008Y0D03*
X82700008Y47625000D03*
X-6199992Y47625000D03*
D14*
X0Y0D03*
X76500000Y0D03*
X0Y47625000D03*
D15*
X31900000Y212518D03*
X30950000Y212518D03*
X30000000Y212518D03*
X30000000Y-2587482D03*
X31900000Y-2587482D03*
D16*
X31389000Y21396518D03*
X29611000Y21396518D03*
X30500000Y23428518D03*
D17*
X7300000Y32212338D03*
X8252500Y30012698D03*
X6347500Y30012698D03*
D12*
X5000000Y29950518D03*
X5000000Y31474518D03*
X9600000Y29950518D03*
X9600000Y31474518D03*
D18*
X12138000Y14412518D03*
X13662000Y14412518D03*
D12*
X23900000Y18674518D03*
X23900000Y17150518D03*
X19300000Y29950518D03*
X19300000Y31474518D03*
X11100000Y29950518D03*
X11100000Y31474518D03*
D18*
X5462000Y21312518D03*
X3938000Y21312518D03*
D12*
X12600000Y29950518D03*
X12600000Y31474518D03*
D18*
X15638000Y8012518D03*
X17162000Y8012518D03*
X20362000Y8012518D03*
X18838000Y8012518D03*
X52738000Y21912518D03*
X54262000Y21912518D03*
X52738000Y23312518D03*
X54262000Y23312518D03*
D12*
X43534000Y5266518D03*
X43534000Y6790518D03*
X42010000Y5266518D03*
X42010000Y6790518D03*
X45058000Y5266518D03*
X45058000Y6790518D03*
X40486000Y5266518D03*
X40486000Y6790518D03*
X38962000Y5266518D03*
X38962000Y6790518D03*
X37438000Y5266518D03*
X37438000Y6790518D03*
D18*
X56038000Y25712518D03*
X57562000Y25712518D03*
X52738000Y25712518D03*
X54262000Y25712518D03*
D12*
X43500000Y18774518D03*
X43500000Y17250518D03*
X55500000Y20450518D03*
X55500000Y21974518D03*
X52000000Y28750518D03*
X52000000Y30274518D03*
X47650000Y17774518D03*
X47650000Y16250518D03*
D18*
X44838000Y16012518D03*
X46362000Y16012518D03*
D12*
X34600000Y28874518D03*
X34600000Y27350518D03*
X48300000Y32350518D03*
X48300000Y33874518D03*
X57000000Y20450518D03*
X57000000Y21974518D03*
X58300000Y28474518D03*
X58300000Y26950518D03*
D18*
X53238000Y28912518D03*
X54762000Y28912518D03*
X50038000Y35212518D03*
X51562000Y35212518D03*
X53238000Y27512518D03*
X54762000Y27512518D03*
D12*
X50600000Y28750518D03*
X50600000Y30274518D03*
D18*
X50038000Y33812518D03*
X51562000Y33812518D03*
X41862000Y34212518D03*
X40338000Y34212518D03*
D12*
X42000000Y18774518D03*
X42000000Y17250518D03*
X3200000Y27150518D03*
X3200000Y28674518D03*
X35914000Y6790518D03*
X35914000Y5266518D03*
X64510000Y31720518D03*
X64510000Y33244518D03*
D18*
X55412000Y15512518D03*
X53888000Y15512518D03*
D19*
X-7446330Y25072958D03*
X-7446330Y24422958D03*
X-7446330Y23772958D03*
X-7446330Y23122958D03*
X-7446330Y22472958D03*
D20*
X-7241330Y26672958D03*
X-7241330Y20872958D03*
D21*
X-9796330Y26497958D03*
X-9796330Y21047958D03*
D22*
X-10771330Y24735458D03*
X-10771330Y22810458D03*
D23*
X-8841060Y15172778D03*
D24*
X-6301060Y15172778D03*
X-8841060Y12632778D03*
X-6301060Y12632778D03*
X-8841060Y10092778D03*
X-6301060Y10092778D03*
D18*
X54262000Y20512518D03*
X52738000Y20512518D03*
D12*
X56800000Y28474518D03*
X56800000Y26950518D03*
D18*
X3938000Y25912518D03*
X5462000Y25912518D03*
D25*
X82500000Y29589558D03*
X82500000Y18159558D03*
D24*
X76150000Y19429558D03*
X73610000Y20699558D03*
X76150000Y21969558D03*
X73610000Y23239558D03*
X76150000Y24509558D03*
X73610000Y25779558D03*
X76150000Y27049558D03*
D26*
X79450000Y31649558D03*
X79450000Y16099558D03*
D24*
X73610000Y28319558D03*
D27*
X85880000Y30199558D03*
X87400000Y27659558D03*
X85880000Y20089558D03*
X87400000Y17549558D03*
D13*
X-6199992Y0D03*
D18*
X3938000Y24412518D03*
X5462000Y24412518D03*
X3938000Y22812518D03*
X5462000Y22812518D03*
X8238000Y14412518D03*
X9762000Y14412518D03*
D12*
X21200000Y28450518D03*
X21200000Y29974518D03*
D18*
X29492000Y19280000D03*
X27968000Y19280000D03*
D12*
X46582000Y5266518D03*
X46582000Y6790518D03*
D18*
X-2313000Y15934518D03*
X-789000Y15934518D03*
X44838000Y17512518D03*
X46362000Y17512518D03*
X54262000Y19012518D03*
X52738000Y19012518D03*
D12*
X34600000Y22874518D03*
X34600000Y21350518D03*
X33000000Y22874518D03*
X33000000Y21350518D03*
X54600000Y38074518D03*
X54600000Y36550518D03*
X85063000Y34450718D03*
X85063000Y35974718D03*
X83363000Y34450718D03*
X83363000Y35974718D03*
D18*
X56762000Y19012518D03*
X55238000Y19012518D03*
X-2313000Y17585518D03*
X-789000Y17585518D03*
D12*
X63680000Y30254518D03*
X63680000Y28730518D03*
X65420000Y28974518D03*
X65420000Y27450518D03*
X56700000Y15300518D03*
X56700000Y16824518D03*
X58250000Y15850518D03*
X58250000Y17374518D03*
X30834000Y5266518D03*
X30834000Y6790518D03*
X32358000Y5266518D03*
X32358000Y6790518D03*
D28*
X79950800Y3748558D03*
X79950800Y8248558D03*
X73450800Y8248558D03*
X73450800Y3748558D03*
D29*
X15300000Y27727518D03*
X14499900Y27727518D03*
X13699800Y27727518D03*
X12899700Y27727518D03*
X12099600Y27727518D03*
X11299500Y27727518D03*
X16100100Y27727518D03*
X16900200Y27727518D03*
X17700300Y27727518D03*
X18500400Y27727518D03*
X19300500Y27727518D03*
X15300000Y16297518D03*
X14499900Y16297518D03*
X13699800Y16297518D03*
X12899700Y16297518D03*
X12099600Y16297518D03*
X11299500Y16297518D03*
X16100100Y16297518D03*
X16900200Y16297518D03*
X17700300Y16297518D03*
X18500400Y16297518D03*
X19300500Y16297518D03*
D30*
X9585000Y22012518D03*
X21015000Y22012518D03*
X9585000Y21212418D03*
X21015000Y21212418D03*
X21015000Y20412318D03*
X9585000Y20412318D03*
X9585000Y19612218D03*
X21015000Y19612218D03*
X21015000Y18812118D03*
X9585000Y18812118D03*
X9585000Y18012018D03*
X21015000Y18012018D03*
X21015000Y22812618D03*
X9585000Y22812618D03*
X9585000Y23612718D03*
X21015000Y23612718D03*
X21015000Y24412818D03*
X9585000Y24412818D03*
X9585000Y25212918D03*
X21015000Y25212918D03*
X21015000Y26013018D03*
X9585000Y26013018D03*
D31*
X48800000Y22712518D03*
X48800000Y23112518D03*
X48800000Y23512518D03*
X48800000Y23912518D03*
X48800000Y24312518D03*
X48800000Y24712518D03*
X48800000Y25112518D03*
X48800000Y25512518D03*
X48800000Y25912518D03*
X48800000Y26312518D03*
X48800000Y26712518D03*
X48800000Y27112518D03*
X48800000Y27512518D03*
X48800000Y27912518D03*
X48800000Y28312518D03*
X48800000Y28712518D03*
X48800000Y29112518D03*
X48800000Y29512518D03*
X48800000Y29912518D03*
X48800000Y30312518D03*
D32*
X46600000Y32512518D03*
X46200000Y32512518D03*
X45800000Y32512518D03*
X45400000Y32512518D03*
X45000000Y32512518D03*
X44600000Y32512518D03*
X44200000Y32512518D03*
X43800000Y32512518D03*
X43400000Y32512518D03*
X43000000Y32512518D03*
X42600000Y32512518D03*
X42200000Y32512518D03*
X41800000Y32512518D03*
X41400000Y32512518D03*
X41000000Y32512518D03*
X40600000Y32512518D03*
X40200000Y32512518D03*
X39800000Y32512518D03*
X39400000Y32512518D03*
X39000000Y32512518D03*
D31*
X36800000Y30312518D03*
X36800000Y29912518D03*
X36800000Y29512518D03*
X36800000Y29112518D03*
X36800000Y28712518D03*
X36800000Y28312518D03*
X36800000Y27912518D03*
X36800000Y27512518D03*
X36800000Y27112518D03*
X36800000Y26712518D03*
X36800000Y26312518D03*
X36800000Y25912518D03*
X36800000Y25512518D03*
X36800000Y25112518D03*
X36800000Y24712518D03*
X36800000Y24312518D03*
X36800000Y23912518D03*
X36800000Y23512518D03*
X36800000Y23112518D03*
X36800000Y22712518D03*
D32*
X39000000Y20512518D03*
X39400000Y20512518D03*
X39800000Y20512518D03*
X40200000Y20512518D03*
X40600000Y20512518D03*
X41000000Y20512518D03*
X41400000Y20512518D03*
X41800000Y20512518D03*
X42200000Y20512518D03*
X42600000Y20512518D03*
X43000000Y20512518D03*
X43400000Y20512518D03*
X43800000Y20512518D03*
X44200000Y20512518D03*
X44600000Y20512518D03*
X45000000Y20512518D03*
X45400000Y20512518D03*
X45800000Y20512518D03*
X46200000Y20512518D03*
X46600000Y20512518D03*
D14*
X45870000Y3462518D03*
D33*
X-750000Y13062518D03*
X-750000Y28062518D03*
D14*
X44600000Y3462518D03*
X43330000Y3462518D03*
X42060000Y3462518D03*
X40790000Y3462518D03*
X39520000Y3462518D03*
X38250000Y3462518D03*
X36980000Y3462518D03*
X35710000Y3462518D03*
X34440000Y3462518D03*
X33170000Y3462518D03*
X31900000Y3462518D03*
X30630000Y3462518D03*
D34*
X51626440Y40092518D03*
X49086440Y40092518D03*
X51626440Y42632518D03*
X49086440Y42632518D03*
X51626440Y45172518D03*
X49086440Y45172518D03*
X51626440Y47712518D03*
X49086440Y47712518D03*
D35*
X15350000Y4812518D03*
X24850000Y4812518D03*
X40750000Y12812518D03*
X50250000Y12812518D03*
D36*
X28290000Y222518D03*
X16864000Y19300018D03*
X25520000Y21702518D03*
X42300000Y36912518D03*
X44700000Y37012518D03*
X12100000Y18412518D03*
X42300000Y37912518D03*
X43800000Y38312518D03*
X22900000Y21212518D03*
X12000000Y19412518D03*
X23400000Y22012518D03*
X12000000Y20412518D03*
X19550000Y23612518D03*
X28500000Y21412518D03*
X42400000Y39512518D03*
X43700000Y31112518D03*
X22900000Y22812518D03*
X25570000Y19652518D03*
X3200000Y29512518D03*
X3100000Y21312518D03*
X37438000Y8568518D03*
X38962000Y8568518D03*
X40486000Y8568518D03*
X42010000Y8568518D03*
X43534000Y8568518D03*
X45058000Y8568518D03*
X42000000Y16412518D03*
X47250000Y15412518D03*
X57000000Y23312518D03*
X55550000Y27512518D03*
X53050000Y15512518D03*
X38200000Y29812518D03*
X23900000Y16312518D03*
X8300000Y22812518D03*
X47500000Y27912518D03*
X34600000Y26512518D03*
X52400000Y33812518D03*
X52400000Y35212518D03*
X48300000Y34712518D03*
X22300000Y17812518D03*
X18000000Y8012518D03*
X13800000Y17612518D03*
X19300000Y32312518D03*
X18100000Y26212518D03*
X12600000Y32312518D03*
X11100000Y32312518D03*
X12100000Y26412518D03*
X9600000Y32312518D03*
X5000000Y32312518D03*
X58400000Y25712518D03*
X42500000Y31112518D03*
X40600000Y31212518D03*
X40200000Y21812518D03*
X57600000Y19012518D03*
X55500000Y23312518D03*
X52000000Y31112518D03*
X50600000Y31112518D03*
X55600000Y28912518D03*
X55100000Y25712518D03*
X47500000Y28812518D03*
X50200000Y25912518D03*
X45400000Y21812518D03*
X47500000Y23912518D03*
X64510000Y34082518D03*
X31400000Y20412518D03*
X7300000Y31112518D03*
X44200000Y21812518D03*
X51300000Y25612518D03*
X85110000Y32902518D03*
D37*
X-6214200Y24412518D02*
X-6219000Y24407718D01*
D38*
X74410000Y24500000D02*
X74420000Y24490000D01*
X72880000Y24500000D02*
X74410000Y24500000D01*
X76990000Y25780000D02*
X77070000Y25860000D01*
X75420000Y25780000D02*
X76990000Y25780000D01*
D37*
X53238000Y28912518D02*
X53238000Y27512518D01*
D39*
X53238000Y27512518D02*
X52738000Y27512518D01*
X51938000Y26712518D02*
X48800000Y26712518D01*
X51938000Y26712518D02*
X52738000Y27512518D01*
X44300000Y25112518D02*
X44300000Y28312518D01*
X48800000Y26712518D02*
X47900000Y26712518D01*
X46300000Y25112518D02*
X44300000Y25112518D01*
X47900000Y26712518D02*
X46300000Y25112518D01*
X41800000Y32512518D02*
X41800000Y34150518D01*
X41800000Y34150518D02*
X41862000Y34212518D01*
D38*
X58300000Y28474518D02*
X56800000Y28474518D01*
X56800000Y28474518D02*
X56800000Y29012518D01*
X54338000Y30012518D02*
X53238000Y28912518D01*
X55800000Y30012518D02*
X54338000Y30012518D01*
X56800000Y29012518D02*
X55800000Y30012518D01*
X50600000Y28750518D02*
X50600000Y29212518D01*
X53238000Y28974518D02*
X53238000Y28912518D01*
X52700000Y29512518D02*
X53238000Y28974518D01*
X52600000Y29512518D02*
X52700000Y29512518D01*
X50900000Y29512518D02*
X52600000Y29512518D01*
X50600000Y29212518D02*
X50900000Y29512518D01*
D39*
X42200000Y20512518D02*
X42200000Y23012518D01*
X42200000Y23012518D02*
X44300000Y25112518D01*
X41800000Y32512518D02*
X41800000Y30812518D01*
X41800000Y30812518D02*
X44300000Y28312518D01*
X42200000Y20512518D02*
X42200000Y18974518D01*
X42200000Y18974518D02*
X42000000Y18774518D01*
X48800000Y28712518D02*
X50562000Y28712518D01*
X50562000Y28712518D02*
X50600000Y28750518D01*
X48800000Y28312518D02*
X50162000Y28312518D01*
X50162000Y28312518D02*
X50600000Y28750518D01*
D38*
X8252500Y30012698D02*
X8252500Y31250258D01*
X8252500Y31250258D02*
X8300800Y31298558D01*
D40*
X8314680Y29950518D02*
X8252500Y30012698D01*
D38*
X11299500Y26098558D02*
X11200800Y26098558D01*
X11200800Y26098558D02*
X10200800Y27098558D01*
X11299500Y27727518D02*
X11299500Y26098558D01*
X11299500Y26098558D02*
X11299500Y26013018D01*
X11299500Y26013018D02*
X11900000Y25412518D01*
D37*
X64384860Y21907518D02*
X73568420Y21907518D01*
X73568420Y21907518D02*
X73630460Y21969558D01*
X34600000Y21350518D02*
X34600000Y20360018D01*
D39*
X38800000Y29112518D02*
X36800000Y29112518D01*
D37*
X39388720Y28523798D02*
X38800000Y29112518D01*
X39388720Y23198918D02*
X39388720Y28523798D01*
X36259440Y20069638D02*
X39388720Y23198918D01*
X34890380Y20069638D02*
X36259440Y20069638D01*
X34600000Y20360018D02*
X34890380Y20069638D01*
X34440000Y3462518D02*
X34440000Y1812918D01*
X34440000Y1812918D02*
X34440800Y1812118D01*
X36980000Y3462518D02*
X36980000Y1749418D01*
X36980000Y1749418D02*
X36985880Y1743538D01*
X48990000Y37867418D02*
X48990000Y39693758D01*
X48990000Y39693758D02*
X49086440Y39790198D01*
X57000000Y20450518D02*
X55500000Y20450518D01*
X64850000Y21907518D02*
X64384860Y21907518D01*
X64384860Y21907518D02*
X59895000Y21907518D01*
X58438000Y20450518D02*
X57000000Y20450518D01*
X59895000Y21907518D02*
X58438000Y20450518D01*
D39*
X48800000Y27112518D02*
X46900000Y27112518D01*
X36800000Y29112518D02*
X34838000Y29112518D01*
X34838000Y29112518D02*
X34600000Y28874518D01*
D40*
X54600000Y36550518D02*
X49262000Y36550518D01*
X50038000Y35212518D02*
X50038000Y35774518D01*
X48990000Y36822518D02*
X48990000Y37867418D01*
X48990000Y37867418D02*
X48990000Y37882518D01*
X50038000Y35774518D02*
X49262000Y36550518D01*
X49262000Y36550518D02*
X48990000Y36822518D01*
X50038000Y33812518D02*
X50038000Y35212518D01*
D39*
X48800000Y29512518D02*
X47800000Y29512518D01*
X47500000Y31550518D02*
X48300000Y32350518D01*
X47500000Y29812518D02*
X47500000Y31550518D01*
X47800000Y29512518D02*
X47500000Y29812518D01*
D40*
X24038000Y18812518D02*
X23830800Y18812518D01*
X23830800Y18812518D02*
X23830400Y18812118D01*
X21015000Y18812118D02*
X23830400Y18812118D01*
X21015000Y18812118D02*
X18500400Y18812118D01*
X15300000Y22012518D02*
X13000000Y24312518D01*
X18500400Y18812118D02*
X15300000Y22012518D01*
D38*
X12899700Y16297518D02*
X12899700Y24412818D01*
X12899700Y24412818D02*
X13000000Y24312518D01*
X12899700Y16297518D02*
X12899700Y15174218D01*
X12899700Y15174218D02*
X12138000Y14412518D01*
X19300000Y29950518D02*
X21176000Y29950518D01*
X21176000Y29950518D02*
X21200000Y29974518D01*
X19300500Y27727518D02*
X19300500Y29950018D01*
X19300500Y29950018D02*
X19300000Y29950518D01*
X19300500Y27727518D02*
X19300500Y26313018D01*
X19300500Y26313018D02*
X18400000Y25412518D01*
X18400000Y25412518D02*
X11900000Y25412518D01*
D40*
X11900000Y25412518D02*
X13000000Y24312518D01*
D38*
X11299500Y27727518D02*
X11299500Y29751018D01*
X11299500Y29751018D02*
X11100000Y29950518D01*
D40*
X9600000Y29950518D02*
X8314680Y29950518D01*
X55500000Y20450518D02*
X54324000Y20450518D01*
X54324000Y20450518D02*
X54262000Y20512518D01*
D39*
X48800000Y27112518D02*
X50362000Y27112518D01*
X50362000Y27112518D02*
X52000000Y28750518D01*
D40*
X29778000Y-2809482D02*
X30000000Y-2587482D01*
X28310000Y-2809482D02*
X29778000Y-2809482D01*
X33000000Y21350518D02*
X34600000Y21350518D01*
D38*
X73630460Y21969558D02*
X73568420Y21907518D01*
X76150000Y21969558D02*
X73630460Y21969558D01*
D37*
X-789000Y17585518D02*
X2259000Y17585518D01*
X2259000Y17585518D02*
X3148000Y18474518D01*
X3148000Y18474518D02*
X3148000Y19236518D01*
X3148000Y19236518D02*
X3656000Y19744518D01*
X3656000Y19744518D02*
X6831000Y19744518D01*
X6831000Y19744518D02*
X8298900Y21212418D01*
X8298900Y21212418D02*
X9585000Y21212418D01*
D40*
X-789000Y15934518D02*
X-789000Y17585518D01*
X5000000Y29950518D02*
X6285320Y29950518D01*
D37*
X5462000Y25912518D02*
X5462000Y29488518D01*
X5462000Y29488518D02*
X5000000Y29950518D01*
X9585000Y25212918D02*
X7299600Y25212918D01*
X7299600Y25212918D02*
X6600000Y25912518D01*
X6600000Y25912518D02*
X5462000Y25912518D01*
X9585000Y21212418D02*
X10553900Y21212418D01*
X10653600Y25212918D02*
X9585000Y25212918D01*
X11354000Y24512518D02*
X10653600Y25212918D01*
X11354000Y22012518D02*
X11354000Y24512518D01*
X10553900Y21212418D02*
X11354000Y22012518D01*
D40*
X6285320Y29950518D02*
X6347500Y30012698D01*
D38*
X6285320Y29950518D02*
X6347500Y30012698D01*
X25505000Y20417518D02*
X21020200Y20417518D01*
X21020200Y20417518D02*
X21015000Y20412318D01*
X33838000Y22112518D02*
X34600000Y22874518D01*
X25505000Y20417518D02*
X27500000Y22412518D01*
X27500000Y22412518D02*
X32000000Y22412518D01*
X32000000Y22412518D02*
X32300000Y22112518D01*
X32300000Y22112518D02*
X33838000Y22112518D01*
D39*
X36800000Y23112518D02*
X34838000Y23112518D01*
X34838000Y23112518D02*
X34600000Y22874518D01*
D38*
X25500000Y20412518D02*
X25505000Y20417518D01*
X32358000Y5266518D02*
X32358000Y4758518D01*
X31900000Y3462518D02*
X31900000Y2078018D01*
X16100100Y14602918D02*
X16100100Y16297518D01*
X16927500Y13775518D02*
X16100100Y14602918D01*
X25055500Y13775518D02*
X16927500Y13775518D01*
X28992500Y9838518D02*
X25055500Y13775518D01*
X28992500Y2536018D02*
X28992500Y9838518D01*
X29691000Y1837518D02*
X28992500Y2536018D01*
X31659500Y1837518D02*
X29691000Y1837518D01*
X31887250Y2065268D02*
X31659500Y1837518D01*
X31900000Y2078018D02*
X31887250Y2065268D01*
X32358000Y4758518D02*
X31900000Y4300518D01*
X31900000Y4300518D02*
X31900000Y3462518D01*
X31900000Y2052518D02*
X31887250Y2065268D01*
X31900000Y212518D02*
X31900000Y2052518D01*
X16900200Y14945818D02*
X16900200Y16297518D01*
X30630000Y4554518D02*
X30630000Y3462518D01*
X30834000Y4758518D02*
X30630000Y4554518D01*
X30834000Y5266518D02*
X29818000Y5266518D01*
X17054500Y14791518D02*
X16900200Y14945818D01*
X25055500Y14791518D02*
X17054500Y14791518D01*
X29754500Y10092518D02*
X25055500Y14791518D01*
X29754500Y9197018D02*
X29754500Y10092518D01*
X29754500Y5330018D02*
X29754500Y9197018D01*
X29818000Y5266518D02*
X29754500Y5330018D01*
X30834000Y5266518D02*
X30834000Y4758518D01*
X28300000Y212518D02*
X28290000Y222518D01*
X30000000Y212518D02*
X28300000Y212518D01*
X17574948Y18931466D02*
X16851552Y19312466D01*
X17700300Y18806114D02*
X17574948Y18931466D01*
X17700300Y16297518D02*
X17700300Y18806114D01*
X16851552Y19312466D02*
X16864000Y19300018D01*
X46582000Y5266518D02*
X46582000Y4174518D01*
X46582000Y4174518D02*
X45870000Y3462518D01*
X21015000Y24412818D02*
X23645580Y24412818D01*
X53867800Y42580198D02*
X51616440Y42580198D01*
X53998800Y42711198D02*
X53867800Y42580198D01*
X53998800Y48365238D02*
X53998800Y42711198D01*
X52870760Y49493278D02*
X53998800Y48365238D01*
X48726040Y49493278D02*
X52870760Y49493278D01*
X23645580Y24412818D02*
X48726040Y49493278D01*
X21015000Y25212918D02*
X23607480Y25212918D01*
X54600000Y48734318D02*
X54600000Y40240558D01*
X53241600Y50092718D02*
X54600000Y48734318D01*
X48487280Y50092718D02*
X53241600Y50092718D01*
X23607480Y25212918D02*
X48487280Y50092718D01*
X49086440Y42330198D02*
X49114380Y42330198D01*
X54600000Y40240558D02*
X54600000Y38074518D01*
X53467180Y41373378D02*
X54600000Y40240558D01*
X50071200Y41373378D02*
X53467180Y41373378D01*
X49114380Y42330198D02*
X50071200Y41373378D01*
X49286440Y47730198D02*
X47730040Y47730198D01*
X21918380Y22812618D02*
X21015000Y22812618D01*
X22609480Y23503718D02*
X21918380Y22812618D01*
X23503560Y23503718D02*
X22609480Y23503718D01*
X47730040Y47730198D02*
X23503560Y23503718D01*
D39*
X42300000Y35312518D02*
X39200000Y35312518D01*
X30500000Y26612518D02*
X30500000Y26512518D01*
X39200000Y35312518D02*
X30500000Y26612518D01*
X30500000Y23428518D02*
X32446000Y23428518D01*
X32446000Y23428518D02*
X33000000Y22874518D01*
X30500000Y26512518D02*
X30500000Y23428518D01*
X42600000Y32512518D02*
X42600000Y35012518D01*
X42600000Y35012518D02*
X42300000Y35312518D01*
X44700000Y37012518D02*
X44700000Y40173878D01*
X52693240Y47410198D02*
X51626440Y47410198D01*
X53421600Y46681838D02*
X52693240Y47410198D01*
X53421600Y44237118D02*
X53421600Y46681838D01*
X53070400Y43885918D02*
X53421600Y44237118D01*
X48412040Y43885918D02*
X53070400Y43885918D01*
X44700000Y40173878D02*
X48412040Y43885918D01*
D38*
X25520000Y22302518D02*
X40100000Y36912518D01*
X40100000Y36912518D02*
X42300000Y36912518D01*
D39*
X44200000Y37012518D02*
X44700000Y37012518D01*
D38*
X25520000Y22302518D02*
X25520000Y21702518D01*
X9585000Y18012018D02*
X11699500Y18012018D01*
X11699500Y18012018D02*
X12100000Y18412518D01*
D39*
X44200000Y32512518D02*
X44200000Y35812518D01*
X44200000Y35812518D02*
X44200000Y37012518D01*
D38*
X-6301060Y12632778D02*
X-6301060Y12472758D01*
X8099600Y18812118D02*
X5300000Y16012518D01*
X8099600Y18812118D02*
X9585000Y18812118D01*
X5300000Y9717738D02*
X5300000Y16012518D01*
X4521880Y8939618D02*
X5300000Y9717738D01*
X-2767920Y8939618D02*
X4521880Y8939618D01*
X-6301060Y12472758D02*
X-2767920Y8939618D01*
D39*
X43800000Y38312518D02*
X43800000Y41229678D01*
X47710520Y45140198D02*
X49026440Y45140198D01*
X43800000Y41229678D02*
X47710520Y45140198D01*
D38*
X39100000Y36712518D02*
X40300000Y37912518D01*
X40300000Y37912518D02*
X42300000Y37912518D01*
X22900000Y21212518D02*
X23600000Y21212518D01*
X23600000Y21212518D02*
X39100000Y36712518D01*
X11399600Y18812118D02*
X12000000Y19412518D01*
X9585000Y18812118D02*
X11399600Y18812118D01*
D39*
X43800000Y32512518D02*
X43800000Y38312518D01*
D38*
X-8841060Y12632778D02*
X-8782640Y12632778D01*
X2975020Y10362018D02*
X2975020Y17031538D01*
X2548300Y9935298D02*
X2975020Y10362018D01*
X-1576660Y9935298D02*
X2548300Y9935298D01*
X-5594940Y13953578D02*
X-1576660Y9935298D01*
X-7461840Y13953578D02*
X-5594940Y13953578D01*
X-8782640Y12632778D02*
X-7461840Y13953578D01*
X2894000Y16950518D02*
X2975020Y17031538D01*
X2975020Y17031538D02*
X4418000Y18474518D01*
D39*
X43000000Y38712518D02*
X43000000Y38862498D01*
X50048500Y46448138D02*
X51626440Y44870198D01*
X47766240Y46448138D02*
X50048500Y46448138D01*
X43100930Y41782828D02*
X47766240Y46448138D01*
X43100930Y38963428D02*
X43100930Y41782828D01*
X43000000Y38862498D02*
X43100930Y38963428D01*
D38*
X7841700Y19612218D02*
X9585000Y19612218D01*
X6704000Y18474518D02*
X7841700Y19612218D01*
X4418000Y18474518D02*
X6704000Y18474518D01*
X39300000Y37712518D02*
X40300000Y38712518D01*
X40300000Y38712518D02*
X43000000Y38712518D01*
X23900000Y22312518D02*
X23600000Y22012518D01*
X23600000Y22012518D02*
X23400000Y22012518D01*
X11199700Y19612218D02*
X12000000Y20412518D01*
X9585000Y19612218D02*
X11199700Y19612218D01*
X39300000Y37712518D02*
X23900000Y22312518D01*
D39*
X43000000Y32512518D02*
X43000000Y37712518D01*
X43000000Y37712518D02*
X43000000Y38712518D01*
D38*
X21015000Y23612718D02*
X19550200Y23612718D01*
X19550200Y23612718D02*
X19550000Y23612518D01*
X28516000Y21396518D02*
X29611000Y21396518D01*
X28500000Y21412518D02*
X28516000Y21396518D01*
X40300000Y39512518D02*
X42400000Y39512518D01*
X39300000Y38512518D02*
X40300000Y39512518D01*
D39*
X43400000Y32512518D02*
X43400000Y31412518D01*
D38*
X22900000Y22812518D02*
X23600000Y22812518D01*
X23600000Y22812518D02*
X39300000Y38512518D01*
D39*
X43400000Y31412518D02*
X43700000Y31112518D01*
D38*
X29611000Y19399000D02*
X29492000Y19280000D01*
X29611000Y21396518D02*
X29611000Y19399000D01*
X25570000Y19652518D02*
X25529700Y19612218D01*
X25529700Y19612218D02*
X24699700Y19612218D01*
X21015000Y19612218D02*
X24699700Y19612218D01*
X9585000Y23612718D02*
X7500200Y23612718D01*
X6700000Y22812518D02*
X5462000Y22812518D01*
X7500200Y23612718D02*
X6700000Y22812518D01*
X9585000Y24412818D02*
X5462300Y24412818D01*
X5462300Y24412818D02*
X5462000Y24412518D01*
X6300000Y10201998D02*
X6300000Y9170878D01*
X-8841060Y8451938D02*
X-8841060Y10092778D01*
X-8173040Y7783918D02*
X-8841060Y8451938D01*
X4913040Y7783918D02*
X-8173040Y7783918D01*
X6300000Y9170878D02*
X4913040Y7783918D01*
X8238000Y14412518D02*
X6500000Y14412518D01*
X12099600Y16297518D02*
X12099600Y17012918D01*
X6300000Y14212518D02*
X6300000Y10201998D01*
X6300000Y10201998D02*
X6300000Y10112518D01*
X9500000Y17412518D02*
X6500000Y14412518D01*
X6500000Y14412518D02*
X6300000Y14212518D01*
X11700000Y17412518D02*
X9500000Y17412518D01*
X12099600Y17012918D02*
X11700000Y17412518D01*
D40*
X3200000Y28674518D02*
X3200000Y29512518D01*
D38*
X3938000Y21312518D02*
X3100000Y21312518D01*
D40*
X35914000Y5266518D02*
X35914000Y3666518D01*
X35914000Y3666518D02*
X35710000Y3462518D01*
X37438000Y6790518D02*
X37438000Y8568518D01*
X38962000Y6790518D02*
X38962000Y8568518D01*
X40486000Y6790518D02*
X40486000Y8568518D01*
X42010000Y6790518D02*
X42010000Y8568518D01*
X43534000Y6790518D02*
X43534000Y8568518D01*
X45058000Y6790518D02*
X45058000Y8568518D01*
X42000000Y17250518D02*
X42000000Y16412518D01*
D37*
X47250000Y15412518D02*
X46962000Y15412518D01*
X47650000Y15812518D02*
X47250000Y15412518D01*
X47650000Y16250518D02*
X47650000Y15812518D01*
X46962000Y15412518D02*
X46362000Y16012518D01*
X57000000Y21974518D02*
X57000000Y23312518D01*
X54762000Y27512518D02*
X55550000Y27512518D01*
X64510000Y33244518D02*
X64510000Y34082518D01*
X53888000Y15512518D02*
X53050000Y15512518D01*
D39*
X36800000Y29512518D02*
X37900000Y29512518D01*
X37900000Y29512518D02*
X38200000Y29812518D01*
D40*
X23900000Y17150518D02*
X23900000Y16312518D01*
D37*
X9585000Y22812618D02*
X8300100Y22812618D01*
X8300100Y22812618D02*
X8300000Y22812518D01*
D39*
X48800000Y27512518D02*
X47900000Y27512518D01*
X47500000Y27912518D02*
X48800000Y27912518D01*
X47900000Y27512518D02*
X47500000Y27912518D01*
D38*
X34600000Y27350518D02*
X34600000Y26512518D01*
D40*
X51562000Y33812518D02*
X52400000Y33812518D01*
X51562000Y35212518D02*
X52400000Y35212518D01*
X48300000Y33874518D02*
X48300000Y34712518D01*
D38*
X21015000Y18012018D02*
X22100500Y18012018D01*
X22100500Y18012018D02*
X22300000Y17812518D01*
X18838000Y8012518D02*
X18000000Y8012518D01*
X18000000Y8012518D02*
X17162000Y8012518D01*
X13699800Y16297518D02*
X13699800Y17512318D01*
X13699800Y17512318D02*
X13800000Y17612518D01*
X13699800Y16297518D02*
X13699800Y14450318D01*
X13699800Y14450318D02*
X13662000Y14412518D01*
X19300000Y31474518D02*
X19300000Y32312518D01*
X18500400Y27727518D02*
X18500400Y26612918D01*
X18500400Y26612918D02*
X18100000Y26212518D01*
D40*
X12600000Y31474518D02*
X12600000Y32312518D01*
X11100000Y31474518D02*
X11100000Y32312518D01*
D38*
X12099600Y27727518D02*
X12099600Y26412918D01*
X12099600Y26412918D02*
X12100000Y26412518D01*
D40*
X9600000Y31474518D02*
X9600000Y32312518D01*
X5000000Y31474518D02*
X5000000Y32312518D01*
D39*
X40600000Y32512518D02*
X40600000Y33950518D01*
X40600000Y33950518D02*
X40338000Y34212518D01*
X40338000Y34212518D02*
X40200000Y34074518D01*
X40200000Y34074518D02*
X40200000Y32512518D01*
D38*
X58400000Y25712518D02*
X58400000Y26850518D01*
X57562000Y25712518D02*
X58400000Y25712518D01*
X58400000Y26850518D02*
X58300000Y26950518D01*
D39*
X42200000Y32512518D02*
X42200000Y31412518D01*
X42200000Y31412518D02*
X42500000Y31112518D01*
X41400000Y32512518D02*
X41400000Y31412518D01*
X41200000Y31212518D02*
X40600000Y31212518D01*
X41400000Y31412518D02*
X41200000Y31212518D01*
X41800000Y20512518D02*
X41800000Y21612518D01*
X41600000Y21812518D02*
X40200000Y21812518D01*
X41800000Y21612518D02*
X41600000Y21812518D01*
X39800000Y20512518D02*
X39800000Y21412518D01*
X39800000Y21412518D02*
X40200000Y21812518D01*
X40600000Y20512518D02*
X40600000Y21412518D01*
X40200000Y21812518D02*
X40200000Y20512518D01*
X40600000Y21412518D02*
X40200000Y21812518D01*
D40*
X43500000Y17250518D02*
X42000000Y17250518D01*
X56762000Y19012518D02*
X57600000Y19012518D01*
X54262000Y21912518D02*
X54262000Y22074518D01*
X54262000Y22074518D02*
X55500000Y23312518D01*
X55500000Y21974518D02*
X55500000Y23312518D01*
X55500000Y23312518D02*
X54262000Y23312518D01*
X52000000Y30274518D02*
X52000000Y31112518D01*
X50600000Y30274518D02*
X50600000Y31112518D01*
X54762000Y28912518D02*
X55600000Y28912518D01*
X54262000Y25712518D02*
X55100000Y25712518D01*
D39*
X40200000Y32512518D02*
X40200000Y31612518D01*
X40200000Y31612518D02*
X40600000Y31212518D01*
X41000000Y32512518D02*
X41000000Y31612518D01*
X40600000Y31212518D02*
X40600000Y32512518D01*
X41000000Y31612518D02*
X40600000Y31212518D01*
X48800000Y29112518D02*
X47800000Y29112518D01*
X47800000Y29112518D02*
X47500000Y28812518D01*
X48800000Y26312518D02*
X49800000Y26312518D01*
X49800000Y26312518D02*
X50200000Y25912518D01*
X45400000Y20512518D02*
X45400000Y21812518D01*
X48800000Y23912518D02*
X47500000Y23912518D01*
D40*
X30950000Y-967482D02*
X31130000Y-1147482D01*
X31350000Y-1147482D02*
X32960000Y-1147482D01*
X31130000Y-1147482D02*
X31350000Y-1147482D01*
X32960000Y-1147482D02*
X33170000Y-937482D01*
X33170000Y-937482D02*
X33170000Y3462518D01*
X30950000Y212518D02*
X30950000Y-967482D01*
X28378000Y-1147482D02*
X28320000Y-1205482D01*
X31350000Y-1147482D02*
X28378000Y-1147482D01*
D38*
X-7446330Y21552958D02*
X-7241330Y21347958D01*
X-7446330Y22472958D02*
X-7446330Y21552958D01*
D41*
X-7541330Y21047958D02*
X-7241330Y21347958D01*
X-10271330Y21047958D02*
X-7541330Y21047958D01*
X-7541330Y26497958D02*
X-7241330Y26197958D01*
X-10271330Y26497958D02*
X-7541330Y26497958D01*
D38*
X31389000Y21396518D02*
X31389000Y20423518D01*
X31389000Y20423518D02*
X31400000Y20412518D01*
D40*
X7300000Y32212338D02*
X7300000Y31112518D01*
D38*
X9585000Y22012518D02*
X7900000Y22012518D01*
X7200000Y21312518D02*
X5462000Y21312518D01*
X7900000Y22012518D02*
X7200000Y21312518D01*
X12899700Y27727518D02*
X12899700Y29650818D01*
X12899700Y29650818D02*
X12600000Y29950518D01*
X15638000Y8012518D02*
X15638000Y11974518D01*
X14499900Y13112618D02*
X14499900Y16297518D01*
X15638000Y11974518D02*
X14499900Y13112618D01*
X15638000Y8012518D02*
X15638000Y5100518D01*
X15638000Y5100518D02*
X15350000Y4812518D01*
X15300000Y16297518D02*
X15300000Y13412518D01*
X20362000Y8350518D02*
X20362000Y8012518D01*
X15300000Y13412518D02*
X20362000Y8350518D01*
X24850000Y4812518D02*
X22200000Y4812518D01*
X20362000Y6650518D02*
X20362000Y8012518D01*
X22200000Y4812518D02*
X20362000Y6650518D01*
D40*
X52738000Y23312518D02*
X52738000Y21912518D01*
X52738000Y21912518D02*
X52738000Y20512518D01*
D39*
X48800000Y23112518D02*
X52538000Y23112518D01*
X52538000Y23112518D02*
X52738000Y23312518D01*
D38*
X43534000Y5266518D02*
X43534000Y4504518D01*
X43534000Y4504518D02*
X43330000Y4300518D01*
X43330000Y4300518D02*
X43330000Y3462518D01*
X42010000Y5266518D02*
X42010000Y3512518D01*
X42010000Y3512518D02*
X42060000Y3462518D01*
X45058000Y5266518D02*
X45058000Y4758518D01*
X44600000Y4300518D02*
X44600000Y3462518D01*
X45058000Y4758518D02*
X44600000Y4300518D01*
X40486000Y5266518D02*
X40486000Y4758518D01*
X40486000Y4758518D02*
X40790000Y4454518D01*
X40790000Y4454518D02*
X40790000Y3462518D01*
X38962000Y5266518D02*
X38962000Y5012518D01*
X38962000Y5012518D02*
X39520000Y4454518D01*
X39520000Y4454518D02*
X39520000Y3462518D01*
X37438000Y5266518D02*
X37438000Y4758518D01*
X37438000Y4758518D02*
X37692000Y4504518D01*
X37692000Y4504518D02*
X37946000Y4504518D01*
X37946000Y4504518D02*
X38250000Y4200518D01*
X38250000Y4200518D02*
X38250000Y3462518D01*
X56038000Y25712518D02*
X56038000Y26188518D01*
X56038000Y26188518D02*
X56800000Y26950518D01*
D39*
X56038000Y25712518D02*
X56038000Y26074518D01*
X56038000Y26074518D02*
X55500000Y26612518D01*
X44200000Y20512518D02*
X44200000Y21812518D01*
X51400000Y25712518D02*
X52738000Y25712518D01*
X51300000Y25612518D02*
X51400000Y25712518D01*
X44200000Y20512518D02*
X44200000Y19474518D01*
X44200000Y19474518D02*
X43500000Y18774518D01*
X55500000Y26612518D02*
X53638000Y26612518D01*
X53638000Y26612518D02*
X52738000Y25712518D01*
X48800000Y25112518D02*
X52138000Y25112518D01*
X52138000Y25112518D02*
X52738000Y25712518D01*
D37*
X47650000Y17774518D02*
X48138000Y17774518D01*
X50250000Y15662518D02*
X50250000Y12812518D01*
X48138000Y17774518D02*
X50250000Y15662518D01*
X47650000Y17774518D02*
X46624000Y17774518D01*
X46624000Y17774518D02*
X46362000Y17512518D01*
D39*
X45000000Y20512518D02*
X45000000Y18874518D01*
X45000000Y18874518D02*
X46362000Y17512518D01*
D37*
X44838000Y17512518D02*
X44838000Y16012518D01*
X44838000Y16012518D02*
X41638000Y12812518D01*
X41638000Y12812518D02*
X40750000Y12812518D01*
D39*
X44600000Y20512518D02*
X44600000Y17750518D01*
X44600000Y17750518D02*
X44838000Y17512518D01*
D37*
X-7316330Y25052958D02*
X-186550Y25052958D01*
X663490Y25912518D02*
X3938000Y25912518D01*
X663490Y25912518D02*
X-191310Y25057718D01*
X-186550Y25052958D02*
X-191310Y25057718D01*
X3200000Y27150518D02*
X3200000Y26650518D01*
X3200000Y26650518D02*
X3938000Y25912518D01*
X64510000Y31720518D02*
X64510000Y31544518D01*
X65440000Y30464518D02*
X65210000Y30694518D01*
X64510000Y31394518D02*
X65210000Y30694518D01*
X64510000Y31394518D02*
X64510000Y31720518D01*
X65440000Y29124518D02*
X65440000Y30464518D01*
X63680000Y30674518D02*
X63660000Y30694518D01*
X63660000Y30694518D02*
X64510000Y31544518D01*
X63680000Y30254518D02*
X63680000Y30674518D01*
X56700000Y15300518D02*
X57700000Y15300518D01*
X57700000Y15300518D02*
X58250000Y15850518D01*
X56700000Y15300518D02*
X55624000Y15300518D01*
X55624000Y15300518D02*
X55412000Y15512518D01*
X-7496330Y24422958D02*
X3927560Y24422958D01*
X3927560Y24422958D02*
X3938000Y24412518D01*
X3933200Y24407718D02*
X3938000Y24412518D01*
D38*
X3888000Y24462518D02*
X3938000Y24412518D01*
D37*
X-321640Y23757718D02*
X-7411090Y23757718D01*
X3938000Y22812518D02*
X623560Y22812518D01*
X623560Y22812518D02*
X-321640Y23757718D01*
X-7411090Y23757718D02*
X-7406330Y23752958D01*
D39*
X62995000Y17512518D02*
X59250000Y17512518D01*
X72500000Y17512518D02*
X62995000Y17512518D01*
X72534534Y17512518D02*
X72500000Y17512518D01*
X59250000Y17512518D02*
X58388000Y17512518D01*
X58388000Y17512518D02*
X58250000Y17374518D01*
X48800000Y25512518D02*
X47900000Y25512518D01*
X52700000Y17512518D02*
X59250000Y17512518D01*
X46800000Y23412518D02*
X52700000Y17512518D01*
X46800000Y24412518D02*
X46800000Y23412518D01*
X47900000Y25512518D02*
X46800000Y24412518D01*
X74232960Y17512518D02*
X76150000Y19429558D01*
X72500000Y17512518D02*
X74232960Y17512518D01*
X56912000Y16612518D02*
X56700000Y16824518D01*
X48800000Y25912518D02*
X47700000Y25912518D01*
X47700000Y25912518D02*
X46400000Y24612518D01*
X46400000Y24612518D02*
X46400000Y23212518D01*
X46400000Y23212518D02*
X53000000Y16612518D01*
X57700000Y16612518D02*
X56912000Y16612518D01*
X57350000Y16612518D02*
X57700000Y16612518D01*
X53000000Y16612518D02*
X57350000Y16612518D01*
X75300000Y16612518D02*
X77580000Y18892518D01*
X77580000Y18892518D02*
X77580000Y20102518D01*
X77580000Y20102518D02*
X76982960Y20699558D01*
X76982960Y20699558D02*
X73610000Y20699558D01*
X57350000Y16612518D02*
X75300000Y16612518D01*
X76150000Y26452518D02*
X76150000Y27049558D01*
X76150000Y27049558D02*
X76150000Y26402518D01*
X59440000Y24312518D02*
X62177040Y27049558D01*
X65127040Y27049558D02*
X76150000Y27049558D01*
X62177040Y27049558D02*
X65127040Y27049558D01*
X48800000Y24312518D02*
X59440000Y24312518D01*
X65440000Y27362518D02*
X65127040Y27049558D01*
X65440000Y27600518D02*
X65440000Y27362518D01*
X62907040Y28319558D02*
X62310000Y27722518D01*
X59300000Y24712518D02*
X62310000Y27722518D01*
X59300000Y24712518D02*
X48800000Y24712518D01*
X63802960Y28319558D02*
X62907040Y28319558D01*
X73610000Y28319558D02*
X63802960Y28319558D01*
X63660000Y28462518D02*
X63802960Y28319558D01*
X63660000Y29170518D02*
X63660000Y28462518D01*
D38*
X83360460Y34448178D02*
X83363000Y34450718D01*
D37*
X83363000Y34450718D02*
X83343000Y34430718D01*
D39*
X83363000Y32716558D02*
X85880000Y30199558D01*
X83363000Y34450718D02*
X83363000Y32716558D01*
X54450000Y14412518D02*
X52550000Y14412518D01*
X52050000Y14912518D02*
X52050000Y16462518D01*
X52550000Y14412518D02*
X52050000Y14912518D01*
X42600000Y21412518D02*
X42600000Y20512518D01*
X46000000Y22512518D02*
X52050000Y16462518D01*
X43700000Y22512518D02*
X46000000Y22512518D01*
X42600000Y21412518D02*
X43700000Y22512518D01*
X54450000Y14412518D02*
X71500000Y14412518D01*
X74083494Y14412518D02*
X71500000Y14412518D01*
X87340460Y27669484D02*
X74083494Y14412518D01*
D38*
X85063000Y32949518D02*
X85063000Y34450718D01*
X85110000Y32902518D02*
X85063000Y32949518D01*
D39*
X87310460Y17559558D02*
X87310460Y17520884D01*
X61000000Y13912518D02*
X73800000Y13912518D01*
X41000000Y18062518D02*
X37400000Y14462518D01*
X37400000Y14462518D02*
X37400000Y11212518D01*
X37400000Y11212518D02*
X38200000Y10412518D01*
X38200000Y10412518D02*
X52450000Y10412518D01*
X41000000Y18062518D02*
X41000000Y20512518D01*
X55400000Y13912518D02*
X53700000Y12212518D01*
X53700000Y12212518D02*
X53700000Y11662518D01*
X53700000Y11662518D02*
X52450000Y10412518D01*
X61000000Y13912518D02*
X55400000Y13912518D01*
X83702094Y13912518D02*
X73800000Y13912518D01*
X87310460Y17520884D02*
X83702094Y13912518D01*
D38*
X21015000Y26013018D02*
X21015000Y28265518D01*
X21015000Y28265518D02*
X21200000Y28450518D01*
D40*
X-2313000Y17585518D02*
X-2313000Y15934518D01*
X-750000Y13062518D02*
X-1854000Y13062518D01*
X-2313000Y13521518D02*
X-2313000Y17585518D01*
X-1854000Y13062518D02*
X-2313000Y13521518D01*
X54262000Y19012518D02*
X55238000Y19012518D01*
D39*
X48800000Y22712518D02*
X49700000Y22712518D01*
X52200000Y19012518D02*
X52738000Y19012518D01*
X50800000Y20412518D02*
X52200000Y19012518D01*
X50800000Y21612518D02*
X50800000Y20412518D01*
X49700000Y22712518D02*
X50800000Y21612518D01*
D42*
G36*
X11248960Y27580518D02*
X11197900Y27580518D01*
X11197900Y27600518D01*
X10620050Y27600518D01*
X10461300Y27441768D01*
X10461300Y27091827D01*
X10461300Y26840737D01*
X10347000Y26863658D01*
X9473000Y26863658D01*
X9473000Y29156768D01*
X9473000Y29823518D01*
X9190980Y29823518D01*
X9128800Y29885698D01*
X8379500Y29885698D01*
X8379500Y29036068D01*
X8538250Y28877318D01*
X8778859Y28877318D01*
X9012248Y28973991D01*
X9036275Y28998018D01*
X9154809Y28998018D01*
X9314250Y28998018D01*
X9473000Y29156768D01*
X9473000Y26863658D01*
X8823000Y26863658D01*
X8580877Y26816681D01*
X8368073Y26676891D01*
X8225623Y26465858D01*
X8220340Y26439518D01*
X7253868Y26439518D01*
X7190434Y26502952D01*
X6919541Y26683957D01*
X6600000Y26747518D01*
X6365920Y26747518D01*
X6297000Y26852437D01*
X6297000Y28864878D01*
X6747550Y28864878D01*
X6989673Y28911855D01*
X7202477Y29051645D01*
X7297585Y29192544D01*
X7314123Y29152619D01*
X7492752Y28973991D01*
X7726141Y28877318D01*
X7966750Y28877318D01*
X8125500Y29036068D01*
X8125500Y29885698D01*
X8105500Y29885698D01*
X8105500Y30139698D01*
X8125500Y30139698D01*
X8125500Y30159698D01*
X8379500Y30159698D01*
X8379500Y30139698D01*
X8490070Y30139698D01*
X8552250Y30077518D01*
X9473000Y30077518D01*
X9473000Y30097518D01*
X9727000Y30097518D01*
X9727000Y30077518D01*
X10052250Y30077518D01*
X10647750Y30077518D01*
X10973000Y30077518D01*
X10973000Y30097518D01*
X11227000Y30097518D01*
X11227000Y30077518D01*
X11247000Y30077518D01*
X11247000Y29823518D01*
X11227000Y29823518D01*
X11227000Y29803518D01*
X10973000Y29803518D01*
X10973000Y29823518D01*
X10647750Y29823518D01*
X10052250Y29823518D01*
X9727000Y29823518D01*
X9727000Y29156768D01*
X9885750Y28998018D01*
X10045191Y28998018D01*
X10297810Y28998018D01*
X10350000Y29019636D01*
X10402190Y28998018D01*
X10654809Y28998018D01*
X10706774Y28998018D01*
X10557973Y28849217D01*
X10461300Y28615828D01*
X10461300Y28363209D01*
X10461300Y28013268D01*
X10620050Y27854518D01*
X11197900Y27854518D01*
X11197900Y27874518D01*
X11248960Y27874518D01*
X11248960Y27580518D01*
X11248960Y27580518D01*
G37*
X11248960Y27580518D02*
X11197900Y27580518D01*
X11197900Y27600518D01*
X10620050Y27600518D01*
X10461300Y27441768D01*
X10461300Y27091827D01*
X10461300Y26840737D01*
X10347000Y26863658D01*
X9473000Y26863658D01*
X9473000Y29156768D01*
X9473000Y29823518D01*
X9190980Y29823518D01*
X9128800Y29885698D01*
X8379500Y29885698D01*
X8379500Y29036068D01*
X8538250Y28877318D01*
X8778859Y28877318D01*
X9012248Y28973991D01*
X9036275Y28998018D01*
X9154809Y28998018D01*
X9314250Y28998018D01*
X9473000Y29156768D01*
X9473000Y26863658D01*
X8823000Y26863658D01*
X8580877Y26816681D01*
X8368073Y26676891D01*
X8225623Y26465858D01*
X8220340Y26439518D01*
X7253868Y26439518D01*
X7190434Y26502952D01*
X6919541Y26683957D01*
X6600000Y26747518D01*
X6365920Y26747518D01*
X6297000Y26852437D01*
X6297000Y28864878D01*
X6747550Y28864878D01*
X6989673Y28911855D01*
X7202477Y29051645D01*
X7297585Y29192544D01*
X7314123Y29152619D01*
X7492752Y28973991D01*
X7726141Y28877318D01*
X7966750Y28877318D01*
X8125500Y29036068D01*
X8125500Y29885698D01*
X8105500Y29885698D01*
X8105500Y30139698D01*
X8125500Y30139698D01*
X8125500Y30159698D01*
X8379500Y30159698D01*
X8379500Y30139698D01*
X8490070Y30139698D01*
X8552250Y30077518D01*
X9473000Y30077518D01*
X9473000Y30097518D01*
X9727000Y30097518D01*
X9727000Y30077518D01*
X10052250Y30077518D01*
X10647750Y30077518D01*
X10973000Y30077518D01*
X10973000Y30097518D01*
X11227000Y30097518D01*
X11227000Y30077518D01*
X11247000Y30077518D01*
X11247000Y29823518D01*
X11227000Y29823518D01*
X11227000Y29803518D01*
X10973000Y29803518D01*
X10973000Y29823518D01*
X10647750Y29823518D01*
X10052250Y29823518D01*
X9727000Y29823518D01*
X9727000Y29156768D01*
X9885750Y28998018D01*
X10045191Y28998018D01*
X10297810Y28998018D01*
X10350000Y29019636D01*
X10402190Y28998018D01*
X10654809Y28998018D01*
X10706774Y28998018D01*
X10557973Y28849217D01*
X10461300Y28615828D01*
X10461300Y28363209D01*
X10461300Y28013268D01*
X10620050Y27854518D01*
X11197900Y27854518D01*
X11197900Y27874518D01*
X11248960Y27874518D01*
X11248960Y27580518D01*
G36*
X34575062Y3535346D02*
X34574935Y3389564D01*
X34454142Y3268771D01*
X34440000Y3282913D01*
X34425857Y3268771D01*
X34304937Y3389691D01*
X34305064Y3535473D01*
X34425857Y3656266D01*
X34440000Y3642123D01*
X34454142Y3656266D01*
X34575062Y3535346D01*
X34575062Y3535346D01*
G37*
X34575062Y3535346D02*
X34574935Y3389564D01*
X34454142Y3268771D01*
X34440000Y3282913D01*
X34425857Y3268771D01*
X34304937Y3389691D01*
X34305064Y3535473D01*
X34425857Y3656266D01*
X34440000Y3642123D01*
X34454142Y3656266D01*
X34575062Y3535346D01*
G36*
X34747000Y28747518D02*
X34727000Y28747518D01*
X34727000Y28727518D01*
X34473000Y28727518D01*
X34473000Y28747518D01*
X34453000Y28747518D01*
X34453000Y29001518D01*
X34473000Y29001518D01*
X34473000Y29021518D01*
X34727000Y29021518D01*
X34727000Y29001518D01*
X34747000Y29001518D01*
X34747000Y28747518D01*
X34747000Y28747518D01*
G37*
X34747000Y28747518D02*
X34727000Y28747518D01*
X34727000Y28727518D01*
X34473000Y28727518D01*
X34473000Y28747518D01*
X34453000Y28747518D01*
X34453000Y29001518D01*
X34473000Y29001518D01*
X34473000Y29021518D01*
X34727000Y29021518D01*
X34727000Y29001518D01*
X34747000Y29001518D01*
X34747000Y28747518D01*
G36*
X37115062Y3535346D02*
X37114935Y3389564D01*
X36994142Y3268771D01*
X36980000Y3282913D01*
X36965857Y3268771D01*
X36844937Y3389691D01*
X36845064Y3535473D01*
X36965857Y3656266D01*
X36980000Y3642123D01*
X36994142Y3656266D01*
X37115062Y3535346D01*
X37115062Y3535346D01*
G37*
X37115062Y3535346D02*
X37114935Y3389564D01*
X36994142Y3268771D01*
X36980000Y3282913D01*
X36965857Y3268771D01*
X36844937Y3389691D01*
X36845064Y3535473D01*
X36965857Y3656266D01*
X36980000Y3642123D01*
X36994142Y3656266D01*
X37115062Y3535346D01*
G36*
X74859501Y19964558D02*
X74753243Y19708658D01*
X74752758Y19152897D01*
X74776480Y19095485D01*
X73928513Y18247518D01*
X72534534Y18247518D01*
X72500000Y18247518D01*
X62995000Y18247518D01*
X59250000Y18247518D01*
X59133178Y18247518D01*
X59071140Y18289395D01*
X58821500Y18339458D01*
X58319981Y18339458D01*
X58434555Y18453832D01*
X58584828Y18815730D01*
X58585170Y19207587D01*
X58435529Y19569747D01*
X58158686Y19847073D01*
X58143063Y19853561D01*
X58206500Y20006709D01*
X58206500Y20164768D01*
X58047750Y20323518D01*
X57127000Y20323518D01*
X57127000Y20303518D01*
X56873000Y20303518D01*
X56873000Y20323518D01*
X56547750Y20323518D01*
X55952250Y20323518D01*
X55627000Y20323518D01*
X55627000Y20303518D01*
X55373000Y20303518D01*
X55373000Y20323518D01*
X55117750Y20323518D01*
X55055750Y20385518D01*
X54389000Y20385518D01*
X54389000Y20365518D01*
X54135000Y20365518D01*
X54135000Y20385518D01*
X54115000Y20385518D01*
X54115000Y20639518D01*
X54135000Y20639518D01*
X54135000Y20659518D01*
X54370250Y20659518D01*
X54389000Y20640768D01*
X54389000Y20639518D01*
X54390250Y20639518D01*
X54452250Y20577518D01*
X55373000Y20577518D01*
X55373000Y20597518D01*
X55627000Y20597518D01*
X55627000Y20577518D01*
X55952250Y20577518D01*
X56547750Y20577518D01*
X56873000Y20577518D01*
X56873000Y20597518D01*
X57127000Y20597518D01*
X57127000Y20577518D01*
X58047750Y20577518D01*
X58206500Y20736268D01*
X58206500Y20894327D01*
X58109827Y21127716D01*
X58032379Y21205164D01*
X58168877Y21407378D01*
X58218940Y21657018D01*
X58218940Y22292018D01*
X58171963Y22534141D01*
X58032173Y22746945D01*
X57875585Y22852644D01*
X57984828Y23115730D01*
X57985170Y23507587D01*
X57956275Y23577518D01*
X59440000Y23577518D01*
X59440000Y23577519D01*
X59721272Y23633467D01*
X59959723Y23792795D01*
X61632446Y25465518D01*
X72228202Y25465518D01*
X72424990Y24989255D01*
X72817630Y24595929D01*
X73025512Y24509609D01*
X72819697Y24424568D01*
X72426371Y24031928D01*
X72213243Y23518658D01*
X72212758Y22962897D01*
X72424990Y22449255D01*
X72817630Y22055929D01*
X73025512Y21969609D01*
X72819697Y21884568D01*
X72426371Y21491928D01*
X72213243Y20978658D01*
X72212758Y20422897D01*
X72424990Y19909255D01*
X72817630Y19515929D01*
X73330900Y19302801D01*
X73886661Y19302316D01*
X74400303Y19514548D01*
X74793629Y19907188D01*
X74817451Y19964558D01*
X74859501Y19964558D01*
X74859501Y19964558D01*
G37*
X74859501Y19964558D02*
X74753243Y19708658D01*
X74752758Y19152897D01*
X74776480Y19095485D01*
X73928513Y18247518D01*
X72534534Y18247518D01*
X72500000Y18247518D01*
X62995000Y18247518D01*
X59250000Y18247518D01*
X59133178Y18247518D01*
X59071140Y18289395D01*
X58821500Y18339458D01*
X58319981Y18339458D01*
X58434555Y18453832D01*
X58584828Y18815730D01*
X58585170Y19207587D01*
X58435529Y19569747D01*
X58158686Y19847073D01*
X58143063Y19853561D01*
X58206500Y20006709D01*
X58206500Y20164768D01*
X58047750Y20323518D01*
X57127000Y20323518D01*
X57127000Y20303518D01*
X56873000Y20303518D01*
X56873000Y20323518D01*
X56547750Y20323518D01*
X55952250Y20323518D01*
X55627000Y20323518D01*
X55627000Y20303518D01*
X55373000Y20303518D01*
X55373000Y20323518D01*
X55117750Y20323518D01*
X55055750Y20385518D01*
X54389000Y20385518D01*
X54389000Y20365518D01*
X54135000Y20365518D01*
X54135000Y20385518D01*
X54115000Y20385518D01*
X54115000Y20639518D01*
X54135000Y20639518D01*
X54135000Y20659518D01*
X54370250Y20659518D01*
X54389000Y20640768D01*
X54389000Y20639518D01*
X54390250Y20639518D01*
X54452250Y20577518D01*
X55373000Y20577518D01*
X55373000Y20597518D01*
X55627000Y20597518D01*
X55627000Y20577518D01*
X55952250Y20577518D01*
X56547750Y20577518D01*
X56873000Y20577518D01*
X56873000Y20597518D01*
X57127000Y20597518D01*
X57127000Y20577518D01*
X58047750Y20577518D01*
X58206500Y20736268D01*
X58206500Y20894327D01*
X58109827Y21127716D01*
X58032379Y21205164D01*
X58168877Y21407378D01*
X58218940Y21657018D01*
X58218940Y22292018D01*
X58171963Y22534141D01*
X58032173Y22746945D01*
X57875585Y22852644D01*
X57984828Y23115730D01*
X57985170Y23507587D01*
X57956275Y23577518D01*
X59440000Y23577518D01*
X59440000Y23577519D01*
X59721272Y23633467D01*
X59959723Y23792795D01*
X61632446Y25465518D01*
X72228202Y25465518D01*
X72424990Y24989255D01*
X72817630Y24595929D01*
X73025512Y24509609D01*
X72819697Y24424568D01*
X72426371Y24031928D01*
X72213243Y23518658D01*
X72212758Y22962897D01*
X72424990Y22449255D01*
X72817630Y22055929D01*
X73025512Y21969609D01*
X72819697Y21884568D01*
X72426371Y21491928D01*
X72213243Y20978658D01*
X72212758Y20422897D01*
X72424990Y19909255D01*
X72817630Y19515929D01*
X73330900Y19302801D01*
X73886661Y19302316D01*
X74400303Y19514548D01*
X74793629Y19907188D01*
X74817451Y19964558D01*
X74859501Y19964558D01*
G36*
X88064784Y28991451D02*
X87696681Y29144300D01*
X87105911Y29144815D01*
X86797844Y29017525D01*
X87138188Y29357275D01*
X87364742Y29902877D01*
X87365257Y30493647D01*
X87139656Y31039644D01*
X86722283Y31457746D01*
X86585681Y31514469D01*
X86585681Y48394384D01*
X85995471Y49822801D01*
X84903557Y50916623D01*
X83476173Y51509324D01*
X81930624Y51510673D01*
X80502207Y50920463D01*
X79408385Y49828549D01*
X78815684Y48401165D01*
X78814335Y46855616D01*
X79404545Y45427199D01*
X80496459Y44333377D01*
X81923843Y43740676D01*
X83469392Y43739327D01*
X84897809Y44329537D01*
X85991631Y45421451D01*
X86584332Y46848835D01*
X86585681Y48394384D01*
X86585681Y31514469D01*
X86176681Y31684300D01*
X85585911Y31684815D01*
X85478550Y31640455D01*
X85201566Y31917439D01*
X85305069Y31917348D01*
X85667229Y32066989D01*
X85944555Y32343832D01*
X86094828Y32705730D01*
X86095170Y33097587D01*
X85945529Y33459747D01*
X85873293Y33532109D01*
X85876623Y33532755D01*
X86089427Y33672545D01*
X86231877Y33883578D01*
X86281940Y34133218D01*
X86281940Y34768218D01*
X86234963Y35010341D01*
X86096473Y35221166D01*
X86172827Y35297520D01*
X86269500Y35530909D01*
X86269500Y35688968D01*
X86269500Y36260468D01*
X86269500Y36418527D01*
X86172827Y36651916D01*
X85994199Y36830545D01*
X85760810Y36927218D01*
X85508191Y36927218D01*
X85348750Y36927218D01*
X85190000Y36768468D01*
X85190000Y36101718D01*
X86110750Y36101718D01*
X86269500Y36260468D01*
X86269500Y35688968D01*
X86110750Y35847718D01*
X85190000Y35847718D01*
X85190000Y35827718D01*
X84936000Y35827718D01*
X84936000Y35847718D01*
X84936000Y36101718D01*
X84936000Y36768468D01*
X84777250Y36927218D01*
X84617809Y36927218D01*
X84365190Y36927218D01*
X84213000Y36864179D01*
X84060810Y36927218D01*
X83808191Y36927218D01*
X83648750Y36927218D01*
X83490000Y36768468D01*
X83490000Y36101718D01*
X84015250Y36101718D01*
X84410750Y36101718D01*
X84936000Y36101718D01*
X84936000Y35847718D01*
X84410750Y35847718D01*
X84015250Y35847718D01*
X83490000Y35847718D01*
X83490000Y35827718D01*
X83236000Y35827718D01*
X83236000Y35847718D01*
X83236000Y36101718D01*
X83236000Y36768468D01*
X83077250Y36927218D01*
X82917809Y36927218D01*
X82665190Y36927218D01*
X82431801Y36830545D01*
X82253173Y36651916D01*
X82156500Y36418527D01*
X82156500Y36260468D01*
X82315250Y36101718D01*
X83236000Y36101718D01*
X83236000Y35847718D01*
X82315250Y35847718D01*
X82156500Y35688968D01*
X82156500Y35530909D01*
X82253173Y35297520D01*
X82330620Y35220073D01*
X82194123Y35017858D01*
X82144060Y34768218D01*
X82144060Y34133218D01*
X82191037Y33891095D01*
X82330827Y33678291D01*
X82541860Y33535841D01*
X82628000Y33518567D01*
X82628000Y32716558D01*
X82683949Y32435286D01*
X82824941Y32224276D01*
X81978166Y32225015D01*
X81335270Y31959376D01*
X81335326Y32022863D01*
X81048957Y32715930D01*
X80519161Y33246651D01*
X79826595Y33534230D01*
X79076695Y33534884D01*
X78383628Y33248515D01*
X77852907Y32718719D01*
X77565328Y32026153D01*
X77564674Y31276253D01*
X77851043Y30583186D01*
X78380839Y30052465D01*
X79073405Y29764886D01*
X79823305Y29764232D01*
X79865166Y29781529D01*
X79864543Y29067724D01*
X80264853Y28098900D01*
X81005443Y27357016D01*
X81973567Y26955016D01*
X83021834Y26954101D01*
X83990658Y27354411D01*
X84732542Y28095001D01*
X85077180Y28924984D01*
X85583319Y28714816D01*
X86174089Y28714301D01*
X86482155Y28841592D01*
X86141812Y28501841D01*
X85915258Y27956239D01*
X85914743Y27365469D01*
X85938792Y27307264D01*
X78315000Y19683471D01*
X78315000Y20102518D01*
X78259051Y20383790D01*
X78099723Y20622241D01*
X78099723Y20622242D01*
X77502683Y21219281D01*
X77391964Y21293262D01*
X77559144Y21761860D01*
X77531362Y22316926D01*
X77372397Y22700701D01*
X77130213Y22770166D01*
X76329605Y21969558D01*
X76343747Y21955416D01*
X76164142Y21775811D01*
X76150000Y21789953D01*
X76135857Y21775811D01*
X75956252Y21955416D01*
X75970395Y21969558D01*
X75169787Y22770166D01*
X74927603Y22700701D01*
X74740856Y22177256D01*
X74768638Y21622190D01*
X74846357Y21434558D01*
X74817860Y21434558D01*
X74795010Y21489861D01*
X74402370Y21883187D01*
X74194487Y21969508D01*
X74400303Y22054548D01*
X74793629Y22447188D01*
X75006757Y22960458D01*
X75007242Y23516219D01*
X74795010Y24029861D01*
X74402370Y24423187D01*
X74194487Y24509508D01*
X74400303Y24594548D01*
X74793629Y24987188D01*
X74992248Y25465518D01*
X75045800Y25465518D01*
X75045800Y26178304D01*
X75357630Y25865929D01*
X75565512Y25779609D01*
X75359697Y25694568D01*
X74966371Y25301928D01*
X74753243Y24788658D01*
X74752758Y24232897D01*
X74964990Y23719255D01*
X75357630Y23325929D01*
X75549727Y23246164D01*
X75418857Y23191955D01*
X75349392Y22949771D01*
X76150000Y22149163D01*
X76950608Y22949771D01*
X76881143Y23191955D01*
X76740682Y23242067D01*
X76940303Y23324548D01*
X77333629Y23717188D01*
X77546757Y24230458D01*
X77547242Y24786219D01*
X77335010Y25299861D01*
X76942370Y25693187D01*
X76734487Y25779508D01*
X76940303Y25864548D01*
X77333629Y26257188D01*
X77546757Y26770458D01*
X77547242Y27326219D01*
X77335010Y27839861D01*
X76942370Y28233187D01*
X76429100Y28446315D01*
X75873339Y28446800D01*
X75359697Y28234568D01*
X75045800Y27921219D01*
X75045800Y29819518D01*
X66344659Y29819518D01*
X66275000Y29866540D01*
X66275000Y30464518D01*
X66211439Y30784058D01*
X66211439Y30784059D01*
X66030434Y31054952D01*
X65800436Y31284950D01*
X65800434Y31284952D01*
X65800434Y31284953D01*
X65721160Y31364227D01*
X65728940Y31403018D01*
X65728940Y32038018D01*
X65681963Y32280141D01*
X65548194Y32483779D01*
X65678877Y32677378D01*
X65728940Y32927018D01*
X65728940Y33562018D01*
X65681963Y33804141D01*
X65542173Y34016945D01*
X65494970Y34048808D01*
X65495170Y34277587D01*
X65345529Y34639747D01*
X65068686Y34917073D01*
X64706788Y35067346D01*
X64314931Y35067688D01*
X63952771Y34918047D01*
X63675445Y34641204D01*
X63525172Y34279306D01*
X63524971Y34049886D01*
X63483573Y34022691D01*
X63341123Y33811658D01*
X63291060Y33562018D01*
X63291060Y32927018D01*
X63338037Y32684895D01*
X63471805Y32481258D01*
X63341123Y32287658D01*
X63291060Y32038018D01*
X63291060Y31506446D01*
X63069566Y31284952D01*
X63013486Y31201024D01*
X62866377Y31172481D01*
X62653573Y31032691D01*
X62511123Y30821658D01*
X62461060Y30572018D01*
X62461060Y29937018D01*
X62483857Y29819518D01*
X58843000Y29819518D01*
X58843000Y29439458D01*
X57728500Y29439458D01*
X57547050Y29404253D01*
X57451405Y29423434D01*
X57355079Y29567597D01*
X56355079Y30567597D01*
X56100407Y30737763D01*
X55806500Y30796226D01*
X55806500Y36106709D01*
X55806500Y36264768D01*
X55647750Y36423518D01*
X54727000Y36423518D01*
X54727000Y35756768D01*
X54885750Y35598018D01*
X55045191Y35598018D01*
X55297810Y35598018D01*
X55531199Y35694691D01*
X55709827Y35873320D01*
X55806500Y36106709D01*
X55806500Y30796226D01*
X55800000Y30797518D01*
X54473000Y30797518D01*
X54473000Y35756768D01*
X54473000Y36423518D01*
X53552250Y36423518D01*
X53393500Y36264768D01*
X53393500Y36106709D01*
X53490173Y35873320D01*
X53668801Y35694691D01*
X53902190Y35598018D01*
X54154809Y35598018D01*
X54314250Y35598018D01*
X54473000Y35756768D01*
X54473000Y30797518D01*
X54338000Y30797518D01*
X54037594Y30737763D01*
X53782921Y30567597D01*
X53385170Y30169846D01*
X53385170Y34007587D01*
X53235529Y34369747D01*
X53093000Y34512525D01*
X53234555Y34653832D01*
X53384828Y35015730D01*
X53385170Y35407587D01*
X53235529Y35769747D01*
X52958686Y36047073D01*
X52596788Y36197346D01*
X52367367Y36197547D01*
X52340173Y36238945D01*
X52129140Y36381395D01*
X51879500Y36431458D01*
X51244500Y36431458D01*
X51002377Y36384481D01*
X50791552Y36245992D01*
X50715198Y36322345D01*
X50481809Y36419018D01*
X50323750Y36419018D01*
X50165000Y36260268D01*
X50165000Y35339518D01*
X50185000Y35339518D01*
X50185000Y35085518D01*
X50165000Y35085518D01*
X50165000Y34860268D01*
X50165000Y34164768D01*
X50165000Y33939518D01*
X50185000Y33939518D01*
X50185000Y33685518D01*
X50165000Y33685518D01*
X50165000Y32764768D01*
X50323750Y32606018D01*
X50481809Y32606018D01*
X50715198Y32702691D01*
X50792645Y32780139D01*
X50994860Y32643641D01*
X51244500Y32593578D01*
X51879500Y32593578D01*
X52121623Y32640555D01*
X52334427Y32780345D01*
X52366289Y32827548D01*
X52595069Y32827348D01*
X52957229Y32976989D01*
X53234555Y33253832D01*
X53384828Y33615730D01*
X53385170Y34007587D01*
X53385170Y30169846D01*
X53346782Y30131458D01*
X53218940Y30131458D01*
X53218940Y30592018D01*
X53171963Y30834141D01*
X53032173Y31046945D01*
X52984970Y31078808D01*
X52985170Y31307587D01*
X52835529Y31669747D01*
X52558686Y31947073D01*
X52196788Y32097346D01*
X51804931Y32097688D01*
X51442771Y31948047D01*
X51299993Y31805519D01*
X51158686Y31947073D01*
X50796788Y32097346D01*
X50404931Y32097688D01*
X50042771Y31948047D01*
X49986994Y31892368D01*
X49986994Y39012359D01*
X49086440Y39912913D01*
X48906835Y39733308D01*
X48906835Y40092518D01*
X48006281Y40993072D01*
X47749797Y40906666D01*
X47539982Y40333182D01*
X47565601Y39723058D01*
X47749797Y39278370D01*
X48006281Y39191964D01*
X48906835Y40092518D01*
X48906835Y39733308D01*
X48185886Y39012359D01*
X48272292Y38755875D01*
X48845776Y38546060D01*
X49455900Y38571679D01*
X49900588Y38755875D01*
X49986994Y39012359D01*
X49986994Y31892368D01*
X49765445Y31671204D01*
X49615172Y31309306D01*
X49614971Y31079886D01*
X49582334Y31058447D01*
X49506500Y31073655D01*
X49506500Y31906709D01*
X49506500Y32064768D01*
X49347750Y32223518D01*
X48427000Y32223518D01*
X48427000Y31556768D01*
X48585750Y31398018D01*
X48745191Y31398018D01*
X48997810Y31398018D01*
X49231199Y31494691D01*
X49409827Y31673320D01*
X49506500Y31906709D01*
X49506500Y31073655D01*
X49500000Y31074958D01*
X48100000Y31074958D01*
X47857877Y31027981D01*
X47645073Y30888191D01*
X47502623Y30677158D01*
X47452560Y30427518D01*
X47452560Y30197518D01*
X47469324Y30111114D01*
X47452560Y30027518D01*
X47452560Y29797560D01*
X47304931Y29797688D01*
X46942771Y29648047D01*
X46665445Y29371204D01*
X46515172Y29009306D01*
X46514830Y28617449D01*
X46620239Y28362338D01*
X46515172Y28109306D01*
X46514830Y27717449D01*
X46664471Y27355289D01*
X46941314Y27077963D01*
X47142470Y26994436D01*
X45995553Y25847518D01*
X45035000Y25847518D01*
X45035000Y28312518D01*
X44979051Y28593790D01*
X44819724Y28832241D01*
X43524292Y30127672D01*
X43895069Y30127348D01*
X44257229Y30276989D01*
X44534555Y30553832D01*
X44684828Y30915730D01*
X44685045Y31165078D01*
X44715000Y31165078D01*
X44801404Y31181843D01*
X44885000Y31165078D01*
X45115000Y31165078D01*
X45201404Y31181843D01*
X45285000Y31165078D01*
X45515000Y31165078D01*
X45601404Y31181843D01*
X45685000Y31165078D01*
X45915000Y31165078D01*
X46001404Y31181843D01*
X46085000Y31165078D01*
X46315000Y31165078D01*
X46401404Y31181843D01*
X46485000Y31165078D01*
X46715000Y31165078D01*
X46957123Y31212055D01*
X47169927Y31351845D01*
X47307636Y31555856D01*
X47368801Y31494691D01*
X47602190Y31398018D01*
X47854809Y31398018D01*
X48014250Y31398018D01*
X48173000Y31556768D01*
X48173000Y32223518D01*
X48153000Y32223518D01*
X48153000Y32477518D01*
X48173000Y32477518D01*
X48173000Y32497518D01*
X48427000Y32497518D01*
X48427000Y32477518D01*
X49347750Y32477518D01*
X49506500Y32636268D01*
X49506500Y32642341D01*
X49594191Y32606018D01*
X49752250Y32606018D01*
X49911000Y32764768D01*
X49911000Y33685518D01*
X49891000Y33685518D01*
X49891000Y33939518D01*
X49911000Y33939518D01*
X49911000Y34164768D01*
X49911000Y34860268D01*
X49911000Y35085518D01*
X49891000Y35085518D01*
X49891000Y35339518D01*
X49911000Y35339518D01*
X49911000Y36260268D01*
X49752250Y36419018D01*
X49594191Y36419018D01*
X49360802Y36322345D01*
X49182173Y36143717D01*
X49085500Y35910328D01*
X49085500Y35657709D01*
X49085500Y35498268D01*
X49244248Y35339520D01*
X49085500Y35339520D01*
X49085500Y35319864D01*
X48858686Y35547073D01*
X48496788Y35697346D01*
X48104931Y35697688D01*
X47742771Y35548047D01*
X47465445Y35271204D01*
X47315172Y34909306D01*
X47314971Y34679886D01*
X47273573Y34652691D01*
X47131123Y34441658D01*
X47081060Y34192018D01*
X47081060Y33731310D01*
X46964640Y33809895D01*
X46715000Y33859958D01*
X46485000Y33859958D01*
X46398595Y33843194D01*
X46315000Y33859958D01*
X46085000Y33859958D01*
X45998595Y33843194D01*
X45915000Y33859958D01*
X45685000Y33859958D01*
X45598595Y33843194D01*
X45515000Y33859958D01*
X45285000Y33859958D01*
X45198595Y33843194D01*
X45115000Y33859958D01*
X44935000Y33859958D01*
X44935000Y35812518D01*
X44935000Y36043848D01*
X45257229Y36176989D01*
X45534555Y36453832D01*
X45684828Y36815730D01*
X45685170Y37207587D01*
X45535529Y37569747D01*
X45435000Y37670452D01*
X45435000Y39869432D01*
X47651438Y42085871D01*
X47784372Y41764147D01*
X48215797Y41331967D01*
X48236633Y41323315D01*
X48185886Y41172677D01*
X49086440Y40272123D01*
X49100582Y40286266D01*
X49280187Y40106661D01*
X49266045Y40092518D01*
X50166599Y39191964D01*
X50316766Y39242554D01*
X50324372Y39224147D01*
X50755797Y38791967D01*
X51319770Y38557785D01*
X51930431Y38557253D01*
X52494811Y38790450D01*
X52926991Y39221875D01*
X53161173Y39785848D01*
X53161705Y40396509D01*
X53082426Y40588378D01*
X53142022Y40588378D01*
X53815000Y39915400D01*
X53815000Y38998035D01*
X53786377Y38992481D01*
X53573573Y38852691D01*
X53431123Y38641658D01*
X53381060Y38392018D01*
X53381060Y37757018D01*
X53428037Y37514895D01*
X53566526Y37304071D01*
X53490173Y37227716D01*
X53393500Y36994327D01*
X53393500Y36836268D01*
X53552250Y36677518D01*
X54473000Y36677518D01*
X54473000Y36697518D01*
X54727000Y36697518D01*
X54727000Y36677518D01*
X55647750Y36677518D01*
X55806500Y36836268D01*
X55806500Y36994327D01*
X55709827Y37227716D01*
X55632379Y37305164D01*
X55768877Y37507378D01*
X55818940Y37757018D01*
X55818940Y38392018D01*
X55771963Y38634141D01*
X55632173Y38846945D01*
X55421140Y38989395D01*
X55385000Y38996643D01*
X55385000Y40240558D01*
X55385000Y48734318D01*
X55325245Y49034724D01*
X55155079Y49289397D01*
X53796679Y50647797D01*
X53542007Y50817963D01*
X53241600Y50877718D01*
X48487285Y50877718D01*
X48487280Y50877719D01*
X48186874Y50817963D01*
X47932201Y50647797D01*
X23282321Y25997918D01*
X22424440Y25997918D01*
X22424440Y26216218D01*
X22377463Y26458341D01*
X22237673Y26671145D01*
X22026640Y26813595D01*
X21800000Y26859046D01*
X21800000Y27491108D01*
X22013623Y27532555D01*
X22226427Y27672345D01*
X22368877Y27883378D01*
X22418940Y28133018D01*
X22418940Y28768018D01*
X22371963Y29010141D01*
X22233473Y29220966D01*
X22309827Y29297320D01*
X22406500Y29530709D01*
X22406500Y29688768D01*
X22406500Y30260268D01*
X22406500Y30418327D01*
X22309827Y30651716D01*
X22131199Y30830345D01*
X21897810Y30927018D01*
X21645191Y30927018D01*
X21485750Y30927018D01*
X21327000Y30768268D01*
X21327000Y30101518D01*
X22247750Y30101518D01*
X22406500Y30260268D01*
X22406500Y29688768D01*
X22247750Y29847518D01*
X21327000Y29847518D01*
X21327000Y29827518D01*
X21073000Y29827518D01*
X21073000Y29847518D01*
X21073000Y30101518D01*
X21073000Y30768268D01*
X20914250Y30927018D01*
X20754809Y30927018D01*
X20502190Y30927018D01*
X20470154Y30913749D01*
X20518940Y31157018D01*
X20518940Y31792018D01*
X20471963Y32034141D01*
X20332173Y32246945D01*
X20284970Y32278808D01*
X20285170Y32507587D01*
X20135529Y32869747D01*
X19858686Y33147073D01*
X19496788Y33297346D01*
X19104931Y33297688D01*
X18742771Y33148047D01*
X18465445Y32871204D01*
X18315172Y32509306D01*
X18314971Y32279886D01*
X18273573Y32252691D01*
X18131123Y32041658D01*
X18081060Y31792018D01*
X18081060Y31157018D01*
X18128037Y30914895D01*
X18266526Y30704071D01*
X18190173Y30627716D01*
X18093500Y30394327D01*
X18093500Y30236268D01*
X18252250Y30077518D01*
X19173000Y30077518D01*
X19173000Y30097518D01*
X19427000Y30097518D01*
X19427000Y30077518D01*
X20347750Y30077518D01*
X20371750Y30101518D01*
X21073000Y30101518D01*
X21073000Y29847518D01*
X20152250Y29847518D01*
X20128250Y29823518D01*
X19427000Y29823518D01*
X19427000Y29156768D01*
X19510050Y29073718D01*
X19402100Y28965768D01*
X19402100Y27854518D01*
X19447500Y27854518D01*
X19447500Y27600518D01*
X19402100Y27600518D01*
X19402100Y26489268D01*
X19560850Y26330518D01*
X19628481Y26330518D01*
X19605560Y26216218D01*
X19605560Y25809818D01*
X19644384Y25609716D01*
X19605560Y25416118D01*
X19605560Y25009718D01*
X19644384Y24809616D01*
X19605560Y24616018D01*
X19605560Y24597470D01*
X19354931Y24597688D01*
X18992771Y24448047D01*
X18715445Y24171204D01*
X18565172Y23809306D01*
X18564830Y23417449D01*
X18714471Y23055289D01*
X18991314Y22777963D01*
X19353212Y22627690D01*
X19605560Y22627470D01*
X19605560Y22609418D01*
X19644384Y22409316D01*
X19605560Y22215718D01*
X19605560Y21809318D01*
X19644384Y21609216D01*
X19605560Y21415618D01*
X19605560Y21009218D01*
X19644384Y20809116D01*
X19605560Y20615518D01*
X19605560Y20209118D01*
X19644384Y20009016D01*
X19605560Y19815418D01*
X19605560Y19409018D01*
X19644858Y19206471D01*
X19618000Y19141628D01*
X19618000Y19072468D01*
X19776750Y18913718D01*
X19852137Y18913718D01*
X20003360Y18811641D01*
X20004407Y18811431D01*
X19850786Y18710518D01*
X19776750Y18710518D01*
X19618000Y18551768D01*
X19618000Y18482608D01*
X19645748Y18415618D01*
X19605560Y18215218D01*
X19605560Y17808818D01*
X19630246Y17681581D01*
X19503700Y17706958D01*
X19097300Y17706958D01*
X18897197Y17668134D01*
X18703600Y17706958D01*
X18485300Y17706958D01*
X18485300Y18806114D01*
X18425545Y19106520D01*
X18425544Y19106521D01*
X18255379Y19361193D01*
X18255375Y19361196D01*
X18130027Y19486545D01*
X18032179Y19551925D01*
X17940759Y19626022D01*
X17754545Y19724098D01*
X17699529Y19857247D01*
X17422686Y20134573D01*
X17060788Y20284846D01*
X16668931Y20285188D01*
X16306771Y20135547D01*
X16029445Y19858704D01*
X15879172Y19496806D01*
X15878830Y19104949D01*
X16028471Y18742789D01*
X16305314Y18465463D01*
X16667212Y18315190D01*
X16915300Y18314974D01*
X16915300Y17706958D01*
X16697000Y17706958D01*
X16496897Y17668134D01*
X16303300Y17706958D01*
X15896900Y17706958D01*
X15696797Y17668134D01*
X15503200Y17706958D01*
X15096800Y17706958D01*
X14896697Y17668134D01*
X14785067Y17690521D01*
X14785170Y17807587D01*
X14635529Y18169747D01*
X14358686Y18447073D01*
X13996788Y18597346D01*
X13604931Y18597688D01*
X13242771Y18448047D01*
X13084893Y18290445D01*
X13085170Y18607587D01*
X12935529Y18969747D01*
X12898210Y19007131D01*
X12984828Y19215730D01*
X12985170Y19607587D01*
X12859049Y19912823D01*
X12984828Y20215730D01*
X12985170Y20607587D01*
X12835529Y20969747D01*
X12558686Y21247073D01*
X12196788Y21397346D01*
X11919937Y21397588D01*
X11944434Y21422084D01*
X12125439Y21692977D01*
X12125439Y21692978D01*
X12189000Y22012518D01*
X12189000Y24512518D01*
X12125439Y24832058D01*
X12125439Y24832059D01*
X11944434Y25102952D01*
X11244034Y25803352D01*
X10994440Y25970125D01*
X10994440Y25970126D01*
X10994440Y26216218D01*
X10972263Y26330518D01*
X11039150Y26330518D01*
X11114994Y26406363D01*
X11114830Y26217449D01*
X11264471Y25855289D01*
X11541314Y25577963D01*
X11903212Y25427690D01*
X12295069Y25427348D01*
X12657229Y25576989D01*
X12934555Y25853832D01*
X13084828Y26215730D01*
X13084917Y26318078D01*
X13102900Y26318078D01*
X13303002Y26356903D01*
X13496600Y26318078D01*
X13903000Y26318078D01*
X14103102Y26356903D01*
X14296700Y26318078D01*
X14703100Y26318078D01*
X14903202Y26356903D01*
X15096800Y26318078D01*
X15503200Y26318078D01*
X15703302Y26356903D01*
X15896900Y26318078D01*
X16303300Y26318078D01*
X16503402Y26356903D01*
X16697000Y26318078D01*
X17103400Y26318078D01*
X17115094Y26320347D01*
X17114830Y26017449D01*
X17264471Y25655289D01*
X17541314Y25377963D01*
X17903212Y25227690D01*
X18295069Y25227348D01*
X18657229Y25376989D01*
X18934555Y25653832D01*
X19084828Y26015730D01*
X19084903Y26101876D01*
X19225645Y26312511D01*
X19225645Y26312512D01*
X19285400Y26612918D01*
X19285400Y26692802D01*
X19300977Y26715878D01*
X19351040Y26965518D01*
X19351040Y28489518D01*
X19304063Y28731641D01*
X19198900Y28891732D01*
X19198900Y28965768D01*
X19090450Y29074218D01*
X19173000Y29156768D01*
X19173000Y29823518D01*
X18252250Y29823518D01*
X18093500Y29664768D01*
X18093500Y29506709D01*
X18190173Y29273320D01*
X18326534Y29136958D01*
X18297200Y29136958D01*
X18097097Y29098134D01*
X17903500Y29136958D01*
X17497100Y29136958D01*
X17296997Y29098134D01*
X17103400Y29136958D01*
X16697000Y29136958D01*
X16496897Y29098134D01*
X16303300Y29136958D01*
X15896900Y29136958D01*
X15696797Y29098134D01*
X15503200Y29136958D01*
X15096800Y29136958D01*
X14896697Y29098134D01*
X14703100Y29136958D01*
X14296700Y29136958D01*
X14096597Y29098134D01*
X13903000Y29136958D01*
X13684700Y29136958D01*
X13684700Y29258674D01*
X13768877Y29383378D01*
X13818940Y29633018D01*
X13818940Y30268018D01*
X13771963Y30510141D01*
X13638194Y30713779D01*
X13768877Y30907378D01*
X13818940Y31157018D01*
X13818940Y31792018D01*
X13771963Y32034141D01*
X13632173Y32246945D01*
X13584970Y32278808D01*
X13585170Y32507587D01*
X13435529Y32869747D01*
X13158686Y33147073D01*
X12796788Y33297346D01*
X12404931Y33297688D01*
X12042771Y33148047D01*
X11849906Y32955519D01*
X11658686Y33147073D01*
X11296788Y33297346D01*
X10904931Y33297688D01*
X10542771Y33148047D01*
X10349906Y32955519D01*
X10158686Y33147073D01*
X9796788Y33297346D01*
X9404931Y33297688D01*
X9042771Y33148047D01*
X8765445Y32871204D01*
X8615172Y32509306D01*
X8614971Y32279886D01*
X8573573Y32252691D01*
X8431123Y32041658D01*
X8381060Y31792018D01*
X8381060Y31157018D01*
X8408055Y31017884D01*
X8379502Y30989331D01*
X8379502Y31148078D01*
X8285030Y31148078D01*
X8285170Y31307587D01*
X8250166Y31392304D01*
X8297427Y31462318D01*
X8347490Y31711958D01*
X8347490Y32712718D01*
X8300513Y32954841D01*
X8160723Y33167645D01*
X7949690Y33310095D01*
X7700050Y33360158D01*
X6899950Y33360158D01*
X6657827Y33313181D01*
X6445023Y33173391D01*
X6302573Y32962358D01*
X6252510Y32712718D01*
X6252510Y31711958D01*
X6299487Y31469835D01*
X6349938Y31393033D01*
X6315172Y31309306D01*
X6315042Y31160518D01*
X6218940Y31160518D01*
X6218940Y31792018D01*
X6171963Y32034141D01*
X6032173Y32246945D01*
X5984970Y32278808D01*
X5985170Y32507587D01*
X5835529Y32869747D01*
X5558686Y33147073D01*
X5196788Y33297346D01*
X4804931Y33297688D01*
X4442771Y33148047D01*
X4165445Y32871204D01*
X4015172Y32509306D01*
X4014971Y32279886D01*
X3973573Y32252691D01*
X3831123Y32041658D01*
X3781060Y31792018D01*
X3781060Y31157018D01*
X3828037Y30914895D01*
X3961805Y30711258D01*
X3831123Y30517658D01*
X3790518Y30315185D01*
X3758686Y30347073D01*
X3396788Y30497346D01*
X3004931Y30497688D01*
X2642771Y30348047D01*
X2365445Y30071204D01*
X2215172Y29709306D01*
X2214971Y29479886D01*
X2173573Y29452691D01*
X2031123Y29241658D01*
X1981060Y28992018D01*
X1981060Y28357018D01*
X2028037Y28114895D01*
X2161805Y27911258D01*
X2031123Y27717658D01*
X1981060Y27468018D01*
X1981060Y26833018D01*
X1997648Y26747518D01*
X1135197Y26747518D01*
X1135197Y47849775D01*
X962767Y48267086D01*
X643765Y48586645D01*
X226756Y48759803D01*
X-224775Y48760197D01*
X-642086Y48587767D01*
X-961645Y48268765D01*
X-1134803Y47851756D01*
X-1135197Y47400225D01*
X-962767Y46982914D01*
X-643765Y46663355D01*
X-226756Y46490197D01*
X224775Y46489803D01*
X642086Y46662233D01*
X961645Y46981235D01*
X1134803Y47398244D01*
X1135197Y47849775D01*
X1135197Y26747518D01*
X696059Y26747518D01*
X760543Y26844024D01*
X885000Y27469711D01*
X885000Y28655325D01*
X760543Y29281012D01*
X406120Y29811445D01*
X-124313Y30165868D01*
X-750000Y30290325D01*
X-1375687Y30165868D01*
X-1906120Y29811445D01*
X-2260543Y29281012D01*
X-2314319Y29010663D01*
X-2314319Y48394384D01*
X-2904529Y49822801D01*
X-3996443Y50916623D01*
X-5423827Y51509324D01*
X-6969376Y51510673D01*
X-8397793Y50920463D01*
X-9491615Y49828549D01*
X-10084316Y48401165D01*
X-10085665Y46855616D01*
X-9495455Y45427199D01*
X-8403541Y44333377D01*
X-6976157Y43740676D01*
X-5430608Y43739327D01*
X-4002191Y44329537D01*
X-2908369Y45421451D01*
X-2315668Y46848835D01*
X-2314319Y48394384D01*
X-2314319Y29010663D01*
X-2385000Y28655325D01*
X-2385000Y27469711D01*
X-2260543Y26844024D01*
X-1906120Y26313591D01*
X-1414842Y25985330D01*
X-2145131Y25887958D01*
X-5863890Y25887958D01*
X-5863890Y27672958D01*
X-5910867Y27915081D01*
X-6050657Y28127885D01*
X-6261690Y28270335D01*
X-6511330Y28320398D01*
X-7971330Y28320398D01*
X-8213453Y28273421D01*
X-8426257Y28133631D01*
X-8568707Y27922598D01*
X-8594216Y27795398D01*
X-11371330Y27795398D01*
X-11565216Y27757781D01*
X-11565216Y47559177D01*
X-11220672Y49291324D01*
X-10277707Y50702571D01*
X-8866458Y51645538D01*
X-7134311Y51990082D01*
X15066350Y51990082D01*
X15073098Y37218505D01*
X32919080Y37228811D01*
X32919080Y51990082D01*
X83633878Y51990082D01*
X85366025Y51645538D01*
X86777272Y50702573D01*
X87720239Y49291324D01*
X88064784Y47559177D01*
X88064784Y28991451D01*
X88064784Y28991451D01*
G37*
X88064784Y28991451D02*
X87696681Y29144300D01*
X87105911Y29144815D01*
X86797844Y29017525D01*
X87138188Y29357275D01*
X87364742Y29902877D01*
X87365257Y30493647D01*
X87139656Y31039644D01*
X86722283Y31457746D01*
X86585681Y31514469D01*
X86585681Y48394384D01*
X85995471Y49822801D01*
X84903557Y50916623D01*
X83476173Y51509324D01*
X81930624Y51510673D01*
X80502207Y50920463D01*
X79408385Y49828549D01*
X78815684Y48401165D01*
X78814335Y46855616D01*
X79404545Y45427199D01*
X80496459Y44333377D01*
X81923843Y43740676D01*
X83469392Y43739327D01*
X84897809Y44329537D01*
X85991631Y45421451D01*
X86584332Y46848835D01*
X86585681Y48394384D01*
X86585681Y31514469D01*
X86176681Y31684300D01*
X85585911Y31684815D01*
X85478550Y31640455D01*
X85201566Y31917439D01*
X85305069Y31917348D01*
X85667229Y32066989D01*
X85944555Y32343832D01*
X86094828Y32705730D01*
X86095170Y33097587D01*
X85945529Y33459747D01*
X85873293Y33532109D01*
X85876623Y33532755D01*
X86089427Y33672545D01*
X86231877Y33883578D01*
X86281940Y34133218D01*
X86281940Y34768218D01*
X86234963Y35010341D01*
X86096473Y35221166D01*
X86172827Y35297520D01*
X86269500Y35530909D01*
X86269500Y35688968D01*
X86269500Y36260468D01*
X86269500Y36418527D01*
X86172827Y36651916D01*
X85994199Y36830545D01*
X85760810Y36927218D01*
X85508191Y36927218D01*
X85348750Y36927218D01*
X85190000Y36768468D01*
X85190000Y36101718D01*
X86110750Y36101718D01*
X86269500Y36260468D01*
X86269500Y35688968D01*
X86110750Y35847718D01*
X85190000Y35847718D01*
X85190000Y35827718D01*
X84936000Y35827718D01*
X84936000Y35847718D01*
X84936000Y36101718D01*
X84936000Y36768468D01*
X84777250Y36927218D01*
X84617809Y36927218D01*
X84365190Y36927218D01*
X84213000Y36864179D01*
X84060810Y36927218D01*
X83808191Y36927218D01*
X83648750Y36927218D01*
X83490000Y36768468D01*
X83490000Y36101718D01*
X84015250Y36101718D01*
X84410750Y36101718D01*
X84936000Y36101718D01*
X84936000Y35847718D01*
X84410750Y35847718D01*
X84015250Y35847718D01*
X83490000Y35847718D01*
X83490000Y35827718D01*
X83236000Y35827718D01*
X83236000Y35847718D01*
X83236000Y36101718D01*
X83236000Y36768468D01*
X83077250Y36927218D01*
X82917809Y36927218D01*
X82665190Y36927218D01*
X82431801Y36830545D01*
X82253173Y36651916D01*
X82156500Y36418527D01*
X82156500Y36260468D01*
X82315250Y36101718D01*
X83236000Y36101718D01*
X83236000Y35847718D01*
X82315250Y35847718D01*
X82156500Y35688968D01*
X82156500Y35530909D01*
X82253173Y35297520D01*
X82330620Y35220073D01*
X82194123Y35017858D01*
X82144060Y34768218D01*
X82144060Y34133218D01*
X82191037Y33891095D01*
X82330827Y33678291D01*
X82541860Y33535841D01*
X82628000Y33518567D01*
X82628000Y32716558D01*
X82683949Y32435286D01*
X82824941Y32224276D01*
X81978166Y32225015D01*
X81335270Y31959376D01*
X81335326Y32022863D01*
X81048957Y32715930D01*
X80519161Y33246651D01*
X79826595Y33534230D01*
X79076695Y33534884D01*
X78383628Y33248515D01*
X77852907Y32718719D01*
X77565328Y32026153D01*
X77564674Y31276253D01*
X77851043Y30583186D01*
X78380839Y30052465D01*
X79073405Y29764886D01*
X79823305Y29764232D01*
X79865166Y29781529D01*
X79864543Y29067724D01*
X80264853Y28098900D01*
X81005443Y27357016D01*
X81973567Y26955016D01*
X83021834Y26954101D01*
X83990658Y27354411D01*
X84732542Y28095001D01*
X85077180Y28924984D01*
X85583319Y28714816D01*
X86174089Y28714301D01*
X86482155Y28841592D01*
X86141812Y28501841D01*
X85915258Y27956239D01*
X85914743Y27365469D01*
X85938792Y27307264D01*
X78315000Y19683471D01*
X78315000Y20102518D01*
X78259051Y20383790D01*
X78099723Y20622241D01*
X78099723Y20622242D01*
X77502683Y21219281D01*
X77391964Y21293262D01*
X77559144Y21761860D01*
X77531362Y22316926D01*
X77372397Y22700701D01*
X77130213Y22770166D01*
X76329605Y21969558D01*
X76343747Y21955416D01*
X76164142Y21775811D01*
X76150000Y21789953D01*
X76135857Y21775811D01*
X75956252Y21955416D01*
X75970395Y21969558D01*
X75169787Y22770166D01*
X74927603Y22700701D01*
X74740856Y22177256D01*
X74768638Y21622190D01*
X74846357Y21434558D01*
X74817860Y21434558D01*
X74795010Y21489861D01*
X74402370Y21883187D01*
X74194487Y21969508D01*
X74400303Y22054548D01*
X74793629Y22447188D01*
X75006757Y22960458D01*
X75007242Y23516219D01*
X74795010Y24029861D01*
X74402370Y24423187D01*
X74194487Y24509508D01*
X74400303Y24594548D01*
X74793629Y24987188D01*
X74992248Y25465518D01*
X75045800Y25465518D01*
X75045800Y26178304D01*
X75357630Y25865929D01*
X75565512Y25779609D01*
X75359697Y25694568D01*
X74966371Y25301928D01*
X74753243Y24788658D01*
X74752758Y24232897D01*
X74964990Y23719255D01*
X75357630Y23325929D01*
X75549727Y23246164D01*
X75418857Y23191955D01*
X75349392Y22949771D01*
X76150000Y22149163D01*
X76950608Y22949771D01*
X76881143Y23191955D01*
X76740682Y23242067D01*
X76940303Y23324548D01*
X77333629Y23717188D01*
X77546757Y24230458D01*
X77547242Y24786219D01*
X77335010Y25299861D01*
X76942370Y25693187D01*
X76734487Y25779508D01*
X76940303Y25864548D01*
X77333629Y26257188D01*
X77546757Y26770458D01*
X77547242Y27326219D01*
X77335010Y27839861D01*
X76942370Y28233187D01*
X76429100Y28446315D01*
X75873339Y28446800D01*
X75359697Y28234568D01*
X75045800Y27921219D01*
X75045800Y29819518D01*
X66344659Y29819518D01*
X66275000Y29866540D01*
X66275000Y30464518D01*
X66211439Y30784058D01*
X66211439Y30784059D01*
X66030434Y31054952D01*
X65800436Y31284950D01*
X65800434Y31284952D01*
X65800434Y31284953D01*
X65721160Y31364227D01*
X65728940Y31403018D01*
X65728940Y32038018D01*
X65681963Y32280141D01*
X65548194Y32483779D01*
X65678877Y32677378D01*
X65728940Y32927018D01*
X65728940Y33562018D01*
X65681963Y33804141D01*
X65542173Y34016945D01*
X65494970Y34048808D01*
X65495170Y34277587D01*
X65345529Y34639747D01*
X65068686Y34917073D01*
X64706788Y35067346D01*
X64314931Y35067688D01*
X63952771Y34918047D01*
X63675445Y34641204D01*
X63525172Y34279306D01*
X63524971Y34049886D01*
X63483573Y34022691D01*
X63341123Y33811658D01*
X63291060Y33562018D01*
X63291060Y32927018D01*
X63338037Y32684895D01*
X63471805Y32481258D01*
X63341123Y32287658D01*
X63291060Y32038018D01*
X63291060Y31506446D01*
X63069566Y31284952D01*
X63013486Y31201024D01*
X62866377Y31172481D01*
X62653573Y31032691D01*
X62511123Y30821658D01*
X62461060Y30572018D01*
X62461060Y29937018D01*
X62483857Y29819518D01*
X58843000Y29819518D01*
X58843000Y29439458D01*
X57728500Y29439458D01*
X57547050Y29404253D01*
X57451405Y29423434D01*
X57355079Y29567597D01*
X56355079Y30567597D01*
X56100407Y30737763D01*
X55806500Y30796226D01*
X55806500Y36106709D01*
X55806500Y36264768D01*
X55647750Y36423518D01*
X54727000Y36423518D01*
X54727000Y35756768D01*
X54885750Y35598018D01*
X55045191Y35598018D01*
X55297810Y35598018D01*
X55531199Y35694691D01*
X55709827Y35873320D01*
X55806500Y36106709D01*
X55806500Y30796226D01*
X55800000Y30797518D01*
X54473000Y30797518D01*
X54473000Y35756768D01*
X54473000Y36423518D01*
X53552250Y36423518D01*
X53393500Y36264768D01*
X53393500Y36106709D01*
X53490173Y35873320D01*
X53668801Y35694691D01*
X53902190Y35598018D01*
X54154809Y35598018D01*
X54314250Y35598018D01*
X54473000Y35756768D01*
X54473000Y30797518D01*
X54338000Y30797518D01*
X54037594Y30737763D01*
X53782921Y30567597D01*
X53385170Y30169846D01*
X53385170Y34007587D01*
X53235529Y34369747D01*
X53093000Y34512525D01*
X53234555Y34653832D01*
X53384828Y35015730D01*
X53385170Y35407587D01*
X53235529Y35769747D01*
X52958686Y36047073D01*
X52596788Y36197346D01*
X52367367Y36197547D01*
X52340173Y36238945D01*
X52129140Y36381395D01*
X51879500Y36431458D01*
X51244500Y36431458D01*
X51002377Y36384481D01*
X50791552Y36245992D01*
X50715198Y36322345D01*
X50481809Y36419018D01*
X50323750Y36419018D01*
X50165000Y36260268D01*
X50165000Y35339518D01*
X50185000Y35339518D01*
X50185000Y35085518D01*
X50165000Y35085518D01*
X50165000Y34860268D01*
X50165000Y34164768D01*
X50165000Y33939518D01*
X50185000Y33939518D01*
X50185000Y33685518D01*
X50165000Y33685518D01*
X50165000Y32764768D01*
X50323750Y32606018D01*
X50481809Y32606018D01*
X50715198Y32702691D01*
X50792645Y32780139D01*
X50994860Y32643641D01*
X51244500Y32593578D01*
X51879500Y32593578D01*
X52121623Y32640555D01*
X52334427Y32780345D01*
X52366289Y32827548D01*
X52595069Y32827348D01*
X52957229Y32976989D01*
X53234555Y33253832D01*
X53384828Y33615730D01*
X53385170Y34007587D01*
X53385170Y30169846D01*
X53346782Y30131458D01*
X53218940Y30131458D01*
X53218940Y30592018D01*
X53171963Y30834141D01*
X53032173Y31046945D01*
X52984970Y31078808D01*
X52985170Y31307587D01*
X52835529Y31669747D01*
X52558686Y31947073D01*
X52196788Y32097346D01*
X51804931Y32097688D01*
X51442771Y31948047D01*
X51299993Y31805519D01*
X51158686Y31947073D01*
X50796788Y32097346D01*
X50404931Y32097688D01*
X50042771Y31948047D01*
X49986994Y31892368D01*
X49986994Y39012359D01*
X49086440Y39912913D01*
X48906835Y39733308D01*
X48906835Y40092518D01*
X48006281Y40993072D01*
X47749797Y40906666D01*
X47539982Y40333182D01*
X47565601Y39723058D01*
X47749797Y39278370D01*
X48006281Y39191964D01*
X48906835Y40092518D01*
X48906835Y39733308D01*
X48185886Y39012359D01*
X48272292Y38755875D01*
X48845776Y38546060D01*
X49455900Y38571679D01*
X49900588Y38755875D01*
X49986994Y39012359D01*
X49986994Y31892368D01*
X49765445Y31671204D01*
X49615172Y31309306D01*
X49614971Y31079886D01*
X49582334Y31058447D01*
X49506500Y31073655D01*
X49506500Y31906709D01*
X49506500Y32064768D01*
X49347750Y32223518D01*
X48427000Y32223518D01*
X48427000Y31556768D01*
X48585750Y31398018D01*
X48745191Y31398018D01*
X48997810Y31398018D01*
X49231199Y31494691D01*
X49409827Y31673320D01*
X49506500Y31906709D01*
X49506500Y31073655D01*
X49500000Y31074958D01*
X48100000Y31074958D01*
X47857877Y31027981D01*
X47645073Y30888191D01*
X47502623Y30677158D01*
X47452560Y30427518D01*
X47452560Y30197518D01*
X47469324Y30111114D01*
X47452560Y30027518D01*
X47452560Y29797560D01*
X47304931Y29797688D01*
X46942771Y29648047D01*
X46665445Y29371204D01*
X46515172Y29009306D01*
X46514830Y28617449D01*
X46620239Y28362338D01*
X46515172Y28109306D01*
X46514830Y27717449D01*
X46664471Y27355289D01*
X46941314Y27077963D01*
X47142470Y26994436D01*
X45995553Y25847518D01*
X45035000Y25847518D01*
X45035000Y28312518D01*
X44979051Y28593790D01*
X44819724Y28832241D01*
X43524292Y30127672D01*
X43895069Y30127348D01*
X44257229Y30276989D01*
X44534555Y30553832D01*
X44684828Y30915730D01*
X44685045Y31165078D01*
X44715000Y31165078D01*
X44801404Y31181843D01*
X44885000Y31165078D01*
X45115000Y31165078D01*
X45201404Y31181843D01*
X45285000Y31165078D01*
X45515000Y31165078D01*
X45601404Y31181843D01*
X45685000Y31165078D01*
X45915000Y31165078D01*
X46001404Y31181843D01*
X46085000Y31165078D01*
X46315000Y31165078D01*
X46401404Y31181843D01*
X46485000Y31165078D01*
X46715000Y31165078D01*
X46957123Y31212055D01*
X47169927Y31351845D01*
X47307636Y31555856D01*
X47368801Y31494691D01*
X47602190Y31398018D01*
X47854809Y31398018D01*
X48014250Y31398018D01*
X48173000Y31556768D01*
X48173000Y32223518D01*
X48153000Y32223518D01*
X48153000Y32477518D01*
X48173000Y32477518D01*
X48173000Y32497518D01*
X48427000Y32497518D01*
X48427000Y32477518D01*
X49347750Y32477518D01*
X49506500Y32636268D01*
X49506500Y32642341D01*
X49594191Y32606018D01*
X49752250Y32606018D01*
X49911000Y32764768D01*
X49911000Y33685518D01*
X49891000Y33685518D01*
X49891000Y33939518D01*
X49911000Y33939518D01*
X49911000Y34164768D01*
X49911000Y34860268D01*
X49911000Y35085518D01*
X49891000Y35085518D01*
X49891000Y35339518D01*
X49911000Y35339518D01*
X49911000Y36260268D01*
X49752250Y36419018D01*
X49594191Y36419018D01*
X49360802Y36322345D01*
X49182173Y36143717D01*
X49085500Y35910328D01*
X49085500Y35657709D01*
X49085500Y35498268D01*
X49244248Y35339520D01*
X49085500Y35339520D01*
X49085500Y35319864D01*
X48858686Y35547073D01*
X48496788Y35697346D01*
X48104931Y35697688D01*
X47742771Y35548047D01*
X47465445Y35271204D01*
X47315172Y34909306D01*
X47314971Y34679886D01*
X47273573Y34652691D01*
X47131123Y34441658D01*
X47081060Y34192018D01*
X47081060Y33731310D01*
X46964640Y33809895D01*
X46715000Y33859958D01*
X46485000Y33859958D01*
X46398595Y33843194D01*
X46315000Y33859958D01*
X46085000Y33859958D01*
X45998595Y33843194D01*
X45915000Y33859958D01*
X45685000Y33859958D01*
X45598595Y33843194D01*
X45515000Y33859958D01*
X45285000Y33859958D01*
X45198595Y33843194D01*
X45115000Y33859958D01*
X44935000Y33859958D01*
X44935000Y35812518D01*
X44935000Y36043848D01*
X45257229Y36176989D01*
X45534555Y36453832D01*
X45684828Y36815730D01*
X45685170Y37207587D01*
X45535529Y37569747D01*
X45435000Y37670452D01*
X45435000Y39869432D01*
X47651438Y42085871D01*
X47784372Y41764147D01*
X48215797Y41331967D01*
X48236633Y41323315D01*
X48185886Y41172677D01*
X49086440Y40272123D01*
X49100582Y40286266D01*
X49280187Y40106661D01*
X49266045Y40092518D01*
X50166599Y39191964D01*
X50316766Y39242554D01*
X50324372Y39224147D01*
X50755797Y38791967D01*
X51319770Y38557785D01*
X51930431Y38557253D01*
X52494811Y38790450D01*
X52926991Y39221875D01*
X53161173Y39785848D01*
X53161705Y40396509D01*
X53082426Y40588378D01*
X53142022Y40588378D01*
X53815000Y39915400D01*
X53815000Y38998035D01*
X53786377Y38992481D01*
X53573573Y38852691D01*
X53431123Y38641658D01*
X53381060Y38392018D01*
X53381060Y37757018D01*
X53428037Y37514895D01*
X53566526Y37304071D01*
X53490173Y37227716D01*
X53393500Y36994327D01*
X53393500Y36836268D01*
X53552250Y36677518D01*
X54473000Y36677518D01*
X54473000Y36697518D01*
X54727000Y36697518D01*
X54727000Y36677518D01*
X55647750Y36677518D01*
X55806500Y36836268D01*
X55806500Y36994327D01*
X55709827Y37227716D01*
X55632379Y37305164D01*
X55768877Y37507378D01*
X55818940Y37757018D01*
X55818940Y38392018D01*
X55771963Y38634141D01*
X55632173Y38846945D01*
X55421140Y38989395D01*
X55385000Y38996643D01*
X55385000Y40240558D01*
X55385000Y48734318D01*
X55325245Y49034724D01*
X55155079Y49289397D01*
X53796679Y50647797D01*
X53542007Y50817963D01*
X53241600Y50877718D01*
X48487285Y50877718D01*
X48487280Y50877719D01*
X48186874Y50817963D01*
X47932201Y50647797D01*
X23282321Y25997918D01*
X22424440Y25997918D01*
X22424440Y26216218D01*
X22377463Y26458341D01*
X22237673Y26671145D01*
X22026640Y26813595D01*
X21800000Y26859046D01*
X21800000Y27491108D01*
X22013623Y27532555D01*
X22226427Y27672345D01*
X22368877Y27883378D01*
X22418940Y28133018D01*
X22418940Y28768018D01*
X22371963Y29010141D01*
X22233473Y29220966D01*
X22309827Y29297320D01*
X22406500Y29530709D01*
X22406500Y29688768D01*
X22406500Y30260268D01*
X22406500Y30418327D01*
X22309827Y30651716D01*
X22131199Y30830345D01*
X21897810Y30927018D01*
X21645191Y30927018D01*
X21485750Y30927018D01*
X21327000Y30768268D01*
X21327000Y30101518D01*
X22247750Y30101518D01*
X22406500Y30260268D01*
X22406500Y29688768D01*
X22247750Y29847518D01*
X21327000Y29847518D01*
X21327000Y29827518D01*
X21073000Y29827518D01*
X21073000Y29847518D01*
X21073000Y30101518D01*
X21073000Y30768268D01*
X20914250Y30927018D01*
X20754809Y30927018D01*
X20502190Y30927018D01*
X20470154Y30913749D01*
X20518940Y31157018D01*
X20518940Y31792018D01*
X20471963Y32034141D01*
X20332173Y32246945D01*
X20284970Y32278808D01*
X20285170Y32507587D01*
X20135529Y32869747D01*
X19858686Y33147073D01*
X19496788Y33297346D01*
X19104931Y33297688D01*
X18742771Y33148047D01*
X18465445Y32871204D01*
X18315172Y32509306D01*
X18314971Y32279886D01*
X18273573Y32252691D01*
X18131123Y32041658D01*
X18081060Y31792018D01*
X18081060Y31157018D01*
X18128037Y30914895D01*
X18266526Y30704071D01*
X18190173Y30627716D01*
X18093500Y30394327D01*
X18093500Y30236268D01*
X18252250Y30077518D01*
X19173000Y30077518D01*
X19173000Y30097518D01*
X19427000Y30097518D01*
X19427000Y30077518D01*
X20347750Y30077518D01*
X20371750Y30101518D01*
X21073000Y30101518D01*
X21073000Y29847518D01*
X20152250Y29847518D01*
X20128250Y29823518D01*
X19427000Y29823518D01*
X19427000Y29156768D01*
X19510050Y29073718D01*
X19402100Y28965768D01*
X19402100Y27854518D01*
X19447500Y27854518D01*
X19447500Y27600518D01*
X19402100Y27600518D01*
X19402100Y26489268D01*
X19560850Y26330518D01*
X19628481Y26330518D01*
X19605560Y26216218D01*
X19605560Y25809818D01*
X19644384Y25609716D01*
X19605560Y25416118D01*
X19605560Y25009718D01*
X19644384Y24809616D01*
X19605560Y24616018D01*
X19605560Y24597470D01*
X19354931Y24597688D01*
X18992771Y24448047D01*
X18715445Y24171204D01*
X18565172Y23809306D01*
X18564830Y23417449D01*
X18714471Y23055289D01*
X18991314Y22777963D01*
X19353212Y22627690D01*
X19605560Y22627470D01*
X19605560Y22609418D01*
X19644384Y22409316D01*
X19605560Y22215718D01*
X19605560Y21809318D01*
X19644384Y21609216D01*
X19605560Y21415618D01*
X19605560Y21009218D01*
X19644384Y20809116D01*
X19605560Y20615518D01*
X19605560Y20209118D01*
X19644384Y20009016D01*
X19605560Y19815418D01*
X19605560Y19409018D01*
X19644858Y19206471D01*
X19618000Y19141628D01*
X19618000Y19072468D01*
X19776750Y18913718D01*
X19852137Y18913718D01*
X20003360Y18811641D01*
X20004407Y18811431D01*
X19850786Y18710518D01*
X19776750Y18710518D01*
X19618000Y18551768D01*
X19618000Y18482608D01*
X19645748Y18415618D01*
X19605560Y18215218D01*
X19605560Y17808818D01*
X19630246Y17681581D01*
X19503700Y17706958D01*
X19097300Y17706958D01*
X18897197Y17668134D01*
X18703600Y17706958D01*
X18485300Y17706958D01*
X18485300Y18806114D01*
X18425545Y19106520D01*
X18425544Y19106521D01*
X18255379Y19361193D01*
X18255375Y19361196D01*
X18130027Y19486545D01*
X18032179Y19551925D01*
X17940759Y19626022D01*
X17754545Y19724098D01*
X17699529Y19857247D01*
X17422686Y20134573D01*
X17060788Y20284846D01*
X16668931Y20285188D01*
X16306771Y20135547D01*
X16029445Y19858704D01*
X15879172Y19496806D01*
X15878830Y19104949D01*
X16028471Y18742789D01*
X16305314Y18465463D01*
X16667212Y18315190D01*
X16915300Y18314974D01*
X16915300Y17706958D01*
X16697000Y17706958D01*
X16496897Y17668134D01*
X16303300Y17706958D01*
X15896900Y17706958D01*
X15696797Y17668134D01*
X15503200Y17706958D01*
X15096800Y17706958D01*
X14896697Y17668134D01*
X14785067Y17690521D01*
X14785170Y17807587D01*
X14635529Y18169747D01*
X14358686Y18447073D01*
X13996788Y18597346D01*
X13604931Y18597688D01*
X13242771Y18448047D01*
X13084893Y18290445D01*
X13085170Y18607587D01*
X12935529Y18969747D01*
X12898210Y19007131D01*
X12984828Y19215730D01*
X12985170Y19607587D01*
X12859049Y19912823D01*
X12984828Y20215730D01*
X12985170Y20607587D01*
X12835529Y20969747D01*
X12558686Y21247073D01*
X12196788Y21397346D01*
X11919937Y21397588D01*
X11944434Y21422084D01*
X12125439Y21692977D01*
X12125439Y21692978D01*
X12189000Y22012518D01*
X12189000Y24512518D01*
X12125439Y24832058D01*
X12125439Y24832059D01*
X11944434Y25102952D01*
X11244034Y25803352D01*
X10994440Y25970125D01*
X10994440Y25970126D01*
X10994440Y26216218D01*
X10972263Y26330518D01*
X11039150Y26330518D01*
X11114994Y26406363D01*
X11114830Y26217449D01*
X11264471Y25855289D01*
X11541314Y25577963D01*
X11903212Y25427690D01*
X12295069Y25427348D01*
X12657229Y25576989D01*
X12934555Y25853832D01*
X13084828Y26215730D01*
X13084917Y26318078D01*
X13102900Y26318078D01*
X13303002Y26356903D01*
X13496600Y26318078D01*
X13903000Y26318078D01*
X14103102Y26356903D01*
X14296700Y26318078D01*
X14703100Y26318078D01*
X14903202Y26356903D01*
X15096800Y26318078D01*
X15503200Y26318078D01*
X15703302Y26356903D01*
X15896900Y26318078D01*
X16303300Y26318078D01*
X16503402Y26356903D01*
X16697000Y26318078D01*
X17103400Y26318078D01*
X17115094Y26320347D01*
X17114830Y26017449D01*
X17264471Y25655289D01*
X17541314Y25377963D01*
X17903212Y25227690D01*
X18295069Y25227348D01*
X18657229Y25376989D01*
X18934555Y25653832D01*
X19084828Y26015730D01*
X19084903Y26101876D01*
X19225645Y26312511D01*
X19225645Y26312512D01*
X19285400Y26612918D01*
X19285400Y26692802D01*
X19300977Y26715878D01*
X19351040Y26965518D01*
X19351040Y28489518D01*
X19304063Y28731641D01*
X19198900Y28891732D01*
X19198900Y28965768D01*
X19090450Y29074218D01*
X19173000Y29156768D01*
X19173000Y29823518D01*
X18252250Y29823518D01*
X18093500Y29664768D01*
X18093500Y29506709D01*
X18190173Y29273320D01*
X18326534Y29136958D01*
X18297200Y29136958D01*
X18097097Y29098134D01*
X17903500Y29136958D01*
X17497100Y29136958D01*
X17296997Y29098134D01*
X17103400Y29136958D01*
X16697000Y29136958D01*
X16496897Y29098134D01*
X16303300Y29136958D01*
X15896900Y29136958D01*
X15696797Y29098134D01*
X15503200Y29136958D01*
X15096800Y29136958D01*
X14896697Y29098134D01*
X14703100Y29136958D01*
X14296700Y29136958D01*
X14096597Y29098134D01*
X13903000Y29136958D01*
X13684700Y29136958D01*
X13684700Y29258674D01*
X13768877Y29383378D01*
X13818940Y29633018D01*
X13818940Y30268018D01*
X13771963Y30510141D01*
X13638194Y30713779D01*
X13768877Y30907378D01*
X13818940Y31157018D01*
X13818940Y31792018D01*
X13771963Y32034141D01*
X13632173Y32246945D01*
X13584970Y32278808D01*
X13585170Y32507587D01*
X13435529Y32869747D01*
X13158686Y33147073D01*
X12796788Y33297346D01*
X12404931Y33297688D01*
X12042771Y33148047D01*
X11849906Y32955519D01*
X11658686Y33147073D01*
X11296788Y33297346D01*
X10904931Y33297688D01*
X10542771Y33148047D01*
X10349906Y32955519D01*
X10158686Y33147073D01*
X9796788Y33297346D01*
X9404931Y33297688D01*
X9042771Y33148047D01*
X8765445Y32871204D01*
X8615172Y32509306D01*
X8614971Y32279886D01*
X8573573Y32252691D01*
X8431123Y32041658D01*
X8381060Y31792018D01*
X8381060Y31157018D01*
X8408055Y31017884D01*
X8379502Y30989331D01*
X8379502Y31148078D01*
X8285030Y31148078D01*
X8285170Y31307587D01*
X8250166Y31392304D01*
X8297427Y31462318D01*
X8347490Y31711958D01*
X8347490Y32712718D01*
X8300513Y32954841D01*
X8160723Y33167645D01*
X7949690Y33310095D01*
X7700050Y33360158D01*
X6899950Y33360158D01*
X6657827Y33313181D01*
X6445023Y33173391D01*
X6302573Y32962358D01*
X6252510Y32712718D01*
X6252510Y31711958D01*
X6299487Y31469835D01*
X6349938Y31393033D01*
X6315172Y31309306D01*
X6315042Y31160518D01*
X6218940Y31160518D01*
X6218940Y31792018D01*
X6171963Y32034141D01*
X6032173Y32246945D01*
X5984970Y32278808D01*
X5985170Y32507587D01*
X5835529Y32869747D01*
X5558686Y33147073D01*
X5196788Y33297346D01*
X4804931Y33297688D01*
X4442771Y33148047D01*
X4165445Y32871204D01*
X4015172Y32509306D01*
X4014971Y32279886D01*
X3973573Y32252691D01*
X3831123Y32041658D01*
X3781060Y31792018D01*
X3781060Y31157018D01*
X3828037Y30914895D01*
X3961805Y30711258D01*
X3831123Y30517658D01*
X3790518Y30315185D01*
X3758686Y30347073D01*
X3396788Y30497346D01*
X3004931Y30497688D01*
X2642771Y30348047D01*
X2365445Y30071204D01*
X2215172Y29709306D01*
X2214971Y29479886D01*
X2173573Y29452691D01*
X2031123Y29241658D01*
X1981060Y28992018D01*
X1981060Y28357018D01*
X2028037Y28114895D01*
X2161805Y27911258D01*
X2031123Y27717658D01*
X1981060Y27468018D01*
X1981060Y26833018D01*
X1997648Y26747518D01*
X1135197Y26747518D01*
X1135197Y47849775D01*
X962767Y48267086D01*
X643765Y48586645D01*
X226756Y48759803D01*
X-224775Y48760197D01*
X-642086Y48587767D01*
X-961645Y48268765D01*
X-1134803Y47851756D01*
X-1135197Y47400225D01*
X-962767Y46982914D01*
X-643765Y46663355D01*
X-226756Y46490197D01*
X224775Y46489803D01*
X642086Y46662233D01*
X961645Y46981235D01*
X1134803Y47398244D01*
X1135197Y47849775D01*
X1135197Y26747518D01*
X696059Y26747518D01*
X760543Y26844024D01*
X885000Y27469711D01*
X885000Y28655325D01*
X760543Y29281012D01*
X406120Y29811445D01*
X-124313Y30165868D01*
X-750000Y30290325D01*
X-1375687Y30165868D01*
X-1906120Y29811445D01*
X-2260543Y29281012D01*
X-2314319Y29010663D01*
X-2314319Y48394384D01*
X-2904529Y49822801D01*
X-3996443Y50916623D01*
X-5423827Y51509324D01*
X-6969376Y51510673D01*
X-8397793Y50920463D01*
X-9491615Y49828549D01*
X-10084316Y48401165D01*
X-10085665Y46855616D01*
X-9495455Y45427199D01*
X-8403541Y44333377D01*
X-6976157Y43740676D01*
X-5430608Y43739327D01*
X-4002191Y44329537D01*
X-2908369Y45421451D01*
X-2315668Y46848835D01*
X-2314319Y48394384D01*
X-2314319Y29010663D01*
X-2385000Y28655325D01*
X-2385000Y27469711D01*
X-2260543Y26844024D01*
X-1906120Y26313591D01*
X-1414842Y25985330D01*
X-2145131Y25887958D01*
X-5863890Y25887958D01*
X-5863890Y27672958D01*
X-5910867Y27915081D01*
X-6050657Y28127885D01*
X-6261690Y28270335D01*
X-6511330Y28320398D01*
X-7971330Y28320398D01*
X-8213453Y28273421D01*
X-8426257Y28133631D01*
X-8568707Y27922598D01*
X-8594216Y27795398D01*
X-11371330Y27795398D01*
X-11565216Y27757781D01*
X-11565216Y47559177D01*
X-11220672Y49291324D01*
X-10277707Y50702571D01*
X-8866458Y51645538D01*
X-7134311Y51990082D01*
X15066350Y51990082D01*
X15073098Y37218505D01*
X32919080Y37228811D01*
X32919080Y51990082D01*
X83633878Y51990082D01*
X85366025Y51645538D01*
X86777272Y50702573D01*
X87720239Y49291324D01*
X88064784Y47559177D01*
X88064784Y28991451D01*
G36*
X88064784Y69112D02*
X87720239Y-1663035D01*
X86777272Y-3074284D01*
X86585681Y-3202301D01*
X86585681Y769384D01*
X85995471Y2197801D01*
X84903557Y3291623D01*
X83476173Y3884324D01*
X81930624Y3885673D01*
X81585796Y3743194D01*
X81586084Y4072353D01*
X81586084Y8572353D01*
X81337694Y9173501D01*
X80878163Y9633836D01*
X80277448Y9883274D01*
X79627005Y9883842D01*
X79025857Y9635452D01*
X78565522Y9175921D01*
X78316084Y8575206D01*
X78315516Y7924763D01*
X78563906Y7323615D01*
X79023437Y6863280D01*
X79624152Y6613842D01*
X80274595Y6613274D01*
X80875743Y6861664D01*
X81336078Y7321195D01*
X81585516Y7921910D01*
X81586084Y8572353D01*
X81586084Y4072353D01*
X81337694Y4673501D01*
X80878163Y5133836D01*
X80277448Y5383274D01*
X79627005Y5383842D01*
X79025857Y5135452D01*
X78565522Y4675921D01*
X78316084Y4075206D01*
X78315516Y3424763D01*
X78563906Y2823615D01*
X79023437Y2363280D01*
X79408344Y2203453D01*
X78815684Y776165D01*
X78814335Y-769384D01*
X79404545Y-2197801D01*
X80496459Y-3291623D01*
X81923843Y-3884324D01*
X83469392Y-3885673D01*
X84897809Y-3295463D01*
X85991631Y-2203549D01*
X86584332Y-776165D01*
X86585681Y769384D01*
X86585681Y-3202301D01*
X85366025Y-4017249D01*
X83633878Y-4361794D01*
X77635197Y-4361794D01*
X77635197Y224775D01*
X77462767Y642086D01*
X77143765Y961645D01*
X76726756Y1134803D01*
X76275225Y1135197D01*
X75857914Y962767D01*
X75538355Y643765D01*
X75365197Y226756D01*
X75364803Y-224775D01*
X75537233Y-642086D01*
X75856235Y-961645D01*
X76273244Y-1134803D01*
X76724775Y-1135197D01*
X77142086Y-962767D01*
X77461645Y-643765D01*
X77634803Y-226756D01*
X77635197Y224775D01*
X77635197Y-4361794D01*
X75086084Y-4361794D01*
X75086084Y4072353D01*
X75086084Y8572353D01*
X74837694Y9173501D01*
X74378163Y9633836D01*
X73777448Y9883274D01*
X73127005Y9883842D01*
X72525857Y9635452D01*
X72065522Y9175921D01*
X71816084Y8575206D01*
X71815516Y7924763D01*
X72063906Y7323615D01*
X72523437Y6863280D01*
X73124152Y6613842D01*
X73774595Y6613274D01*
X74375743Y6861664D01*
X74836078Y7321195D01*
X75085516Y7921910D01*
X75086084Y8572353D01*
X75086084Y4072353D01*
X74837694Y4673501D01*
X74378163Y5133836D01*
X73777448Y5383274D01*
X73127005Y5383842D01*
X72525857Y5135452D01*
X72065522Y4675921D01*
X71816084Y4075206D01*
X71815516Y3424763D01*
X72063906Y2823615D01*
X72523437Y2363280D01*
X73124152Y2113842D01*
X73774595Y2113274D01*
X74375743Y2361664D01*
X74836078Y2821195D01*
X75085516Y3421910D01*
X75086084Y4072353D01*
X75086084Y-4361794D01*
X30935000Y-4361794D01*
X30935000Y-3263792D01*
X30935000Y-3011173D01*
X30935000Y-2873232D01*
X30776250Y-2714482D01*
X30127000Y-2714482D01*
X30127000Y-3613732D01*
X30285750Y-3772482D01*
X30426309Y-3772482D01*
X30659698Y-3675809D01*
X30838327Y-3497181D01*
X30935000Y-3263792D01*
X30935000Y-4361794D01*
X29873000Y-4361794D01*
X28193000Y-4361794D01*
X28193000Y-3523232D01*
X28193000Y-2856482D01*
X27272250Y-2856482D01*
X27113500Y-3015232D01*
X27113500Y-3173291D01*
X27210173Y-3406680D01*
X27388801Y-3585309D01*
X27622190Y-3681982D01*
X27874809Y-3681982D01*
X28034250Y-3681982D01*
X28193000Y-3523232D01*
X28193000Y-4361794D01*
X1135197Y-4361794D01*
X1135197Y224775D01*
X962767Y642086D01*
X643765Y961645D01*
X226756Y1134803D01*
X-224775Y1135197D01*
X-642086Y962767D01*
X-961645Y643765D01*
X-1134803Y226756D01*
X-1135197Y-224775D01*
X-962767Y-642086D01*
X-643765Y-961645D01*
X-226756Y-1134803D01*
X224775Y-1135197D01*
X642086Y-962767D01*
X961645Y-643765D01*
X1134803Y-226756D01*
X1135197Y224775D01*
X1135197Y-4361794D01*
X-2314319Y-4361794D01*
X-2314319Y769384D01*
X-2904529Y2197801D01*
X-3996443Y3291623D01*
X-5423827Y3884324D01*
X-6969376Y3885673D01*
X-8397793Y3295463D01*
X-9491615Y2203549D01*
X-10084316Y776165D01*
X-10085665Y-769384D01*
X-9495455Y-2197801D01*
X-8403541Y-3291623D01*
X-6976157Y-3884324D01*
X-5430608Y-3885673D01*
X-4002191Y-3295463D01*
X-2908369Y-2203549D01*
X-2315668Y-776165D01*
X-2314319Y769384D01*
X-2314319Y-4361794D01*
X-7134311Y-4361794D01*
X-8866458Y-4017249D01*
X-10277707Y-3074282D01*
X-11220672Y-1663035D01*
X-11565216Y69112D01*
X-11565216Y19789401D01*
X-11371330Y19750518D01*
X-8595015Y19750518D01*
X-8571793Y19630835D01*
X-8432003Y19418031D01*
X-8220970Y19275581D01*
X-7971330Y19225518D01*
X-6511330Y19225518D01*
X-6269207Y19272495D01*
X-6056403Y19412285D01*
X-5913953Y19623318D01*
X-5863890Y19872958D01*
X-5863890Y19885518D01*
X2616131Y19885518D01*
X2557566Y19826952D01*
X2376561Y19556059D01*
X2313000Y19236518D01*
X2313000Y18820386D01*
X1913132Y18420518D01*
X114920Y18420518D01*
X-10827Y18611945D01*
X-221860Y18754395D01*
X-471500Y18804458D01*
X-1106500Y18804458D01*
X-1348623Y18757481D01*
X-1552261Y18623713D01*
X-1745860Y18754395D01*
X-1995500Y18804458D01*
X-2630500Y18804458D01*
X-2872623Y18757481D01*
X-3085427Y18617691D01*
X-3227877Y18406658D01*
X-3277940Y18157018D01*
X-3277940Y17014018D01*
X-3230963Y16771895D01*
X-3224036Y16761350D01*
X-3227877Y16755658D01*
X-3277940Y16506018D01*
X-3277940Y15363018D01*
X-3230963Y15120895D01*
X-3198000Y15070716D01*
X-3198000Y13521524D01*
X-3198001Y13521518D01*
X-3141811Y13239034D01*
X-3130633Y13182843D01*
X-2938790Y12895728D01*
X-2479793Y12436732D01*
X-2479790Y12436728D01*
X-2362905Y12358629D01*
X-2362905Y12358628D01*
X-2260543Y11844024D01*
X-2029608Y11498404D01*
X-5039861Y14508657D01*
X-5051886Y14516692D01*
X-4891916Y14965080D01*
X-4919698Y15520146D01*
X-5078663Y15903921D01*
X-5320847Y15973386D01*
X-5500452Y15793781D01*
X-5500452Y16152991D01*
X-5569917Y16395175D01*
X-6093362Y16581922D01*
X-6648428Y16554140D01*
X-7032203Y16395175D01*
X-7101668Y16152991D01*
X-6301060Y15352383D01*
X-5500452Y16152991D01*
X-5500452Y15793781D01*
X-6121455Y15172778D01*
X-6107313Y15158636D01*
X-6286918Y14979031D01*
X-6301060Y14993173D01*
X-6315203Y14979031D01*
X-6494808Y15158636D01*
X-6480665Y15172778D01*
X-7281273Y15973386D01*
X-7431620Y15930263D01*
X-7431620Y15934778D01*
X-7478597Y16176901D01*
X-7618387Y16389705D01*
X-7829420Y16532155D01*
X-8079060Y16582218D01*
X-9603060Y16582218D01*
X-9845183Y16535241D01*
X-10057987Y16395451D01*
X-10200437Y16184418D01*
X-10250500Y15934778D01*
X-10250500Y14410778D01*
X-10203523Y14168655D01*
X-10063733Y13955851D01*
X-9852700Y13813401D01*
X-9672049Y13777174D01*
X-10024689Y13425148D01*
X-10237817Y12911878D01*
X-10238302Y12356117D01*
X-10026070Y11842475D01*
X-9633430Y11449149D01*
X-9425548Y11362829D01*
X-9631363Y11277788D01*
X-10024689Y10885148D01*
X-10237817Y10371878D01*
X-10238302Y9816117D01*
X-10026070Y9302475D01*
X-9633430Y8909149D01*
X-9626060Y8906089D01*
X-9626060Y8451938D01*
X-9566305Y8151531D01*
X-9396139Y7896859D01*
X-8728119Y7228839D01*
X-8473446Y7058673D01*
X-8173040Y6998918D01*
X4913040Y6998918D01*
X5213446Y7058673D01*
X5213447Y7058673D01*
X5468119Y7228839D01*
X6855079Y8615799D01*
X7025245Y8870472D01*
X7085000Y9170878D01*
X7085001Y9170878D01*
X7085000Y9170884D01*
X7085000Y10112518D01*
X7085000Y10201998D01*
X7085000Y13627518D01*
X7314483Y13627518D01*
X7320037Y13598895D01*
X7459827Y13386091D01*
X7670860Y13243641D01*
X7920500Y13193578D01*
X8555500Y13193578D01*
X8797623Y13240555D01*
X9008447Y13379045D01*
X9084802Y13302691D01*
X9318191Y13206018D01*
X9476250Y13206018D01*
X9635000Y13364768D01*
X9635000Y14285518D01*
X9615000Y14285518D01*
X9615000Y14539518D01*
X9635000Y14539518D01*
X9635000Y15460268D01*
X9476250Y15619018D01*
X9318191Y15619018D01*
X9084802Y15522345D01*
X9007354Y15444898D01*
X8805140Y15581395D01*
X8783395Y15585756D01*
X9825158Y16627518D01*
X10448860Y16627518D01*
X10448860Y15535518D01*
X10454356Y15507187D01*
X10439198Y15522345D01*
X10205809Y15619018D01*
X10047750Y15619018D01*
X9889000Y15460268D01*
X9889000Y14539518D01*
X10555750Y14539518D01*
X10714500Y14698268D01*
X10714500Y14857709D01*
X10714500Y15027351D01*
X10846660Y14938141D01*
X11096300Y14888078D01*
X11185500Y14888078D01*
X11185500Y14857709D01*
X11185500Y14698268D01*
X11344250Y14539518D01*
X12011000Y14539518D01*
X12011000Y14559518D01*
X12265000Y14559518D01*
X12265000Y14539518D01*
X12285000Y14539518D01*
X12285000Y14285518D01*
X12265000Y14285518D01*
X12265000Y13364768D01*
X12423750Y13206018D01*
X12581809Y13206018D01*
X12815198Y13302691D01*
X12892645Y13380139D01*
X13094860Y13243641D01*
X13344500Y13193578D01*
X13714900Y13193578D01*
X13714900Y13112618D01*
X13774655Y12812211D01*
X13944821Y12557539D01*
X14023000Y12479360D01*
X14023000Y10339518D01*
X12011000Y10339518D01*
X12011000Y13364768D01*
X12011000Y14285518D01*
X11344250Y14285518D01*
X11185500Y14126768D01*
X11185500Y13967327D01*
X11185500Y13714708D01*
X11282173Y13481319D01*
X11460802Y13302691D01*
X11694191Y13206018D01*
X11852250Y13206018D01*
X12011000Y13364768D01*
X12011000Y10339518D01*
X10714500Y10339518D01*
X10714500Y13714708D01*
X10714500Y13967327D01*
X10714500Y14126768D01*
X10555750Y14285518D01*
X9889000Y14285518D01*
X9889000Y13364768D01*
X10047750Y13206018D01*
X10205809Y13206018D01*
X10439198Y13302691D01*
X10617827Y13481319D01*
X10714500Y13714708D01*
X10714500Y10339518D01*
X9973000Y10339518D01*
X9973000Y3035518D01*
X28207500Y3035518D01*
X28207500Y2536018D01*
X28267255Y2235611D01*
X28437421Y1980939D01*
X29135921Y1282439D01*
X29238706Y1213761D01*
X29238706Y1213760D01*
X29102623Y1012158D01*
X29099687Y997518D01*
X28908137Y997518D01*
X28848686Y1057073D01*
X28486788Y1207346D01*
X28094931Y1207688D01*
X27732771Y1058047D01*
X27455445Y781204D01*
X27305172Y419306D01*
X27304830Y27449D01*
X27450215Y-324411D01*
X27293573Y-427309D01*
X27151123Y-638342D01*
X27101060Y-887982D01*
X27101060Y-1522982D01*
X27148037Y-1765105D01*
X27286526Y-1975929D01*
X27210173Y-2052284D01*
X27113500Y-2285673D01*
X27113500Y-2443732D01*
X27272250Y-2602482D01*
X28193000Y-2602482D01*
X28193000Y-2582482D01*
X28447000Y-2582482D01*
X28447000Y-2602482D01*
X28467000Y-2602482D01*
X28467000Y-2856482D01*
X28447000Y-2856482D01*
X28447000Y-3523232D01*
X28605750Y-3681982D01*
X28765191Y-3681982D01*
X29017810Y-3681982D01*
X29250210Y-3585718D01*
X29340302Y-3675809D01*
X29573691Y-3772482D01*
X29714250Y-3772482D01*
X29873000Y-3613732D01*
X29873000Y-2714482D01*
X29853000Y-2714482D01*
X29853000Y-2460482D01*
X29873000Y-2460482D01*
X29873000Y-2440482D01*
X30127000Y-2440482D01*
X30127000Y-2460482D01*
X30776250Y-2460482D01*
X30935000Y-2301732D01*
X30935000Y-2163791D01*
X30935000Y-2032482D01*
X30953562Y-2032482D01*
X30952560Y-2037482D01*
X30952560Y-3137482D01*
X30999537Y-3379605D01*
X31139327Y-3592409D01*
X31350360Y-3734859D01*
X31600000Y-3784922D01*
X32200000Y-3784922D01*
X32442123Y-3737945D01*
X32654927Y-3598155D01*
X32797377Y-3387122D01*
X32847440Y-3137482D01*
X32847440Y-2037482D01*
X32846469Y-2032482D01*
X32959994Y-2032482D01*
X32960000Y-2032483D01*
X32960000Y-2032482D01*
X33242484Y-1976292D01*
X33298674Y-1965115D01*
X33298675Y-1965115D01*
X33585790Y-1773272D01*
X33795786Y-1563274D01*
X33795790Y-1563272D01*
X33795790Y-1563271D01*
X33987633Y-1276157D01*
X33987633Y-1276156D01*
X33998810Y-1219966D01*
X34055000Y-937482D01*
X34055001Y-937482D01*
X34055000Y-937476D01*
X34055000Y2394465D01*
X34294972Y2314406D01*
X34745375Y2346301D01*
X35013352Y2457301D01*
X35027565Y2539610D01*
X35066235Y2500873D01*
X35483244Y2327715D01*
X35934775Y2327321D01*
X36352086Y2499751D01*
X36392372Y2539968D01*
X36406648Y2457301D01*
X36834972Y2314406D01*
X37285375Y2346301D01*
X37553352Y2457301D01*
X37567565Y2539610D01*
X37606235Y2500873D01*
X38023244Y2327715D01*
X38474775Y2327321D01*
X38885495Y2497028D01*
X39293244Y2327715D01*
X39744775Y2327321D01*
X40155495Y2497028D01*
X40563244Y2327715D01*
X41014775Y2327321D01*
X41425495Y2497028D01*
X41833244Y2327715D01*
X42284775Y2327321D01*
X42695495Y2497028D01*
X43103244Y2327715D01*
X43554775Y2327321D01*
X43965495Y2497028D01*
X44373244Y2327715D01*
X44824775Y2327321D01*
X45235495Y2497028D01*
X45643244Y2327715D01*
X46094775Y2327321D01*
X46512086Y2499751D01*
X46831645Y2818753D01*
X47004803Y3235762D01*
X47005022Y3487383D01*
X47137079Y3619439D01*
X47307245Y3874111D01*
X47307245Y3874112D01*
X47367000Y4174518D01*
X47367000Y4343002D01*
X47395623Y4348555D01*
X47608427Y4488345D01*
X47750877Y4699378D01*
X47800940Y4949018D01*
X47800940Y5584018D01*
X47753963Y5826141D01*
X47615473Y6036966D01*
X47691827Y6113320D01*
X47788500Y6346709D01*
X47788500Y6504768D01*
X47788500Y7076268D01*
X47788500Y7234327D01*
X47691827Y7467716D01*
X47513199Y7646345D01*
X47279810Y7743018D01*
X47027191Y7743018D01*
X46867750Y7743018D01*
X46709000Y7584268D01*
X46709000Y6917518D01*
X47629750Y6917518D01*
X47788500Y7076268D01*
X47788500Y6504768D01*
X47629750Y6663518D01*
X46709000Y6663518D01*
X46709000Y6643518D01*
X46455000Y6643518D01*
X46455000Y6663518D01*
X46435000Y6663518D01*
X46435000Y6917518D01*
X46455000Y6917518D01*
X46455000Y7584268D01*
X46296250Y7743018D01*
X46136809Y7743018D01*
X45943000Y7743018D01*
X45943000Y8131318D01*
X46042828Y8371730D01*
X46043170Y8763587D01*
X45893529Y9125747D01*
X45616686Y9403073D01*
X45254788Y9553346D01*
X44862931Y9553688D01*
X44500771Y9404047D01*
X44295885Y9199519D01*
X44092686Y9403073D01*
X43730788Y9553346D01*
X43338931Y9553688D01*
X42976771Y9404047D01*
X42771885Y9199519D01*
X42568686Y9403073D01*
X42206788Y9553346D01*
X41814931Y9553688D01*
X41452771Y9404047D01*
X41247885Y9199519D01*
X41044686Y9403073D01*
X40682788Y9553346D01*
X40290931Y9553688D01*
X39928771Y9404047D01*
X39723885Y9199519D01*
X39520686Y9403073D01*
X39158788Y9553346D01*
X38766931Y9553688D01*
X38404771Y9404047D01*
X38199885Y9199519D01*
X37996686Y9403073D01*
X37634788Y9553346D01*
X37242931Y9553688D01*
X36880771Y9404047D01*
X36603445Y9127204D01*
X36453172Y8765306D01*
X36452830Y8373449D01*
X36553000Y8131019D01*
X36553000Y7743018D01*
X36359191Y7743018D01*
X36199750Y7743018D01*
X36041000Y7584268D01*
X36041000Y6917518D01*
X36061000Y6917518D01*
X36061000Y6663518D01*
X36041000Y6663518D01*
X36041000Y6643518D01*
X35806500Y6643518D01*
X35806500Y20906709D01*
X35806500Y21064768D01*
X35647750Y21223518D01*
X34727000Y21223518D01*
X34727000Y20556768D01*
X34885750Y20398018D01*
X35045191Y20398018D01*
X35297810Y20398018D01*
X35531199Y20494691D01*
X35709827Y20673320D01*
X35806500Y20906709D01*
X35806500Y6643518D01*
X35787000Y6643518D01*
X35787000Y6663518D01*
X35787000Y6917518D01*
X35787000Y7584268D01*
X35628250Y7743018D01*
X35468809Y7743018D01*
X35216190Y7743018D01*
X34982801Y7646345D01*
X34804173Y7467716D01*
X34707500Y7234327D01*
X34707500Y7076268D01*
X34866250Y6917518D01*
X35787000Y6917518D01*
X35787000Y6663518D01*
X34866250Y6663518D01*
X34707500Y6504768D01*
X34707500Y6346709D01*
X34804173Y6113320D01*
X34881620Y6035873D01*
X34745123Y5833658D01*
X34695060Y5584018D01*
X34695060Y4949018D01*
X34742037Y4706895D01*
X34867085Y4516532D01*
X34585028Y4610630D01*
X34473000Y4602697D01*
X34134625Y4578735D01*
X33866648Y4467735D01*
X33852434Y4385427D01*
X33813765Y4424163D01*
X33444582Y4577462D01*
X33526877Y4699378D01*
X33576940Y4949018D01*
X33576940Y5584018D01*
X33529963Y5826141D01*
X33391473Y6036966D01*
X33467827Y6113320D01*
X33564500Y6346709D01*
X33564500Y6504768D01*
X33564500Y7076268D01*
X33564500Y7234327D01*
X33467827Y7467716D01*
X33289199Y7646345D01*
X33055810Y7743018D01*
X32803191Y7743018D01*
X32643750Y7743018D01*
X32485000Y7584268D01*
X32485000Y6917518D01*
X33405750Y6917518D01*
X33564500Y7076268D01*
X33564500Y6504768D01*
X33405750Y6663518D01*
X32485000Y6663518D01*
X32485000Y6643518D01*
X32231000Y6643518D01*
X32231000Y6663518D01*
X32231000Y6917518D01*
X32231000Y7584268D01*
X32072250Y7743018D01*
X31912809Y7743018D01*
X31660190Y7743018D01*
X31596000Y7716430D01*
X31531810Y7743018D01*
X31279191Y7743018D01*
X31119750Y7743018D01*
X30961000Y7584268D01*
X30961000Y6917518D01*
X31310250Y6917518D01*
X31881750Y6917518D01*
X32231000Y6917518D01*
X32231000Y6663518D01*
X31881750Y6663518D01*
X31310250Y6663518D01*
X30961000Y6663518D01*
X30961000Y6643518D01*
X30707000Y6643518D01*
X30707000Y6663518D01*
X30687000Y6663518D01*
X30687000Y6917518D01*
X30707000Y6917518D01*
X30707000Y7584268D01*
X30548250Y7743018D01*
X30539500Y7743018D01*
X30539500Y9197018D01*
X30539500Y10092513D01*
X30539500Y10092518D01*
X30539501Y10092518D01*
X30479745Y10392924D01*
X30309579Y10647596D01*
X30309579Y10647597D01*
X30309575Y10647600D01*
X27841000Y13116176D01*
X27841000Y18232250D01*
X27841000Y19153000D01*
X27841000Y19407000D01*
X27841000Y20327750D01*
X27682250Y20486500D01*
X27524191Y20486500D01*
X27290802Y20389827D01*
X27112173Y20211199D01*
X27015500Y19977810D01*
X27015500Y19725191D01*
X27015500Y19565750D01*
X27174250Y19407000D01*
X27841000Y19407000D01*
X27841000Y19153000D01*
X27174250Y19153000D01*
X27015500Y18994250D01*
X27015500Y18834809D01*
X27015500Y18582190D01*
X27112173Y18348801D01*
X27290802Y18170173D01*
X27524191Y18073500D01*
X27682250Y18073500D01*
X27841000Y18232250D01*
X27841000Y13116176D01*
X25610579Y15346597D01*
X25355907Y15516763D01*
X25055500Y15576518D01*
X24556931Y15576518D01*
X24734555Y15753832D01*
X24884828Y16115730D01*
X24885028Y16345151D01*
X24926427Y16372345D01*
X25068877Y16583378D01*
X25118940Y16833018D01*
X25118940Y17468018D01*
X25071963Y17710141D01*
X24933473Y17920966D01*
X25009827Y17997320D01*
X25106500Y18230709D01*
X25106500Y18388768D01*
X24947750Y18547518D01*
X24027000Y18547518D01*
X24027000Y18527518D01*
X23773000Y18527518D01*
X23773000Y18547518D01*
X23753000Y18547518D01*
X23753000Y18801518D01*
X23773000Y18801518D01*
X23773000Y18821518D01*
X24027000Y18821518D01*
X24027000Y18801518D01*
X24947750Y18801518D01*
X24973450Y18827218D01*
X25002075Y18827218D01*
X25011314Y18817963D01*
X25373212Y18667690D01*
X25765069Y18667348D01*
X26127229Y18816989D01*
X26404555Y19093832D01*
X26554828Y19455730D01*
X26555170Y19847587D01*
X26406072Y20208433D01*
X27514917Y21317278D01*
X27514830Y21217449D01*
X27664471Y20855289D01*
X27941314Y20577963D01*
X28226707Y20459458D01*
X28095000Y20327750D01*
X28095000Y19407000D01*
X28115000Y19407000D01*
X28115000Y19153000D01*
X28095000Y19153000D01*
X28095000Y18232250D01*
X28253750Y18073500D01*
X28411809Y18073500D01*
X28645198Y18170173D01*
X28722645Y18247621D01*
X28924860Y18111123D01*
X29174500Y18061060D01*
X29809500Y18061060D01*
X30051623Y18108037D01*
X30264427Y18247827D01*
X30406877Y18458860D01*
X30456940Y18708500D01*
X30456940Y19851500D01*
X30409963Y20093623D01*
X30396000Y20114880D01*
X30396000Y20395136D01*
X30414995Y20407615D01*
X30414830Y20217449D01*
X30564471Y19855289D01*
X30841314Y19577963D01*
X31203212Y19427690D01*
X31595069Y19427348D01*
X31957229Y19576989D01*
X32234555Y19853832D01*
X32384828Y20215730D01*
X32384987Y20398018D01*
X32554809Y20398018D01*
X32714250Y20398018D01*
X32873000Y20556768D01*
X32873000Y21223518D01*
X32853000Y21223518D01*
X32853000Y21327518D01*
X33393500Y21327518D01*
X33393500Y21223518D01*
X33127000Y21223518D01*
X33127000Y20556768D01*
X33285750Y20398018D01*
X33445191Y20398018D01*
X33697810Y20398018D01*
X33800000Y20440347D01*
X33902190Y20398018D01*
X34154809Y20398018D01*
X34314250Y20398018D01*
X34473000Y20556768D01*
X34473000Y21223518D01*
X34453000Y21223518D01*
X34453000Y21477518D01*
X34473000Y21477518D01*
X34473000Y21497518D01*
X34727000Y21497518D01*
X34727000Y21477518D01*
X35647750Y21477518D01*
X35806500Y21636268D01*
X35806500Y21794327D01*
X35709827Y22027716D01*
X35632379Y22105164D01*
X35651910Y22134098D01*
X35850360Y22000141D01*
X36100000Y21950078D01*
X37500000Y21950078D01*
X37742123Y21997055D01*
X37954927Y22136845D01*
X38097377Y22347878D01*
X38147440Y22597518D01*
X38147440Y22827518D01*
X38130675Y22913923D01*
X38147440Y22997518D01*
X38147440Y23227518D01*
X38130675Y23313923D01*
X38147440Y23397518D01*
X38147440Y23627518D01*
X38130675Y23713923D01*
X38147440Y23797518D01*
X38147440Y24027518D01*
X38130675Y24113923D01*
X38147440Y24197518D01*
X38147440Y24427518D01*
X38130675Y24513923D01*
X38147440Y24597518D01*
X38147440Y24827518D01*
X38130675Y24913923D01*
X38147440Y24997518D01*
X38147440Y25227518D01*
X38130675Y25313923D01*
X38147440Y25397518D01*
X38147440Y25627518D01*
X38130675Y25713923D01*
X38147440Y25797518D01*
X38147440Y26027518D01*
X38130675Y26113923D01*
X38147440Y26197518D01*
X38147440Y26427518D01*
X38130675Y26513923D01*
X38147440Y26597518D01*
X38147440Y26827518D01*
X38130675Y26913923D01*
X38147440Y26997518D01*
X38147440Y27227518D01*
X38130675Y27313923D01*
X38147440Y27397518D01*
X38147440Y27627518D01*
X38130675Y27713923D01*
X38147440Y27797518D01*
X38147440Y28027518D01*
X38130675Y28113923D01*
X38147440Y28197518D01*
X38147440Y28427518D01*
X38130675Y28513923D01*
X38147440Y28597518D01*
X38147440Y28826738D01*
X38151577Y28827561D01*
X38151578Y28827561D01*
X38395069Y28827348D01*
X38757229Y28976989D01*
X39034555Y29253832D01*
X39184828Y29615730D01*
X39185170Y30007587D01*
X39035529Y30369747D01*
X38758686Y30647073D01*
X38396788Y30797346D01*
X38016356Y30797679D01*
X37960673Y30882445D01*
X37749640Y31024895D01*
X37500000Y31074958D01*
X36100000Y31074958D01*
X35978267Y31051340D01*
X38262171Y33335244D01*
X38237560Y33212518D01*
X38237560Y31812518D01*
X38284537Y31570395D01*
X38424327Y31357591D01*
X38635360Y31215141D01*
X38885000Y31165078D01*
X39115000Y31165078D01*
X39201404Y31181843D01*
X39285000Y31165078D01*
X39515000Y31165078D01*
X39601404Y31181843D01*
X39614971Y31179122D01*
X39614830Y31017449D01*
X39764471Y30655289D01*
X40041314Y30377963D01*
X40403212Y30227690D01*
X40795069Y30227348D01*
X41157229Y30376989D01*
X41197295Y30416986D01*
X41280277Y30292795D01*
X43565000Y28008072D01*
X43565000Y25416965D01*
X41680277Y23532241D01*
X41520949Y23293790D01*
X41465000Y23012518D01*
X41465000Y22547518D01*
X40858067Y22547518D01*
X40758686Y22647073D01*
X40396788Y22797346D01*
X40004931Y22797688D01*
X39642771Y22648047D01*
X39365445Y22371204D01*
X39215172Y22009306D01*
X39215029Y21846383D01*
X39198595Y21843194D01*
X39115000Y21859958D01*
X38885000Y21859958D01*
X38642877Y21812981D01*
X38430073Y21673191D01*
X38287623Y21462158D01*
X38237560Y21212518D01*
X38237560Y19812518D01*
X38284537Y19570395D01*
X38424327Y19357591D01*
X38635360Y19215141D01*
X38885000Y19165078D01*
X39115000Y19165078D01*
X39201404Y19181843D01*
X39285000Y19165078D01*
X39515000Y19165078D01*
X39601404Y19181843D01*
X39685000Y19165078D01*
X39915000Y19165078D01*
X40001404Y19181843D01*
X40085000Y19165078D01*
X40265000Y19165078D01*
X40265000Y18366965D01*
X36880277Y14982241D01*
X36720949Y14743790D01*
X36665000Y14462518D01*
X36665000Y11212518D01*
X36720949Y10931246D01*
X36880277Y10692795D01*
X37680277Y9892794D01*
X37918728Y9733467D01*
X38200000Y9677518D01*
X52450000Y9677518D01*
X52450000Y9677519D01*
X52731272Y9733467D01*
X52969723Y9892795D01*
X54219723Y11142795D01*
X54219724Y11142795D01*
X54379051Y11381246D01*
X54434999Y11662518D01*
X54435000Y11662518D01*
X54435000Y11908072D01*
X55704446Y13177518D01*
X61000000Y13177518D01*
X73800000Y13177518D01*
X83702094Y13177518D01*
X83702094Y13177519D01*
X83983366Y13233467D01*
X84221817Y13392795D01*
X86955301Y16126279D01*
X87103319Y16064816D01*
X87694089Y16064301D01*
X88064784Y16217469D01*
X88064784Y69112D01*
X88064784Y69112D01*
G37*
X88064784Y69112D02*
X87720239Y-1663035D01*
X86777272Y-3074284D01*
X86585681Y-3202301D01*
X86585681Y769384D01*
X85995471Y2197801D01*
X84903557Y3291623D01*
X83476173Y3884324D01*
X81930624Y3885673D01*
X81585796Y3743194D01*
X81586084Y4072353D01*
X81586084Y8572353D01*
X81337694Y9173501D01*
X80878163Y9633836D01*
X80277448Y9883274D01*
X79627005Y9883842D01*
X79025857Y9635452D01*
X78565522Y9175921D01*
X78316084Y8575206D01*
X78315516Y7924763D01*
X78563906Y7323615D01*
X79023437Y6863280D01*
X79624152Y6613842D01*
X80274595Y6613274D01*
X80875743Y6861664D01*
X81336078Y7321195D01*
X81585516Y7921910D01*
X81586084Y8572353D01*
X81586084Y4072353D01*
X81337694Y4673501D01*
X80878163Y5133836D01*
X80277448Y5383274D01*
X79627005Y5383842D01*
X79025857Y5135452D01*
X78565522Y4675921D01*
X78316084Y4075206D01*
X78315516Y3424763D01*
X78563906Y2823615D01*
X79023437Y2363280D01*
X79408344Y2203453D01*
X78815684Y776165D01*
X78814335Y-769384D01*
X79404545Y-2197801D01*
X80496459Y-3291623D01*
X81923843Y-3884324D01*
X83469392Y-3885673D01*
X84897809Y-3295463D01*
X85991631Y-2203549D01*
X86584332Y-776165D01*
X86585681Y769384D01*
X86585681Y-3202301D01*
X85366025Y-4017249D01*
X83633878Y-4361794D01*
X77635197Y-4361794D01*
X77635197Y224775D01*
X77462767Y642086D01*
X77143765Y961645D01*
X76726756Y1134803D01*
X76275225Y1135197D01*
X75857914Y962767D01*
X75538355Y643765D01*
X75365197Y226756D01*
X75364803Y-224775D01*
X75537233Y-642086D01*
X75856235Y-961645D01*
X76273244Y-1134803D01*
X76724775Y-1135197D01*
X77142086Y-962767D01*
X77461645Y-643765D01*
X77634803Y-226756D01*
X77635197Y224775D01*
X77635197Y-4361794D01*
X75086084Y-4361794D01*
X75086084Y4072353D01*
X75086084Y8572353D01*
X74837694Y9173501D01*
X74378163Y9633836D01*
X73777448Y9883274D01*
X73127005Y9883842D01*
X72525857Y9635452D01*
X72065522Y9175921D01*
X71816084Y8575206D01*
X71815516Y7924763D01*
X72063906Y7323615D01*
X72523437Y6863280D01*
X73124152Y6613842D01*
X73774595Y6613274D01*
X74375743Y6861664D01*
X74836078Y7321195D01*
X75085516Y7921910D01*
X75086084Y8572353D01*
X75086084Y4072353D01*
X74837694Y4673501D01*
X74378163Y5133836D01*
X73777448Y5383274D01*
X73127005Y5383842D01*
X72525857Y5135452D01*
X72065522Y4675921D01*
X71816084Y4075206D01*
X71815516Y3424763D01*
X72063906Y2823615D01*
X72523437Y2363280D01*
X73124152Y2113842D01*
X73774595Y2113274D01*
X74375743Y2361664D01*
X74836078Y2821195D01*
X75085516Y3421910D01*
X75086084Y4072353D01*
X75086084Y-4361794D01*
X30935000Y-4361794D01*
X30935000Y-3263792D01*
X30935000Y-3011173D01*
X30935000Y-2873232D01*
X30776250Y-2714482D01*
X30127000Y-2714482D01*
X30127000Y-3613732D01*
X30285750Y-3772482D01*
X30426309Y-3772482D01*
X30659698Y-3675809D01*
X30838327Y-3497181D01*
X30935000Y-3263792D01*
X30935000Y-4361794D01*
X29873000Y-4361794D01*
X28193000Y-4361794D01*
X28193000Y-3523232D01*
X28193000Y-2856482D01*
X27272250Y-2856482D01*
X27113500Y-3015232D01*
X27113500Y-3173291D01*
X27210173Y-3406680D01*
X27388801Y-3585309D01*
X27622190Y-3681982D01*
X27874809Y-3681982D01*
X28034250Y-3681982D01*
X28193000Y-3523232D01*
X28193000Y-4361794D01*
X1135197Y-4361794D01*
X1135197Y224775D01*
X962767Y642086D01*
X643765Y961645D01*
X226756Y1134803D01*
X-224775Y1135197D01*
X-642086Y962767D01*
X-961645Y643765D01*
X-1134803Y226756D01*
X-1135197Y-224775D01*
X-962767Y-642086D01*
X-643765Y-961645D01*
X-226756Y-1134803D01*
X224775Y-1135197D01*
X642086Y-962767D01*
X961645Y-643765D01*
X1134803Y-226756D01*
X1135197Y224775D01*
X1135197Y-4361794D01*
X-2314319Y-4361794D01*
X-2314319Y769384D01*
X-2904529Y2197801D01*
X-3996443Y3291623D01*
X-5423827Y3884324D01*
X-6969376Y3885673D01*
X-8397793Y3295463D01*
X-9491615Y2203549D01*
X-10084316Y776165D01*
X-10085665Y-769384D01*
X-9495455Y-2197801D01*
X-8403541Y-3291623D01*
X-6976157Y-3884324D01*
X-5430608Y-3885673D01*
X-4002191Y-3295463D01*
X-2908369Y-2203549D01*
X-2315668Y-776165D01*
X-2314319Y769384D01*
X-2314319Y-4361794D01*
X-7134311Y-4361794D01*
X-8866458Y-4017249D01*
X-10277707Y-3074282D01*
X-11220672Y-1663035D01*
X-11565216Y69112D01*
X-11565216Y19789401D01*
X-11371330Y19750518D01*
X-8595015Y19750518D01*
X-8571793Y19630835D01*
X-8432003Y19418031D01*
X-8220970Y19275581D01*
X-7971330Y19225518D01*
X-6511330Y19225518D01*
X-6269207Y19272495D01*
X-6056403Y19412285D01*
X-5913953Y19623318D01*
X-5863890Y19872958D01*
X-5863890Y19885518D01*
X2616131Y19885518D01*
X2557566Y19826952D01*
X2376561Y19556059D01*
X2313000Y19236518D01*
X2313000Y18820386D01*
X1913132Y18420518D01*
X114920Y18420518D01*
X-10827Y18611945D01*
X-221860Y18754395D01*
X-471500Y18804458D01*
X-1106500Y18804458D01*
X-1348623Y18757481D01*
X-1552261Y18623713D01*
X-1745860Y18754395D01*
X-1995500Y18804458D01*
X-2630500Y18804458D01*
X-2872623Y18757481D01*
X-3085427Y18617691D01*
X-3227877Y18406658D01*
X-3277940Y18157018D01*
X-3277940Y17014018D01*
X-3230963Y16771895D01*
X-3224036Y16761350D01*
X-3227877Y16755658D01*
X-3277940Y16506018D01*
X-3277940Y15363018D01*
X-3230963Y15120895D01*
X-3198000Y15070716D01*
X-3198000Y13521524D01*
X-3198001Y13521518D01*
X-3141811Y13239034D01*
X-3130633Y13182843D01*
X-2938790Y12895728D01*
X-2479793Y12436732D01*
X-2479790Y12436728D01*
X-2362905Y12358629D01*
X-2362905Y12358628D01*
X-2260543Y11844024D01*
X-2029608Y11498404D01*
X-5039861Y14508657D01*
X-5051886Y14516692D01*
X-4891916Y14965080D01*
X-4919698Y15520146D01*
X-5078663Y15903921D01*
X-5320847Y15973386D01*
X-5500452Y15793781D01*
X-5500452Y16152991D01*
X-5569917Y16395175D01*
X-6093362Y16581922D01*
X-6648428Y16554140D01*
X-7032203Y16395175D01*
X-7101668Y16152991D01*
X-6301060Y15352383D01*
X-5500452Y16152991D01*
X-5500452Y15793781D01*
X-6121455Y15172778D01*
X-6107313Y15158636D01*
X-6286918Y14979031D01*
X-6301060Y14993173D01*
X-6315203Y14979031D01*
X-6494808Y15158636D01*
X-6480665Y15172778D01*
X-7281273Y15973386D01*
X-7431620Y15930263D01*
X-7431620Y15934778D01*
X-7478597Y16176901D01*
X-7618387Y16389705D01*
X-7829420Y16532155D01*
X-8079060Y16582218D01*
X-9603060Y16582218D01*
X-9845183Y16535241D01*
X-10057987Y16395451D01*
X-10200437Y16184418D01*
X-10250500Y15934778D01*
X-10250500Y14410778D01*
X-10203523Y14168655D01*
X-10063733Y13955851D01*
X-9852700Y13813401D01*
X-9672049Y13777174D01*
X-10024689Y13425148D01*
X-10237817Y12911878D01*
X-10238302Y12356117D01*
X-10026070Y11842475D01*
X-9633430Y11449149D01*
X-9425548Y11362829D01*
X-9631363Y11277788D01*
X-10024689Y10885148D01*
X-10237817Y10371878D01*
X-10238302Y9816117D01*
X-10026070Y9302475D01*
X-9633430Y8909149D01*
X-9626060Y8906089D01*
X-9626060Y8451938D01*
X-9566305Y8151531D01*
X-9396139Y7896859D01*
X-8728119Y7228839D01*
X-8473446Y7058673D01*
X-8173040Y6998918D01*
X4913040Y6998918D01*
X5213446Y7058673D01*
X5213447Y7058673D01*
X5468119Y7228839D01*
X6855079Y8615799D01*
X7025245Y8870472D01*
X7085000Y9170878D01*
X7085001Y9170878D01*
X7085000Y9170884D01*
X7085000Y10112518D01*
X7085000Y10201998D01*
X7085000Y13627518D01*
X7314483Y13627518D01*
X7320037Y13598895D01*
X7459827Y13386091D01*
X7670860Y13243641D01*
X7920500Y13193578D01*
X8555500Y13193578D01*
X8797623Y13240555D01*
X9008447Y13379045D01*
X9084802Y13302691D01*
X9318191Y13206018D01*
X9476250Y13206018D01*
X9635000Y13364768D01*
X9635000Y14285518D01*
X9615000Y14285518D01*
X9615000Y14539518D01*
X9635000Y14539518D01*
X9635000Y15460268D01*
X9476250Y15619018D01*
X9318191Y15619018D01*
X9084802Y15522345D01*
X9007354Y15444898D01*
X8805140Y15581395D01*
X8783395Y15585756D01*
X9825158Y16627518D01*
X10448860Y16627518D01*
X10448860Y15535518D01*
X10454356Y15507187D01*
X10439198Y15522345D01*
X10205809Y15619018D01*
X10047750Y15619018D01*
X9889000Y15460268D01*
X9889000Y14539518D01*
X10555750Y14539518D01*
X10714500Y14698268D01*
X10714500Y14857709D01*
X10714500Y15027351D01*
X10846660Y14938141D01*
X11096300Y14888078D01*
X11185500Y14888078D01*
X11185500Y14857709D01*
X11185500Y14698268D01*
X11344250Y14539518D01*
X12011000Y14539518D01*
X12011000Y14559518D01*
X12265000Y14559518D01*
X12265000Y14539518D01*
X12285000Y14539518D01*
X12285000Y14285518D01*
X12265000Y14285518D01*
X12265000Y13364768D01*
X12423750Y13206018D01*
X12581809Y13206018D01*
X12815198Y13302691D01*
X12892645Y13380139D01*
X13094860Y13243641D01*
X13344500Y13193578D01*
X13714900Y13193578D01*
X13714900Y13112618D01*
X13774655Y12812211D01*
X13944821Y12557539D01*
X14023000Y12479360D01*
X14023000Y10339518D01*
X12011000Y10339518D01*
X12011000Y13364768D01*
X12011000Y14285518D01*
X11344250Y14285518D01*
X11185500Y14126768D01*
X11185500Y13967327D01*
X11185500Y13714708D01*
X11282173Y13481319D01*
X11460802Y13302691D01*
X11694191Y13206018D01*
X11852250Y13206018D01*
X12011000Y13364768D01*
X12011000Y10339518D01*
X10714500Y10339518D01*
X10714500Y13714708D01*
X10714500Y13967327D01*
X10714500Y14126768D01*
X10555750Y14285518D01*
X9889000Y14285518D01*
X9889000Y13364768D01*
X10047750Y13206018D01*
X10205809Y13206018D01*
X10439198Y13302691D01*
X10617827Y13481319D01*
X10714500Y13714708D01*
X10714500Y10339518D01*
X9973000Y10339518D01*
X9973000Y3035518D01*
X28207500Y3035518D01*
X28207500Y2536018D01*
X28267255Y2235611D01*
X28437421Y1980939D01*
X29135921Y1282439D01*
X29238706Y1213761D01*
X29238706Y1213760D01*
X29102623Y1012158D01*
X29099687Y997518D01*
X28908137Y997518D01*
X28848686Y1057073D01*
X28486788Y1207346D01*
X28094931Y1207688D01*
X27732771Y1058047D01*
X27455445Y781204D01*
X27305172Y419306D01*
X27304830Y27449D01*
X27450215Y-324411D01*
X27293573Y-427309D01*
X27151123Y-638342D01*
X27101060Y-887982D01*
X27101060Y-1522982D01*
X27148037Y-1765105D01*
X27286526Y-1975929D01*
X27210173Y-2052284D01*
X27113500Y-2285673D01*
X27113500Y-2443732D01*
X27272250Y-2602482D01*
X28193000Y-2602482D01*
X28193000Y-2582482D01*
X28447000Y-2582482D01*
X28447000Y-2602482D01*
X28467000Y-2602482D01*
X28467000Y-2856482D01*
X28447000Y-2856482D01*
X28447000Y-3523232D01*
X28605750Y-3681982D01*
X28765191Y-3681982D01*
X29017810Y-3681982D01*
X29250210Y-3585718D01*
X29340302Y-3675809D01*
X29573691Y-3772482D01*
X29714250Y-3772482D01*
X29873000Y-3613732D01*
X29873000Y-2714482D01*
X29853000Y-2714482D01*
X29853000Y-2460482D01*
X29873000Y-2460482D01*
X29873000Y-2440482D01*
X30127000Y-2440482D01*
X30127000Y-2460482D01*
X30776250Y-2460482D01*
X30935000Y-2301732D01*
X30935000Y-2163791D01*
X30935000Y-2032482D01*
X30953562Y-2032482D01*
X30952560Y-2037482D01*
X30952560Y-3137482D01*
X30999537Y-3379605D01*
X31139327Y-3592409D01*
X31350360Y-3734859D01*
X31600000Y-3784922D01*
X32200000Y-3784922D01*
X32442123Y-3737945D01*
X32654927Y-3598155D01*
X32797377Y-3387122D01*
X32847440Y-3137482D01*
X32847440Y-2037482D01*
X32846469Y-2032482D01*
X32959994Y-2032482D01*
X32960000Y-2032483D01*
X32960000Y-2032482D01*
X33242484Y-1976292D01*
X33298674Y-1965115D01*
X33298675Y-1965115D01*
X33585790Y-1773272D01*
X33795786Y-1563274D01*
X33795790Y-1563272D01*
X33795790Y-1563271D01*
X33987633Y-1276157D01*
X33987633Y-1276156D01*
X33998810Y-1219966D01*
X34055000Y-937482D01*
X34055001Y-937482D01*
X34055000Y-937476D01*
X34055000Y2394465D01*
X34294972Y2314406D01*
X34745375Y2346301D01*
X35013352Y2457301D01*
X35027565Y2539610D01*
X35066235Y2500873D01*
X35483244Y2327715D01*
X35934775Y2327321D01*
X36352086Y2499751D01*
X36392372Y2539968D01*
X36406648Y2457301D01*
X36834972Y2314406D01*
X37285375Y2346301D01*
X37553352Y2457301D01*
X37567565Y2539610D01*
X37606235Y2500873D01*
X38023244Y2327715D01*
X38474775Y2327321D01*
X38885495Y2497028D01*
X39293244Y2327715D01*
X39744775Y2327321D01*
X40155495Y2497028D01*
X40563244Y2327715D01*
X41014775Y2327321D01*
X41425495Y2497028D01*
X41833244Y2327715D01*
X42284775Y2327321D01*
X42695495Y2497028D01*
X43103244Y2327715D01*
X43554775Y2327321D01*
X43965495Y2497028D01*
X44373244Y2327715D01*
X44824775Y2327321D01*
X45235495Y2497028D01*
X45643244Y2327715D01*
X46094775Y2327321D01*
X46512086Y2499751D01*
X46831645Y2818753D01*
X47004803Y3235762D01*
X47005022Y3487383D01*
X47137079Y3619439D01*
X47307245Y3874111D01*
X47307245Y3874112D01*
X47367000Y4174518D01*
X47367000Y4343002D01*
X47395623Y4348555D01*
X47608427Y4488345D01*
X47750877Y4699378D01*
X47800940Y4949018D01*
X47800940Y5584018D01*
X47753963Y5826141D01*
X47615473Y6036966D01*
X47691827Y6113320D01*
X47788500Y6346709D01*
X47788500Y6504768D01*
X47788500Y7076268D01*
X47788500Y7234327D01*
X47691827Y7467716D01*
X47513199Y7646345D01*
X47279810Y7743018D01*
X47027191Y7743018D01*
X46867750Y7743018D01*
X46709000Y7584268D01*
X46709000Y6917518D01*
X47629750Y6917518D01*
X47788500Y7076268D01*
X47788500Y6504768D01*
X47629750Y6663518D01*
X46709000Y6663518D01*
X46709000Y6643518D01*
X46455000Y6643518D01*
X46455000Y6663518D01*
X46435000Y6663518D01*
X46435000Y6917518D01*
X46455000Y6917518D01*
X46455000Y7584268D01*
X46296250Y7743018D01*
X46136809Y7743018D01*
X45943000Y7743018D01*
X45943000Y8131318D01*
X46042828Y8371730D01*
X46043170Y8763587D01*
X45893529Y9125747D01*
X45616686Y9403073D01*
X45254788Y9553346D01*
X44862931Y9553688D01*
X44500771Y9404047D01*
X44295885Y9199519D01*
X44092686Y9403073D01*
X43730788Y9553346D01*
X43338931Y9553688D01*
X42976771Y9404047D01*
X42771885Y9199519D01*
X42568686Y9403073D01*
X42206788Y9553346D01*
X41814931Y9553688D01*
X41452771Y9404047D01*
X41247885Y9199519D01*
X41044686Y9403073D01*
X40682788Y9553346D01*
X40290931Y9553688D01*
X39928771Y9404047D01*
X39723885Y9199519D01*
X39520686Y9403073D01*
X39158788Y9553346D01*
X38766931Y9553688D01*
X38404771Y9404047D01*
X38199885Y9199519D01*
X37996686Y9403073D01*
X37634788Y9553346D01*
X37242931Y9553688D01*
X36880771Y9404047D01*
X36603445Y9127204D01*
X36453172Y8765306D01*
X36452830Y8373449D01*
X36553000Y8131019D01*
X36553000Y7743018D01*
X36359191Y7743018D01*
X36199750Y7743018D01*
X36041000Y7584268D01*
X36041000Y6917518D01*
X36061000Y6917518D01*
X36061000Y6663518D01*
X36041000Y6663518D01*
X36041000Y6643518D01*
X35806500Y6643518D01*
X35806500Y20906709D01*
X35806500Y21064768D01*
X35647750Y21223518D01*
X34727000Y21223518D01*
X34727000Y20556768D01*
X34885750Y20398018D01*
X35045191Y20398018D01*
X35297810Y20398018D01*
X35531199Y20494691D01*
X35709827Y20673320D01*
X35806500Y20906709D01*
X35806500Y6643518D01*
X35787000Y6643518D01*
X35787000Y6663518D01*
X35787000Y6917518D01*
X35787000Y7584268D01*
X35628250Y7743018D01*
X35468809Y7743018D01*
X35216190Y7743018D01*
X34982801Y7646345D01*
X34804173Y7467716D01*
X34707500Y7234327D01*
X34707500Y7076268D01*
X34866250Y6917518D01*
X35787000Y6917518D01*
X35787000Y6663518D01*
X34866250Y6663518D01*
X34707500Y6504768D01*
X34707500Y6346709D01*
X34804173Y6113320D01*
X34881620Y6035873D01*
X34745123Y5833658D01*
X34695060Y5584018D01*
X34695060Y4949018D01*
X34742037Y4706895D01*
X34867085Y4516532D01*
X34585028Y4610630D01*
X34473000Y4602697D01*
X34134625Y4578735D01*
X33866648Y4467735D01*
X33852434Y4385427D01*
X33813765Y4424163D01*
X33444582Y4577462D01*
X33526877Y4699378D01*
X33576940Y4949018D01*
X33576940Y5584018D01*
X33529963Y5826141D01*
X33391473Y6036966D01*
X33467827Y6113320D01*
X33564500Y6346709D01*
X33564500Y6504768D01*
X33564500Y7076268D01*
X33564500Y7234327D01*
X33467827Y7467716D01*
X33289199Y7646345D01*
X33055810Y7743018D01*
X32803191Y7743018D01*
X32643750Y7743018D01*
X32485000Y7584268D01*
X32485000Y6917518D01*
X33405750Y6917518D01*
X33564500Y7076268D01*
X33564500Y6504768D01*
X33405750Y6663518D01*
X32485000Y6663518D01*
X32485000Y6643518D01*
X32231000Y6643518D01*
X32231000Y6663518D01*
X32231000Y6917518D01*
X32231000Y7584268D01*
X32072250Y7743018D01*
X31912809Y7743018D01*
X31660190Y7743018D01*
X31596000Y7716430D01*
X31531810Y7743018D01*
X31279191Y7743018D01*
X31119750Y7743018D01*
X30961000Y7584268D01*
X30961000Y6917518D01*
X31310250Y6917518D01*
X31881750Y6917518D01*
X32231000Y6917518D01*
X32231000Y6663518D01*
X31881750Y6663518D01*
X31310250Y6663518D01*
X30961000Y6663518D01*
X30961000Y6643518D01*
X30707000Y6643518D01*
X30707000Y6663518D01*
X30687000Y6663518D01*
X30687000Y6917518D01*
X30707000Y6917518D01*
X30707000Y7584268D01*
X30548250Y7743018D01*
X30539500Y7743018D01*
X30539500Y9197018D01*
X30539500Y10092513D01*
X30539500Y10092518D01*
X30539501Y10092518D01*
X30479745Y10392924D01*
X30309579Y10647596D01*
X30309579Y10647597D01*
X30309575Y10647600D01*
X27841000Y13116176D01*
X27841000Y18232250D01*
X27841000Y19153000D01*
X27841000Y19407000D01*
X27841000Y20327750D01*
X27682250Y20486500D01*
X27524191Y20486500D01*
X27290802Y20389827D01*
X27112173Y20211199D01*
X27015500Y19977810D01*
X27015500Y19725191D01*
X27015500Y19565750D01*
X27174250Y19407000D01*
X27841000Y19407000D01*
X27841000Y19153000D01*
X27174250Y19153000D01*
X27015500Y18994250D01*
X27015500Y18834809D01*
X27015500Y18582190D01*
X27112173Y18348801D01*
X27290802Y18170173D01*
X27524191Y18073500D01*
X27682250Y18073500D01*
X27841000Y18232250D01*
X27841000Y13116176D01*
X25610579Y15346597D01*
X25355907Y15516763D01*
X25055500Y15576518D01*
X24556931Y15576518D01*
X24734555Y15753832D01*
X24884828Y16115730D01*
X24885028Y16345151D01*
X24926427Y16372345D01*
X25068877Y16583378D01*
X25118940Y16833018D01*
X25118940Y17468018D01*
X25071963Y17710141D01*
X24933473Y17920966D01*
X25009827Y17997320D01*
X25106500Y18230709D01*
X25106500Y18388768D01*
X24947750Y18547518D01*
X24027000Y18547518D01*
X24027000Y18527518D01*
X23773000Y18527518D01*
X23773000Y18547518D01*
X23753000Y18547518D01*
X23753000Y18801518D01*
X23773000Y18801518D01*
X23773000Y18821518D01*
X24027000Y18821518D01*
X24027000Y18801518D01*
X24947750Y18801518D01*
X24973450Y18827218D01*
X25002075Y18827218D01*
X25011314Y18817963D01*
X25373212Y18667690D01*
X25765069Y18667348D01*
X26127229Y18816989D01*
X26404555Y19093832D01*
X26554828Y19455730D01*
X26555170Y19847587D01*
X26406072Y20208433D01*
X27514917Y21317278D01*
X27514830Y21217449D01*
X27664471Y20855289D01*
X27941314Y20577963D01*
X28226707Y20459458D01*
X28095000Y20327750D01*
X28095000Y19407000D01*
X28115000Y19407000D01*
X28115000Y19153000D01*
X28095000Y19153000D01*
X28095000Y18232250D01*
X28253750Y18073500D01*
X28411809Y18073500D01*
X28645198Y18170173D01*
X28722645Y18247621D01*
X28924860Y18111123D01*
X29174500Y18061060D01*
X29809500Y18061060D01*
X30051623Y18108037D01*
X30264427Y18247827D01*
X30406877Y18458860D01*
X30456940Y18708500D01*
X30456940Y19851500D01*
X30409963Y20093623D01*
X30396000Y20114880D01*
X30396000Y20395136D01*
X30414995Y20407615D01*
X30414830Y20217449D01*
X30564471Y19855289D01*
X30841314Y19577963D01*
X31203212Y19427690D01*
X31595069Y19427348D01*
X31957229Y19576989D01*
X32234555Y19853832D01*
X32384828Y20215730D01*
X32384987Y20398018D01*
X32554809Y20398018D01*
X32714250Y20398018D01*
X32873000Y20556768D01*
X32873000Y21223518D01*
X32853000Y21223518D01*
X32853000Y21327518D01*
X33393500Y21327518D01*
X33393500Y21223518D01*
X33127000Y21223518D01*
X33127000Y20556768D01*
X33285750Y20398018D01*
X33445191Y20398018D01*
X33697810Y20398018D01*
X33800000Y20440347D01*
X33902190Y20398018D01*
X34154809Y20398018D01*
X34314250Y20398018D01*
X34473000Y20556768D01*
X34473000Y21223518D01*
X34453000Y21223518D01*
X34453000Y21477518D01*
X34473000Y21477518D01*
X34473000Y21497518D01*
X34727000Y21497518D01*
X34727000Y21477518D01*
X35647750Y21477518D01*
X35806500Y21636268D01*
X35806500Y21794327D01*
X35709827Y22027716D01*
X35632379Y22105164D01*
X35651910Y22134098D01*
X35850360Y22000141D01*
X36100000Y21950078D01*
X37500000Y21950078D01*
X37742123Y21997055D01*
X37954927Y22136845D01*
X38097377Y22347878D01*
X38147440Y22597518D01*
X38147440Y22827518D01*
X38130675Y22913923D01*
X38147440Y22997518D01*
X38147440Y23227518D01*
X38130675Y23313923D01*
X38147440Y23397518D01*
X38147440Y23627518D01*
X38130675Y23713923D01*
X38147440Y23797518D01*
X38147440Y24027518D01*
X38130675Y24113923D01*
X38147440Y24197518D01*
X38147440Y24427518D01*
X38130675Y24513923D01*
X38147440Y24597518D01*
X38147440Y24827518D01*
X38130675Y24913923D01*
X38147440Y24997518D01*
X38147440Y25227518D01*
X38130675Y25313923D01*
X38147440Y25397518D01*
X38147440Y25627518D01*
X38130675Y25713923D01*
X38147440Y25797518D01*
X38147440Y26027518D01*
X38130675Y26113923D01*
X38147440Y26197518D01*
X38147440Y26427518D01*
X38130675Y26513923D01*
X38147440Y26597518D01*
X38147440Y26827518D01*
X38130675Y26913923D01*
X38147440Y26997518D01*
X38147440Y27227518D01*
X38130675Y27313923D01*
X38147440Y27397518D01*
X38147440Y27627518D01*
X38130675Y27713923D01*
X38147440Y27797518D01*
X38147440Y28027518D01*
X38130675Y28113923D01*
X38147440Y28197518D01*
X38147440Y28427518D01*
X38130675Y28513923D01*
X38147440Y28597518D01*
X38147440Y28826738D01*
X38151577Y28827561D01*
X38151578Y28827561D01*
X38395069Y28827348D01*
X38757229Y28976989D01*
X39034555Y29253832D01*
X39184828Y29615730D01*
X39185170Y30007587D01*
X39035529Y30369747D01*
X38758686Y30647073D01*
X38396788Y30797346D01*
X38016356Y30797679D01*
X37960673Y30882445D01*
X37749640Y31024895D01*
X37500000Y31074958D01*
X36100000Y31074958D01*
X35978267Y31051340D01*
X38262171Y33335244D01*
X38237560Y33212518D01*
X38237560Y31812518D01*
X38284537Y31570395D01*
X38424327Y31357591D01*
X38635360Y31215141D01*
X38885000Y31165078D01*
X39115000Y31165078D01*
X39201404Y31181843D01*
X39285000Y31165078D01*
X39515000Y31165078D01*
X39601404Y31181843D01*
X39614971Y31179122D01*
X39614830Y31017449D01*
X39764471Y30655289D01*
X40041314Y30377963D01*
X40403212Y30227690D01*
X40795069Y30227348D01*
X41157229Y30376989D01*
X41197295Y30416986D01*
X41280277Y30292795D01*
X43565000Y28008072D01*
X43565000Y25416965D01*
X41680277Y23532241D01*
X41520949Y23293790D01*
X41465000Y23012518D01*
X41465000Y22547518D01*
X40858067Y22547518D01*
X40758686Y22647073D01*
X40396788Y22797346D01*
X40004931Y22797688D01*
X39642771Y22648047D01*
X39365445Y22371204D01*
X39215172Y22009306D01*
X39215029Y21846383D01*
X39198595Y21843194D01*
X39115000Y21859958D01*
X38885000Y21859958D01*
X38642877Y21812981D01*
X38430073Y21673191D01*
X38287623Y21462158D01*
X38237560Y21212518D01*
X38237560Y19812518D01*
X38284537Y19570395D01*
X38424327Y19357591D01*
X38635360Y19215141D01*
X38885000Y19165078D01*
X39115000Y19165078D01*
X39201404Y19181843D01*
X39285000Y19165078D01*
X39515000Y19165078D01*
X39601404Y19181843D01*
X39685000Y19165078D01*
X39915000Y19165078D01*
X40001404Y19181843D01*
X40085000Y19165078D01*
X40265000Y19165078D01*
X40265000Y18366965D01*
X36880277Y14982241D01*
X36720949Y14743790D01*
X36665000Y14462518D01*
X36665000Y11212518D01*
X36720949Y10931246D01*
X36880277Y10692795D01*
X37680277Y9892794D01*
X37918728Y9733467D01*
X38200000Y9677518D01*
X52450000Y9677518D01*
X52450000Y9677519D01*
X52731272Y9733467D01*
X52969723Y9892795D01*
X54219723Y11142795D01*
X54219724Y11142795D01*
X54379051Y11381246D01*
X54434999Y11662518D01*
X54435000Y11662518D01*
X54435000Y11908072D01*
X55704446Y13177518D01*
X61000000Y13177518D01*
X73800000Y13177518D01*
X83702094Y13177518D01*
X83702094Y13177519D01*
X83983366Y13233467D01*
X84221817Y13392795D01*
X86955301Y16126279D01*
X87103319Y16064816D01*
X87694089Y16064301D01*
X88064784Y16217469D01*
X88064784Y69112D01*
M02*
