M48
;DRILL file {kicad (2015-01-16 BZR 5376)-product} date 26/05/2015 16:37:05
;FORMAT={-:-/ absolute / metric / decimal}
FMAT,2
METRIC,TZ
T1C0.300
T2C0.610
T3C0.750
T4C0.800
T5C0.900
T6C1.000
T7C1.016
T8C1.500
T9C2.700
T10C3.250
%
G90
G05
M71
T1
X3.1Y21.313
X3.2Y29.513
X5.Y32.313
X7.3Y31.113
X8.3Y22.813
X9.6Y32.313
X11.1Y32.313
X12.Y20.413
X12.Y19.413
X12.1Y26.413
X12.1Y18.413
X12.6Y32.313
X13.8Y17.613
X16.864Y19.3
X18.Y8.013
X18.1Y26.213
X19.3Y32.313
X19.55Y23.613
X22.3Y17.813
X22.9Y22.813
X22.9Y21.213
X23.4Y22.013
X23.9Y16.313
X25.52Y21.703
X25.57Y19.653
X28.29Y0.223
X28.5Y21.413
X31.4Y20.413
X34.6Y26.513
X37.438Y8.569
X38.2Y29.813
X38.962Y8.569
X40.2Y21.813
X40.486Y8.569
X40.6Y31.213
X42.Y16.413
X42.01Y8.569
X42.3Y37.913
X42.3Y36.913
X42.4Y39.513
X42.5Y31.113
X43.534Y8.569
X43.7Y31.113
X43.8Y38.313
X44.2Y21.813
X44.7Y37.013
X45.058Y8.569
X45.4Y21.813
X47.25Y15.413
X47.5Y28.813
X47.5Y27.913
X47.5Y23.913
X48.3Y34.713
X50.2Y25.913
X50.6Y31.113
X51.3Y25.613
X52.Y31.113
X52.4Y35.213
X52.4Y33.813
X53.05Y15.513
X55.1Y25.713
X55.5Y23.313
X55.55Y27.513
X55.6Y28.913
X57.Y23.313
X57.6Y19.013
X58.4Y25.713
X64.51Y34.083
X85.11Y32.903
T2
X30.63Y3.463
X31.9Y3.463
X33.17Y3.463
X34.44Y3.463
X35.71Y3.463
X36.98Y3.463
X38.25Y3.463
X39.52Y3.463
X40.79Y3.463
X42.06Y3.463
X43.33Y3.463
X44.6Y3.463
X45.87Y3.463
T5
X73.61Y28.32
X73.61Y25.78
X73.61Y23.24
X73.61Y20.7
X76.15Y27.05
X76.15Y24.51
X76.15Y21.97
X76.15Y19.43
X85.88Y30.2
X85.88Y20.09
X87.4Y27.66
X87.4Y17.55
T6
X49.086Y47.713
X49.086Y45.173
X49.086Y42.633
X49.086Y40.093
X51.626Y47.713
X51.626Y45.173
X51.626Y42.633
X51.626Y40.093
X73.451Y8.249
X73.451Y3.749
X79.951Y8.249
X79.951Y3.749
T7
X-8.841Y15.173
X-8.841Y12.633
X-8.841Y10.093
X-6.301Y15.173
X-6.301Y12.633
X-6.301Y10.093
T8
X79.45Y31.65
X79.45Y16.1
T9
X-6.2Y47.625
X-6.2Y0.
X82.7Y47.625
X82.7Y0.
T10
X82.5Y29.59
X82.5Y18.16
T3
X-7.091Y26.198G85X-7.391Y26.198
G05
X-7.391Y21.348G85X-7.091Y21.348
G05
T4
X-10.021Y26.498G85X-10.521Y26.498
G05
X-10.021Y21.048G85X-10.521Y21.048
G05
T6
X-0.75Y27.313G85X-0.75Y28.813
G05
X-0.75Y12.313G85X-0.75Y13.813
G05
T0
M30
