G04 #@! TF.FileFunction,Paste,Top*
%FSLAX46Y46*%
G04 Gerber Fmt 4.6, Leading zero omitted, Abs format (unit mm)*
G04 Created by KiCad (PCBNEW (2015-01-16 BZR 5376)-product) date 26/05/2015 16:36:23*
%MOMM*%
G01*
G04 APERTURE LIST*
%ADD10C,0.150000*%
%ADD11C,0.100000*%
%ADD12R,1.143000X0.635000*%
%ADD13R,0.600000X1.100000*%
%ADD14R,0.914400X0.914400*%
%ADD15R,0.800100X1.000760*%
%ADD16R,0.635000X1.143000*%
%ADD17R,1.750000X0.400000*%
%ADD18R,2.500000X1.425000*%
%ADD19R,0.406400X1.524000*%
%ADD20R,1.524000X0.406400*%
%ADD21R,1.400000X0.230000*%
%ADD22R,0.230000X1.400000*%
%ADD23R,5.600000X2.200000*%
G04 APERTURE END LIST*
D10*
D11*
X-12250216Y1644D02*
X-12250216Y47626644D01*
X-12250216Y1644D02*
G75*
G03X-7201778Y-5046794I5048438J0D01*
G01*
X83701346Y-5046794D02*
X-7201778Y-5046794D01*
X83701346Y-5046794D02*
G75*
G03X88749784Y1644I0J5048438D01*
G01*
X88749784Y47626644D02*
X88749784Y1644D01*
X88749784Y47626644D02*
G75*
G03X83701346Y52675082I-5048438J0D01*
G01*
X-7201778Y52675082D02*
X83701346Y52675082D01*
X-7201778Y52675082D02*
G75*
G03X-12250216Y47626644I0J-5048438D01*
G01*
D12*
X28320000Y-2729482D03*
X28320000Y-1205482D03*
D13*
X31900000Y212518D03*
X30950000Y212518D03*
X30000000Y212518D03*
X30000000Y-2587482D03*
X31900000Y-2587482D03*
D14*
X31389000Y21396518D03*
X29611000Y21396518D03*
X30500000Y23428518D03*
D15*
X7300000Y32212338D03*
X8252500Y30012698D03*
X6347500Y30012698D03*
D12*
X5000000Y29950518D03*
X5000000Y31474518D03*
X9600000Y29950518D03*
X9600000Y31474518D03*
D16*
X12138000Y14412518D03*
X13662000Y14412518D03*
D12*
X23900000Y18674518D03*
X23900000Y17150518D03*
X19300000Y29950518D03*
X19300000Y31474518D03*
X11100000Y29950518D03*
X11100000Y31474518D03*
D16*
X5462000Y21312518D03*
X3938000Y21312518D03*
D12*
X12600000Y29950518D03*
X12600000Y31474518D03*
D16*
X15638000Y8012518D03*
X17162000Y8012518D03*
X20362000Y8012518D03*
X18838000Y8012518D03*
X52738000Y21912518D03*
X54262000Y21912518D03*
X52738000Y23312518D03*
X54262000Y23312518D03*
D12*
X43534000Y5266518D03*
X43534000Y6790518D03*
X42010000Y5266518D03*
X42010000Y6790518D03*
X45058000Y5266518D03*
X45058000Y6790518D03*
X40486000Y5266518D03*
X40486000Y6790518D03*
X38962000Y5266518D03*
X38962000Y6790518D03*
X37438000Y5266518D03*
X37438000Y6790518D03*
D16*
X56038000Y25712518D03*
X57562000Y25712518D03*
X52738000Y25712518D03*
X54262000Y25712518D03*
D12*
X43500000Y18774518D03*
X43500000Y17250518D03*
X55500000Y20450518D03*
X55500000Y21974518D03*
X52000000Y28750518D03*
X52000000Y30274518D03*
X47650000Y17774518D03*
X47650000Y16250518D03*
D16*
X44838000Y16012518D03*
X46362000Y16012518D03*
D12*
X34600000Y28874518D03*
X34600000Y27350518D03*
X48300000Y32350518D03*
X48300000Y33874518D03*
X57000000Y20450518D03*
X57000000Y21974518D03*
X58300000Y28474518D03*
X58300000Y26950518D03*
D16*
X53238000Y28912518D03*
X54762000Y28912518D03*
X50038000Y35212518D03*
X51562000Y35212518D03*
X53238000Y27512518D03*
X54762000Y27512518D03*
D12*
X50600000Y28750518D03*
X50600000Y30274518D03*
D16*
X50038000Y33812518D03*
X51562000Y33812518D03*
X41862000Y34212518D03*
X40338000Y34212518D03*
D12*
X42000000Y18774518D03*
X42000000Y17250518D03*
X3200000Y27150518D03*
X3200000Y28674518D03*
X35914000Y6790518D03*
X35914000Y5266518D03*
X64510000Y31720518D03*
X64510000Y33244518D03*
D16*
X55412000Y15512518D03*
X53888000Y15512518D03*
D17*
X-7446330Y25072958D03*
X-7446330Y24422958D03*
X-7446330Y23772958D03*
X-7446330Y23122958D03*
X-7446330Y22472958D03*
D18*
X-10771330Y24735458D03*
X-10771330Y22810458D03*
D16*
X54262000Y20512518D03*
X52738000Y20512518D03*
D12*
X56800000Y28474518D03*
X56800000Y26950518D03*
D16*
X3938000Y25912518D03*
X5462000Y25912518D03*
X3938000Y24412518D03*
X5462000Y24412518D03*
X3938000Y22812518D03*
X5462000Y22812518D03*
X8238000Y14412518D03*
X9762000Y14412518D03*
D12*
X21200000Y28450518D03*
X21200000Y29974518D03*
D16*
X29492000Y19280000D03*
X27968000Y19280000D03*
D12*
X46582000Y5266518D03*
X46582000Y6790518D03*
D16*
X-2313000Y15934518D03*
X-789000Y15934518D03*
X44838000Y17512518D03*
X46362000Y17512518D03*
X54262000Y19012518D03*
X52738000Y19012518D03*
D12*
X34600000Y22874518D03*
X34600000Y21350518D03*
X33000000Y22874518D03*
X33000000Y21350518D03*
X54600000Y38074518D03*
X54600000Y36550518D03*
X85063000Y34450718D03*
X85063000Y35974718D03*
X83363000Y34450718D03*
X83363000Y35974718D03*
D16*
X56762000Y19012518D03*
X55238000Y19012518D03*
X-2313000Y17585518D03*
X-789000Y17585518D03*
D12*
X63680000Y30254518D03*
X63680000Y28730518D03*
X65420000Y28974518D03*
X65420000Y27450518D03*
X56700000Y15300518D03*
X56700000Y16824518D03*
X58250000Y15850518D03*
X58250000Y17374518D03*
X30834000Y5266518D03*
X30834000Y6790518D03*
X32358000Y5266518D03*
X32358000Y6790518D03*
D19*
X15300000Y27727518D03*
X14499900Y27727518D03*
X13699800Y27727518D03*
X12899700Y27727518D03*
X12099600Y27727518D03*
X11299500Y27727518D03*
X16100100Y27727518D03*
X16900200Y27727518D03*
X17700300Y27727518D03*
X18500400Y27727518D03*
X19300500Y27727518D03*
X15300000Y16297518D03*
X14499900Y16297518D03*
X13699800Y16297518D03*
X12899700Y16297518D03*
X12099600Y16297518D03*
X11299500Y16297518D03*
X16100100Y16297518D03*
X16900200Y16297518D03*
X17700300Y16297518D03*
X18500400Y16297518D03*
X19300500Y16297518D03*
D20*
X9585000Y22012518D03*
X21015000Y22012518D03*
X9585000Y21212418D03*
X21015000Y21212418D03*
X21015000Y20412318D03*
X9585000Y20412318D03*
X9585000Y19612218D03*
X21015000Y19612218D03*
X21015000Y18812118D03*
X9585000Y18812118D03*
X9585000Y18012018D03*
X21015000Y18012018D03*
X21015000Y22812618D03*
X9585000Y22812618D03*
X9585000Y23612718D03*
X21015000Y23612718D03*
X21015000Y24412818D03*
X9585000Y24412818D03*
X9585000Y25212918D03*
X21015000Y25212918D03*
X21015000Y26013018D03*
X9585000Y26013018D03*
D21*
X48800000Y22712518D03*
X48800000Y23112518D03*
X48800000Y23512518D03*
X48800000Y23912518D03*
X48800000Y24312518D03*
X48800000Y24712518D03*
X48800000Y25112518D03*
X48800000Y25512518D03*
X48800000Y25912518D03*
X48800000Y26312518D03*
X48800000Y26712518D03*
X48800000Y27112518D03*
X48800000Y27512518D03*
X48800000Y27912518D03*
X48800000Y28312518D03*
X48800000Y28712518D03*
X48800000Y29112518D03*
X48800000Y29512518D03*
X48800000Y29912518D03*
X48800000Y30312518D03*
D22*
X46600000Y32512518D03*
X46200000Y32512518D03*
X45800000Y32512518D03*
X45400000Y32512518D03*
X45000000Y32512518D03*
X44600000Y32512518D03*
X44200000Y32512518D03*
X43800000Y32512518D03*
X43400000Y32512518D03*
X43000000Y32512518D03*
X42600000Y32512518D03*
X42200000Y32512518D03*
X41800000Y32512518D03*
X41400000Y32512518D03*
X41000000Y32512518D03*
X40600000Y32512518D03*
X40200000Y32512518D03*
X39800000Y32512518D03*
X39400000Y32512518D03*
X39000000Y32512518D03*
D21*
X36800000Y30312518D03*
X36800000Y29912518D03*
X36800000Y29512518D03*
X36800000Y29112518D03*
X36800000Y28712518D03*
X36800000Y28312518D03*
X36800000Y27912518D03*
X36800000Y27512518D03*
X36800000Y27112518D03*
X36800000Y26712518D03*
X36800000Y26312518D03*
X36800000Y25912518D03*
X36800000Y25512518D03*
X36800000Y25112518D03*
X36800000Y24712518D03*
X36800000Y24312518D03*
X36800000Y23912518D03*
X36800000Y23512518D03*
X36800000Y23112518D03*
X36800000Y22712518D03*
D22*
X39000000Y20512518D03*
X39400000Y20512518D03*
X39800000Y20512518D03*
X40200000Y20512518D03*
X40600000Y20512518D03*
X41000000Y20512518D03*
X41400000Y20512518D03*
X41800000Y20512518D03*
X42200000Y20512518D03*
X42600000Y20512518D03*
X43000000Y20512518D03*
X43400000Y20512518D03*
X43800000Y20512518D03*
X44200000Y20512518D03*
X44600000Y20512518D03*
X45000000Y20512518D03*
X45400000Y20512518D03*
X45800000Y20512518D03*
X46200000Y20512518D03*
X46600000Y20512518D03*
D23*
X15350000Y4812518D03*
X24850000Y4812518D03*
X40750000Y12812518D03*
X50250000Y12812518D03*
M02*
