M48
;DRILL file {kicad (2015-01-16 BZR 5376)-product} date 23/06/2015 14:03:30
;FORMAT={-:-/ absolute / metric / decimal}
FMAT,2
METRIC,TZ
T1C0.300
T2C0.700
T3C0.750
T4C0.800
T5C1.000
T6C1.016
T7C1.200
T8C3.000
%
G90
G05
M71
T1
X0.281Y18.005
X6.7Y32.25
X7.741Y15.32
X8.4Y24.375
X11.361Y16.516
X12.325Y28.4
X14.229Y15.458
X14.329Y23.658
X15.329Y12.658
X18.429Y30.558
X18.429Y25.258
X19.429Y16.958
X20.729Y26.458
X22.229Y26.458
X23.029Y14.158
X23.029Y13.158
X23.029Y12.258
X23.229Y20.558
X23.729Y26.458
X24.875Y19.6
X24.929Y11.758
X26.9Y19.925
X27.096Y24.162
X29.129Y2.158
X29.222Y17.956
X29.229Y20.358
X29.929Y7.958
X30.429Y26.458
X31.043Y8.081
X33.429Y11.958
X35.029Y10.458
X37.529Y25.158
X38.829Y20.258
X39.129Y17.658
X39.529Y25.158
X40.529Y25.158
X44.075Y4.775
X44.1Y2.275
X50.379Y26.458
X55.242Y24.819
X55.362Y17.819
X57.109Y23.397
X57.929Y29.358
X58.829Y19.658
T2
X14.629Y31.958
X15.929Y31.958
X17.229Y31.958
T3
X50.829Y21.768
X50.829Y19.228
X50.829Y16.688
X50.829Y14.148
T5
X-0.593Y10.849
X-0.593Y6.349
X5.907Y10.849
X5.907Y6.349
X62.372Y24.634
X62.372Y22.094
X64.912Y24.634
X64.912Y22.094
X67.452Y24.634
X67.452Y22.094
X69.992Y24.634
X69.992Y22.094
T6
X12.759Y8.998
X12.759Y6.458
X12.759Y3.918
X15.299Y8.998
X15.299Y6.458
X15.299Y3.918
T7
X75.374Y15.091
X75.374Y11.591
X75.374Y8.091
X75.383Y27.81
X75.383Y24.31
X82.374Y15.091
X82.374Y11.591
X82.374Y8.091
X82.383Y27.81
X82.383Y24.31
T8
X-6.11Y35.916
X-6.11Y0.
X79.767Y35.916
X79.767Y0.
T3
X-4.724Y20.38G85X-5.024Y20.38
G05
X-5.024Y15.53G85X-4.724Y15.53
G05
T4
X-7.654Y20.68G85X-8.154Y20.68
G05
X-7.654Y15.23G85X-8.154Y15.23
G05
T0
M30
