G04 #@! TF.FileFunction,Copper,L1,Top,Signal*
%FSLAX46Y46*%
G04 Gerber Fmt 4.6, Leading zero omitted, Abs format (unit mm)*
G04 Created by KiCad (PCBNEW (2015-01-16 BZR 5376)-product) date 23/06/2015 13:59:23*
%MOMM*%
G01*
G04 APERTURE LIST*
%ADD10C,0.150000*%
%ADD11C,0.100000*%
%ADD12R,0.406400X1.524000*%
%ADD13R,1.524000X0.406400*%
%ADD14R,0.635000X1.143000*%
%ADD15R,1.143000X0.635000*%
%ADD16C,1.800000*%
%ADD17R,5.600000X2.200000*%
%ADD18R,1.750000X0.400000*%
%ADD19R,1.460000X2.000000*%
%ADD20R,3.150000X1.300000*%
%ADD21R,2.500000X1.425000*%
%ADD22R,1.524000X1.524000*%
%ADD23C,1.524000*%
%ADD24C,2.200000*%
%ADD25C,1.100000*%
%ADD26R,0.900000X0.400000*%
%ADD27C,2.000000*%
%ADD28C,1.500000*%
%ADD29C,5.000000*%
%ADD30R,0.800100X1.000760*%
%ADD31R,0.850000X0.650000*%
%ADD32C,1.000000*%
%ADD33R,0.550000X0.800000*%
%ADD34C,0.700000*%
%ADD35C,0.300000*%
%ADD36C,0.400000*%
%ADD37C,0.500000*%
%ADD38C,1.000000*%
%ADD39C,0.254000*%
G04 APERTURE END LIST*
D10*
D11*
X79767400Y39916100D02*
X-6110000Y39916100D01*
X83767900Y35915600D02*
G75*
G03X79767400Y39916100I-4000500J0D01*
G01*
X83767900Y0D02*
X83767900Y35915600D01*
X79767400Y-4000500D02*
G75*
G03X83767900Y0I0J4000500D01*
G01*
X-6110000Y-4000500D02*
X79767400Y-4000500D01*
X-10110500Y0D02*
G75*
G03X-6110000Y-4000500I4000500J0D01*
G01*
X-10110500Y35915600D02*
X-10110500Y0D01*
X-6110000Y39916100D02*
G75*
G03X-10110500Y35915600I0J-4000500D01*
G01*
D12*
X26428718Y21872818D03*
X25628618Y21872818D03*
X24828518Y21872818D03*
X24028418Y21872818D03*
X23228318Y21872818D03*
X22428218Y21872818D03*
X27228818Y21872818D03*
X28028918Y21872818D03*
X28829018Y21872818D03*
X29629118Y21872818D03*
X30429218Y21872818D03*
X26428718Y10442818D03*
X25628618Y10442818D03*
X24828518Y10442818D03*
X24028418Y10442818D03*
X23228318Y10442818D03*
X22428218Y10442818D03*
X27228818Y10442818D03*
X28028918Y10442818D03*
X28829018Y10442818D03*
X29629118Y10442818D03*
X30429218Y10442818D03*
D13*
X20713718Y16157818D03*
X32143718Y16157818D03*
X20713718Y15357718D03*
X32143718Y15357718D03*
X32143718Y14557618D03*
X20713718Y14557618D03*
X20713718Y13757518D03*
X32143718Y13757518D03*
X32143718Y12957418D03*
X20713718Y12957418D03*
X20713718Y12157318D03*
X32143718Y12157318D03*
X32143718Y16957918D03*
X20713718Y16957918D03*
X20713718Y17758018D03*
X32143718Y17758018D03*
X32143718Y18558118D03*
X20713718Y18558118D03*
X20713718Y19358218D03*
X32143718Y19358218D03*
X32143718Y20158318D03*
X20713718Y20158318D03*
D14*
X15066718Y16957818D03*
X16590718Y16957818D03*
X55466718Y29357818D03*
X56990718Y29357818D03*
X41590718Y15757818D03*
X40066718Y15757818D03*
X43790718Y20257818D03*
X42266718Y20257818D03*
X15666718Y28057818D03*
X17190718Y28057818D03*
D15*
X32328718Y22595818D03*
X32328718Y24119818D03*
D14*
X19366718Y8557818D03*
X20890718Y8557818D03*
X44490718Y13957818D03*
X42966718Y13957818D03*
X15066718Y18557818D03*
X16590718Y18557818D03*
X53766718Y26357818D03*
X55290718Y26357818D03*
X56466718Y17857818D03*
X57990718Y17857818D03*
X41190718Y20257818D03*
X39666718Y20257818D03*
D15*
X23728718Y24095818D03*
X23728718Y25619818D03*
D14*
X23266718Y8557818D03*
X24790718Y8557818D03*
D15*
X35028718Y12819818D03*
X35028718Y11295818D03*
X30428718Y24095818D03*
X30428718Y25619818D03*
X22228718Y24095818D03*
X22228718Y25619818D03*
D14*
X15666718Y29557818D03*
X17190718Y29557818D03*
X55290718Y27857818D03*
X53766718Y27857818D03*
X52740718Y26407818D03*
X51216718Y26407818D03*
X56466718Y19657818D03*
X57990718Y19657818D03*
X78688000Y19775000D03*
X80212000Y19775000D03*
X15890718Y24857818D03*
X14366718Y24857818D03*
D15*
X20728718Y24095818D03*
X20728718Y25619818D03*
D14*
X61366718Y29357818D03*
X62890718Y29357818D03*
X60290718Y29357818D03*
X58766718Y29357818D03*
X31490718Y2157818D03*
X29966718Y2157818D03*
D15*
X18428718Y28195818D03*
X18428718Y29719818D03*
D14*
X16590718Y15457818D03*
X15066718Y15457818D03*
X26766718Y2157818D03*
X28290718Y2157818D03*
D16*
X69991618Y24634018D03*
X69991618Y22094018D03*
X67451618Y24634018D03*
X67451618Y22094018D03*
X64911618Y24634018D03*
X64911618Y22094018D03*
X62371618Y24634018D03*
X62371618Y22094018D03*
D17*
X26478718Y-1042182D03*
X35978718Y-1042182D03*
D18*
X-5078962Y19255278D03*
X-5078962Y18605278D03*
X-5078962Y17955278D03*
X-5078962Y17305278D03*
X-5078962Y16655278D03*
D19*
X-4873962Y20855278D03*
X-4873962Y15055278D03*
D20*
X-7428962Y20680278D03*
X-7428962Y15230278D03*
D21*
X-8403962Y18917778D03*
X-8403962Y16992778D03*
D22*
X12758718Y8997818D03*
D23*
X15298718Y8997818D03*
X12758718Y6457818D03*
X15298718Y6457818D03*
X12758718Y3917818D03*
X15298718Y3917818D03*
D15*
X14328718Y21295818D03*
X14328718Y22819818D03*
D14*
X15066718Y20057818D03*
X16590718Y20057818D03*
D24*
X82374118Y8091118D03*
X82374118Y11591118D03*
X82374118Y15091118D03*
X75374118Y8091118D03*
X75374118Y11591118D03*
X75374118Y15091118D03*
X82383008Y24310228D03*
X82383008Y27810228D03*
X75383008Y24310228D03*
X75383008Y27810228D03*
D25*
X17228718Y31957818D03*
X15928718Y31957818D03*
X14628718Y31957818D03*
D26*
X40128718Y18607818D03*
X40128718Y17957818D03*
X40128718Y17307818D03*
X41528718Y17307818D03*
X41528718Y17957818D03*
X41528718Y18607818D03*
D27*
X5906726Y10848998D03*
X5906726Y6348998D03*
X-593274Y6348998D03*
X-593274Y10848998D03*
D15*
X7591438Y16483158D03*
X7591438Y18007158D03*
X9422778Y16518718D03*
X9422778Y18042718D03*
D28*
X50828718Y21767818D03*
X50828718Y19227818D03*
X50828718Y16687818D03*
X50828718Y14147818D03*
D29*
X-6110000Y35915600D03*
X-6110000Y0D03*
X79767400Y0D03*
X79767400Y35915600D03*
D30*
X18428718Y26357638D03*
X19381218Y24157998D03*
X17476218Y24157998D03*
D31*
X3381726Y17532628D03*
X3381726Y18382628D03*
X1931726Y17532628D03*
X1931726Y18382628D03*
D32*
X0Y35915600D03*
X73656400Y0D03*
X0Y0D03*
D14*
X10937000Y30550000D03*
X9413000Y30550000D03*
X10937000Y32350000D03*
X9413000Y32350000D03*
X10263000Y24875000D03*
X11787000Y24875000D03*
D15*
X47000000Y3812000D03*
X47000000Y2288000D03*
X46950000Y7412000D03*
X46950000Y5888000D03*
D33*
X10275000Y28875000D03*
X9325000Y28875000D03*
X8375000Y28875000D03*
X8375000Y26475000D03*
X10275000Y26475000D03*
D34*
X27096098Y24161578D03*
X55241838Y24819438D03*
X15328718Y12657818D03*
X55362488Y17819198D03*
X26900000Y19925000D03*
X44075000Y4775000D03*
X31043258Y8080838D03*
X7741298Y15319838D03*
X11360798Y16516178D03*
X29928718Y7957818D03*
X23028718Y12257818D03*
X37528718Y25157818D03*
X40528718Y25157818D03*
X23028718Y13157818D03*
X39528718Y25157818D03*
X23028718Y14157818D03*
X29222078Y17956358D03*
X57108738Y23397038D03*
X6700000Y32250000D03*
X14228718Y15457818D03*
X20728718Y26457818D03*
X23228718Y20557818D03*
X22228718Y26457818D03*
X23728718Y26457818D03*
X29228718Y20357818D03*
X30428718Y26457818D03*
X24928718Y11757818D03*
X29128718Y2157818D03*
X33428718Y11957818D03*
X19428718Y16957818D03*
X35028718Y10457818D03*
X14328718Y23657818D03*
X18428718Y30557818D03*
X38828718Y20257818D03*
X39128718Y17657818D03*
X50378718Y26457818D03*
X58828718Y19657818D03*
X57928718Y29357818D03*
X281318Y18004618D03*
X18428718Y25257818D03*
X8400000Y24375000D03*
X24875000Y19600000D03*
X12325000Y28400000D03*
X44100000Y2275000D03*
D35*
X24028418Y23796118D02*
X23728718Y24095818D01*
X24028418Y21872818D02*
X24028418Y23796118D01*
D36*
X15928718Y29819818D02*
X15928718Y31957818D01*
X15666718Y29557818D02*
X15928718Y29819818D01*
X15666718Y28057818D02*
X15666718Y29557818D01*
X27028718Y27057818D02*
X24066718Y24095818D01*
X27028718Y27357818D02*
X27028718Y27057818D01*
X24066718Y24095818D02*
X23728718Y24095818D01*
X27028718Y33657818D02*
X27028718Y27357818D01*
X24628718Y36057818D02*
X27028718Y33657818D01*
X19728718Y36057818D02*
X24628718Y36057818D01*
X15928718Y32257818D02*
X19728718Y36057818D01*
X15928718Y31957818D02*
X15928718Y32257818D01*
D35*
X55290718Y27857818D02*
X55290718Y26357818D01*
X27030338Y24095818D02*
X27096098Y24161578D01*
X23728718Y24095818D02*
X27030338Y24095818D01*
X55241838Y24819438D02*
X55290718Y24868318D01*
X55290718Y24868318D02*
X55290718Y26357818D01*
X30429218Y21872818D02*
X30450000Y21852036D01*
X30450000Y21852036D02*
X30450000Y19325000D01*
X24375000Y18900000D02*
X24030768Y18555768D01*
X30175000Y18900000D02*
X24375000Y18900000D01*
X30350000Y19075000D02*
X30175000Y18900000D01*
X30375000Y19075000D02*
X30350000Y19075000D01*
X30400000Y19075000D02*
X30375000Y19075000D01*
X30400000Y19125000D02*
X30400000Y19075000D01*
X30400000Y19325000D02*
X30400000Y19125000D01*
X30450000Y19325000D02*
X30400000Y19325000D01*
D37*
X19443398Y24095818D02*
X19381218Y24157998D01*
X20728718Y24095818D02*
X19443398Y24095818D01*
D35*
X22428218Y23896318D02*
X22228718Y24095818D01*
X22428218Y21872818D02*
X22428218Y23896318D01*
D37*
X23028718Y19557818D02*
X24030768Y18555768D01*
X24030768Y18555768D02*
X24128718Y18457818D01*
D35*
X23095598Y19557818D02*
X23028718Y19557818D01*
X30429218Y24095318D02*
X30428718Y24095818D01*
X30429218Y21872818D02*
X30429218Y24095318D01*
X32304718Y24095818D02*
X32328718Y24119818D01*
X30428718Y24095818D02*
X32304718Y24095818D01*
X24028418Y9319518D02*
X23266718Y8557818D01*
X24028418Y10442818D02*
X24028418Y9319518D01*
X24028418Y18558118D02*
X24128718Y18457818D01*
X24028418Y10442818D02*
X24028418Y18558118D01*
D37*
X29629118Y12957418D02*
X26428718Y16157818D01*
X26428718Y16157818D02*
X24128718Y18457818D01*
X32143718Y12957418D02*
X29629118Y12957418D01*
X32143718Y12957418D02*
X34959118Y12957418D01*
X34959518Y12957818D02*
X34959118Y12957418D01*
X35166718Y12957818D02*
X34959518Y12957818D01*
D36*
X17328718Y28195818D02*
X17190718Y28057818D01*
X18428718Y28195818D02*
X17328718Y28195818D01*
X19381218Y27243318D02*
X18428718Y28195818D01*
X19381218Y24157998D02*
X19381218Y27243318D01*
X55199423Y20925113D02*
X56466718Y19657818D01*
X55166718Y20957818D02*
X55199423Y20925113D01*
X56990718Y29357818D02*
X56990718Y29919818D01*
D35*
X56990718Y30523098D02*
X57317018Y30849398D01*
X57317018Y30849398D02*
X60071648Y30849398D01*
X60071648Y30849398D02*
X60290718Y30630328D01*
X60290718Y30630328D02*
X60290718Y29357818D01*
X56990718Y29357818D02*
X56990718Y30523098D01*
X53662463Y20925113D02*
X52819758Y21767818D01*
X52819758Y21767818D02*
X50828718Y21767818D01*
X55199423Y20925113D02*
X53662463Y20925113D01*
D36*
X40128718Y19195818D02*
X41190718Y20257818D01*
X40128718Y18607818D02*
X40128718Y19195818D01*
X40558678Y13957818D02*
X40066718Y14449778D01*
X40066718Y14449778D02*
X40066718Y15757818D01*
X42966718Y13957818D02*
X40558678Y13957818D01*
X38286238Y15757818D02*
X37550738Y16493318D01*
X37550738Y16493318D02*
X37550738Y17963978D01*
X37550738Y17963978D02*
X38194578Y18607818D01*
X38194578Y18607818D02*
X40128718Y18607818D01*
X40066718Y15757818D02*
X38286238Y15757818D01*
X23071478Y19557818D02*
X20641958Y21987338D01*
X23095598Y19557818D02*
X23071478Y19557818D01*
D37*
X15890718Y24857818D02*
X15925000Y24892100D01*
X15925000Y24892100D02*
X15925000Y26050000D01*
X15375000Y26600000D02*
X10400000Y26600000D01*
X15925000Y26050000D02*
X15375000Y26600000D01*
X10400000Y26600000D02*
X10275000Y26475000D01*
D35*
X16125000Y25092100D02*
X15890718Y24857818D01*
X10275000Y26475000D02*
X10263000Y26463000D01*
D37*
X10263000Y26463000D02*
X10263000Y24875000D01*
D35*
X21428618Y15357718D02*
X22228718Y16157818D01*
X22228718Y16157818D02*
X22228718Y18657818D01*
X22228718Y18657818D02*
X21528318Y19358218D01*
X21528318Y19358218D02*
X20713718Y19358218D01*
X20713718Y15357718D02*
X21428618Y15357718D01*
D37*
X18428318Y19358218D02*
X17728718Y20057818D01*
X17728718Y20057818D02*
X16590718Y20057818D01*
X20713718Y19358218D02*
X18428318Y19358218D01*
X16590718Y20057818D02*
X16590718Y23272498D01*
X15890718Y24857818D02*
X16776398Y24857818D01*
D35*
X17414038Y24095818D02*
X17476218Y24157998D01*
D37*
X17414038Y24095818D02*
X17476218Y24157998D01*
X16590718Y23272498D02*
X17476218Y24157998D01*
X16776398Y24857818D02*
X17476218Y24157998D01*
D35*
X50828718Y18957818D02*
X46828718Y22957818D01*
X46828718Y22957818D02*
X39128718Y22957818D01*
X39128718Y22957818D02*
X38628718Y22457818D01*
X35528718Y18657818D02*
X33028718Y16157818D01*
X33028718Y16157818D02*
X32143718Y16157818D01*
X50828718Y18957818D02*
X50828718Y18957818D01*
X36898720Y22457818D02*
X35528718Y21087816D01*
X35528718Y21087816D02*
X35528718Y18657818D01*
X38628718Y22457818D02*
X36898720Y22457818D01*
X55401108Y17857818D02*
X55362488Y17819198D01*
X56466718Y17857818D02*
X55401108Y17857818D01*
X26900000Y19925000D02*
X26850000Y19875000D01*
X25650000Y20350000D02*
X26125000Y19875000D01*
X25650000Y20425000D02*
X25650000Y20350000D01*
X25650000Y20425000D02*
X25650000Y21851436D01*
X26850000Y19875000D02*
X26125000Y19875000D01*
X25628618Y21872818D02*
X25650000Y21851436D01*
X26850000Y19925000D02*
X26825000Y19900000D01*
X26900000Y19925000D02*
X26850000Y19925000D01*
D37*
X47050000Y4725000D02*
X47000000Y4775000D01*
X47000000Y4775000D02*
X44075000Y4775000D01*
X53075000Y11500000D02*
X75283000Y11500000D01*
X49275000Y7700000D02*
X53075000Y11500000D01*
X49275000Y5700000D02*
X49275000Y7700000D01*
X48350000Y4775000D02*
X49275000Y5700000D01*
X48325000Y4775000D02*
X48350000Y4775000D01*
X48325000Y4725000D02*
X48325000Y4775000D01*
X47050000Y4725000D02*
X48325000Y4725000D01*
X75283000Y11500000D02*
X75374118Y11591118D01*
X46950000Y5888000D02*
X47000000Y5838000D01*
X47000000Y5838000D02*
X47000000Y4775000D01*
X47000000Y4775000D02*
X47000000Y3812000D01*
D36*
X82374118Y11591118D02*
X75374118Y11591118D01*
X27228818Y11657918D02*
X27728718Y12157818D01*
X27728718Y12157818D02*
X30428718Y12157818D01*
X30428718Y12157818D02*
X33128718Y9457818D01*
X33128718Y9457818D02*
X41128718Y9457818D01*
X41128718Y9457818D02*
X43728718Y12057818D01*
X43728718Y14557818D02*
X43728718Y16457818D01*
X43728718Y12057818D02*
X43728718Y14557818D01*
X43728718Y16457818D02*
X42878718Y17307818D01*
X42878718Y17307818D02*
X41528718Y17307818D01*
X27228818Y10442818D02*
X27228818Y11657918D01*
X43728718Y14757818D02*
X42728718Y15757818D01*
X42728718Y15757818D02*
X41590718Y15757818D01*
X43728718Y14557818D02*
X43728718Y14757818D01*
X28028918Y8657618D02*
X29528718Y7157818D01*
X29528718Y7157818D02*
X40828718Y7157818D01*
X40828718Y7157818D02*
X45328718Y11657818D01*
X45328718Y11657818D02*
X45328718Y17457818D01*
X44378718Y18407818D02*
X44178718Y18607818D01*
X44528718Y18257818D02*
X44378718Y18407818D01*
X45328718Y17457818D02*
X44528718Y18257818D01*
X44178718Y18607818D02*
X41528718Y18607818D01*
X28028918Y10442818D02*
X28028918Y8657618D01*
X43790718Y18995818D02*
X43790718Y20257818D01*
X44528718Y18257818D02*
X43790718Y18995818D01*
X29629118Y9487358D02*
X31035638Y8080838D01*
X31035638Y8080838D02*
X31043258Y8080838D01*
X7741298Y15319838D02*
X7776858Y15355398D01*
X7776858Y15355398D02*
X7769238Y16305358D01*
X7769238Y16305358D02*
X7591438Y16483158D01*
X29629118Y10442818D02*
X29629118Y9487358D01*
D37*
X11358258Y16518718D02*
X9422778Y16518718D01*
X11360798Y16516178D02*
X11358258Y16518718D01*
D36*
X29928718Y7957818D02*
X28829018Y9057518D01*
X28829018Y9057518D02*
X28829018Y10442818D01*
X30429218Y10257318D02*
X31928718Y8757818D01*
X43428718Y17957818D02*
X41528718Y17957818D01*
X41428718Y8757818D02*
X31928718Y8757818D01*
X44628718Y11957818D02*
X41428718Y8757818D01*
X44628718Y14757818D02*
X44628718Y11957818D01*
X44628718Y16757818D02*
X44628718Y14757818D01*
X43428718Y17957818D02*
X44628718Y16757818D01*
X30429218Y10442818D02*
X30429218Y10257318D01*
D35*
X44490718Y14619818D02*
X44490718Y13957818D01*
X44628718Y14757818D02*
X44490718Y14619818D01*
X52963458Y33244618D02*
X66448318Y33244618D01*
X52935518Y33244618D02*
X52963458Y33244618D01*
X66448318Y33244618D02*
X67451618Y32241318D01*
X67451618Y32241318D02*
X67451618Y24634018D01*
X44176658Y24457818D02*
X52963458Y33244618D01*
X38028718Y23957818D02*
X38528718Y24457818D01*
X38528718Y24457818D02*
X44128718Y24457818D01*
X33029018Y18558118D02*
X34028718Y19557818D01*
X32143718Y18558118D02*
X33029018Y18558118D01*
X36128718Y23957818D02*
X34028718Y21857818D01*
X34028718Y21857818D02*
X34028718Y19557818D01*
X38028718Y23957818D02*
X36128718Y23957818D01*
X44128718Y24457818D02*
X44176658Y24457818D01*
X34528718Y21593134D02*
X34528718Y19257818D01*
X36393402Y23457818D02*
X34528718Y21593134D01*
X32143718Y17758018D02*
X33028918Y17758018D01*
X33028918Y17758018D02*
X34528718Y19257818D01*
X38728718Y23957818D02*
X44558716Y23957818D01*
X38228718Y23457818D02*
X38728718Y23957818D01*
X38228718Y23457818D02*
X36393402Y23457818D01*
X44558716Y23927820D02*
X44558716Y23957818D01*
X44558716Y23957818D02*
X44558716Y23927820D01*
X48589716Y27988818D02*
X44558716Y23957818D01*
X52459718Y27988818D02*
X48589716Y27988818D01*
X53828718Y29357818D02*
X52459718Y27988818D01*
X55466718Y29357818D02*
X53828718Y29357818D01*
X55466718Y31285098D02*
X56201958Y32020338D01*
X56201958Y32020338D02*
X65447558Y32020338D01*
X65447558Y32020338D02*
X66158758Y31309138D01*
X66158758Y31309138D02*
X66158758Y23386878D01*
X66158758Y23386878D02*
X67451618Y22094018D01*
X55466718Y29357818D02*
X55466718Y30395818D01*
X55466718Y30395818D02*
X55466718Y31285098D01*
X33029118Y19358218D02*
X33528718Y19857818D01*
X37828718Y24457818D02*
X37828718Y24457818D01*
X37828718Y24457818D02*
X38628718Y25257818D01*
X38628718Y25257818D02*
X38628718Y25257818D01*
X32143718Y19358218D02*
X33029118Y19358218D01*
X36628718Y24457818D02*
X35928718Y24457818D01*
X35928718Y24457818D02*
X33528718Y22057818D01*
X33528718Y22057818D02*
X33528718Y19857818D01*
X37828718Y24457818D02*
X36628718Y24457818D01*
X43711918Y26357818D02*
X52351318Y34997218D01*
X52351318Y34997218D02*
X71045718Y34997218D01*
X71045718Y34997218D02*
X72026158Y34016778D01*
X72026158Y34016778D02*
X72026158Y20436668D01*
X62371618Y19462578D02*
X62371618Y22094018D01*
X39728718Y26357818D02*
X43428718Y26357818D01*
X38628718Y25257818D02*
X39728718Y26357818D01*
X43428718Y26357818D02*
X43711918Y26357818D01*
X72026158Y20138218D02*
X70918718Y19030778D01*
X70918718Y19030778D02*
X62803418Y19030778D01*
X62803418Y19030778D02*
X62371618Y19462578D01*
X72026158Y20436668D02*
X72026158Y20138218D01*
X19898220Y12157318D02*
X16928718Y9187816D01*
X16928718Y9187816D02*
X16928718Y6357818D01*
X16928718Y6357818D02*
X15728718Y5157818D01*
X15728718Y5157818D02*
X12328718Y5157818D01*
X12328718Y5157818D02*
X11528718Y5957818D01*
X11528718Y5957818D02*
X11528718Y7767818D01*
X11528718Y7767818D02*
X12758718Y8997818D01*
X20713718Y12157318D02*
X19898220Y12157318D01*
X22928218Y12157318D02*
X23028718Y12257818D01*
X20713718Y12157318D02*
X22928218Y12157318D01*
X37528718Y25157818D02*
X39228718Y26857818D01*
X43054918Y26857818D02*
X43128718Y26857818D01*
X39228718Y26857818D02*
X43054918Y26857818D01*
X37528718Y25157818D02*
X37528718Y25157818D01*
X43449918Y26857818D02*
X52173518Y35581418D01*
X52173518Y35581418D02*
X71248918Y35581418D01*
X71248918Y35581418D02*
X72620518Y34209818D01*
X72620518Y34209818D02*
X72620518Y19884218D01*
X72620518Y19884218D02*
X71172718Y18436418D01*
X71172718Y18436418D02*
X61317518Y18436418D01*
X61317518Y18436418D02*
X60225318Y19528618D01*
X60225318Y19528618D02*
X60225318Y24126018D01*
X60225318Y24126018D02*
X60733318Y24634018D01*
X60733318Y24634018D02*
X62371618Y24634018D01*
X43054918Y26857818D02*
X43449918Y26857818D01*
X16428718Y7587818D02*
X15298718Y6457818D01*
X16428718Y10157818D02*
X16428718Y7587818D01*
X19228318Y12957418D02*
X16428718Y10157818D01*
X20713718Y12957418D02*
X19228318Y12957418D01*
X68747018Y20550968D02*
X68747018Y20455718D01*
X68747018Y20516678D02*
X68449838Y20219498D01*
X68449838Y20219498D02*
X65112278Y20219498D01*
X65112278Y20219498D02*
X64911618Y20420158D01*
X64911618Y20420158D02*
X64911618Y22094018D01*
X68747018Y20550968D02*
X68747018Y20516678D01*
X67695458Y33851678D02*
X68747018Y32800118D01*
X43828718Y25157818D02*
X44112118Y25157818D01*
X40528718Y25157818D02*
X43828718Y25157818D01*
X22828318Y12957418D02*
X23028718Y13157818D01*
X22828318Y12957418D02*
X20713718Y12957418D01*
X44112118Y25157818D02*
X52805978Y33851678D01*
X68747018Y20550968D02*
X68747018Y32800118D01*
X52805978Y33851678D02*
X67695458Y33851678D01*
X18328418Y13757518D02*
X14028718Y9457818D01*
X14028718Y9457818D02*
X14028718Y7727818D01*
X14028718Y7727818D02*
X12758718Y6457818D01*
X20713718Y13757518D02*
X18328418Y13757518D01*
X68007878Y34438418D02*
X68048518Y34438418D01*
X52628178Y34438418D02*
X68007878Y34438418D01*
X43728718Y25857818D02*
X44047578Y25857818D01*
X43728718Y25857818D02*
X40228718Y25857818D01*
X40228718Y25857818D02*
X39528718Y25157818D01*
X22628418Y13757518D02*
X23028718Y14157818D01*
X22628418Y13757518D02*
X20713718Y13757518D01*
X44047578Y25857818D02*
X52628178Y34438418D01*
X71439418Y33666258D02*
X70667258Y34438418D01*
X70667258Y34438418D02*
X70568198Y34438418D01*
X71439418Y31022118D02*
X71439418Y20409998D01*
X70568198Y34438418D02*
X68007878Y34438418D01*
X64911618Y24634018D02*
X63616218Y23338618D01*
X71439418Y20409998D02*
X70603758Y19574338D01*
X70603758Y19574338D02*
X64202958Y19574338D01*
X64202958Y19574338D02*
X63616218Y20161078D01*
X63616218Y20161078D02*
X63616218Y23338618D01*
X71439418Y31022118D02*
X71439418Y33666258D01*
D36*
X29237318Y17941118D02*
X29222078Y17956358D01*
X32143718Y13757518D02*
X30512618Y13757518D01*
X29237318Y15032818D02*
X29237318Y17547418D01*
X30512618Y13757518D02*
X29237318Y15032818D01*
X29237318Y17547418D02*
X29237318Y17941118D01*
D35*
X35028718Y18957818D02*
X33028818Y16957918D01*
X46678718Y23457818D02*
X55178718Y23457818D01*
X38428718Y22957818D02*
X36628718Y22957818D01*
X35028718Y21357818D02*
X35028718Y18957818D01*
X36628718Y22957818D02*
X35028718Y21357818D01*
X38928718Y23457818D02*
X38428718Y22957818D01*
X46678718Y23457818D02*
X38928718Y23457818D01*
X33028818Y16957918D02*
X32143718Y16957918D01*
X53716718Y26407818D02*
X52740718Y26407818D01*
X53766718Y26357818D02*
X53716718Y26407818D01*
X56621678Y23407818D02*
X56632458Y23397038D01*
X56632458Y23397038D02*
X57108738Y23397038D01*
D37*
X53766718Y26357818D02*
X53766718Y24869818D01*
X53766718Y24869818D02*
X55228718Y23407818D01*
D35*
X55228718Y23407818D02*
X56621678Y23407818D01*
X18628918Y17758018D02*
X17828718Y16957818D01*
X17828718Y16957818D02*
X16590718Y16957818D01*
X20713718Y17758018D02*
X18628918Y17758018D01*
X16591018Y18558118D02*
X16590718Y18557818D01*
X20713718Y18558118D02*
X16591018Y18558118D01*
X23228318Y11158218D02*
X22828718Y11557818D01*
X22828718Y11557818D02*
X20628718Y11557818D01*
X17628718Y8557818D02*
X17428718Y8357818D01*
X20628718Y11557818D02*
X17628718Y8557818D01*
X17428718Y8357818D02*
X17428718Y4357818D01*
X17428718Y4357818D02*
X15828718Y2757818D01*
X15828718Y2757818D02*
X13918718Y2757818D01*
X13918718Y2757818D02*
X12758718Y3917818D01*
X23228318Y10442818D02*
X23228318Y11158218D01*
X19366718Y8557818D02*
X17628718Y8557818D01*
D37*
X82374118Y15091118D02*
X80212000Y17253236D01*
X80212000Y17253236D02*
X80212000Y19775000D01*
X50828718Y14147818D02*
X46950000Y10269100D01*
X46950000Y10269100D02*
X46950000Y7412000D01*
X9413000Y30550000D02*
X9325000Y30462000D01*
X9325000Y30462000D02*
X9325000Y28875000D01*
D35*
X11787000Y24875000D02*
X11804182Y24857818D01*
D37*
X11804182Y24857818D02*
X14366718Y24857818D01*
D35*
X9413000Y32350000D02*
X9313000Y32250000D01*
D37*
X9313000Y32250000D02*
X6700000Y32250000D01*
D35*
X9325000Y28875000D02*
X9413000Y28963000D01*
D37*
X9413000Y32350000D02*
X9413000Y30550000D01*
X1025088Y18382628D02*
X880758Y18238298D01*
X1931726Y18382628D02*
X1025088Y18382628D01*
X880758Y18238298D02*
X880758Y17740458D01*
D35*
X15066718Y15457818D02*
X14228718Y15457818D01*
D37*
X20728718Y25619818D02*
X20728718Y26457818D01*
D35*
X23228318Y20558218D02*
X23228718Y20557818D01*
X23228318Y21872818D02*
X23228318Y20558218D01*
D37*
X22228718Y25619818D02*
X22228718Y26457818D01*
X23728718Y25619818D02*
X23728718Y26457818D01*
D35*
X29629118Y20758218D02*
X29228718Y20357818D01*
X29629118Y21872818D02*
X29629118Y20758218D01*
X30428718Y25619818D02*
X30428718Y26457818D01*
X24828518Y8595618D02*
X24790718Y8557818D01*
X24828518Y10442818D02*
X24828518Y8595618D01*
X24828518Y11657618D02*
X24928718Y11757818D01*
X24828518Y10442818D02*
X24828518Y11657618D01*
X29128718Y2157818D02*
X28290718Y2157818D01*
X29966718Y2157818D02*
X29128718Y2157818D01*
X33229218Y12157318D02*
X33428718Y11957818D01*
X32143718Y12157318D02*
X33229218Y12157318D01*
D36*
X19428818Y16957918D02*
X19428718Y16957818D01*
X20713718Y16957918D02*
X19428818Y16957918D01*
D37*
X35028718Y11295818D02*
X35028718Y10457818D01*
X14328718Y23557818D02*
X14328718Y23657818D01*
X14328718Y22819818D02*
X14328718Y23557818D01*
D38*
X-8403962Y20180278D02*
X-7903962Y20680278D01*
X-8403962Y18917778D02*
X-8403962Y20180278D01*
X-5173962Y20680278D02*
X-4873962Y20380278D01*
X-7903962Y20680278D02*
X-5173962Y20680278D01*
X-8403962Y15730278D02*
X-7903962Y15230278D01*
X-8403962Y16992778D02*
X-8403962Y15730278D01*
X-5173962Y15230278D02*
X-4873962Y15530278D01*
X-7903962Y15230278D02*
X-5173962Y15230278D01*
D36*
X17190718Y31919818D02*
X17228718Y31957818D01*
X17190718Y29557818D02*
X17190718Y31919818D01*
X18428718Y29719818D02*
X18428718Y30557818D01*
X17352718Y29719818D02*
X17190718Y29557818D01*
X18428718Y29719818D02*
X17352718Y29719818D01*
D35*
X39666718Y20257818D02*
X38828718Y20257818D01*
X39478718Y17307818D02*
X39128718Y17657818D01*
X39428718Y17957818D02*
X40128718Y17957818D01*
X39428718Y17957818D02*
X39128718Y17657818D01*
X40128718Y17307818D02*
X39478718Y17307818D01*
D37*
X14328718Y24819818D02*
X14366718Y24857818D01*
X14328718Y23557818D02*
X14328718Y24819818D01*
D35*
X53366718Y27457818D02*
X52266718Y27457818D01*
X52266718Y27457818D02*
X51216718Y26407818D01*
X53766718Y27857818D02*
X53366718Y27457818D01*
X51166718Y26457818D02*
X50378718Y26457818D01*
X51216718Y26407818D02*
X51166718Y26457818D01*
X57990718Y19657818D02*
X58828718Y19657818D01*
D36*
X-8066462Y16655278D02*
X-8403962Y16992778D01*
X-5078962Y16655278D02*
X-8066462Y16655278D01*
D35*
X62890718Y27987758D02*
X62567198Y27664238D01*
X62567198Y27664238D02*
X58193318Y27664238D01*
X58193318Y27664238D02*
X57928718Y27928838D01*
X57928718Y27928838D02*
X57928718Y29357818D01*
D36*
X57928718Y29357818D02*
X58766718Y29357818D01*
D35*
X62890718Y29357818D02*
X62890718Y27987758D01*
D37*
X880758Y17740458D02*
X1088588Y17532628D01*
X1088588Y17532628D02*
X1931726Y17532628D01*
X880758Y17862378D02*
X738518Y18004618D01*
X738518Y18004618D02*
X281318Y18004618D01*
X880758Y17740458D02*
X880758Y17862378D01*
X18428718Y26357638D02*
X18428718Y25257818D01*
D35*
X19028718Y16157818D02*
X18328718Y15457818D01*
X18328718Y15457818D02*
X16590718Y15457818D01*
X20713718Y16157818D02*
X19028718Y16157818D01*
X26766718Y-754182D02*
X26478718Y-1042182D01*
X26766718Y2157818D02*
X26766718Y-754182D01*
X26766718Y6119818D02*
X25628618Y7257918D01*
X25628618Y7257918D02*
X25628618Y10442818D01*
X26766718Y2157818D02*
X26766718Y6119818D01*
X33328718Y-1042182D02*
X31490718Y795818D01*
X31490718Y795818D02*
X31490718Y2157818D01*
X35978718Y-1042182D02*
X33328718Y-1042182D01*
X26428718Y7557818D02*
X31490718Y2495818D01*
X31490718Y2495818D02*
X31490718Y2157818D01*
X26428718Y10442818D02*
X26428718Y7557818D01*
D36*
X14528718Y20057818D02*
X15066718Y20057818D01*
X14328718Y20795818D02*
X15066718Y20057818D01*
X14328718Y21295818D02*
X14328718Y20795818D01*
D35*
X-2968902Y19255278D02*
X-1298562Y20925618D01*
X-1298562Y20925618D02*
X11983098Y20925618D01*
X11983098Y20925618D02*
X12850898Y20057818D01*
X12850898Y20057818D02*
X15066718Y20057818D01*
X-5078962Y19255278D02*
X-2968902Y19255278D01*
D36*
X15016718Y18607818D02*
X15066718Y18557818D01*
D35*
X-2605442Y18605278D02*
X-1263002Y19947718D01*
X-1263002Y19947718D02*
X11503038Y19947718D01*
X11503038Y19947718D02*
X12892938Y18557818D01*
X12892938Y18557818D02*
X15066718Y18557818D01*
X-5078962Y18605278D02*
X-2605442Y18605278D01*
D36*
X14628718Y16957818D02*
X15066718Y16957818D01*
D35*
X-2577642Y17955278D02*
X802018Y14575618D01*
X802018Y14575618D02*
X10517518Y14575618D01*
X10517518Y14575618D02*
X12899718Y16957818D01*
X12899718Y16957818D02*
X15066718Y16957818D01*
X-5078962Y17955278D02*
X-2577642Y17955278D01*
D37*
X7591438Y18007158D02*
X6329058Y18007158D01*
X6329058Y18007158D02*
X5854528Y17532628D01*
X5854528Y17532628D02*
X3381726Y17532628D01*
X9422778Y18042718D02*
X9422778Y18819958D01*
X9422778Y18819958D02*
X9242438Y19000298D01*
X9242438Y19000298D02*
X5310518Y19000298D01*
X5310518Y19000298D02*
X4692848Y18382628D01*
X4692848Y18382628D02*
X3381726Y18382628D01*
D35*
X8375000Y26475000D02*
X8400000Y26450000D01*
X8400000Y26450000D02*
X8400000Y24375000D01*
X24875000Y19600000D02*
X24875000Y21826336D01*
X24875000Y21826336D02*
X24828518Y21872818D01*
X32143718Y22410818D02*
X32328718Y22595818D01*
X32143718Y20158318D02*
X32143718Y22410818D01*
X32828518Y14557618D02*
X32143718Y14557618D01*
D37*
X10725000Y28425000D02*
X10275000Y28875000D01*
X12425000Y28425000D02*
X10725000Y28425000D01*
X12400000Y28400000D02*
X12425000Y28425000D01*
X12325000Y28400000D02*
X12400000Y28400000D01*
X47000000Y2288000D02*
X46987000Y2275000D01*
X46987000Y2275000D02*
X44100000Y2275000D01*
X47000000Y2288000D02*
X47013000Y2275000D01*
X47013000Y2275000D02*
X49700000Y2275000D01*
X49700000Y2275000D02*
X49700000Y2300000D01*
X49700000Y2300000D02*
X50500000Y3100000D01*
X50500000Y3100000D02*
X50500000Y7225000D01*
X50500000Y7225000D02*
X51225000Y7950000D01*
X51225000Y7950000D02*
X75233000Y7950000D01*
X75233000Y7950000D02*
X75374118Y8091118D01*
X82374118Y8091118D02*
X75374118Y8091118D01*
D35*
X46975000Y2438000D02*
X46925000Y2388000D01*
D37*
X10275000Y28875000D02*
X10937000Y29537000D01*
X10937000Y29537000D02*
X10937000Y30550000D01*
X10937000Y32350000D02*
X10937000Y30550000D01*
D39*
G36*
X15492465Y8983676D02*
X15312860Y8804071D01*
X15298718Y8818213D01*
X15284575Y8804071D01*
X15104970Y8983676D01*
X15119113Y8997818D01*
X15104970Y9011961D01*
X15284575Y9191566D01*
X15298718Y9177423D01*
X15312860Y9191566D01*
X15492465Y9011961D01*
X15478323Y8997818D01*
X15492465Y8983676D01*
X15492465Y8983676D01*
G37*
X15492465Y8983676D02*
X15312860Y8804071D01*
X15298718Y8818213D01*
X15284575Y8804071D01*
X15104970Y8983676D01*
X15119113Y8997818D01*
X15104970Y9011961D01*
X15284575Y9191566D01*
X15298718Y9177423D01*
X15312860Y9191566D01*
X15492465Y9011961D01*
X15478323Y8997818D01*
X15492465Y8983676D01*
G36*
X17478656Y25538333D02*
X17443890Y25454606D01*
X17443878Y25441918D01*
X17402188Y25483608D01*
X17115073Y25675451D01*
X17058882Y25686629D01*
X16810000Y25736135D01*
X16810000Y26050000D01*
X16742633Y26388675D01*
X16550790Y26675790D01*
X16550786Y26675793D01*
X16295375Y26931204D01*
X16437165Y27024345D01*
X16513520Y26947991D01*
X16746909Y26851318D01*
X16904968Y26851318D01*
X17063718Y27010068D01*
X17063718Y27930818D01*
X17043718Y27930818D01*
X17043718Y28184818D01*
X17063718Y28184818D01*
X17063718Y28204818D01*
X17317718Y28204818D01*
X17317718Y28184818D01*
X17337718Y28184818D01*
X17337718Y28025568D01*
X17222218Y27910068D01*
X17222218Y27752009D01*
X17317718Y27521452D01*
X17317718Y27010068D01*
X17396017Y26931769D01*
X17381228Y26858018D01*
X17381228Y25857258D01*
X17428205Y25615135D01*
X17478656Y25538333D01*
X17478656Y25538333D01*
G37*
X17478656Y25538333D02*
X17443890Y25454606D01*
X17443878Y25441918D01*
X17402188Y25483608D01*
X17115073Y25675451D01*
X17058882Y25686629D01*
X16810000Y25736135D01*
X16810000Y26050000D01*
X16742633Y26388675D01*
X16550790Y26675790D01*
X16550786Y26675793D01*
X16295375Y26931204D01*
X16437165Y27024345D01*
X16513520Y26947991D01*
X16746909Y26851318D01*
X16904968Y26851318D01*
X17063718Y27010068D01*
X17063718Y27930818D01*
X17043718Y27930818D01*
X17043718Y28184818D01*
X17063718Y28184818D01*
X17063718Y28204818D01*
X17317718Y28204818D01*
X17317718Y28184818D01*
X17337718Y28184818D01*
X17337718Y28025568D01*
X17222218Y27910068D01*
X17222218Y27752009D01*
X17317718Y27521452D01*
X17317718Y27010068D01*
X17396017Y26931769D01*
X17381228Y26858018D01*
X17381228Y25857258D01*
X17428205Y25615135D01*
X17478656Y25538333D01*
G36*
X22377678Y21725818D02*
X22326618Y21725818D01*
X22326618Y21745818D01*
X21748768Y21745818D01*
X21590018Y21587068D01*
X21590018Y21237127D01*
X21590018Y20986037D01*
X21475718Y21008958D01*
X20601718Y21008958D01*
X20601718Y23302068D01*
X20601718Y23968818D01*
X20319698Y23968818D01*
X20257518Y24030998D01*
X19508218Y24030998D01*
X19508218Y23181368D01*
X19666968Y23022618D01*
X19907577Y23022618D01*
X20140966Y23119291D01*
X20164993Y23143318D01*
X20283527Y23143318D01*
X20442968Y23143318D01*
X20601718Y23302068D01*
X20601718Y21008958D01*
X20055718Y21008958D01*
X20055718Y21284818D01*
X17475718Y21284818D01*
X17475718Y22905919D01*
X17579977Y23010178D01*
X17876268Y23010178D01*
X18118391Y23057155D01*
X18331195Y23196945D01*
X18426303Y23337844D01*
X18442841Y23297919D01*
X18621470Y23119291D01*
X18854859Y23022618D01*
X19095468Y23022618D01*
X19254218Y23181368D01*
X19254218Y24030998D01*
X19234218Y24030998D01*
X19234218Y24284998D01*
X19254218Y24284998D01*
X19254218Y24304998D01*
X19508218Y24304998D01*
X19508218Y24284998D01*
X19618788Y24284998D01*
X19680968Y24222818D01*
X20601718Y24222818D01*
X20601718Y24242818D01*
X20855718Y24242818D01*
X20855718Y24222818D01*
X21180968Y24222818D01*
X21776468Y24222818D01*
X22101718Y24222818D01*
X22101718Y24242818D01*
X22355718Y24242818D01*
X22355718Y24222818D01*
X22375718Y24222818D01*
X22375718Y23968818D01*
X22355718Y23968818D01*
X22355718Y23948818D01*
X22101718Y23948818D01*
X22101718Y23968818D01*
X21776468Y23968818D01*
X21180968Y23968818D01*
X20855718Y23968818D01*
X20855718Y23302068D01*
X21014468Y23143318D01*
X21173909Y23143318D01*
X21426528Y23143318D01*
X21478718Y23164936D01*
X21530908Y23143318D01*
X21783527Y23143318D01*
X21835492Y23143318D01*
X21686691Y22994517D01*
X21590018Y22761128D01*
X21590018Y22508509D01*
X21590018Y22158568D01*
X21748768Y21999818D01*
X22326618Y21999818D01*
X22326618Y22019818D01*
X22377678Y22019818D01*
X22377678Y21725818D01*
X22377678Y21725818D01*
G37*
X22377678Y21725818D02*
X22326618Y21725818D01*
X22326618Y21745818D01*
X21748768Y21745818D01*
X21590018Y21587068D01*
X21590018Y21237127D01*
X21590018Y20986037D01*
X21475718Y21008958D01*
X20601718Y21008958D01*
X20601718Y23302068D01*
X20601718Y23968818D01*
X20319698Y23968818D01*
X20257518Y24030998D01*
X19508218Y24030998D01*
X19508218Y23181368D01*
X19666968Y23022618D01*
X19907577Y23022618D01*
X20140966Y23119291D01*
X20164993Y23143318D01*
X20283527Y23143318D01*
X20442968Y23143318D01*
X20601718Y23302068D01*
X20601718Y21008958D01*
X20055718Y21008958D01*
X20055718Y21284818D01*
X17475718Y21284818D01*
X17475718Y22905919D01*
X17579977Y23010178D01*
X17876268Y23010178D01*
X18118391Y23057155D01*
X18331195Y23196945D01*
X18426303Y23337844D01*
X18442841Y23297919D01*
X18621470Y23119291D01*
X18854859Y23022618D01*
X19095468Y23022618D01*
X19254218Y23181368D01*
X19254218Y24030998D01*
X19234218Y24030998D01*
X19234218Y24284998D01*
X19254218Y24284998D01*
X19254218Y24304998D01*
X19508218Y24304998D01*
X19508218Y24284998D01*
X19618788Y24284998D01*
X19680968Y24222818D01*
X20601718Y24222818D01*
X20601718Y24242818D01*
X20855718Y24242818D01*
X20855718Y24222818D01*
X21180968Y24222818D01*
X21776468Y24222818D01*
X22101718Y24222818D01*
X22101718Y24242818D01*
X22355718Y24242818D01*
X22355718Y24222818D01*
X22375718Y24222818D01*
X22375718Y23968818D01*
X22355718Y23968818D01*
X22355718Y23948818D01*
X22101718Y23948818D01*
X22101718Y23968818D01*
X21776468Y23968818D01*
X21180968Y23968818D01*
X20855718Y23968818D01*
X20855718Y23302068D01*
X21014468Y23143318D01*
X21173909Y23143318D01*
X21426528Y23143318D01*
X21478718Y23164936D01*
X21530908Y23143318D01*
X21783527Y23143318D01*
X21835492Y23143318D01*
X21686691Y22994517D01*
X21590018Y22761128D01*
X21590018Y22508509D01*
X21590018Y22158568D01*
X21748768Y21999818D01*
X22326618Y21999818D01*
X22326618Y22019818D01*
X22377678Y22019818D01*
X22377678Y21725818D01*
G36*
X24901718Y3184818D02*
X23139718Y3184818D01*
X23139718Y7510068D01*
X23139718Y8430818D01*
X22472968Y8430818D01*
X22314218Y8272068D01*
X22314218Y8112627D01*
X22314218Y7860008D01*
X22410891Y7626619D01*
X22589520Y7447991D01*
X22822909Y7351318D01*
X22980968Y7351318D01*
X23139718Y7510068D01*
X23139718Y3184818D01*
X21843218Y3184818D01*
X21843218Y7860008D01*
X21843218Y8112627D01*
X21843218Y8272068D01*
X21684468Y8430818D01*
X21017718Y8430818D01*
X21017718Y7510068D01*
X21176468Y7351318D01*
X21334527Y7351318D01*
X21567916Y7447991D01*
X21746545Y7626619D01*
X21843218Y7860008D01*
X21843218Y3184818D01*
X21101718Y3184818D01*
X21101718Y-3315500D01*
X7542010Y-3315500D01*
X7542010Y6672793D01*
X7542010Y11172793D01*
X7293620Y11773941D01*
X6834089Y12234276D01*
X6233374Y12483714D01*
X5582931Y12484282D01*
X4981783Y12235892D01*
X4521448Y11776361D01*
X4272010Y11175646D01*
X4271442Y10525203D01*
X4519832Y9924055D01*
X4979363Y9463720D01*
X5580078Y9214282D01*
X6230521Y9213714D01*
X6831669Y9462104D01*
X7292004Y9921635D01*
X7541442Y10522350D01*
X7542010Y11172793D01*
X7542010Y6672793D01*
X7293620Y7273941D01*
X6834089Y7734276D01*
X6233374Y7983714D01*
X5582931Y7984282D01*
X4981783Y7735892D01*
X4521448Y7276361D01*
X4272010Y6675646D01*
X4271442Y6025203D01*
X4519832Y5424055D01*
X4979363Y4963720D01*
X5580078Y4714282D01*
X6230521Y4713714D01*
X6831669Y4962104D01*
X7292004Y5421635D01*
X7541442Y6022350D01*
X7542010Y6672793D01*
X7542010Y-3315500D01*
X1135197Y-3315500D01*
X1135197Y224775D01*
X1042010Y450304D01*
X1042010Y6672793D01*
X1042010Y11172793D01*
X793620Y11773941D01*
X334089Y12234276D01*
X-266626Y12483714D01*
X-917069Y12484282D01*
X-1518217Y12235892D01*
X-1978552Y11776361D01*
X-2227990Y11175646D01*
X-2228558Y10525203D01*
X-1980168Y9924055D01*
X-1520637Y9463720D01*
X-919922Y9214282D01*
X-269479Y9213714D01*
X331669Y9462104D01*
X792004Y9921635D01*
X1041442Y10522350D01*
X1042010Y11172793D01*
X1042010Y6672793D01*
X793620Y7273941D01*
X334089Y7734276D01*
X-266626Y7983714D01*
X-917069Y7984282D01*
X-1518217Y7735892D01*
X-1978552Y7276361D01*
X-2227990Y6675646D01*
X-2228558Y6025203D01*
X-1980168Y5424055D01*
X-1520637Y4963720D01*
X-919922Y4714282D01*
X-269479Y4713714D01*
X331669Y4962104D01*
X792004Y5421635D01*
X1041442Y6022350D01*
X1042010Y6672793D01*
X1042010Y450304D01*
X962767Y642086D01*
X643765Y961645D01*
X226756Y1134803D01*
X-224775Y1135197D01*
X-642086Y962767D01*
X-961645Y643765D01*
X-1134803Y226756D01*
X-1135197Y-224775D01*
X-962767Y-642086D01*
X-643765Y-961645D01*
X-226756Y-1134803D01*
X224775Y-1135197D01*
X642086Y-962767D01*
X961645Y-643765D01*
X1134803Y-226756D01*
X1135197Y224775D01*
X1135197Y-3315500D01*
X-2974457Y-3315500D01*
X-2974457Y620854D01*
X-3450727Y1773515D01*
X-4331847Y2656174D01*
X-5483674Y3134454D01*
X-6730854Y3135543D01*
X-7883515Y2659273D01*
X-8766174Y1778153D01*
X-9244454Y626326D01*
X-9245543Y-620854D01*
X-8769273Y-1773515D01*
X-7888153Y-2656174D01*
X-6736326Y-3134454D01*
X-5489146Y-3135543D01*
X-4336485Y-2659273D01*
X-3453826Y-1778153D01*
X-2975546Y-626326D01*
X-2974457Y620854D01*
X-2974457Y-3315500D01*
X-6042533Y-3315500D01*
X-7373651Y-3050724D01*
X-8444924Y-2334923D01*
X-9160724Y-1263651D01*
X-9425500Y67468D01*
X-9425500Y14098935D01*
X-9253602Y13982901D01*
X-9003962Y13932838D01*
X-6227647Y13932838D01*
X-6204425Y13813155D01*
X-6064635Y13600351D01*
X-5853602Y13457901D01*
X-5603962Y13407838D01*
X-4143962Y13407838D01*
X-3901839Y13454815D01*
X-3689035Y13594605D01*
X-3546585Y13805638D01*
X-3496522Y14055278D01*
X-3496522Y16055278D01*
X-3543499Y16297401D01*
X-3577732Y16349515D01*
X-3556522Y16455278D01*
X-3556522Y16855278D01*
X-3581176Y16982344D01*
X-3556522Y17105278D01*
X-3556522Y17170278D01*
X-2902800Y17170278D01*
X246939Y14020539D01*
X501611Y13850373D01*
X501612Y13850373D01*
X802018Y13790618D01*
X10517518Y13790618D01*
X10817924Y13850373D01*
X10817925Y13850373D01*
X11072597Y14020539D01*
X13001718Y15949660D01*
X13001718Y14030818D01*
X17491560Y14030818D01*
X13798763Y10338022D01*
X13770358Y10357195D01*
X13520718Y10407258D01*
X11996718Y10407258D01*
X11754595Y10360281D01*
X11541791Y10220491D01*
X11399341Y10009458D01*
X11349278Y9759818D01*
X11349278Y8698536D01*
X10973639Y8322897D01*
X10803473Y8068225D01*
X10743718Y7767818D01*
X10743718Y5957818D01*
X10803473Y5657411D01*
X10973639Y5402739D01*
X11620679Y4755699D01*
X11575089Y4710188D01*
X11361961Y4196918D01*
X11361476Y3641157D01*
X11573708Y3127515D01*
X11966348Y2734189D01*
X12479618Y2521061D01*
X13035379Y2520576D01*
X13042754Y2523624D01*
X13363639Y2202739D01*
X13618312Y2032573D01*
X13918718Y1972818D01*
X15828718Y1972818D01*
X16129124Y2032573D01*
X16129125Y2032573D01*
X16383797Y2202739D01*
X17983797Y3802739D01*
X18153963Y4057412D01*
X18213718Y4357818D01*
X18213718Y7772818D01*
X18443201Y7772818D01*
X18448755Y7744195D01*
X18588545Y7531391D01*
X18799578Y7388941D01*
X19049218Y7338878D01*
X19684218Y7338878D01*
X19926341Y7385855D01*
X20137165Y7524345D01*
X20213520Y7447991D01*
X20446909Y7351318D01*
X20604968Y7351318D01*
X20763718Y7510068D01*
X20763718Y8430818D01*
X20743718Y8430818D01*
X20743718Y8684818D01*
X20763718Y8684818D01*
X20763718Y9605568D01*
X20604968Y9764318D01*
X20446909Y9764318D01*
X20213520Y9667645D01*
X20136072Y9590198D01*
X19933858Y9726695D01*
X19912113Y9731056D01*
X20953876Y10772818D01*
X21577578Y10772818D01*
X21577578Y9680818D01*
X21583074Y9652487D01*
X21567916Y9667645D01*
X21334527Y9764318D01*
X21176468Y9764318D01*
X21017718Y9605568D01*
X21017718Y8684818D01*
X21684468Y8684818D01*
X21843218Y8843568D01*
X21843218Y9003009D01*
X21843218Y9172651D01*
X21975378Y9083441D01*
X22225018Y9033378D01*
X22314218Y9033378D01*
X22314218Y9003009D01*
X22314218Y8843568D01*
X22472968Y8684818D01*
X23139718Y8684818D01*
X23139718Y8704818D01*
X23393718Y8704818D01*
X23393718Y8684818D01*
X23413718Y8684818D01*
X23413718Y8430818D01*
X23393718Y8430818D01*
X23393718Y7510068D01*
X23552468Y7351318D01*
X23710527Y7351318D01*
X23943916Y7447991D01*
X24021363Y7525439D01*
X24223578Y7388941D01*
X24473218Y7338878D01*
X24843618Y7338878D01*
X24843618Y7257918D01*
X24901718Y6965832D01*
X24901718Y3184818D01*
X24901718Y3184818D01*
G37*
X24901718Y3184818D02*
X23139718Y3184818D01*
X23139718Y7510068D01*
X23139718Y8430818D01*
X22472968Y8430818D01*
X22314218Y8272068D01*
X22314218Y8112627D01*
X22314218Y7860008D01*
X22410891Y7626619D01*
X22589520Y7447991D01*
X22822909Y7351318D01*
X22980968Y7351318D01*
X23139718Y7510068D01*
X23139718Y3184818D01*
X21843218Y3184818D01*
X21843218Y7860008D01*
X21843218Y8112627D01*
X21843218Y8272068D01*
X21684468Y8430818D01*
X21017718Y8430818D01*
X21017718Y7510068D01*
X21176468Y7351318D01*
X21334527Y7351318D01*
X21567916Y7447991D01*
X21746545Y7626619D01*
X21843218Y7860008D01*
X21843218Y3184818D01*
X21101718Y3184818D01*
X21101718Y-3315500D01*
X7542010Y-3315500D01*
X7542010Y6672793D01*
X7542010Y11172793D01*
X7293620Y11773941D01*
X6834089Y12234276D01*
X6233374Y12483714D01*
X5582931Y12484282D01*
X4981783Y12235892D01*
X4521448Y11776361D01*
X4272010Y11175646D01*
X4271442Y10525203D01*
X4519832Y9924055D01*
X4979363Y9463720D01*
X5580078Y9214282D01*
X6230521Y9213714D01*
X6831669Y9462104D01*
X7292004Y9921635D01*
X7541442Y10522350D01*
X7542010Y11172793D01*
X7542010Y6672793D01*
X7293620Y7273941D01*
X6834089Y7734276D01*
X6233374Y7983714D01*
X5582931Y7984282D01*
X4981783Y7735892D01*
X4521448Y7276361D01*
X4272010Y6675646D01*
X4271442Y6025203D01*
X4519832Y5424055D01*
X4979363Y4963720D01*
X5580078Y4714282D01*
X6230521Y4713714D01*
X6831669Y4962104D01*
X7292004Y5421635D01*
X7541442Y6022350D01*
X7542010Y6672793D01*
X7542010Y-3315500D01*
X1135197Y-3315500D01*
X1135197Y224775D01*
X1042010Y450304D01*
X1042010Y6672793D01*
X1042010Y11172793D01*
X793620Y11773941D01*
X334089Y12234276D01*
X-266626Y12483714D01*
X-917069Y12484282D01*
X-1518217Y12235892D01*
X-1978552Y11776361D01*
X-2227990Y11175646D01*
X-2228558Y10525203D01*
X-1980168Y9924055D01*
X-1520637Y9463720D01*
X-919922Y9214282D01*
X-269479Y9213714D01*
X331669Y9462104D01*
X792004Y9921635D01*
X1041442Y10522350D01*
X1042010Y11172793D01*
X1042010Y6672793D01*
X793620Y7273941D01*
X334089Y7734276D01*
X-266626Y7983714D01*
X-917069Y7984282D01*
X-1518217Y7735892D01*
X-1978552Y7276361D01*
X-2227990Y6675646D01*
X-2228558Y6025203D01*
X-1980168Y5424055D01*
X-1520637Y4963720D01*
X-919922Y4714282D01*
X-269479Y4713714D01*
X331669Y4962104D01*
X792004Y5421635D01*
X1041442Y6022350D01*
X1042010Y6672793D01*
X1042010Y450304D01*
X962767Y642086D01*
X643765Y961645D01*
X226756Y1134803D01*
X-224775Y1135197D01*
X-642086Y962767D01*
X-961645Y643765D01*
X-1134803Y226756D01*
X-1135197Y-224775D01*
X-962767Y-642086D01*
X-643765Y-961645D01*
X-226756Y-1134803D01*
X224775Y-1135197D01*
X642086Y-962767D01*
X961645Y-643765D01*
X1134803Y-226756D01*
X1135197Y224775D01*
X1135197Y-3315500D01*
X-2974457Y-3315500D01*
X-2974457Y620854D01*
X-3450727Y1773515D01*
X-4331847Y2656174D01*
X-5483674Y3134454D01*
X-6730854Y3135543D01*
X-7883515Y2659273D01*
X-8766174Y1778153D01*
X-9244454Y626326D01*
X-9245543Y-620854D01*
X-8769273Y-1773515D01*
X-7888153Y-2656174D01*
X-6736326Y-3134454D01*
X-5489146Y-3135543D01*
X-4336485Y-2659273D01*
X-3453826Y-1778153D01*
X-2975546Y-626326D01*
X-2974457Y620854D01*
X-2974457Y-3315500D01*
X-6042533Y-3315500D01*
X-7373651Y-3050724D01*
X-8444924Y-2334923D01*
X-9160724Y-1263651D01*
X-9425500Y67468D01*
X-9425500Y14098935D01*
X-9253602Y13982901D01*
X-9003962Y13932838D01*
X-6227647Y13932838D01*
X-6204425Y13813155D01*
X-6064635Y13600351D01*
X-5853602Y13457901D01*
X-5603962Y13407838D01*
X-4143962Y13407838D01*
X-3901839Y13454815D01*
X-3689035Y13594605D01*
X-3546585Y13805638D01*
X-3496522Y14055278D01*
X-3496522Y16055278D01*
X-3543499Y16297401D01*
X-3577732Y16349515D01*
X-3556522Y16455278D01*
X-3556522Y16855278D01*
X-3581176Y16982344D01*
X-3556522Y17105278D01*
X-3556522Y17170278D01*
X-2902800Y17170278D01*
X246939Y14020539D01*
X501611Y13850373D01*
X501612Y13850373D01*
X802018Y13790618D01*
X10517518Y13790618D01*
X10817924Y13850373D01*
X10817925Y13850373D01*
X11072597Y14020539D01*
X13001718Y15949660D01*
X13001718Y14030818D01*
X17491560Y14030818D01*
X13798763Y10338022D01*
X13770358Y10357195D01*
X13520718Y10407258D01*
X11996718Y10407258D01*
X11754595Y10360281D01*
X11541791Y10220491D01*
X11399341Y10009458D01*
X11349278Y9759818D01*
X11349278Y8698536D01*
X10973639Y8322897D01*
X10803473Y8068225D01*
X10743718Y7767818D01*
X10743718Y5957818D01*
X10803473Y5657411D01*
X10973639Y5402739D01*
X11620679Y4755699D01*
X11575089Y4710188D01*
X11361961Y4196918D01*
X11361476Y3641157D01*
X11573708Y3127515D01*
X11966348Y2734189D01*
X12479618Y2521061D01*
X13035379Y2520576D01*
X13042754Y2523624D01*
X13363639Y2202739D01*
X13618312Y2032573D01*
X13918718Y1972818D01*
X15828718Y1972818D01*
X16129124Y2032573D01*
X16129125Y2032573D01*
X16383797Y2202739D01*
X17983797Y3802739D01*
X18153963Y4057412D01*
X18213718Y4357818D01*
X18213718Y7772818D01*
X18443201Y7772818D01*
X18448755Y7744195D01*
X18588545Y7531391D01*
X18799578Y7388941D01*
X19049218Y7338878D01*
X19684218Y7338878D01*
X19926341Y7385855D01*
X20137165Y7524345D01*
X20213520Y7447991D01*
X20446909Y7351318D01*
X20604968Y7351318D01*
X20763718Y7510068D01*
X20763718Y8430818D01*
X20743718Y8430818D01*
X20743718Y8684818D01*
X20763718Y8684818D01*
X20763718Y9605568D01*
X20604968Y9764318D01*
X20446909Y9764318D01*
X20213520Y9667645D01*
X20136072Y9590198D01*
X19933858Y9726695D01*
X19912113Y9731056D01*
X20953876Y10772818D01*
X21577578Y10772818D01*
X21577578Y9680818D01*
X21583074Y9652487D01*
X21567916Y9667645D01*
X21334527Y9764318D01*
X21176468Y9764318D01*
X21017718Y9605568D01*
X21017718Y8684818D01*
X21684468Y8684818D01*
X21843218Y8843568D01*
X21843218Y9003009D01*
X21843218Y9172651D01*
X21975378Y9083441D01*
X22225018Y9033378D01*
X22314218Y9033378D01*
X22314218Y9003009D01*
X22314218Y8843568D01*
X22472968Y8684818D01*
X23139718Y8684818D01*
X23139718Y8704818D01*
X23393718Y8704818D01*
X23393718Y8684818D01*
X23413718Y8684818D01*
X23413718Y8430818D01*
X23393718Y8430818D01*
X23393718Y7510068D01*
X23552468Y7351318D01*
X23710527Y7351318D01*
X23943916Y7447991D01*
X24021363Y7525439D01*
X24223578Y7388941D01*
X24473218Y7338878D01*
X24843618Y7338878D01*
X24843618Y7257918D01*
X24901718Y6965832D01*
X24901718Y3184818D01*
G36*
X26193718Y27403686D02*
X24911859Y26121828D01*
X24900681Y26179441D01*
X24760891Y26392245D01*
X24713688Y26424108D01*
X24713888Y26652887D01*
X24564247Y27015047D01*
X24287404Y27292373D01*
X23925506Y27442646D01*
X23533649Y27442988D01*
X23171489Y27293347D01*
X22978624Y27100819D01*
X22787404Y27292373D01*
X22425506Y27442646D01*
X22033649Y27442988D01*
X21671489Y27293347D01*
X21478624Y27100819D01*
X21287404Y27292373D01*
X20925506Y27442646D01*
X20533649Y27442988D01*
X20171489Y27293347D01*
X19894163Y27016504D01*
X19743890Y26654606D01*
X19743689Y26425186D01*
X19702291Y26397991D01*
X19559841Y26186958D01*
X19509778Y25937318D01*
X19509778Y25302318D01*
X19536773Y25163184D01*
X19508220Y25134631D01*
X19508220Y25293378D01*
X19413748Y25293378D01*
X19413888Y25452887D01*
X19378884Y25537604D01*
X19426145Y25607618D01*
X19476208Y25857258D01*
X19476208Y26858018D01*
X19429231Y27100141D01*
X19290549Y27311258D01*
X19359917Y27339991D01*
X19538545Y27518620D01*
X19635218Y27752009D01*
X19635218Y27910068D01*
X19476468Y28068818D01*
X18555718Y28068818D01*
X18555718Y28048818D01*
X18301718Y28048818D01*
X18301718Y28068818D01*
X18143218Y28068818D01*
X18143218Y28184820D01*
X17984470Y28184820D01*
X18122468Y28322818D01*
X18301718Y28322818D01*
X18301718Y28342818D01*
X18555718Y28342818D01*
X18555718Y28322818D01*
X19476468Y28322818D01*
X19635218Y28481568D01*
X19635218Y28639627D01*
X19538545Y28873016D01*
X19461097Y28950464D01*
X19597595Y29152678D01*
X19647658Y29402318D01*
X19647658Y30037318D01*
X19600681Y30279441D01*
X19460891Y30492245D01*
X19413688Y30524108D01*
X19413888Y30752887D01*
X19264247Y31115047D01*
X18987404Y31392373D01*
X18625506Y31542646D01*
X18339526Y31542896D01*
X18413512Y31721073D01*
X18413924Y32192495D01*
X18233898Y32628190D01*
X17900843Y32961827D01*
X17839193Y32987426D01*
X20074586Y35222818D01*
X24282850Y35222818D01*
X26193718Y33311950D01*
X26193718Y27403686D01*
X26193718Y27403686D01*
G37*
X26193718Y27403686D02*
X24911859Y26121828D01*
X24900681Y26179441D01*
X24760891Y26392245D01*
X24713688Y26424108D01*
X24713888Y26652887D01*
X24564247Y27015047D01*
X24287404Y27292373D01*
X23925506Y27442646D01*
X23533649Y27442988D01*
X23171489Y27293347D01*
X22978624Y27100819D01*
X22787404Y27292373D01*
X22425506Y27442646D01*
X22033649Y27442988D01*
X21671489Y27293347D01*
X21478624Y27100819D01*
X21287404Y27292373D01*
X20925506Y27442646D01*
X20533649Y27442988D01*
X20171489Y27293347D01*
X19894163Y27016504D01*
X19743890Y26654606D01*
X19743689Y26425186D01*
X19702291Y26397991D01*
X19559841Y26186958D01*
X19509778Y25937318D01*
X19509778Y25302318D01*
X19536773Y25163184D01*
X19508220Y25134631D01*
X19508220Y25293378D01*
X19413748Y25293378D01*
X19413888Y25452887D01*
X19378884Y25537604D01*
X19426145Y25607618D01*
X19476208Y25857258D01*
X19476208Y26858018D01*
X19429231Y27100141D01*
X19290549Y27311258D01*
X19359917Y27339991D01*
X19538545Y27518620D01*
X19635218Y27752009D01*
X19635218Y27910068D01*
X19476468Y28068818D01*
X18555718Y28068818D01*
X18555718Y28048818D01*
X18301718Y28048818D01*
X18301718Y28068818D01*
X18143218Y28068818D01*
X18143218Y28184820D01*
X17984470Y28184820D01*
X18122468Y28322818D01*
X18301718Y28322818D01*
X18301718Y28342818D01*
X18555718Y28342818D01*
X18555718Y28322818D01*
X19476468Y28322818D01*
X19635218Y28481568D01*
X19635218Y28639627D01*
X19538545Y28873016D01*
X19461097Y28950464D01*
X19597595Y29152678D01*
X19647658Y29402318D01*
X19647658Y30037318D01*
X19600681Y30279441D01*
X19460891Y30492245D01*
X19413688Y30524108D01*
X19413888Y30752887D01*
X19264247Y31115047D01*
X18987404Y31392373D01*
X18625506Y31542646D01*
X18339526Y31542896D01*
X18413512Y31721073D01*
X18413924Y32192495D01*
X18233898Y32628190D01*
X17900843Y32961827D01*
X17839193Y32987426D01*
X20074586Y35222818D01*
X24282850Y35222818D01*
X26193718Y33311950D01*
X26193718Y27403686D01*
G36*
X50976409Y2324831D02*
X50972579Y-3315500D01*
X40555718Y-3315500D01*
X40555718Y3184818D01*
X37355718Y3184818D01*
X37355718Y6322818D01*
X40828718Y6322818D01*
X41148258Y6386379D01*
X41148259Y6386379D01*
X41419152Y6567384D01*
X45919152Y11067384D01*
X46100157Y11338277D01*
X46100157Y11338278D01*
X46163718Y11657818D01*
X46163718Y17457818D01*
X46100157Y17777358D01*
X46100157Y17777359D01*
X45919152Y18048252D01*
X45119152Y18848252D01*
X44969152Y18998252D01*
X44769152Y19198252D01*
X44635124Y19332280D01*
X44705595Y19436678D01*
X44755658Y19686318D01*
X44755658Y20829318D01*
X44708681Y21071441D01*
X44568891Y21284245D01*
X44357858Y21426695D01*
X44108218Y21476758D01*
X43473218Y21476758D01*
X43231095Y21429781D01*
X43020270Y21291292D01*
X42943916Y21367645D01*
X42710527Y21464318D01*
X42552468Y21464318D01*
X42393718Y21305568D01*
X42393718Y20384818D01*
X42413718Y20384818D01*
X42413718Y20130818D01*
X42393718Y20130818D01*
X42393718Y20110818D01*
X42143218Y20110818D01*
X42143218Y20543568D01*
X42143218Y20703009D01*
X42143218Y20955628D01*
X42139718Y20964078D01*
X42139718Y21305568D01*
X41980968Y21464318D01*
X41822909Y21464318D01*
X41728718Y21425303D01*
X41634527Y21464318D01*
X41476468Y21464318D01*
X41317718Y21305568D01*
X41317718Y20964078D01*
X41314218Y20955628D01*
X41314218Y20703009D01*
X41314218Y20543568D01*
X41317718Y20540068D01*
X41317718Y20384818D01*
X41472968Y20384818D01*
X41984468Y20384818D01*
X42139718Y20384818D01*
X42139718Y20540068D01*
X42143218Y20543568D01*
X42143218Y20110818D01*
X42139718Y20110818D01*
X42139718Y20130818D01*
X41984468Y20130818D01*
X41472968Y20130818D01*
X41317718Y20130818D01*
X41317718Y20110818D01*
X41063718Y20110818D01*
X41063718Y20130818D01*
X41043718Y20130818D01*
X41043718Y20384818D01*
X41063718Y20384818D01*
X41063718Y21305568D01*
X40904968Y21464318D01*
X40746909Y21464318D01*
X40513520Y21367645D01*
X40436072Y21290198D01*
X40233858Y21426695D01*
X39984218Y21476758D01*
X39349218Y21476758D01*
X39107095Y21429781D01*
X38894291Y21289991D01*
X38862428Y21242789D01*
X38633649Y21242988D01*
X38271489Y21093347D01*
X37994163Y20816504D01*
X37843890Y20454606D01*
X37843548Y20062749D01*
X37993189Y19700589D01*
X38270032Y19423263D01*
X38631930Y19272990D01*
X38861350Y19272790D01*
X38888545Y19231391D01*
X39099578Y19088941D01*
X39107209Y19087411D01*
X39043718Y18934128D01*
X39043718Y18866568D01*
X39175466Y18734820D01*
X39043718Y18734820D01*
X39043718Y18642893D01*
X38933649Y18642988D01*
X38571489Y18493347D01*
X38294163Y18216504D01*
X38143890Y17854606D01*
X38143548Y17462749D01*
X38293189Y17100589D01*
X38570032Y16823263D01*
X38931930Y16672990D01*
X39043137Y16672893D01*
X39169295Y16588598D01*
X39114218Y16455628D01*
X39114218Y16203009D01*
X39114218Y16043568D01*
X39272968Y15884818D01*
X39939718Y15884818D01*
X39939718Y15904818D01*
X40193718Y15904818D01*
X40193718Y15884818D01*
X40213718Y15884818D01*
X40213718Y15630818D01*
X40193718Y15630818D01*
X40193718Y14710068D01*
X40352468Y14551318D01*
X40510527Y14551318D01*
X40743916Y14647991D01*
X40821363Y14725439D01*
X41023578Y14588941D01*
X41273218Y14538878D01*
X41908218Y14538878D01*
X42014218Y14559445D01*
X42014218Y14403009D01*
X42014218Y14243568D01*
X42172968Y14084818D01*
X42839718Y14084818D01*
X42839718Y14104818D01*
X42893718Y14104818D01*
X42893718Y13810818D01*
X42839718Y13810818D01*
X42839718Y13830818D01*
X42172968Y13830818D01*
X42014218Y13672068D01*
X42014218Y13512627D01*
X42014218Y13260008D01*
X42110891Y13026619D01*
X42289520Y12847991D01*
X42522909Y12751318D01*
X42680968Y12751318D01*
X42839716Y12910066D01*
X42839716Y12751318D01*
X42839718Y12751318D01*
X42893718Y12751318D01*
X42893718Y12403686D01*
X42839718Y12349686D01*
X40782850Y10292818D01*
X39939718Y10292818D01*
X39939718Y14710068D01*
X39939718Y15630818D01*
X39272968Y15630818D01*
X39114218Y15472068D01*
X39114218Y15312627D01*
X39114218Y15060008D01*
X39210891Y14826619D01*
X39389520Y14647991D01*
X39622909Y14551318D01*
X39780968Y14551318D01*
X39939718Y14710068D01*
X39939718Y10292818D01*
X36013573Y10292818D01*
X36013746Y10490451D01*
X36055145Y10517645D01*
X36197595Y10728678D01*
X36247658Y10978318D01*
X36247658Y11613318D01*
X36200681Y11855441D01*
X36062191Y12066266D01*
X36138545Y12142620D01*
X36235218Y12376009D01*
X36235218Y12534068D01*
X36235218Y13105568D01*
X36235218Y13263627D01*
X36138545Y13497016D01*
X35959917Y13675645D01*
X35726528Y13772318D01*
X35473909Y13772318D01*
X35314468Y13772318D01*
X35155718Y13613568D01*
X35155718Y12946818D01*
X36076468Y12946818D01*
X36235218Y13105568D01*
X36235218Y12534068D01*
X36076468Y12692818D01*
X35155718Y12692818D01*
X35155718Y12672818D01*
X34901718Y12672818D01*
X34901718Y12692818D01*
X34881718Y12692818D01*
X34881718Y12946818D01*
X34901718Y12946818D01*
X34901718Y13613568D01*
X34742968Y13772318D01*
X34583527Y13772318D01*
X34330908Y13772318D01*
X34097519Y13675645D01*
X33918891Y13497016D01*
X33822218Y13263627D01*
X33822218Y13105568D01*
X33980966Y12946820D01*
X33822218Y12946820D01*
X33822218Y12860965D01*
X33625506Y12942646D01*
X33233649Y12942988D01*
X33231114Y12941941D01*
X33229218Y12942318D01*
X33178434Y12942318D01*
X33155358Y12957895D01*
X33154310Y12958106D01*
X33307931Y13059018D01*
X33381968Y13059018D01*
X33540718Y13217768D01*
X33540718Y13286928D01*
X33512969Y13353919D01*
X33553158Y13554318D01*
X33553158Y13960718D01*
X33514333Y14160821D01*
X33525045Y14214233D01*
X33553763Y14257212D01*
X33613518Y14557618D01*
X33553763Y14858024D01*
X33526332Y14899077D01*
X33514333Y14960921D01*
X33553158Y15154518D01*
X33553158Y15560918D01*
X33549491Y15579817D01*
X33583797Y15602739D01*
X36083797Y18102739D01*
X36253963Y18357412D01*
X36313718Y18657818D01*
X36313718Y20762658D01*
X37223878Y21672818D01*
X38628718Y21672818D01*
X38929124Y21732573D01*
X38929125Y21732573D01*
X39183797Y21902739D01*
X39453876Y22172818D01*
X46503560Y22172818D01*
X49443721Y19232657D01*
X49443478Y18953533D01*
X49653887Y18444303D01*
X50043154Y18054357D01*
X50275588Y17957842D01*
X50045203Y17862649D01*
X49655257Y17473382D01*
X49443959Y16964520D01*
X49443478Y16413533D01*
X49653887Y15904303D01*
X50043154Y15514357D01*
X50275588Y15417842D01*
X50045203Y15322649D01*
X49655257Y14933382D01*
X49443959Y14424520D01*
X49443600Y14014281D01*
X46324210Y10894890D01*
X46132367Y10607775D01*
X46121189Y10551585D01*
X46064999Y10269100D01*
X46065000Y10269095D01*
X46065000Y8283076D01*
X45923573Y8190173D01*
X45781123Y7979140D01*
X45731060Y7729500D01*
X45731060Y7094500D01*
X45778037Y6852377D01*
X45911805Y6648740D01*
X45781123Y6455140D01*
X45731060Y6205500D01*
X45731060Y5660000D01*
X44512200Y5660000D01*
X44271788Y5759828D01*
X43879931Y5760170D01*
X43517771Y5610529D01*
X43240445Y5333686D01*
X43090172Y4971788D01*
X43089830Y4579931D01*
X43239471Y4217771D01*
X43516314Y3940445D01*
X43878212Y3790172D01*
X44270069Y3789830D01*
X44512499Y3890000D01*
X45781060Y3890000D01*
X45781060Y3494500D01*
X45828037Y3252377D01*
X45888719Y3160000D01*
X44537200Y3160000D01*
X44296788Y3259828D01*
X43904931Y3260170D01*
X43542771Y3110529D01*
X43265445Y2833686D01*
X43115172Y2471788D01*
X43114830Y2079931D01*
X43264471Y1717771D01*
X43541314Y1440445D01*
X43903212Y1290172D01*
X44295069Y1289830D01*
X44537499Y1390000D01*
X46153857Y1390000D01*
X46178860Y1373123D01*
X46428500Y1323060D01*
X47571500Y1323060D01*
X47813623Y1370037D01*
X47844012Y1390000D01*
X49700000Y1390000D01*
X50038675Y1457367D01*
X50325790Y1649210D01*
X50376130Y1724552D01*
X50976409Y2324831D01*
X50976409Y2324831D01*
G37*
X50976409Y2324831D02*
X50972579Y-3315500D01*
X40555718Y-3315500D01*
X40555718Y3184818D01*
X37355718Y3184818D01*
X37355718Y6322818D01*
X40828718Y6322818D01*
X41148258Y6386379D01*
X41148259Y6386379D01*
X41419152Y6567384D01*
X45919152Y11067384D01*
X46100157Y11338277D01*
X46100157Y11338278D01*
X46163718Y11657818D01*
X46163718Y17457818D01*
X46100157Y17777358D01*
X46100157Y17777359D01*
X45919152Y18048252D01*
X45119152Y18848252D01*
X44969152Y18998252D01*
X44769152Y19198252D01*
X44635124Y19332280D01*
X44705595Y19436678D01*
X44755658Y19686318D01*
X44755658Y20829318D01*
X44708681Y21071441D01*
X44568891Y21284245D01*
X44357858Y21426695D01*
X44108218Y21476758D01*
X43473218Y21476758D01*
X43231095Y21429781D01*
X43020270Y21291292D01*
X42943916Y21367645D01*
X42710527Y21464318D01*
X42552468Y21464318D01*
X42393718Y21305568D01*
X42393718Y20384818D01*
X42413718Y20384818D01*
X42413718Y20130818D01*
X42393718Y20130818D01*
X42393718Y20110818D01*
X42143218Y20110818D01*
X42143218Y20543568D01*
X42143218Y20703009D01*
X42143218Y20955628D01*
X42139718Y20964078D01*
X42139718Y21305568D01*
X41980968Y21464318D01*
X41822909Y21464318D01*
X41728718Y21425303D01*
X41634527Y21464318D01*
X41476468Y21464318D01*
X41317718Y21305568D01*
X41317718Y20964078D01*
X41314218Y20955628D01*
X41314218Y20703009D01*
X41314218Y20543568D01*
X41317718Y20540068D01*
X41317718Y20384818D01*
X41472968Y20384818D01*
X41984468Y20384818D01*
X42139718Y20384818D01*
X42139718Y20540068D01*
X42143218Y20543568D01*
X42143218Y20110818D01*
X42139718Y20110818D01*
X42139718Y20130818D01*
X41984468Y20130818D01*
X41472968Y20130818D01*
X41317718Y20130818D01*
X41317718Y20110818D01*
X41063718Y20110818D01*
X41063718Y20130818D01*
X41043718Y20130818D01*
X41043718Y20384818D01*
X41063718Y20384818D01*
X41063718Y21305568D01*
X40904968Y21464318D01*
X40746909Y21464318D01*
X40513520Y21367645D01*
X40436072Y21290198D01*
X40233858Y21426695D01*
X39984218Y21476758D01*
X39349218Y21476758D01*
X39107095Y21429781D01*
X38894291Y21289991D01*
X38862428Y21242789D01*
X38633649Y21242988D01*
X38271489Y21093347D01*
X37994163Y20816504D01*
X37843890Y20454606D01*
X37843548Y20062749D01*
X37993189Y19700589D01*
X38270032Y19423263D01*
X38631930Y19272990D01*
X38861350Y19272790D01*
X38888545Y19231391D01*
X39099578Y19088941D01*
X39107209Y19087411D01*
X39043718Y18934128D01*
X39043718Y18866568D01*
X39175466Y18734820D01*
X39043718Y18734820D01*
X39043718Y18642893D01*
X38933649Y18642988D01*
X38571489Y18493347D01*
X38294163Y18216504D01*
X38143890Y17854606D01*
X38143548Y17462749D01*
X38293189Y17100589D01*
X38570032Y16823263D01*
X38931930Y16672990D01*
X39043137Y16672893D01*
X39169295Y16588598D01*
X39114218Y16455628D01*
X39114218Y16203009D01*
X39114218Y16043568D01*
X39272968Y15884818D01*
X39939718Y15884818D01*
X39939718Y15904818D01*
X40193718Y15904818D01*
X40193718Y15884818D01*
X40213718Y15884818D01*
X40213718Y15630818D01*
X40193718Y15630818D01*
X40193718Y14710068D01*
X40352468Y14551318D01*
X40510527Y14551318D01*
X40743916Y14647991D01*
X40821363Y14725439D01*
X41023578Y14588941D01*
X41273218Y14538878D01*
X41908218Y14538878D01*
X42014218Y14559445D01*
X42014218Y14403009D01*
X42014218Y14243568D01*
X42172968Y14084818D01*
X42839718Y14084818D01*
X42839718Y14104818D01*
X42893718Y14104818D01*
X42893718Y13810818D01*
X42839718Y13810818D01*
X42839718Y13830818D01*
X42172968Y13830818D01*
X42014218Y13672068D01*
X42014218Y13512627D01*
X42014218Y13260008D01*
X42110891Y13026619D01*
X42289520Y12847991D01*
X42522909Y12751318D01*
X42680968Y12751318D01*
X42839716Y12910066D01*
X42839716Y12751318D01*
X42839718Y12751318D01*
X42893718Y12751318D01*
X42893718Y12403686D01*
X42839718Y12349686D01*
X40782850Y10292818D01*
X39939718Y10292818D01*
X39939718Y14710068D01*
X39939718Y15630818D01*
X39272968Y15630818D01*
X39114218Y15472068D01*
X39114218Y15312627D01*
X39114218Y15060008D01*
X39210891Y14826619D01*
X39389520Y14647991D01*
X39622909Y14551318D01*
X39780968Y14551318D01*
X39939718Y14710068D01*
X39939718Y10292818D01*
X36013573Y10292818D01*
X36013746Y10490451D01*
X36055145Y10517645D01*
X36197595Y10728678D01*
X36247658Y10978318D01*
X36247658Y11613318D01*
X36200681Y11855441D01*
X36062191Y12066266D01*
X36138545Y12142620D01*
X36235218Y12376009D01*
X36235218Y12534068D01*
X36235218Y13105568D01*
X36235218Y13263627D01*
X36138545Y13497016D01*
X35959917Y13675645D01*
X35726528Y13772318D01*
X35473909Y13772318D01*
X35314468Y13772318D01*
X35155718Y13613568D01*
X35155718Y12946818D01*
X36076468Y12946818D01*
X36235218Y13105568D01*
X36235218Y12534068D01*
X36076468Y12692818D01*
X35155718Y12692818D01*
X35155718Y12672818D01*
X34901718Y12672818D01*
X34901718Y12692818D01*
X34881718Y12692818D01*
X34881718Y12946818D01*
X34901718Y12946818D01*
X34901718Y13613568D01*
X34742968Y13772318D01*
X34583527Y13772318D01*
X34330908Y13772318D01*
X34097519Y13675645D01*
X33918891Y13497016D01*
X33822218Y13263627D01*
X33822218Y13105568D01*
X33980966Y12946820D01*
X33822218Y12946820D01*
X33822218Y12860965D01*
X33625506Y12942646D01*
X33233649Y12942988D01*
X33231114Y12941941D01*
X33229218Y12942318D01*
X33178434Y12942318D01*
X33155358Y12957895D01*
X33154310Y12958106D01*
X33307931Y13059018D01*
X33381968Y13059018D01*
X33540718Y13217768D01*
X33540718Y13286928D01*
X33512969Y13353919D01*
X33553158Y13554318D01*
X33553158Y13960718D01*
X33514333Y14160821D01*
X33525045Y14214233D01*
X33553763Y14257212D01*
X33613518Y14557618D01*
X33553763Y14858024D01*
X33526332Y14899077D01*
X33514333Y14960921D01*
X33553158Y15154518D01*
X33553158Y15560918D01*
X33549491Y15579817D01*
X33583797Y15602739D01*
X36083797Y18102739D01*
X36253963Y18357412D01*
X36313718Y18657818D01*
X36313718Y20762658D01*
X37223878Y21672818D01*
X38628718Y21672818D01*
X38929124Y21732573D01*
X38929125Y21732573D01*
X39183797Y21902739D01*
X39453876Y22172818D01*
X46503560Y22172818D01*
X49443721Y19232657D01*
X49443478Y18953533D01*
X49653887Y18444303D01*
X50043154Y18054357D01*
X50275588Y17957842D01*
X50045203Y17862649D01*
X49655257Y17473382D01*
X49443959Y16964520D01*
X49443478Y16413533D01*
X49653887Y15904303D01*
X50043154Y15514357D01*
X50275588Y15417842D01*
X50045203Y15322649D01*
X49655257Y14933382D01*
X49443959Y14424520D01*
X49443600Y14014281D01*
X46324210Y10894890D01*
X46132367Y10607775D01*
X46121189Y10551585D01*
X46064999Y10269100D01*
X46065000Y10269095D01*
X46065000Y8283076D01*
X45923573Y8190173D01*
X45781123Y7979140D01*
X45731060Y7729500D01*
X45731060Y7094500D01*
X45778037Y6852377D01*
X45911805Y6648740D01*
X45781123Y6455140D01*
X45731060Y6205500D01*
X45731060Y5660000D01*
X44512200Y5660000D01*
X44271788Y5759828D01*
X43879931Y5760170D01*
X43517771Y5610529D01*
X43240445Y5333686D01*
X43090172Y4971788D01*
X43089830Y4579931D01*
X43239471Y4217771D01*
X43516314Y3940445D01*
X43878212Y3790172D01*
X44270069Y3789830D01*
X44512499Y3890000D01*
X45781060Y3890000D01*
X45781060Y3494500D01*
X45828037Y3252377D01*
X45888719Y3160000D01*
X44537200Y3160000D01*
X44296788Y3259828D01*
X43904931Y3260170D01*
X43542771Y3110529D01*
X43265445Y2833686D01*
X43115172Y2471788D01*
X43114830Y2079931D01*
X43264471Y1717771D01*
X43541314Y1440445D01*
X43903212Y1290172D01*
X44295069Y1289830D01*
X44537499Y1390000D01*
X46153857Y1390000D01*
X46178860Y1373123D01*
X46428500Y1323060D01*
X47571500Y1323060D01*
X47813623Y1370037D01*
X47844012Y1390000D01*
X49700000Y1390000D01*
X50038675Y1457367D01*
X50325790Y1649210D01*
X50376130Y1724552D01*
X50976409Y2324831D01*
G36*
X70185365Y22079876D02*
X70005760Y21900271D01*
X69991618Y21914413D01*
X69977475Y21900271D01*
X69797870Y22079876D01*
X69812013Y22094018D01*
X69797870Y22108161D01*
X69977475Y22287766D01*
X69991618Y22273623D01*
X70005760Y22287766D01*
X70185365Y22108161D01*
X70171223Y22094018D01*
X70185365Y22079876D01*
X70185365Y22079876D01*
G37*
X70185365Y22079876D02*
X70005760Y21900271D01*
X69991618Y21914413D01*
X69977475Y21900271D01*
X69797870Y22079876D01*
X69812013Y22094018D01*
X69797870Y22108161D01*
X69977475Y22287766D01*
X69991618Y22273623D01*
X70005760Y22287766D01*
X70185365Y22108161D01*
X70171223Y22094018D01*
X70185365Y22079876D01*
G36*
X83082900Y13175437D02*
X82720745Y13325817D01*
X82030519Y13326419D01*
X81392603Y13062837D01*
X80904114Y12575200D01*
X80842209Y12426118D01*
X78561000Y12426118D01*
X78561000Y18727250D01*
X78561000Y19648000D01*
X78561000Y19902000D01*
X78561000Y20822750D01*
X78402250Y20981500D01*
X78244191Y20981500D01*
X78010802Y20884827D01*
X77832173Y20706199D01*
X77735500Y20472810D01*
X77735500Y20220191D01*
X77735500Y20060750D01*
X77894250Y19902000D01*
X78561000Y19902000D01*
X78561000Y19648000D01*
X77894250Y19648000D01*
X77735500Y19489250D01*
X77735500Y19329809D01*
X77735500Y19077190D01*
X77832173Y18843801D01*
X78010802Y18665173D01*
X78244191Y18568500D01*
X78402250Y18568500D01*
X78561000Y18727250D01*
X78561000Y12426118D01*
X77118309Y12426118D01*
X77118309Y24653827D01*
X77118309Y28153827D01*
X76854727Y28791743D01*
X76367090Y29280232D01*
X75729635Y29544927D01*
X75039409Y29545529D01*
X74401493Y29281947D01*
X73913004Y28794310D01*
X73648309Y28156855D01*
X73647707Y27466629D01*
X73911289Y26828713D01*
X74398926Y26340224D01*
X75036381Y26075529D01*
X75726607Y26074927D01*
X76364523Y26338509D01*
X76853012Y26826146D01*
X77117707Y27463601D01*
X77118309Y28153827D01*
X77118309Y24653827D01*
X76854727Y25291743D01*
X76367090Y25780232D01*
X75729635Y26044927D01*
X75039409Y26045529D01*
X74401493Y25781947D01*
X73913004Y25294310D01*
X73648309Y24656855D01*
X73647707Y23966629D01*
X73911289Y23328713D01*
X74398926Y22840224D01*
X75036381Y22575529D01*
X75726607Y22574927D01*
X76364523Y22838509D01*
X76853012Y23326146D01*
X77117707Y23963601D01*
X77118309Y24653827D01*
X77118309Y12426118D01*
X77109419Y12426118D01*
X77109419Y15434717D01*
X76845837Y16072633D01*
X76358200Y16561122D01*
X75720745Y16825817D01*
X75030519Y16826419D01*
X74392603Y16562837D01*
X73904114Y16075200D01*
X73639419Y15437745D01*
X73638817Y14747519D01*
X73902399Y14109603D01*
X74390036Y13621114D01*
X75027491Y13356419D01*
X75717717Y13355817D01*
X76355633Y13619399D01*
X76844122Y14107036D01*
X77108817Y14744491D01*
X77109419Y15434717D01*
X77109419Y12426118D01*
X76906375Y12426118D01*
X76845837Y12572633D01*
X76358200Y13061122D01*
X75720745Y13325817D01*
X75030519Y13326419D01*
X74392603Y13062837D01*
X73904114Y12575200D01*
X73825135Y12385000D01*
X58943218Y12385000D01*
X58943218Y17160008D01*
X58943218Y17412627D01*
X58943218Y17572068D01*
X58784468Y17730818D01*
X58117718Y17730818D01*
X58117718Y16810068D01*
X58276468Y16651318D01*
X58434527Y16651318D01*
X58667916Y16747991D01*
X58846545Y16926619D01*
X58943218Y17160008D01*
X58943218Y12385000D01*
X53075005Y12385000D01*
X53075000Y12385001D01*
X52736326Y12317634D01*
X52641054Y12253976D01*
X52449210Y12125790D01*
X52449207Y12125787D01*
X52225919Y11902499D01*
X48649210Y8325790D01*
X48457367Y8038675D01*
X48446189Y7982485D01*
X48389999Y7700000D01*
X48390000Y7699995D01*
X48390000Y6066580D01*
X48168940Y5845520D01*
X48168940Y6205500D01*
X48121963Y6447623D01*
X47988194Y6651261D01*
X48118877Y6844860D01*
X48168940Y7094500D01*
X48168940Y7729500D01*
X48121963Y7971623D01*
X47982173Y8184427D01*
X47835000Y8283771D01*
X47835000Y9902521D01*
X50695413Y12762934D01*
X51103003Y12762578D01*
X51612233Y12972987D01*
X52002179Y13362254D01*
X52213477Y13871116D01*
X52213958Y14422103D01*
X52003549Y14931333D01*
X51614282Y15321279D01*
X51381847Y15417795D01*
X51612233Y15512987D01*
X52002179Y15902254D01*
X52213477Y16411116D01*
X52213958Y16962103D01*
X52003549Y17471333D01*
X51614282Y17861279D01*
X51381847Y17957795D01*
X51612233Y18052987D01*
X52002179Y18442254D01*
X52213477Y18951116D01*
X52213958Y19502103D01*
X52003549Y20011333D01*
X51614282Y20401279D01*
X51397739Y20491196D01*
X51552641Y20555358D01*
X51620630Y20796301D01*
X50828718Y21588213D01*
X50814575Y21574071D01*
X50634970Y21753676D01*
X50649113Y21767818D01*
X50634970Y21781961D01*
X50814575Y21961566D01*
X50828718Y21947423D01*
X50842860Y21961566D01*
X51022465Y21781961D01*
X51008323Y21767818D01*
X51800235Y20975906D01*
X52041178Y21043895D01*
X52225919Y21562989D01*
X52197948Y22113266D01*
X52041178Y22491741D01*
X51800237Y22559730D01*
X51913326Y22672818D01*
X54766373Y22672818D01*
X54890043Y22590185D01*
X55228718Y22522817D01*
X55567392Y22590185D01*
X55616230Y22622818D01*
X56489822Y22622818D01*
X56550052Y22562483D01*
X56911950Y22412210D01*
X57303807Y22411868D01*
X57665967Y22561509D01*
X57943293Y22838352D01*
X58093566Y23200250D01*
X58093908Y23592107D01*
X57944267Y23954267D01*
X57667424Y24231593D01*
X57305526Y24381866D01*
X56913669Y24382208D01*
X56551509Y24232567D01*
X56511690Y24192818D01*
X56008340Y24192818D01*
X56076393Y24260752D01*
X56226666Y24622650D01*
X56227008Y25014507D01*
X56085043Y25358088D01*
X56205595Y25536678D01*
X56255658Y25786318D01*
X56255658Y26929318D01*
X56220452Y27110768D01*
X56255658Y27286318D01*
X56255658Y28305853D01*
X56313520Y28247991D01*
X56546909Y28151318D01*
X56704968Y28151318D01*
X56863718Y28310068D01*
X56863718Y29230818D01*
X56843718Y29230818D01*
X56843718Y29484818D01*
X56863718Y29484818D01*
X56863718Y30405568D01*
X56704968Y30564318D01*
X56546909Y30564318D01*
X56313520Y30467645D01*
X56251718Y30405844D01*
X56251718Y30959940D01*
X56527116Y31235338D01*
X65122400Y31235338D01*
X65373758Y30983980D01*
X65373758Y26104195D01*
X65218288Y26168751D01*
X64607627Y26169283D01*
X64043247Y25936086D01*
X63855658Y25748826D01*
X63855658Y28786318D01*
X63855658Y29929318D01*
X63808681Y30171441D01*
X63668891Y30384245D01*
X63457858Y30526695D01*
X63208218Y30576758D01*
X62573218Y30576758D01*
X62331095Y30529781D01*
X62120270Y30391292D01*
X62043916Y30467645D01*
X61810527Y30564318D01*
X61652468Y30564318D01*
X61493718Y30405568D01*
X61493718Y29484818D01*
X61513718Y29484818D01*
X61513718Y29230818D01*
X61493718Y29230818D01*
X61493718Y29210818D01*
X61243218Y29210818D01*
X61243218Y29643568D01*
X61243218Y29803009D01*
X61243218Y30055628D01*
X61239718Y30064078D01*
X61239718Y30405568D01*
X61080968Y30564318D01*
X60922909Y30564318D01*
X60828718Y30525303D01*
X60734527Y30564318D01*
X60576468Y30564318D01*
X60417718Y30405568D01*
X60417718Y30064078D01*
X60414218Y30055628D01*
X60414218Y29803009D01*
X60414218Y29643568D01*
X60417718Y29640068D01*
X60417718Y29484818D01*
X60572968Y29484818D01*
X61084468Y29484818D01*
X61239718Y29484818D01*
X61239718Y29640068D01*
X61243218Y29643568D01*
X61243218Y29210818D01*
X61239718Y29210818D01*
X61239718Y29230818D01*
X61084468Y29230818D01*
X60572968Y29230818D01*
X60417718Y29230818D01*
X60417718Y29210818D01*
X60163718Y29210818D01*
X60163718Y29230818D01*
X60143718Y29230818D01*
X60143718Y29484818D01*
X60163718Y29484818D01*
X60163718Y30405568D01*
X60004968Y30564318D01*
X59846909Y30564318D01*
X59613520Y30467645D01*
X59536072Y30390198D01*
X59333858Y30526695D01*
X59084218Y30576758D01*
X58449218Y30576758D01*
X58207095Y30529781D01*
X57994291Y30389991D01*
X57962428Y30342789D01*
X57792625Y30342937D01*
X57667916Y30467645D01*
X57434527Y30564318D01*
X57276468Y30564318D01*
X57117718Y30405568D01*
X57117718Y29940018D01*
X57094163Y29916504D01*
X56943890Y29554606D01*
X56943548Y29162749D01*
X57093189Y28800589D01*
X57117718Y28776018D01*
X57117718Y28310068D01*
X57143718Y28284068D01*
X57143718Y27928838D01*
X57203473Y27628431D01*
X57373639Y27373759D01*
X57638239Y27109159D01*
X57892912Y26938993D01*
X58193318Y26879238D01*
X62567198Y26879238D01*
X62867604Y26938993D01*
X62867605Y26938993D01*
X63122277Y27109159D01*
X63445797Y27432679D01*
X63615963Y27687351D01*
X63615963Y27687352D01*
X63675718Y27987758D01*
X63675718Y28344272D01*
X63805595Y28536678D01*
X63855658Y28786318D01*
X63855658Y25748826D01*
X63641295Y25534837D01*
X63242261Y25934569D01*
X62678288Y26168751D01*
X62067627Y26169283D01*
X61503247Y25936086D01*
X61071067Y25504661D01*
X61035504Y25419018D01*
X60733318Y25419018D01*
X60432912Y25359263D01*
X60178239Y25189097D01*
X60178236Y25189094D01*
X59670239Y24681097D01*
X59500073Y24426425D01*
X59440318Y24126018D01*
X59440318Y20439367D01*
X59387404Y20492373D01*
X59025506Y20642646D01*
X58796085Y20642847D01*
X58768891Y20684245D01*
X58557858Y20826695D01*
X58308218Y20876758D01*
X57673218Y20876758D01*
X57431095Y20829781D01*
X57220270Y20691292D01*
X57143916Y20767645D01*
X56910527Y20864318D01*
X56752468Y20864318D01*
X56593718Y20705568D01*
X56593718Y19784818D01*
X56613718Y19784818D01*
X56613718Y19530818D01*
X56593718Y19530818D01*
X56593718Y19510818D01*
X56339718Y19510818D01*
X56339718Y19530818D01*
X56339718Y19784818D01*
X56339718Y20705568D01*
X56180968Y20864318D01*
X56022909Y20864318D01*
X55789520Y20767645D01*
X55610891Y20589017D01*
X55514218Y20355628D01*
X55514218Y20103009D01*
X55514218Y19943568D01*
X55672968Y19784818D01*
X56339718Y19784818D01*
X56339718Y19530818D01*
X55672968Y19530818D01*
X55514218Y19372068D01*
X55514218Y19212627D01*
X55514218Y18960008D01*
X55582889Y18794221D01*
X55559276Y18804026D01*
X55167419Y18804368D01*
X54805259Y18654727D01*
X54527933Y18377884D01*
X54377660Y18015986D01*
X54377318Y17624129D01*
X54526959Y17261969D01*
X54803802Y16984643D01*
X55165700Y16834370D01*
X55557557Y16834028D01*
X55659219Y16876034D01*
X55688545Y16831391D01*
X55899578Y16688941D01*
X56149218Y16638878D01*
X56784218Y16638878D01*
X57026341Y16685855D01*
X57237165Y16824345D01*
X57313520Y16747991D01*
X57546909Y16651318D01*
X57704968Y16651318D01*
X57863718Y16810068D01*
X57863718Y17730818D01*
X57843718Y17730818D01*
X57843718Y17984818D01*
X57863718Y17984818D01*
X57863718Y18004818D01*
X58117718Y18004818D01*
X58117718Y17984818D01*
X58784468Y17984818D01*
X58943218Y18143568D01*
X58943218Y18303009D01*
X58943218Y18555628D01*
X58894700Y18672761D01*
X59023787Y18672648D01*
X59385947Y18822289D01*
X59617111Y19053051D01*
X59670239Y18973539D01*
X60762439Y17881339D01*
X61017111Y17711173D01*
X61017112Y17711173D01*
X61317518Y17651418D01*
X71172718Y17651418D01*
X71473124Y17711173D01*
X71473125Y17711173D01*
X71727797Y17881339D01*
X73175597Y19329139D01*
X73345762Y19583811D01*
X73345763Y19583812D01*
X73405518Y19884218D01*
X73405518Y34209818D01*
X73345763Y34510224D01*
X73345763Y34510225D01*
X73175597Y34764897D01*
X71803997Y36136497D01*
X71549325Y36306663D01*
X71248918Y36366418D01*
X52173518Y36366418D01*
X51873112Y36306663D01*
X51618439Y36136497D01*
X43124760Y27642818D01*
X43054918Y27642818D01*
X39228718Y27642818D01*
X38928311Y27583063D01*
X38673639Y27412897D01*
X37403668Y26142927D01*
X37333649Y26142988D01*
X36971489Y25993347D01*
X36694163Y25716504D01*
X36543890Y25354606D01*
X36543792Y25242818D01*
X35928723Y25242818D01*
X35928718Y25242819D01*
X35628312Y25183063D01*
X35373639Y25012897D01*
X33503199Y23142458D01*
X33500681Y23155441D01*
X33362191Y23366266D01*
X33438545Y23442620D01*
X33535218Y23676009D01*
X33535218Y23834068D01*
X33535218Y24405568D01*
X33535218Y24563627D01*
X33438545Y24797016D01*
X33259917Y24975645D01*
X33026528Y25072318D01*
X32773909Y25072318D01*
X32614468Y25072318D01*
X32455718Y24913568D01*
X32455718Y24246818D01*
X33376468Y24246818D01*
X33535218Y24405568D01*
X33535218Y23834068D01*
X33376468Y23992818D01*
X32455718Y23992818D01*
X32455718Y23972818D01*
X32201718Y23972818D01*
X32201718Y23992818D01*
X32201718Y24246818D01*
X32201718Y24913568D01*
X32042968Y25072318D01*
X31883527Y25072318D01*
X31630908Y25072318D01*
X31598872Y25059049D01*
X31647658Y25302318D01*
X31647658Y25937318D01*
X31600681Y26179441D01*
X31460891Y26392245D01*
X31413688Y26424108D01*
X31413888Y26652887D01*
X31264247Y27015047D01*
X30987404Y27292373D01*
X30625506Y27442646D01*
X30233649Y27442988D01*
X29871489Y27293347D01*
X29594163Y27016504D01*
X29443890Y26654606D01*
X29443689Y26425186D01*
X29402291Y26397991D01*
X29259841Y26186958D01*
X29209778Y25937318D01*
X29209778Y25302318D01*
X29256755Y25060195D01*
X29395244Y24849371D01*
X29318891Y24773016D01*
X29222218Y24539627D01*
X29222218Y24381568D01*
X29380968Y24222818D01*
X30301718Y24222818D01*
X30301718Y24242818D01*
X30555718Y24242818D01*
X30555718Y24222818D01*
X31476468Y24222818D01*
X31500468Y24246818D01*
X32201718Y24246818D01*
X32201718Y23992818D01*
X31280968Y23992818D01*
X31256968Y23968818D01*
X30555718Y23968818D01*
X30555718Y23302068D01*
X30638768Y23219018D01*
X30530818Y23111068D01*
X30530818Y21999818D01*
X30576218Y21999818D01*
X30576218Y21745818D01*
X30530818Y21745818D01*
X30530818Y20634568D01*
X30689568Y20475818D01*
X30757199Y20475818D01*
X30734278Y20361518D01*
X30734278Y19955118D01*
X30773102Y19755016D01*
X30734278Y19561418D01*
X30734278Y19155018D01*
X30773102Y18954916D01*
X30734278Y18761318D01*
X30734278Y18354918D01*
X30773102Y18154816D01*
X30734278Y17961218D01*
X30734278Y17554818D01*
X30773102Y17354716D01*
X30734278Y17161118D01*
X30734278Y16754718D01*
X30773102Y16554616D01*
X30734278Y16361018D01*
X30734278Y15954618D01*
X30773102Y15754516D01*
X30734278Y15560918D01*
X30734278Y15154518D01*
X30773102Y14954416D01*
X30734278Y14760818D01*
X30734278Y14716726D01*
X30072318Y15378686D01*
X30072318Y17435446D01*
X30206906Y17759570D01*
X30207248Y18151427D01*
X30057607Y18513587D01*
X29780764Y18790913D01*
X29418866Y18941186D01*
X29027009Y18941528D01*
X28664849Y18791887D01*
X28387523Y18515044D01*
X28237250Y18153146D01*
X28236908Y17761289D01*
X28386549Y17399129D01*
X28402318Y17383333D01*
X28402318Y15032818D01*
X28465879Y14713277D01*
X28646884Y14442384D01*
X29922184Y13167084D01*
X30182990Y12992818D01*
X27728718Y12992818D01*
X27409177Y12929257D01*
X27138284Y12748252D01*
X26638384Y12248352D01*
X26457379Y11977459D01*
X26432474Y11852258D01*
X26225518Y11852258D01*
X26025415Y11813434D01*
X25913785Y11835821D01*
X25913888Y11952887D01*
X25764247Y12315047D01*
X25487404Y12592373D01*
X25125506Y12742646D01*
X24733649Y12742988D01*
X24371489Y12593347D01*
X24094163Y12316504D01*
X24013599Y12122486D01*
X24013888Y12452887D01*
X23908478Y12707999D01*
X24013546Y12961030D01*
X24013888Y13352887D01*
X23887767Y13658123D01*
X24013546Y13961030D01*
X24013888Y14352887D01*
X23864247Y14715047D01*
X23587404Y14992373D01*
X23225506Y15142646D01*
X22833649Y15142988D01*
X22471489Y14993347D01*
X22194163Y14716504D01*
X22123158Y14545505D01*
X22123158Y14760818D01*
X22093700Y14912643D01*
X22783797Y15602739D01*
X22953963Y15857411D01*
X22953963Y15857412D01*
X23013718Y16157818D01*
X23013718Y18657818D01*
X22953963Y18958224D01*
X22953963Y18958225D01*
X22783797Y19212897D01*
X22109530Y19887164D01*
X22123158Y19955118D01*
X22123158Y20361518D01*
X22100981Y20475818D01*
X22167868Y20475818D01*
X22243712Y20551663D01*
X22243548Y20362749D01*
X22393189Y20000589D01*
X22670032Y19723263D01*
X23031930Y19572990D01*
X23423787Y19572648D01*
X23785947Y19722289D01*
X23911125Y19847250D01*
X23890172Y19796788D01*
X23889830Y19404931D01*
X24039471Y19042771D01*
X24316314Y18765445D01*
X24678212Y18615172D01*
X25070069Y18614830D01*
X25432229Y18764471D01*
X25709555Y19041314D01*
X25769789Y19186375D01*
X25824593Y19149756D01*
X25824594Y19149755D01*
X26125000Y19090000D01*
X26342385Y19090000D01*
X26703212Y18940172D01*
X27095069Y18939830D01*
X27457229Y19089471D01*
X27734555Y19366314D01*
X27884828Y19728212D01*
X27885170Y20120069D01*
X27735873Y20481396D01*
X27825718Y20463378D01*
X28232118Y20463378D01*
X28243812Y20465647D01*
X28243548Y20162749D01*
X28393189Y19800589D01*
X28670032Y19523263D01*
X29031930Y19372990D01*
X29423787Y19372648D01*
X29785947Y19522289D01*
X30063273Y19799132D01*
X30213546Y20161030D01*
X30213621Y20247176D01*
X30354363Y20457811D01*
X30354363Y20457812D01*
X30414118Y20758218D01*
X30414118Y20838102D01*
X30429695Y20861178D01*
X30479758Y21110818D01*
X30479758Y22634818D01*
X30432781Y22876941D01*
X30327618Y23037032D01*
X30327618Y23111068D01*
X30219168Y23219518D01*
X30301718Y23302068D01*
X30301718Y23968818D01*
X29380968Y23968818D01*
X29222218Y23810068D01*
X29222218Y23652009D01*
X29318891Y23418620D01*
X29455252Y23282258D01*
X29425918Y23282258D01*
X29225815Y23243434D01*
X29032218Y23282258D01*
X28625818Y23282258D01*
X28425715Y23243434D01*
X28232118Y23282258D01*
X27825718Y23282258D01*
X27625615Y23243434D01*
X27509660Y23266688D01*
X27653327Y23326049D01*
X27930653Y23602892D01*
X28080926Y23964790D01*
X28081268Y24356647D01*
X27931627Y24718807D01*
X27654784Y24996133D01*
X27292886Y25146406D01*
X26901029Y25146748D01*
X26538869Y24997107D01*
X26422377Y24880818D01*
X26032586Y24880818D01*
X27619152Y26467384D01*
X27800157Y26738277D01*
X27800158Y26738278D01*
X27863718Y27057818D01*
X27863718Y27357818D01*
X27863718Y33657818D01*
X27800158Y33977358D01*
X27800157Y33977359D01*
X27619152Y34248252D01*
X25219152Y36648252D01*
X24948259Y36829257D01*
X24628718Y36892818D01*
X19728718Y36892818D01*
X19409178Y36829258D01*
X19138284Y36648252D01*
X15590114Y33100083D01*
X15278233Y32971216D01*
X14865463Y33142612D01*
X14394041Y33143024D01*
X13958346Y32962998D01*
X13624709Y32629943D01*
X13443924Y32194563D01*
X13443512Y31723141D01*
X13623538Y31287446D01*
X13956593Y30953809D01*
X14391973Y30773024D01*
X14863395Y30772612D01*
X15093718Y30867780D01*
X15093718Y30720994D01*
X14894291Y30589991D01*
X14751841Y30378958D01*
X14701778Y30129318D01*
X14701778Y28986318D01*
X14736983Y28804869D01*
X14701778Y28629318D01*
X14701778Y27486318D01*
X14702033Y27485000D01*
X12689893Y27485000D01*
X12882229Y27564471D01*
X13159555Y27841314D01*
X13309828Y28203212D01*
X13310170Y28595069D01*
X13244609Y28753738D01*
X13244609Y28753739D01*
X13242633Y28763674D01*
X13242633Y28763675D01*
X13237054Y28772024D01*
X13237053Y28772026D01*
X13160529Y28957229D01*
X12883686Y29234555D01*
X12521788Y29384828D01*
X12129931Y29385170D01*
X11948005Y29310000D01*
X11776846Y29310000D01*
X11822000Y29537000D01*
X11822000Y29684599D01*
X11851877Y29728860D01*
X11901940Y29978500D01*
X11901940Y31121500D01*
X11854963Y31363623D01*
X11822000Y31413803D01*
X11822000Y31484599D01*
X11851877Y31528860D01*
X11901940Y31778500D01*
X11901940Y32921500D01*
X11854963Y33163623D01*
X11715173Y33376427D01*
X11504140Y33518877D01*
X11254500Y33568940D01*
X10619500Y33568940D01*
X10377377Y33521963D01*
X10173739Y33388195D01*
X9980140Y33518877D01*
X9730500Y33568940D01*
X9095500Y33568940D01*
X8853377Y33521963D01*
X8640573Y33382173D01*
X8498123Y33171140D01*
X8490875Y33135000D01*
X7137200Y33135000D01*
X6896788Y33234828D01*
X6504931Y33235170D01*
X6142771Y33085529D01*
X5865445Y32808686D01*
X5715172Y32446788D01*
X5714830Y32054931D01*
X5864471Y31692771D01*
X6141314Y31415445D01*
X6503212Y31265172D01*
X6895069Y31264830D01*
X7137499Y31365000D01*
X8496891Y31365000D01*
X8448060Y31121500D01*
X8448060Y30502525D01*
X8439999Y30462000D01*
X8440000Y30461995D01*
X8440000Y29922440D01*
X8100000Y29922440D01*
X7857877Y29875463D01*
X7645073Y29735673D01*
X7502623Y29524640D01*
X7452560Y29275000D01*
X7452560Y28475000D01*
X7499537Y28232877D01*
X7639327Y28020073D01*
X7850360Y27877623D01*
X8100000Y27827560D01*
X8650000Y27827560D01*
X8853304Y27867006D01*
X9050000Y27827560D01*
X9600000Y27827560D01*
X9803304Y27867006D01*
X10000000Y27827560D01*
X10070860Y27827560D01*
X10099207Y27799214D01*
X10099210Y27799210D01*
X10386325Y27607367D01*
X10725000Y27539999D01*
X10725000Y27540000D01*
X10725005Y27540000D01*
X11827592Y27540000D01*
X11960047Y27485000D01*
X10736695Y27485000D01*
X10550000Y27522440D01*
X10000000Y27522440D01*
X9757877Y27475463D01*
X9545073Y27335673D01*
X9402623Y27124640D01*
X9352560Y26875000D01*
X9352560Y26075000D01*
X9378000Y25943881D01*
X9378000Y25740402D01*
X9348123Y25696140D01*
X9298060Y25446500D01*
X9298060Y24780892D01*
X9235529Y24932229D01*
X9185000Y24982847D01*
X9185000Y25732952D01*
X9247377Y25825360D01*
X9297440Y26075000D01*
X9297440Y26875000D01*
X9250463Y27117123D01*
X9110673Y27329927D01*
X8899640Y27472377D01*
X8650000Y27522440D01*
X8100000Y27522440D01*
X7857877Y27475463D01*
X7645073Y27335673D01*
X7502623Y27124640D01*
X7452560Y26875000D01*
X7452560Y26075000D01*
X7499537Y25832877D01*
X7615000Y25657107D01*
X7615000Y24983155D01*
X7565445Y24933686D01*
X7415172Y24571788D01*
X7414830Y24179931D01*
X7564471Y23817771D01*
X7841314Y23540445D01*
X8203212Y23390172D01*
X8595069Y23389830D01*
X8957229Y23539471D01*
X9234555Y23816314D01*
X9342259Y24075695D01*
X9345037Y24061377D01*
X9484827Y23848573D01*
X9695860Y23706123D01*
X9945500Y23656060D01*
X10580500Y23656060D01*
X10822623Y23703037D01*
X11026260Y23836806D01*
X11219860Y23706123D01*
X11469500Y23656060D01*
X12104500Y23656060D01*
X12346623Y23703037D01*
X12559427Y23842827D01*
X12647172Y23972818D01*
X13392975Y23972818D01*
X13343890Y23854606D01*
X13343689Y23625186D01*
X13302291Y23597991D01*
X13159841Y23386958D01*
X13109778Y23137318D01*
X13109778Y22502318D01*
X13156755Y22260195D01*
X13290523Y22056558D01*
X13159841Y21862958D01*
X13109778Y21613318D01*
X13109778Y21284818D01*
X13001718Y21284818D01*
X13001718Y21017156D01*
X12538177Y21480697D01*
X12283505Y21650863D01*
X11983098Y21710618D01*
X1135197Y21710618D01*
X1135197Y36140375D01*
X962767Y36557686D01*
X643765Y36877245D01*
X226756Y37050403D01*
X-224775Y37050797D01*
X-642086Y36878367D01*
X-961645Y36559365D01*
X-1134803Y36142356D01*
X-1135197Y35690825D01*
X-962767Y35273514D01*
X-643765Y34953955D01*
X-226756Y34780797D01*
X224775Y34780403D01*
X642086Y34952833D01*
X961645Y35271835D01*
X1134803Y35688844D01*
X1135197Y36140375D01*
X1135197Y21710618D01*
X-1298562Y21710618D01*
X-1598968Y21650863D01*
X-1853641Y21480697D01*
X-1853644Y21480694D01*
X-2974457Y20359881D01*
X-2974457Y36536454D01*
X-3450727Y37689115D01*
X-4331847Y38571774D01*
X-5483674Y39050054D01*
X-6730854Y39051143D01*
X-7883515Y38574873D01*
X-8766174Y37693753D01*
X-9244454Y36541926D01*
X-9245543Y35294746D01*
X-8769273Y34142085D01*
X-7888153Y33259426D01*
X-6736326Y32781146D01*
X-5489146Y32780057D01*
X-4336485Y33256327D01*
X-3453826Y34137447D01*
X-2975546Y35289274D01*
X-2974457Y36536454D01*
X-2974457Y20359881D01*
X-3294060Y20040278D01*
X-3496522Y20040278D01*
X-3496522Y21855278D01*
X-3543499Y22097401D01*
X-3683289Y22310205D01*
X-3894322Y22452655D01*
X-4143962Y22502718D01*
X-5603962Y22502718D01*
X-5846085Y22455741D01*
X-6058889Y22315951D01*
X-6201339Y22104918D01*
X-6226848Y21977718D01*
X-9003962Y21977718D01*
X-9246085Y21930741D01*
X-9425500Y21812885D01*
X-9425500Y35848133D01*
X-9160724Y37179252D01*
X-8444924Y38250524D01*
X-7373651Y38966325D01*
X-6042533Y39231100D01*
X79699932Y39231100D01*
X81031051Y38966324D01*
X82102323Y38250524D01*
X82818124Y37179251D01*
X83082900Y35848133D01*
X83082900Y29398239D01*
X82902943Y29472964D01*
X82902943Y36536454D01*
X82426673Y37689115D01*
X81545553Y38571774D01*
X80393726Y39050054D01*
X79146546Y39051143D01*
X77993885Y38574873D01*
X77111226Y37693753D01*
X76632946Y36541926D01*
X76631857Y35294746D01*
X77108127Y34142085D01*
X77989247Y33259426D01*
X79141074Y32781146D01*
X80388254Y32780057D01*
X81540915Y33256327D01*
X82423574Y34137447D01*
X82901854Y35289274D01*
X82902943Y36536454D01*
X82902943Y29472964D01*
X82729635Y29544927D01*
X82039409Y29545529D01*
X81401493Y29281947D01*
X80913004Y28794310D01*
X80648309Y28156855D01*
X80647707Y27466629D01*
X80911289Y26828713D01*
X81398926Y26340224D01*
X82036381Y26075529D01*
X82726607Y26074927D01*
X83082900Y26222145D01*
X83082900Y25898239D01*
X82729635Y26044927D01*
X82039409Y26045529D01*
X81401493Y25781947D01*
X80913004Y25294310D01*
X80648309Y24656855D01*
X80647707Y23966629D01*
X80911289Y23328713D01*
X81398926Y22840224D01*
X82036381Y22575529D01*
X82726607Y22574927D01*
X83082900Y22722145D01*
X83082900Y16675437D01*
X82720745Y16825817D01*
X82030519Y16826419D01*
X81931365Y16785450D01*
X81097000Y17619816D01*
X81097000Y18909599D01*
X81126877Y18953860D01*
X81176940Y19203500D01*
X81176940Y20346500D01*
X81129963Y20588623D01*
X80990173Y20801427D01*
X80779140Y20943877D01*
X80529500Y20993940D01*
X79894500Y20993940D01*
X79652377Y20946963D01*
X79441552Y20808474D01*
X79365198Y20884827D01*
X79131809Y20981500D01*
X78973750Y20981500D01*
X78815000Y20822750D01*
X78815000Y19902000D01*
X78835000Y19902000D01*
X78835000Y19648000D01*
X78815000Y19648000D01*
X78815000Y18727250D01*
X78973750Y18568500D01*
X79131809Y18568500D01*
X79327000Y18649351D01*
X79327000Y17253242D01*
X79326999Y17253236D01*
X79383189Y16970752D01*
X79394367Y16914561D01*
X79586210Y16627446D01*
X80679466Y15534190D01*
X80639419Y15437745D01*
X80638817Y14747519D01*
X80902399Y14109603D01*
X81390036Y13621114D01*
X82027491Y13356419D01*
X82717717Y13355817D01*
X83082900Y13506708D01*
X83082900Y13175437D01*
X83082900Y13175437D01*
G37*
X83082900Y13175437D02*
X82720745Y13325817D01*
X82030519Y13326419D01*
X81392603Y13062837D01*
X80904114Y12575200D01*
X80842209Y12426118D01*
X78561000Y12426118D01*
X78561000Y18727250D01*
X78561000Y19648000D01*
X78561000Y19902000D01*
X78561000Y20822750D01*
X78402250Y20981500D01*
X78244191Y20981500D01*
X78010802Y20884827D01*
X77832173Y20706199D01*
X77735500Y20472810D01*
X77735500Y20220191D01*
X77735500Y20060750D01*
X77894250Y19902000D01*
X78561000Y19902000D01*
X78561000Y19648000D01*
X77894250Y19648000D01*
X77735500Y19489250D01*
X77735500Y19329809D01*
X77735500Y19077190D01*
X77832173Y18843801D01*
X78010802Y18665173D01*
X78244191Y18568500D01*
X78402250Y18568500D01*
X78561000Y18727250D01*
X78561000Y12426118D01*
X77118309Y12426118D01*
X77118309Y24653827D01*
X77118309Y28153827D01*
X76854727Y28791743D01*
X76367090Y29280232D01*
X75729635Y29544927D01*
X75039409Y29545529D01*
X74401493Y29281947D01*
X73913004Y28794310D01*
X73648309Y28156855D01*
X73647707Y27466629D01*
X73911289Y26828713D01*
X74398926Y26340224D01*
X75036381Y26075529D01*
X75726607Y26074927D01*
X76364523Y26338509D01*
X76853012Y26826146D01*
X77117707Y27463601D01*
X77118309Y28153827D01*
X77118309Y24653827D01*
X76854727Y25291743D01*
X76367090Y25780232D01*
X75729635Y26044927D01*
X75039409Y26045529D01*
X74401493Y25781947D01*
X73913004Y25294310D01*
X73648309Y24656855D01*
X73647707Y23966629D01*
X73911289Y23328713D01*
X74398926Y22840224D01*
X75036381Y22575529D01*
X75726607Y22574927D01*
X76364523Y22838509D01*
X76853012Y23326146D01*
X77117707Y23963601D01*
X77118309Y24653827D01*
X77118309Y12426118D01*
X77109419Y12426118D01*
X77109419Y15434717D01*
X76845837Y16072633D01*
X76358200Y16561122D01*
X75720745Y16825817D01*
X75030519Y16826419D01*
X74392603Y16562837D01*
X73904114Y16075200D01*
X73639419Y15437745D01*
X73638817Y14747519D01*
X73902399Y14109603D01*
X74390036Y13621114D01*
X75027491Y13356419D01*
X75717717Y13355817D01*
X76355633Y13619399D01*
X76844122Y14107036D01*
X77108817Y14744491D01*
X77109419Y15434717D01*
X77109419Y12426118D01*
X76906375Y12426118D01*
X76845837Y12572633D01*
X76358200Y13061122D01*
X75720745Y13325817D01*
X75030519Y13326419D01*
X74392603Y13062837D01*
X73904114Y12575200D01*
X73825135Y12385000D01*
X58943218Y12385000D01*
X58943218Y17160008D01*
X58943218Y17412627D01*
X58943218Y17572068D01*
X58784468Y17730818D01*
X58117718Y17730818D01*
X58117718Y16810068D01*
X58276468Y16651318D01*
X58434527Y16651318D01*
X58667916Y16747991D01*
X58846545Y16926619D01*
X58943218Y17160008D01*
X58943218Y12385000D01*
X53075005Y12385000D01*
X53075000Y12385001D01*
X52736326Y12317634D01*
X52641054Y12253976D01*
X52449210Y12125790D01*
X52449207Y12125787D01*
X52225919Y11902499D01*
X48649210Y8325790D01*
X48457367Y8038675D01*
X48446189Y7982485D01*
X48389999Y7700000D01*
X48390000Y7699995D01*
X48390000Y6066580D01*
X48168940Y5845520D01*
X48168940Y6205500D01*
X48121963Y6447623D01*
X47988194Y6651261D01*
X48118877Y6844860D01*
X48168940Y7094500D01*
X48168940Y7729500D01*
X48121963Y7971623D01*
X47982173Y8184427D01*
X47835000Y8283771D01*
X47835000Y9902521D01*
X50695413Y12762934D01*
X51103003Y12762578D01*
X51612233Y12972987D01*
X52002179Y13362254D01*
X52213477Y13871116D01*
X52213958Y14422103D01*
X52003549Y14931333D01*
X51614282Y15321279D01*
X51381847Y15417795D01*
X51612233Y15512987D01*
X52002179Y15902254D01*
X52213477Y16411116D01*
X52213958Y16962103D01*
X52003549Y17471333D01*
X51614282Y17861279D01*
X51381847Y17957795D01*
X51612233Y18052987D01*
X52002179Y18442254D01*
X52213477Y18951116D01*
X52213958Y19502103D01*
X52003549Y20011333D01*
X51614282Y20401279D01*
X51397739Y20491196D01*
X51552641Y20555358D01*
X51620630Y20796301D01*
X50828718Y21588213D01*
X50814575Y21574071D01*
X50634970Y21753676D01*
X50649113Y21767818D01*
X50634970Y21781961D01*
X50814575Y21961566D01*
X50828718Y21947423D01*
X50842860Y21961566D01*
X51022465Y21781961D01*
X51008323Y21767818D01*
X51800235Y20975906D01*
X52041178Y21043895D01*
X52225919Y21562989D01*
X52197948Y22113266D01*
X52041178Y22491741D01*
X51800237Y22559730D01*
X51913326Y22672818D01*
X54766373Y22672818D01*
X54890043Y22590185D01*
X55228718Y22522817D01*
X55567392Y22590185D01*
X55616230Y22622818D01*
X56489822Y22622818D01*
X56550052Y22562483D01*
X56911950Y22412210D01*
X57303807Y22411868D01*
X57665967Y22561509D01*
X57943293Y22838352D01*
X58093566Y23200250D01*
X58093908Y23592107D01*
X57944267Y23954267D01*
X57667424Y24231593D01*
X57305526Y24381866D01*
X56913669Y24382208D01*
X56551509Y24232567D01*
X56511690Y24192818D01*
X56008340Y24192818D01*
X56076393Y24260752D01*
X56226666Y24622650D01*
X56227008Y25014507D01*
X56085043Y25358088D01*
X56205595Y25536678D01*
X56255658Y25786318D01*
X56255658Y26929318D01*
X56220452Y27110768D01*
X56255658Y27286318D01*
X56255658Y28305853D01*
X56313520Y28247991D01*
X56546909Y28151318D01*
X56704968Y28151318D01*
X56863718Y28310068D01*
X56863718Y29230818D01*
X56843718Y29230818D01*
X56843718Y29484818D01*
X56863718Y29484818D01*
X56863718Y30405568D01*
X56704968Y30564318D01*
X56546909Y30564318D01*
X56313520Y30467645D01*
X56251718Y30405844D01*
X56251718Y30959940D01*
X56527116Y31235338D01*
X65122400Y31235338D01*
X65373758Y30983980D01*
X65373758Y26104195D01*
X65218288Y26168751D01*
X64607627Y26169283D01*
X64043247Y25936086D01*
X63855658Y25748826D01*
X63855658Y28786318D01*
X63855658Y29929318D01*
X63808681Y30171441D01*
X63668891Y30384245D01*
X63457858Y30526695D01*
X63208218Y30576758D01*
X62573218Y30576758D01*
X62331095Y30529781D01*
X62120270Y30391292D01*
X62043916Y30467645D01*
X61810527Y30564318D01*
X61652468Y30564318D01*
X61493718Y30405568D01*
X61493718Y29484818D01*
X61513718Y29484818D01*
X61513718Y29230818D01*
X61493718Y29230818D01*
X61493718Y29210818D01*
X61243218Y29210818D01*
X61243218Y29643568D01*
X61243218Y29803009D01*
X61243218Y30055628D01*
X61239718Y30064078D01*
X61239718Y30405568D01*
X61080968Y30564318D01*
X60922909Y30564318D01*
X60828718Y30525303D01*
X60734527Y30564318D01*
X60576468Y30564318D01*
X60417718Y30405568D01*
X60417718Y30064078D01*
X60414218Y30055628D01*
X60414218Y29803009D01*
X60414218Y29643568D01*
X60417718Y29640068D01*
X60417718Y29484818D01*
X60572968Y29484818D01*
X61084468Y29484818D01*
X61239718Y29484818D01*
X61239718Y29640068D01*
X61243218Y29643568D01*
X61243218Y29210818D01*
X61239718Y29210818D01*
X61239718Y29230818D01*
X61084468Y29230818D01*
X60572968Y29230818D01*
X60417718Y29230818D01*
X60417718Y29210818D01*
X60163718Y29210818D01*
X60163718Y29230818D01*
X60143718Y29230818D01*
X60143718Y29484818D01*
X60163718Y29484818D01*
X60163718Y30405568D01*
X60004968Y30564318D01*
X59846909Y30564318D01*
X59613520Y30467645D01*
X59536072Y30390198D01*
X59333858Y30526695D01*
X59084218Y30576758D01*
X58449218Y30576758D01*
X58207095Y30529781D01*
X57994291Y30389991D01*
X57962428Y30342789D01*
X57792625Y30342937D01*
X57667916Y30467645D01*
X57434527Y30564318D01*
X57276468Y30564318D01*
X57117718Y30405568D01*
X57117718Y29940018D01*
X57094163Y29916504D01*
X56943890Y29554606D01*
X56943548Y29162749D01*
X57093189Y28800589D01*
X57117718Y28776018D01*
X57117718Y28310068D01*
X57143718Y28284068D01*
X57143718Y27928838D01*
X57203473Y27628431D01*
X57373639Y27373759D01*
X57638239Y27109159D01*
X57892912Y26938993D01*
X58193318Y26879238D01*
X62567198Y26879238D01*
X62867604Y26938993D01*
X62867605Y26938993D01*
X63122277Y27109159D01*
X63445797Y27432679D01*
X63615963Y27687351D01*
X63615963Y27687352D01*
X63675718Y27987758D01*
X63675718Y28344272D01*
X63805595Y28536678D01*
X63855658Y28786318D01*
X63855658Y25748826D01*
X63641295Y25534837D01*
X63242261Y25934569D01*
X62678288Y26168751D01*
X62067627Y26169283D01*
X61503247Y25936086D01*
X61071067Y25504661D01*
X61035504Y25419018D01*
X60733318Y25419018D01*
X60432912Y25359263D01*
X60178239Y25189097D01*
X60178236Y25189094D01*
X59670239Y24681097D01*
X59500073Y24426425D01*
X59440318Y24126018D01*
X59440318Y20439367D01*
X59387404Y20492373D01*
X59025506Y20642646D01*
X58796085Y20642847D01*
X58768891Y20684245D01*
X58557858Y20826695D01*
X58308218Y20876758D01*
X57673218Y20876758D01*
X57431095Y20829781D01*
X57220270Y20691292D01*
X57143916Y20767645D01*
X56910527Y20864318D01*
X56752468Y20864318D01*
X56593718Y20705568D01*
X56593718Y19784818D01*
X56613718Y19784818D01*
X56613718Y19530818D01*
X56593718Y19530818D01*
X56593718Y19510818D01*
X56339718Y19510818D01*
X56339718Y19530818D01*
X56339718Y19784818D01*
X56339718Y20705568D01*
X56180968Y20864318D01*
X56022909Y20864318D01*
X55789520Y20767645D01*
X55610891Y20589017D01*
X55514218Y20355628D01*
X55514218Y20103009D01*
X55514218Y19943568D01*
X55672968Y19784818D01*
X56339718Y19784818D01*
X56339718Y19530818D01*
X55672968Y19530818D01*
X55514218Y19372068D01*
X55514218Y19212627D01*
X55514218Y18960008D01*
X55582889Y18794221D01*
X55559276Y18804026D01*
X55167419Y18804368D01*
X54805259Y18654727D01*
X54527933Y18377884D01*
X54377660Y18015986D01*
X54377318Y17624129D01*
X54526959Y17261969D01*
X54803802Y16984643D01*
X55165700Y16834370D01*
X55557557Y16834028D01*
X55659219Y16876034D01*
X55688545Y16831391D01*
X55899578Y16688941D01*
X56149218Y16638878D01*
X56784218Y16638878D01*
X57026341Y16685855D01*
X57237165Y16824345D01*
X57313520Y16747991D01*
X57546909Y16651318D01*
X57704968Y16651318D01*
X57863718Y16810068D01*
X57863718Y17730818D01*
X57843718Y17730818D01*
X57843718Y17984818D01*
X57863718Y17984818D01*
X57863718Y18004818D01*
X58117718Y18004818D01*
X58117718Y17984818D01*
X58784468Y17984818D01*
X58943218Y18143568D01*
X58943218Y18303009D01*
X58943218Y18555628D01*
X58894700Y18672761D01*
X59023787Y18672648D01*
X59385947Y18822289D01*
X59617111Y19053051D01*
X59670239Y18973539D01*
X60762439Y17881339D01*
X61017111Y17711173D01*
X61017112Y17711173D01*
X61317518Y17651418D01*
X71172718Y17651418D01*
X71473124Y17711173D01*
X71473125Y17711173D01*
X71727797Y17881339D01*
X73175597Y19329139D01*
X73345762Y19583811D01*
X73345763Y19583812D01*
X73405518Y19884218D01*
X73405518Y34209818D01*
X73345763Y34510224D01*
X73345763Y34510225D01*
X73175597Y34764897D01*
X71803997Y36136497D01*
X71549325Y36306663D01*
X71248918Y36366418D01*
X52173518Y36366418D01*
X51873112Y36306663D01*
X51618439Y36136497D01*
X43124760Y27642818D01*
X43054918Y27642818D01*
X39228718Y27642818D01*
X38928311Y27583063D01*
X38673639Y27412897D01*
X37403668Y26142927D01*
X37333649Y26142988D01*
X36971489Y25993347D01*
X36694163Y25716504D01*
X36543890Y25354606D01*
X36543792Y25242818D01*
X35928723Y25242818D01*
X35928718Y25242819D01*
X35628312Y25183063D01*
X35373639Y25012897D01*
X33503199Y23142458D01*
X33500681Y23155441D01*
X33362191Y23366266D01*
X33438545Y23442620D01*
X33535218Y23676009D01*
X33535218Y23834068D01*
X33535218Y24405568D01*
X33535218Y24563627D01*
X33438545Y24797016D01*
X33259917Y24975645D01*
X33026528Y25072318D01*
X32773909Y25072318D01*
X32614468Y25072318D01*
X32455718Y24913568D01*
X32455718Y24246818D01*
X33376468Y24246818D01*
X33535218Y24405568D01*
X33535218Y23834068D01*
X33376468Y23992818D01*
X32455718Y23992818D01*
X32455718Y23972818D01*
X32201718Y23972818D01*
X32201718Y23992818D01*
X32201718Y24246818D01*
X32201718Y24913568D01*
X32042968Y25072318D01*
X31883527Y25072318D01*
X31630908Y25072318D01*
X31598872Y25059049D01*
X31647658Y25302318D01*
X31647658Y25937318D01*
X31600681Y26179441D01*
X31460891Y26392245D01*
X31413688Y26424108D01*
X31413888Y26652887D01*
X31264247Y27015047D01*
X30987404Y27292373D01*
X30625506Y27442646D01*
X30233649Y27442988D01*
X29871489Y27293347D01*
X29594163Y27016504D01*
X29443890Y26654606D01*
X29443689Y26425186D01*
X29402291Y26397991D01*
X29259841Y26186958D01*
X29209778Y25937318D01*
X29209778Y25302318D01*
X29256755Y25060195D01*
X29395244Y24849371D01*
X29318891Y24773016D01*
X29222218Y24539627D01*
X29222218Y24381568D01*
X29380968Y24222818D01*
X30301718Y24222818D01*
X30301718Y24242818D01*
X30555718Y24242818D01*
X30555718Y24222818D01*
X31476468Y24222818D01*
X31500468Y24246818D01*
X32201718Y24246818D01*
X32201718Y23992818D01*
X31280968Y23992818D01*
X31256968Y23968818D01*
X30555718Y23968818D01*
X30555718Y23302068D01*
X30638768Y23219018D01*
X30530818Y23111068D01*
X30530818Y21999818D01*
X30576218Y21999818D01*
X30576218Y21745818D01*
X30530818Y21745818D01*
X30530818Y20634568D01*
X30689568Y20475818D01*
X30757199Y20475818D01*
X30734278Y20361518D01*
X30734278Y19955118D01*
X30773102Y19755016D01*
X30734278Y19561418D01*
X30734278Y19155018D01*
X30773102Y18954916D01*
X30734278Y18761318D01*
X30734278Y18354918D01*
X30773102Y18154816D01*
X30734278Y17961218D01*
X30734278Y17554818D01*
X30773102Y17354716D01*
X30734278Y17161118D01*
X30734278Y16754718D01*
X30773102Y16554616D01*
X30734278Y16361018D01*
X30734278Y15954618D01*
X30773102Y15754516D01*
X30734278Y15560918D01*
X30734278Y15154518D01*
X30773102Y14954416D01*
X30734278Y14760818D01*
X30734278Y14716726D01*
X30072318Y15378686D01*
X30072318Y17435446D01*
X30206906Y17759570D01*
X30207248Y18151427D01*
X30057607Y18513587D01*
X29780764Y18790913D01*
X29418866Y18941186D01*
X29027009Y18941528D01*
X28664849Y18791887D01*
X28387523Y18515044D01*
X28237250Y18153146D01*
X28236908Y17761289D01*
X28386549Y17399129D01*
X28402318Y17383333D01*
X28402318Y15032818D01*
X28465879Y14713277D01*
X28646884Y14442384D01*
X29922184Y13167084D01*
X30182990Y12992818D01*
X27728718Y12992818D01*
X27409177Y12929257D01*
X27138284Y12748252D01*
X26638384Y12248352D01*
X26457379Y11977459D01*
X26432474Y11852258D01*
X26225518Y11852258D01*
X26025415Y11813434D01*
X25913785Y11835821D01*
X25913888Y11952887D01*
X25764247Y12315047D01*
X25487404Y12592373D01*
X25125506Y12742646D01*
X24733649Y12742988D01*
X24371489Y12593347D01*
X24094163Y12316504D01*
X24013599Y12122486D01*
X24013888Y12452887D01*
X23908478Y12707999D01*
X24013546Y12961030D01*
X24013888Y13352887D01*
X23887767Y13658123D01*
X24013546Y13961030D01*
X24013888Y14352887D01*
X23864247Y14715047D01*
X23587404Y14992373D01*
X23225506Y15142646D01*
X22833649Y15142988D01*
X22471489Y14993347D01*
X22194163Y14716504D01*
X22123158Y14545505D01*
X22123158Y14760818D01*
X22093700Y14912643D01*
X22783797Y15602739D01*
X22953963Y15857411D01*
X22953963Y15857412D01*
X23013718Y16157818D01*
X23013718Y18657818D01*
X22953963Y18958224D01*
X22953963Y18958225D01*
X22783797Y19212897D01*
X22109530Y19887164D01*
X22123158Y19955118D01*
X22123158Y20361518D01*
X22100981Y20475818D01*
X22167868Y20475818D01*
X22243712Y20551663D01*
X22243548Y20362749D01*
X22393189Y20000589D01*
X22670032Y19723263D01*
X23031930Y19572990D01*
X23423787Y19572648D01*
X23785947Y19722289D01*
X23911125Y19847250D01*
X23890172Y19796788D01*
X23889830Y19404931D01*
X24039471Y19042771D01*
X24316314Y18765445D01*
X24678212Y18615172D01*
X25070069Y18614830D01*
X25432229Y18764471D01*
X25709555Y19041314D01*
X25769789Y19186375D01*
X25824593Y19149756D01*
X25824594Y19149755D01*
X26125000Y19090000D01*
X26342385Y19090000D01*
X26703212Y18940172D01*
X27095069Y18939830D01*
X27457229Y19089471D01*
X27734555Y19366314D01*
X27884828Y19728212D01*
X27885170Y20120069D01*
X27735873Y20481396D01*
X27825718Y20463378D01*
X28232118Y20463378D01*
X28243812Y20465647D01*
X28243548Y20162749D01*
X28393189Y19800589D01*
X28670032Y19523263D01*
X29031930Y19372990D01*
X29423787Y19372648D01*
X29785947Y19522289D01*
X30063273Y19799132D01*
X30213546Y20161030D01*
X30213621Y20247176D01*
X30354363Y20457811D01*
X30354363Y20457812D01*
X30414118Y20758218D01*
X30414118Y20838102D01*
X30429695Y20861178D01*
X30479758Y21110818D01*
X30479758Y22634818D01*
X30432781Y22876941D01*
X30327618Y23037032D01*
X30327618Y23111068D01*
X30219168Y23219518D01*
X30301718Y23302068D01*
X30301718Y23968818D01*
X29380968Y23968818D01*
X29222218Y23810068D01*
X29222218Y23652009D01*
X29318891Y23418620D01*
X29455252Y23282258D01*
X29425918Y23282258D01*
X29225815Y23243434D01*
X29032218Y23282258D01*
X28625818Y23282258D01*
X28425715Y23243434D01*
X28232118Y23282258D01*
X27825718Y23282258D01*
X27625615Y23243434D01*
X27509660Y23266688D01*
X27653327Y23326049D01*
X27930653Y23602892D01*
X28080926Y23964790D01*
X28081268Y24356647D01*
X27931627Y24718807D01*
X27654784Y24996133D01*
X27292886Y25146406D01*
X26901029Y25146748D01*
X26538869Y24997107D01*
X26422377Y24880818D01*
X26032586Y24880818D01*
X27619152Y26467384D01*
X27800157Y26738277D01*
X27800158Y26738278D01*
X27863718Y27057818D01*
X27863718Y27357818D01*
X27863718Y33657818D01*
X27800158Y33977358D01*
X27800157Y33977359D01*
X27619152Y34248252D01*
X25219152Y36648252D01*
X24948259Y36829257D01*
X24628718Y36892818D01*
X19728718Y36892818D01*
X19409178Y36829258D01*
X19138284Y36648252D01*
X15590114Y33100083D01*
X15278233Y32971216D01*
X14865463Y33142612D01*
X14394041Y33143024D01*
X13958346Y32962998D01*
X13624709Y32629943D01*
X13443924Y32194563D01*
X13443512Y31723141D01*
X13623538Y31287446D01*
X13956593Y30953809D01*
X14391973Y30773024D01*
X14863395Y30772612D01*
X15093718Y30867780D01*
X15093718Y30720994D01*
X14894291Y30589991D01*
X14751841Y30378958D01*
X14701778Y30129318D01*
X14701778Y28986318D01*
X14736983Y28804869D01*
X14701778Y28629318D01*
X14701778Y27486318D01*
X14702033Y27485000D01*
X12689893Y27485000D01*
X12882229Y27564471D01*
X13159555Y27841314D01*
X13309828Y28203212D01*
X13310170Y28595069D01*
X13244609Y28753738D01*
X13244609Y28753739D01*
X13242633Y28763674D01*
X13242633Y28763675D01*
X13237054Y28772024D01*
X13237053Y28772026D01*
X13160529Y28957229D01*
X12883686Y29234555D01*
X12521788Y29384828D01*
X12129931Y29385170D01*
X11948005Y29310000D01*
X11776846Y29310000D01*
X11822000Y29537000D01*
X11822000Y29684599D01*
X11851877Y29728860D01*
X11901940Y29978500D01*
X11901940Y31121500D01*
X11854963Y31363623D01*
X11822000Y31413803D01*
X11822000Y31484599D01*
X11851877Y31528860D01*
X11901940Y31778500D01*
X11901940Y32921500D01*
X11854963Y33163623D01*
X11715173Y33376427D01*
X11504140Y33518877D01*
X11254500Y33568940D01*
X10619500Y33568940D01*
X10377377Y33521963D01*
X10173739Y33388195D01*
X9980140Y33518877D01*
X9730500Y33568940D01*
X9095500Y33568940D01*
X8853377Y33521963D01*
X8640573Y33382173D01*
X8498123Y33171140D01*
X8490875Y33135000D01*
X7137200Y33135000D01*
X6896788Y33234828D01*
X6504931Y33235170D01*
X6142771Y33085529D01*
X5865445Y32808686D01*
X5715172Y32446788D01*
X5714830Y32054931D01*
X5864471Y31692771D01*
X6141314Y31415445D01*
X6503212Y31265172D01*
X6895069Y31264830D01*
X7137499Y31365000D01*
X8496891Y31365000D01*
X8448060Y31121500D01*
X8448060Y30502525D01*
X8439999Y30462000D01*
X8440000Y30461995D01*
X8440000Y29922440D01*
X8100000Y29922440D01*
X7857877Y29875463D01*
X7645073Y29735673D01*
X7502623Y29524640D01*
X7452560Y29275000D01*
X7452560Y28475000D01*
X7499537Y28232877D01*
X7639327Y28020073D01*
X7850360Y27877623D01*
X8100000Y27827560D01*
X8650000Y27827560D01*
X8853304Y27867006D01*
X9050000Y27827560D01*
X9600000Y27827560D01*
X9803304Y27867006D01*
X10000000Y27827560D01*
X10070860Y27827560D01*
X10099207Y27799214D01*
X10099210Y27799210D01*
X10386325Y27607367D01*
X10725000Y27539999D01*
X10725000Y27540000D01*
X10725005Y27540000D01*
X11827592Y27540000D01*
X11960047Y27485000D01*
X10736695Y27485000D01*
X10550000Y27522440D01*
X10000000Y27522440D01*
X9757877Y27475463D01*
X9545073Y27335673D01*
X9402623Y27124640D01*
X9352560Y26875000D01*
X9352560Y26075000D01*
X9378000Y25943881D01*
X9378000Y25740402D01*
X9348123Y25696140D01*
X9298060Y25446500D01*
X9298060Y24780892D01*
X9235529Y24932229D01*
X9185000Y24982847D01*
X9185000Y25732952D01*
X9247377Y25825360D01*
X9297440Y26075000D01*
X9297440Y26875000D01*
X9250463Y27117123D01*
X9110673Y27329927D01*
X8899640Y27472377D01*
X8650000Y27522440D01*
X8100000Y27522440D01*
X7857877Y27475463D01*
X7645073Y27335673D01*
X7502623Y27124640D01*
X7452560Y26875000D01*
X7452560Y26075000D01*
X7499537Y25832877D01*
X7615000Y25657107D01*
X7615000Y24983155D01*
X7565445Y24933686D01*
X7415172Y24571788D01*
X7414830Y24179931D01*
X7564471Y23817771D01*
X7841314Y23540445D01*
X8203212Y23390172D01*
X8595069Y23389830D01*
X8957229Y23539471D01*
X9234555Y23816314D01*
X9342259Y24075695D01*
X9345037Y24061377D01*
X9484827Y23848573D01*
X9695860Y23706123D01*
X9945500Y23656060D01*
X10580500Y23656060D01*
X10822623Y23703037D01*
X11026260Y23836806D01*
X11219860Y23706123D01*
X11469500Y23656060D01*
X12104500Y23656060D01*
X12346623Y23703037D01*
X12559427Y23842827D01*
X12647172Y23972818D01*
X13392975Y23972818D01*
X13343890Y23854606D01*
X13343689Y23625186D01*
X13302291Y23597991D01*
X13159841Y23386958D01*
X13109778Y23137318D01*
X13109778Y22502318D01*
X13156755Y22260195D01*
X13290523Y22056558D01*
X13159841Y21862958D01*
X13109778Y21613318D01*
X13109778Y21284818D01*
X13001718Y21284818D01*
X13001718Y21017156D01*
X12538177Y21480697D01*
X12283505Y21650863D01*
X11983098Y21710618D01*
X1135197Y21710618D01*
X1135197Y36140375D01*
X962767Y36557686D01*
X643765Y36877245D01*
X226756Y37050403D01*
X-224775Y37050797D01*
X-642086Y36878367D01*
X-961645Y36559365D01*
X-1134803Y36142356D01*
X-1135197Y35690825D01*
X-962767Y35273514D01*
X-643765Y34953955D01*
X-226756Y34780797D01*
X224775Y34780403D01*
X642086Y34952833D01*
X961645Y35271835D01*
X1134803Y35688844D01*
X1135197Y36140375D01*
X1135197Y21710618D01*
X-1298562Y21710618D01*
X-1598968Y21650863D01*
X-1853641Y21480697D01*
X-1853644Y21480694D01*
X-2974457Y20359881D01*
X-2974457Y36536454D01*
X-3450727Y37689115D01*
X-4331847Y38571774D01*
X-5483674Y39050054D01*
X-6730854Y39051143D01*
X-7883515Y38574873D01*
X-8766174Y37693753D01*
X-9244454Y36541926D01*
X-9245543Y35294746D01*
X-8769273Y34142085D01*
X-7888153Y33259426D01*
X-6736326Y32781146D01*
X-5489146Y32780057D01*
X-4336485Y33256327D01*
X-3453826Y34137447D01*
X-2975546Y35289274D01*
X-2974457Y36536454D01*
X-2974457Y20359881D01*
X-3294060Y20040278D01*
X-3496522Y20040278D01*
X-3496522Y21855278D01*
X-3543499Y22097401D01*
X-3683289Y22310205D01*
X-3894322Y22452655D01*
X-4143962Y22502718D01*
X-5603962Y22502718D01*
X-5846085Y22455741D01*
X-6058889Y22315951D01*
X-6201339Y22104918D01*
X-6226848Y21977718D01*
X-9003962Y21977718D01*
X-9246085Y21930741D01*
X-9425500Y21812885D01*
X-9425500Y35848133D01*
X-9160724Y37179252D01*
X-8444924Y38250524D01*
X-7373651Y38966325D01*
X-6042533Y39231100D01*
X79699932Y39231100D01*
X81031051Y38966324D01*
X82102323Y38250524D01*
X82818124Y37179251D01*
X83082900Y35848133D01*
X83082900Y29398239D01*
X82902943Y29472964D01*
X82902943Y36536454D01*
X82426673Y37689115D01*
X81545553Y38571774D01*
X80393726Y39050054D01*
X79146546Y39051143D01*
X77993885Y38574873D01*
X77111226Y37693753D01*
X76632946Y36541926D01*
X76631857Y35294746D01*
X77108127Y34142085D01*
X77989247Y33259426D01*
X79141074Y32781146D01*
X80388254Y32780057D01*
X81540915Y33256327D01*
X82423574Y34137447D01*
X82901854Y35289274D01*
X82902943Y36536454D01*
X82902943Y29472964D01*
X82729635Y29544927D01*
X82039409Y29545529D01*
X81401493Y29281947D01*
X80913004Y28794310D01*
X80648309Y28156855D01*
X80647707Y27466629D01*
X80911289Y26828713D01*
X81398926Y26340224D01*
X82036381Y26075529D01*
X82726607Y26074927D01*
X83082900Y26222145D01*
X83082900Y25898239D01*
X82729635Y26044927D01*
X82039409Y26045529D01*
X81401493Y25781947D01*
X80913004Y25294310D01*
X80648309Y24656855D01*
X80647707Y23966629D01*
X80911289Y23328713D01*
X81398926Y22840224D01*
X82036381Y22575529D01*
X82726607Y22574927D01*
X83082900Y22722145D01*
X83082900Y16675437D01*
X82720745Y16825817D01*
X82030519Y16826419D01*
X81931365Y16785450D01*
X81097000Y17619816D01*
X81097000Y18909599D01*
X81126877Y18953860D01*
X81176940Y19203500D01*
X81176940Y20346500D01*
X81129963Y20588623D01*
X80990173Y20801427D01*
X80779140Y20943877D01*
X80529500Y20993940D01*
X79894500Y20993940D01*
X79652377Y20946963D01*
X79441552Y20808474D01*
X79365198Y20884827D01*
X79131809Y20981500D01*
X78973750Y20981500D01*
X78815000Y20822750D01*
X78815000Y19902000D01*
X78835000Y19902000D01*
X78835000Y19648000D01*
X78815000Y19648000D01*
X78815000Y18727250D01*
X78973750Y18568500D01*
X79131809Y18568500D01*
X79327000Y18649351D01*
X79327000Y17253242D01*
X79326999Y17253236D01*
X79383189Y16970752D01*
X79394367Y16914561D01*
X79586210Y16627446D01*
X80679466Y15534190D01*
X80639419Y15437745D01*
X80638817Y14747519D01*
X80902399Y14109603D01*
X81390036Y13621114D01*
X82027491Y13356419D01*
X82717717Y13355817D01*
X83082900Y13506708D01*
X83082900Y13175437D01*
M02*
