G04 #@! TF.FileFunction,Legend,Top*
%FSLAX46Y46*%
G04 Gerber Fmt 4.6, Leading zero omitted, Abs format (unit mm)*
G04 Created by KiCad (PCBNEW (2015-01-16 BZR 5376)-product) date 16/06/2015 17:16:53*
%MOMM*%
G01*
G04 APERTURE LIST*
%ADD10C,0.100000*%
%ADD11C,0.250000*%
%ADD12C,0.150000*%
%ADD13C,0.127000*%
%ADD14C,0.078740*%
%ADD15C,0.200000*%
%ADD16C,2.200000*%
%ADD17R,0.635000X1.143000*%
%ADD18R,0.800100X1.000760*%
%ADD19C,2.000000*%
%ADD20C,1.000000*%
%ADD21R,7.000000X37.000000*%
G04 APERTURE END LIST*
D10*
D11*
X-16872619Y-10761905D02*
X-17872619Y-10761905D01*
X-17396429Y-10761905D02*
X-17396429Y-10190476D01*
X-16872619Y-10190476D02*
X-17872619Y-10190476D01*
X-16872619Y-9285714D02*
X-17396429Y-9285714D01*
X-17491667Y-9333333D01*
X-17539286Y-9428571D01*
X-17539286Y-9619048D01*
X-17491667Y-9714286D01*
X-16920238Y-9285714D02*
X-16872619Y-9380952D01*
X-16872619Y-9619048D01*
X-16920238Y-9714286D01*
X-17015476Y-9761905D01*
X-17110714Y-9761905D01*
X-17205952Y-9714286D01*
X-17253571Y-9619048D01*
X-17253571Y-9380952D01*
X-17301190Y-9285714D01*
X-16872619Y-8809524D02*
X-17539286Y-8809524D01*
X-17348810Y-8809524D02*
X-17444048Y-8761905D01*
X-17491667Y-8714286D01*
X-17539286Y-8619048D01*
X-17539286Y-8523809D01*
X-17539286Y-8285714D02*
X-16872619Y-8047619D01*
X-17539286Y-7809523D01*
X-16920238Y-7047618D02*
X-16872619Y-7142856D01*
X-16872619Y-7333333D01*
X-16920238Y-7428571D01*
X-17015476Y-7476190D01*
X-17396429Y-7476190D01*
X-17491667Y-7428571D01*
X-17539286Y-7333333D01*
X-17539286Y-7142856D01*
X-17491667Y-7047618D01*
X-17396429Y-6999999D01*
X-17301190Y-6999999D01*
X-17205952Y-7476190D01*
X-16920238Y-6619047D02*
X-16872619Y-6523809D01*
X-16872619Y-6333333D01*
X-16920238Y-6238094D01*
X-17015476Y-6190475D01*
X-17063095Y-6190475D01*
X-17158333Y-6238094D01*
X-17205952Y-6333333D01*
X-17205952Y-6476190D01*
X-17253571Y-6571428D01*
X-17348810Y-6619047D01*
X-17396429Y-6619047D01*
X-17491667Y-6571428D01*
X-17539286Y-6476190D01*
X-17539286Y-6333333D01*
X-17491667Y-6238094D01*
X-17539286Y-5904761D02*
X-17539286Y-5523809D01*
X-17872619Y-5761904D02*
X-17015476Y-5761904D01*
X-16920238Y-5714285D01*
X-16872619Y-5619047D01*
X-16872619Y-5523809D01*
X-17825000Y-4666665D02*
X-17872619Y-4761903D01*
X-17872619Y-4904760D01*
X-17825000Y-5047618D01*
X-17729762Y-5142856D01*
X-17634524Y-5190475D01*
X-17444048Y-5238094D01*
X-17301190Y-5238094D01*
X-17110714Y-5190475D01*
X-17015476Y-5142856D01*
X-16920238Y-5047618D01*
X-16872619Y-4904760D01*
X-16872619Y-4809522D01*
X-16920238Y-4666665D01*
X-16967857Y-4619046D01*
X-17301190Y-4619046D01*
X-17301190Y-4809522D01*
X-16920238Y-3809522D02*
X-16872619Y-3904760D01*
X-16872619Y-4095237D01*
X-16920238Y-4190475D01*
X-17015476Y-4238094D01*
X-17396429Y-4238094D01*
X-17491667Y-4190475D01*
X-17539286Y-4095237D01*
X-17539286Y-3904760D01*
X-17491667Y-3809522D01*
X-17396429Y-3761903D01*
X-17301190Y-3761903D01*
X-17205952Y-4238094D01*
X-16920238Y-2952379D02*
X-16872619Y-3047617D01*
X-16872619Y-3238094D01*
X-16920238Y-3333332D01*
X-17015476Y-3380951D01*
X-17396429Y-3380951D01*
X-17491667Y-3333332D01*
X-17539286Y-3238094D01*
X-17539286Y-3047617D01*
X-17491667Y-2952379D01*
X-17396429Y-2904760D01*
X-17301190Y-2904760D01*
X-17205952Y-3380951D01*
X-16872619Y-2476189D02*
X-17872619Y-2476189D01*
X-17253571Y-2380951D02*
X-16872619Y-2095236D01*
X-17539286Y-2095236D02*
X-17158333Y-2476189D01*
X-15270238Y-10809524D02*
X-15222619Y-10666667D01*
X-15222619Y-10428571D01*
X-15270238Y-10333333D01*
X-15317857Y-10285714D01*
X-15413095Y-10238095D01*
X-15508333Y-10238095D01*
X-15603571Y-10285714D01*
X-15651190Y-10333333D01*
X-15698810Y-10428571D01*
X-15746429Y-10619048D01*
X-15794048Y-10714286D01*
X-15841667Y-10761905D01*
X-15936905Y-10809524D01*
X-16032143Y-10809524D01*
X-16127381Y-10761905D01*
X-16175000Y-10714286D01*
X-16222619Y-10619048D01*
X-16222619Y-10380952D01*
X-16175000Y-10238095D01*
X-15222619Y-9666667D02*
X-15270238Y-9761905D01*
X-15317857Y-9809524D01*
X-15413095Y-9857143D01*
X-15698810Y-9857143D01*
X-15794048Y-9809524D01*
X-15841667Y-9761905D01*
X-15889286Y-9666667D01*
X-15889286Y-9523809D01*
X-15841667Y-9428571D01*
X-15794048Y-9380952D01*
X-15698810Y-9333333D01*
X-15413095Y-9333333D01*
X-15317857Y-9380952D01*
X-15270238Y-9428571D01*
X-15222619Y-9523809D01*
X-15222619Y-9666667D01*
X-15222619Y-8904762D02*
X-15889286Y-8904762D01*
X-16222619Y-8904762D02*
X-16175000Y-8952381D01*
X-16127381Y-8904762D01*
X-16175000Y-8857143D01*
X-16222619Y-8904762D01*
X-16127381Y-8904762D01*
X-15222619Y-8285715D02*
X-15270238Y-8380953D01*
X-15365476Y-8428572D01*
X-16222619Y-8428572D01*
X-15270238Y-7190476D02*
X-15222619Y-7047619D01*
X-15222619Y-6809523D01*
X-15270238Y-6714285D01*
X-15317857Y-6666666D01*
X-15413095Y-6619047D01*
X-15508333Y-6619047D01*
X-15603571Y-6666666D01*
X-15651190Y-6714285D01*
X-15698810Y-6809523D01*
X-15746429Y-7000000D01*
X-15794048Y-7095238D01*
X-15841667Y-7142857D01*
X-15936905Y-7190476D01*
X-16032143Y-7190476D01*
X-16127381Y-7142857D01*
X-16175000Y-7095238D01*
X-16222619Y-7000000D01*
X-16222619Y-6761904D01*
X-16175000Y-6619047D01*
X-15270238Y-5809523D02*
X-15222619Y-5904761D01*
X-15222619Y-6095238D01*
X-15270238Y-6190476D01*
X-15365476Y-6238095D01*
X-15746429Y-6238095D01*
X-15841667Y-6190476D01*
X-15889286Y-6095238D01*
X-15889286Y-5904761D01*
X-15841667Y-5809523D01*
X-15746429Y-5761904D01*
X-15651190Y-5761904D01*
X-15555952Y-6238095D01*
X-15889286Y-5333333D02*
X-15222619Y-5333333D01*
X-15794048Y-5333333D02*
X-15841667Y-5285714D01*
X-15889286Y-5190476D01*
X-15889286Y-5047618D01*
X-15841667Y-4952380D01*
X-15746429Y-4904761D01*
X-15222619Y-4904761D01*
X-15270238Y-4476190D02*
X-15222619Y-4380952D01*
X-15222619Y-4190476D01*
X-15270238Y-4095237D01*
X-15365476Y-4047618D01*
X-15413095Y-4047618D01*
X-15508333Y-4095237D01*
X-15555952Y-4190476D01*
X-15555952Y-4333333D01*
X-15603571Y-4428571D01*
X-15698810Y-4476190D01*
X-15746429Y-4476190D01*
X-15841667Y-4428571D01*
X-15889286Y-4333333D01*
X-15889286Y-4190476D01*
X-15841667Y-4095237D01*
X-15222619Y-3476190D02*
X-15270238Y-3571428D01*
X-15317857Y-3619047D01*
X-15413095Y-3666666D01*
X-15698810Y-3666666D01*
X-15794048Y-3619047D01*
X-15841667Y-3571428D01*
X-15889286Y-3476190D01*
X-15889286Y-3333332D01*
X-15841667Y-3238094D01*
X-15794048Y-3190475D01*
X-15698810Y-3142856D01*
X-15413095Y-3142856D01*
X-15317857Y-3190475D01*
X-15270238Y-3238094D01*
X-15222619Y-3333332D01*
X-15222619Y-3476190D01*
X-15222619Y-2714285D02*
X-15889286Y-2714285D01*
X-15698810Y-2714285D02*
X-15794048Y-2666666D01*
X-15841667Y-2619047D01*
X-15889286Y-2523809D01*
X-15889286Y-2428570D01*
X-15222619Y-809522D02*
X-15222619Y-1380951D01*
X-15222619Y-1095237D02*
X-16222619Y-1095237D01*
X-16079762Y-1190475D01*
X-15984524Y-1285713D01*
X-15936905Y-1380951D01*
X-15317857Y-380951D02*
X-15270238Y-333332D01*
X-15222619Y-380951D01*
X-15270238Y-428570D01*
X-15317857Y-380951D01*
X-15222619Y-380951D01*
X-16222619Y285715D02*
X-16222619Y380954D01*
X-16175000Y476192D01*
X-16127381Y523811D01*
X-16032143Y571430D01*
X-15841667Y619049D01*
X-15603571Y619049D01*
X-15413095Y571430D01*
X-15317857Y523811D01*
X-15270238Y476192D01*
X-15222619Y380954D01*
X-15222619Y285715D01*
X-15270238Y190477D01*
X-15317857Y142858D01*
X-15413095Y95239D01*
X-15603571Y47620D01*
X-15841667Y47620D01*
X-16032143Y95239D01*
X-16127381Y142858D01*
X-16175000Y190477D01*
X-16222619Y285715D01*
X-9785714Y-10452381D02*
X-9452381Y-11452381D01*
X-9119047Y-10452381D01*
X-8642857Y-11452381D02*
X-8738095Y-11404762D01*
X-8785714Y-11357143D01*
X-8833333Y-11261905D01*
X-8833333Y-10976190D01*
X-8785714Y-10880952D01*
X-8738095Y-10833333D01*
X-8642857Y-10785714D01*
X-8499999Y-10785714D01*
X-8404761Y-10833333D01*
X-8357142Y-10880952D01*
X-8309523Y-10976190D01*
X-8309523Y-11261905D01*
X-8357142Y-11357143D01*
X-8404761Y-11404762D01*
X-8499999Y-11452381D01*
X-8642857Y-11452381D01*
X-6452381Y-10452381D02*
X-6119048Y-11452381D01*
X-5785714Y-10452381D01*
X-5452381Y-11071429D02*
X-4690476Y-11071429D01*
X-5071428Y-11452381D02*
X-5071428Y-10690476D01*
X-13261904Y-10500000D02*
X-13357142Y-10452381D01*
X-13499999Y-10452381D01*
X-13642857Y-10500000D01*
X-13738095Y-10595238D01*
X-13785714Y-10690476D01*
X-13833333Y-10880952D01*
X-13833333Y-11023810D01*
X-13785714Y-11214286D01*
X-13738095Y-11309524D01*
X-13642857Y-11404762D01*
X-13499999Y-11452381D01*
X-13404761Y-11452381D01*
X-13261904Y-11404762D01*
X-13214285Y-11357143D01*
X-13214285Y-11023810D01*
X-13404761Y-11023810D01*
X-12785714Y-11452381D02*
X-12785714Y-10452381D01*
X-12214285Y-11452381D01*
X-12214285Y-10452381D01*
X-11738095Y-11452381D02*
X-11738095Y-10452381D01*
X-11500000Y-10452381D01*
X-11357142Y-10500000D01*
X-11261904Y-10595238D01*
X-11214285Y-10690476D01*
X-11166666Y-10880952D01*
X-11166666Y-11023810D01*
X-11214285Y-11214286D01*
X-11261904Y-11309524D01*
X-11357142Y-11404762D01*
X-11500000Y-11452381D01*
X-11738095Y-11452381D01*
D12*
X-3400000Y1500000D02*
X-14600000Y1500000D01*
X-14600000Y1500000D02*
X-14600000Y-10200000D01*
X-14600000Y-10200000D02*
X-3400000Y-10200000D01*
X-3400000Y-10200000D02*
X-3400000Y1500000D01*
D13*
X-6000380Y-15301500D02*
X-6706500Y-15301500D01*
X-6706500Y-15301500D02*
X-6706500Y-16698500D01*
X-6706500Y-16698500D02*
X-6000380Y-16698500D01*
X-4293500Y-15301500D02*
X-4999620Y-15301500D01*
X-4293500Y-15301500D02*
X-4293500Y-16698500D01*
X-4293500Y-16698500D02*
X-4999620Y-16698500D01*
X-6000380Y-12301500D02*
X-6706500Y-12301500D01*
X-6706500Y-12301500D02*
X-6706500Y-13698500D01*
X-6706500Y-13698500D02*
X-6000380Y-13698500D01*
X-4293500Y-12301500D02*
X-4999620Y-12301500D01*
X-4293500Y-12301500D02*
X-4293500Y-13698500D01*
X-4293500Y-13698500D02*
X-4999620Y-13698500D01*
D14*
X-664910Y-13649480D02*
G75*
G03X-664910Y-13649480I-159070J0D01*
G01*
X-3270000Y-14508000D02*
X-3270000Y-13492000D01*
X-666500Y-14508000D02*
X-666500Y-13492000D01*
X-3270000Y-13492000D02*
X-666500Y-13492000D01*
X-666500Y-14508000D02*
X-3270000Y-14508000D01*
D10*
G36*
X-11698000Y-17136889D02*
X-11698000Y-17186278D01*
X-11698000Y-17235667D01*
X-11571000Y-17235667D01*
X-11444000Y-17235667D01*
X-11444000Y-17355611D01*
X-11444000Y-17475555D01*
X-11571000Y-17475555D01*
X-11698000Y-17475555D01*
X-11698000Y-17524944D01*
X-11698000Y-17574333D01*
X-11916723Y-17574333D01*
X-12135445Y-17574333D01*
X-12135445Y-17355611D01*
X-12135445Y-17136889D01*
X-11916723Y-17136889D01*
X-11698000Y-17136889D01*
X-11698000Y-17136889D01*
X-11698000Y-17136889D01*
G37*
X-11698000Y-17136889D02*
X-11698000Y-17186278D01*
X-11698000Y-17235667D01*
X-11571000Y-17235667D01*
X-11444000Y-17235667D01*
X-11444000Y-17355611D01*
X-11444000Y-17475555D01*
X-11571000Y-17475555D01*
X-11698000Y-17475555D01*
X-11698000Y-17524944D01*
X-11698000Y-17574333D01*
X-11916723Y-17574333D01*
X-12135445Y-17574333D01*
X-12135445Y-17355611D01*
X-12135445Y-17136889D01*
X-11916723Y-17136889D01*
X-11698000Y-17136889D01*
X-11698000Y-17136889D01*
G36*
X-11698000Y-16403111D02*
X-11698000Y-16452500D01*
X-11698000Y-16501889D01*
X-11571000Y-16501889D01*
X-11444000Y-16501889D01*
X-11444000Y-16621833D01*
X-11444000Y-16741778D01*
X-11571000Y-16741778D01*
X-11698000Y-16741778D01*
X-11698000Y-16784111D01*
X-11698000Y-16826444D01*
X-11916723Y-16826444D01*
X-12135445Y-16826444D01*
X-12135445Y-16614778D01*
X-12135445Y-16403111D01*
X-11916723Y-16403111D01*
X-11698000Y-16403111D01*
X-11698000Y-16403111D01*
X-11698000Y-16403111D01*
G37*
X-11698000Y-16403111D02*
X-11698000Y-16452500D01*
X-11698000Y-16501889D01*
X-11571000Y-16501889D01*
X-11444000Y-16501889D01*
X-11444000Y-16621833D01*
X-11444000Y-16741778D01*
X-11571000Y-16741778D01*
X-11698000Y-16741778D01*
X-11698000Y-16784111D01*
X-11698000Y-16826444D01*
X-11916723Y-16826444D01*
X-12135445Y-16826444D01*
X-12135445Y-16614778D01*
X-12135445Y-16403111D01*
X-11916723Y-16403111D01*
X-11698000Y-16403111D01*
X-11698000Y-16403111D01*
G36*
X-11698000Y-15669333D02*
X-11698000Y-15711667D01*
X-11698000Y-15754000D01*
X-11571000Y-15754000D01*
X-11444000Y-15754000D01*
X-11444000Y-15873944D01*
X-11444000Y-15993889D01*
X-11571000Y-15993889D01*
X-11698000Y-15993889D01*
X-11698000Y-16043278D01*
X-11698000Y-16092667D01*
X-11916723Y-16092667D01*
X-12135445Y-16092667D01*
X-12135445Y-15881000D01*
X-12135445Y-15669333D01*
X-11916723Y-15669333D01*
X-11698000Y-15669333D01*
X-11698000Y-15669333D01*
X-11698000Y-15669333D01*
G37*
X-11698000Y-15669333D02*
X-11698000Y-15711667D01*
X-11698000Y-15754000D01*
X-11571000Y-15754000D01*
X-11444000Y-15754000D01*
X-11444000Y-15873944D01*
X-11444000Y-15993889D01*
X-11571000Y-15993889D01*
X-11698000Y-15993889D01*
X-11698000Y-16043278D01*
X-11698000Y-16092667D01*
X-11916723Y-16092667D01*
X-12135445Y-16092667D01*
X-12135445Y-15881000D01*
X-12135445Y-15669333D01*
X-11916723Y-15669333D01*
X-11698000Y-15669333D01*
X-11698000Y-15669333D01*
G36*
X-11698000Y-14921444D02*
X-11698000Y-14970833D01*
X-11698000Y-15020222D01*
X-11571000Y-15020222D01*
X-11444000Y-15020222D01*
X-11444000Y-15140167D01*
X-11444000Y-15260111D01*
X-11571000Y-15260111D01*
X-11698000Y-15260111D01*
X-11698000Y-15302444D01*
X-11698000Y-15344778D01*
X-11916723Y-15344778D01*
X-12135445Y-15344778D01*
X-12135445Y-15133111D01*
X-12135445Y-14921444D01*
X-11916723Y-14921444D01*
X-11698000Y-14921444D01*
X-11698000Y-14921444D01*
X-11698000Y-14921444D01*
G37*
X-11698000Y-14921444D02*
X-11698000Y-14970833D01*
X-11698000Y-15020222D01*
X-11571000Y-15020222D01*
X-11444000Y-15020222D01*
X-11444000Y-15140167D01*
X-11444000Y-15260111D01*
X-11571000Y-15260111D01*
X-11698000Y-15260111D01*
X-11698000Y-15302444D01*
X-11698000Y-15344778D01*
X-11916723Y-15344778D01*
X-12135445Y-15344778D01*
X-12135445Y-15133111D01*
X-12135445Y-14921444D01*
X-11916723Y-14921444D01*
X-11698000Y-14921444D01*
X-11698000Y-14921444D01*
G36*
X-11698000Y-14187667D02*
X-11698000Y-14230000D01*
X-11698000Y-14272333D01*
X-11571000Y-14272333D01*
X-11444000Y-14272333D01*
X-11444000Y-14392278D01*
X-11444000Y-14512222D01*
X-11571000Y-14512222D01*
X-11698000Y-14512222D01*
X-11698000Y-14561611D01*
X-11698000Y-14611000D01*
X-11916723Y-14611000D01*
X-12135445Y-14611000D01*
X-12135445Y-14399333D01*
X-12135445Y-14187667D01*
X-11916723Y-14187667D01*
X-11698000Y-14187667D01*
X-11698000Y-14187667D01*
X-11698000Y-14187667D01*
G37*
X-11698000Y-14187667D02*
X-11698000Y-14230000D01*
X-11698000Y-14272333D01*
X-11571000Y-14272333D01*
X-11444000Y-14272333D01*
X-11444000Y-14392278D01*
X-11444000Y-14512222D01*
X-11571000Y-14512222D01*
X-11698000Y-14512222D01*
X-11698000Y-14561611D01*
X-11698000Y-14611000D01*
X-11916723Y-14611000D01*
X-12135445Y-14611000D01*
X-12135445Y-14399333D01*
X-12135445Y-14187667D01*
X-11916723Y-14187667D01*
X-11698000Y-14187667D01*
X-11698000Y-14187667D01*
G36*
X-11698000Y-13439778D02*
X-11698000Y-13489167D01*
X-11698000Y-13538555D01*
X-11571000Y-13538555D01*
X-11444000Y-13538555D01*
X-11444000Y-13658500D01*
X-11444000Y-13778444D01*
X-11571000Y-13778444D01*
X-11698000Y-13778444D01*
X-11698000Y-13820778D01*
X-11698000Y-13863111D01*
X-11916723Y-13863111D01*
X-12135445Y-13863111D01*
X-12135445Y-13651444D01*
X-12135445Y-13439778D01*
X-11916723Y-13439778D01*
X-11698000Y-13439778D01*
X-11698000Y-13439778D01*
X-11698000Y-13439778D01*
G37*
X-11698000Y-13439778D02*
X-11698000Y-13489167D01*
X-11698000Y-13538555D01*
X-11571000Y-13538555D01*
X-11444000Y-13538555D01*
X-11444000Y-13658500D01*
X-11444000Y-13778444D01*
X-11571000Y-13778444D01*
X-11698000Y-13778444D01*
X-11698000Y-13820778D01*
X-11698000Y-13863111D01*
X-11916723Y-13863111D01*
X-12135445Y-13863111D01*
X-12135445Y-13651444D01*
X-12135445Y-13439778D01*
X-11916723Y-13439778D01*
X-11698000Y-13439778D01*
X-11698000Y-13439778D01*
G36*
X-12276556Y-12804778D02*
X-12276556Y-13256333D01*
X-15007056Y-13256333D01*
X-15275204Y-13256369D01*
X-15516522Y-13256485D01*
X-15732399Y-13256698D01*
X-15924226Y-13257023D01*
X-16093394Y-13257474D01*
X-16241295Y-13258067D01*
X-16369319Y-13258816D01*
X-16478856Y-13259738D01*
X-16571298Y-13260847D01*
X-16648036Y-13262159D01*
X-16710460Y-13263688D01*
X-16759962Y-13265450D01*
X-16797931Y-13267459D01*
X-16825760Y-13269732D01*
X-16844838Y-13272283D01*
X-16856557Y-13275127D01*
X-16859840Y-13276528D01*
X-16882552Y-13293460D01*
X-16920383Y-13326920D01*
X-16969314Y-13372870D01*
X-17025328Y-13427269D01*
X-17084406Y-13486079D01*
X-17142532Y-13545260D01*
X-17195687Y-13600773D01*
X-17239852Y-13648579D01*
X-17271012Y-13684638D01*
X-17284476Y-13703433D01*
X-17286999Y-13717928D01*
X-17289277Y-13751497D01*
X-17291317Y-13804922D01*
X-17293125Y-13878987D01*
X-17294708Y-13974474D01*
X-17296074Y-14092168D01*
X-17297228Y-14232850D01*
X-17298179Y-14397303D01*
X-17298931Y-14586312D01*
X-17299493Y-14800659D01*
X-17299872Y-15041128D01*
X-17300073Y-15308500D01*
X-17300112Y-15506829D01*
X-17300075Y-15771730D01*
X-17299955Y-16009817D01*
X-17299736Y-16222497D01*
X-17299402Y-16411177D01*
X-17298937Y-16577267D01*
X-17298326Y-16722172D01*
X-17297553Y-16847301D01*
X-17296603Y-16954062D01*
X-17295459Y-17043861D01*
X-17294106Y-17118108D01*
X-17292528Y-17178209D01*
X-17290710Y-17225572D01*
X-17288635Y-17261604D01*
X-17286289Y-17287714D01*
X-17283655Y-17305309D01*
X-17280718Y-17315797D01*
X-17279917Y-17317506D01*
X-17262985Y-17340219D01*
X-17229524Y-17378049D01*
X-17183575Y-17426980D01*
X-17129176Y-17482994D01*
X-17070366Y-17542073D01*
X-17011185Y-17600198D01*
X-16955672Y-17653353D01*
X-16907866Y-17697519D01*
X-16871807Y-17728678D01*
X-16853011Y-17742143D01*
X-16838591Y-17744641D01*
X-16805144Y-17746899D01*
X-16751893Y-17748924D01*
X-16678059Y-17750721D01*
X-16582864Y-17752298D01*
X-16465530Y-17753662D01*
X-16325279Y-17754818D01*
X-16161334Y-17755773D01*
X-15972916Y-17756535D01*
X-15759246Y-17757110D01*
X-15519548Y-17757503D01*
X-15253043Y-17757723D01*
X-15014477Y-17757778D01*
X-14751479Y-17757768D01*
X-14515222Y-17757724D01*
X-14304224Y-17757624D01*
X-14117005Y-17757447D01*
X-13952082Y-17757171D01*
X-13807975Y-17756774D01*
X-13683203Y-17756235D01*
X-13576283Y-17755531D01*
X-13485735Y-17754642D01*
X-13410077Y-17753545D01*
X-13347828Y-17752220D01*
X-13297506Y-17750643D01*
X-13257631Y-17748794D01*
X-13226720Y-17746650D01*
X-13203294Y-17744191D01*
X-13185869Y-17741395D01*
X-13172966Y-17738239D01*
X-13163102Y-17734702D01*
X-13154796Y-17730763D01*
X-13154410Y-17730563D01*
X-13128840Y-17712311D01*
X-13088208Y-17677619D01*
X-13036744Y-17630646D01*
X-12978676Y-17575552D01*
X-12918233Y-17516498D01*
X-12859644Y-17457643D01*
X-12807138Y-17403148D01*
X-12764943Y-17357172D01*
X-12737288Y-17323876D01*
X-12730232Y-17313278D01*
X-12727897Y-17295067D01*
X-12725736Y-17250708D01*
X-12723749Y-17182271D01*
X-12721936Y-17091830D01*
X-12720297Y-16981458D01*
X-12718833Y-16853226D01*
X-12717545Y-16709207D01*
X-12716432Y-16551474D01*
X-12715495Y-16382099D01*
X-12714734Y-16203155D01*
X-12714150Y-16016713D01*
X-12713743Y-15824847D01*
X-12713513Y-15629629D01*
X-12713461Y-15433132D01*
X-12713586Y-15237427D01*
X-12713890Y-15044588D01*
X-12714373Y-14856687D01*
X-12715034Y-14675795D01*
X-12715875Y-14503987D01*
X-12716896Y-14343334D01*
X-12718097Y-14195909D01*
X-12719477Y-14063784D01*
X-12721039Y-13949031D01*
X-12722782Y-13853724D01*
X-12724706Y-13779934D01*
X-12726812Y-13729735D01*
X-12729100Y-13705198D01*
X-12729635Y-13703433D01*
X-12746042Y-13681038D01*
X-12778987Y-13643344D01*
X-12824452Y-13594392D01*
X-12878421Y-13538221D01*
X-12936876Y-13478871D01*
X-12995797Y-13420379D01*
X-13051168Y-13366787D01*
X-13098971Y-13322132D01*
X-13135188Y-13290455D01*
X-13154272Y-13276528D01*
X-13163092Y-13273545D01*
X-13178637Y-13270862D01*
X-13202296Y-13268464D01*
X-13235462Y-13266336D01*
X-13279523Y-13264463D01*
X-13335873Y-13262829D01*
X-13405901Y-13261420D01*
X-13490997Y-13260221D01*
X-13592554Y-13259215D01*
X-13711962Y-13258389D01*
X-13850612Y-13257726D01*
X-14009894Y-13257212D01*
X-14191200Y-13256832D01*
X-14395920Y-13256570D01*
X-14625445Y-13256411D01*
X-14881167Y-13256340D01*
X-15007056Y-13256333D01*
X-12276556Y-13256333D01*
X-12276556Y-15507055D01*
X-12276556Y-18209333D01*
X-15014111Y-18209333D01*
X-17751667Y-18209333D01*
X-17751667Y-15507055D01*
X-17751667Y-12804778D01*
X-15014111Y-12804778D01*
X-12276556Y-12804778D01*
X-12276556Y-12804778D01*
X-12276556Y-12804778D01*
G37*
X-12276556Y-12804778D02*
X-12276556Y-13256333D01*
X-15007056Y-13256333D01*
X-15275204Y-13256369D01*
X-15516522Y-13256485D01*
X-15732399Y-13256698D01*
X-15924226Y-13257023D01*
X-16093394Y-13257474D01*
X-16241295Y-13258067D01*
X-16369319Y-13258816D01*
X-16478856Y-13259738D01*
X-16571298Y-13260847D01*
X-16648036Y-13262159D01*
X-16710460Y-13263688D01*
X-16759962Y-13265450D01*
X-16797931Y-13267459D01*
X-16825760Y-13269732D01*
X-16844838Y-13272283D01*
X-16856557Y-13275127D01*
X-16859840Y-13276528D01*
X-16882552Y-13293460D01*
X-16920383Y-13326920D01*
X-16969314Y-13372870D01*
X-17025328Y-13427269D01*
X-17084406Y-13486079D01*
X-17142532Y-13545260D01*
X-17195687Y-13600773D01*
X-17239852Y-13648579D01*
X-17271012Y-13684638D01*
X-17284476Y-13703433D01*
X-17286999Y-13717928D01*
X-17289277Y-13751497D01*
X-17291317Y-13804922D01*
X-17293125Y-13878987D01*
X-17294708Y-13974474D01*
X-17296074Y-14092168D01*
X-17297228Y-14232850D01*
X-17298179Y-14397303D01*
X-17298931Y-14586312D01*
X-17299493Y-14800659D01*
X-17299872Y-15041128D01*
X-17300073Y-15308500D01*
X-17300112Y-15506829D01*
X-17300075Y-15771730D01*
X-17299955Y-16009817D01*
X-17299736Y-16222497D01*
X-17299402Y-16411177D01*
X-17298937Y-16577267D01*
X-17298326Y-16722172D01*
X-17297553Y-16847301D01*
X-17296603Y-16954062D01*
X-17295459Y-17043861D01*
X-17294106Y-17118108D01*
X-17292528Y-17178209D01*
X-17290710Y-17225572D01*
X-17288635Y-17261604D01*
X-17286289Y-17287714D01*
X-17283655Y-17305309D01*
X-17280718Y-17315797D01*
X-17279917Y-17317506D01*
X-17262985Y-17340219D01*
X-17229524Y-17378049D01*
X-17183575Y-17426980D01*
X-17129176Y-17482994D01*
X-17070366Y-17542073D01*
X-17011185Y-17600198D01*
X-16955672Y-17653353D01*
X-16907866Y-17697519D01*
X-16871807Y-17728678D01*
X-16853011Y-17742143D01*
X-16838591Y-17744641D01*
X-16805144Y-17746899D01*
X-16751893Y-17748924D01*
X-16678059Y-17750721D01*
X-16582864Y-17752298D01*
X-16465530Y-17753662D01*
X-16325279Y-17754818D01*
X-16161334Y-17755773D01*
X-15972916Y-17756535D01*
X-15759246Y-17757110D01*
X-15519548Y-17757503D01*
X-15253043Y-17757723D01*
X-15014477Y-17757778D01*
X-14751479Y-17757768D01*
X-14515222Y-17757724D01*
X-14304224Y-17757624D01*
X-14117005Y-17757447D01*
X-13952082Y-17757171D01*
X-13807975Y-17756774D01*
X-13683203Y-17756235D01*
X-13576283Y-17755531D01*
X-13485735Y-17754642D01*
X-13410077Y-17753545D01*
X-13347828Y-17752220D01*
X-13297506Y-17750643D01*
X-13257631Y-17748794D01*
X-13226720Y-17746650D01*
X-13203294Y-17744191D01*
X-13185869Y-17741395D01*
X-13172966Y-17738239D01*
X-13163102Y-17734702D01*
X-13154796Y-17730763D01*
X-13154410Y-17730563D01*
X-13128840Y-17712311D01*
X-13088208Y-17677619D01*
X-13036744Y-17630646D01*
X-12978676Y-17575552D01*
X-12918233Y-17516498D01*
X-12859644Y-17457643D01*
X-12807138Y-17403148D01*
X-12764943Y-17357172D01*
X-12737288Y-17323876D01*
X-12730232Y-17313278D01*
X-12727897Y-17295067D01*
X-12725736Y-17250708D01*
X-12723749Y-17182271D01*
X-12721936Y-17091830D01*
X-12720297Y-16981458D01*
X-12718833Y-16853226D01*
X-12717545Y-16709207D01*
X-12716432Y-16551474D01*
X-12715495Y-16382099D01*
X-12714734Y-16203155D01*
X-12714150Y-16016713D01*
X-12713743Y-15824847D01*
X-12713513Y-15629629D01*
X-12713461Y-15433132D01*
X-12713586Y-15237427D01*
X-12713890Y-15044588D01*
X-12714373Y-14856687D01*
X-12715034Y-14675795D01*
X-12715875Y-14503987D01*
X-12716896Y-14343334D01*
X-12718097Y-14195909D01*
X-12719477Y-14063784D01*
X-12721039Y-13949031D01*
X-12722782Y-13853724D01*
X-12724706Y-13779934D01*
X-12726812Y-13729735D01*
X-12729100Y-13705198D01*
X-12729635Y-13703433D01*
X-12746042Y-13681038D01*
X-12778987Y-13643344D01*
X-12824452Y-13594392D01*
X-12878421Y-13538221D01*
X-12936876Y-13478871D01*
X-12995797Y-13420379D01*
X-13051168Y-13366787D01*
X-13098971Y-13322132D01*
X-13135188Y-13290455D01*
X-13154272Y-13276528D01*
X-13163092Y-13273545D01*
X-13178637Y-13270862D01*
X-13202296Y-13268464D01*
X-13235462Y-13266336D01*
X-13279523Y-13264463D01*
X-13335873Y-13262829D01*
X-13405901Y-13261420D01*
X-13490997Y-13260221D01*
X-13592554Y-13259215D01*
X-13711962Y-13258389D01*
X-13850612Y-13257726D01*
X-14009894Y-13257212D01*
X-14191200Y-13256832D01*
X-14395920Y-13256570D01*
X-14625445Y-13256411D01*
X-14881167Y-13256340D01*
X-15007056Y-13256333D01*
X-12276556Y-13256333D01*
X-12276556Y-15507055D01*
X-12276556Y-18209333D01*
X-15014111Y-18209333D01*
X-17751667Y-18209333D01*
X-17751667Y-15507055D01*
X-17751667Y-12804778D01*
X-15014111Y-12804778D01*
X-12276556Y-12804778D01*
X-12276556Y-12804778D01*
G36*
X-12939778Y-18378667D02*
X-12939778Y-18597389D01*
X-12939778Y-18816111D01*
X-12989167Y-18816111D01*
X-13038556Y-18816111D01*
X-13038556Y-18943111D01*
X-13038556Y-19070111D01*
X-13158500Y-19070111D01*
X-13278445Y-19070111D01*
X-13278445Y-18943111D01*
X-13278445Y-18816111D01*
X-13327834Y-18816111D01*
X-13377223Y-18816111D01*
X-13377223Y-18597389D01*
X-13377223Y-18378667D01*
X-13158500Y-18378667D01*
X-12939778Y-18378667D01*
X-12939778Y-18378667D01*
X-12939778Y-18378667D01*
G37*
X-12939778Y-18378667D02*
X-12939778Y-18597389D01*
X-12939778Y-18816111D01*
X-12989167Y-18816111D01*
X-13038556Y-18816111D01*
X-13038556Y-18943111D01*
X-13038556Y-19070111D01*
X-13158500Y-19070111D01*
X-13278445Y-19070111D01*
X-13278445Y-18943111D01*
X-13278445Y-18816111D01*
X-13327834Y-18816111D01*
X-13377223Y-18816111D01*
X-13377223Y-18597389D01*
X-13377223Y-18378667D01*
X-13158500Y-18378667D01*
X-12939778Y-18378667D01*
X-12939778Y-18378667D01*
G36*
X-13038556Y-11929889D02*
X-13038556Y-12063944D01*
X-13038556Y-12198000D01*
X-12989167Y-12198000D01*
X-12939778Y-12198000D01*
X-12939778Y-12416722D01*
X-12939778Y-12635444D01*
X-13158500Y-12635444D01*
X-13377223Y-12635444D01*
X-13377223Y-12416722D01*
X-13377223Y-12198000D01*
X-13327834Y-12198000D01*
X-13278445Y-12198000D01*
X-13278445Y-12063944D01*
X-13278445Y-11929889D01*
X-13158500Y-11929889D01*
X-13038556Y-11929889D01*
X-13038556Y-11929889D01*
X-13038556Y-11929889D01*
G37*
X-13038556Y-11929889D02*
X-13038556Y-12063944D01*
X-13038556Y-12198000D01*
X-12989167Y-12198000D01*
X-12939778Y-12198000D01*
X-12939778Y-12416722D01*
X-12939778Y-12635444D01*
X-13158500Y-12635444D01*
X-13377223Y-12635444D01*
X-13377223Y-12416722D01*
X-13377223Y-12198000D01*
X-13327834Y-12198000D01*
X-13278445Y-12198000D01*
X-13278445Y-12063944D01*
X-13278445Y-11929889D01*
X-13158500Y-11929889D01*
X-13038556Y-11929889D01*
X-13038556Y-11929889D01*
G36*
X-13687667Y-18378667D02*
X-13687667Y-18597389D01*
X-13687667Y-18816111D01*
X-13730000Y-18816111D01*
X-13772334Y-18816111D01*
X-13772334Y-18943111D01*
X-13772334Y-19070111D01*
X-13892278Y-19070111D01*
X-14012223Y-19070111D01*
X-14012223Y-18943111D01*
X-14012223Y-18816111D01*
X-14061611Y-18816111D01*
X-14111000Y-18816111D01*
X-14111000Y-18597389D01*
X-14111000Y-18378667D01*
X-13899334Y-18378667D01*
X-13687667Y-18378667D01*
X-13687667Y-18378667D01*
X-13687667Y-18378667D01*
G37*
X-13687667Y-18378667D02*
X-13687667Y-18597389D01*
X-13687667Y-18816111D01*
X-13730000Y-18816111D01*
X-13772334Y-18816111D01*
X-13772334Y-18943111D01*
X-13772334Y-19070111D01*
X-13892278Y-19070111D01*
X-14012223Y-19070111D01*
X-14012223Y-18943111D01*
X-14012223Y-18816111D01*
X-14061611Y-18816111D01*
X-14111000Y-18816111D01*
X-14111000Y-18597389D01*
X-14111000Y-18378667D01*
X-13899334Y-18378667D01*
X-13687667Y-18378667D01*
X-13687667Y-18378667D01*
G36*
X-13772334Y-11929889D02*
X-13772334Y-12063944D01*
X-13772334Y-12198000D01*
X-13730000Y-12198000D01*
X-13687667Y-12198000D01*
X-13687667Y-12416722D01*
X-13687667Y-12635444D01*
X-13899334Y-12635444D01*
X-14111000Y-12635444D01*
X-14111000Y-12416722D01*
X-14111000Y-12198000D01*
X-14061611Y-12198000D01*
X-14012223Y-12198000D01*
X-14012223Y-12063944D01*
X-14012223Y-11929889D01*
X-13892278Y-11929889D01*
X-13772334Y-11929889D01*
X-13772334Y-11929889D01*
X-13772334Y-11929889D01*
G37*
X-13772334Y-11929889D02*
X-13772334Y-12063944D01*
X-13772334Y-12198000D01*
X-13730000Y-12198000D01*
X-13687667Y-12198000D01*
X-13687667Y-12416722D01*
X-13687667Y-12635444D01*
X-13899334Y-12635444D01*
X-14111000Y-12635444D01*
X-14111000Y-12416722D01*
X-14111000Y-12198000D01*
X-14061611Y-12198000D01*
X-14012223Y-12198000D01*
X-14012223Y-12063944D01*
X-14012223Y-11929889D01*
X-13892278Y-11929889D01*
X-13772334Y-11929889D01*
X-13772334Y-11929889D01*
G36*
X-14421445Y-18378667D02*
X-14421445Y-18597389D01*
X-14421445Y-18816111D01*
X-14470834Y-18816111D01*
X-14520223Y-18816111D01*
X-14520223Y-18943111D01*
X-14520223Y-19070111D01*
X-14640167Y-19070111D01*
X-14760111Y-19070111D01*
X-14760111Y-18943111D01*
X-14760111Y-18816111D01*
X-14802445Y-18816111D01*
X-14844778Y-18816111D01*
X-14844778Y-18597389D01*
X-14844778Y-18378667D01*
X-14633111Y-18378667D01*
X-14421445Y-18378667D01*
X-14421445Y-18378667D01*
X-14421445Y-18378667D01*
G37*
X-14421445Y-18378667D02*
X-14421445Y-18597389D01*
X-14421445Y-18816111D01*
X-14470834Y-18816111D01*
X-14520223Y-18816111D01*
X-14520223Y-18943111D01*
X-14520223Y-19070111D01*
X-14640167Y-19070111D01*
X-14760111Y-19070111D01*
X-14760111Y-18943111D01*
X-14760111Y-18816111D01*
X-14802445Y-18816111D01*
X-14844778Y-18816111D01*
X-14844778Y-18597389D01*
X-14844778Y-18378667D01*
X-14633111Y-18378667D01*
X-14421445Y-18378667D01*
X-14421445Y-18378667D01*
G36*
X-14520223Y-11929889D02*
X-14520223Y-12063944D01*
X-14520223Y-12198000D01*
X-14470834Y-12198000D01*
X-14421445Y-12198000D01*
X-14421445Y-12416722D01*
X-14421445Y-12635444D01*
X-14633111Y-12635444D01*
X-14844778Y-12635444D01*
X-14844778Y-12416722D01*
X-14844778Y-12198000D01*
X-14802445Y-12198000D01*
X-14760111Y-12198000D01*
X-14760111Y-12063944D01*
X-14760111Y-11929889D01*
X-14640167Y-11929889D01*
X-14520223Y-11929889D01*
X-14520223Y-11929889D01*
X-14520223Y-11929889D01*
G37*
X-14520223Y-11929889D02*
X-14520223Y-12063944D01*
X-14520223Y-12198000D01*
X-14470834Y-12198000D01*
X-14421445Y-12198000D01*
X-14421445Y-12416722D01*
X-14421445Y-12635444D01*
X-14633111Y-12635444D01*
X-14844778Y-12635444D01*
X-14844778Y-12416722D01*
X-14844778Y-12198000D01*
X-14802445Y-12198000D01*
X-14760111Y-12198000D01*
X-14760111Y-12063944D01*
X-14760111Y-11929889D01*
X-14640167Y-11929889D01*
X-14520223Y-11929889D01*
X-14520223Y-11929889D01*
G36*
X-15169334Y-18378667D02*
X-15169334Y-18597389D01*
X-15169334Y-18816111D01*
X-15211667Y-18816111D01*
X-15254000Y-18816111D01*
X-15254000Y-18943111D01*
X-15254000Y-19070111D01*
X-15373945Y-19070111D01*
X-15493889Y-19070111D01*
X-15493889Y-18943111D01*
X-15493889Y-18816111D01*
X-15543278Y-18816111D01*
X-15592667Y-18816111D01*
X-15592667Y-18597389D01*
X-15592667Y-18378667D01*
X-15381000Y-18378667D01*
X-15169334Y-18378667D01*
X-15169334Y-18378667D01*
X-15169334Y-18378667D01*
G37*
X-15169334Y-18378667D02*
X-15169334Y-18597389D01*
X-15169334Y-18816111D01*
X-15211667Y-18816111D01*
X-15254000Y-18816111D01*
X-15254000Y-18943111D01*
X-15254000Y-19070111D01*
X-15373945Y-19070111D01*
X-15493889Y-19070111D01*
X-15493889Y-18943111D01*
X-15493889Y-18816111D01*
X-15543278Y-18816111D01*
X-15592667Y-18816111D01*
X-15592667Y-18597389D01*
X-15592667Y-18378667D01*
X-15381000Y-18378667D01*
X-15169334Y-18378667D01*
X-15169334Y-18378667D01*
G36*
X-15254000Y-11929889D02*
X-15254000Y-12063944D01*
X-15254000Y-12198000D01*
X-15211667Y-12198000D01*
X-15169334Y-12198000D01*
X-15169334Y-12416722D01*
X-15169334Y-12635444D01*
X-15381000Y-12635444D01*
X-15592667Y-12635444D01*
X-15592667Y-12416722D01*
X-15592667Y-12198000D01*
X-15543278Y-12198000D01*
X-15493889Y-12198000D01*
X-15493889Y-12063944D01*
X-15493889Y-11929889D01*
X-15373945Y-11929889D01*
X-15254000Y-11929889D01*
X-15254000Y-11929889D01*
X-15254000Y-11929889D01*
G37*
X-15254000Y-11929889D02*
X-15254000Y-12063944D01*
X-15254000Y-12198000D01*
X-15211667Y-12198000D01*
X-15169334Y-12198000D01*
X-15169334Y-12416722D01*
X-15169334Y-12635444D01*
X-15381000Y-12635444D01*
X-15592667Y-12635444D01*
X-15592667Y-12416722D01*
X-15592667Y-12198000D01*
X-15543278Y-12198000D01*
X-15493889Y-12198000D01*
X-15493889Y-12063944D01*
X-15493889Y-11929889D01*
X-15373945Y-11929889D01*
X-15254000Y-11929889D01*
X-15254000Y-11929889D01*
G36*
X-15903111Y-18378667D02*
X-15903111Y-18597389D01*
X-15903111Y-18816111D01*
X-15952500Y-18816111D01*
X-16001889Y-18816111D01*
X-16001889Y-18943111D01*
X-16001889Y-19070111D01*
X-16121834Y-19070111D01*
X-16241778Y-19070111D01*
X-16241778Y-18943111D01*
X-16241778Y-18816111D01*
X-16284111Y-18816111D01*
X-16326445Y-18816111D01*
X-16326445Y-18597389D01*
X-16326445Y-18378667D01*
X-16114778Y-18378667D01*
X-15903111Y-18378667D01*
X-15903111Y-18378667D01*
X-15903111Y-18378667D01*
G37*
X-15903111Y-18378667D02*
X-15903111Y-18597389D01*
X-15903111Y-18816111D01*
X-15952500Y-18816111D01*
X-16001889Y-18816111D01*
X-16001889Y-18943111D01*
X-16001889Y-19070111D01*
X-16121834Y-19070111D01*
X-16241778Y-19070111D01*
X-16241778Y-18943111D01*
X-16241778Y-18816111D01*
X-16284111Y-18816111D01*
X-16326445Y-18816111D01*
X-16326445Y-18597389D01*
X-16326445Y-18378667D01*
X-16114778Y-18378667D01*
X-15903111Y-18378667D01*
X-15903111Y-18378667D01*
G36*
X-16001889Y-11929889D02*
X-16001889Y-12063944D01*
X-16001889Y-12198000D01*
X-15952500Y-12198000D01*
X-15903111Y-12198000D01*
X-15903111Y-12416722D01*
X-15903111Y-12635444D01*
X-16114778Y-12635444D01*
X-16326445Y-12635444D01*
X-16326445Y-12416722D01*
X-16326445Y-12198000D01*
X-16284111Y-12198000D01*
X-16241778Y-12198000D01*
X-16241778Y-12063944D01*
X-16241778Y-11929889D01*
X-16121834Y-11929889D01*
X-16001889Y-11929889D01*
X-16001889Y-11929889D01*
X-16001889Y-11929889D01*
G37*
X-16001889Y-11929889D02*
X-16001889Y-12063944D01*
X-16001889Y-12198000D01*
X-15952500Y-12198000D01*
X-15903111Y-12198000D01*
X-15903111Y-12416722D01*
X-15903111Y-12635444D01*
X-16114778Y-12635444D01*
X-16326445Y-12635444D01*
X-16326445Y-12416722D01*
X-16326445Y-12198000D01*
X-16284111Y-12198000D01*
X-16241778Y-12198000D01*
X-16241778Y-12063944D01*
X-16241778Y-11929889D01*
X-16121834Y-11929889D01*
X-16001889Y-11929889D01*
X-16001889Y-11929889D01*
G36*
X-16651000Y-18378667D02*
X-16651000Y-18597389D01*
X-16651000Y-18816111D01*
X-16693334Y-18816111D01*
X-16735667Y-18816111D01*
X-16735667Y-18943111D01*
X-16735667Y-19070111D01*
X-16855611Y-19070111D01*
X-16975556Y-19070111D01*
X-16975556Y-18943111D01*
X-16975556Y-18816111D01*
X-17024945Y-18816111D01*
X-17074334Y-18816111D01*
X-17074334Y-18597389D01*
X-17074334Y-18378667D01*
X-16862667Y-18378667D01*
X-16651000Y-18378667D01*
X-16651000Y-18378667D01*
X-16651000Y-18378667D01*
G37*
X-16651000Y-18378667D02*
X-16651000Y-18597389D01*
X-16651000Y-18816111D01*
X-16693334Y-18816111D01*
X-16735667Y-18816111D01*
X-16735667Y-18943111D01*
X-16735667Y-19070111D01*
X-16855611Y-19070111D01*
X-16975556Y-19070111D01*
X-16975556Y-18943111D01*
X-16975556Y-18816111D01*
X-17024945Y-18816111D01*
X-17074334Y-18816111D01*
X-17074334Y-18597389D01*
X-17074334Y-18378667D01*
X-16862667Y-18378667D01*
X-16651000Y-18378667D01*
X-16651000Y-18378667D01*
G36*
X-16735667Y-11929889D02*
X-16735667Y-12063944D01*
X-16735667Y-12198000D01*
X-16693334Y-12198000D01*
X-16651000Y-12198000D01*
X-16651000Y-12416722D01*
X-16651000Y-12635444D01*
X-16862667Y-12635444D01*
X-17074334Y-12635444D01*
X-17074334Y-12416722D01*
X-17074334Y-12198000D01*
X-17024945Y-12198000D01*
X-16975556Y-12198000D01*
X-16975556Y-12063944D01*
X-16975556Y-11929889D01*
X-16855611Y-11929889D01*
X-16735667Y-11929889D01*
X-16735667Y-11929889D01*
X-16735667Y-11929889D01*
G37*
X-16735667Y-11929889D02*
X-16735667Y-12063944D01*
X-16735667Y-12198000D01*
X-16693334Y-12198000D01*
X-16651000Y-12198000D01*
X-16651000Y-12416722D01*
X-16651000Y-12635444D01*
X-16862667Y-12635444D01*
X-17074334Y-12635444D01*
X-17074334Y-12416722D01*
X-17074334Y-12198000D01*
X-17024945Y-12198000D01*
X-16975556Y-12198000D01*
X-16975556Y-12063944D01*
X-16975556Y-11929889D01*
X-16855611Y-11929889D01*
X-16735667Y-11929889D01*
X-16735667Y-11929889D01*
G36*
X-17878667Y-17136889D02*
X-17878667Y-17355611D01*
X-17878667Y-17574333D01*
X-18097389Y-17574333D01*
X-18316111Y-17574333D01*
X-18316111Y-17524944D01*
X-18316111Y-17475555D01*
X-18450167Y-17475555D01*
X-18584223Y-17475555D01*
X-18584223Y-17355611D01*
X-18584223Y-17235667D01*
X-18450167Y-17235667D01*
X-18316111Y-17235667D01*
X-18316111Y-17186278D01*
X-18316111Y-17136889D01*
X-18097389Y-17136889D01*
X-17878667Y-17136889D01*
X-17878667Y-17136889D01*
X-17878667Y-17136889D01*
G37*
X-17878667Y-17136889D02*
X-17878667Y-17355611D01*
X-17878667Y-17574333D01*
X-18097389Y-17574333D01*
X-18316111Y-17574333D01*
X-18316111Y-17524944D01*
X-18316111Y-17475555D01*
X-18450167Y-17475555D01*
X-18584223Y-17475555D01*
X-18584223Y-17355611D01*
X-18584223Y-17235667D01*
X-18450167Y-17235667D01*
X-18316111Y-17235667D01*
X-18316111Y-17186278D01*
X-18316111Y-17136889D01*
X-18097389Y-17136889D01*
X-17878667Y-17136889D01*
X-17878667Y-17136889D01*
G36*
X-17878667Y-16403111D02*
X-17878667Y-16614778D01*
X-17878667Y-16826444D01*
X-18097389Y-16826444D01*
X-18316111Y-16826444D01*
X-18316111Y-16784111D01*
X-18316111Y-16741778D01*
X-18450167Y-16741778D01*
X-18584223Y-16741778D01*
X-18584223Y-16621833D01*
X-18584223Y-16501889D01*
X-18450167Y-16501889D01*
X-18316111Y-16501889D01*
X-18316111Y-16452500D01*
X-18316111Y-16403111D01*
X-18097389Y-16403111D01*
X-17878667Y-16403111D01*
X-17878667Y-16403111D01*
X-17878667Y-16403111D01*
G37*
X-17878667Y-16403111D02*
X-17878667Y-16614778D01*
X-17878667Y-16826444D01*
X-18097389Y-16826444D01*
X-18316111Y-16826444D01*
X-18316111Y-16784111D01*
X-18316111Y-16741778D01*
X-18450167Y-16741778D01*
X-18584223Y-16741778D01*
X-18584223Y-16621833D01*
X-18584223Y-16501889D01*
X-18450167Y-16501889D01*
X-18316111Y-16501889D01*
X-18316111Y-16452500D01*
X-18316111Y-16403111D01*
X-18097389Y-16403111D01*
X-17878667Y-16403111D01*
X-17878667Y-16403111D01*
G36*
X-17878667Y-15669333D02*
X-17878667Y-15881000D01*
X-17878667Y-16092667D01*
X-18097389Y-16092667D01*
X-18316111Y-16092667D01*
X-18316111Y-16043278D01*
X-18316111Y-15993889D01*
X-18450167Y-15993889D01*
X-18584223Y-15993889D01*
X-18584223Y-15873944D01*
X-18584223Y-15754000D01*
X-18450167Y-15754000D01*
X-18316111Y-15754000D01*
X-18316111Y-15711667D01*
X-18316111Y-15669333D01*
X-18097389Y-15669333D01*
X-17878667Y-15669333D01*
X-17878667Y-15669333D01*
X-17878667Y-15669333D01*
G37*
X-17878667Y-15669333D02*
X-17878667Y-15881000D01*
X-17878667Y-16092667D01*
X-18097389Y-16092667D01*
X-18316111Y-16092667D01*
X-18316111Y-16043278D01*
X-18316111Y-15993889D01*
X-18450167Y-15993889D01*
X-18584223Y-15993889D01*
X-18584223Y-15873944D01*
X-18584223Y-15754000D01*
X-18450167Y-15754000D01*
X-18316111Y-15754000D01*
X-18316111Y-15711667D01*
X-18316111Y-15669333D01*
X-18097389Y-15669333D01*
X-17878667Y-15669333D01*
X-17878667Y-15669333D01*
G36*
X-17878667Y-14921444D02*
X-17878667Y-15133111D01*
X-17878667Y-15344778D01*
X-18097389Y-15344778D01*
X-18316111Y-15344778D01*
X-18316111Y-15302444D01*
X-18316111Y-15260111D01*
X-18450167Y-15260111D01*
X-18584223Y-15260111D01*
X-18584223Y-15140167D01*
X-18584223Y-15020222D01*
X-18450167Y-15020222D01*
X-18316111Y-15020222D01*
X-18316111Y-14970833D01*
X-18316111Y-14921444D01*
X-18097389Y-14921444D01*
X-17878667Y-14921444D01*
X-17878667Y-14921444D01*
X-17878667Y-14921444D01*
G37*
X-17878667Y-14921444D02*
X-17878667Y-15133111D01*
X-17878667Y-15344778D01*
X-18097389Y-15344778D01*
X-18316111Y-15344778D01*
X-18316111Y-15302444D01*
X-18316111Y-15260111D01*
X-18450167Y-15260111D01*
X-18584223Y-15260111D01*
X-18584223Y-15140167D01*
X-18584223Y-15020222D01*
X-18450167Y-15020222D01*
X-18316111Y-15020222D01*
X-18316111Y-14970833D01*
X-18316111Y-14921444D01*
X-18097389Y-14921444D01*
X-17878667Y-14921444D01*
X-17878667Y-14921444D01*
G36*
X-17878667Y-14187667D02*
X-17878667Y-14399333D01*
X-17878667Y-14611000D01*
X-18097389Y-14611000D01*
X-18316111Y-14611000D01*
X-18316111Y-14561611D01*
X-18316111Y-14512222D01*
X-18450167Y-14512222D01*
X-18584223Y-14512222D01*
X-18584223Y-14392278D01*
X-18584223Y-14272333D01*
X-18450167Y-14272333D01*
X-18316111Y-14272333D01*
X-18316111Y-14230000D01*
X-18316111Y-14187667D01*
X-18097389Y-14187667D01*
X-17878667Y-14187667D01*
X-17878667Y-14187667D01*
X-17878667Y-14187667D01*
G37*
X-17878667Y-14187667D02*
X-17878667Y-14399333D01*
X-17878667Y-14611000D01*
X-18097389Y-14611000D01*
X-18316111Y-14611000D01*
X-18316111Y-14561611D01*
X-18316111Y-14512222D01*
X-18450167Y-14512222D01*
X-18584223Y-14512222D01*
X-18584223Y-14392278D01*
X-18584223Y-14272333D01*
X-18450167Y-14272333D01*
X-18316111Y-14272333D01*
X-18316111Y-14230000D01*
X-18316111Y-14187667D01*
X-18097389Y-14187667D01*
X-17878667Y-14187667D01*
X-17878667Y-14187667D01*
G36*
X-17878667Y-13439778D02*
X-17878667Y-13651444D01*
X-17878667Y-13863111D01*
X-18097389Y-13863111D01*
X-18316111Y-13863111D01*
X-18316111Y-13820778D01*
X-18316111Y-13778444D01*
X-18450167Y-13778444D01*
X-18584223Y-13778444D01*
X-18584223Y-13658500D01*
X-18584223Y-13538555D01*
X-18450167Y-13538555D01*
X-18316111Y-13538555D01*
X-18316111Y-13489167D01*
X-18316111Y-13439778D01*
X-18097389Y-13439778D01*
X-17878667Y-13439778D01*
X-17878667Y-13439778D01*
X-17878667Y-13439778D01*
G37*
X-17878667Y-13439778D02*
X-17878667Y-13651444D01*
X-17878667Y-13863111D01*
X-18097389Y-13863111D01*
X-18316111Y-13863111D01*
X-18316111Y-13820778D01*
X-18316111Y-13778444D01*
X-18450167Y-13778444D01*
X-18584223Y-13778444D01*
X-18584223Y-13658500D01*
X-18584223Y-13538555D01*
X-18450167Y-13538555D01*
X-18316111Y-13538555D01*
X-18316111Y-13489167D01*
X-18316111Y-13439778D01*
X-18097389Y-13439778D01*
X-17878667Y-13439778D01*
X-17878667Y-13439778D01*
G36*
X-13349204Y-13595000D02*
X-13207991Y-13734642D01*
X-13066778Y-13874283D01*
X-13066778Y-14124210D01*
X-15167875Y-14124210D01*
X-15278979Y-14131816D01*
X-15377785Y-14147382D01*
X-15413182Y-14156246D01*
X-15523406Y-14195069D01*
X-15643765Y-14249759D01*
X-15764984Y-14315698D01*
X-15874889Y-14386227D01*
X-15944597Y-14440309D01*
X-16025289Y-14511359D01*
X-16111245Y-14593598D01*
X-16196743Y-14681246D01*
X-16276065Y-14768524D01*
X-16343489Y-14849652D01*
X-16374380Y-14890892D01*
X-16457592Y-15007979D01*
X-16424903Y-15067017D01*
X-16308711Y-15256019D01*
X-16180839Y-15425426D01*
X-16043028Y-15573591D01*
X-15897017Y-15698869D01*
X-15744547Y-15799613D01*
X-15587359Y-15874176D01*
X-15561694Y-15883635D01*
X-15490122Y-15907512D01*
X-15439419Y-15919880D01*
X-15404647Y-15920653D01*
X-15380870Y-15909745D01*
X-15363147Y-15887067D01*
X-15359361Y-15880085D01*
X-15338663Y-15849664D01*
X-15303974Y-15808032D01*
X-15262018Y-15763145D01*
X-15252499Y-15753642D01*
X-15144245Y-15665808D01*
X-15022146Y-15601996D01*
X-14885921Y-15562151D01*
X-14735287Y-15546218D01*
X-14569964Y-15554141D01*
X-14391683Y-15585400D01*
X-14256087Y-15616716D01*
X-14179880Y-15560418D01*
X-14129095Y-15520852D01*
X-14071040Y-15472610D01*
X-14021593Y-15429104D01*
X-13939513Y-15354088D01*
X-13873562Y-15377386D01*
X-13816825Y-15395378D01*
X-13751415Y-15413039D01*
X-13686184Y-15428298D01*
X-13629984Y-15439089D01*
X-13591666Y-15443343D01*
X-13591266Y-15443347D01*
X-13558365Y-15443555D01*
X-13585566Y-15397694D01*
X-13603367Y-15367644D01*
X-13631616Y-15319908D01*
X-13666404Y-15261098D01*
X-13703134Y-15198981D01*
X-13813815Y-15025123D01*
X-13935859Y-14857367D01*
X-14065264Y-14700408D01*
X-14198025Y-14558944D01*
X-14330139Y-14437668D01*
X-14399070Y-14382777D01*
X-14495976Y-14317232D01*
X-14605346Y-14255179D01*
X-14717563Y-14201483D01*
X-14823008Y-14161008D01*
X-14858889Y-14150218D01*
X-14948019Y-14133304D01*
X-15054284Y-14124670D01*
X-15167875Y-14124210D01*
X-13066778Y-14124210D01*
X-13066778Y-15502310D01*
X-13066778Y-15651580D01*
X-14710723Y-15651580D01*
X-14830018Y-15659584D01*
X-14935783Y-15686298D01*
X-15037908Y-15734683D01*
X-15083755Y-15763281D01*
X-15195246Y-15852099D01*
X-15301684Y-15966275D01*
X-15400957Y-16103097D01*
X-15490951Y-16259854D01*
X-15524625Y-16329147D01*
X-15581650Y-16452500D01*
X-15498964Y-16526922D01*
X-15376610Y-16626791D01*
X-15246765Y-16714146D01*
X-15113865Y-16786887D01*
X-14982344Y-16842914D01*
X-14856635Y-16880128D01*
X-14741172Y-16896429D01*
X-14717447Y-16897000D01*
X-14579614Y-16883109D01*
X-14445844Y-16842000D01*
X-14317230Y-16774521D01*
X-14194862Y-16681520D01*
X-14079831Y-16563845D01*
X-13973229Y-16422344D01*
X-13876146Y-16257863D01*
X-13863744Y-16233778D01*
X-13813786Y-16132629D01*
X-13773343Y-16045542D01*
X-13743282Y-15974685D01*
X-13724472Y-15922225D01*
X-13717780Y-15890332D01*
X-13722623Y-15881000D01*
X-13742269Y-15886155D01*
X-13779337Y-15899372D01*
X-13825442Y-15917282D01*
X-13872203Y-15936516D01*
X-13911236Y-15953704D01*
X-13934161Y-15965477D01*
X-13935895Y-15966732D01*
X-13951487Y-15968606D01*
X-13980503Y-15956918D01*
X-14025818Y-15930202D01*
X-14085174Y-15890538D01*
X-14218945Y-15804112D01*
X-14340420Y-15738761D01*
X-14453997Y-15692808D01*
X-14564073Y-15664570D01*
X-14675046Y-15652370D01*
X-14710723Y-15651580D01*
X-13066778Y-15651580D01*
X-13066778Y-17130338D01*
X-13211658Y-17274724D01*
X-13356538Y-17419111D01*
X-15007549Y-17419111D01*
X-16658560Y-17419111D01*
X-16802947Y-17274231D01*
X-16947334Y-17129351D01*
X-16947334Y-15502894D01*
X-16947334Y-13876436D01*
X-16807889Y-13735718D01*
X-16668444Y-13595000D01*
X-15008824Y-13595000D01*
X-13349204Y-13595000D01*
X-13349204Y-13595000D01*
X-13349204Y-13595000D01*
G37*
X-13349204Y-13595000D02*
X-13207991Y-13734642D01*
X-13066778Y-13874283D01*
X-13066778Y-14124210D01*
X-15167875Y-14124210D01*
X-15278979Y-14131816D01*
X-15377785Y-14147382D01*
X-15413182Y-14156246D01*
X-15523406Y-14195069D01*
X-15643765Y-14249759D01*
X-15764984Y-14315698D01*
X-15874889Y-14386227D01*
X-15944597Y-14440309D01*
X-16025289Y-14511359D01*
X-16111245Y-14593598D01*
X-16196743Y-14681246D01*
X-16276065Y-14768524D01*
X-16343489Y-14849652D01*
X-16374380Y-14890892D01*
X-16457592Y-15007979D01*
X-16424903Y-15067017D01*
X-16308711Y-15256019D01*
X-16180839Y-15425426D01*
X-16043028Y-15573591D01*
X-15897017Y-15698869D01*
X-15744547Y-15799613D01*
X-15587359Y-15874176D01*
X-15561694Y-15883635D01*
X-15490122Y-15907512D01*
X-15439419Y-15919880D01*
X-15404647Y-15920653D01*
X-15380870Y-15909745D01*
X-15363147Y-15887067D01*
X-15359361Y-15880085D01*
X-15338663Y-15849664D01*
X-15303974Y-15808032D01*
X-15262018Y-15763145D01*
X-15252499Y-15753642D01*
X-15144245Y-15665808D01*
X-15022146Y-15601996D01*
X-14885921Y-15562151D01*
X-14735287Y-15546218D01*
X-14569964Y-15554141D01*
X-14391683Y-15585400D01*
X-14256087Y-15616716D01*
X-14179880Y-15560418D01*
X-14129095Y-15520852D01*
X-14071040Y-15472610D01*
X-14021593Y-15429104D01*
X-13939513Y-15354088D01*
X-13873562Y-15377386D01*
X-13816825Y-15395378D01*
X-13751415Y-15413039D01*
X-13686184Y-15428298D01*
X-13629984Y-15439089D01*
X-13591666Y-15443343D01*
X-13591266Y-15443347D01*
X-13558365Y-15443555D01*
X-13585566Y-15397694D01*
X-13603367Y-15367644D01*
X-13631616Y-15319908D01*
X-13666404Y-15261098D01*
X-13703134Y-15198981D01*
X-13813815Y-15025123D01*
X-13935859Y-14857367D01*
X-14065264Y-14700408D01*
X-14198025Y-14558944D01*
X-14330139Y-14437668D01*
X-14399070Y-14382777D01*
X-14495976Y-14317232D01*
X-14605346Y-14255179D01*
X-14717563Y-14201483D01*
X-14823008Y-14161008D01*
X-14858889Y-14150218D01*
X-14948019Y-14133304D01*
X-15054284Y-14124670D01*
X-15167875Y-14124210D01*
X-13066778Y-14124210D01*
X-13066778Y-15502310D01*
X-13066778Y-15651580D01*
X-14710723Y-15651580D01*
X-14830018Y-15659584D01*
X-14935783Y-15686298D01*
X-15037908Y-15734683D01*
X-15083755Y-15763281D01*
X-15195246Y-15852099D01*
X-15301684Y-15966275D01*
X-15400957Y-16103097D01*
X-15490951Y-16259854D01*
X-15524625Y-16329147D01*
X-15581650Y-16452500D01*
X-15498964Y-16526922D01*
X-15376610Y-16626791D01*
X-15246765Y-16714146D01*
X-15113865Y-16786887D01*
X-14982344Y-16842914D01*
X-14856635Y-16880128D01*
X-14741172Y-16896429D01*
X-14717447Y-16897000D01*
X-14579614Y-16883109D01*
X-14445844Y-16842000D01*
X-14317230Y-16774521D01*
X-14194862Y-16681520D01*
X-14079831Y-16563845D01*
X-13973229Y-16422344D01*
X-13876146Y-16257863D01*
X-13863744Y-16233778D01*
X-13813786Y-16132629D01*
X-13773343Y-16045542D01*
X-13743282Y-15974685D01*
X-13724472Y-15922225D01*
X-13717780Y-15890332D01*
X-13722623Y-15881000D01*
X-13742269Y-15886155D01*
X-13779337Y-15899372D01*
X-13825442Y-15917282D01*
X-13872203Y-15936516D01*
X-13911236Y-15953704D01*
X-13934161Y-15965477D01*
X-13935895Y-15966732D01*
X-13951487Y-15968606D01*
X-13980503Y-15956918D01*
X-14025818Y-15930202D01*
X-14085174Y-15890538D01*
X-14218945Y-15804112D01*
X-14340420Y-15738761D01*
X-14453997Y-15692808D01*
X-14564073Y-15664570D01*
X-14675046Y-15652370D01*
X-14710723Y-15651580D01*
X-13066778Y-15651580D01*
X-13066778Y-17130338D01*
X-13211658Y-17274724D01*
X-13356538Y-17419111D01*
X-15007549Y-17419111D01*
X-16658560Y-17419111D01*
X-16802947Y-17274231D01*
X-16947334Y-17129351D01*
X-16947334Y-15502894D01*
X-16947334Y-13876436D01*
X-16807889Y-13735718D01*
X-16668444Y-13595000D01*
X-15008824Y-13595000D01*
X-13349204Y-13595000D01*
X-13349204Y-13595000D01*
G36*
X-15493889Y-14601898D02*
X-15483919Y-14602386D01*
X-15462139Y-14614282D01*
X-15366419Y-14671348D01*
X-15256132Y-14728688D01*
X-15139593Y-14782570D01*
X-15025116Y-14829263D01*
X-14921014Y-14865035D01*
X-14875169Y-14877730D01*
X-14790386Y-14898086D01*
X-14729802Y-14910939D01*
X-14690514Y-14916662D01*
X-14669619Y-14915630D01*
X-14664217Y-14908216D01*
X-14665185Y-14904800D01*
X-14674291Y-14884086D01*
X-14692007Y-14844884D01*
X-14715102Y-14794325D01*
X-14724644Y-14773559D01*
X-14776469Y-14660951D01*
X-14680096Y-14759492D01*
X-14622905Y-14815975D01*
X-14557856Y-14877203D01*
X-14497096Y-14931797D01*
X-14484945Y-14942271D01*
X-14430663Y-14989001D01*
X-14375138Y-15037517D01*
X-14328545Y-15078909D01*
X-14319744Y-15086866D01*
X-14253321Y-15147222D01*
X-14373255Y-15147222D01*
X-14502964Y-15155018D01*
X-14632120Y-15177003D01*
X-14749634Y-15211071D01*
X-14786473Y-15225681D01*
X-14828015Y-15243054D01*
X-14846896Y-15248987D01*
X-14846057Y-15243916D01*
X-14833727Y-15232708D01*
X-14764745Y-15173318D01*
X-14716215Y-15128905D01*
X-14686159Y-15097322D01*
X-14672599Y-15076420D01*
X-14673555Y-15064049D01*
X-14676292Y-15061733D01*
X-14707316Y-15052767D01*
X-14758896Y-15048905D01*
X-14823888Y-15049847D01*
X-14895147Y-15055288D01*
X-14965530Y-15064928D01*
X-15019622Y-15076271D01*
X-15123114Y-15110057D01*
X-15227181Y-15156943D01*
X-15321415Y-15211753D01*
X-15380385Y-15255803D01*
X-15413758Y-15282107D01*
X-15438113Y-15297125D01*
X-15446124Y-15298469D01*
X-15444366Y-15282360D01*
X-15430762Y-15248738D01*
X-15408514Y-15203968D01*
X-15380821Y-15154415D01*
X-15350885Y-15106444D01*
X-15345643Y-15098669D01*
X-15323493Y-15064596D01*
X-15316482Y-15045211D01*
X-15323247Y-15032307D01*
X-15333302Y-15024297D01*
X-15383184Y-15000546D01*
X-15455442Y-14983737D01*
X-15544969Y-14974388D01*
X-15646659Y-14973018D01*
X-15755406Y-14980142D01*
X-15762000Y-14980846D01*
X-15810056Y-14985828D01*
X-15833132Y-14986854D01*
X-15834286Y-14983210D01*
X-15816576Y-14974178D01*
X-15807681Y-14970149D01*
X-15760270Y-14951924D01*
X-15693739Y-14930364D01*
X-15616597Y-14907896D01*
X-15537354Y-14886941D01*
X-15464519Y-14869925D01*
X-15435067Y-14864004D01*
X-15385707Y-14854538D01*
X-15346317Y-14846540D01*
X-15327421Y-14842235D01*
X-15327106Y-14829642D01*
X-15344762Y-14798791D01*
X-15378979Y-14751941D01*
X-15401505Y-14723654D01*
X-15439817Y-14675837D01*
X-15470373Y-14636277D01*
X-15489417Y-14609925D01*
X-15493889Y-14601898D01*
X-15493889Y-14601898D01*
X-15493889Y-14601898D01*
G37*
X-15493889Y-14601898D02*
X-15483919Y-14602386D01*
X-15462139Y-14614282D01*
X-15366419Y-14671348D01*
X-15256132Y-14728688D01*
X-15139593Y-14782570D01*
X-15025116Y-14829263D01*
X-14921014Y-14865035D01*
X-14875169Y-14877730D01*
X-14790386Y-14898086D01*
X-14729802Y-14910939D01*
X-14690514Y-14916662D01*
X-14669619Y-14915630D01*
X-14664217Y-14908216D01*
X-14665185Y-14904800D01*
X-14674291Y-14884086D01*
X-14692007Y-14844884D01*
X-14715102Y-14794325D01*
X-14724644Y-14773559D01*
X-14776469Y-14660951D01*
X-14680096Y-14759492D01*
X-14622905Y-14815975D01*
X-14557856Y-14877203D01*
X-14497096Y-14931797D01*
X-14484945Y-14942271D01*
X-14430663Y-14989001D01*
X-14375138Y-15037517D01*
X-14328545Y-15078909D01*
X-14319744Y-15086866D01*
X-14253321Y-15147222D01*
X-14373255Y-15147222D01*
X-14502964Y-15155018D01*
X-14632120Y-15177003D01*
X-14749634Y-15211071D01*
X-14786473Y-15225681D01*
X-14828015Y-15243054D01*
X-14846896Y-15248987D01*
X-14846057Y-15243916D01*
X-14833727Y-15232708D01*
X-14764745Y-15173318D01*
X-14716215Y-15128905D01*
X-14686159Y-15097322D01*
X-14672599Y-15076420D01*
X-14673555Y-15064049D01*
X-14676292Y-15061733D01*
X-14707316Y-15052767D01*
X-14758896Y-15048905D01*
X-14823888Y-15049847D01*
X-14895147Y-15055288D01*
X-14965530Y-15064928D01*
X-15019622Y-15076271D01*
X-15123114Y-15110057D01*
X-15227181Y-15156943D01*
X-15321415Y-15211753D01*
X-15380385Y-15255803D01*
X-15413758Y-15282107D01*
X-15438113Y-15297125D01*
X-15446124Y-15298469D01*
X-15444366Y-15282360D01*
X-15430762Y-15248738D01*
X-15408514Y-15203968D01*
X-15380821Y-15154415D01*
X-15350885Y-15106444D01*
X-15345643Y-15098669D01*
X-15323493Y-15064596D01*
X-15316482Y-15045211D01*
X-15323247Y-15032307D01*
X-15333302Y-15024297D01*
X-15383184Y-15000546D01*
X-15455442Y-14983737D01*
X-15544969Y-14974388D01*
X-15646659Y-14973018D01*
X-15755406Y-14980142D01*
X-15762000Y-14980846D01*
X-15810056Y-14985828D01*
X-15833132Y-14986854D01*
X-15834286Y-14983210D01*
X-15816576Y-14974178D01*
X-15807681Y-14970149D01*
X-15760270Y-14951924D01*
X-15693739Y-14930364D01*
X-15616597Y-14907896D01*
X-15537354Y-14886941D01*
X-15464519Y-14869925D01*
X-15435067Y-14864004D01*
X-15385707Y-14854538D01*
X-15346317Y-14846540D01*
X-15327421Y-14842235D01*
X-15327106Y-14829642D01*
X-15344762Y-14798791D01*
X-15378979Y-14751941D01*
X-15401505Y-14723654D01*
X-15439817Y-14675837D01*
X-15470373Y-14636277D01*
X-15489417Y-14609925D01*
X-15493889Y-14601898D01*
X-15493889Y-14601898D01*
G36*
X-15867550Y-14995015D02*
X-15865482Y-14996704D01*
X-15867419Y-15005093D01*
X-15874889Y-15006111D01*
X-15886504Y-15000948D01*
X-15884297Y-14996704D01*
X-15867550Y-14995015D01*
X-15867550Y-14995015D01*
X-15867550Y-14995015D01*
G37*
X-15867550Y-14995015D02*
X-15865482Y-14996704D01*
X-15867419Y-15005093D01*
X-15874889Y-15006111D01*
X-15886504Y-15000948D01*
X-15884297Y-14996704D01*
X-15867550Y-14995015D01*
X-15867550Y-14995015D01*
G36*
X-14171547Y-16124322D02*
X-14172418Y-16139029D01*
X-14194675Y-16171438D01*
X-14211400Y-16191444D01*
X-14239039Y-16224749D01*
X-14277244Y-16272627D01*
X-14319662Y-16327062D01*
X-14340076Y-16353722D01*
X-14378730Y-16403399D01*
X-14403193Y-16431655D01*
X-14415361Y-16440257D01*
X-14417130Y-16430973D01*
X-14415753Y-16424278D01*
X-14405583Y-16382106D01*
X-14397863Y-16350194D01*
X-14397653Y-16324682D01*
X-14411425Y-16318444D01*
X-14440039Y-16325735D01*
X-14486192Y-16345442D01*
X-14543949Y-16374313D01*
X-14607373Y-16409099D01*
X-14670530Y-16446549D01*
X-14727482Y-16483414D01*
X-14770766Y-16515202D01*
X-14812861Y-16548450D01*
X-14846336Y-16573437D01*
X-14865412Y-16585894D01*
X-14867363Y-16586555D01*
X-14865383Y-16575467D01*
X-14852041Y-16546499D01*
X-14831893Y-16508944D01*
X-14788092Y-16431333D01*
X-14869352Y-16430448D01*
X-14926338Y-16427338D01*
X-14995313Y-16420086D01*
X-15056445Y-16411058D01*
X-15162278Y-16392553D01*
X-15083700Y-16390777D01*
X-15014726Y-16384423D01*
X-14944064Y-16370012D01*
X-14881756Y-16350120D01*
X-14838510Y-16327820D01*
X-14824296Y-16315307D01*
X-14822336Y-16301866D01*
X-14834592Y-16280461D01*
X-14861261Y-16246253D01*
X-14896667Y-16201271D01*
X-14913408Y-16175767D01*
X-14910902Y-16167554D01*
X-14888566Y-16174442D01*
X-14847243Y-16193559D01*
X-14734409Y-16233794D01*
X-14615087Y-16251402D01*
X-14514838Y-16247235D01*
X-14456239Y-16236963D01*
X-14424820Y-16225116D01*
X-14419535Y-16209928D01*
X-14439342Y-16189634D01*
X-14469429Y-16170355D01*
X-14505563Y-16148460D01*
X-14529127Y-16132805D01*
X-14534334Y-16128103D01*
X-14522098Y-16128403D01*
X-14491233Y-16134076D01*
X-14474361Y-16137827D01*
X-14429164Y-16143684D01*
X-14369124Y-16145497D01*
X-14304284Y-16143630D01*
X-14244686Y-16138446D01*
X-14200372Y-16130312D01*
X-14192139Y-16127582D01*
X-14171547Y-16124322D01*
X-14171547Y-16124322D01*
X-14171547Y-16124322D01*
G37*
X-14171547Y-16124322D02*
X-14172418Y-16139029D01*
X-14194675Y-16171438D01*
X-14211400Y-16191444D01*
X-14239039Y-16224749D01*
X-14277244Y-16272627D01*
X-14319662Y-16327062D01*
X-14340076Y-16353722D01*
X-14378730Y-16403399D01*
X-14403193Y-16431655D01*
X-14415361Y-16440257D01*
X-14417130Y-16430973D01*
X-14415753Y-16424278D01*
X-14405583Y-16382106D01*
X-14397863Y-16350194D01*
X-14397653Y-16324682D01*
X-14411425Y-16318444D01*
X-14440039Y-16325735D01*
X-14486192Y-16345442D01*
X-14543949Y-16374313D01*
X-14607373Y-16409099D01*
X-14670530Y-16446549D01*
X-14727482Y-16483414D01*
X-14770766Y-16515202D01*
X-14812861Y-16548450D01*
X-14846336Y-16573437D01*
X-14865412Y-16585894D01*
X-14867363Y-16586555D01*
X-14865383Y-16575467D01*
X-14852041Y-16546499D01*
X-14831893Y-16508944D01*
X-14788092Y-16431333D01*
X-14869352Y-16430448D01*
X-14926338Y-16427338D01*
X-14995313Y-16420086D01*
X-15056445Y-16411058D01*
X-15162278Y-16392553D01*
X-15083700Y-16390777D01*
X-15014726Y-16384423D01*
X-14944064Y-16370012D01*
X-14881756Y-16350120D01*
X-14838510Y-16327820D01*
X-14824296Y-16315307D01*
X-14822336Y-16301866D01*
X-14834592Y-16280461D01*
X-14861261Y-16246253D01*
X-14896667Y-16201271D01*
X-14913408Y-16175767D01*
X-14910902Y-16167554D01*
X-14888566Y-16174442D01*
X-14847243Y-16193559D01*
X-14734409Y-16233794D01*
X-14615087Y-16251402D01*
X-14514838Y-16247235D01*
X-14456239Y-16236963D01*
X-14424820Y-16225116D01*
X-14419535Y-16209928D01*
X-14439342Y-16189634D01*
X-14469429Y-16170355D01*
X-14505563Y-16148460D01*
X-14529127Y-16132805D01*
X-14534334Y-16128103D01*
X-14522098Y-16128403D01*
X-14491233Y-16134076D01*
X-14474361Y-16137827D01*
X-14429164Y-16143684D01*
X-14369124Y-16145497D01*
X-14304284Y-16143630D01*
X-14244686Y-16138446D01*
X-14200372Y-16130312D01*
X-14192139Y-16127582D01*
X-14171547Y-16124322D01*
X-14171547Y-16124322D01*
G36*
X-14428500Y-16473667D02*
X-14421445Y-16480722D01*
X-14428500Y-16487778D01*
X-14435556Y-16480722D01*
X-14428500Y-16473667D01*
X-14428500Y-16473667D01*
X-14428500Y-16473667D01*
G37*
X-14428500Y-16473667D02*
X-14421445Y-16480722D01*
X-14428500Y-16487778D01*
X-14435556Y-16480722D01*
X-14428500Y-16473667D01*
X-14428500Y-16473667D01*
D15*
X-3090476Y-9861905D02*
X-3090476Y-9061905D01*
X-2633333Y-9861905D02*
X-2976190Y-9404762D01*
X-2633333Y-9061905D02*
X-3090476Y-9519048D01*
X-1871428Y-9861905D02*
X-2328571Y-9861905D01*
X-2100000Y-9861905D02*
X-2100000Y-9061905D01*
X-2176190Y-9176190D01*
X-2252381Y-9252381D01*
X-2328571Y-9290476D01*
X-5633333Y-17861905D02*
X-5900000Y-17480952D01*
X-6090476Y-17861905D02*
X-6090476Y-17061905D01*
X-5785714Y-17061905D01*
X-5709523Y-17100000D01*
X-5671428Y-17138095D01*
X-5633333Y-17214286D01*
X-5633333Y-17328571D01*
X-5671428Y-17404762D01*
X-5709523Y-17442857D01*
X-5785714Y-17480952D01*
X-6090476Y-17480952D01*
X-4871428Y-17861905D02*
X-5328571Y-17861905D01*
X-5100000Y-17861905D02*
X-5100000Y-17061905D01*
X-5176190Y-17176190D01*
X-5252381Y-17252381D01*
X-5328571Y-17290476D01*
X-5633333Y-14861905D02*
X-5900000Y-14480952D01*
X-6090476Y-14861905D02*
X-6090476Y-14061905D01*
X-5785714Y-14061905D01*
X-5709523Y-14100000D01*
X-5671428Y-14138095D01*
X-5633333Y-14214286D01*
X-5633333Y-14328571D01*
X-5671428Y-14404762D01*
X-5709523Y-14442857D01*
X-5785714Y-14480952D01*
X-6090476Y-14480952D01*
X-5328571Y-14138095D02*
X-5290476Y-14100000D01*
X-5214285Y-14061905D01*
X-5023809Y-14061905D01*
X-4947619Y-14100000D01*
X-4909523Y-14138095D01*
X-4871428Y-14214286D01*
X-4871428Y-14290476D01*
X-4909523Y-14404762D01*
X-5366666Y-14861905D01*
X-4871428Y-14861905D01*
X-76190Y-15938095D02*
X-152381Y-15900000D01*
X-228571Y-15823810D01*
X-342857Y-15709524D01*
X-419048Y-15671429D01*
X-495238Y-15671429D01*
X-457143Y-15861905D02*
X-533333Y-15823810D01*
X-609524Y-15747619D01*
X-647619Y-15595238D01*
X-647619Y-15328571D01*
X-609524Y-15176190D01*
X-533333Y-15100000D01*
X-457143Y-15061905D01*
X-304762Y-15061905D01*
X-228571Y-15100000D01*
X-152381Y-15176190D01*
X-114286Y-15328571D01*
X-114286Y-15595238D01*
X-152381Y-15747619D01*
X-228571Y-15823810D01*
X-304762Y-15861905D01*
X-457143Y-15861905D01*
X647619Y-15861905D02*
X190476Y-15861905D01*
X419047Y-15861905D02*
X419047Y-15061905D01*
X342857Y-15176190D01*
X266666Y-15252381D01*
X190476Y-15290476D01*
%LPC*%
D16*
X-5500000Y-1500000D03*
X-9000000Y-1500000D03*
X-12500000Y-1500000D03*
X-5500000Y-8500000D03*
X-9000000Y-8500000D03*
X-12500000Y-8500000D03*
D17*
X-6262000Y-16000000D03*
X-4738000Y-16000000D03*
X-6262000Y-13000000D03*
X-4738000Y-13000000D03*
D18*
X-2000000Y-15099820D03*
X-2952500Y-12900180D03*
X-1047500Y-12900180D03*
D19*
X0Y0D03*
X-18000000Y0D03*
X0Y-18000000D03*
D20*
X-18000000Y-20500000D03*
X-15500000Y-20500000D03*
X-13000000Y-20500000D03*
X-13000000Y-27500000D03*
X-15500000Y-27500000D03*
X-18000000Y-27500000D03*
X-16500000Y-59500000D03*
X-14500000Y-59500000D03*
X-13000000Y-55500000D03*
X-15500000Y-55500000D03*
X-18000000Y-55500000D03*
X-18000000Y-48500000D03*
X-15500000Y-48500000D03*
X-13000000Y-48500000D03*
X-13000000Y-41500000D03*
X-15500000Y-41500000D03*
X-18000000Y-41500000D03*
X-18000000Y-34500000D03*
X-15500000Y-34500000D03*
X-13000000Y-34500000D03*
D21*
X-15500000Y-38000000D03*
D10*
G36*
X-17000000Y-60500000D02*
X-19000000Y-56500000D01*
X-12000000Y-56500000D01*
X-14000000Y-60500000D01*
X-17000000Y-60500000D01*
X-17000000Y-60500000D01*
G37*
D20*
X-5000000Y-20500000D03*
X-2500000Y-20500000D03*
X0Y-20500000D03*
X0Y-27500000D03*
X-2500000Y-27500000D03*
X-5000000Y-27500000D03*
X-3500000Y-59500000D03*
X-1500000Y-59500000D03*
X0Y-55500000D03*
X-2500000Y-55500000D03*
X-5000000Y-55500000D03*
X-5000000Y-48500000D03*
X-2500000Y-48500000D03*
X0Y-48500000D03*
X0Y-41500000D03*
X-2500000Y-41500000D03*
X-5000000Y-41500000D03*
X-5000000Y-34500000D03*
X-2500000Y-34500000D03*
X0Y-34500000D03*
D21*
X-2500000Y-38000000D03*
D10*
G36*
X-4000000Y-60500000D02*
X-6000000Y-56500000D01*
X1000000Y-56500000D01*
X-1000000Y-60500000D01*
X-4000000Y-60500000D01*
X-4000000Y-60500000D01*
G37*
M02*
