G04 #@! TF.FileFunction,Copper,L1,Top,Signal*
%FSLAX46Y46*%
G04 Gerber Fmt 4.6, Leading zero omitted, Abs format (unit mm)*
G04 Created by KiCad (PCBNEW (2015-01-16 BZR 5376)-product) date 16/06/2015 17:16:53*
%MOMM*%
G01*
G04 APERTURE LIST*
%ADD10C,0.100000*%
%ADD11C,2.200000*%
%ADD12R,0.635000X1.143000*%
%ADD13R,0.800100X1.000760*%
%ADD14C,1.000000*%
%ADD15R,7.000000X37.000000*%
%ADD16C,0.508000*%
%ADD17C,0.254000*%
G04 APERTURE END LIST*
D10*
D11*
X-5500000Y-1500000D03*
X-9000000Y-1500000D03*
X-12500000Y-1500000D03*
X-5500000Y-8500000D03*
X-9000000Y-8500000D03*
X-12500000Y-8500000D03*
D12*
X-6262000Y-16000000D03*
X-4738000Y-16000000D03*
X-6262000Y-13000000D03*
X-4738000Y-13000000D03*
D13*
X-2000000Y-15099820D03*
X-2952500Y-12900180D03*
X-1047500Y-12900180D03*
D14*
X0Y0D03*
X-18000000Y0D03*
X0Y-18000000D03*
X-18000000Y-20500000D03*
X-15500000Y-20500000D03*
X-13000000Y-20500000D03*
X-13000000Y-27500000D03*
X-15500000Y-27500000D03*
X-18000000Y-27500000D03*
X-16500000Y-59500000D03*
X-14500000Y-59500000D03*
X-13000000Y-55500000D03*
X-15500000Y-55500000D03*
X-18000000Y-55500000D03*
X-18000000Y-48500000D03*
X-15500000Y-48500000D03*
X-13000000Y-48500000D03*
X-13000000Y-41500000D03*
X-15500000Y-41500000D03*
X-18000000Y-41500000D03*
X-18000000Y-34500000D03*
X-15500000Y-34500000D03*
X-13000000Y-34500000D03*
D15*
X-15500000Y-38000000D03*
D10*
G36*
X-17000000Y-60500000D02*
X-19000000Y-56500000D01*
X-12000000Y-56500000D01*
X-14000000Y-60500000D01*
X-17000000Y-60500000D01*
X-17000000Y-60500000D01*
G37*
D14*
X-5000000Y-20500000D03*
X-2500000Y-20500000D03*
X0Y-20500000D03*
X0Y-27500000D03*
X-2500000Y-27500000D03*
X-5000000Y-27500000D03*
X-3500000Y-59500000D03*
X-1500000Y-59500000D03*
X0Y-55500000D03*
X-2500000Y-55500000D03*
X-5000000Y-55500000D03*
X-5000000Y-48500000D03*
X-2500000Y-48500000D03*
X0Y-48500000D03*
X0Y-41500000D03*
X-2500000Y-41500000D03*
X-5000000Y-41500000D03*
X-5000000Y-34500000D03*
X-2500000Y-34500000D03*
X0Y-34500000D03*
D15*
X-2500000Y-38000000D03*
D10*
G36*
X-4000000Y-60500000D02*
X-6000000Y-56500000D01*
X1000000Y-56500000D01*
X-1000000Y-60500000D01*
X-4000000Y-60500000D01*
X-4000000Y-60500000D01*
G37*
D16*
X-4738000Y-16000000D02*
X-2500000Y-16000000D01*
X-2500000Y-15599820D02*
X-2000000Y-15099820D01*
X-2500000Y-16000000D02*
X-2500000Y-15599820D01*
X-5500000Y-1500000D02*
X-5500000Y-8500000D01*
X-2000000Y-15099820D02*
X-2099820Y-15000000D01*
X-9000000Y-1500000D02*
X-9000000Y-8500000D01*
X-9000000Y-8500000D02*
X-9000000Y-10500000D01*
X-4500000Y-12000000D02*
X-4500000Y-12762000D01*
X-5000000Y-11500000D02*
X-4500000Y-12000000D01*
X-8000000Y-11500000D02*
X-5000000Y-11500000D01*
X-9000000Y-10500000D02*
X-8000000Y-11500000D01*
X-4500000Y-12762000D02*
X-4738000Y-13000000D01*
X-2952500Y-12900180D02*
X-3052320Y-13000000D01*
X-3052320Y-13000000D02*
X-4738000Y-13000000D01*
X-12500000Y-1500000D02*
X-12500000Y-8500000D01*
X-6262000Y-13000000D02*
X-10500000Y-13000000D01*
X-12500000Y-12000000D02*
X-12500000Y-8500000D01*
X-11500000Y-13000000D02*
X-12500000Y-12000000D01*
X-10500000Y-13000000D02*
X-11500000Y-13000000D01*
X-2500000Y-20500000D02*
X-2500000Y-18000000D01*
X-500000Y-13000000D02*
X-947680Y-13000000D01*
X0Y-13500000D02*
X-500000Y-13000000D01*
X0Y-15500000D02*
X0Y-13500000D01*
X-2500000Y-18000000D02*
X0Y-15500000D01*
X-947680Y-13000000D02*
X-1047500Y-12900180D01*
X-1047500Y-12900180D02*
X-947680Y-13000000D01*
X-6262000Y-16000000D02*
X-13500000Y-16000000D01*
X-15500000Y-17000000D02*
X-15500000Y-20500000D01*
X-14500000Y-16000000D02*
X-15500000Y-17000000D01*
X-13500000Y-16000000D02*
X-14500000Y-16000000D01*
D17*
G36*
X778448Y-13095618D02*
X628618Y-12871382D01*
X128618Y-12371382D01*
X-25505Y-12268400D01*
X-46987Y-12157677D01*
X-186777Y-11944873D01*
X-397810Y-11802423D01*
X-647450Y-11752360D01*
X-1447550Y-11752360D01*
X-1689673Y-11799337D01*
X-1902477Y-11939127D01*
X-2000328Y-12084087D01*
X-2091777Y-11944873D01*
X-2302810Y-11802423D01*
X-2552450Y-11752360D01*
X-3352550Y-11752360D01*
X-3594673Y-11799337D01*
X-3644415Y-11832012D01*
X-3678671Y-11659795D01*
X-3678671Y-11659794D01*
X-3754677Y-11546043D01*
X-3754677Y-8788407D01*
X-3754677Y-1788407D01*
X-3777164Y-1098547D01*
X-3997901Y-565641D01*
X-4275132Y-454737D01*
X-4454737Y-634342D01*
X-4454737Y-275132D01*
X-4565641Y2099D01*
X-5211593Y245323D01*
X-5901453Y222836D01*
X-6434359Y2099D01*
X-6545263Y-275132D01*
X-5500000Y-1320395D01*
X-4454737Y-275132D01*
X-4454737Y-634342D01*
X-5320395Y-1500000D01*
X-4275132Y-2545263D01*
X-3997901Y-2434359D01*
X-3754677Y-1788407D01*
X-3754677Y-8788407D01*
X-3777164Y-8098547D01*
X-3997901Y-7565641D01*
X-4275132Y-7454737D01*
X-4454737Y-7634342D01*
X-4454737Y-7275132D01*
X-4454737Y-2724868D01*
X-5500000Y-1679605D01*
X-5679605Y-1859210D01*
X-5679605Y-1500000D01*
X-6724868Y-454737D01*
X-7002099Y-565641D01*
X-7245323Y-1211593D01*
X-7222836Y-1901453D01*
X-7002099Y-2434359D01*
X-6724868Y-2545263D01*
X-5679605Y-1500000D01*
X-5679605Y-1859210D01*
X-6545263Y-2724868D01*
X-6434359Y-3002099D01*
X-5788407Y-3245323D01*
X-5098547Y-3222836D01*
X-4565641Y-3002099D01*
X-4454737Y-2724868D01*
X-4454737Y-7275132D01*
X-4565641Y-6997901D01*
X-5211593Y-6754677D01*
X-5901453Y-6777164D01*
X-6434359Y-6997901D01*
X-6545263Y-7275132D01*
X-5500000Y-8320395D01*
X-4454737Y-7275132D01*
X-4454737Y-7634342D01*
X-5320395Y-8500000D01*
X-4275132Y-9545263D01*
X-3997901Y-9434359D01*
X-3754677Y-8788407D01*
X-3754677Y-11546043D01*
X-3871382Y-11371382D01*
X-4371382Y-10871382D01*
X-4454737Y-10815685D01*
X-4454737Y-9724868D01*
X-5500000Y-8679605D01*
X-5679605Y-8859210D01*
X-5679605Y-8500000D01*
X-6724868Y-7454737D01*
X-7002099Y-7565641D01*
X-7245323Y-8211593D01*
X-7222836Y-8901453D01*
X-7002099Y-9434359D01*
X-6724868Y-9545263D01*
X-5679605Y-8500000D01*
X-5679605Y-8859210D01*
X-6545263Y-9724868D01*
X-6434359Y-10002099D01*
X-5788407Y-10245323D01*
X-5098547Y-10222836D01*
X-4565641Y-10002099D01*
X-4454737Y-9724868D01*
X-4454737Y-10815685D01*
X-4659794Y-10678671D01*
X-5000000Y-10611000D01*
X-7631764Y-10611000D01*
X-8111000Y-10131764D01*
X-8111000Y-10009945D01*
X-8018485Y-9971719D01*
X-7529996Y-9484082D01*
X-7265301Y-8846627D01*
X-7264699Y-8156401D01*
X-7528281Y-7518485D01*
X-8015918Y-7029996D01*
X-8111000Y-6990514D01*
X-8111000Y-3009945D01*
X-8018485Y-2971719D01*
X-7529996Y-2484082D01*
X-7265301Y-1846627D01*
X-7264699Y-1156401D01*
X-7528281Y-518485D01*
X-8015918Y-29996D01*
X-8653373Y234699D01*
X-9343599Y235301D01*
X-9981515Y-28281D01*
X-10470004Y-515918D01*
X-10734699Y-1153373D01*
X-10735301Y-1843599D01*
X-10471719Y-2481515D01*
X-9984082Y-2970004D01*
X-9889000Y-3009485D01*
X-9889000Y-6990054D01*
X-9981515Y-7028281D01*
X-10470004Y-7515918D01*
X-10734699Y-8153373D01*
X-10735301Y-8843599D01*
X-10471719Y-9481515D01*
X-9984082Y-9970004D01*
X-9889000Y-10009485D01*
X-9889000Y-10500000D01*
X-9821329Y-10840206D01*
X-9628618Y-11128618D01*
X-8646236Y-12111000D01*
X-10500000Y-12111000D01*
X-11131764Y-12111000D01*
X-11611000Y-11631764D01*
X-11611000Y-10009945D01*
X-11518485Y-9971719D01*
X-11029996Y-9484082D01*
X-10765301Y-8846627D01*
X-10764699Y-8156401D01*
X-11028281Y-7518485D01*
X-11515918Y-7029996D01*
X-11611000Y-6990514D01*
X-11611000Y-3009945D01*
X-11518485Y-2971719D01*
X-11029996Y-2484082D01*
X-10765301Y-1846627D01*
X-10764699Y-1156401D01*
X-11028281Y-518485D01*
X-11515918Y-29996D01*
X-12153373Y234699D01*
X-12843599Y235301D01*
X-13481515Y-28281D01*
X-13970004Y-515918D01*
X-14234699Y-1153373D01*
X-14235301Y-1843599D01*
X-13971719Y-2481515D01*
X-13484082Y-2970004D01*
X-13389000Y-3009485D01*
X-13389000Y-6990054D01*
X-13481515Y-7028281D01*
X-13970004Y-7515918D01*
X-14234699Y-8153373D01*
X-14235301Y-8843599D01*
X-13971719Y-9481515D01*
X-13484082Y-9970004D01*
X-13389000Y-10009485D01*
X-13389000Y-12000000D01*
X-13321329Y-12340206D01*
X-13128618Y-12628618D01*
X-12128618Y-13628618D01*
X-11840206Y-13821329D01*
X-11840205Y-13821330D01*
X-11500000Y-13889000D01*
X-10500000Y-13889000D01*
X-7130449Y-13889000D01*
X-7040173Y-14026427D01*
X-6829140Y-14168877D01*
X-6579500Y-14218940D01*
X-5944500Y-14218940D01*
X-5702377Y-14171963D01*
X-5498740Y-14038194D01*
X-5305140Y-14168877D01*
X-5055500Y-14218940D01*
X-4420500Y-14218940D01*
X-4178377Y-14171963D01*
X-3965573Y-14032173D01*
X-3868930Y-13889000D01*
X-3763576Y-13889000D01*
X-3602190Y-13997937D01*
X-3352550Y-14048000D01*
X-2728091Y-14048000D01*
X-2759748Y-14061113D01*
X-2938377Y-14239741D01*
X-3035050Y-14473130D01*
X-3035050Y-14725749D01*
X-3035050Y-14814070D01*
X-2876300Y-14972820D01*
X-2127000Y-14972820D01*
X-2127000Y-14123190D01*
X-2273415Y-13976775D01*
X-2097523Y-13861233D01*
X-1999673Y-13716272D01*
X-1908223Y-13855487D01*
X-1727374Y-13977563D01*
X-1873000Y-14123190D01*
X-1873000Y-14972820D01*
X-1123700Y-14972820D01*
X-964950Y-14814070D01*
X-964950Y-14725749D01*
X-964950Y-14473130D01*
X-1061623Y-14239741D01*
X-1240252Y-14061113D01*
X-1271910Y-14048000D01*
X-889000Y-14048000D01*
X-889000Y-15131764D01*
X-1053878Y-15296642D01*
X-1123700Y-15226820D01*
X-1873000Y-15226820D01*
X-1873000Y-16076450D01*
X-1853343Y-16096107D01*
X-2127000Y-16369764D01*
X-2127000Y-16076450D01*
X-2127000Y-15226820D01*
X-2876300Y-15226820D01*
X-3035050Y-15385570D01*
X-3035050Y-15473891D01*
X-3035050Y-15726510D01*
X-2938377Y-15959899D01*
X-2759748Y-16138527D01*
X-2526359Y-16235200D01*
X-2285750Y-16235200D01*
X-2127000Y-16076450D01*
X-2127000Y-16369764D01*
X-3128618Y-17371382D01*
X-3321329Y-17659794D01*
X-3389000Y-18000000D01*
X-3389000Y-18373000D01*
X-3785500Y-18373000D01*
X-3785500Y-16697810D01*
X-3785500Y-16445191D01*
X-3785500Y-16285750D01*
X-3785500Y-15714250D01*
X-3785500Y-15554809D01*
X-3785500Y-15302190D01*
X-3882173Y-15068801D01*
X-4060802Y-14890173D01*
X-4294191Y-14793500D01*
X-4452250Y-14793500D01*
X-4611000Y-14952250D01*
X-4611000Y-15873000D01*
X-3944250Y-15873000D01*
X-3785500Y-15714250D01*
X-3785500Y-16285750D01*
X-3944250Y-16127000D01*
X-4611000Y-16127000D01*
X-4611000Y-17047750D01*
X-4452250Y-17206500D01*
X-4294191Y-17206500D01*
X-4060802Y-17109827D01*
X-3882173Y-16931199D01*
X-3785500Y-16697810D01*
X-3785500Y-18373000D01*
X-6049987Y-18373000D01*
X-6055015Y-18347721D01*
X-6127340Y-18173116D01*
X-6157297Y-18100793D01*
X-6157297Y-18100792D01*
X-6699228Y-17289734D01*
X-6817816Y-17171148D01*
X-6579500Y-17218940D01*
X-5944500Y-17218940D01*
X-5702377Y-17171963D01*
X-5491553Y-17033473D01*
X-5415198Y-17109827D01*
X-5181809Y-17206500D01*
X-5023750Y-17206500D01*
X-4865000Y-17047750D01*
X-4865000Y-16127000D01*
X-4885000Y-16127000D01*
X-4885000Y-15873000D01*
X-4865000Y-15873000D01*
X-4865000Y-14952250D01*
X-5023750Y-14793500D01*
X-5181809Y-14793500D01*
X-5415198Y-14890173D01*
X-5492646Y-14967620D01*
X-5694860Y-14831123D01*
X-5944500Y-14781060D01*
X-6579500Y-14781060D01*
X-6821623Y-14828037D01*
X-7034427Y-14967827D01*
X-7131071Y-15111000D01*
X-13500000Y-15111000D01*
X-14500000Y-15111000D01*
X-14840205Y-15178670D01*
X-15128618Y-15371382D01*
X-16128618Y-16371382D01*
X-16321329Y-16659794D01*
X-16389000Y-17000000D01*
X-16389000Y-18373000D01*
X-18851552Y-18373000D01*
X-18851552Y-753495D01*
X-18643765Y-961645D01*
X-18226756Y-1134803D01*
X-17775225Y-1135197D01*
X-17357914Y-962767D01*
X-17038355Y-643765D01*
X-16865197Y-226756D01*
X-16864803Y224775D01*
X-17037233Y642086D01*
X-17267745Y873000D01*
X-732010Y873000D01*
X-961645Y643765D01*
X-1134803Y226756D01*
X-1135197Y-224775D01*
X-962767Y-642086D01*
X-643765Y-961645D01*
X-226756Y-1134803D01*
X224775Y-1135197D01*
X642086Y-962767D01*
X778448Y-826642D01*
X778448Y-13095618D01*
X778448Y-13095618D01*
G37*
X778448Y-13095618D02*
X628618Y-12871382D01*
X128618Y-12371382D01*
X-25505Y-12268400D01*
X-46987Y-12157677D01*
X-186777Y-11944873D01*
X-397810Y-11802423D01*
X-647450Y-11752360D01*
X-1447550Y-11752360D01*
X-1689673Y-11799337D01*
X-1902477Y-11939127D01*
X-2000328Y-12084087D01*
X-2091777Y-11944873D01*
X-2302810Y-11802423D01*
X-2552450Y-11752360D01*
X-3352550Y-11752360D01*
X-3594673Y-11799337D01*
X-3644415Y-11832012D01*
X-3678671Y-11659795D01*
X-3678671Y-11659794D01*
X-3754677Y-11546043D01*
X-3754677Y-8788407D01*
X-3754677Y-1788407D01*
X-3777164Y-1098547D01*
X-3997901Y-565641D01*
X-4275132Y-454737D01*
X-4454737Y-634342D01*
X-4454737Y-275132D01*
X-4565641Y2099D01*
X-5211593Y245323D01*
X-5901453Y222836D01*
X-6434359Y2099D01*
X-6545263Y-275132D01*
X-5500000Y-1320395D01*
X-4454737Y-275132D01*
X-4454737Y-634342D01*
X-5320395Y-1500000D01*
X-4275132Y-2545263D01*
X-3997901Y-2434359D01*
X-3754677Y-1788407D01*
X-3754677Y-8788407D01*
X-3777164Y-8098547D01*
X-3997901Y-7565641D01*
X-4275132Y-7454737D01*
X-4454737Y-7634342D01*
X-4454737Y-7275132D01*
X-4454737Y-2724868D01*
X-5500000Y-1679605D01*
X-5679605Y-1859210D01*
X-5679605Y-1500000D01*
X-6724868Y-454737D01*
X-7002099Y-565641D01*
X-7245323Y-1211593D01*
X-7222836Y-1901453D01*
X-7002099Y-2434359D01*
X-6724868Y-2545263D01*
X-5679605Y-1500000D01*
X-5679605Y-1859210D01*
X-6545263Y-2724868D01*
X-6434359Y-3002099D01*
X-5788407Y-3245323D01*
X-5098547Y-3222836D01*
X-4565641Y-3002099D01*
X-4454737Y-2724868D01*
X-4454737Y-7275132D01*
X-4565641Y-6997901D01*
X-5211593Y-6754677D01*
X-5901453Y-6777164D01*
X-6434359Y-6997901D01*
X-6545263Y-7275132D01*
X-5500000Y-8320395D01*
X-4454737Y-7275132D01*
X-4454737Y-7634342D01*
X-5320395Y-8500000D01*
X-4275132Y-9545263D01*
X-3997901Y-9434359D01*
X-3754677Y-8788407D01*
X-3754677Y-11546043D01*
X-3871382Y-11371382D01*
X-4371382Y-10871382D01*
X-4454737Y-10815685D01*
X-4454737Y-9724868D01*
X-5500000Y-8679605D01*
X-5679605Y-8859210D01*
X-5679605Y-8500000D01*
X-6724868Y-7454737D01*
X-7002099Y-7565641D01*
X-7245323Y-8211593D01*
X-7222836Y-8901453D01*
X-7002099Y-9434359D01*
X-6724868Y-9545263D01*
X-5679605Y-8500000D01*
X-5679605Y-8859210D01*
X-6545263Y-9724868D01*
X-6434359Y-10002099D01*
X-5788407Y-10245323D01*
X-5098547Y-10222836D01*
X-4565641Y-10002099D01*
X-4454737Y-9724868D01*
X-4454737Y-10815685D01*
X-4659794Y-10678671D01*
X-5000000Y-10611000D01*
X-7631764Y-10611000D01*
X-8111000Y-10131764D01*
X-8111000Y-10009945D01*
X-8018485Y-9971719D01*
X-7529996Y-9484082D01*
X-7265301Y-8846627D01*
X-7264699Y-8156401D01*
X-7528281Y-7518485D01*
X-8015918Y-7029996D01*
X-8111000Y-6990514D01*
X-8111000Y-3009945D01*
X-8018485Y-2971719D01*
X-7529996Y-2484082D01*
X-7265301Y-1846627D01*
X-7264699Y-1156401D01*
X-7528281Y-518485D01*
X-8015918Y-29996D01*
X-8653373Y234699D01*
X-9343599Y235301D01*
X-9981515Y-28281D01*
X-10470004Y-515918D01*
X-10734699Y-1153373D01*
X-10735301Y-1843599D01*
X-10471719Y-2481515D01*
X-9984082Y-2970004D01*
X-9889000Y-3009485D01*
X-9889000Y-6990054D01*
X-9981515Y-7028281D01*
X-10470004Y-7515918D01*
X-10734699Y-8153373D01*
X-10735301Y-8843599D01*
X-10471719Y-9481515D01*
X-9984082Y-9970004D01*
X-9889000Y-10009485D01*
X-9889000Y-10500000D01*
X-9821329Y-10840206D01*
X-9628618Y-11128618D01*
X-8646236Y-12111000D01*
X-10500000Y-12111000D01*
X-11131764Y-12111000D01*
X-11611000Y-11631764D01*
X-11611000Y-10009945D01*
X-11518485Y-9971719D01*
X-11029996Y-9484082D01*
X-10765301Y-8846627D01*
X-10764699Y-8156401D01*
X-11028281Y-7518485D01*
X-11515918Y-7029996D01*
X-11611000Y-6990514D01*
X-11611000Y-3009945D01*
X-11518485Y-2971719D01*
X-11029996Y-2484082D01*
X-10765301Y-1846627D01*
X-10764699Y-1156401D01*
X-11028281Y-518485D01*
X-11515918Y-29996D01*
X-12153373Y234699D01*
X-12843599Y235301D01*
X-13481515Y-28281D01*
X-13970004Y-515918D01*
X-14234699Y-1153373D01*
X-14235301Y-1843599D01*
X-13971719Y-2481515D01*
X-13484082Y-2970004D01*
X-13389000Y-3009485D01*
X-13389000Y-6990054D01*
X-13481515Y-7028281D01*
X-13970004Y-7515918D01*
X-14234699Y-8153373D01*
X-14235301Y-8843599D01*
X-13971719Y-9481515D01*
X-13484082Y-9970004D01*
X-13389000Y-10009485D01*
X-13389000Y-12000000D01*
X-13321329Y-12340206D01*
X-13128618Y-12628618D01*
X-12128618Y-13628618D01*
X-11840206Y-13821329D01*
X-11840205Y-13821330D01*
X-11500000Y-13889000D01*
X-10500000Y-13889000D01*
X-7130449Y-13889000D01*
X-7040173Y-14026427D01*
X-6829140Y-14168877D01*
X-6579500Y-14218940D01*
X-5944500Y-14218940D01*
X-5702377Y-14171963D01*
X-5498740Y-14038194D01*
X-5305140Y-14168877D01*
X-5055500Y-14218940D01*
X-4420500Y-14218940D01*
X-4178377Y-14171963D01*
X-3965573Y-14032173D01*
X-3868930Y-13889000D01*
X-3763576Y-13889000D01*
X-3602190Y-13997937D01*
X-3352550Y-14048000D01*
X-2728091Y-14048000D01*
X-2759748Y-14061113D01*
X-2938377Y-14239741D01*
X-3035050Y-14473130D01*
X-3035050Y-14725749D01*
X-3035050Y-14814070D01*
X-2876300Y-14972820D01*
X-2127000Y-14972820D01*
X-2127000Y-14123190D01*
X-2273415Y-13976775D01*
X-2097523Y-13861233D01*
X-1999673Y-13716272D01*
X-1908223Y-13855487D01*
X-1727374Y-13977563D01*
X-1873000Y-14123190D01*
X-1873000Y-14972820D01*
X-1123700Y-14972820D01*
X-964950Y-14814070D01*
X-964950Y-14725749D01*
X-964950Y-14473130D01*
X-1061623Y-14239741D01*
X-1240252Y-14061113D01*
X-1271910Y-14048000D01*
X-889000Y-14048000D01*
X-889000Y-15131764D01*
X-1053878Y-15296642D01*
X-1123700Y-15226820D01*
X-1873000Y-15226820D01*
X-1873000Y-16076450D01*
X-1853343Y-16096107D01*
X-2127000Y-16369764D01*
X-2127000Y-16076450D01*
X-2127000Y-15226820D01*
X-2876300Y-15226820D01*
X-3035050Y-15385570D01*
X-3035050Y-15473891D01*
X-3035050Y-15726510D01*
X-2938377Y-15959899D01*
X-2759748Y-16138527D01*
X-2526359Y-16235200D01*
X-2285750Y-16235200D01*
X-2127000Y-16076450D01*
X-2127000Y-16369764D01*
X-3128618Y-17371382D01*
X-3321329Y-17659794D01*
X-3389000Y-18000000D01*
X-3389000Y-18373000D01*
X-3785500Y-18373000D01*
X-3785500Y-16697810D01*
X-3785500Y-16445191D01*
X-3785500Y-16285750D01*
X-3785500Y-15714250D01*
X-3785500Y-15554809D01*
X-3785500Y-15302190D01*
X-3882173Y-15068801D01*
X-4060802Y-14890173D01*
X-4294191Y-14793500D01*
X-4452250Y-14793500D01*
X-4611000Y-14952250D01*
X-4611000Y-15873000D01*
X-3944250Y-15873000D01*
X-3785500Y-15714250D01*
X-3785500Y-16285750D01*
X-3944250Y-16127000D01*
X-4611000Y-16127000D01*
X-4611000Y-17047750D01*
X-4452250Y-17206500D01*
X-4294191Y-17206500D01*
X-4060802Y-17109827D01*
X-3882173Y-16931199D01*
X-3785500Y-16697810D01*
X-3785500Y-18373000D01*
X-6049987Y-18373000D01*
X-6055015Y-18347721D01*
X-6127340Y-18173116D01*
X-6157297Y-18100793D01*
X-6157297Y-18100792D01*
X-6699228Y-17289734D01*
X-6817816Y-17171148D01*
X-6579500Y-17218940D01*
X-5944500Y-17218940D01*
X-5702377Y-17171963D01*
X-5491553Y-17033473D01*
X-5415198Y-17109827D01*
X-5181809Y-17206500D01*
X-5023750Y-17206500D01*
X-4865000Y-17047750D01*
X-4865000Y-16127000D01*
X-4885000Y-16127000D01*
X-4885000Y-15873000D01*
X-4865000Y-15873000D01*
X-4865000Y-14952250D01*
X-5023750Y-14793500D01*
X-5181809Y-14793500D01*
X-5415198Y-14890173D01*
X-5492646Y-14967620D01*
X-5694860Y-14831123D01*
X-5944500Y-14781060D01*
X-6579500Y-14781060D01*
X-6821623Y-14828037D01*
X-7034427Y-14967827D01*
X-7131071Y-15111000D01*
X-13500000Y-15111000D01*
X-14500000Y-15111000D01*
X-14840205Y-15178670D01*
X-15128618Y-15371382D01*
X-16128618Y-16371382D01*
X-16321329Y-16659794D01*
X-16389000Y-17000000D01*
X-16389000Y-18373000D01*
X-18851552Y-18373000D01*
X-18851552Y-753495D01*
X-18643765Y-961645D01*
X-18226756Y-1134803D01*
X-17775225Y-1135197D01*
X-17357914Y-962767D01*
X-17038355Y-643765D01*
X-16865197Y-226756D01*
X-16864803Y224775D01*
X-17037233Y642086D01*
X-17267745Y873000D01*
X-732010Y873000D01*
X-961645Y643765D01*
X-1134803Y226756D01*
X-1135197Y-224775D01*
X-962767Y-642086D01*
X-643765Y-961645D01*
X-226756Y-1134803D01*
X224775Y-1135197D01*
X642086Y-962767D01*
X778448Y-826642D01*
X778448Y-13095618D01*
M02*
