G04 #@! TF.FileFunction,Copper,L2,Bot,Signal*
%FSLAX46Y46*%
G04 Gerber Fmt 4.6, Leading zero omitted, Abs format (unit mm)*
G04 Created by KiCad (PCBNEW (2015-01-16 BZR 5376)-product) date 16/06/2015 17:16:53*
%MOMM*%
G01*
G04 APERTURE LIST*
%ADD10C,0.100000*%
%ADD11C,2.200000*%
%ADD12C,1.000000*%
%ADD13R,7.000000X37.000000*%
%ADD14C,0.254000*%
G04 APERTURE END LIST*
D10*
D11*
X-5500000Y-1500000D03*
X-9000000Y-1500000D03*
X-12500000Y-1500000D03*
X-5500000Y-8500000D03*
X-9000000Y-8500000D03*
X-12500000Y-8500000D03*
D12*
X-18000000Y-20500000D03*
X-15500000Y-20500000D03*
X-13000000Y-20500000D03*
X-13000000Y-27500000D03*
X-15500000Y-27500000D03*
X-18000000Y-27500000D03*
X-16500000Y-59500000D03*
X-14500000Y-59500000D03*
X-13000000Y-55500000D03*
X-15500000Y-55500000D03*
X-18000000Y-55500000D03*
X-18000000Y-48500000D03*
X-15500000Y-48500000D03*
X-13000000Y-48500000D03*
X-13000000Y-41500000D03*
X-15500000Y-41500000D03*
X-18000000Y-41500000D03*
X-18000000Y-34500000D03*
X-15500000Y-34500000D03*
X-13000000Y-34500000D03*
D10*
G36*
X-17000000Y-60500000D02*
X-19000000Y-56500000D01*
X-12000000Y-56500000D01*
X-14000000Y-60500000D01*
X-17000000Y-60500000D01*
X-17000000Y-60500000D01*
G37*
D13*
X-15500000Y-38000000D03*
D12*
X-5000000Y-20500000D03*
X-2500000Y-20500000D03*
X0Y-20500000D03*
X0Y-27500000D03*
X-2500000Y-27500000D03*
X-5000000Y-27500000D03*
X-3500000Y-59500000D03*
X-1500000Y-59500000D03*
X0Y-55500000D03*
X-2500000Y-55500000D03*
X-5000000Y-55500000D03*
X-5000000Y-48500000D03*
X-2500000Y-48500000D03*
X0Y-48500000D03*
X0Y-41500000D03*
X-2500000Y-41500000D03*
X-5000000Y-41500000D03*
X-5000000Y-34500000D03*
X-2500000Y-34500000D03*
X0Y-34500000D03*
D10*
G36*
X-4000000Y-60500000D02*
X-6000000Y-56500000D01*
X1000000Y-56500000D01*
X-1000000Y-60500000D01*
X-4000000Y-60500000D01*
X-4000000Y-60500000D01*
G37*
D13*
X-2500000Y-38000000D03*
D14*
G36*
X778448Y-18373000D02*
X-3764699Y-18373000D01*
X-3764699Y-8156401D01*
X-3764699Y-1156401D01*
X-4028281Y-518485D01*
X-4515918Y-29996D01*
X-5153373Y234699D01*
X-5843599Y235301D01*
X-6481515Y-28281D01*
X-6970004Y-515918D01*
X-7234699Y-1153373D01*
X-7235301Y-1843599D01*
X-6971719Y-2481515D01*
X-6484082Y-2970004D01*
X-5846627Y-3234699D01*
X-5156401Y-3235301D01*
X-4518485Y-2971719D01*
X-4029996Y-2484082D01*
X-3765301Y-1846627D01*
X-3764699Y-1156401D01*
X-3764699Y-8156401D01*
X-4028281Y-7518485D01*
X-4515918Y-7029996D01*
X-5153373Y-6765301D01*
X-5843599Y-6764699D01*
X-6481515Y-7028281D01*
X-6970004Y-7515918D01*
X-7234699Y-8153373D01*
X-7235301Y-8843599D01*
X-6971719Y-9481515D01*
X-6484082Y-9970004D01*
X-5846627Y-10234699D01*
X-5156401Y-10235301D01*
X-4518485Y-9971719D01*
X-4029996Y-9484082D01*
X-3765301Y-8846627D01*
X-3764699Y-8156401D01*
X-3764699Y-18373000D01*
X-6049987Y-18373000D01*
X-6055015Y-18347721D01*
X-6127340Y-18173116D01*
X-6157297Y-18100793D01*
X-6157297Y-18100792D01*
X-6699228Y-17289734D01*
X-6825223Y-17163740D01*
X-6888220Y-17100744D01*
X-6888220Y-17100743D01*
X-7264699Y-16849187D01*
X-7264699Y-8156401D01*
X-7264699Y-1156401D01*
X-7528281Y-518485D01*
X-8015918Y-29996D01*
X-8653373Y234699D01*
X-9343599Y235301D01*
X-9981515Y-28281D01*
X-10470004Y-515918D01*
X-10734699Y-1153373D01*
X-10735301Y-1843599D01*
X-10471719Y-2481515D01*
X-9984082Y-2970004D01*
X-9346627Y-3234699D01*
X-8656401Y-3235301D01*
X-8018485Y-2971719D01*
X-7529996Y-2484082D01*
X-7265301Y-1846627D01*
X-7264699Y-1156401D01*
X-7264699Y-8156401D01*
X-7528281Y-7518485D01*
X-8015918Y-7029996D01*
X-8653373Y-6765301D01*
X-9343599Y-6764699D01*
X-9981515Y-7028281D01*
X-10470004Y-7515918D01*
X-10734699Y-8153373D01*
X-10735301Y-8843599D01*
X-10471719Y-9481515D01*
X-9984082Y-9970004D01*
X-9346627Y-10234699D01*
X-8656401Y-10235301D01*
X-8018485Y-9971719D01*
X-7529996Y-9484082D01*
X-7265301Y-8846627D01*
X-7264699Y-8156401D01*
X-7264699Y-16849187D01*
X-7699277Y-16558811D01*
X-7843925Y-16498896D01*
X-7946206Y-16456530D01*
X-8902915Y-16266229D01*
X-9036552Y-16266229D01*
X-9170189Y-16266229D01*
X-10126898Y-16456530D01*
X-10301503Y-16528854D01*
X-10373827Y-16558812D01*
X-10754677Y-16813287D01*
X-10754677Y-8788407D01*
X-10754677Y-1788407D01*
X-10777164Y-1098547D01*
X-10997901Y-565641D01*
X-11275132Y-454737D01*
X-11454737Y-634342D01*
X-11454737Y-275132D01*
X-11565641Y2099D01*
X-12211593Y245323D01*
X-12901453Y222836D01*
X-13434359Y2099D01*
X-13545263Y-275132D01*
X-12500000Y-1320395D01*
X-11454737Y-275132D01*
X-11454737Y-634342D01*
X-12320395Y-1500000D01*
X-11275132Y-2545263D01*
X-10997901Y-2434359D01*
X-10754677Y-1788407D01*
X-10754677Y-8788407D01*
X-10777164Y-8098547D01*
X-10997901Y-7565641D01*
X-11275132Y-7454737D01*
X-11454737Y-7634342D01*
X-11454737Y-7275132D01*
X-11454737Y-2724868D01*
X-12500000Y-1679605D01*
X-12679605Y-1859210D01*
X-12679605Y-1500000D01*
X-13724868Y-454737D01*
X-14002099Y-565641D01*
X-14245323Y-1211593D01*
X-14222836Y-1901453D01*
X-14002099Y-2434359D01*
X-13724868Y-2545263D01*
X-12679605Y-1500000D01*
X-12679605Y-1859210D01*
X-13545263Y-2724868D01*
X-13434359Y-3002099D01*
X-12788407Y-3245323D01*
X-12098547Y-3222836D01*
X-11565641Y-3002099D01*
X-11454737Y-2724868D01*
X-11454737Y-7275132D01*
X-11565641Y-6997901D01*
X-12211593Y-6754677D01*
X-12901453Y-6777164D01*
X-13434359Y-6997901D01*
X-13545263Y-7275132D01*
X-12500000Y-8320395D01*
X-11454737Y-7275132D01*
X-11454737Y-7634342D01*
X-12320395Y-8500000D01*
X-11275132Y-9545263D01*
X-10997901Y-9434359D01*
X-10754677Y-8788407D01*
X-10754677Y-16813287D01*
X-11184885Y-17100743D01*
X-11310879Y-17226737D01*
X-11373876Y-17289735D01*
X-11454737Y-17410751D01*
X-11454737Y-9724868D01*
X-12500000Y-8679605D01*
X-12679605Y-8859210D01*
X-12679605Y-8500000D01*
X-13724868Y-7454737D01*
X-14002099Y-7565641D01*
X-14245323Y-8211593D01*
X-14222836Y-8901453D01*
X-14002099Y-9434359D01*
X-13724868Y-9545263D01*
X-12679605Y-8500000D01*
X-12679605Y-8859210D01*
X-13545263Y-9724868D01*
X-13434359Y-10002099D01*
X-12788407Y-10245323D01*
X-12098547Y-10222836D01*
X-11565641Y-10002099D01*
X-11454737Y-9724868D01*
X-11454737Y-17410751D01*
X-11915808Y-18100792D01*
X-11975723Y-18245439D01*
X-12018089Y-18347721D01*
X-12023118Y-18373000D01*
X-18851552Y-18373000D01*
X-18851552Y-505534D01*
X-18739055Y60027D01*
X-18456909Y482290D01*
X-18034646Y764436D01*
X-17488859Y873000D01*
X-584247Y873000D01*
X-38459Y764436D01*
X383804Y482290D01*
X665950Y60027D01*
X778448Y-505533D01*
X778448Y-18373000D01*
X778448Y-18373000D01*
G37*
X778448Y-18373000D02*
X-3764699Y-18373000D01*
X-3764699Y-8156401D01*
X-3764699Y-1156401D01*
X-4028281Y-518485D01*
X-4515918Y-29996D01*
X-5153373Y234699D01*
X-5843599Y235301D01*
X-6481515Y-28281D01*
X-6970004Y-515918D01*
X-7234699Y-1153373D01*
X-7235301Y-1843599D01*
X-6971719Y-2481515D01*
X-6484082Y-2970004D01*
X-5846627Y-3234699D01*
X-5156401Y-3235301D01*
X-4518485Y-2971719D01*
X-4029996Y-2484082D01*
X-3765301Y-1846627D01*
X-3764699Y-1156401D01*
X-3764699Y-8156401D01*
X-4028281Y-7518485D01*
X-4515918Y-7029996D01*
X-5153373Y-6765301D01*
X-5843599Y-6764699D01*
X-6481515Y-7028281D01*
X-6970004Y-7515918D01*
X-7234699Y-8153373D01*
X-7235301Y-8843599D01*
X-6971719Y-9481515D01*
X-6484082Y-9970004D01*
X-5846627Y-10234699D01*
X-5156401Y-10235301D01*
X-4518485Y-9971719D01*
X-4029996Y-9484082D01*
X-3765301Y-8846627D01*
X-3764699Y-8156401D01*
X-3764699Y-18373000D01*
X-6049987Y-18373000D01*
X-6055015Y-18347721D01*
X-6127340Y-18173116D01*
X-6157297Y-18100793D01*
X-6157297Y-18100792D01*
X-6699228Y-17289734D01*
X-6825223Y-17163740D01*
X-6888220Y-17100744D01*
X-6888220Y-17100743D01*
X-7264699Y-16849187D01*
X-7264699Y-8156401D01*
X-7264699Y-1156401D01*
X-7528281Y-518485D01*
X-8015918Y-29996D01*
X-8653373Y234699D01*
X-9343599Y235301D01*
X-9981515Y-28281D01*
X-10470004Y-515918D01*
X-10734699Y-1153373D01*
X-10735301Y-1843599D01*
X-10471719Y-2481515D01*
X-9984082Y-2970004D01*
X-9346627Y-3234699D01*
X-8656401Y-3235301D01*
X-8018485Y-2971719D01*
X-7529996Y-2484082D01*
X-7265301Y-1846627D01*
X-7264699Y-1156401D01*
X-7264699Y-8156401D01*
X-7528281Y-7518485D01*
X-8015918Y-7029996D01*
X-8653373Y-6765301D01*
X-9343599Y-6764699D01*
X-9981515Y-7028281D01*
X-10470004Y-7515918D01*
X-10734699Y-8153373D01*
X-10735301Y-8843599D01*
X-10471719Y-9481515D01*
X-9984082Y-9970004D01*
X-9346627Y-10234699D01*
X-8656401Y-10235301D01*
X-8018485Y-9971719D01*
X-7529996Y-9484082D01*
X-7265301Y-8846627D01*
X-7264699Y-8156401D01*
X-7264699Y-16849187D01*
X-7699277Y-16558811D01*
X-7843925Y-16498896D01*
X-7946206Y-16456530D01*
X-8902915Y-16266229D01*
X-9036552Y-16266229D01*
X-9170189Y-16266229D01*
X-10126898Y-16456530D01*
X-10301503Y-16528854D01*
X-10373827Y-16558812D01*
X-10754677Y-16813287D01*
X-10754677Y-8788407D01*
X-10754677Y-1788407D01*
X-10777164Y-1098547D01*
X-10997901Y-565641D01*
X-11275132Y-454737D01*
X-11454737Y-634342D01*
X-11454737Y-275132D01*
X-11565641Y2099D01*
X-12211593Y245323D01*
X-12901453Y222836D01*
X-13434359Y2099D01*
X-13545263Y-275132D01*
X-12500000Y-1320395D01*
X-11454737Y-275132D01*
X-11454737Y-634342D01*
X-12320395Y-1500000D01*
X-11275132Y-2545263D01*
X-10997901Y-2434359D01*
X-10754677Y-1788407D01*
X-10754677Y-8788407D01*
X-10777164Y-8098547D01*
X-10997901Y-7565641D01*
X-11275132Y-7454737D01*
X-11454737Y-7634342D01*
X-11454737Y-7275132D01*
X-11454737Y-2724868D01*
X-12500000Y-1679605D01*
X-12679605Y-1859210D01*
X-12679605Y-1500000D01*
X-13724868Y-454737D01*
X-14002099Y-565641D01*
X-14245323Y-1211593D01*
X-14222836Y-1901453D01*
X-14002099Y-2434359D01*
X-13724868Y-2545263D01*
X-12679605Y-1500000D01*
X-12679605Y-1859210D01*
X-13545263Y-2724868D01*
X-13434359Y-3002099D01*
X-12788407Y-3245323D01*
X-12098547Y-3222836D01*
X-11565641Y-3002099D01*
X-11454737Y-2724868D01*
X-11454737Y-7275132D01*
X-11565641Y-6997901D01*
X-12211593Y-6754677D01*
X-12901453Y-6777164D01*
X-13434359Y-6997901D01*
X-13545263Y-7275132D01*
X-12500000Y-8320395D01*
X-11454737Y-7275132D01*
X-11454737Y-7634342D01*
X-12320395Y-8500000D01*
X-11275132Y-9545263D01*
X-10997901Y-9434359D01*
X-10754677Y-8788407D01*
X-10754677Y-16813287D01*
X-11184885Y-17100743D01*
X-11310879Y-17226737D01*
X-11373876Y-17289735D01*
X-11454737Y-17410751D01*
X-11454737Y-9724868D01*
X-12500000Y-8679605D01*
X-12679605Y-8859210D01*
X-12679605Y-8500000D01*
X-13724868Y-7454737D01*
X-14002099Y-7565641D01*
X-14245323Y-8211593D01*
X-14222836Y-8901453D01*
X-14002099Y-9434359D01*
X-13724868Y-9545263D01*
X-12679605Y-8500000D01*
X-12679605Y-8859210D01*
X-13545263Y-9724868D01*
X-13434359Y-10002099D01*
X-12788407Y-10245323D01*
X-12098547Y-10222836D01*
X-11565641Y-10002099D01*
X-11454737Y-9724868D01*
X-11454737Y-17410751D01*
X-11915808Y-18100792D01*
X-11975723Y-18245439D01*
X-12018089Y-18347721D01*
X-12023118Y-18373000D01*
X-18851552Y-18373000D01*
X-18851552Y-505534D01*
X-18739055Y60027D01*
X-18456909Y482290D01*
X-18034646Y764436D01*
X-17488859Y873000D01*
X-584247Y873000D01*
X-38459Y764436D01*
X383804Y482290D01*
X665950Y60027D01*
X778448Y-505533D01*
X778448Y-18373000D01*
M02*
