M48
;DRILL file {kicad (2015-01-16 BZR 5376)-product} date 16/06/2015 17:17:09
;FORMAT={-:-/ absolute / metric / decimal}
FMAT,2
METRIC,TZ
T1C0.500
T2C1.200
%
G90
G05
M71
T1
X-18.Y-20.5
X-18.Y-27.5
X-18.Y-34.5
X-18.Y-41.5
X-18.Y-48.5
X-18.Y-55.5
X-16.5Y-59.5
X-15.5Y-20.5
X-15.5Y-27.5
X-15.5Y-34.5
X-15.5Y-41.5
X-15.5Y-48.5
X-15.5Y-55.5
X-14.5Y-59.5
X-13.Y-20.5
X-13.Y-27.5
X-13.Y-34.5
X-13.Y-41.5
X-13.Y-48.5
X-13.Y-55.5
X-5.Y-20.5
X-5.Y-27.5
X-5.Y-34.5
X-5.Y-41.5
X-5.Y-48.5
X-5.Y-55.5
X-3.5Y-59.5
X-2.5Y-20.5
X-2.5Y-27.5
X-2.5Y-34.5
X-2.5Y-41.5
X-2.5Y-48.5
X-2.5Y-55.5
X-1.5Y-59.5
X0.Y-20.5
X0.Y-27.5
X0.Y-34.5
X0.Y-41.5
X0.Y-48.5
X0.Y-55.5
T2
X-12.5Y-1.5
X-12.5Y-8.5
X-9.Y-1.5
X-9.Y-8.5
X-5.5Y-1.5
X-5.5Y-8.5
T0
M30
