G04 (created by PCBNEW (2013-07-07 BZR 4022)-stable) date 04/07/2014 12:13:18*
%MOIN*%
G04 Gerber Fmt 3.4, Leading zero omitted, Abs format*
%FSLAX34Y34*%
G01*
G70*
G90*
G04 APERTURE LIST*
%ADD10C,0.00590551*%
%ADD11C,0.00393701*%
%ADD12R,0.016X0.06*%
%ADD13R,0.06X0.016*%
%ADD14R,0.036X0.036*%
%ADD15R,0.0315X0.0394*%
%ADD16R,0.025X0.045*%
%ADD17R,0.045X0.025*%
%ADD18C,0.0708661*%
%ADD19R,0.0551181X0.00905512*%
%ADD20R,0.00905512X0.0551181*%
%ADD21R,0.220472X0.0866142*%
%ADD22C,0.15748*%
%ADD23C,0.06*%
%ADD24C,0.0984252*%
%ADD25C,0.0669291*%
%ADD26R,0.0688976X0.015748*%
%ADD27R,0.0574803X0.0787402*%
%ADD28R,0.124016X0.0511811*%
%ADD29R,0.0984252X0.0561024*%
%ADD30R,0.06X0.06*%
%ADD31C,0.0787402*%
%ADD32C,0.0393701*%
%ADD33O,0.0787402X0.122047*%
%ADD34C,0.255906*%
%ADD35C,0.0275591*%
%ADD36C,0.015748*%
%ADD37C,0.00787402*%
%ADD38C,0.011811*%
%ADD39C,0.019685*%
%ADD40C,0.0393701*%
%ADD41C,0.01*%
G04 APERTURE END LIST*
G54D10*
G54D11*
X35531Y-48472D02*
X35531Y-29722D01*
X35531Y-48472D02*
G75*
G03X37518Y-50460I1987J0D01*
G74*
G01*
X72520Y-50460D02*
X37518Y-50460D01*
X72520Y-50460D02*
G75*
G03X74507Y-48472I0J1987D01*
G74*
G01*
X74507Y-29722D02*
X74507Y-48472D01*
X74507Y-29722D02*
G75*
G03X72520Y-27735I-1987J0D01*
G74*
G01*
X37518Y-27735D02*
X72520Y-27735D01*
X37518Y-27735D02*
G75*
G03X35531Y-29722I0J-1987D01*
G74*
G01*
G54D12*
X45984Y-37557D03*
X45669Y-37557D03*
X45354Y-37557D03*
X45039Y-37557D03*
X44724Y-37557D03*
X44409Y-37557D03*
X46299Y-37557D03*
X46614Y-37557D03*
X46929Y-37557D03*
X47244Y-37557D03*
X47559Y-37557D03*
X45984Y-42057D03*
X45669Y-42057D03*
X45354Y-42057D03*
X45039Y-42057D03*
X44724Y-42057D03*
X44409Y-42057D03*
X46299Y-42057D03*
X46614Y-42057D03*
X46929Y-42057D03*
X47244Y-42057D03*
X47559Y-42057D03*
G54D13*
X43734Y-39807D03*
X48234Y-39807D03*
X43734Y-40122D03*
X48234Y-40122D03*
X48234Y-40437D03*
X43734Y-40437D03*
X43734Y-40752D03*
X48234Y-40752D03*
X48234Y-41067D03*
X43734Y-41067D03*
X43734Y-41382D03*
X48234Y-41382D03*
X48234Y-39492D03*
X43734Y-39492D03*
X43734Y-39177D03*
X48234Y-39177D03*
X48234Y-38862D03*
X43734Y-38862D03*
X43734Y-38547D03*
X48234Y-38547D03*
X48234Y-38232D03*
X43734Y-38232D03*
G54D14*
X52318Y-40049D03*
X51618Y-40049D03*
X51968Y-39249D03*
G54D15*
X42834Y-35791D03*
X43209Y-36657D03*
X42459Y-36657D03*
G54D16*
X41511Y-39492D03*
X42111Y-39492D03*
G54D17*
X61456Y-33483D03*
X61456Y-34083D03*
X58300Y-46400D03*
X58300Y-45800D03*
G54D16*
X39050Y-42200D03*
X39650Y-42200D03*
X51559Y-40555D03*
X50959Y-40555D03*
G54D17*
X48307Y-37272D03*
X48307Y-36672D03*
G54D16*
X43203Y-42799D03*
X43803Y-42799D03*
X57613Y-41578D03*
X58213Y-41578D03*
X41511Y-38862D03*
X42111Y-38862D03*
G54D17*
X53582Y-39467D03*
X53582Y-40067D03*
X52952Y-39467D03*
X52952Y-40067D03*
G54D16*
X61323Y-40988D03*
X60723Y-40988D03*
G54D17*
X72780Y-34910D03*
X72780Y-34310D03*
X73450Y-34910D03*
X73450Y-34310D03*
X57100Y-46400D03*
X57100Y-45800D03*
X62401Y-40422D03*
X62401Y-39822D03*
X44921Y-36681D03*
X44921Y-36081D03*
G54D16*
X44739Y-42799D03*
X45339Y-42799D03*
G54D17*
X49370Y-41121D03*
X49370Y-41721D03*
X47559Y-36681D03*
X47559Y-36081D03*
X44330Y-36681D03*
X44330Y-36081D03*
G54D16*
X60723Y-39846D03*
X61323Y-39846D03*
G54D17*
X56500Y-46400D03*
X56500Y-45800D03*
X57700Y-46400D03*
X57700Y-45800D03*
X55900Y-46400D03*
X55900Y-45800D03*
X55300Y-46400D03*
X55300Y-45800D03*
X54700Y-46400D03*
X54700Y-45800D03*
G54D16*
X57613Y-42169D03*
X58213Y-42169D03*
G54D17*
X58720Y-41475D03*
X58720Y-42075D03*
X41929Y-36681D03*
X41929Y-36081D03*
X43740Y-36681D03*
X43740Y-36081D03*
G54D16*
X59660Y-34610D03*
X60260Y-34610D03*
X59660Y-35161D03*
X60260Y-35161D03*
X47977Y-45318D03*
X47377Y-45318D03*
X60723Y-39295D03*
X61323Y-39295D03*
X62022Y-38350D03*
X62622Y-38350D03*
X60723Y-38350D03*
X61323Y-38350D03*
G54D17*
X57086Y-41081D03*
X57086Y-41681D03*
X61811Y-40422D03*
X61811Y-39822D03*
X60433Y-37154D03*
X60433Y-36554D03*
X53582Y-37105D03*
X53582Y-37705D03*
X58976Y-35737D03*
X58976Y-35137D03*
X62913Y-37262D03*
X62913Y-37862D03*
G54D16*
X60920Y-37090D03*
X61520Y-37090D03*
X60920Y-37641D03*
X61520Y-37641D03*
G54D17*
X59881Y-37154D03*
X59881Y-36554D03*
G54D16*
X56441Y-35003D03*
X55841Y-35003D03*
G54D17*
X56496Y-41081D03*
X56496Y-41681D03*
G54D16*
X42111Y-40082D03*
X41511Y-40082D03*
X46117Y-45318D03*
X46717Y-45318D03*
G54D17*
X62322Y-37262D03*
X62322Y-37862D03*
G54D16*
X61323Y-40397D03*
X60723Y-40397D03*
G54D18*
X60286Y-32808D03*
X59286Y-32808D03*
X60286Y-31808D03*
X59286Y-31808D03*
X60286Y-30808D03*
X59286Y-30808D03*
X60286Y-29808D03*
X59286Y-29808D03*
G54D19*
X59173Y-39531D03*
X59173Y-39374D03*
X59173Y-39216D03*
X59173Y-39059D03*
X59173Y-38901D03*
X59173Y-38744D03*
X59173Y-38586D03*
X59173Y-38429D03*
X59173Y-38271D03*
X59173Y-38114D03*
X59173Y-37956D03*
X59173Y-37799D03*
X59173Y-37641D03*
X59173Y-37484D03*
X59173Y-37326D03*
X59173Y-37169D03*
X59173Y-37011D03*
X59173Y-36854D03*
X59173Y-36696D03*
X59173Y-36539D03*
G54D20*
X58307Y-35673D03*
X58149Y-35673D03*
X57992Y-35673D03*
X57834Y-35673D03*
X57677Y-35673D03*
X57519Y-35673D03*
X57362Y-35673D03*
X57204Y-35673D03*
X57047Y-35673D03*
X56889Y-35673D03*
X56732Y-35673D03*
X56574Y-35673D03*
X56417Y-35673D03*
X56259Y-35673D03*
X56102Y-35673D03*
X55944Y-35673D03*
X55787Y-35673D03*
X55629Y-35673D03*
X55472Y-35673D03*
X55314Y-35673D03*
G54D19*
X54448Y-36539D03*
X54448Y-36696D03*
X54448Y-36854D03*
X54448Y-37011D03*
X54448Y-37169D03*
X54448Y-37326D03*
X54448Y-37484D03*
X54448Y-37641D03*
X54448Y-37799D03*
X54448Y-37956D03*
X54448Y-38114D03*
X54448Y-38271D03*
X54448Y-38429D03*
X54448Y-38586D03*
X54448Y-38744D03*
X54448Y-38901D03*
X54448Y-39059D03*
X54448Y-39216D03*
X54448Y-39374D03*
X54448Y-39531D03*
G54D20*
X55314Y-40397D03*
X55472Y-40397D03*
X55629Y-40397D03*
X55787Y-40397D03*
X55944Y-40397D03*
X56102Y-40397D03*
X56259Y-40397D03*
X56417Y-40397D03*
X56574Y-40397D03*
X56732Y-40397D03*
X56889Y-40397D03*
X57047Y-40397D03*
X57204Y-40397D03*
X57362Y-40397D03*
X57519Y-40397D03*
X57677Y-40397D03*
X57834Y-40397D03*
X57992Y-40397D03*
X58149Y-40397D03*
X58307Y-40397D03*
G54D21*
X46003Y-46578D03*
X49744Y-46578D03*
X56003Y-43429D03*
X59744Y-43429D03*
G54D22*
X71449Y-36824D03*
X71449Y-41324D03*
G54D23*
X68949Y-40824D03*
X67949Y-40324D03*
X68949Y-39824D03*
X67949Y-39324D03*
X68949Y-38824D03*
X67949Y-38324D03*
X68949Y-37824D03*
G54D24*
X70248Y-36012D03*
X70248Y-42135D03*
G54D23*
X67949Y-37324D03*
G54D25*
X72779Y-36583D03*
X73378Y-37583D03*
X72779Y-40564D03*
X73378Y-41564D03*
G54D26*
X37422Y-38602D03*
X37422Y-38858D03*
X37422Y-39114D03*
X37422Y-39369D03*
X37422Y-39625D03*
G54D27*
X37503Y-37972D03*
X37503Y-40255D03*
G54D28*
X36497Y-38041D03*
X36497Y-40186D03*
G54D29*
X36113Y-38735D03*
X36113Y-39492D03*
G54D30*
X36479Y-42499D03*
G54D23*
X37479Y-42499D03*
X36479Y-43499D03*
X37479Y-43499D03*
X36479Y-44499D03*
X37479Y-44499D03*
G54D17*
X54100Y-45800D03*
X54100Y-46400D03*
G54D16*
X62307Y-40988D03*
X61707Y-40988D03*
G54D17*
X41220Y-37784D03*
X41220Y-37184D03*
G54D16*
X41511Y-38271D03*
X42111Y-38271D03*
X62416Y-36224D03*
X63016Y-36224D03*
X62416Y-35614D03*
X63016Y-35614D03*
G54D17*
X62283Y-42449D03*
X62283Y-41849D03*
X62893Y-42233D03*
X62893Y-41633D03*
G54D16*
X39050Y-41550D03*
X39650Y-41550D03*
X62012Y-35889D03*
X61412Y-35889D03*
X61776Y-42366D03*
X61176Y-42366D03*
G54D31*
X71437Y-46997D03*
X71437Y-45225D03*
X68878Y-45225D03*
X68878Y-46997D03*
G54D17*
X52700Y-46400D03*
X52700Y-45800D03*
X52100Y-46400D03*
X52100Y-45800D03*
G54D32*
X58019Y-47110D03*
G54D33*
X39665Y-43330D03*
X39665Y-37425D03*
G54D32*
X57519Y-47110D03*
X57019Y-47110D03*
X56519Y-47110D03*
X56019Y-47110D03*
X55519Y-47110D03*
X55019Y-47110D03*
X54519Y-47110D03*
X54019Y-47110D03*
X53519Y-47110D03*
X53019Y-47110D03*
X52519Y-47110D03*
X52019Y-47110D03*
G54D34*
X72519Y-29723D03*
X37519Y-29723D03*
X37519Y-48473D03*
X72519Y-48473D03*
G54D35*
X46600Y-40875D03*
X50007Y-39929D03*
X56614Y-33940D03*
X57559Y-33901D03*
X44724Y-41224D03*
X56614Y-33547D03*
X57204Y-33389D03*
X48976Y-40122D03*
X44685Y-40830D03*
X49173Y-39807D03*
X44685Y-40437D03*
X47657Y-39177D03*
X51181Y-40043D03*
X56653Y-32917D03*
X57165Y-36224D03*
X48976Y-39492D03*
X50027Y-40736D03*
X41220Y-36854D03*
X41181Y-40082D03*
X54700Y-45100D03*
X55300Y-45100D03*
X55900Y-45100D03*
X56500Y-45100D03*
X57100Y-45100D03*
X57700Y-45100D03*
X56496Y-42011D03*
X58562Y-42405D03*
X62401Y-39295D03*
X61830Y-37641D03*
X61082Y-35889D03*
X60846Y-42366D03*
X55000Y-36736D03*
X52322Y-40437D03*
X49370Y-42051D03*
X43228Y-39492D03*
X58661Y-37484D03*
X53582Y-38035D03*
X60590Y-35161D03*
X60590Y-34610D03*
X58976Y-34807D03*
X48740Y-41460D03*
X47047Y-45318D03*
X45393Y-41539D03*
X47559Y-35751D03*
X47086Y-38153D03*
X44921Y-35751D03*
X44330Y-35751D03*
X44724Y-38074D03*
X43740Y-35751D03*
X42834Y-36224D03*
X41929Y-35751D03*
X62952Y-38350D03*
X56692Y-36224D03*
X55944Y-36185D03*
X55787Y-39885D03*
X62637Y-40988D03*
X61811Y-39295D03*
X60433Y-36224D03*
X59881Y-36224D03*
X61850Y-37090D03*
X61653Y-38350D03*
X58661Y-37129D03*
X59724Y-38271D03*
X57834Y-39885D03*
X58661Y-39059D03*
X57362Y-39885D03*
X60157Y-38389D03*
G54D36*
X60920Y-37090D02*
X60920Y-37641D01*
G54D37*
X60920Y-37641D02*
X60723Y-37641D01*
X60408Y-37956D02*
X59173Y-37956D01*
X60408Y-37956D02*
X60723Y-37641D01*
X57401Y-38586D02*
X57401Y-37326D01*
X59173Y-37956D02*
X58818Y-37956D01*
X58188Y-38586D02*
X57401Y-38586D01*
X58818Y-37956D02*
X58188Y-38586D01*
X56417Y-35673D02*
X56417Y-35028D01*
X56417Y-35028D02*
X56441Y-35003D01*
G54D38*
X62913Y-37262D02*
X62322Y-37262D01*
X62322Y-37262D02*
X62322Y-37051D01*
X61353Y-36657D02*
X60920Y-37090D01*
X61929Y-36657D02*
X61353Y-36657D01*
X62322Y-37051D02*
X61929Y-36657D01*
X59881Y-37154D02*
X59881Y-36972D01*
X60920Y-37066D02*
X60920Y-37090D01*
X60708Y-36854D02*
X60920Y-37066D01*
X60669Y-36854D02*
X60708Y-36854D01*
X60000Y-36854D02*
X60669Y-36854D01*
X59881Y-36972D02*
X60000Y-36854D01*
G54D37*
X56574Y-40397D02*
X56574Y-39413D01*
X56574Y-39413D02*
X57401Y-38586D01*
X56417Y-35673D02*
X56417Y-36342D01*
X56417Y-36342D02*
X57401Y-37326D01*
X56574Y-40397D02*
X56574Y-41003D01*
X56574Y-41003D02*
X56496Y-41081D01*
X59173Y-37169D02*
X59866Y-37169D01*
X59866Y-37169D02*
X59881Y-37154D01*
X59173Y-37326D02*
X59709Y-37326D01*
X59709Y-37326D02*
X59881Y-37154D01*
G54D38*
X44409Y-38198D02*
X44370Y-38198D01*
X44370Y-38198D02*
X43976Y-37804D01*
X43209Y-36657D02*
X43209Y-36170D01*
X43209Y-36170D02*
X43228Y-36151D01*
X44409Y-37557D02*
X44409Y-38198D01*
X44409Y-38198D02*
X44409Y-38232D01*
X44409Y-38232D02*
X44645Y-38468D01*
G54D36*
X65309Y-39848D02*
X68924Y-39848D01*
X68924Y-39848D02*
X68949Y-39824D01*
X53582Y-40067D02*
X53582Y-40457D01*
G54D37*
X55236Y-37011D02*
X54448Y-37011D01*
G54D36*
X55468Y-37243D02*
X55236Y-37011D01*
X55468Y-39340D02*
X55468Y-37243D01*
X54236Y-40572D02*
X55468Y-39340D01*
X53697Y-40572D02*
X54236Y-40572D01*
X53582Y-40457D02*
X53697Y-40572D01*
X53519Y-47110D02*
X53519Y-47759D01*
X53519Y-47759D02*
X53520Y-47760D01*
X54519Y-47110D02*
X54519Y-47784D01*
X54519Y-47784D02*
X54522Y-47787D01*
G54D37*
X52700Y-45800D02*
X52700Y-40789D01*
X52952Y-40536D02*
X52952Y-40067D01*
X52700Y-40789D02*
X52952Y-40536D01*
G54D36*
X59248Y-33565D02*
X59248Y-32845D01*
X59248Y-32845D02*
X59286Y-32808D01*
X62401Y-40422D02*
X61811Y-40422D01*
X65492Y-39848D02*
X65309Y-39848D01*
X65309Y-39848D02*
X63541Y-39848D01*
X62967Y-40422D02*
X62401Y-40422D01*
X63541Y-39848D02*
X62967Y-40422D01*
G54D37*
X59173Y-37799D02*
X58425Y-37799D01*
X54448Y-37011D02*
X53676Y-37011D01*
X53676Y-37011D02*
X53582Y-37105D01*
G54D39*
X61456Y-34083D02*
X59355Y-34083D01*
X59660Y-34610D02*
X59660Y-34388D01*
X59248Y-33976D02*
X59248Y-33565D01*
X59248Y-33565D02*
X59248Y-33559D01*
X59660Y-34388D02*
X59355Y-34083D01*
X59355Y-34083D02*
X59248Y-33976D01*
X59660Y-35161D02*
X59660Y-34610D01*
G54D37*
X59173Y-36854D02*
X58779Y-36854D01*
X58661Y-36051D02*
X58976Y-35737D01*
X58661Y-36736D02*
X58661Y-36051D01*
X58779Y-36854D02*
X58661Y-36736D01*
G54D39*
X49424Y-41066D02*
X49342Y-41066D01*
X49342Y-41066D02*
X49342Y-41067D01*
X48234Y-41067D02*
X49342Y-41067D01*
X48234Y-41067D02*
X47244Y-41067D01*
X45984Y-39807D02*
X45078Y-38901D01*
X47244Y-41067D02*
X45984Y-39807D01*
G54D38*
X45039Y-42057D02*
X45039Y-38862D01*
X45039Y-38862D02*
X45078Y-38901D01*
X45039Y-42057D02*
X45039Y-42499D01*
X45039Y-42499D02*
X44739Y-42799D01*
X47559Y-36681D02*
X48297Y-36681D01*
X48297Y-36681D02*
X48307Y-36672D01*
X47559Y-37557D02*
X47559Y-36682D01*
X47559Y-36682D02*
X47559Y-36681D01*
X47559Y-37557D02*
X47559Y-38113D01*
X47559Y-38113D02*
X47204Y-38468D01*
X47204Y-38468D02*
X44645Y-38468D01*
G54D39*
X44645Y-38468D02*
X45078Y-38901D01*
G54D38*
X44409Y-37557D02*
X44409Y-36760D01*
X44409Y-36760D02*
X44330Y-36681D01*
G54D39*
X43740Y-36681D02*
X43234Y-36681D01*
X43234Y-36681D02*
X43209Y-36657D01*
X61811Y-40422D02*
X61348Y-40422D01*
X61348Y-40422D02*
X61323Y-40397D01*
G54D37*
X59173Y-37799D02*
X59788Y-37799D01*
X59788Y-37799D02*
X60433Y-37154D01*
G54D36*
X39650Y-41550D02*
X40850Y-41550D01*
X40850Y-41550D02*
X41200Y-41200D01*
X41200Y-41200D02*
X41200Y-40900D01*
X41200Y-40900D02*
X41400Y-40700D01*
X41400Y-40700D02*
X42650Y-40700D01*
X42650Y-40700D02*
X43227Y-40122D01*
X43227Y-40122D02*
X43734Y-40122D01*
G54D39*
X39650Y-42200D02*
X39650Y-41550D01*
X41929Y-36681D02*
X42435Y-36681D01*
X42435Y-36681D02*
X42459Y-36657D01*
G54D36*
X42111Y-38271D02*
X42111Y-36863D01*
X42111Y-36863D02*
X41929Y-36681D01*
X43734Y-38547D02*
X42834Y-38547D01*
X42834Y-38547D02*
X42559Y-38271D01*
X42559Y-38271D02*
X42111Y-38271D01*
G54D38*
X42435Y-36681D02*
X42459Y-36657D01*
G54D36*
X43734Y-40122D02*
X44115Y-40122D01*
X44154Y-38547D02*
X43734Y-38547D01*
X44430Y-38822D02*
X44154Y-38547D01*
X44430Y-39807D02*
X44430Y-38822D01*
X44115Y-40122D02*
X44430Y-39807D01*
G54D38*
X50001Y-40435D02*
X48236Y-40435D01*
X48236Y-40435D02*
X48234Y-40437D01*
X53282Y-39767D02*
X53582Y-39467D01*
X50001Y-40435D02*
X50787Y-39649D01*
X50787Y-39649D02*
X52559Y-39649D01*
X52559Y-39649D02*
X52677Y-39767D01*
X52677Y-39767D02*
X53282Y-39767D01*
G54D37*
X54448Y-39374D02*
X53676Y-39374D01*
X53676Y-39374D02*
X53582Y-39467D01*
G54D38*
X50000Y-40437D02*
X50001Y-40435D01*
X52519Y-47110D02*
X52519Y-47655D01*
X46299Y-42724D02*
X46299Y-42057D01*
X46625Y-43050D02*
X46299Y-42724D01*
X49825Y-43050D02*
X46625Y-43050D01*
X51375Y-44600D02*
X49825Y-43050D01*
X51375Y-47475D02*
X51375Y-44600D01*
X51650Y-47750D02*
X51375Y-47475D01*
X52425Y-47750D02*
X51650Y-47750D01*
X52519Y-47655D02*
X52425Y-47750D01*
X52700Y-46400D02*
X52700Y-46600D01*
X52700Y-46600D02*
X52519Y-46780D01*
X52519Y-46780D02*
X52519Y-47110D01*
X52100Y-46400D02*
X51700Y-46400D01*
X46614Y-42589D02*
X46614Y-42057D01*
X46675Y-42650D02*
X46614Y-42589D01*
X49825Y-42650D02*
X46675Y-42650D01*
X51675Y-44500D02*
X49825Y-42650D01*
X51675Y-46375D02*
X51675Y-44500D01*
X51700Y-46400D02*
X51675Y-46375D01*
X52100Y-46400D02*
X52100Y-46600D01*
X52100Y-46600D02*
X52019Y-46680D01*
X52019Y-46680D02*
X52019Y-47110D01*
X46879Y-41020D02*
X46595Y-40870D01*
X46929Y-41069D02*
X46879Y-41020D01*
X46929Y-42057D02*
X46929Y-41069D01*
X46595Y-40870D02*
X46600Y-40875D01*
X58300Y-46400D02*
X58300Y-46829D01*
X58300Y-46829D02*
X58019Y-47110D01*
X48234Y-38862D02*
X49269Y-38862D01*
X61070Y-31808D02*
X60286Y-31808D01*
X61220Y-31658D02*
X61070Y-31808D01*
X61220Y-29432D02*
X61220Y-31658D01*
X60894Y-29106D02*
X61220Y-29432D01*
X59026Y-29106D02*
X60894Y-29106D01*
X49269Y-38862D02*
X59026Y-29106D01*
X48234Y-38547D02*
X49254Y-38547D01*
X61456Y-29286D02*
X61456Y-32630D01*
X61040Y-28870D02*
X61456Y-29286D01*
X58932Y-28870D02*
X61040Y-28870D01*
X49254Y-38547D02*
X58932Y-28870D01*
X59286Y-31808D02*
X59297Y-31808D01*
X61456Y-32630D02*
X61456Y-33483D01*
X61117Y-32291D02*
X61456Y-32630D01*
X59780Y-32291D02*
X61117Y-32291D01*
X59297Y-31808D02*
X59780Y-32291D01*
X59286Y-29808D02*
X58626Y-29808D01*
X48589Y-39492D02*
X48234Y-39492D01*
X48862Y-39220D02*
X48589Y-39492D01*
X49214Y-39220D02*
X48862Y-39220D01*
X58626Y-29808D02*
X49214Y-39220D01*
G54D37*
X56614Y-34570D02*
X55393Y-34570D01*
X51968Y-37996D02*
X51968Y-38035D01*
X55393Y-34570D02*
X51968Y-37996D01*
X51968Y-39249D02*
X52734Y-39249D01*
X52734Y-39249D02*
X52952Y-39467D01*
X51968Y-38035D02*
X51968Y-39249D01*
X56732Y-35673D02*
X56732Y-34688D01*
X56732Y-34688D02*
X56614Y-34570D01*
X57559Y-33901D02*
X57559Y-32656D01*
X60706Y-29808D02*
X60286Y-29808D01*
X61040Y-30142D02*
X60706Y-29808D01*
X61040Y-31010D02*
X61040Y-30142D01*
X60760Y-31290D02*
X61040Y-31010D01*
X58926Y-31290D02*
X60760Y-31290D01*
X57559Y-32656D02*
X58926Y-31290D01*
G54D38*
X50007Y-39692D02*
X55748Y-33940D01*
X55748Y-33940D02*
X56614Y-33940D01*
G54D37*
X57362Y-33901D02*
X57559Y-33901D01*
G54D38*
X50007Y-39692D02*
X50007Y-39929D01*
X43734Y-41382D02*
X44566Y-41382D01*
X44566Y-41382D02*
X44724Y-41224D01*
G54D37*
X57362Y-35673D02*
X57362Y-34374D01*
X57362Y-34374D02*
X57362Y-33901D01*
G54D38*
X37479Y-43499D02*
X37479Y-43562D01*
X43149Y-41067D02*
X42047Y-42169D01*
X43149Y-41067D02*
X43734Y-41067D01*
X42047Y-44647D02*
X42047Y-42169D01*
X41740Y-44953D02*
X42047Y-44647D01*
X38870Y-44953D02*
X41740Y-44953D01*
X37479Y-43562D02*
X38870Y-44953D01*
G54D37*
X57204Y-33389D02*
X57204Y-32241D01*
X58638Y-30808D02*
X59286Y-30808D01*
X57204Y-32241D02*
X58638Y-30808D01*
G54D38*
X55354Y-34019D02*
X55826Y-33547D01*
X55826Y-33547D02*
X56614Y-33547D01*
X48976Y-40122D02*
X49251Y-40122D01*
X49251Y-40122D02*
X55354Y-34019D01*
X44448Y-41067D02*
X44685Y-40830D01*
X43734Y-41067D02*
X44448Y-41067D01*
G54D37*
X57204Y-35673D02*
X57204Y-33389D01*
G54D38*
X36479Y-43499D02*
X36502Y-43499D01*
X41131Y-44393D02*
X41131Y-41768D01*
X40963Y-44561D02*
X41131Y-44393D01*
X39339Y-44561D02*
X40963Y-44561D01*
X37757Y-42979D02*
X39339Y-44561D01*
X37022Y-42979D02*
X37757Y-42979D01*
X36502Y-43499D02*
X37022Y-42979D01*
X41100Y-41800D02*
X41131Y-41768D01*
X41131Y-41768D02*
X41700Y-41200D01*
G54D37*
X56889Y-33232D02*
X56889Y-33173D01*
X59775Y-30297D02*
X60286Y-30808D01*
X58656Y-30297D02*
X59775Y-30297D01*
X56929Y-32023D02*
X58656Y-30297D01*
X56929Y-33133D02*
X56929Y-32023D01*
X56889Y-33173D02*
X56929Y-33133D01*
G54D38*
X43047Y-40752D02*
X43734Y-40752D01*
X42600Y-41200D02*
X43047Y-40752D01*
X41700Y-41200D02*
X42600Y-41200D01*
X55433Y-33625D02*
X55826Y-33232D01*
X55826Y-33232D02*
X56889Y-33232D01*
X49370Y-39688D02*
X49251Y-39807D01*
X49251Y-39807D02*
X49173Y-39807D01*
X44369Y-40752D02*
X44685Y-40437D01*
X43734Y-40752D02*
X44369Y-40752D01*
X55433Y-33625D02*
X49370Y-39688D01*
G54D37*
X56889Y-35673D02*
X56889Y-33625D01*
X56889Y-33625D02*
X56889Y-33232D01*
G54D38*
X48234Y-39177D02*
X47657Y-39177D01*
X47657Y-39177D02*
X47657Y-39177D01*
X51618Y-40049D02*
X51618Y-40496D01*
X51618Y-40496D02*
X51559Y-40555D01*
X51187Y-40049D02*
X51618Y-40049D01*
X51181Y-40043D02*
X51187Y-40049D01*
X55826Y-32917D02*
X56653Y-32917D01*
X55433Y-33311D02*
X55826Y-32917D01*
G54D37*
X57047Y-35673D02*
X57047Y-36106D01*
G54D38*
X48976Y-39492D02*
X49251Y-39492D01*
X49251Y-39492D02*
X55433Y-33311D01*
G54D37*
X57047Y-36106D02*
X57165Y-36224D01*
G54D38*
X50027Y-40736D02*
X50011Y-40752D01*
X50011Y-40752D02*
X49684Y-40752D01*
X48234Y-40752D02*
X49684Y-40752D01*
X43734Y-39177D02*
X42913Y-39177D01*
X42598Y-39492D02*
X42111Y-39492D01*
X42913Y-39177D02*
X42598Y-39492D01*
X43734Y-38862D02*
X42111Y-38862D01*
X42111Y-38862D02*
X42111Y-38862D01*
X42440Y-44456D02*
X42440Y-44862D01*
X36479Y-45145D02*
X36479Y-44499D01*
X36742Y-45408D02*
X36479Y-45145D01*
X41894Y-45408D02*
X36742Y-45408D01*
X42440Y-44862D02*
X41894Y-45408D01*
X43203Y-42799D02*
X42519Y-42799D01*
X44724Y-42057D02*
X44724Y-41775D01*
X42440Y-42877D02*
X42440Y-44456D01*
X42440Y-44456D02*
X42440Y-44492D01*
X43700Y-41618D02*
X42519Y-42799D01*
X42519Y-42799D02*
X42440Y-42877D01*
X44566Y-41618D02*
X43700Y-41618D01*
X44724Y-41775D02*
X44566Y-41618D01*
G54D40*
X36400Y-38047D02*
X37474Y-38047D01*
X37474Y-38047D02*
X37592Y-38165D01*
X37592Y-38165D02*
X38925Y-38165D01*
X38925Y-38165D02*
X39665Y-37425D01*
G54D36*
X37512Y-39631D02*
X36336Y-39631D01*
X36336Y-39631D02*
X36203Y-39498D01*
G54D40*
X36400Y-40192D02*
X37474Y-40192D01*
X37474Y-40192D02*
X37592Y-40074D01*
X36203Y-38741D02*
X36203Y-38244D01*
X36203Y-38244D02*
X36281Y-38165D01*
X36203Y-38741D02*
X36203Y-39498D01*
X36203Y-39498D02*
X36400Y-39695D01*
X36400Y-39695D02*
X36400Y-40192D01*
G54D39*
X41220Y-37184D02*
X41220Y-36854D01*
G54D38*
X41511Y-40082D02*
X41181Y-40082D01*
G54D39*
X54100Y-46400D02*
X54100Y-47029D01*
X54100Y-47029D02*
X54019Y-47110D01*
X54700Y-45800D02*
X54700Y-45100D01*
X55300Y-45800D02*
X55300Y-45100D01*
X55900Y-45800D02*
X55900Y-45100D01*
X56500Y-45800D02*
X56500Y-45100D01*
X57100Y-45800D02*
X57100Y-45100D01*
X57700Y-45800D02*
X57700Y-45100D01*
X56496Y-41681D02*
X56496Y-42011D01*
G54D36*
X58562Y-42405D02*
X58449Y-42405D01*
X58720Y-42248D02*
X58562Y-42405D01*
X58720Y-42075D02*
X58720Y-42248D01*
X58449Y-42405D02*
X58213Y-42169D01*
X62401Y-39822D02*
X62401Y-39295D01*
X61520Y-37641D02*
X61830Y-37641D01*
X61412Y-35889D02*
X61082Y-35889D01*
X61176Y-42366D02*
X60846Y-42366D01*
G54D37*
X54448Y-36854D02*
X54881Y-36854D01*
X54881Y-36854D02*
X55000Y-36736D01*
G54D38*
X52318Y-40049D02*
X52318Y-40432D01*
X52318Y-40432D02*
X52322Y-40437D01*
G54D39*
X49370Y-41721D02*
X49370Y-42051D01*
G54D36*
X43734Y-39492D02*
X43228Y-39492D01*
X43228Y-39492D02*
X43228Y-39492D01*
G54D37*
X59173Y-37641D02*
X58818Y-37641D01*
X58661Y-37484D02*
X59173Y-37484D01*
X58818Y-37641D02*
X58661Y-37484D01*
G54D38*
X53582Y-37705D02*
X53582Y-38035D01*
G54D39*
X60260Y-35161D02*
X60590Y-35161D01*
X60260Y-34610D02*
X60590Y-34610D01*
X58976Y-35137D02*
X58976Y-34807D01*
G54D38*
X48234Y-41382D02*
X48661Y-41382D01*
X48661Y-41382D02*
X48740Y-41460D01*
X47377Y-45318D02*
X47047Y-45318D01*
X47047Y-45318D02*
X46717Y-45318D01*
X45354Y-42057D02*
X45354Y-41578D01*
X45354Y-41578D02*
X45393Y-41539D01*
X45354Y-42057D02*
X45354Y-42784D01*
X45354Y-42784D02*
X45339Y-42799D01*
X47559Y-36081D02*
X47559Y-35751D01*
X47244Y-37557D02*
X47244Y-37995D01*
X47244Y-37995D02*
X47086Y-38153D01*
G54D39*
X44921Y-36081D02*
X44921Y-35751D01*
X44330Y-36081D02*
X44330Y-35751D01*
G54D38*
X44724Y-37557D02*
X44724Y-38074D01*
X44724Y-38074D02*
X44724Y-38074D01*
G54D39*
X43740Y-36081D02*
X43740Y-35751D01*
X42834Y-35791D02*
X42834Y-36224D01*
X41929Y-36081D02*
X41929Y-35751D01*
G54D37*
X55944Y-35673D02*
X55944Y-35107D01*
X55944Y-35107D02*
X55841Y-35003D01*
X55841Y-35003D02*
X55787Y-35058D01*
X55787Y-35058D02*
X55787Y-35673D01*
G54D38*
X62952Y-38350D02*
X62952Y-37902D01*
X62622Y-38350D02*
X62952Y-38350D01*
X62952Y-37902D02*
X62913Y-37862D01*
G54D37*
X56574Y-35673D02*
X56574Y-36106D01*
X56574Y-36106D02*
X56692Y-36224D01*
X56259Y-35673D02*
X56259Y-36106D01*
X56181Y-36185D02*
X55944Y-36185D01*
X56259Y-36106D02*
X56181Y-36185D01*
X56417Y-40397D02*
X56417Y-39964D01*
X56338Y-39885D02*
X55787Y-39885D01*
X56417Y-39964D02*
X56338Y-39885D01*
X55629Y-40397D02*
X55629Y-40043D01*
X55629Y-40043D02*
X55787Y-39885D01*
X55944Y-40397D02*
X55944Y-40043D01*
X55787Y-39885D02*
X55787Y-40397D01*
X55944Y-40043D02*
X55787Y-39885D01*
G54D39*
X57086Y-41681D02*
X56496Y-41681D01*
X62307Y-40988D02*
X62637Y-40988D01*
X61323Y-39846D02*
X61323Y-39782D01*
X61323Y-39782D02*
X61811Y-39295D01*
X61811Y-39822D02*
X61811Y-39295D01*
X61811Y-39295D02*
X61323Y-39295D01*
X60433Y-36554D02*
X60433Y-36224D01*
X59881Y-36554D02*
X59881Y-36224D01*
X61520Y-37090D02*
X61850Y-37090D01*
X61323Y-38350D02*
X61653Y-38350D01*
G54D37*
X55787Y-35673D02*
X55787Y-36027D01*
X55787Y-36027D02*
X55944Y-36185D01*
X56102Y-35673D02*
X56102Y-36027D01*
X55944Y-36185D02*
X55944Y-35673D01*
X56102Y-36027D02*
X55944Y-36185D01*
X59173Y-37011D02*
X58779Y-37011D01*
X58779Y-37011D02*
X58661Y-37129D01*
X59173Y-38114D02*
X59566Y-38114D01*
X59566Y-38114D02*
X59724Y-38271D01*
X57834Y-40397D02*
X57834Y-39885D01*
X59173Y-39059D02*
X58661Y-39059D01*
G54D38*
X54700Y-46400D02*
X54700Y-46600D01*
X54700Y-46600D02*
X54800Y-46700D01*
X54800Y-46700D02*
X54900Y-46700D01*
X54900Y-46700D02*
X55019Y-46819D01*
X55019Y-46819D02*
X55019Y-47110D01*
X43734Y-39807D02*
X43070Y-39807D01*
X42795Y-40082D02*
X42111Y-40082D01*
X43070Y-39807D02*
X42795Y-40082D01*
X45984Y-42057D02*
X45984Y-43192D01*
X47977Y-45185D02*
X47977Y-45318D01*
X45984Y-43192D02*
X47977Y-45185D01*
X49744Y-46578D02*
X48700Y-46578D01*
X47977Y-45855D02*
X47977Y-45318D01*
X48700Y-46578D02*
X47977Y-45855D01*
X46117Y-45318D02*
X46117Y-43759D01*
X45669Y-43310D02*
X45669Y-42057D01*
X46117Y-43759D02*
X45669Y-43310D01*
X46117Y-45318D02*
X46117Y-46465D01*
X46117Y-46465D02*
X46003Y-46578D01*
X48234Y-38232D02*
X48234Y-37345D01*
X48234Y-37345D02*
X48307Y-37272D01*
G54D36*
X37422Y-38858D02*
X41506Y-38858D01*
X41506Y-38858D02*
X41511Y-38862D01*
X41509Y-38864D02*
X41511Y-38862D01*
X37514Y-38862D02*
X37512Y-38864D01*
G54D38*
X41491Y-38842D02*
X41511Y-38862D01*
X57100Y-46400D02*
X57100Y-46700D01*
X57100Y-46700D02*
X57019Y-46780D01*
X57019Y-46780D02*
X57019Y-47110D01*
G54D36*
X39834Y-39120D02*
X37428Y-39120D01*
X41511Y-39492D02*
X40206Y-39492D01*
X40206Y-39492D02*
X39834Y-39120D01*
X37428Y-39120D02*
X37422Y-39114D01*
X62012Y-35889D02*
X62081Y-35889D01*
X62081Y-35889D02*
X62416Y-36224D01*
X62012Y-35889D02*
X62140Y-35889D01*
X62140Y-35889D02*
X62416Y-35614D01*
X62283Y-42449D02*
X62677Y-42449D01*
X62677Y-42449D02*
X62893Y-42233D01*
X62283Y-42449D02*
X61859Y-42449D01*
X61859Y-42449D02*
X61776Y-42366D01*
G54D38*
X56500Y-46400D02*
X56500Y-47090D01*
X56500Y-47090D02*
X56519Y-47110D01*
G54D39*
X39050Y-41550D02*
X39050Y-42200D01*
X39665Y-43330D02*
X39230Y-43330D01*
X39050Y-43150D02*
X39050Y-41550D01*
X39230Y-43330D02*
X39050Y-43150D01*
G54D38*
X57700Y-46400D02*
X57700Y-46600D01*
X57519Y-46780D02*
X57519Y-47110D01*
X57700Y-46600D02*
X57519Y-46780D01*
X55900Y-46400D02*
X55900Y-46600D01*
X55900Y-46600D02*
X56019Y-46719D01*
X56019Y-46719D02*
X56019Y-47110D01*
G54D36*
X37422Y-38602D02*
X39879Y-38602D01*
X40221Y-38271D02*
X41511Y-38271D01*
X40221Y-38271D02*
X39885Y-38608D01*
X39879Y-38602D02*
X39885Y-38608D01*
X41220Y-37784D02*
X41220Y-37981D01*
X41220Y-37981D02*
X41511Y-38271D01*
G54D39*
X60723Y-39295D02*
X60723Y-39846D01*
X60723Y-39846D02*
X60723Y-40397D01*
G54D37*
X59173Y-39374D02*
X60644Y-39374D01*
X60644Y-39374D02*
X60723Y-39295D01*
G54D38*
X55300Y-46400D02*
X55300Y-46500D01*
X55300Y-46500D02*
X55519Y-46719D01*
X55519Y-46719D02*
X55519Y-47110D01*
X62022Y-38350D02*
X62022Y-38162D01*
X62022Y-38162D02*
X62322Y-37862D01*
G54D37*
X62022Y-38350D02*
X62022Y-38207D01*
X62022Y-38207D02*
X61811Y-37996D01*
X57362Y-40397D02*
X57362Y-39885D01*
X60196Y-38350D02*
X60723Y-38350D01*
X60157Y-38389D02*
X60196Y-38350D01*
X57362Y-40397D02*
X57362Y-40806D01*
X57362Y-40806D02*
X57086Y-41081D01*
X61811Y-37996D02*
X61077Y-37996D01*
X61077Y-37996D02*
X60723Y-38350D01*
X59173Y-38586D02*
X60487Y-38586D01*
X60487Y-38586D02*
X60723Y-38350D01*
G54D36*
X58720Y-41475D02*
X58912Y-41475D01*
X59744Y-42307D02*
X59744Y-43429D01*
X58912Y-41475D02*
X59744Y-42307D01*
X58720Y-41475D02*
X58316Y-41475D01*
X58316Y-41475D02*
X58213Y-41578D01*
G54D37*
X57677Y-40397D02*
X57677Y-41042D01*
X57677Y-41042D02*
X58213Y-41578D01*
G54D38*
X45039Y-37557D02*
X45039Y-36799D01*
X45039Y-36799D02*
X44921Y-36681D01*
G54D37*
X59173Y-39531D02*
X59527Y-39531D01*
X60511Y-40988D02*
X60723Y-40988D01*
X59960Y-40437D02*
X60511Y-40988D01*
X59960Y-39964D02*
X59960Y-40437D01*
X59527Y-39531D02*
X59960Y-39964D01*
G54D38*
X68949Y-37824D02*
X68949Y-36199D01*
G54D36*
X63484Y-35614D02*
X63016Y-35614D01*
G54D38*
X68363Y-35614D02*
X63484Y-35614D01*
X68949Y-36199D02*
X68363Y-35614D01*
G54D37*
X68949Y-37824D02*
X68949Y-38088D01*
X64592Y-38898D02*
X64592Y-38901D01*
X64595Y-38901D02*
X64592Y-38898D01*
X68135Y-38901D02*
X64595Y-38901D01*
X68949Y-38088D02*
X68135Y-38901D01*
X59173Y-38901D02*
X64592Y-38901D01*
X64592Y-38901D02*
X64645Y-38901D01*
X67949Y-37324D02*
X64727Y-37324D01*
X63307Y-38744D02*
X64492Y-37559D01*
X63307Y-38744D02*
X59173Y-38744D01*
X64727Y-37324D02*
X64492Y-37559D01*
G54D38*
X67949Y-37324D02*
X67949Y-36969D01*
G54D36*
X63368Y-36224D02*
X63016Y-36224D01*
G54D38*
X67203Y-36224D02*
X63368Y-36224D01*
X67949Y-36969D02*
X67203Y-36224D01*
G54D37*
X67949Y-40324D02*
X69548Y-40324D01*
X65078Y-41933D02*
X62677Y-41933D01*
X68681Y-41933D02*
X65078Y-41933D01*
X69677Y-40936D02*
X68681Y-41933D01*
X69677Y-40453D02*
X69677Y-40936D01*
X69548Y-40324D02*
X69677Y-40453D01*
X62677Y-41933D02*
X62366Y-41933D01*
X62366Y-41933D02*
X62283Y-41849D01*
X59173Y-38271D02*
X58740Y-38271D01*
X60826Y-41933D02*
X62677Y-41933D01*
X58228Y-39334D02*
X60826Y-41933D01*
X58228Y-38783D02*
X58228Y-39334D01*
X58740Y-38271D02*
X58228Y-38783D01*
X73378Y-41564D02*
X73378Y-42532D01*
X63976Y-42996D02*
X69015Y-42996D01*
X56102Y-41362D02*
X54685Y-42779D01*
X54685Y-42779D02*
X54685Y-44059D01*
X54685Y-44059D02*
X55000Y-44374D01*
X55000Y-44374D02*
X60610Y-44374D01*
X56102Y-41362D02*
X56102Y-40397D01*
X61771Y-42996D02*
X61102Y-43665D01*
X61102Y-43665D02*
X61102Y-43881D01*
X61102Y-43881D02*
X60610Y-44374D01*
X63976Y-42996D02*
X61771Y-42996D01*
X72914Y-42996D02*
X69015Y-42996D01*
X73378Y-42532D02*
X72914Y-42996D01*
G54D38*
X72779Y-36583D02*
X72779Y-34911D01*
X72779Y-34911D02*
X72780Y-34910D01*
G54D36*
X72780Y-34910D02*
X72772Y-34918D01*
G54D39*
X61323Y-40988D02*
X61707Y-40988D01*
G54D37*
X73378Y-37583D02*
X73378Y-37942D01*
X61397Y-42799D02*
X60649Y-42799D01*
X60452Y-42602D02*
X60452Y-41992D01*
X60649Y-42799D02*
X60452Y-42602D01*
X56732Y-40043D02*
X56732Y-40397D01*
X58070Y-39610D02*
X60452Y-41992D01*
X57165Y-39610D02*
X58070Y-39610D01*
X56732Y-40043D02*
X57165Y-39610D01*
X61397Y-42799D02*
X68110Y-42799D01*
X68521Y-42799D02*
X68110Y-42799D01*
X73378Y-37942D02*
X68521Y-42799D01*
X73378Y-37583D02*
X73325Y-37583D01*
G54D38*
X73450Y-36130D02*
X73450Y-34910D01*
X74000Y-36680D02*
X73450Y-36130D01*
X74000Y-38590D02*
X74000Y-36680D01*
X72779Y-39810D02*
X74000Y-38590D01*
X72779Y-40564D02*
X72779Y-39810D01*
X73450Y-34910D02*
X73450Y-35370D01*
G54D37*
X68949Y-40824D02*
X68949Y-41147D01*
X64761Y-41578D02*
X63287Y-41578D01*
X68517Y-41578D02*
X64761Y-41578D01*
X68949Y-41147D02*
X68517Y-41578D01*
X63287Y-41578D02*
X62948Y-41578D01*
X62948Y-41578D02*
X62893Y-41633D01*
X59173Y-38429D02*
X58818Y-38429D01*
X60708Y-41578D02*
X63287Y-41578D01*
X58385Y-39255D02*
X60708Y-41578D01*
X58385Y-38862D02*
X58385Y-39255D01*
X58818Y-38429D02*
X58385Y-38862D01*
G54D36*
X57613Y-41578D02*
X57613Y-42169D01*
X57613Y-42169D02*
X56353Y-43429D01*
X56353Y-43429D02*
X56003Y-43429D01*
G54D37*
X57519Y-40397D02*
X57519Y-41485D01*
X57519Y-41485D02*
X57613Y-41578D01*
G54D10*
G36*
X44394Y-37614D02*
X44369Y-37614D01*
X44369Y-37607D01*
X44141Y-37607D01*
X44079Y-37669D01*
X44079Y-37807D01*
X44079Y-37902D01*
X43984Y-37902D01*
X43690Y-37902D01*
X43690Y-36994D01*
X43690Y-36731D01*
X43579Y-36731D01*
X43554Y-36707D01*
X43259Y-36707D01*
X43259Y-37041D01*
X43322Y-37104D01*
X43416Y-37104D01*
X43508Y-37066D01*
X43518Y-37056D01*
X43564Y-37056D01*
X43627Y-37056D01*
X43690Y-36994D01*
X43690Y-37902D01*
X43384Y-37902D01*
X43292Y-37940D01*
X43222Y-38010D01*
X43200Y-38064D01*
X42816Y-38064D01*
X42791Y-38039D01*
X42684Y-37967D01*
X42559Y-37942D01*
X42463Y-37942D01*
X42448Y-37905D01*
X42439Y-37896D01*
X42439Y-37104D01*
X42666Y-37104D01*
X42758Y-37066D01*
X42828Y-36996D01*
X42834Y-36982D01*
X42840Y-36996D01*
X42910Y-37066D01*
X43002Y-37104D01*
X43097Y-37104D01*
X43159Y-37041D01*
X43159Y-36707D01*
X43151Y-36707D01*
X43151Y-36607D01*
X43159Y-36607D01*
X43159Y-36599D01*
X43259Y-36599D01*
X43259Y-36607D01*
X43303Y-36607D01*
X43327Y-36631D01*
X43690Y-36631D01*
X43690Y-36624D01*
X43790Y-36624D01*
X43790Y-36631D01*
X43918Y-36631D01*
X44152Y-36631D01*
X44280Y-36631D01*
X44280Y-36624D01*
X44380Y-36624D01*
X44380Y-36631D01*
X44388Y-36631D01*
X44388Y-36731D01*
X44380Y-36731D01*
X44380Y-36739D01*
X44280Y-36739D01*
X44280Y-36731D01*
X44152Y-36731D01*
X43918Y-36731D01*
X43790Y-36731D01*
X43790Y-36994D01*
X43852Y-37056D01*
X43915Y-37056D01*
X44015Y-37056D01*
X44035Y-37048D01*
X44055Y-37056D01*
X44155Y-37056D01*
X44175Y-37056D01*
X44117Y-37115D01*
X44079Y-37207D01*
X44079Y-37306D01*
X44079Y-37444D01*
X44141Y-37507D01*
X44369Y-37507D01*
X44369Y-37499D01*
X44394Y-37499D01*
X44394Y-37614D01*
X44394Y-37614D01*
G37*
G54D41*
X44394Y-37614D02*
X44369Y-37614D01*
X44369Y-37607D01*
X44141Y-37607D01*
X44079Y-37669D01*
X44079Y-37807D01*
X44079Y-37902D01*
X43984Y-37902D01*
X43690Y-37902D01*
X43690Y-36994D01*
X43690Y-36731D01*
X43579Y-36731D01*
X43554Y-36707D01*
X43259Y-36707D01*
X43259Y-37041D01*
X43322Y-37104D01*
X43416Y-37104D01*
X43508Y-37066D01*
X43518Y-37056D01*
X43564Y-37056D01*
X43627Y-37056D01*
X43690Y-36994D01*
X43690Y-37902D01*
X43384Y-37902D01*
X43292Y-37940D01*
X43222Y-38010D01*
X43200Y-38064D01*
X42816Y-38064D01*
X42791Y-38039D01*
X42684Y-37967D01*
X42559Y-37942D01*
X42463Y-37942D01*
X42448Y-37905D01*
X42439Y-37896D01*
X42439Y-37104D01*
X42666Y-37104D01*
X42758Y-37066D01*
X42828Y-36996D01*
X42834Y-36982D01*
X42840Y-36996D01*
X42910Y-37066D01*
X43002Y-37104D01*
X43097Y-37104D01*
X43159Y-37041D01*
X43159Y-36707D01*
X43151Y-36707D01*
X43151Y-36607D01*
X43159Y-36607D01*
X43159Y-36599D01*
X43259Y-36599D01*
X43259Y-36607D01*
X43303Y-36607D01*
X43327Y-36631D01*
X43690Y-36631D01*
X43690Y-36624D01*
X43790Y-36624D01*
X43790Y-36631D01*
X43918Y-36631D01*
X44152Y-36631D01*
X44280Y-36631D01*
X44280Y-36624D01*
X44380Y-36624D01*
X44380Y-36631D01*
X44388Y-36631D01*
X44388Y-36731D01*
X44380Y-36731D01*
X44380Y-36739D01*
X44280Y-36739D01*
X44280Y-36731D01*
X44152Y-36731D01*
X43918Y-36731D01*
X43790Y-36731D01*
X43790Y-36994D01*
X43852Y-37056D01*
X43915Y-37056D01*
X44015Y-37056D01*
X44035Y-37048D01*
X44055Y-37056D01*
X44155Y-37056D01*
X44175Y-37056D01*
X44117Y-37115D01*
X44079Y-37207D01*
X44079Y-37306D01*
X44079Y-37444D01*
X44141Y-37507D01*
X44369Y-37507D01*
X44369Y-37499D01*
X44394Y-37499D01*
X44394Y-37614D01*
G54D10*
G36*
X52638Y-34726D02*
X49126Y-38238D01*
X48784Y-38238D01*
X48784Y-38102D01*
X48746Y-38010D01*
X48676Y-37940D01*
X48584Y-37902D01*
X48543Y-37902D01*
X48543Y-37647D01*
X48581Y-37647D01*
X48673Y-37609D01*
X48743Y-37539D01*
X48782Y-37447D01*
X48782Y-37347D01*
X48782Y-37097D01*
X48744Y-37006D01*
X48710Y-36972D01*
X48744Y-36938D01*
X48782Y-36846D01*
X48782Y-36497D01*
X48744Y-36406D01*
X48673Y-36335D01*
X48582Y-36297D01*
X48482Y-36297D01*
X48419Y-36297D01*
X48357Y-36359D01*
X48357Y-36622D01*
X48719Y-36622D01*
X48782Y-36559D01*
X48782Y-36497D01*
X48782Y-36846D01*
X48782Y-36784D01*
X48719Y-36722D01*
X48357Y-36722D01*
X48357Y-36730D01*
X48257Y-36730D01*
X48257Y-36722D01*
X48257Y-36622D01*
X48257Y-36359D01*
X48194Y-36297D01*
X48131Y-36297D01*
X48032Y-36297D01*
X48014Y-36305D01*
X48034Y-36256D01*
X48034Y-36157D01*
X48034Y-35907D01*
X47996Y-35815D01*
X47946Y-35766D01*
X47946Y-35675D01*
X47888Y-35532D01*
X47779Y-35423D01*
X47636Y-35364D01*
X47482Y-35364D01*
X47339Y-35423D01*
X47230Y-35532D01*
X47171Y-35674D01*
X47171Y-35766D01*
X47122Y-35815D01*
X47084Y-35906D01*
X47084Y-36006D01*
X47084Y-36256D01*
X47121Y-36348D01*
X47155Y-36381D01*
X47121Y-36415D01*
X47084Y-36507D01*
X47084Y-36569D01*
X47146Y-36631D01*
X47509Y-36631D01*
X47509Y-36624D01*
X47609Y-36624D01*
X47609Y-36631D01*
X47971Y-36631D01*
X47981Y-36622D01*
X48257Y-36622D01*
X48257Y-36722D01*
X47894Y-36722D01*
X47885Y-36731D01*
X47609Y-36731D01*
X47609Y-36994D01*
X47641Y-37027D01*
X47599Y-37069D01*
X47599Y-37507D01*
X47617Y-37507D01*
X47617Y-37607D01*
X47599Y-37607D01*
X47599Y-38044D01*
X47661Y-38107D01*
X47684Y-38107D01*
X47684Y-38201D01*
X47684Y-38361D01*
X47695Y-38389D01*
X47684Y-38417D01*
X47684Y-38516D01*
X47684Y-38676D01*
X47695Y-38704D01*
X47684Y-38732D01*
X47684Y-38789D01*
X47580Y-38789D01*
X47438Y-38848D01*
X47328Y-38957D01*
X47269Y-39099D01*
X47269Y-39253D01*
X47328Y-39396D01*
X47437Y-39505D01*
X47580Y-39564D01*
X47684Y-39564D01*
X47684Y-39621D01*
X47695Y-39649D01*
X47684Y-39677D01*
X47684Y-39776D01*
X47684Y-39936D01*
X47695Y-39964D01*
X47684Y-39992D01*
X47684Y-40091D01*
X47684Y-40251D01*
X47695Y-40279D01*
X47684Y-40307D01*
X47684Y-40406D01*
X47684Y-40566D01*
X47695Y-40594D01*
X47684Y-40622D01*
X47684Y-40721D01*
X47684Y-40881D01*
X47695Y-40909D01*
X47684Y-40937D01*
X47684Y-40964D01*
X47746Y-41027D01*
X47775Y-41027D01*
X47792Y-41043D01*
X47848Y-41067D01*
X47792Y-41090D01*
X47775Y-41107D01*
X47746Y-41107D01*
X47684Y-41169D01*
X47684Y-41197D01*
X47695Y-41224D01*
X47684Y-41252D01*
X47684Y-41351D01*
X47684Y-41507D01*
X47589Y-41507D01*
X47429Y-41507D01*
X47401Y-41518D01*
X47374Y-41507D01*
X47274Y-41507D01*
X47238Y-41507D01*
X47238Y-41069D01*
X47214Y-40951D01*
X47214Y-40951D01*
X47147Y-40850D01*
X47147Y-40850D01*
X47098Y-40801D01*
X47058Y-40775D01*
X47023Y-40746D01*
X46950Y-40708D01*
X46928Y-40655D01*
X46819Y-40546D01*
X46677Y-40487D01*
X46523Y-40487D01*
X46380Y-40546D01*
X46271Y-40655D01*
X46212Y-40797D01*
X46212Y-40951D01*
X46271Y-41094D01*
X46380Y-41203D01*
X46522Y-41262D01*
X46620Y-41262D01*
X46620Y-41507D01*
X46484Y-41507D01*
X46456Y-41518D01*
X46429Y-41507D01*
X46329Y-41507D01*
X46169Y-41507D01*
X46141Y-41518D01*
X46114Y-41507D01*
X46014Y-41507D01*
X45854Y-41507D01*
X45826Y-41518D01*
X45799Y-41507D01*
X45781Y-41507D01*
X45781Y-41462D01*
X45722Y-41319D01*
X45613Y-41210D01*
X45471Y-41151D01*
X45316Y-41151D01*
X45174Y-41210D01*
X45112Y-41272D01*
X45112Y-41147D01*
X45053Y-41005D01*
X45038Y-40990D01*
X45072Y-40908D01*
X45072Y-40753D01*
X45023Y-40633D01*
X45072Y-40514D01*
X45072Y-40360D01*
X45013Y-40217D01*
X44904Y-40108D01*
X44762Y-40049D01*
X44653Y-40049D01*
X44663Y-40039D01*
X44734Y-39932D01*
X44734Y-39932D01*
X44759Y-39807D01*
X44759Y-38822D01*
X44734Y-38697D01*
X44734Y-38697D01*
X44663Y-38590D01*
X44387Y-38314D01*
X44284Y-38245D01*
X44284Y-38245D01*
X44284Y-38107D01*
X44306Y-38107D01*
X44336Y-38077D01*
X44336Y-38151D01*
X44395Y-38294D01*
X44504Y-38403D01*
X44646Y-38462D01*
X44801Y-38462D01*
X44943Y-38403D01*
X45052Y-38294D01*
X45112Y-38152D01*
X45112Y-38107D01*
X45168Y-38107D01*
X45196Y-38095D01*
X45224Y-38107D01*
X45323Y-38107D01*
X45483Y-38107D01*
X45511Y-38095D01*
X45539Y-38107D01*
X45638Y-38107D01*
X45798Y-38107D01*
X45826Y-38095D01*
X45854Y-38107D01*
X45953Y-38107D01*
X46113Y-38107D01*
X46141Y-38095D01*
X46169Y-38107D01*
X46268Y-38107D01*
X46428Y-38107D01*
X46456Y-38095D01*
X46484Y-38107D01*
X46583Y-38107D01*
X46698Y-38107D01*
X46698Y-38230D01*
X46757Y-38372D01*
X46866Y-38482D01*
X47009Y-38541D01*
X47163Y-38541D01*
X47305Y-38482D01*
X47415Y-38373D01*
X47474Y-38231D01*
X47474Y-38197D01*
X47529Y-38114D01*
X47529Y-38114D01*
X47553Y-37995D01*
X47553Y-37957D01*
X47574Y-37907D01*
X47574Y-37807D01*
X47574Y-37207D01*
X47536Y-37115D01*
X47519Y-37098D01*
X47519Y-37069D01*
X47476Y-37026D01*
X47509Y-36994D01*
X47509Y-36731D01*
X47146Y-36731D01*
X47084Y-36794D01*
X47084Y-36856D01*
X47121Y-36948D01*
X47180Y-37007D01*
X47114Y-37007D01*
X47086Y-37018D01*
X47059Y-37007D01*
X46959Y-37007D01*
X46799Y-37007D01*
X46771Y-37018D01*
X46744Y-37007D01*
X46644Y-37007D01*
X46484Y-37007D01*
X46456Y-37018D01*
X46429Y-37007D01*
X46329Y-37007D01*
X46169Y-37007D01*
X46141Y-37018D01*
X46114Y-37007D01*
X46014Y-37007D01*
X45854Y-37007D01*
X45826Y-37018D01*
X45799Y-37007D01*
X45699Y-37007D01*
X45539Y-37007D01*
X45511Y-37018D01*
X45484Y-37007D01*
X45384Y-37007D01*
X45348Y-37007D01*
X45348Y-36958D01*
X45358Y-36948D01*
X45396Y-36856D01*
X45396Y-36757D01*
X45396Y-36507D01*
X45358Y-36415D01*
X45324Y-36381D01*
X45358Y-36348D01*
X45396Y-36256D01*
X45396Y-36157D01*
X45396Y-35907D01*
X45358Y-35815D01*
X45309Y-35766D01*
X45309Y-35675D01*
X45250Y-35532D01*
X45141Y-35423D01*
X44998Y-35364D01*
X44844Y-35364D01*
X44701Y-35423D01*
X44625Y-35498D01*
X44550Y-35423D01*
X44408Y-35364D01*
X44253Y-35364D01*
X44111Y-35423D01*
X44035Y-35498D01*
X43960Y-35423D01*
X43817Y-35364D01*
X43663Y-35364D01*
X43520Y-35423D01*
X43411Y-35532D01*
X43352Y-35674D01*
X43352Y-35766D01*
X43303Y-35815D01*
X43265Y-35906D01*
X43265Y-36006D01*
X43265Y-36256D01*
X43268Y-36264D01*
X43259Y-36272D01*
X43259Y-36210D01*
X43222Y-36210D01*
X43222Y-36147D01*
X43209Y-36116D01*
X43242Y-36038D01*
X43242Y-35938D01*
X43242Y-35544D01*
X43204Y-35452D01*
X43133Y-35382D01*
X43042Y-35344D01*
X42942Y-35344D01*
X42627Y-35344D01*
X42535Y-35382D01*
X42465Y-35452D01*
X42427Y-35544D01*
X42427Y-35643D01*
X42427Y-36037D01*
X42459Y-36116D01*
X42446Y-36146D01*
X42446Y-36210D01*
X42404Y-36210D01*
X42404Y-36157D01*
X42404Y-35907D01*
X42366Y-35815D01*
X42316Y-35766D01*
X42316Y-35675D01*
X42258Y-35532D01*
X42149Y-35423D01*
X42006Y-35364D01*
X41852Y-35364D01*
X41709Y-35423D01*
X41600Y-35532D01*
X41541Y-35674D01*
X41541Y-35766D01*
X41492Y-35815D01*
X41454Y-35906D01*
X41454Y-36006D01*
X41454Y-36256D01*
X41492Y-36348D01*
X41525Y-36381D01*
X41492Y-36415D01*
X41454Y-36506D01*
X41454Y-36539D01*
X41440Y-36525D01*
X41297Y-36466D01*
X41143Y-36466D01*
X41001Y-36525D01*
X40891Y-36634D01*
X40832Y-36776D01*
X40832Y-36868D01*
X40783Y-36917D01*
X40745Y-37009D01*
X40745Y-37108D01*
X40745Y-37358D01*
X40783Y-37450D01*
X40816Y-37484D01*
X40783Y-37517D01*
X40745Y-37609D01*
X40745Y-37708D01*
X40745Y-37942D01*
X40234Y-37942D01*
X40260Y-37904D01*
X40309Y-37658D01*
X40309Y-37191D01*
X40260Y-36945D01*
X40120Y-36736D01*
X39911Y-36597D01*
X39665Y-36548D01*
X39419Y-36597D01*
X39210Y-36736D01*
X39070Y-36945D01*
X39049Y-37051D01*
X39049Y-29420D01*
X38817Y-28858D01*
X38387Y-28427D01*
X37825Y-28194D01*
X37216Y-28193D01*
X36654Y-28426D01*
X36223Y-28855D01*
X35990Y-29417D01*
X35989Y-30026D01*
X36222Y-30588D01*
X36652Y-31019D01*
X37214Y-31252D01*
X37822Y-31253D01*
X38384Y-31020D01*
X38815Y-30590D01*
X39048Y-30029D01*
X39049Y-29420D01*
X39049Y-37051D01*
X39021Y-37191D01*
X39021Y-37436D01*
X38740Y-37718D01*
X38040Y-37718D01*
X38040Y-37529D01*
X38002Y-37437D01*
X37932Y-37366D01*
X37840Y-37328D01*
X37741Y-37328D01*
X37166Y-37328D01*
X37074Y-37366D01*
X37004Y-37436D01*
X36966Y-37528D01*
X36966Y-37535D01*
X35827Y-37535D01*
X35801Y-37546D01*
X35801Y-29749D01*
X35935Y-29068D01*
X36309Y-28510D01*
X36861Y-28140D01*
X37548Y-28004D01*
X45892Y-28004D01*
X45894Y-34729D01*
X52638Y-34726D01*
X52638Y-34726D01*
G37*
G54D41*
X52638Y-34726D02*
X49126Y-38238D01*
X48784Y-38238D01*
X48784Y-38102D01*
X48746Y-38010D01*
X48676Y-37940D01*
X48584Y-37902D01*
X48543Y-37902D01*
X48543Y-37647D01*
X48581Y-37647D01*
X48673Y-37609D01*
X48743Y-37539D01*
X48782Y-37447D01*
X48782Y-37347D01*
X48782Y-37097D01*
X48744Y-37006D01*
X48710Y-36972D01*
X48744Y-36938D01*
X48782Y-36846D01*
X48782Y-36497D01*
X48744Y-36406D01*
X48673Y-36335D01*
X48582Y-36297D01*
X48482Y-36297D01*
X48419Y-36297D01*
X48357Y-36359D01*
X48357Y-36622D01*
X48719Y-36622D01*
X48782Y-36559D01*
X48782Y-36497D01*
X48782Y-36846D01*
X48782Y-36784D01*
X48719Y-36722D01*
X48357Y-36722D01*
X48357Y-36730D01*
X48257Y-36730D01*
X48257Y-36722D01*
X48257Y-36622D01*
X48257Y-36359D01*
X48194Y-36297D01*
X48131Y-36297D01*
X48032Y-36297D01*
X48014Y-36305D01*
X48034Y-36256D01*
X48034Y-36157D01*
X48034Y-35907D01*
X47996Y-35815D01*
X47946Y-35766D01*
X47946Y-35675D01*
X47888Y-35532D01*
X47779Y-35423D01*
X47636Y-35364D01*
X47482Y-35364D01*
X47339Y-35423D01*
X47230Y-35532D01*
X47171Y-35674D01*
X47171Y-35766D01*
X47122Y-35815D01*
X47084Y-35906D01*
X47084Y-36006D01*
X47084Y-36256D01*
X47121Y-36348D01*
X47155Y-36381D01*
X47121Y-36415D01*
X47084Y-36507D01*
X47084Y-36569D01*
X47146Y-36631D01*
X47509Y-36631D01*
X47509Y-36624D01*
X47609Y-36624D01*
X47609Y-36631D01*
X47971Y-36631D01*
X47981Y-36622D01*
X48257Y-36622D01*
X48257Y-36722D01*
X47894Y-36722D01*
X47885Y-36731D01*
X47609Y-36731D01*
X47609Y-36994D01*
X47641Y-37027D01*
X47599Y-37069D01*
X47599Y-37507D01*
X47617Y-37507D01*
X47617Y-37607D01*
X47599Y-37607D01*
X47599Y-38044D01*
X47661Y-38107D01*
X47684Y-38107D01*
X47684Y-38201D01*
X47684Y-38361D01*
X47695Y-38389D01*
X47684Y-38417D01*
X47684Y-38516D01*
X47684Y-38676D01*
X47695Y-38704D01*
X47684Y-38732D01*
X47684Y-38789D01*
X47580Y-38789D01*
X47438Y-38848D01*
X47328Y-38957D01*
X47269Y-39099D01*
X47269Y-39253D01*
X47328Y-39396D01*
X47437Y-39505D01*
X47580Y-39564D01*
X47684Y-39564D01*
X47684Y-39621D01*
X47695Y-39649D01*
X47684Y-39677D01*
X47684Y-39776D01*
X47684Y-39936D01*
X47695Y-39964D01*
X47684Y-39992D01*
X47684Y-40091D01*
X47684Y-40251D01*
X47695Y-40279D01*
X47684Y-40307D01*
X47684Y-40406D01*
X47684Y-40566D01*
X47695Y-40594D01*
X47684Y-40622D01*
X47684Y-40721D01*
X47684Y-40881D01*
X47695Y-40909D01*
X47684Y-40937D01*
X47684Y-40964D01*
X47746Y-41027D01*
X47775Y-41027D01*
X47792Y-41043D01*
X47848Y-41067D01*
X47792Y-41090D01*
X47775Y-41107D01*
X47746Y-41107D01*
X47684Y-41169D01*
X47684Y-41197D01*
X47695Y-41224D01*
X47684Y-41252D01*
X47684Y-41351D01*
X47684Y-41507D01*
X47589Y-41507D01*
X47429Y-41507D01*
X47401Y-41518D01*
X47374Y-41507D01*
X47274Y-41507D01*
X47238Y-41507D01*
X47238Y-41069D01*
X47214Y-40951D01*
X47214Y-40951D01*
X47147Y-40850D01*
X47147Y-40850D01*
X47098Y-40801D01*
X47058Y-40775D01*
X47023Y-40746D01*
X46950Y-40708D01*
X46928Y-40655D01*
X46819Y-40546D01*
X46677Y-40487D01*
X46523Y-40487D01*
X46380Y-40546D01*
X46271Y-40655D01*
X46212Y-40797D01*
X46212Y-40951D01*
X46271Y-41094D01*
X46380Y-41203D01*
X46522Y-41262D01*
X46620Y-41262D01*
X46620Y-41507D01*
X46484Y-41507D01*
X46456Y-41518D01*
X46429Y-41507D01*
X46329Y-41507D01*
X46169Y-41507D01*
X46141Y-41518D01*
X46114Y-41507D01*
X46014Y-41507D01*
X45854Y-41507D01*
X45826Y-41518D01*
X45799Y-41507D01*
X45781Y-41507D01*
X45781Y-41462D01*
X45722Y-41319D01*
X45613Y-41210D01*
X45471Y-41151D01*
X45316Y-41151D01*
X45174Y-41210D01*
X45112Y-41272D01*
X45112Y-41147D01*
X45053Y-41005D01*
X45038Y-40990D01*
X45072Y-40908D01*
X45072Y-40753D01*
X45023Y-40633D01*
X45072Y-40514D01*
X45072Y-40360D01*
X45013Y-40217D01*
X44904Y-40108D01*
X44762Y-40049D01*
X44653Y-40049D01*
X44663Y-40039D01*
X44734Y-39932D01*
X44734Y-39932D01*
X44759Y-39807D01*
X44759Y-38822D01*
X44734Y-38697D01*
X44734Y-38697D01*
X44663Y-38590D01*
X44387Y-38314D01*
X44284Y-38245D01*
X44284Y-38245D01*
X44284Y-38107D01*
X44306Y-38107D01*
X44336Y-38077D01*
X44336Y-38151D01*
X44395Y-38294D01*
X44504Y-38403D01*
X44646Y-38462D01*
X44801Y-38462D01*
X44943Y-38403D01*
X45052Y-38294D01*
X45112Y-38152D01*
X45112Y-38107D01*
X45168Y-38107D01*
X45196Y-38095D01*
X45224Y-38107D01*
X45323Y-38107D01*
X45483Y-38107D01*
X45511Y-38095D01*
X45539Y-38107D01*
X45638Y-38107D01*
X45798Y-38107D01*
X45826Y-38095D01*
X45854Y-38107D01*
X45953Y-38107D01*
X46113Y-38107D01*
X46141Y-38095D01*
X46169Y-38107D01*
X46268Y-38107D01*
X46428Y-38107D01*
X46456Y-38095D01*
X46484Y-38107D01*
X46583Y-38107D01*
X46698Y-38107D01*
X46698Y-38230D01*
X46757Y-38372D01*
X46866Y-38482D01*
X47009Y-38541D01*
X47163Y-38541D01*
X47305Y-38482D01*
X47415Y-38373D01*
X47474Y-38231D01*
X47474Y-38197D01*
X47529Y-38114D01*
X47529Y-38114D01*
X47553Y-37995D01*
X47553Y-37957D01*
X47574Y-37907D01*
X47574Y-37807D01*
X47574Y-37207D01*
X47536Y-37115D01*
X47519Y-37098D01*
X47519Y-37069D01*
X47476Y-37026D01*
X47509Y-36994D01*
X47509Y-36731D01*
X47146Y-36731D01*
X47084Y-36794D01*
X47084Y-36856D01*
X47121Y-36948D01*
X47180Y-37007D01*
X47114Y-37007D01*
X47086Y-37018D01*
X47059Y-37007D01*
X46959Y-37007D01*
X46799Y-37007D01*
X46771Y-37018D01*
X46744Y-37007D01*
X46644Y-37007D01*
X46484Y-37007D01*
X46456Y-37018D01*
X46429Y-37007D01*
X46329Y-37007D01*
X46169Y-37007D01*
X46141Y-37018D01*
X46114Y-37007D01*
X46014Y-37007D01*
X45854Y-37007D01*
X45826Y-37018D01*
X45799Y-37007D01*
X45699Y-37007D01*
X45539Y-37007D01*
X45511Y-37018D01*
X45484Y-37007D01*
X45384Y-37007D01*
X45348Y-37007D01*
X45348Y-36958D01*
X45358Y-36948D01*
X45396Y-36856D01*
X45396Y-36757D01*
X45396Y-36507D01*
X45358Y-36415D01*
X45324Y-36381D01*
X45358Y-36348D01*
X45396Y-36256D01*
X45396Y-36157D01*
X45396Y-35907D01*
X45358Y-35815D01*
X45309Y-35766D01*
X45309Y-35675D01*
X45250Y-35532D01*
X45141Y-35423D01*
X44998Y-35364D01*
X44844Y-35364D01*
X44701Y-35423D01*
X44625Y-35498D01*
X44550Y-35423D01*
X44408Y-35364D01*
X44253Y-35364D01*
X44111Y-35423D01*
X44035Y-35498D01*
X43960Y-35423D01*
X43817Y-35364D01*
X43663Y-35364D01*
X43520Y-35423D01*
X43411Y-35532D01*
X43352Y-35674D01*
X43352Y-35766D01*
X43303Y-35815D01*
X43265Y-35906D01*
X43265Y-36006D01*
X43265Y-36256D01*
X43268Y-36264D01*
X43259Y-36272D01*
X43259Y-36210D01*
X43222Y-36210D01*
X43222Y-36147D01*
X43209Y-36116D01*
X43242Y-36038D01*
X43242Y-35938D01*
X43242Y-35544D01*
X43204Y-35452D01*
X43133Y-35382D01*
X43042Y-35344D01*
X42942Y-35344D01*
X42627Y-35344D01*
X42535Y-35382D01*
X42465Y-35452D01*
X42427Y-35544D01*
X42427Y-35643D01*
X42427Y-36037D01*
X42459Y-36116D01*
X42446Y-36146D01*
X42446Y-36210D01*
X42404Y-36210D01*
X42404Y-36157D01*
X42404Y-35907D01*
X42366Y-35815D01*
X42316Y-35766D01*
X42316Y-35675D01*
X42258Y-35532D01*
X42149Y-35423D01*
X42006Y-35364D01*
X41852Y-35364D01*
X41709Y-35423D01*
X41600Y-35532D01*
X41541Y-35674D01*
X41541Y-35766D01*
X41492Y-35815D01*
X41454Y-35906D01*
X41454Y-36006D01*
X41454Y-36256D01*
X41492Y-36348D01*
X41525Y-36381D01*
X41492Y-36415D01*
X41454Y-36506D01*
X41454Y-36539D01*
X41440Y-36525D01*
X41297Y-36466D01*
X41143Y-36466D01*
X41001Y-36525D01*
X40891Y-36634D01*
X40832Y-36776D01*
X40832Y-36868D01*
X40783Y-36917D01*
X40745Y-37009D01*
X40745Y-37108D01*
X40745Y-37358D01*
X40783Y-37450D01*
X40816Y-37484D01*
X40783Y-37517D01*
X40745Y-37609D01*
X40745Y-37708D01*
X40745Y-37942D01*
X40234Y-37942D01*
X40260Y-37904D01*
X40309Y-37658D01*
X40309Y-37191D01*
X40260Y-36945D01*
X40120Y-36736D01*
X39911Y-36597D01*
X39665Y-36548D01*
X39419Y-36597D01*
X39210Y-36736D01*
X39070Y-36945D01*
X39049Y-37051D01*
X39049Y-29420D01*
X38817Y-28858D01*
X38387Y-28427D01*
X37825Y-28194D01*
X37216Y-28193D01*
X36654Y-28426D01*
X36223Y-28855D01*
X35990Y-29417D01*
X35989Y-30026D01*
X36222Y-30588D01*
X36652Y-31019D01*
X37214Y-31252D01*
X37822Y-31253D01*
X38384Y-31020D01*
X38815Y-30590D01*
X39048Y-30029D01*
X39049Y-29420D01*
X39049Y-37051D01*
X39021Y-37191D01*
X39021Y-37436D01*
X38740Y-37718D01*
X38040Y-37718D01*
X38040Y-37529D01*
X38002Y-37437D01*
X37932Y-37366D01*
X37840Y-37328D01*
X37741Y-37328D01*
X37166Y-37328D01*
X37074Y-37366D01*
X37004Y-37436D01*
X36966Y-37528D01*
X36966Y-37535D01*
X35827Y-37535D01*
X35801Y-37546D01*
X35801Y-29749D01*
X35935Y-29068D01*
X36309Y-28510D01*
X36861Y-28140D01*
X37548Y-28004D01*
X45892Y-28004D01*
X45894Y-34729D01*
X52638Y-34726D01*
G54D10*
G36*
X53572Y-47081D02*
X53572Y-47138D01*
X53525Y-47186D01*
X53519Y-47180D01*
X53514Y-47186D01*
X53466Y-47138D01*
X53466Y-47081D01*
X53514Y-47033D01*
X53519Y-47039D01*
X53525Y-47033D01*
X53572Y-47081D01*
X53572Y-47081D01*
G37*
G54D41*
X53572Y-47081D02*
X53572Y-47138D01*
X53525Y-47186D01*
X53519Y-47180D01*
X53514Y-47186D01*
X53466Y-47138D01*
X53466Y-47081D01*
X53514Y-47033D01*
X53519Y-47039D01*
X53525Y-47033D01*
X53572Y-47081D01*
G54D10*
G36*
X53640Y-37155D02*
X53632Y-37155D01*
X53632Y-37163D01*
X53532Y-37163D01*
X53532Y-37155D01*
X53524Y-37155D01*
X53524Y-37055D01*
X53532Y-37055D01*
X53532Y-37047D01*
X53632Y-37047D01*
X53632Y-37055D01*
X53640Y-37055D01*
X53640Y-37155D01*
X53640Y-37155D01*
G37*
G54D41*
X53640Y-37155D02*
X53632Y-37155D01*
X53632Y-37163D01*
X53532Y-37163D01*
X53532Y-37155D01*
X53524Y-37155D01*
X53524Y-37055D01*
X53532Y-37055D01*
X53532Y-37047D01*
X53632Y-37047D01*
X53632Y-37055D01*
X53640Y-37055D01*
X53640Y-37155D01*
G54D10*
G36*
X54572Y-47081D02*
X54572Y-47138D01*
X54525Y-47186D01*
X54519Y-47180D01*
X54514Y-47186D01*
X54466Y-47138D01*
X54466Y-47081D01*
X54514Y-47033D01*
X54519Y-47039D01*
X54525Y-47033D01*
X54572Y-47081D01*
X54572Y-47081D01*
G37*
G54D41*
X54572Y-47081D02*
X54572Y-47138D01*
X54525Y-47186D01*
X54519Y-47180D01*
X54514Y-47186D01*
X54466Y-47138D01*
X54466Y-47081D01*
X54514Y-47033D01*
X54519Y-47039D01*
X54525Y-47033D01*
X54572Y-47081D01*
G54D10*
G36*
X67718Y-39823D02*
X67637Y-39857D01*
X67483Y-40012D01*
X67399Y-40214D01*
X67398Y-40432D01*
X67477Y-40623D01*
X62865Y-40623D01*
X62876Y-40596D01*
X62876Y-40534D01*
X62814Y-40472D01*
X62451Y-40472D01*
X62451Y-40479D01*
X62351Y-40479D01*
X62351Y-40472D01*
X62223Y-40472D01*
X61989Y-40472D01*
X61861Y-40472D01*
X61861Y-40479D01*
X61761Y-40479D01*
X61761Y-40472D01*
X61660Y-40472D01*
X61636Y-40447D01*
X61373Y-40447D01*
X61373Y-40455D01*
X61273Y-40455D01*
X61273Y-40447D01*
X61265Y-40447D01*
X61265Y-40347D01*
X61273Y-40347D01*
X61273Y-40339D01*
X61366Y-40339D01*
X61373Y-40347D01*
X61373Y-40347D01*
X61374Y-40347D01*
X61398Y-40372D01*
X61761Y-40372D01*
X61761Y-40364D01*
X61861Y-40364D01*
X61861Y-40372D01*
X61989Y-40372D01*
X62223Y-40372D01*
X62351Y-40372D01*
X62351Y-40364D01*
X62451Y-40364D01*
X62451Y-40372D01*
X62814Y-40372D01*
X62876Y-40309D01*
X62876Y-40247D01*
X62838Y-40155D01*
X62805Y-40122D01*
X62838Y-40088D01*
X62876Y-39996D01*
X62876Y-39897D01*
X62876Y-39738D01*
X67586Y-39738D01*
X67637Y-39789D01*
X67718Y-39823D01*
X67718Y-39823D01*
G37*
G54D41*
X67718Y-39823D02*
X67637Y-39857D01*
X67483Y-40012D01*
X67399Y-40214D01*
X67398Y-40432D01*
X67477Y-40623D01*
X62865Y-40623D01*
X62876Y-40596D01*
X62876Y-40534D01*
X62814Y-40472D01*
X62451Y-40472D01*
X62451Y-40479D01*
X62351Y-40479D01*
X62351Y-40472D01*
X62223Y-40472D01*
X61989Y-40472D01*
X61861Y-40472D01*
X61861Y-40479D01*
X61761Y-40479D01*
X61761Y-40472D01*
X61660Y-40472D01*
X61636Y-40447D01*
X61373Y-40447D01*
X61373Y-40455D01*
X61273Y-40455D01*
X61273Y-40447D01*
X61265Y-40447D01*
X61265Y-40347D01*
X61273Y-40347D01*
X61273Y-40339D01*
X61366Y-40339D01*
X61373Y-40347D01*
X61373Y-40347D01*
X61374Y-40347D01*
X61398Y-40372D01*
X61761Y-40372D01*
X61761Y-40364D01*
X61861Y-40364D01*
X61861Y-40372D01*
X61989Y-40372D01*
X62223Y-40372D01*
X62351Y-40372D01*
X62351Y-40364D01*
X62451Y-40364D01*
X62451Y-40372D01*
X62814Y-40372D01*
X62876Y-40309D01*
X62876Y-40247D01*
X62838Y-40155D01*
X62805Y-40122D01*
X62838Y-40088D01*
X62876Y-39996D01*
X62876Y-39897D01*
X62876Y-39738D01*
X67586Y-39738D01*
X67637Y-39789D01*
X67718Y-39823D01*
G54D10*
G36*
X74238Y-36490D02*
X74218Y-36461D01*
X74049Y-36292D01*
X74049Y-29420D01*
X73817Y-28858D01*
X73387Y-28427D01*
X72825Y-28194D01*
X72216Y-28193D01*
X71654Y-28426D01*
X71223Y-28855D01*
X70990Y-29417D01*
X70989Y-30026D01*
X71222Y-30588D01*
X71652Y-31019D01*
X72214Y-31252D01*
X72822Y-31253D01*
X73384Y-31020D01*
X73815Y-30590D01*
X74048Y-30029D01*
X74049Y-29420D01*
X74049Y-36292D01*
X73759Y-36001D01*
X73759Y-35370D01*
X73759Y-35270D01*
X73816Y-35247D01*
X73886Y-35176D01*
X73924Y-35085D01*
X73925Y-34985D01*
X73925Y-34735D01*
X73887Y-34643D01*
X73853Y-34610D01*
X73887Y-34576D01*
X73925Y-34484D01*
X73925Y-34135D01*
X73887Y-34043D01*
X73816Y-33973D01*
X73724Y-33935D01*
X73625Y-33935D01*
X73562Y-33935D01*
X73500Y-33997D01*
X73500Y-34260D01*
X73862Y-34260D01*
X73925Y-34197D01*
X73925Y-34135D01*
X73925Y-34484D01*
X73925Y-34422D01*
X73862Y-34360D01*
X73500Y-34360D01*
X73500Y-34368D01*
X73400Y-34368D01*
X73400Y-34360D01*
X73400Y-34260D01*
X73400Y-33997D01*
X73337Y-33935D01*
X73274Y-33935D01*
X73175Y-33935D01*
X73115Y-33959D01*
X73055Y-33935D01*
X72956Y-33935D01*
X72893Y-33935D01*
X72830Y-33997D01*
X72830Y-34260D01*
X73037Y-34260D01*
X73193Y-34260D01*
X73400Y-34260D01*
X73400Y-34360D01*
X73193Y-34360D01*
X73037Y-34360D01*
X72830Y-34360D01*
X72830Y-34368D01*
X72730Y-34368D01*
X72730Y-34360D01*
X72730Y-34260D01*
X72730Y-33997D01*
X72668Y-33935D01*
X72605Y-33935D01*
X72505Y-33935D01*
X72413Y-33973D01*
X72343Y-34043D01*
X72305Y-34135D01*
X72305Y-34197D01*
X72368Y-34260D01*
X72730Y-34260D01*
X72730Y-34360D01*
X72368Y-34360D01*
X72305Y-34422D01*
X72305Y-34484D01*
X72343Y-34576D01*
X72377Y-34610D01*
X72343Y-34643D01*
X72305Y-34735D01*
X72305Y-34834D01*
X72305Y-35084D01*
X72343Y-35176D01*
X72413Y-35246D01*
X72470Y-35270D01*
X72470Y-36078D01*
X72448Y-36087D01*
X72314Y-36222D01*
X72037Y-35945D01*
X71656Y-35786D01*
X71243Y-35786D01*
X70990Y-35891D01*
X70990Y-35866D01*
X70877Y-35593D01*
X70669Y-35384D01*
X70396Y-35270D01*
X70101Y-35270D01*
X69828Y-35383D01*
X69619Y-35592D01*
X69506Y-35864D01*
X69505Y-36159D01*
X69618Y-36432D01*
X69827Y-36641D01*
X70099Y-36754D01*
X70395Y-36755D01*
X70411Y-36748D01*
X70411Y-37029D01*
X70569Y-37410D01*
X70860Y-37702D01*
X71241Y-37861D01*
X71654Y-37861D01*
X72035Y-37703D01*
X72327Y-37412D01*
X72463Y-37085D01*
X72662Y-37168D01*
X72895Y-37168D01*
X73016Y-37118D01*
X72882Y-37252D01*
X72793Y-37467D01*
X72793Y-37699D01*
X72882Y-37914D01*
X72939Y-37971D01*
X69965Y-40945D01*
X69967Y-40936D01*
X69967Y-40936D01*
X69967Y-40453D01*
X69945Y-40342D01*
X69882Y-40248D01*
X69882Y-40248D01*
X69752Y-40119D01*
X69659Y-40056D01*
X69548Y-40034D01*
X69457Y-40034D01*
X69503Y-39905D01*
X69492Y-39687D01*
X69430Y-39536D01*
X69334Y-39508D01*
X69019Y-39824D01*
X69025Y-39829D01*
X68954Y-39900D01*
X68949Y-39894D01*
X68943Y-39900D01*
X68872Y-39829D01*
X68878Y-39824D01*
X68563Y-39508D01*
X68467Y-39536D01*
X68394Y-39742D01*
X68405Y-39960D01*
X68435Y-40034D01*
X68424Y-40034D01*
X68415Y-40012D01*
X68260Y-39858D01*
X68179Y-39824D01*
X68260Y-39790D01*
X68311Y-39738D01*
X68376Y-39738D01*
X68376Y-39674D01*
X68414Y-39635D01*
X68498Y-39433D01*
X68499Y-39215D01*
X68420Y-39025D01*
X68432Y-39014D01*
X68482Y-39135D01*
X68637Y-39289D01*
X68712Y-39321D01*
X68661Y-39342D01*
X68633Y-39438D01*
X68949Y-39753D01*
X69264Y-39438D01*
X69236Y-39342D01*
X69181Y-39323D01*
X69260Y-39290D01*
X69414Y-39135D01*
X69498Y-38933D01*
X69499Y-38715D01*
X69415Y-38512D01*
X69260Y-38358D01*
X69179Y-38324D01*
X69260Y-38290D01*
X69414Y-38135D01*
X69498Y-37933D01*
X69499Y-37715D01*
X69415Y-37512D01*
X69260Y-37358D01*
X69258Y-37356D01*
X69258Y-36199D01*
X69234Y-36081D01*
X69234Y-36081D01*
X69167Y-35981D01*
X68582Y-35395D01*
X68481Y-35328D01*
X68363Y-35305D01*
X63652Y-35305D01*
X63652Y-35190D01*
X63296Y-35190D01*
X63283Y-35177D01*
X63191Y-35139D01*
X63092Y-35139D01*
X62842Y-35139D01*
X62750Y-35177D01*
X62737Y-35190D01*
X62696Y-35190D01*
X62683Y-35177D01*
X62591Y-35139D01*
X62492Y-35139D01*
X62242Y-35139D01*
X62150Y-35177D01*
X62137Y-35190D01*
X61977Y-35190D01*
X61977Y-35414D01*
X61931Y-35414D01*
X61931Y-34257D01*
X61931Y-34195D01*
X61869Y-34133D01*
X61506Y-34133D01*
X61506Y-34395D01*
X61569Y-34458D01*
X61632Y-34458D01*
X61731Y-34458D01*
X61823Y-34420D01*
X61893Y-34349D01*
X61931Y-34257D01*
X61931Y-35414D01*
X61838Y-35414D01*
X61746Y-35452D01*
X61712Y-35486D01*
X61679Y-35452D01*
X61587Y-35414D01*
X61488Y-35414D01*
X61406Y-35414D01*
X61406Y-34395D01*
X61406Y-34133D01*
X61044Y-34133D01*
X60981Y-34195D01*
X60981Y-34257D01*
X61019Y-34349D01*
X61089Y-34420D01*
X61181Y-34458D01*
X61281Y-34458D01*
X61344Y-34458D01*
X61406Y-34395D01*
X61406Y-35414D01*
X61238Y-35414D01*
X61146Y-35452D01*
X61096Y-35501D01*
X61005Y-35501D01*
X60978Y-35513D01*
X60978Y-35084D01*
X60919Y-34942D01*
X60863Y-34885D01*
X60919Y-34830D01*
X60978Y-34687D01*
X60978Y-34533D01*
X60919Y-34390D01*
X60810Y-34281D01*
X60668Y-34222D01*
X60576Y-34222D01*
X60527Y-34173D01*
X60435Y-34135D01*
X60336Y-34135D01*
X60086Y-34135D01*
X59994Y-34173D01*
X59960Y-34206D01*
X59927Y-34173D01*
X59835Y-34135D01*
X59773Y-34135D01*
X59710Y-34197D01*
X59710Y-34560D01*
X59718Y-34560D01*
X59718Y-34660D01*
X59710Y-34660D01*
X59710Y-34748D01*
X59710Y-35022D01*
X59710Y-35111D01*
X59718Y-35111D01*
X59718Y-35211D01*
X59710Y-35211D01*
X59710Y-35573D01*
X59773Y-35636D01*
X59835Y-35636D01*
X59927Y-35598D01*
X59960Y-35564D01*
X59993Y-35598D01*
X60085Y-35636D01*
X60185Y-35636D01*
X60435Y-35636D01*
X60527Y-35598D01*
X60576Y-35549D01*
X60667Y-35549D01*
X60809Y-35490D01*
X60919Y-35381D01*
X60978Y-35238D01*
X60978Y-35084D01*
X60978Y-35513D01*
X60863Y-35560D01*
X60754Y-35669D01*
X60694Y-35812D01*
X60694Y-35937D01*
X60653Y-35895D01*
X60510Y-35836D01*
X60356Y-35836D01*
X60213Y-35895D01*
X60157Y-35951D01*
X60101Y-35895D01*
X59959Y-35836D01*
X59805Y-35836D01*
X59662Y-35895D01*
X59640Y-35917D01*
X59640Y-33233D01*
X59286Y-32878D01*
X59215Y-32949D01*
X59215Y-32808D01*
X58860Y-32453D01*
X58759Y-32487D01*
X58677Y-32713D01*
X58687Y-32953D01*
X58759Y-33128D01*
X58860Y-33162D01*
X59215Y-32808D01*
X59215Y-32949D01*
X58931Y-33233D01*
X58965Y-33334D01*
X59191Y-33416D01*
X59431Y-33406D01*
X59606Y-33334D01*
X59640Y-33233D01*
X59640Y-35917D01*
X59553Y-36004D01*
X59494Y-36146D01*
X59494Y-36238D01*
X59488Y-36244D01*
X59451Y-36244D01*
X59451Y-35911D01*
X59451Y-35849D01*
X59388Y-35787D01*
X59026Y-35787D01*
X59026Y-36049D01*
X59088Y-36112D01*
X59151Y-36112D01*
X59251Y-36111D01*
X59343Y-36073D01*
X59413Y-36003D01*
X59451Y-35911D01*
X59451Y-36244D01*
X59399Y-36244D01*
X58848Y-36244D01*
X58756Y-36282D01*
X58685Y-36352D01*
X58647Y-36444D01*
X58647Y-36543D01*
X58647Y-36634D01*
X58647Y-36634D01*
X58647Y-36701D01*
X58647Y-36742D01*
X58584Y-36742D01*
X58442Y-36800D01*
X58332Y-36909D01*
X58273Y-37052D01*
X58273Y-37206D01*
X58315Y-37307D01*
X58273Y-37406D01*
X58273Y-37561D01*
X58332Y-37703D01*
X58441Y-37812D01*
X58520Y-37845D01*
X58069Y-38297D01*
X57690Y-38297D01*
X57690Y-37326D01*
X57690Y-37326D01*
X57668Y-37216D01*
X57668Y-37216D01*
X57648Y-37184D01*
X57606Y-37122D01*
X57606Y-37122D01*
X57096Y-36612D01*
X57242Y-36612D01*
X57384Y-36553D01*
X57493Y-36444D01*
X57553Y-36301D01*
X57553Y-36198D01*
X57614Y-36198D01*
X57614Y-36198D01*
X57681Y-36198D01*
X57771Y-36198D01*
X57772Y-36198D01*
X57838Y-36198D01*
X57929Y-36198D01*
X57929Y-36198D01*
X57996Y-36198D01*
X58086Y-36198D01*
X58087Y-36198D01*
X58153Y-36198D01*
X58244Y-36198D01*
X58244Y-36198D01*
X58311Y-36198D01*
X58401Y-36198D01*
X58493Y-36160D01*
X58564Y-36090D01*
X58582Y-36046D01*
X58609Y-36073D01*
X58701Y-36111D01*
X58800Y-36112D01*
X58863Y-36112D01*
X58926Y-36049D01*
X58926Y-35787D01*
X58918Y-35787D01*
X58918Y-35687D01*
X58926Y-35687D01*
X58926Y-35679D01*
X59026Y-35679D01*
X59026Y-35687D01*
X59388Y-35687D01*
X59451Y-35624D01*
X59451Y-35622D01*
X59486Y-35636D01*
X59548Y-35636D01*
X59610Y-35573D01*
X59610Y-35211D01*
X59602Y-35211D01*
X59602Y-35111D01*
X59610Y-35111D01*
X59610Y-35022D01*
X59610Y-34748D01*
X59610Y-34660D01*
X59602Y-34660D01*
X59602Y-34560D01*
X59610Y-34560D01*
X59610Y-34197D01*
X59548Y-34135D01*
X59486Y-34135D01*
X59394Y-34173D01*
X59323Y-34243D01*
X59285Y-34335D01*
X59285Y-34434D01*
X59285Y-34497D01*
X59348Y-34560D01*
X59285Y-34560D01*
X59285Y-34567D01*
X59196Y-34478D01*
X59053Y-34419D01*
X58899Y-34419D01*
X58756Y-34478D01*
X58647Y-34587D01*
X58588Y-34729D01*
X58588Y-34821D01*
X58539Y-34870D01*
X58501Y-34962D01*
X58501Y-35061D01*
X58501Y-35193D01*
X58494Y-35185D01*
X58402Y-35147D01*
X58302Y-35147D01*
X58212Y-35147D01*
X58212Y-35147D01*
X58145Y-35147D01*
X58054Y-35147D01*
X58054Y-35147D01*
X57987Y-35147D01*
X57897Y-35147D01*
X57897Y-35147D01*
X57830Y-35147D01*
X57739Y-35147D01*
X57739Y-35147D01*
X57672Y-35147D01*
X57651Y-35147D01*
X57651Y-34374D01*
X57651Y-34282D01*
X57778Y-34230D01*
X57887Y-34121D01*
X57946Y-33979D01*
X57946Y-33824D01*
X57888Y-33682D01*
X57848Y-33642D01*
X57848Y-32776D01*
X58686Y-31938D01*
X58773Y-32149D01*
X58943Y-32320D01*
X58951Y-32323D01*
X58931Y-32382D01*
X59286Y-32737D01*
X59291Y-32731D01*
X59362Y-32802D01*
X59356Y-32808D01*
X59711Y-33162D01*
X59770Y-33142D01*
X59773Y-33149D01*
X59943Y-33320D01*
X60165Y-33412D01*
X60405Y-33412D01*
X60627Y-33320D01*
X60798Y-33150D01*
X60890Y-32928D01*
X60890Y-32688D01*
X60853Y-32600D01*
X60988Y-32600D01*
X61147Y-32758D01*
X61147Y-33122D01*
X61090Y-33146D01*
X61019Y-33216D01*
X60981Y-33308D01*
X60981Y-33407D01*
X60981Y-33657D01*
X61019Y-33749D01*
X61053Y-33783D01*
X61019Y-33817D01*
X60981Y-33908D01*
X60981Y-33970D01*
X61044Y-34033D01*
X61406Y-34033D01*
X61406Y-34025D01*
X61506Y-34025D01*
X61506Y-34033D01*
X61869Y-34033D01*
X61931Y-33970D01*
X61931Y-33908D01*
X61893Y-33817D01*
X61860Y-33783D01*
X61893Y-33750D01*
X61931Y-33658D01*
X61931Y-33558D01*
X61931Y-33308D01*
X61893Y-33217D01*
X61823Y-33146D01*
X61765Y-33122D01*
X61765Y-32630D01*
X61765Y-32630D01*
X61765Y-29286D01*
X61742Y-29168D01*
X61742Y-29168D01*
X61675Y-29068D01*
X61675Y-29068D01*
X61258Y-28651D01*
X61158Y-28584D01*
X61040Y-28560D01*
X58932Y-28560D01*
X58813Y-28584D01*
X58713Y-28651D01*
X58713Y-28651D01*
X52920Y-34444D01*
X52920Y-28004D01*
X72493Y-28004D01*
X73174Y-28139D01*
X73732Y-28513D01*
X74102Y-29065D01*
X74238Y-29752D01*
X74238Y-36490D01*
X74238Y-36490D01*
G37*
G54D41*
X74238Y-36490D02*
X74218Y-36461D01*
X74049Y-36292D01*
X74049Y-29420D01*
X73817Y-28858D01*
X73387Y-28427D01*
X72825Y-28194D01*
X72216Y-28193D01*
X71654Y-28426D01*
X71223Y-28855D01*
X70990Y-29417D01*
X70989Y-30026D01*
X71222Y-30588D01*
X71652Y-31019D01*
X72214Y-31252D01*
X72822Y-31253D01*
X73384Y-31020D01*
X73815Y-30590D01*
X74048Y-30029D01*
X74049Y-29420D01*
X74049Y-36292D01*
X73759Y-36001D01*
X73759Y-35370D01*
X73759Y-35270D01*
X73816Y-35247D01*
X73886Y-35176D01*
X73924Y-35085D01*
X73925Y-34985D01*
X73925Y-34735D01*
X73887Y-34643D01*
X73853Y-34610D01*
X73887Y-34576D01*
X73925Y-34484D01*
X73925Y-34135D01*
X73887Y-34043D01*
X73816Y-33973D01*
X73724Y-33935D01*
X73625Y-33935D01*
X73562Y-33935D01*
X73500Y-33997D01*
X73500Y-34260D01*
X73862Y-34260D01*
X73925Y-34197D01*
X73925Y-34135D01*
X73925Y-34484D01*
X73925Y-34422D01*
X73862Y-34360D01*
X73500Y-34360D01*
X73500Y-34368D01*
X73400Y-34368D01*
X73400Y-34360D01*
X73400Y-34260D01*
X73400Y-33997D01*
X73337Y-33935D01*
X73274Y-33935D01*
X73175Y-33935D01*
X73115Y-33959D01*
X73055Y-33935D01*
X72956Y-33935D01*
X72893Y-33935D01*
X72830Y-33997D01*
X72830Y-34260D01*
X73037Y-34260D01*
X73193Y-34260D01*
X73400Y-34260D01*
X73400Y-34360D01*
X73193Y-34360D01*
X73037Y-34360D01*
X72830Y-34360D01*
X72830Y-34368D01*
X72730Y-34368D01*
X72730Y-34360D01*
X72730Y-34260D01*
X72730Y-33997D01*
X72668Y-33935D01*
X72605Y-33935D01*
X72505Y-33935D01*
X72413Y-33973D01*
X72343Y-34043D01*
X72305Y-34135D01*
X72305Y-34197D01*
X72368Y-34260D01*
X72730Y-34260D01*
X72730Y-34360D01*
X72368Y-34360D01*
X72305Y-34422D01*
X72305Y-34484D01*
X72343Y-34576D01*
X72377Y-34610D01*
X72343Y-34643D01*
X72305Y-34735D01*
X72305Y-34834D01*
X72305Y-35084D01*
X72343Y-35176D01*
X72413Y-35246D01*
X72470Y-35270D01*
X72470Y-36078D01*
X72448Y-36087D01*
X72314Y-36222D01*
X72037Y-35945D01*
X71656Y-35786D01*
X71243Y-35786D01*
X70990Y-35891D01*
X70990Y-35866D01*
X70877Y-35593D01*
X70669Y-35384D01*
X70396Y-35270D01*
X70101Y-35270D01*
X69828Y-35383D01*
X69619Y-35592D01*
X69506Y-35864D01*
X69505Y-36159D01*
X69618Y-36432D01*
X69827Y-36641D01*
X70099Y-36754D01*
X70395Y-36755D01*
X70411Y-36748D01*
X70411Y-37029D01*
X70569Y-37410D01*
X70860Y-37702D01*
X71241Y-37861D01*
X71654Y-37861D01*
X72035Y-37703D01*
X72327Y-37412D01*
X72463Y-37085D01*
X72662Y-37168D01*
X72895Y-37168D01*
X73016Y-37118D01*
X72882Y-37252D01*
X72793Y-37467D01*
X72793Y-37699D01*
X72882Y-37914D01*
X72939Y-37971D01*
X69965Y-40945D01*
X69967Y-40936D01*
X69967Y-40936D01*
X69967Y-40453D01*
X69945Y-40342D01*
X69882Y-40248D01*
X69882Y-40248D01*
X69752Y-40119D01*
X69659Y-40056D01*
X69548Y-40034D01*
X69457Y-40034D01*
X69503Y-39905D01*
X69492Y-39687D01*
X69430Y-39536D01*
X69334Y-39508D01*
X69019Y-39824D01*
X69025Y-39829D01*
X68954Y-39900D01*
X68949Y-39894D01*
X68943Y-39900D01*
X68872Y-39829D01*
X68878Y-39824D01*
X68563Y-39508D01*
X68467Y-39536D01*
X68394Y-39742D01*
X68405Y-39960D01*
X68435Y-40034D01*
X68424Y-40034D01*
X68415Y-40012D01*
X68260Y-39858D01*
X68179Y-39824D01*
X68260Y-39790D01*
X68311Y-39738D01*
X68376Y-39738D01*
X68376Y-39674D01*
X68414Y-39635D01*
X68498Y-39433D01*
X68499Y-39215D01*
X68420Y-39025D01*
X68432Y-39014D01*
X68482Y-39135D01*
X68637Y-39289D01*
X68712Y-39321D01*
X68661Y-39342D01*
X68633Y-39438D01*
X68949Y-39753D01*
X69264Y-39438D01*
X69236Y-39342D01*
X69181Y-39323D01*
X69260Y-39290D01*
X69414Y-39135D01*
X69498Y-38933D01*
X69499Y-38715D01*
X69415Y-38512D01*
X69260Y-38358D01*
X69179Y-38324D01*
X69260Y-38290D01*
X69414Y-38135D01*
X69498Y-37933D01*
X69499Y-37715D01*
X69415Y-37512D01*
X69260Y-37358D01*
X69258Y-37356D01*
X69258Y-36199D01*
X69234Y-36081D01*
X69234Y-36081D01*
X69167Y-35981D01*
X68582Y-35395D01*
X68481Y-35328D01*
X68363Y-35305D01*
X63652Y-35305D01*
X63652Y-35190D01*
X63296Y-35190D01*
X63283Y-35177D01*
X63191Y-35139D01*
X63092Y-35139D01*
X62842Y-35139D01*
X62750Y-35177D01*
X62737Y-35190D01*
X62696Y-35190D01*
X62683Y-35177D01*
X62591Y-35139D01*
X62492Y-35139D01*
X62242Y-35139D01*
X62150Y-35177D01*
X62137Y-35190D01*
X61977Y-35190D01*
X61977Y-35414D01*
X61931Y-35414D01*
X61931Y-34257D01*
X61931Y-34195D01*
X61869Y-34133D01*
X61506Y-34133D01*
X61506Y-34395D01*
X61569Y-34458D01*
X61632Y-34458D01*
X61731Y-34458D01*
X61823Y-34420D01*
X61893Y-34349D01*
X61931Y-34257D01*
X61931Y-35414D01*
X61838Y-35414D01*
X61746Y-35452D01*
X61712Y-35486D01*
X61679Y-35452D01*
X61587Y-35414D01*
X61488Y-35414D01*
X61406Y-35414D01*
X61406Y-34395D01*
X61406Y-34133D01*
X61044Y-34133D01*
X60981Y-34195D01*
X60981Y-34257D01*
X61019Y-34349D01*
X61089Y-34420D01*
X61181Y-34458D01*
X61281Y-34458D01*
X61344Y-34458D01*
X61406Y-34395D01*
X61406Y-35414D01*
X61238Y-35414D01*
X61146Y-35452D01*
X61096Y-35501D01*
X61005Y-35501D01*
X60978Y-35513D01*
X60978Y-35084D01*
X60919Y-34942D01*
X60863Y-34885D01*
X60919Y-34830D01*
X60978Y-34687D01*
X60978Y-34533D01*
X60919Y-34390D01*
X60810Y-34281D01*
X60668Y-34222D01*
X60576Y-34222D01*
X60527Y-34173D01*
X60435Y-34135D01*
X60336Y-34135D01*
X60086Y-34135D01*
X59994Y-34173D01*
X59960Y-34206D01*
X59927Y-34173D01*
X59835Y-34135D01*
X59773Y-34135D01*
X59710Y-34197D01*
X59710Y-34560D01*
X59718Y-34560D01*
X59718Y-34660D01*
X59710Y-34660D01*
X59710Y-34748D01*
X59710Y-35022D01*
X59710Y-35111D01*
X59718Y-35111D01*
X59718Y-35211D01*
X59710Y-35211D01*
X59710Y-35573D01*
X59773Y-35636D01*
X59835Y-35636D01*
X59927Y-35598D01*
X59960Y-35564D01*
X59993Y-35598D01*
X60085Y-35636D01*
X60185Y-35636D01*
X60435Y-35636D01*
X60527Y-35598D01*
X60576Y-35549D01*
X60667Y-35549D01*
X60809Y-35490D01*
X60919Y-35381D01*
X60978Y-35238D01*
X60978Y-35084D01*
X60978Y-35513D01*
X60863Y-35560D01*
X60754Y-35669D01*
X60694Y-35812D01*
X60694Y-35937D01*
X60653Y-35895D01*
X60510Y-35836D01*
X60356Y-35836D01*
X60213Y-35895D01*
X60157Y-35951D01*
X60101Y-35895D01*
X59959Y-35836D01*
X59805Y-35836D01*
X59662Y-35895D01*
X59640Y-35917D01*
X59640Y-33233D01*
X59286Y-32878D01*
X59215Y-32949D01*
X59215Y-32808D01*
X58860Y-32453D01*
X58759Y-32487D01*
X58677Y-32713D01*
X58687Y-32953D01*
X58759Y-33128D01*
X58860Y-33162D01*
X59215Y-32808D01*
X59215Y-32949D01*
X58931Y-33233D01*
X58965Y-33334D01*
X59191Y-33416D01*
X59431Y-33406D01*
X59606Y-33334D01*
X59640Y-33233D01*
X59640Y-35917D01*
X59553Y-36004D01*
X59494Y-36146D01*
X59494Y-36238D01*
X59488Y-36244D01*
X59451Y-36244D01*
X59451Y-35911D01*
X59451Y-35849D01*
X59388Y-35787D01*
X59026Y-35787D01*
X59026Y-36049D01*
X59088Y-36112D01*
X59151Y-36112D01*
X59251Y-36111D01*
X59343Y-36073D01*
X59413Y-36003D01*
X59451Y-35911D01*
X59451Y-36244D01*
X59399Y-36244D01*
X58848Y-36244D01*
X58756Y-36282D01*
X58685Y-36352D01*
X58647Y-36444D01*
X58647Y-36543D01*
X58647Y-36634D01*
X58647Y-36634D01*
X58647Y-36701D01*
X58647Y-36742D01*
X58584Y-36742D01*
X58442Y-36800D01*
X58332Y-36909D01*
X58273Y-37052D01*
X58273Y-37206D01*
X58315Y-37307D01*
X58273Y-37406D01*
X58273Y-37561D01*
X58332Y-37703D01*
X58441Y-37812D01*
X58520Y-37845D01*
X58069Y-38297D01*
X57690Y-38297D01*
X57690Y-37326D01*
X57690Y-37326D01*
X57668Y-37216D01*
X57668Y-37216D01*
X57648Y-37184D01*
X57606Y-37122D01*
X57606Y-37122D01*
X57096Y-36612D01*
X57242Y-36612D01*
X57384Y-36553D01*
X57493Y-36444D01*
X57553Y-36301D01*
X57553Y-36198D01*
X57614Y-36198D01*
X57614Y-36198D01*
X57681Y-36198D01*
X57771Y-36198D01*
X57772Y-36198D01*
X57838Y-36198D01*
X57929Y-36198D01*
X57929Y-36198D01*
X57996Y-36198D01*
X58086Y-36198D01*
X58087Y-36198D01*
X58153Y-36198D01*
X58244Y-36198D01*
X58244Y-36198D01*
X58311Y-36198D01*
X58401Y-36198D01*
X58493Y-36160D01*
X58564Y-36090D01*
X58582Y-36046D01*
X58609Y-36073D01*
X58701Y-36111D01*
X58800Y-36112D01*
X58863Y-36112D01*
X58926Y-36049D01*
X58926Y-35787D01*
X58918Y-35787D01*
X58918Y-35687D01*
X58926Y-35687D01*
X58926Y-35679D01*
X59026Y-35679D01*
X59026Y-35687D01*
X59388Y-35687D01*
X59451Y-35624D01*
X59451Y-35622D01*
X59486Y-35636D01*
X59548Y-35636D01*
X59610Y-35573D01*
X59610Y-35211D01*
X59602Y-35211D01*
X59602Y-35111D01*
X59610Y-35111D01*
X59610Y-35022D01*
X59610Y-34748D01*
X59610Y-34660D01*
X59602Y-34660D01*
X59602Y-34560D01*
X59610Y-34560D01*
X59610Y-34197D01*
X59548Y-34135D01*
X59486Y-34135D01*
X59394Y-34173D01*
X59323Y-34243D01*
X59285Y-34335D01*
X59285Y-34434D01*
X59285Y-34497D01*
X59348Y-34560D01*
X59285Y-34560D01*
X59285Y-34567D01*
X59196Y-34478D01*
X59053Y-34419D01*
X58899Y-34419D01*
X58756Y-34478D01*
X58647Y-34587D01*
X58588Y-34729D01*
X58588Y-34821D01*
X58539Y-34870D01*
X58501Y-34962D01*
X58501Y-35061D01*
X58501Y-35193D01*
X58494Y-35185D01*
X58402Y-35147D01*
X58302Y-35147D01*
X58212Y-35147D01*
X58212Y-35147D01*
X58145Y-35147D01*
X58054Y-35147D01*
X58054Y-35147D01*
X57987Y-35147D01*
X57897Y-35147D01*
X57897Y-35147D01*
X57830Y-35147D01*
X57739Y-35147D01*
X57739Y-35147D01*
X57672Y-35147D01*
X57651Y-35147D01*
X57651Y-34374D01*
X57651Y-34282D01*
X57778Y-34230D01*
X57887Y-34121D01*
X57946Y-33979D01*
X57946Y-33824D01*
X57888Y-33682D01*
X57848Y-33642D01*
X57848Y-32776D01*
X58686Y-31938D01*
X58773Y-32149D01*
X58943Y-32320D01*
X58951Y-32323D01*
X58931Y-32382D01*
X59286Y-32737D01*
X59291Y-32731D01*
X59362Y-32802D01*
X59356Y-32808D01*
X59711Y-33162D01*
X59770Y-33142D01*
X59773Y-33149D01*
X59943Y-33320D01*
X60165Y-33412D01*
X60405Y-33412D01*
X60627Y-33320D01*
X60798Y-33150D01*
X60890Y-32928D01*
X60890Y-32688D01*
X60853Y-32600D01*
X60988Y-32600D01*
X61147Y-32758D01*
X61147Y-33122D01*
X61090Y-33146D01*
X61019Y-33216D01*
X60981Y-33308D01*
X60981Y-33407D01*
X60981Y-33657D01*
X61019Y-33749D01*
X61053Y-33783D01*
X61019Y-33817D01*
X60981Y-33908D01*
X60981Y-33970D01*
X61044Y-34033D01*
X61406Y-34033D01*
X61406Y-34025D01*
X61506Y-34025D01*
X61506Y-34033D01*
X61869Y-34033D01*
X61931Y-33970D01*
X61931Y-33908D01*
X61893Y-33817D01*
X61860Y-33783D01*
X61893Y-33750D01*
X61931Y-33658D01*
X61931Y-33558D01*
X61931Y-33308D01*
X61893Y-33217D01*
X61823Y-33146D01*
X61765Y-33122D01*
X61765Y-32630D01*
X61765Y-32630D01*
X61765Y-29286D01*
X61742Y-29168D01*
X61742Y-29168D01*
X61675Y-29068D01*
X61675Y-29068D01*
X61258Y-28651D01*
X61158Y-28584D01*
X61040Y-28560D01*
X58932Y-28560D01*
X58813Y-28584D01*
X58713Y-28651D01*
X58713Y-28651D01*
X52920Y-34444D01*
X52920Y-28004D01*
X72493Y-28004D01*
X73174Y-28139D01*
X73732Y-28513D01*
X74102Y-29065D01*
X74238Y-29752D01*
X74238Y-36490D01*
G54D10*
G36*
X74238Y-48442D02*
X74102Y-49129D01*
X74049Y-49208D01*
X74049Y-48170D01*
X73817Y-47608D01*
X73387Y-47177D01*
X72825Y-46944D01*
X72216Y-46943D01*
X72081Y-46999D01*
X72081Y-46870D01*
X72081Y-45098D01*
X71983Y-44861D01*
X71802Y-44680D01*
X71565Y-44582D01*
X71309Y-44582D01*
X71073Y-44679D01*
X70891Y-44860D01*
X70793Y-45097D01*
X70793Y-45353D01*
X70891Y-45590D01*
X71072Y-45771D01*
X71308Y-45869D01*
X71564Y-45869D01*
X71801Y-45771D01*
X71982Y-45591D01*
X72080Y-45354D01*
X72081Y-45098D01*
X72081Y-46870D01*
X71983Y-46633D01*
X71802Y-46452D01*
X71565Y-46354D01*
X71309Y-46353D01*
X71073Y-46451D01*
X70891Y-46632D01*
X70793Y-46869D01*
X70793Y-47125D01*
X70891Y-47361D01*
X71072Y-47543D01*
X71223Y-47605D01*
X70990Y-48167D01*
X70989Y-48776D01*
X71222Y-49338D01*
X71652Y-49769D01*
X72214Y-50002D01*
X72822Y-50003D01*
X73384Y-49770D01*
X73815Y-49340D01*
X74048Y-48779D01*
X74049Y-48170D01*
X74049Y-49208D01*
X73732Y-49682D01*
X73174Y-50055D01*
X72493Y-50190D01*
X69522Y-50190D01*
X69522Y-46870D01*
X69522Y-45098D01*
X69424Y-44861D01*
X69243Y-44680D01*
X69006Y-44582D01*
X68750Y-44582D01*
X68514Y-44679D01*
X68332Y-44860D01*
X68234Y-45097D01*
X68234Y-45353D01*
X68332Y-45590D01*
X68513Y-45771D01*
X68749Y-45869D01*
X69005Y-45869D01*
X69242Y-45771D01*
X69423Y-45591D01*
X69521Y-45354D01*
X69522Y-45098D01*
X69522Y-46870D01*
X69424Y-46633D01*
X69243Y-46452D01*
X69006Y-46354D01*
X68750Y-46353D01*
X68514Y-46451D01*
X68332Y-46632D01*
X68234Y-46869D01*
X68234Y-47125D01*
X68332Y-47361D01*
X68513Y-47543D01*
X68749Y-47641D01*
X69005Y-47641D01*
X69242Y-47543D01*
X69423Y-47362D01*
X69521Y-47126D01*
X69522Y-46870D01*
X69522Y-50190D01*
X39049Y-50190D01*
X39049Y-48170D01*
X38817Y-47608D01*
X38387Y-47177D01*
X37825Y-46944D01*
X37216Y-46943D01*
X36654Y-47176D01*
X36223Y-47605D01*
X35990Y-48167D01*
X35989Y-48776D01*
X36222Y-49338D01*
X36652Y-49769D01*
X37214Y-50002D01*
X37822Y-50003D01*
X38384Y-49770D01*
X38815Y-49340D01*
X39048Y-48779D01*
X39049Y-48170D01*
X39049Y-50190D01*
X37548Y-50190D01*
X36861Y-50054D01*
X36309Y-49684D01*
X35935Y-49126D01*
X35801Y-48446D01*
X35801Y-40681D01*
X35827Y-40692D01*
X35926Y-40692D01*
X36965Y-40692D01*
X36965Y-40698D01*
X37003Y-40790D01*
X37074Y-40861D01*
X37166Y-40899D01*
X37265Y-40899D01*
X37840Y-40899D01*
X37932Y-40861D01*
X38002Y-40791D01*
X38040Y-40699D01*
X38040Y-40644D01*
X40990Y-40644D01*
X40967Y-40667D01*
X40896Y-40774D01*
X40871Y-40900D01*
X40871Y-41063D01*
X40713Y-41221D01*
X40002Y-41221D01*
X39987Y-41183D01*
X39916Y-41113D01*
X39824Y-41075D01*
X39725Y-41074D01*
X39475Y-41074D01*
X39383Y-41112D01*
X39350Y-41146D01*
X39316Y-41113D01*
X39224Y-41075D01*
X39125Y-41074D01*
X38875Y-41074D01*
X38783Y-41112D01*
X38713Y-41183D01*
X38675Y-41275D01*
X38674Y-41374D01*
X38674Y-41824D01*
X38695Y-41875D01*
X38675Y-41925D01*
X38674Y-42024D01*
X38674Y-42474D01*
X38701Y-42538D01*
X38701Y-43149D01*
X38701Y-43150D01*
X38723Y-43261D01*
X38728Y-43283D01*
X38803Y-43396D01*
X38984Y-43577D01*
X38984Y-43577D01*
X39030Y-43607D01*
X39030Y-43607D01*
X39070Y-43810D01*
X39161Y-43946D01*
X37976Y-42761D01*
X37971Y-42758D01*
X38034Y-42581D01*
X38023Y-42363D01*
X37961Y-42212D01*
X37865Y-42184D01*
X37795Y-42255D01*
X37795Y-42113D01*
X37767Y-42018D01*
X37561Y-41945D01*
X37343Y-41956D01*
X37192Y-42018D01*
X37164Y-42113D01*
X37479Y-42429D01*
X37795Y-42113D01*
X37795Y-42255D01*
X37550Y-42499D01*
X37556Y-42505D01*
X37485Y-42576D01*
X37479Y-42570D01*
X37474Y-42576D01*
X37403Y-42505D01*
X37409Y-42499D01*
X37093Y-42184D01*
X37029Y-42203D01*
X37029Y-42150D01*
X36991Y-42058D01*
X36921Y-41988D01*
X36829Y-41949D01*
X36730Y-41949D01*
X36130Y-41949D01*
X36038Y-41987D01*
X35968Y-42058D01*
X35929Y-42149D01*
X35929Y-42249D01*
X35929Y-42849D01*
X35967Y-42941D01*
X36038Y-43011D01*
X36129Y-43049D01*
X36152Y-43049D01*
X36013Y-43187D01*
X35929Y-43390D01*
X35929Y-43608D01*
X36013Y-43811D01*
X36167Y-43965D01*
X36249Y-43999D01*
X36168Y-44033D01*
X36013Y-44187D01*
X35929Y-44390D01*
X35929Y-44608D01*
X36013Y-44811D01*
X36167Y-44965D01*
X36170Y-44967D01*
X36170Y-45145D01*
X36194Y-45264D01*
X36261Y-45364D01*
X36524Y-45627D01*
X36524Y-45627D01*
X36624Y-45694D01*
X36624Y-45694D01*
X36719Y-45713D01*
X36742Y-45717D01*
X36742Y-45717D01*
X36742Y-45717D01*
X41894Y-45717D01*
X42013Y-45694D01*
X42013Y-45694D01*
X42113Y-45627D01*
X42659Y-45081D01*
X42659Y-45081D01*
X42659Y-45081D01*
X42726Y-44981D01*
X42726Y-44981D01*
X42750Y-44862D01*
X42750Y-44492D01*
X42750Y-44456D01*
X42750Y-43108D01*
X42843Y-43108D01*
X42866Y-43165D01*
X42937Y-43236D01*
X43028Y-43274D01*
X43128Y-43274D01*
X43378Y-43274D01*
X43470Y-43236D01*
X43503Y-43202D01*
X43537Y-43236D01*
X43629Y-43274D01*
X43691Y-43274D01*
X43753Y-43211D01*
X43753Y-42849D01*
X43746Y-42849D01*
X43746Y-42749D01*
X43753Y-42749D01*
X43753Y-42386D01*
X43691Y-42324D01*
X43629Y-42324D01*
X43537Y-42362D01*
X43503Y-42395D01*
X43470Y-42362D01*
X43416Y-42339D01*
X43828Y-41927D01*
X44079Y-41927D01*
X44079Y-42370D01*
X44070Y-42362D01*
X43978Y-42324D01*
X43916Y-42324D01*
X43853Y-42386D01*
X43853Y-42749D01*
X44116Y-42749D01*
X44178Y-42686D01*
X44178Y-42623D01*
X44178Y-42560D01*
X44187Y-42568D01*
X44279Y-42607D01*
X44364Y-42607D01*
X44364Y-42623D01*
X44364Y-42686D01*
X44426Y-42749D01*
X44689Y-42749D01*
X44689Y-42741D01*
X44789Y-42741D01*
X44789Y-42749D01*
X44797Y-42749D01*
X44797Y-42849D01*
X44789Y-42849D01*
X44789Y-43211D01*
X44851Y-43274D01*
X44913Y-43274D01*
X45005Y-43236D01*
X45039Y-43202D01*
X45072Y-43236D01*
X45164Y-43274D01*
X45263Y-43274D01*
X45360Y-43274D01*
X45360Y-43310D01*
X45383Y-43429D01*
X45450Y-43529D01*
X45481Y-43560D01*
X45481Y-44402D01*
X44689Y-44402D01*
X44689Y-43211D01*
X44689Y-42849D01*
X44426Y-42849D01*
X44364Y-42911D01*
X44364Y-42974D01*
X44364Y-43074D01*
X44402Y-43166D01*
X44472Y-43236D01*
X44564Y-43274D01*
X44626Y-43274D01*
X44689Y-43211D01*
X44689Y-44402D01*
X44178Y-44402D01*
X44178Y-42974D01*
X44178Y-42911D01*
X44116Y-42849D01*
X43853Y-42849D01*
X43853Y-43211D01*
X43916Y-43274D01*
X43978Y-43274D01*
X44070Y-43236D01*
X44140Y-43166D01*
X44178Y-43074D01*
X44178Y-42974D01*
X44178Y-44402D01*
X43887Y-44402D01*
X43887Y-47278D01*
X51065Y-47278D01*
X51065Y-47475D01*
X51089Y-47593D01*
X51156Y-47693D01*
X51431Y-47968D01*
X51531Y-48035D01*
X51531Y-48035D01*
X51650Y-48059D01*
X52425Y-48059D01*
X52543Y-48035D01*
X52543Y-48035D01*
X52643Y-47968D01*
X52738Y-47873D01*
X52805Y-47773D01*
X52805Y-47773D01*
X52828Y-47655D01*
X52828Y-47514D01*
X52930Y-47557D01*
X53108Y-47557D01*
X53272Y-47489D01*
X53288Y-47473D01*
X53293Y-47505D01*
X53462Y-47562D01*
X53639Y-47549D01*
X53745Y-47505D01*
X53751Y-47473D01*
X53766Y-47488D01*
X53930Y-47557D01*
X54108Y-47557D01*
X54272Y-47489D01*
X54288Y-47473D01*
X54293Y-47505D01*
X54462Y-47562D01*
X54639Y-47549D01*
X54745Y-47505D01*
X54751Y-47473D01*
X54766Y-47488D01*
X54930Y-47557D01*
X55108Y-47557D01*
X55269Y-47490D01*
X55430Y-47557D01*
X55608Y-47557D01*
X55769Y-47490D01*
X55930Y-47557D01*
X56108Y-47557D01*
X56269Y-47490D01*
X56430Y-47557D01*
X56608Y-47557D01*
X56769Y-47490D01*
X56930Y-47557D01*
X57108Y-47557D01*
X57269Y-47490D01*
X57430Y-47557D01*
X57608Y-47557D01*
X57769Y-47490D01*
X57930Y-47557D01*
X58108Y-47557D01*
X58272Y-47489D01*
X58398Y-47363D01*
X58466Y-47199D01*
X58466Y-47100D01*
X58518Y-47048D01*
X58585Y-46948D01*
X58585Y-46948D01*
X58609Y-46829D01*
X58609Y-46760D01*
X58666Y-46737D01*
X58736Y-46666D01*
X58774Y-46574D01*
X58775Y-46475D01*
X58775Y-46225D01*
X58737Y-46133D01*
X58703Y-46100D01*
X58737Y-46066D01*
X58775Y-45974D01*
X58775Y-45625D01*
X58737Y-45533D01*
X58666Y-45463D01*
X58574Y-45425D01*
X58475Y-45424D01*
X58412Y-45425D01*
X58350Y-45487D01*
X58350Y-45750D01*
X58712Y-45750D01*
X58775Y-45687D01*
X58775Y-45625D01*
X58775Y-45974D01*
X58775Y-45912D01*
X58712Y-45850D01*
X58350Y-45850D01*
X58350Y-45857D01*
X58250Y-45857D01*
X58250Y-45850D01*
X58242Y-45850D01*
X58242Y-45750D01*
X58250Y-45750D01*
X58250Y-45487D01*
X58187Y-45425D01*
X58124Y-45424D01*
X58048Y-45425D01*
X58048Y-45272D01*
X58087Y-45177D01*
X58087Y-45023D01*
X58028Y-44880D01*
X57919Y-44771D01*
X57777Y-44712D01*
X57623Y-44712D01*
X57480Y-44771D01*
X57399Y-44851D01*
X57319Y-44771D01*
X57177Y-44712D01*
X57023Y-44712D01*
X56880Y-44771D01*
X56799Y-44851D01*
X56719Y-44771D01*
X56577Y-44712D01*
X56423Y-44712D01*
X56280Y-44771D01*
X56199Y-44851D01*
X56119Y-44771D01*
X55977Y-44712D01*
X55823Y-44712D01*
X55680Y-44771D01*
X55599Y-44851D01*
X55519Y-44771D01*
X55377Y-44712D01*
X55223Y-44712D01*
X55080Y-44771D01*
X54999Y-44851D01*
X54919Y-44771D01*
X54777Y-44712D01*
X54623Y-44712D01*
X54480Y-44771D01*
X54371Y-44880D01*
X54312Y-45022D01*
X54312Y-45176D01*
X54351Y-45272D01*
X54351Y-45425D01*
X54275Y-45424D01*
X54212Y-45425D01*
X54150Y-45487D01*
X54150Y-45750D01*
X54157Y-45750D01*
X54157Y-45850D01*
X54150Y-45850D01*
X54150Y-45857D01*
X54057Y-45857D01*
X54057Y-40242D01*
X54057Y-40180D01*
X53995Y-40117D01*
X53632Y-40117D01*
X53632Y-40380D01*
X53695Y-40442D01*
X53758Y-40442D01*
X53857Y-40442D01*
X53949Y-40404D01*
X54019Y-40334D01*
X54057Y-40242D01*
X54057Y-45857D01*
X54050Y-45857D01*
X54050Y-45850D01*
X54050Y-45750D01*
X54050Y-45487D01*
X53987Y-45425D01*
X53924Y-45424D01*
X53825Y-45425D01*
X53733Y-45463D01*
X53662Y-45533D01*
X53624Y-45625D01*
X53625Y-45687D01*
X53687Y-45750D01*
X54050Y-45750D01*
X54050Y-45850D01*
X53687Y-45850D01*
X53625Y-45912D01*
X53624Y-45974D01*
X53662Y-46066D01*
X53696Y-46099D01*
X53663Y-46133D01*
X53625Y-46225D01*
X53624Y-46324D01*
X53624Y-46574D01*
X53662Y-46666D01*
X53693Y-46697D01*
X53576Y-46658D01*
X53532Y-46661D01*
X53399Y-46670D01*
X53293Y-46714D01*
X53288Y-46746D01*
X53273Y-46731D01*
X53130Y-46672D01*
X53136Y-46666D01*
X53174Y-46574D01*
X53175Y-46475D01*
X53175Y-46225D01*
X53137Y-46133D01*
X53103Y-46100D01*
X53137Y-46066D01*
X53175Y-45974D01*
X53175Y-45625D01*
X53137Y-45533D01*
X53066Y-45463D01*
X52974Y-45425D01*
X52875Y-45424D01*
X52812Y-45425D01*
X52750Y-45487D01*
X52750Y-45750D01*
X53112Y-45750D01*
X53175Y-45687D01*
X53175Y-45625D01*
X53175Y-45974D01*
X53175Y-45912D01*
X53112Y-45850D01*
X52750Y-45850D01*
X52750Y-45857D01*
X52650Y-45857D01*
X52650Y-45850D01*
X52650Y-45750D01*
X52650Y-45487D01*
X52587Y-45425D01*
X52524Y-45424D01*
X52425Y-45425D01*
X52400Y-45435D01*
X52374Y-45425D01*
X52275Y-45424D01*
X52212Y-45425D01*
X52150Y-45487D01*
X52150Y-45750D01*
X52287Y-45750D01*
X52512Y-45750D01*
X52650Y-45750D01*
X52650Y-45850D01*
X52512Y-45850D01*
X52287Y-45850D01*
X52150Y-45850D01*
X52150Y-45857D01*
X52050Y-45857D01*
X52050Y-45850D01*
X52042Y-45850D01*
X52042Y-45750D01*
X52050Y-45750D01*
X52050Y-45487D01*
X51987Y-45425D01*
X51984Y-45424D01*
X51984Y-44500D01*
X51960Y-44381D01*
X51960Y-44381D01*
X51893Y-44281D01*
X51893Y-44281D01*
X50909Y-43297D01*
X50909Y-40967D01*
X50909Y-40605D01*
X50647Y-40605D01*
X50584Y-40667D01*
X50584Y-40730D01*
X50584Y-40830D01*
X50623Y-40921D01*
X50693Y-40992D01*
X50785Y-41030D01*
X50847Y-41030D01*
X50909Y-40967D01*
X50909Y-43297D01*
X50043Y-42431D01*
X49943Y-42364D01*
X49825Y-42340D01*
X49628Y-42340D01*
X49698Y-42271D01*
X49757Y-42128D01*
X49757Y-42036D01*
X49806Y-41988D01*
X49845Y-41896D01*
X49845Y-41796D01*
X49845Y-41546D01*
X49807Y-41454D01*
X49773Y-41421D01*
X49807Y-41387D01*
X49845Y-41295D01*
X49845Y-41233D01*
X49782Y-41171D01*
X49420Y-41171D01*
X49420Y-41179D01*
X49320Y-41179D01*
X49320Y-41171D01*
X49312Y-41171D01*
X49312Y-41071D01*
X49320Y-41071D01*
X49320Y-41063D01*
X49420Y-41063D01*
X49420Y-41071D01*
X49782Y-41071D01*
X49792Y-41061D01*
X49803Y-41061D01*
X49807Y-41064D01*
X49950Y-41123D01*
X50104Y-41124D01*
X50246Y-41065D01*
X50356Y-40956D01*
X50415Y-40813D01*
X50415Y-40659D01*
X50356Y-40517D01*
X50584Y-40289D01*
X50584Y-40379D01*
X50584Y-40442D01*
X50647Y-40505D01*
X50909Y-40505D01*
X50909Y-40497D01*
X51009Y-40497D01*
X51009Y-40505D01*
X51017Y-40505D01*
X51017Y-40605D01*
X51009Y-40605D01*
X51009Y-40967D01*
X51072Y-41030D01*
X51134Y-41030D01*
X51226Y-40992D01*
X51259Y-40958D01*
X51293Y-40991D01*
X51384Y-41030D01*
X51484Y-41030D01*
X51734Y-41030D01*
X51826Y-40992D01*
X51896Y-40921D01*
X51934Y-40830D01*
X51934Y-40730D01*
X51934Y-40443D01*
X51935Y-40443D01*
X51934Y-40513D01*
X51993Y-40656D01*
X52102Y-40765D01*
X52245Y-40824D01*
X52399Y-40824D01*
X52542Y-40765D01*
X52651Y-40656D01*
X52710Y-40514D01*
X52710Y-40442D01*
X52777Y-40442D01*
X52840Y-40442D01*
X52902Y-40380D01*
X52902Y-40117D01*
X52894Y-40117D01*
X52894Y-40076D01*
X53107Y-40076D01*
X53107Y-40117D01*
X53002Y-40117D01*
X53002Y-40380D01*
X53065Y-40442D01*
X53128Y-40442D01*
X53227Y-40442D01*
X53267Y-40426D01*
X53307Y-40442D01*
X53407Y-40442D01*
X53470Y-40442D01*
X53532Y-40380D01*
X53532Y-40117D01*
X53524Y-40117D01*
X53524Y-40017D01*
X53532Y-40017D01*
X53532Y-40009D01*
X53632Y-40009D01*
X53632Y-40017D01*
X53995Y-40017D01*
X54057Y-39955D01*
X54057Y-39893D01*
X54019Y-39801D01*
X53986Y-39767D01*
X53998Y-39755D01*
X54031Y-39788D01*
X54123Y-39826D01*
X54222Y-39826D01*
X54773Y-39826D01*
X54865Y-39788D01*
X54936Y-39718D01*
X54974Y-39626D01*
X54974Y-39527D01*
X54974Y-39436D01*
X54974Y-39436D01*
X54974Y-39369D01*
X54974Y-39279D01*
X54974Y-39279D01*
X54974Y-39212D01*
X54974Y-39121D01*
X54974Y-39121D01*
X54974Y-39054D01*
X54974Y-38964D01*
X54974Y-38964D01*
X54974Y-38897D01*
X54974Y-38806D01*
X54974Y-38806D01*
X54974Y-38739D01*
X54974Y-38649D01*
X54974Y-38649D01*
X54974Y-38582D01*
X54974Y-38491D01*
X54974Y-38491D01*
X54974Y-38424D01*
X54974Y-38334D01*
X54974Y-38334D01*
X54974Y-38267D01*
X54974Y-38176D01*
X54974Y-38176D01*
X54974Y-38109D01*
X54974Y-38019D01*
X54974Y-38019D01*
X54974Y-37952D01*
X54974Y-37861D01*
X54974Y-37861D01*
X54974Y-37794D01*
X54974Y-37704D01*
X54974Y-37704D01*
X54974Y-37637D01*
X54974Y-37546D01*
X54974Y-37546D01*
X54974Y-37480D01*
X54974Y-37389D01*
X54974Y-37389D01*
X54974Y-37322D01*
X54974Y-37231D01*
X54974Y-37231D01*
X54974Y-37165D01*
X54974Y-37125D01*
X54980Y-37123D01*
X54980Y-37123D01*
X55076Y-37124D01*
X55219Y-37065D01*
X55328Y-36956D01*
X55387Y-36813D01*
X55387Y-36659D01*
X55328Y-36516D01*
X55219Y-36407D01*
X55077Y-36348D01*
X54932Y-36348D01*
X54866Y-36282D01*
X54774Y-36244D01*
X54674Y-36244D01*
X54129Y-36244D01*
X55019Y-35354D01*
X55019Y-35447D01*
X55019Y-35998D01*
X55057Y-36090D01*
X55127Y-36160D01*
X55219Y-36198D01*
X55319Y-36198D01*
X55409Y-36198D01*
X55409Y-36198D01*
X55476Y-36198D01*
X55557Y-36198D01*
X55557Y-36261D01*
X55615Y-36404D01*
X55724Y-36513D01*
X55867Y-36572D01*
X56021Y-36572D01*
X56164Y-36513D01*
X56180Y-36498D01*
X56212Y-36547D01*
X57112Y-37446D01*
X57112Y-38466D01*
X56370Y-39208D01*
X56307Y-39302D01*
X56285Y-39413D01*
X56285Y-39596D01*
X56046Y-39596D01*
X56007Y-39557D01*
X55864Y-39498D01*
X55710Y-39497D01*
X55568Y-39556D01*
X55458Y-39665D01*
X55399Y-39808D01*
X55399Y-39872D01*
X55377Y-39872D01*
X55377Y-39872D01*
X55310Y-39872D01*
X55220Y-39872D01*
X55128Y-39909D01*
X55057Y-39980D01*
X55019Y-40072D01*
X55019Y-40171D01*
X55019Y-40722D01*
X55057Y-40814D01*
X55127Y-40885D01*
X55219Y-40923D01*
X55319Y-40923D01*
X55409Y-40923D01*
X55409Y-40923D01*
X55476Y-40923D01*
X55567Y-40923D01*
X55567Y-40923D01*
X55634Y-40923D01*
X55724Y-40923D01*
X55724Y-40923D01*
X55791Y-40923D01*
X55812Y-40923D01*
X55812Y-41242D01*
X54480Y-42574D01*
X54417Y-42668D01*
X54395Y-42779D01*
X54395Y-44059D01*
X54417Y-44169D01*
X54480Y-44263D01*
X54795Y-44578D01*
X54795Y-44578D01*
X54858Y-44620D01*
X54889Y-44641D01*
X54889Y-44641D01*
X54999Y-44663D01*
X55000Y-44663D01*
X60610Y-44663D01*
X60610Y-44663D01*
X60720Y-44641D01*
X60814Y-44578D01*
X61306Y-44086D01*
X61306Y-44086D01*
X61348Y-44023D01*
X61369Y-43992D01*
X61369Y-43992D01*
X61391Y-43881D01*
X61391Y-43881D01*
X61391Y-43785D01*
X61891Y-43285D01*
X63976Y-43285D01*
X69015Y-43285D01*
X72914Y-43285D01*
X72914Y-43285D01*
X73024Y-43263D01*
X73118Y-43200D01*
X73582Y-42736D01*
X73582Y-42736D01*
X73645Y-42642D01*
X73667Y-42532D01*
X73667Y-42532D01*
X73667Y-42077D01*
X73708Y-42060D01*
X73873Y-41895D01*
X73962Y-41680D01*
X73962Y-41448D01*
X73874Y-41233D01*
X73709Y-41068D01*
X73494Y-40979D01*
X73262Y-40979D01*
X73141Y-41029D01*
X73275Y-40895D01*
X73364Y-40680D01*
X73364Y-40448D01*
X73275Y-40233D01*
X73111Y-40068D01*
X73088Y-40059D01*
X73088Y-39938D01*
X74218Y-38808D01*
X74218Y-38808D01*
X74218Y-38808D01*
X74238Y-38779D01*
X74238Y-48442D01*
X74238Y-48442D01*
G37*
G54D41*
X74238Y-48442D02*
X74102Y-49129D01*
X74049Y-49208D01*
X74049Y-48170D01*
X73817Y-47608D01*
X73387Y-47177D01*
X72825Y-46944D01*
X72216Y-46943D01*
X72081Y-46999D01*
X72081Y-46870D01*
X72081Y-45098D01*
X71983Y-44861D01*
X71802Y-44680D01*
X71565Y-44582D01*
X71309Y-44582D01*
X71073Y-44679D01*
X70891Y-44860D01*
X70793Y-45097D01*
X70793Y-45353D01*
X70891Y-45590D01*
X71072Y-45771D01*
X71308Y-45869D01*
X71564Y-45869D01*
X71801Y-45771D01*
X71982Y-45591D01*
X72080Y-45354D01*
X72081Y-45098D01*
X72081Y-46870D01*
X71983Y-46633D01*
X71802Y-46452D01*
X71565Y-46354D01*
X71309Y-46353D01*
X71073Y-46451D01*
X70891Y-46632D01*
X70793Y-46869D01*
X70793Y-47125D01*
X70891Y-47361D01*
X71072Y-47543D01*
X71223Y-47605D01*
X70990Y-48167D01*
X70989Y-48776D01*
X71222Y-49338D01*
X71652Y-49769D01*
X72214Y-50002D01*
X72822Y-50003D01*
X73384Y-49770D01*
X73815Y-49340D01*
X74048Y-48779D01*
X74049Y-48170D01*
X74049Y-49208D01*
X73732Y-49682D01*
X73174Y-50055D01*
X72493Y-50190D01*
X69522Y-50190D01*
X69522Y-46870D01*
X69522Y-45098D01*
X69424Y-44861D01*
X69243Y-44680D01*
X69006Y-44582D01*
X68750Y-44582D01*
X68514Y-44679D01*
X68332Y-44860D01*
X68234Y-45097D01*
X68234Y-45353D01*
X68332Y-45590D01*
X68513Y-45771D01*
X68749Y-45869D01*
X69005Y-45869D01*
X69242Y-45771D01*
X69423Y-45591D01*
X69521Y-45354D01*
X69522Y-45098D01*
X69522Y-46870D01*
X69424Y-46633D01*
X69243Y-46452D01*
X69006Y-46354D01*
X68750Y-46353D01*
X68514Y-46451D01*
X68332Y-46632D01*
X68234Y-46869D01*
X68234Y-47125D01*
X68332Y-47361D01*
X68513Y-47543D01*
X68749Y-47641D01*
X69005Y-47641D01*
X69242Y-47543D01*
X69423Y-47362D01*
X69521Y-47126D01*
X69522Y-46870D01*
X69522Y-50190D01*
X39049Y-50190D01*
X39049Y-48170D01*
X38817Y-47608D01*
X38387Y-47177D01*
X37825Y-46944D01*
X37216Y-46943D01*
X36654Y-47176D01*
X36223Y-47605D01*
X35990Y-48167D01*
X35989Y-48776D01*
X36222Y-49338D01*
X36652Y-49769D01*
X37214Y-50002D01*
X37822Y-50003D01*
X38384Y-49770D01*
X38815Y-49340D01*
X39048Y-48779D01*
X39049Y-48170D01*
X39049Y-50190D01*
X37548Y-50190D01*
X36861Y-50054D01*
X36309Y-49684D01*
X35935Y-49126D01*
X35801Y-48446D01*
X35801Y-40681D01*
X35827Y-40692D01*
X35926Y-40692D01*
X36965Y-40692D01*
X36965Y-40698D01*
X37003Y-40790D01*
X37074Y-40861D01*
X37166Y-40899D01*
X37265Y-40899D01*
X37840Y-40899D01*
X37932Y-40861D01*
X38002Y-40791D01*
X38040Y-40699D01*
X38040Y-40644D01*
X40990Y-40644D01*
X40967Y-40667D01*
X40896Y-40774D01*
X40871Y-40900D01*
X40871Y-41063D01*
X40713Y-41221D01*
X40002Y-41221D01*
X39987Y-41183D01*
X39916Y-41113D01*
X39824Y-41075D01*
X39725Y-41074D01*
X39475Y-41074D01*
X39383Y-41112D01*
X39350Y-41146D01*
X39316Y-41113D01*
X39224Y-41075D01*
X39125Y-41074D01*
X38875Y-41074D01*
X38783Y-41112D01*
X38713Y-41183D01*
X38675Y-41275D01*
X38674Y-41374D01*
X38674Y-41824D01*
X38695Y-41875D01*
X38675Y-41925D01*
X38674Y-42024D01*
X38674Y-42474D01*
X38701Y-42538D01*
X38701Y-43149D01*
X38701Y-43150D01*
X38723Y-43261D01*
X38728Y-43283D01*
X38803Y-43396D01*
X38984Y-43577D01*
X38984Y-43577D01*
X39030Y-43607D01*
X39030Y-43607D01*
X39070Y-43810D01*
X39161Y-43946D01*
X37976Y-42761D01*
X37971Y-42758D01*
X38034Y-42581D01*
X38023Y-42363D01*
X37961Y-42212D01*
X37865Y-42184D01*
X37795Y-42255D01*
X37795Y-42113D01*
X37767Y-42018D01*
X37561Y-41945D01*
X37343Y-41956D01*
X37192Y-42018D01*
X37164Y-42113D01*
X37479Y-42429D01*
X37795Y-42113D01*
X37795Y-42255D01*
X37550Y-42499D01*
X37556Y-42505D01*
X37485Y-42576D01*
X37479Y-42570D01*
X37474Y-42576D01*
X37403Y-42505D01*
X37409Y-42499D01*
X37093Y-42184D01*
X37029Y-42203D01*
X37029Y-42150D01*
X36991Y-42058D01*
X36921Y-41988D01*
X36829Y-41949D01*
X36730Y-41949D01*
X36130Y-41949D01*
X36038Y-41987D01*
X35968Y-42058D01*
X35929Y-42149D01*
X35929Y-42249D01*
X35929Y-42849D01*
X35967Y-42941D01*
X36038Y-43011D01*
X36129Y-43049D01*
X36152Y-43049D01*
X36013Y-43187D01*
X35929Y-43390D01*
X35929Y-43608D01*
X36013Y-43811D01*
X36167Y-43965D01*
X36249Y-43999D01*
X36168Y-44033D01*
X36013Y-44187D01*
X35929Y-44390D01*
X35929Y-44608D01*
X36013Y-44811D01*
X36167Y-44965D01*
X36170Y-44967D01*
X36170Y-45145D01*
X36194Y-45264D01*
X36261Y-45364D01*
X36524Y-45627D01*
X36524Y-45627D01*
X36624Y-45694D01*
X36624Y-45694D01*
X36719Y-45713D01*
X36742Y-45717D01*
X36742Y-45717D01*
X36742Y-45717D01*
X41894Y-45717D01*
X42013Y-45694D01*
X42013Y-45694D01*
X42113Y-45627D01*
X42659Y-45081D01*
X42659Y-45081D01*
X42659Y-45081D01*
X42726Y-44981D01*
X42726Y-44981D01*
X42750Y-44862D01*
X42750Y-44492D01*
X42750Y-44456D01*
X42750Y-43108D01*
X42843Y-43108D01*
X42866Y-43165D01*
X42937Y-43236D01*
X43028Y-43274D01*
X43128Y-43274D01*
X43378Y-43274D01*
X43470Y-43236D01*
X43503Y-43202D01*
X43537Y-43236D01*
X43629Y-43274D01*
X43691Y-43274D01*
X43753Y-43211D01*
X43753Y-42849D01*
X43746Y-42849D01*
X43746Y-42749D01*
X43753Y-42749D01*
X43753Y-42386D01*
X43691Y-42324D01*
X43629Y-42324D01*
X43537Y-42362D01*
X43503Y-42395D01*
X43470Y-42362D01*
X43416Y-42339D01*
X43828Y-41927D01*
X44079Y-41927D01*
X44079Y-42370D01*
X44070Y-42362D01*
X43978Y-42324D01*
X43916Y-42324D01*
X43853Y-42386D01*
X43853Y-42749D01*
X44116Y-42749D01*
X44178Y-42686D01*
X44178Y-42623D01*
X44178Y-42560D01*
X44187Y-42568D01*
X44279Y-42607D01*
X44364Y-42607D01*
X44364Y-42623D01*
X44364Y-42686D01*
X44426Y-42749D01*
X44689Y-42749D01*
X44689Y-42741D01*
X44789Y-42741D01*
X44789Y-42749D01*
X44797Y-42749D01*
X44797Y-42849D01*
X44789Y-42849D01*
X44789Y-43211D01*
X44851Y-43274D01*
X44913Y-43274D01*
X45005Y-43236D01*
X45039Y-43202D01*
X45072Y-43236D01*
X45164Y-43274D01*
X45263Y-43274D01*
X45360Y-43274D01*
X45360Y-43310D01*
X45383Y-43429D01*
X45450Y-43529D01*
X45481Y-43560D01*
X45481Y-44402D01*
X44689Y-44402D01*
X44689Y-43211D01*
X44689Y-42849D01*
X44426Y-42849D01*
X44364Y-42911D01*
X44364Y-42974D01*
X44364Y-43074D01*
X44402Y-43166D01*
X44472Y-43236D01*
X44564Y-43274D01*
X44626Y-43274D01*
X44689Y-43211D01*
X44689Y-44402D01*
X44178Y-44402D01*
X44178Y-42974D01*
X44178Y-42911D01*
X44116Y-42849D01*
X43853Y-42849D01*
X43853Y-43211D01*
X43916Y-43274D01*
X43978Y-43274D01*
X44070Y-43236D01*
X44140Y-43166D01*
X44178Y-43074D01*
X44178Y-42974D01*
X44178Y-44402D01*
X43887Y-44402D01*
X43887Y-47278D01*
X51065Y-47278D01*
X51065Y-47475D01*
X51089Y-47593D01*
X51156Y-47693D01*
X51431Y-47968D01*
X51531Y-48035D01*
X51531Y-48035D01*
X51650Y-48059D01*
X52425Y-48059D01*
X52543Y-48035D01*
X52543Y-48035D01*
X52643Y-47968D01*
X52738Y-47873D01*
X52805Y-47773D01*
X52805Y-47773D01*
X52828Y-47655D01*
X52828Y-47514D01*
X52930Y-47557D01*
X53108Y-47557D01*
X53272Y-47489D01*
X53288Y-47473D01*
X53293Y-47505D01*
X53462Y-47562D01*
X53639Y-47549D01*
X53745Y-47505D01*
X53751Y-47473D01*
X53766Y-47488D01*
X53930Y-47557D01*
X54108Y-47557D01*
X54272Y-47489D01*
X54288Y-47473D01*
X54293Y-47505D01*
X54462Y-47562D01*
X54639Y-47549D01*
X54745Y-47505D01*
X54751Y-47473D01*
X54766Y-47488D01*
X54930Y-47557D01*
X55108Y-47557D01*
X55269Y-47490D01*
X55430Y-47557D01*
X55608Y-47557D01*
X55769Y-47490D01*
X55930Y-47557D01*
X56108Y-47557D01*
X56269Y-47490D01*
X56430Y-47557D01*
X56608Y-47557D01*
X56769Y-47490D01*
X56930Y-47557D01*
X57108Y-47557D01*
X57269Y-47490D01*
X57430Y-47557D01*
X57608Y-47557D01*
X57769Y-47490D01*
X57930Y-47557D01*
X58108Y-47557D01*
X58272Y-47489D01*
X58398Y-47363D01*
X58466Y-47199D01*
X58466Y-47100D01*
X58518Y-47048D01*
X58585Y-46948D01*
X58585Y-46948D01*
X58609Y-46829D01*
X58609Y-46760D01*
X58666Y-46737D01*
X58736Y-46666D01*
X58774Y-46574D01*
X58775Y-46475D01*
X58775Y-46225D01*
X58737Y-46133D01*
X58703Y-46100D01*
X58737Y-46066D01*
X58775Y-45974D01*
X58775Y-45625D01*
X58737Y-45533D01*
X58666Y-45463D01*
X58574Y-45425D01*
X58475Y-45424D01*
X58412Y-45425D01*
X58350Y-45487D01*
X58350Y-45750D01*
X58712Y-45750D01*
X58775Y-45687D01*
X58775Y-45625D01*
X58775Y-45974D01*
X58775Y-45912D01*
X58712Y-45850D01*
X58350Y-45850D01*
X58350Y-45857D01*
X58250Y-45857D01*
X58250Y-45850D01*
X58242Y-45850D01*
X58242Y-45750D01*
X58250Y-45750D01*
X58250Y-45487D01*
X58187Y-45425D01*
X58124Y-45424D01*
X58048Y-45425D01*
X58048Y-45272D01*
X58087Y-45177D01*
X58087Y-45023D01*
X58028Y-44880D01*
X57919Y-44771D01*
X57777Y-44712D01*
X57623Y-44712D01*
X57480Y-44771D01*
X57399Y-44851D01*
X57319Y-44771D01*
X57177Y-44712D01*
X57023Y-44712D01*
X56880Y-44771D01*
X56799Y-44851D01*
X56719Y-44771D01*
X56577Y-44712D01*
X56423Y-44712D01*
X56280Y-44771D01*
X56199Y-44851D01*
X56119Y-44771D01*
X55977Y-44712D01*
X55823Y-44712D01*
X55680Y-44771D01*
X55599Y-44851D01*
X55519Y-44771D01*
X55377Y-44712D01*
X55223Y-44712D01*
X55080Y-44771D01*
X54999Y-44851D01*
X54919Y-44771D01*
X54777Y-44712D01*
X54623Y-44712D01*
X54480Y-44771D01*
X54371Y-44880D01*
X54312Y-45022D01*
X54312Y-45176D01*
X54351Y-45272D01*
X54351Y-45425D01*
X54275Y-45424D01*
X54212Y-45425D01*
X54150Y-45487D01*
X54150Y-45750D01*
X54157Y-45750D01*
X54157Y-45850D01*
X54150Y-45850D01*
X54150Y-45857D01*
X54057Y-45857D01*
X54057Y-40242D01*
X54057Y-40180D01*
X53995Y-40117D01*
X53632Y-40117D01*
X53632Y-40380D01*
X53695Y-40442D01*
X53758Y-40442D01*
X53857Y-40442D01*
X53949Y-40404D01*
X54019Y-40334D01*
X54057Y-40242D01*
X54057Y-45857D01*
X54050Y-45857D01*
X54050Y-45850D01*
X54050Y-45750D01*
X54050Y-45487D01*
X53987Y-45425D01*
X53924Y-45424D01*
X53825Y-45425D01*
X53733Y-45463D01*
X53662Y-45533D01*
X53624Y-45625D01*
X53625Y-45687D01*
X53687Y-45750D01*
X54050Y-45750D01*
X54050Y-45850D01*
X53687Y-45850D01*
X53625Y-45912D01*
X53624Y-45974D01*
X53662Y-46066D01*
X53696Y-46099D01*
X53663Y-46133D01*
X53625Y-46225D01*
X53624Y-46324D01*
X53624Y-46574D01*
X53662Y-46666D01*
X53693Y-46697D01*
X53576Y-46658D01*
X53532Y-46661D01*
X53399Y-46670D01*
X53293Y-46714D01*
X53288Y-46746D01*
X53273Y-46731D01*
X53130Y-46672D01*
X53136Y-46666D01*
X53174Y-46574D01*
X53175Y-46475D01*
X53175Y-46225D01*
X53137Y-46133D01*
X53103Y-46100D01*
X53137Y-46066D01*
X53175Y-45974D01*
X53175Y-45625D01*
X53137Y-45533D01*
X53066Y-45463D01*
X52974Y-45425D01*
X52875Y-45424D01*
X52812Y-45425D01*
X52750Y-45487D01*
X52750Y-45750D01*
X53112Y-45750D01*
X53175Y-45687D01*
X53175Y-45625D01*
X53175Y-45974D01*
X53175Y-45912D01*
X53112Y-45850D01*
X52750Y-45850D01*
X52750Y-45857D01*
X52650Y-45857D01*
X52650Y-45850D01*
X52650Y-45750D01*
X52650Y-45487D01*
X52587Y-45425D01*
X52524Y-45424D01*
X52425Y-45425D01*
X52400Y-45435D01*
X52374Y-45425D01*
X52275Y-45424D01*
X52212Y-45425D01*
X52150Y-45487D01*
X52150Y-45750D01*
X52287Y-45750D01*
X52512Y-45750D01*
X52650Y-45750D01*
X52650Y-45850D01*
X52512Y-45850D01*
X52287Y-45850D01*
X52150Y-45850D01*
X52150Y-45857D01*
X52050Y-45857D01*
X52050Y-45850D01*
X52042Y-45850D01*
X52042Y-45750D01*
X52050Y-45750D01*
X52050Y-45487D01*
X51987Y-45425D01*
X51984Y-45424D01*
X51984Y-44500D01*
X51960Y-44381D01*
X51960Y-44381D01*
X51893Y-44281D01*
X51893Y-44281D01*
X50909Y-43297D01*
X50909Y-40967D01*
X50909Y-40605D01*
X50647Y-40605D01*
X50584Y-40667D01*
X50584Y-40730D01*
X50584Y-40830D01*
X50623Y-40921D01*
X50693Y-40992D01*
X50785Y-41030D01*
X50847Y-41030D01*
X50909Y-40967D01*
X50909Y-43297D01*
X50043Y-42431D01*
X49943Y-42364D01*
X49825Y-42340D01*
X49628Y-42340D01*
X49698Y-42271D01*
X49757Y-42128D01*
X49757Y-42036D01*
X49806Y-41988D01*
X49845Y-41896D01*
X49845Y-41796D01*
X49845Y-41546D01*
X49807Y-41454D01*
X49773Y-41421D01*
X49807Y-41387D01*
X49845Y-41295D01*
X49845Y-41233D01*
X49782Y-41171D01*
X49420Y-41171D01*
X49420Y-41179D01*
X49320Y-41179D01*
X49320Y-41171D01*
X49312Y-41171D01*
X49312Y-41071D01*
X49320Y-41071D01*
X49320Y-41063D01*
X49420Y-41063D01*
X49420Y-41071D01*
X49782Y-41071D01*
X49792Y-41061D01*
X49803Y-41061D01*
X49807Y-41064D01*
X49950Y-41123D01*
X50104Y-41124D01*
X50246Y-41065D01*
X50356Y-40956D01*
X50415Y-40813D01*
X50415Y-40659D01*
X50356Y-40517D01*
X50584Y-40289D01*
X50584Y-40379D01*
X50584Y-40442D01*
X50647Y-40505D01*
X50909Y-40505D01*
X50909Y-40497D01*
X51009Y-40497D01*
X51009Y-40505D01*
X51017Y-40505D01*
X51017Y-40605D01*
X51009Y-40605D01*
X51009Y-40967D01*
X51072Y-41030D01*
X51134Y-41030D01*
X51226Y-40992D01*
X51259Y-40958D01*
X51293Y-40991D01*
X51384Y-41030D01*
X51484Y-41030D01*
X51734Y-41030D01*
X51826Y-40992D01*
X51896Y-40921D01*
X51934Y-40830D01*
X51934Y-40730D01*
X51934Y-40443D01*
X51935Y-40443D01*
X51934Y-40513D01*
X51993Y-40656D01*
X52102Y-40765D01*
X52245Y-40824D01*
X52399Y-40824D01*
X52542Y-40765D01*
X52651Y-40656D01*
X52710Y-40514D01*
X52710Y-40442D01*
X52777Y-40442D01*
X52840Y-40442D01*
X52902Y-40380D01*
X52902Y-40117D01*
X52894Y-40117D01*
X52894Y-40076D01*
X53107Y-40076D01*
X53107Y-40117D01*
X53002Y-40117D01*
X53002Y-40380D01*
X53065Y-40442D01*
X53128Y-40442D01*
X53227Y-40442D01*
X53267Y-40426D01*
X53307Y-40442D01*
X53407Y-40442D01*
X53470Y-40442D01*
X53532Y-40380D01*
X53532Y-40117D01*
X53524Y-40117D01*
X53524Y-40017D01*
X53532Y-40017D01*
X53532Y-40009D01*
X53632Y-40009D01*
X53632Y-40017D01*
X53995Y-40017D01*
X54057Y-39955D01*
X54057Y-39893D01*
X54019Y-39801D01*
X53986Y-39767D01*
X53998Y-39755D01*
X54031Y-39788D01*
X54123Y-39826D01*
X54222Y-39826D01*
X54773Y-39826D01*
X54865Y-39788D01*
X54936Y-39718D01*
X54974Y-39626D01*
X54974Y-39527D01*
X54974Y-39436D01*
X54974Y-39436D01*
X54974Y-39369D01*
X54974Y-39279D01*
X54974Y-39279D01*
X54974Y-39212D01*
X54974Y-39121D01*
X54974Y-39121D01*
X54974Y-39054D01*
X54974Y-38964D01*
X54974Y-38964D01*
X54974Y-38897D01*
X54974Y-38806D01*
X54974Y-38806D01*
X54974Y-38739D01*
X54974Y-38649D01*
X54974Y-38649D01*
X54974Y-38582D01*
X54974Y-38491D01*
X54974Y-38491D01*
X54974Y-38424D01*
X54974Y-38334D01*
X54974Y-38334D01*
X54974Y-38267D01*
X54974Y-38176D01*
X54974Y-38176D01*
X54974Y-38109D01*
X54974Y-38019D01*
X54974Y-38019D01*
X54974Y-37952D01*
X54974Y-37861D01*
X54974Y-37861D01*
X54974Y-37794D01*
X54974Y-37704D01*
X54974Y-37704D01*
X54974Y-37637D01*
X54974Y-37546D01*
X54974Y-37546D01*
X54974Y-37480D01*
X54974Y-37389D01*
X54974Y-37389D01*
X54974Y-37322D01*
X54974Y-37231D01*
X54974Y-37231D01*
X54974Y-37165D01*
X54974Y-37125D01*
X54980Y-37123D01*
X54980Y-37123D01*
X55076Y-37124D01*
X55219Y-37065D01*
X55328Y-36956D01*
X55387Y-36813D01*
X55387Y-36659D01*
X55328Y-36516D01*
X55219Y-36407D01*
X55077Y-36348D01*
X54932Y-36348D01*
X54866Y-36282D01*
X54774Y-36244D01*
X54674Y-36244D01*
X54129Y-36244D01*
X55019Y-35354D01*
X55019Y-35447D01*
X55019Y-35998D01*
X55057Y-36090D01*
X55127Y-36160D01*
X55219Y-36198D01*
X55319Y-36198D01*
X55409Y-36198D01*
X55409Y-36198D01*
X55476Y-36198D01*
X55557Y-36198D01*
X55557Y-36261D01*
X55615Y-36404D01*
X55724Y-36513D01*
X55867Y-36572D01*
X56021Y-36572D01*
X56164Y-36513D01*
X56180Y-36498D01*
X56212Y-36547D01*
X57112Y-37446D01*
X57112Y-38466D01*
X56370Y-39208D01*
X56307Y-39302D01*
X56285Y-39413D01*
X56285Y-39596D01*
X56046Y-39596D01*
X56007Y-39557D01*
X55864Y-39498D01*
X55710Y-39497D01*
X55568Y-39556D01*
X55458Y-39665D01*
X55399Y-39808D01*
X55399Y-39872D01*
X55377Y-39872D01*
X55377Y-39872D01*
X55310Y-39872D01*
X55220Y-39872D01*
X55128Y-39909D01*
X55057Y-39980D01*
X55019Y-40072D01*
X55019Y-40171D01*
X55019Y-40722D01*
X55057Y-40814D01*
X55127Y-40885D01*
X55219Y-40923D01*
X55319Y-40923D01*
X55409Y-40923D01*
X55409Y-40923D01*
X55476Y-40923D01*
X55567Y-40923D01*
X55567Y-40923D01*
X55634Y-40923D01*
X55724Y-40923D01*
X55724Y-40923D01*
X55791Y-40923D01*
X55812Y-40923D01*
X55812Y-41242D01*
X54480Y-42574D01*
X54417Y-42668D01*
X54395Y-42779D01*
X54395Y-44059D01*
X54417Y-44169D01*
X54480Y-44263D01*
X54795Y-44578D01*
X54795Y-44578D01*
X54858Y-44620D01*
X54889Y-44641D01*
X54889Y-44641D01*
X54999Y-44663D01*
X55000Y-44663D01*
X60610Y-44663D01*
X60610Y-44663D01*
X60720Y-44641D01*
X60814Y-44578D01*
X61306Y-44086D01*
X61306Y-44086D01*
X61348Y-44023D01*
X61369Y-43992D01*
X61369Y-43992D01*
X61391Y-43881D01*
X61391Y-43881D01*
X61391Y-43785D01*
X61891Y-43285D01*
X63976Y-43285D01*
X69015Y-43285D01*
X72914Y-43285D01*
X72914Y-43285D01*
X73024Y-43263D01*
X73118Y-43200D01*
X73582Y-42736D01*
X73582Y-42736D01*
X73645Y-42642D01*
X73667Y-42532D01*
X73667Y-42532D01*
X73667Y-42077D01*
X73708Y-42060D01*
X73873Y-41895D01*
X73962Y-41680D01*
X73962Y-41448D01*
X73874Y-41233D01*
X73709Y-41068D01*
X73494Y-40979D01*
X73262Y-40979D01*
X73141Y-41029D01*
X73275Y-40895D01*
X73364Y-40680D01*
X73364Y-40448D01*
X73275Y-40233D01*
X73111Y-40068D01*
X73088Y-40059D01*
X73088Y-39938D01*
X74218Y-38808D01*
X74218Y-38808D01*
X74218Y-38808D01*
X74238Y-38779D01*
X74238Y-48442D01*
M02*
