M48
;DRILL file {Pcbnew (2013-07-07 BZR 4022)-stable} date 04/07/2014 12:13:30
;FORMAT={-:-/ absolute / metric / decimal}
FMAT,2
METRIC,TZ
T1C0.300
T2C0.610
T3C0.750
T4C0.800
T5C0.900
T6C1.000
T7C1.016
T8C1.500
T9C2.700
T10C3.250
%
G90
G05
M71
T1
X104.6Y-101.81
X104.7Y-93.61
X106.5Y-90.81
X108.8Y-92.01
X109.8Y-100.31
X111.1Y-90.81
X112.6Y-90.81
X113.5Y-102.71
X113.5Y-103.71
X113.6Y-96.71
X113.6Y-104.71
X114.1Y-90.81
X115.3Y-105.51
X118.364Y-103.822
X119.5Y-115.11
X119.6Y-96.91
X120.8Y-90.81
X121.05Y-99.51
X123.8Y-105.31
X124.4Y-100.31
X124.4Y-101.91
X124.9Y-101.11
X125.4Y-106.81
X127.02Y-101.42
X127.07Y-103.47
X130.Y-101.71
X132.9Y-102.71
X136.1Y-96.61
X138.938Y-114.554
X139.7Y-93.31
X140.462Y-114.554
X141.7Y-101.31
X141.986Y-114.554
X142.1Y-91.91
X143.5Y-106.71
X143.51Y-114.554
X143.8Y-85.21
X143.8Y-86.21
X143.9Y-83.61
X144.Y-92.01
X145.034Y-114.554
X145.2Y-92.01
X145.3Y-84.81
X145.7Y-101.31
X146.2Y-86.11
X146.558Y-114.554
X146.9Y-101.31
X148.75Y-107.71
X149.Y-94.31
X149.Y-95.21
X149.Y-99.21
X149.8Y-88.41
X151.7Y-97.21
X152.1Y-92.01
X152.8Y-97.51
X153.5Y-92.01
X153.9Y-87.91
X153.9Y-89.31
X154.55Y-107.61
X155.15Y-91.16
X156.6Y-97.41
X157.Y-99.81
X157.05Y-95.61
X157.1Y-94.21
X158.5Y-99.81
X159.1Y-104.11
X159.9Y-97.41
T2
X132.13Y-119.66
X133.4Y-119.66
X134.67Y-119.66
X135.94Y-119.66
X137.21Y-119.66
X138.48Y-119.66
X139.75Y-119.66
X141.02Y-119.66
X142.29Y-119.66
X143.56Y-119.66
X144.83Y-119.66
X146.1Y-119.66
X147.37Y-119.66
T5
X172.59Y-94.803
X172.59Y-97.343
X172.59Y-99.883
X172.59Y-102.423
X175.13Y-96.073
X175.13Y-98.613
X175.13Y-101.153
X175.13Y-103.693
X184.86Y-92.923
X184.86Y-103.033
X186.38Y-95.463
X186.38Y-105.573
T6
X150.586Y-75.712
X150.586Y-78.252
X150.586Y-80.792
X150.586Y-83.332
X153.126Y-75.712
X153.126Y-78.252
X153.126Y-80.792
X153.126Y-83.332
X174.951Y-114.874
X174.951Y-119.374
X181.451Y-114.874
X181.451Y-119.374
T7
X92.659Y-107.95
X92.659Y-110.49
X92.659Y-113.03
X95.199Y-107.95
X95.199Y-110.49
X95.199Y-113.03
T8
X178.43Y-91.473
X178.43Y-107.023
T9
X95.3Y-75.498
X95.3Y-123.123
X184.2Y-75.498
X184.2Y-123.123
T10
X181.48Y-93.533
X181.48Y-104.963
T3
X95.409Y-96.925G85X95.109Y-96.925
G05
X95.109Y-101.775G85X95.409Y-101.775
G05
T4
X92.479Y-96.625G85X91.979Y-96.625
G05
X92.479Y-102.075G85X91.979Y-102.075
G05
T6
X100.75Y-95.81G85X100.75Y-94.31
G05
X100.75Y-110.81G85X100.75Y-109.31
G05
T0
M30
