G04 (created by PCBNEW (2013-07-07 BZR 4022)-stable) date 04/07/2014 12:15:50*
%MOIN*%
G04 Gerber Fmt 3.4, Leading zero omitted, Abs format*
%FSLAX34Y34*%
G01*
G70*
G90*
G04 APERTURE LIST*
%ADD10C,0.00590551*%
%ADD11C,0.00393701*%
%ADD12C,0.00787402*%
%ADD13C,0.011811*%
%ADD14C,0.012*%
%ADD15C,0.008*%
%ADD16C,0.0047*%
%ADD17C,0.0031*%
%ADD18C,0.005*%
%ADD19C,0.0045*%
G04 APERTURE END LIST*
G54D10*
G54D11*
X35531Y-48472D02*
X35531Y-29722D01*
X35531Y-48472D02*
G75*
G03X37518Y-50460I1987J0D01*
G74*
G01*
X72520Y-50460D02*
X37518Y-50460D01*
X72520Y-50460D02*
G75*
G03X74507Y-48472I0J1987D01*
G74*
G01*
X74507Y-29722D02*
X74507Y-48472D01*
X74507Y-29722D02*
G75*
G03X72520Y-27735I-1987J0D01*
G74*
G01*
X37518Y-27735D02*
X72520Y-27735D01*
X37518Y-27735D02*
G75*
G03X35531Y-29722I0J-1987D01*
G74*
G01*
G54D12*
X58696Y-39748D02*
G75*
G03X58696Y-39748I-212J0D01*
G74*
G01*
G54D13*
X49422Y-49123D02*
X49422Y-48533D01*
X49422Y-48814D02*
X49760Y-48814D01*
X49760Y-49123D02*
X49760Y-48533D01*
X50294Y-49123D02*
X50294Y-48814D01*
X50266Y-48758D01*
X50210Y-48730D01*
X50097Y-48730D01*
X50041Y-48758D01*
X50294Y-49095D02*
X50238Y-49123D01*
X50097Y-49123D01*
X50041Y-49095D01*
X50013Y-49039D01*
X50013Y-48983D01*
X50041Y-48927D01*
X50097Y-48898D01*
X50238Y-48898D01*
X50294Y-48870D01*
X50575Y-49123D02*
X50575Y-48730D01*
X50575Y-48842D02*
X50603Y-48786D01*
X50632Y-48758D01*
X50688Y-48730D01*
X50744Y-48730D01*
X50885Y-48730D02*
X51025Y-49123D01*
X51166Y-48730D01*
X51616Y-49095D02*
X51560Y-49123D01*
X51447Y-49123D01*
X51391Y-49095D01*
X51363Y-49039D01*
X51363Y-48814D01*
X51391Y-48758D01*
X51447Y-48730D01*
X51560Y-48730D01*
X51616Y-48758D01*
X51644Y-48814D01*
X51644Y-48870D01*
X51363Y-48927D01*
X51869Y-49095D02*
X51925Y-49123D01*
X52038Y-49123D01*
X52094Y-49095D01*
X52122Y-49039D01*
X52122Y-49011D01*
X52094Y-48955D01*
X52038Y-48927D01*
X51953Y-48927D01*
X51897Y-48898D01*
X51869Y-48842D01*
X51869Y-48814D01*
X51897Y-48758D01*
X51953Y-48730D01*
X52038Y-48730D01*
X52094Y-48758D01*
X52291Y-48730D02*
X52516Y-48730D01*
X52375Y-48533D02*
X52375Y-49039D01*
X52403Y-49095D01*
X52459Y-49123D01*
X52516Y-49123D01*
X52966Y-48730D02*
X52966Y-49208D01*
X52937Y-49264D01*
X52909Y-49292D01*
X52853Y-49320D01*
X52769Y-49320D01*
X52712Y-49292D01*
X52966Y-49095D02*
X52909Y-49123D01*
X52797Y-49123D01*
X52741Y-49095D01*
X52712Y-49067D01*
X52684Y-49011D01*
X52684Y-48842D01*
X52712Y-48786D01*
X52741Y-48758D01*
X52797Y-48730D01*
X52909Y-48730D01*
X52966Y-48758D01*
X53472Y-49095D02*
X53416Y-49123D01*
X53303Y-49123D01*
X53247Y-49095D01*
X53219Y-49039D01*
X53219Y-48814D01*
X53247Y-48758D01*
X53303Y-48730D01*
X53416Y-48730D01*
X53472Y-48758D01*
X53500Y-48814D01*
X53500Y-48870D01*
X53219Y-48927D01*
X53978Y-49095D02*
X53922Y-49123D01*
X53809Y-49123D01*
X53753Y-49095D01*
X53725Y-49039D01*
X53725Y-48814D01*
X53753Y-48758D01*
X53809Y-48730D01*
X53922Y-48730D01*
X53978Y-48758D01*
X54006Y-48814D01*
X54006Y-48870D01*
X53725Y-48927D01*
X54259Y-49123D02*
X54259Y-48533D01*
X54315Y-48898D02*
X54484Y-49123D01*
X54484Y-48730D02*
X54259Y-48955D01*
X55384Y-48814D02*
X55468Y-48842D01*
X55497Y-48870D01*
X55525Y-48927D01*
X55525Y-49011D01*
X55497Y-49067D01*
X55468Y-49095D01*
X55412Y-49123D01*
X55187Y-49123D01*
X55187Y-48533D01*
X55384Y-48533D01*
X55440Y-48561D01*
X55468Y-48589D01*
X55497Y-48645D01*
X55497Y-48702D01*
X55468Y-48758D01*
X55440Y-48786D01*
X55384Y-48814D01*
X55187Y-48814D01*
X56031Y-49123D02*
X56031Y-48814D01*
X56003Y-48758D01*
X55946Y-48730D01*
X55834Y-48730D01*
X55778Y-48758D01*
X56031Y-49095D02*
X55975Y-49123D01*
X55834Y-49123D01*
X55778Y-49095D01*
X55750Y-49039D01*
X55750Y-48983D01*
X55778Y-48927D01*
X55834Y-48898D01*
X55975Y-48898D01*
X56031Y-48870D01*
X56284Y-49095D02*
X56340Y-49123D01*
X56453Y-49123D01*
X56509Y-49095D01*
X56537Y-49039D01*
X56537Y-49011D01*
X56509Y-48955D01*
X56453Y-48927D01*
X56368Y-48927D01*
X56312Y-48898D01*
X56284Y-48842D01*
X56284Y-48814D01*
X56312Y-48758D01*
X56368Y-48730D01*
X56453Y-48730D01*
X56509Y-48758D01*
X57015Y-49095D02*
X56959Y-49123D01*
X56846Y-49123D01*
X56790Y-49095D01*
X56762Y-49039D01*
X56762Y-48814D01*
X56790Y-48758D01*
X56846Y-48730D01*
X56959Y-48730D01*
X57015Y-48758D01*
X57043Y-48814D01*
X57043Y-48870D01*
X56762Y-48927D01*
X57718Y-49095D02*
X57802Y-49123D01*
X57943Y-49123D01*
X57999Y-49095D01*
X58027Y-49067D01*
X58056Y-49011D01*
X58056Y-48955D01*
X58027Y-48898D01*
X57999Y-48870D01*
X57943Y-48842D01*
X57831Y-48814D01*
X57774Y-48786D01*
X57746Y-48758D01*
X57718Y-48702D01*
X57718Y-48645D01*
X57746Y-48589D01*
X57774Y-48561D01*
X57831Y-48533D01*
X57971Y-48533D01*
X58056Y-48561D01*
X58224Y-48730D02*
X58449Y-48730D01*
X58309Y-48533D02*
X58309Y-49039D01*
X58337Y-49095D01*
X58393Y-49123D01*
X58449Y-49123D01*
X58899Y-49123D02*
X58899Y-48814D01*
X58871Y-48758D01*
X58815Y-48730D01*
X58702Y-48730D01*
X58646Y-48758D01*
X58899Y-49095D02*
X58843Y-49123D01*
X58702Y-49123D01*
X58646Y-49095D01*
X58618Y-49039D01*
X58618Y-48983D01*
X58646Y-48927D01*
X58702Y-48898D01*
X58843Y-48898D01*
X58899Y-48870D01*
X59096Y-48730D02*
X59321Y-48730D01*
X59180Y-48533D02*
X59180Y-49039D01*
X59209Y-49095D01*
X59265Y-49123D01*
X59321Y-49123D01*
X59518Y-49123D02*
X59518Y-48730D01*
X59518Y-48533D02*
X59490Y-48561D01*
X59518Y-48589D01*
X59546Y-48561D01*
X59518Y-48533D01*
X59518Y-48589D01*
X59883Y-49123D02*
X59827Y-49095D01*
X59799Y-49067D01*
X59771Y-49011D01*
X59771Y-48842D01*
X59799Y-48786D01*
X59827Y-48758D01*
X59883Y-48730D01*
X59968Y-48730D01*
X60024Y-48758D01*
X60052Y-48786D01*
X60080Y-48842D01*
X60080Y-49011D01*
X60052Y-49067D01*
X60024Y-49095D01*
X59968Y-49123D01*
X59883Y-49123D01*
X60333Y-48730D02*
X60333Y-49123D01*
X60333Y-48786D02*
X60362Y-48758D01*
X60418Y-48730D01*
X60502Y-48730D01*
X60558Y-48758D01*
X60587Y-48814D01*
X60587Y-49123D01*
X52670Y-50068D02*
X52670Y-49478D01*
X52867Y-49900D01*
X53064Y-49478D01*
X53064Y-50068D01*
X53345Y-50012D02*
X53373Y-50040D01*
X53345Y-50068D01*
X53317Y-50040D01*
X53345Y-50012D01*
X53345Y-50068D01*
X54048Y-50040D02*
X54133Y-50068D01*
X54273Y-50068D01*
X54329Y-50040D01*
X54358Y-50012D01*
X54386Y-49956D01*
X54386Y-49900D01*
X54358Y-49843D01*
X54329Y-49815D01*
X54273Y-49787D01*
X54161Y-49759D01*
X54105Y-49731D01*
X54076Y-49703D01*
X54048Y-49646D01*
X54048Y-49590D01*
X54076Y-49534D01*
X54105Y-49506D01*
X54161Y-49478D01*
X54301Y-49478D01*
X54386Y-49506D01*
X54554Y-49675D02*
X54779Y-49675D01*
X54639Y-49478D02*
X54639Y-49984D01*
X54667Y-50040D01*
X54723Y-50068D01*
X54779Y-50068D01*
X55201Y-50040D02*
X55145Y-50068D01*
X55033Y-50068D01*
X54976Y-50040D01*
X54948Y-49984D01*
X54948Y-49759D01*
X54976Y-49703D01*
X55033Y-49675D01*
X55145Y-49675D01*
X55201Y-49703D01*
X55229Y-49759D01*
X55229Y-49815D01*
X54948Y-49871D01*
X55482Y-49675D02*
X55482Y-50265D01*
X55482Y-49703D02*
X55539Y-49675D01*
X55651Y-49675D01*
X55707Y-49703D01*
X55736Y-49731D01*
X55764Y-49787D01*
X55764Y-49956D01*
X55736Y-50012D01*
X55707Y-50040D01*
X55651Y-50068D01*
X55539Y-50068D01*
X55482Y-50040D01*
X56017Y-50068D02*
X56017Y-49478D01*
X56270Y-50068D02*
X56270Y-49759D01*
X56242Y-49703D01*
X56186Y-49675D01*
X56101Y-49675D01*
X56045Y-49703D01*
X56017Y-49731D01*
X56804Y-50068D02*
X56804Y-49759D01*
X56776Y-49703D01*
X56720Y-49675D01*
X56607Y-49675D01*
X56551Y-49703D01*
X56804Y-50040D02*
X56748Y-50068D01*
X56607Y-50068D01*
X56551Y-50040D01*
X56523Y-49984D01*
X56523Y-49928D01*
X56551Y-49871D01*
X56607Y-49843D01*
X56748Y-49843D01*
X56804Y-49815D01*
X57085Y-49675D02*
X57085Y-50068D01*
X57085Y-49731D02*
X57114Y-49703D01*
X57170Y-49675D01*
X57254Y-49675D01*
X57310Y-49703D01*
X57338Y-49759D01*
X57338Y-50068D01*
G54D14*
X47954Y-37837D02*
X47954Y-41777D01*
X47954Y-41777D02*
X44014Y-41777D01*
X44014Y-38027D02*
X44014Y-41777D01*
X44204Y-37837D02*
X47954Y-37837D01*
X44014Y-38027D02*
X44204Y-37837D01*
G54D15*
X44734Y-38307D02*
G75*
G03X44734Y-38307I-250J0D01*
G74*
G01*
G54D16*
X52568Y-39799D02*
X51368Y-39799D01*
X51368Y-39799D02*
X51368Y-39499D01*
X51368Y-39499D02*
X52568Y-39499D01*
X52568Y-39499D02*
X52568Y-39799D01*
G54D17*
X42434Y-36362D02*
G75*
G03X42434Y-36362I-62J0D01*
G74*
G01*
X43334Y-36024D02*
X43334Y-36424D01*
X42309Y-36024D02*
X42309Y-36424D01*
X43334Y-36424D02*
X42309Y-36424D01*
X42309Y-36024D02*
X43334Y-36024D01*
G54D18*
X41614Y-39217D02*
X41336Y-39217D01*
X41336Y-39217D02*
X41336Y-39767D01*
X41336Y-39767D02*
X41614Y-39767D01*
X42286Y-39217D02*
X42008Y-39217D01*
X42286Y-39217D02*
X42286Y-39767D01*
X42286Y-39767D02*
X42008Y-39767D01*
X61731Y-33586D02*
X61731Y-33308D01*
X61731Y-33308D02*
X61181Y-33308D01*
X61181Y-33308D02*
X61181Y-33586D01*
X61731Y-34258D02*
X61731Y-33980D01*
X61731Y-34258D02*
X61181Y-34258D01*
X61181Y-34258D02*
X61181Y-33980D01*
X58025Y-46297D02*
X58025Y-46575D01*
X58025Y-46575D02*
X58575Y-46575D01*
X58575Y-46575D02*
X58575Y-46297D01*
X58025Y-45625D02*
X58025Y-45903D01*
X58025Y-45625D02*
X58575Y-45625D01*
X58575Y-45625D02*
X58575Y-45903D01*
X39153Y-41925D02*
X38875Y-41925D01*
X38875Y-41925D02*
X38875Y-42475D01*
X38875Y-42475D02*
X39153Y-42475D01*
X39825Y-41925D02*
X39547Y-41925D01*
X39825Y-41925D02*
X39825Y-42475D01*
X39825Y-42475D02*
X39547Y-42475D01*
X51456Y-40830D02*
X51734Y-40830D01*
X51734Y-40830D02*
X51734Y-40280D01*
X51734Y-40280D02*
X51456Y-40280D01*
X50784Y-40830D02*
X51062Y-40830D01*
X50784Y-40830D02*
X50784Y-40280D01*
X50784Y-40280D02*
X51062Y-40280D01*
X48032Y-37169D02*
X48032Y-37447D01*
X48032Y-37447D02*
X48582Y-37447D01*
X48582Y-37447D02*
X48582Y-37169D01*
X48032Y-36497D02*
X48032Y-36775D01*
X48032Y-36497D02*
X48582Y-36497D01*
X48582Y-36497D02*
X48582Y-36775D01*
X43306Y-42524D02*
X43028Y-42524D01*
X43028Y-42524D02*
X43028Y-43074D01*
X43028Y-43074D02*
X43306Y-43074D01*
X43978Y-42524D02*
X43700Y-42524D01*
X43978Y-42524D02*
X43978Y-43074D01*
X43978Y-43074D02*
X43700Y-43074D01*
X57716Y-41303D02*
X57438Y-41303D01*
X57438Y-41303D02*
X57438Y-41853D01*
X57438Y-41853D02*
X57716Y-41853D01*
X58388Y-41303D02*
X58110Y-41303D01*
X58388Y-41303D02*
X58388Y-41853D01*
X58388Y-41853D02*
X58110Y-41853D01*
X41614Y-38587D02*
X41336Y-38587D01*
X41336Y-38587D02*
X41336Y-39137D01*
X41336Y-39137D02*
X41614Y-39137D01*
X42286Y-38587D02*
X42008Y-38587D01*
X42286Y-38587D02*
X42286Y-39137D01*
X42286Y-39137D02*
X42008Y-39137D01*
X53857Y-39570D02*
X53857Y-39292D01*
X53857Y-39292D02*
X53307Y-39292D01*
X53307Y-39292D02*
X53307Y-39570D01*
X53857Y-40242D02*
X53857Y-39964D01*
X53857Y-40242D02*
X53307Y-40242D01*
X53307Y-40242D02*
X53307Y-39964D01*
X53227Y-39570D02*
X53227Y-39292D01*
X53227Y-39292D02*
X52677Y-39292D01*
X52677Y-39292D02*
X52677Y-39570D01*
X53227Y-40242D02*
X53227Y-39964D01*
X53227Y-40242D02*
X52677Y-40242D01*
X52677Y-40242D02*
X52677Y-39964D01*
X61220Y-41263D02*
X61498Y-41263D01*
X61498Y-41263D02*
X61498Y-40713D01*
X61498Y-40713D02*
X61220Y-40713D01*
X60548Y-41263D02*
X60826Y-41263D01*
X60548Y-41263D02*
X60548Y-40713D01*
X60548Y-40713D02*
X60826Y-40713D01*
X72505Y-34807D02*
X72505Y-35085D01*
X72505Y-35085D02*
X73055Y-35085D01*
X73055Y-35085D02*
X73055Y-34807D01*
X72505Y-34135D02*
X72505Y-34413D01*
X72505Y-34135D02*
X73055Y-34135D01*
X73055Y-34135D02*
X73055Y-34413D01*
X73175Y-34807D02*
X73175Y-35085D01*
X73175Y-35085D02*
X73725Y-35085D01*
X73725Y-35085D02*
X73725Y-34807D01*
X73175Y-34135D02*
X73175Y-34413D01*
X73175Y-34135D02*
X73725Y-34135D01*
X73725Y-34135D02*
X73725Y-34413D01*
G54D16*
X57356Y-45903D02*
X57356Y-45628D01*
X57356Y-46297D02*
X57356Y-46572D01*
X56844Y-45903D02*
X56844Y-45628D01*
X56844Y-46572D02*
X56844Y-46297D01*
X56850Y-45628D02*
X57350Y-45628D01*
X57350Y-46572D02*
X56850Y-46572D01*
X62657Y-39925D02*
X62657Y-39650D01*
X62657Y-40319D02*
X62657Y-40594D01*
X62145Y-39925D02*
X62145Y-39650D01*
X62145Y-40594D02*
X62145Y-40319D01*
X62151Y-39650D02*
X62651Y-39650D01*
X62651Y-40594D02*
X62151Y-40594D01*
X45177Y-36184D02*
X45177Y-35909D01*
X45177Y-36578D02*
X45177Y-36853D01*
X44665Y-36184D02*
X44665Y-35909D01*
X44665Y-36853D02*
X44665Y-36578D01*
X44671Y-35909D02*
X45171Y-35909D01*
X45171Y-36853D02*
X44671Y-36853D01*
X45236Y-43055D02*
X45511Y-43055D01*
X44842Y-43055D02*
X44567Y-43055D01*
X45236Y-42543D02*
X45511Y-42543D01*
X44567Y-42543D02*
X44842Y-42543D01*
X45511Y-42549D02*
X45511Y-43049D01*
X44567Y-43049D02*
X44567Y-42549D01*
X49114Y-41618D02*
X49114Y-41893D01*
X49114Y-41224D02*
X49114Y-40949D01*
X49626Y-41618D02*
X49626Y-41893D01*
X49626Y-40949D02*
X49626Y-41224D01*
X49620Y-41893D02*
X49120Y-41893D01*
X49120Y-40949D02*
X49620Y-40949D01*
X47815Y-36184D02*
X47815Y-35909D01*
X47815Y-36578D02*
X47815Y-36853D01*
X47303Y-36184D02*
X47303Y-35909D01*
X47303Y-36853D02*
X47303Y-36578D01*
X47309Y-35909D02*
X47809Y-35909D01*
X47809Y-36853D02*
X47309Y-36853D01*
X44586Y-36184D02*
X44586Y-35909D01*
X44586Y-36578D02*
X44586Y-36853D01*
X44074Y-36184D02*
X44074Y-35909D01*
X44074Y-36853D02*
X44074Y-36578D01*
X44080Y-35909D02*
X44580Y-35909D01*
X44580Y-36853D02*
X44080Y-36853D01*
X61220Y-40102D02*
X61495Y-40102D01*
X60826Y-40102D02*
X60551Y-40102D01*
X61220Y-39590D02*
X61495Y-39590D01*
X60551Y-39590D02*
X60826Y-39590D01*
X61495Y-39596D02*
X61495Y-40096D01*
X60551Y-40096D02*
X60551Y-39596D01*
X56756Y-45903D02*
X56756Y-45628D01*
X56756Y-46297D02*
X56756Y-46572D01*
X56244Y-45903D02*
X56244Y-45628D01*
X56244Y-46572D02*
X56244Y-46297D01*
X56250Y-45628D02*
X56750Y-45628D01*
X56750Y-46572D02*
X56250Y-46572D01*
X57956Y-45903D02*
X57956Y-45628D01*
X57956Y-46297D02*
X57956Y-46572D01*
X57444Y-45903D02*
X57444Y-45628D01*
X57444Y-46572D02*
X57444Y-46297D01*
X57450Y-45628D02*
X57950Y-45628D01*
X57950Y-46572D02*
X57450Y-46572D01*
X56156Y-45903D02*
X56156Y-45628D01*
X56156Y-46297D02*
X56156Y-46572D01*
X55644Y-45903D02*
X55644Y-45628D01*
X55644Y-46572D02*
X55644Y-46297D01*
X55650Y-45628D02*
X56150Y-45628D01*
X56150Y-46572D02*
X55650Y-46572D01*
X55556Y-45903D02*
X55556Y-45628D01*
X55556Y-46297D02*
X55556Y-46572D01*
X55044Y-45903D02*
X55044Y-45628D01*
X55044Y-46572D02*
X55044Y-46297D01*
X55050Y-45628D02*
X55550Y-45628D01*
X55550Y-46572D02*
X55050Y-46572D01*
X54956Y-45903D02*
X54956Y-45628D01*
X54956Y-46297D02*
X54956Y-46572D01*
X54444Y-45903D02*
X54444Y-45628D01*
X54444Y-46572D02*
X54444Y-46297D01*
X54450Y-45628D02*
X54950Y-45628D01*
X54950Y-46572D02*
X54450Y-46572D01*
X58110Y-42425D02*
X58385Y-42425D01*
X57716Y-42425D02*
X57441Y-42425D01*
X58110Y-41913D02*
X58385Y-41913D01*
X57441Y-41913D02*
X57716Y-41913D01*
X58385Y-41919D02*
X58385Y-42419D01*
X57441Y-42419D02*
X57441Y-41919D01*
X58464Y-41972D02*
X58464Y-42247D01*
X58464Y-41578D02*
X58464Y-41303D01*
X58976Y-41972D02*
X58976Y-42247D01*
X58976Y-41303D02*
X58976Y-41578D01*
X58970Y-42247D02*
X58470Y-42247D01*
X58470Y-41303D02*
X58970Y-41303D01*
X42185Y-36184D02*
X42185Y-35909D01*
X42185Y-36578D02*
X42185Y-36853D01*
X41673Y-36184D02*
X41673Y-35909D01*
X41673Y-36853D02*
X41673Y-36578D01*
X41679Y-35909D02*
X42179Y-35909D01*
X42179Y-36853D02*
X41679Y-36853D01*
X43996Y-36184D02*
X43996Y-35909D01*
X43996Y-36578D02*
X43996Y-36853D01*
X43484Y-36184D02*
X43484Y-35909D01*
X43484Y-36853D02*
X43484Y-36578D01*
X43490Y-35909D02*
X43990Y-35909D01*
X43990Y-36853D02*
X43490Y-36853D01*
X60157Y-34866D02*
X60432Y-34866D01*
X59763Y-34866D02*
X59488Y-34866D01*
X60157Y-34354D02*
X60432Y-34354D01*
X59488Y-34354D02*
X59763Y-34354D01*
X60432Y-34360D02*
X60432Y-34860D01*
X59488Y-34860D02*
X59488Y-34360D01*
X60157Y-35417D02*
X60432Y-35417D01*
X59763Y-35417D02*
X59488Y-35417D01*
X60157Y-34905D02*
X60432Y-34905D01*
X59488Y-34905D02*
X59763Y-34905D01*
X60432Y-34911D02*
X60432Y-35411D01*
X59488Y-35411D02*
X59488Y-34911D01*
X47480Y-45062D02*
X47205Y-45062D01*
X47874Y-45062D02*
X48149Y-45062D01*
X47480Y-45574D02*
X47205Y-45574D01*
X48149Y-45574D02*
X47874Y-45574D01*
X47205Y-45568D02*
X47205Y-45068D01*
X48149Y-45068D02*
X48149Y-45568D01*
X61220Y-39551D02*
X61495Y-39551D01*
X60826Y-39551D02*
X60551Y-39551D01*
X61220Y-39039D02*
X61495Y-39039D01*
X60551Y-39039D02*
X60826Y-39039D01*
X61495Y-39045D02*
X61495Y-39545D01*
X60551Y-39545D02*
X60551Y-39045D01*
X62519Y-38606D02*
X62794Y-38606D01*
X62125Y-38606D02*
X61850Y-38606D01*
X62519Y-38094D02*
X62794Y-38094D01*
X61850Y-38094D02*
X62125Y-38094D01*
X62794Y-38100D02*
X62794Y-38600D01*
X61850Y-38600D02*
X61850Y-38100D01*
X61220Y-38606D02*
X61495Y-38606D01*
X60826Y-38606D02*
X60551Y-38606D01*
X61220Y-38094D02*
X61495Y-38094D01*
X60551Y-38094D02*
X60826Y-38094D01*
X61495Y-38100D02*
X61495Y-38600D01*
X60551Y-38600D02*
X60551Y-38100D01*
X56830Y-41578D02*
X56830Y-41853D01*
X56830Y-41184D02*
X56830Y-40909D01*
X57342Y-41578D02*
X57342Y-41853D01*
X57342Y-40909D02*
X57342Y-41184D01*
X57336Y-41853D02*
X56836Y-41853D01*
X56836Y-40909D02*
X57336Y-40909D01*
X62067Y-39925D02*
X62067Y-39650D01*
X62067Y-40319D02*
X62067Y-40594D01*
X61555Y-39925D02*
X61555Y-39650D01*
X61555Y-40594D02*
X61555Y-40319D01*
X61561Y-39650D02*
X62061Y-39650D01*
X62061Y-40594D02*
X61561Y-40594D01*
X60689Y-36657D02*
X60689Y-36382D01*
X60689Y-37051D02*
X60689Y-37326D01*
X60177Y-36657D02*
X60177Y-36382D01*
X60177Y-37326D02*
X60177Y-37051D01*
X60183Y-36382D02*
X60683Y-36382D01*
X60683Y-37326D02*
X60183Y-37326D01*
X53326Y-37602D02*
X53326Y-37877D01*
X53326Y-37208D02*
X53326Y-36933D01*
X53838Y-37602D02*
X53838Y-37877D01*
X53838Y-36933D02*
X53838Y-37208D01*
X53832Y-37877D02*
X53332Y-37877D01*
X53332Y-36933D02*
X53832Y-36933D01*
X59232Y-35240D02*
X59232Y-34965D01*
X59232Y-35634D02*
X59232Y-35909D01*
X58720Y-35240D02*
X58720Y-34965D01*
X58720Y-35909D02*
X58720Y-35634D01*
X58726Y-34965D02*
X59226Y-34965D01*
X59226Y-35909D02*
X58726Y-35909D01*
X62657Y-37759D02*
X62657Y-38034D01*
X62657Y-37365D02*
X62657Y-37090D01*
X63169Y-37759D02*
X63169Y-38034D01*
X63169Y-37090D02*
X63169Y-37365D01*
X63163Y-38034D02*
X62663Y-38034D01*
X62663Y-37090D02*
X63163Y-37090D01*
X61417Y-37346D02*
X61692Y-37346D01*
X61023Y-37346D02*
X60748Y-37346D01*
X61417Y-36834D02*
X61692Y-36834D01*
X60748Y-36834D02*
X61023Y-36834D01*
X61692Y-36840D02*
X61692Y-37340D01*
X60748Y-37340D02*
X60748Y-36840D01*
X61417Y-37897D02*
X61692Y-37897D01*
X61023Y-37897D02*
X60748Y-37897D01*
X61417Y-37385D02*
X61692Y-37385D01*
X60748Y-37385D02*
X61023Y-37385D01*
X61692Y-37391D02*
X61692Y-37891D01*
X60748Y-37891D02*
X60748Y-37391D01*
X60137Y-36657D02*
X60137Y-36382D01*
X60137Y-37051D02*
X60137Y-37326D01*
X59625Y-36657D02*
X59625Y-36382D01*
X59625Y-37326D02*
X59625Y-37051D01*
X59631Y-36382D02*
X60131Y-36382D01*
X60131Y-37326D02*
X59631Y-37326D01*
X55944Y-34747D02*
X55669Y-34747D01*
X56338Y-34747D02*
X56613Y-34747D01*
X55944Y-35259D02*
X55669Y-35259D01*
X56613Y-35259D02*
X56338Y-35259D01*
X55669Y-35253D02*
X55669Y-34753D01*
X56613Y-34753D02*
X56613Y-35253D01*
X56240Y-41578D02*
X56240Y-41853D01*
X56240Y-41184D02*
X56240Y-40909D01*
X56752Y-41578D02*
X56752Y-41853D01*
X56752Y-40909D02*
X56752Y-41184D01*
X56746Y-41853D02*
X56246Y-41853D01*
X56246Y-40909D02*
X56746Y-40909D01*
X41614Y-39826D02*
X41339Y-39826D01*
X42008Y-39826D02*
X42283Y-39826D01*
X41614Y-40338D02*
X41339Y-40338D01*
X42283Y-40338D02*
X42008Y-40338D01*
X41339Y-40332D02*
X41339Y-39832D01*
X42283Y-39832D02*
X42283Y-40332D01*
X46614Y-45574D02*
X46889Y-45574D01*
X46220Y-45574D02*
X45945Y-45574D01*
X46614Y-45062D02*
X46889Y-45062D01*
X45945Y-45062D02*
X46220Y-45062D01*
X46889Y-45068D02*
X46889Y-45568D01*
X45945Y-45568D02*
X45945Y-45068D01*
G54D18*
X62572Y-37112D02*
X62572Y-38012D01*
X62572Y-38012D02*
X62072Y-38012D01*
X62072Y-38012D02*
X62072Y-37112D01*
X62072Y-37112D02*
X62572Y-37112D01*
X61473Y-40647D02*
X60573Y-40647D01*
X60573Y-40647D02*
X60573Y-40147D01*
X60573Y-40147D02*
X61473Y-40147D01*
X61473Y-40147D02*
X61473Y-40647D01*
G54D10*
X52715Y-27205D02*
X52715Y-33504D01*
X60982Y-33504D02*
X60982Y-27205D01*
X60982Y-27205D02*
X49171Y-27205D01*
X49171Y-27205D02*
X49171Y-33504D01*
X49171Y-33504D02*
X60982Y-33504D01*
X58779Y-40003D02*
X54842Y-40003D01*
X54842Y-40003D02*
X54842Y-36066D01*
X54842Y-36066D02*
X58779Y-36066D01*
X58779Y-36066D02*
X58779Y-40003D01*
X45629Y-45633D02*
X50118Y-45633D01*
X50118Y-45633D02*
X50118Y-47523D01*
X50118Y-47523D02*
X45629Y-47523D01*
X45629Y-47523D02*
X45629Y-45633D01*
X55629Y-42484D02*
X60118Y-42484D01*
X60118Y-42484D02*
X60118Y-44374D01*
X60118Y-44374D02*
X55629Y-44374D01*
X55629Y-44374D02*
X55629Y-42484D01*
X75740Y-42184D02*
X75740Y-35963D01*
X75740Y-35963D02*
X67157Y-35963D01*
X67157Y-35963D02*
X67157Y-42184D01*
X67157Y-42184D02*
X75740Y-42184D01*
X35444Y-37637D02*
X35444Y-40590D01*
X35444Y-40590D02*
X37412Y-40590D01*
X37412Y-40590D02*
X37412Y-37637D01*
X37412Y-37637D02*
X35444Y-37637D01*
G54D15*
X35979Y-44999D02*
X35979Y-41999D01*
X37979Y-41999D02*
X37979Y-44999D01*
X37979Y-44999D02*
X35979Y-44999D01*
X35979Y-41999D02*
X37979Y-41999D01*
G54D16*
X53844Y-46297D02*
X53844Y-46572D01*
X53844Y-45903D02*
X53844Y-45628D01*
X54356Y-46297D02*
X54356Y-46572D01*
X54356Y-45628D02*
X54356Y-45903D01*
X54350Y-46572D02*
X53850Y-46572D01*
X53850Y-45628D02*
X54350Y-45628D01*
G54D18*
X62204Y-41263D02*
X62482Y-41263D01*
X62482Y-41263D02*
X62482Y-40713D01*
X62482Y-40713D02*
X62204Y-40713D01*
X61532Y-41263D02*
X61810Y-41263D01*
X61532Y-41263D02*
X61532Y-40713D01*
X61532Y-40713D02*
X61810Y-40713D01*
G54D16*
X41476Y-37287D02*
X41476Y-37012D01*
X41476Y-37681D02*
X41476Y-37956D01*
X40964Y-37287D02*
X40964Y-37012D01*
X40964Y-37956D02*
X40964Y-37681D01*
X40970Y-37012D02*
X41470Y-37012D01*
X41470Y-37956D02*
X40970Y-37956D01*
G54D18*
X41361Y-38021D02*
X42261Y-38021D01*
X42261Y-38021D02*
X42261Y-38521D01*
X42261Y-38521D02*
X41361Y-38521D01*
X41361Y-38521D02*
X41361Y-38021D01*
X62519Y-35949D02*
X62241Y-35949D01*
X62241Y-35949D02*
X62241Y-36499D01*
X62241Y-36499D02*
X62519Y-36499D01*
X63191Y-35949D02*
X62913Y-35949D01*
X63191Y-35949D02*
X63191Y-36499D01*
X63191Y-36499D02*
X62913Y-36499D01*
X62519Y-35339D02*
X62241Y-35339D01*
X62241Y-35339D02*
X62241Y-35889D01*
X62241Y-35889D02*
X62519Y-35889D01*
X63191Y-35339D02*
X62913Y-35339D01*
X63191Y-35339D02*
X63191Y-35889D01*
X63191Y-35889D02*
X62913Y-35889D01*
X62008Y-42346D02*
X62008Y-42624D01*
X62008Y-42624D02*
X62558Y-42624D01*
X62558Y-42624D02*
X62558Y-42346D01*
X62008Y-41674D02*
X62008Y-41952D01*
X62008Y-41674D02*
X62558Y-41674D01*
X62558Y-41674D02*
X62558Y-41952D01*
X62618Y-42130D02*
X62618Y-42408D01*
X62618Y-42408D02*
X63168Y-42408D01*
X63168Y-42408D02*
X63168Y-42130D01*
X62618Y-41458D02*
X62618Y-41736D01*
X62618Y-41458D02*
X63168Y-41458D01*
X63168Y-41458D02*
X63168Y-41736D01*
X39153Y-41275D02*
X38875Y-41275D01*
X38875Y-41275D02*
X38875Y-41825D01*
X38875Y-41825D02*
X39153Y-41825D01*
X39825Y-41275D02*
X39547Y-41275D01*
X39825Y-41275D02*
X39825Y-41825D01*
X39825Y-41825D02*
X39547Y-41825D01*
G54D16*
X61515Y-35633D02*
X61240Y-35633D01*
X61909Y-35633D02*
X62184Y-35633D01*
X61515Y-36145D02*
X61240Y-36145D01*
X62184Y-36145D02*
X61909Y-36145D01*
X61240Y-36139D02*
X61240Y-35639D01*
X62184Y-35639D02*
X62184Y-36139D01*
X61279Y-42110D02*
X61004Y-42110D01*
X61673Y-42110D02*
X61948Y-42110D01*
X61279Y-42622D02*
X61004Y-42622D01*
X61948Y-42622D02*
X61673Y-42622D01*
X61004Y-42616D02*
X61004Y-42116D01*
X61948Y-42116D02*
X61948Y-42616D01*
G54D18*
X52450Y-46550D02*
X52450Y-45650D01*
X52450Y-45650D02*
X52950Y-45650D01*
X52950Y-45650D02*
X52950Y-46550D01*
X52950Y-46550D02*
X52450Y-46550D01*
X51850Y-46550D02*
X51850Y-45650D01*
X51850Y-45650D02*
X52350Y-45650D01*
X52350Y-45650D02*
X52350Y-46550D01*
X52350Y-46550D02*
X51850Y-46550D01*
G54D10*
X73897Y-29723D02*
G75*
G03X73897Y-29723I-1377J0D01*
G74*
G01*
X38897Y-29723D02*
G75*
G03X38897Y-29723I-1377J0D01*
G74*
G01*
X38897Y-48473D02*
G75*
G03X38897Y-48473I-1377J0D01*
G74*
G01*
X73897Y-48473D02*
G75*
G03X73897Y-48473I-1377J0D01*
G74*
G01*
G54D12*
X45744Y-38869D02*
X45744Y-39124D01*
X45759Y-39154D01*
X45774Y-39169D01*
X45804Y-39184D01*
X45864Y-39184D01*
X45894Y-39169D01*
X45909Y-39154D01*
X45924Y-39124D01*
X45924Y-38869D01*
X46059Y-38899D02*
X46074Y-38884D01*
X46104Y-38869D01*
X46179Y-38869D01*
X46209Y-38884D01*
X46224Y-38899D01*
X46239Y-38929D01*
X46239Y-38959D01*
X46224Y-39004D01*
X46044Y-39184D01*
X46239Y-39184D01*
X51918Y-39826D02*
X51888Y-39811D01*
X51858Y-39781D01*
X51813Y-39736D01*
X51783Y-39721D01*
X51753Y-39721D01*
X51768Y-39796D02*
X51738Y-39781D01*
X51708Y-39751D01*
X51693Y-39691D01*
X51693Y-39586D01*
X51708Y-39526D01*
X51738Y-39496D01*
X51768Y-39481D01*
X51828Y-39481D01*
X51858Y-39496D01*
X51888Y-39526D01*
X51903Y-39586D01*
X51903Y-39691D01*
X51888Y-39751D01*
X51858Y-39781D01*
X51828Y-39796D01*
X51768Y-39796D01*
X52203Y-39796D02*
X52023Y-39796D01*
X52113Y-39796D02*
X52113Y-39481D01*
X52083Y-39526D01*
X52053Y-39556D01*
X52023Y-39571D01*
X42594Y-36076D02*
X42594Y-36331D01*
X42609Y-36361D01*
X42624Y-36376D01*
X42654Y-36391D01*
X42714Y-36391D01*
X42744Y-36376D01*
X42759Y-36361D01*
X42774Y-36331D01*
X42774Y-36076D01*
X43089Y-36391D02*
X42909Y-36391D01*
X42999Y-36391D02*
X42999Y-36076D01*
X42969Y-36121D01*
X42939Y-36151D01*
X42909Y-36166D01*
X41783Y-39594D02*
X41678Y-39444D01*
X41603Y-39594D02*
X41603Y-39279D01*
X41723Y-39279D01*
X41753Y-39294D01*
X41768Y-39309D01*
X41783Y-39339D01*
X41783Y-39384D01*
X41768Y-39414D01*
X41753Y-39429D01*
X41723Y-39444D01*
X41603Y-39444D01*
X41903Y-39309D02*
X41918Y-39294D01*
X41948Y-39279D01*
X42023Y-39279D01*
X42053Y-39294D01*
X42068Y-39309D01*
X42083Y-39339D01*
X42083Y-39369D01*
X42068Y-39414D01*
X41888Y-39594D01*
X42083Y-39594D01*
X61609Y-34010D02*
X61459Y-34115D01*
X61609Y-34190D02*
X61294Y-34190D01*
X61294Y-34070D01*
X61309Y-34040D01*
X61324Y-34025D01*
X61354Y-34010D01*
X61399Y-34010D01*
X61429Y-34025D01*
X61444Y-34040D01*
X61459Y-34070D01*
X61459Y-34190D01*
X61609Y-33710D02*
X61609Y-33890D01*
X61609Y-33800D02*
X61294Y-33800D01*
X61339Y-33830D01*
X61369Y-33860D01*
X61384Y-33890D01*
X61324Y-33590D02*
X61309Y-33575D01*
X61294Y-33545D01*
X61294Y-33471D01*
X61309Y-33441D01*
X61324Y-33426D01*
X61354Y-33411D01*
X61384Y-33411D01*
X61429Y-33426D01*
X61609Y-33605D01*
X61609Y-33411D01*
X58402Y-46127D02*
X58252Y-46232D01*
X58402Y-46307D02*
X58087Y-46307D01*
X58087Y-46187D01*
X58102Y-46157D01*
X58117Y-46142D01*
X58147Y-46127D01*
X58192Y-46127D01*
X58222Y-46142D01*
X58237Y-46157D01*
X58252Y-46187D01*
X58252Y-46307D01*
X58087Y-45857D02*
X58087Y-45917D01*
X58102Y-45947D01*
X58117Y-45962D01*
X58162Y-45992D01*
X58222Y-46007D01*
X58342Y-46007D01*
X58372Y-45992D01*
X58387Y-45977D01*
X58402Y-45947D01*
X58402Y-45887D01*
X58387Y-45857D01*
X58372Y-45842D01*
X58342Y-45827D01*
X58267Y-45827D01*
X58237Y-45842D01*
X58222Y-45857D01*
X58207Y-45887D01*
X58207Y-45947D01*
X58222Y-45977D01*
X58237Y-45992D01*
X58267Y-46007D01*
X39322Y-42302D02*
X39217Y-42152D01*
X39142Y-42302D02*
X39142Y-41987D01*
X39262Y-41987D01*
X39292Y-42002D01*
X39307Y-42017D01*
X39322Y-42047D01*
X39322Y-42092D01*
X39307Y-42122D01*
X39292Y-42137D01*
X39262Y-42152D01*
X39142Y-42152D01*
X39427Y-41987D02*
X39637Y-41987D01*
X39502Y-42302D01*
X51182Y-40707D02*
X51077Y-40557D01*
X51002Y-40707D02*
X51002Y-40392D01*
X51122Y-40392D01*
X51152Y-40407D01*
X51167Y-40422D01*
X51182Y-40452D01*
X51182Y-40497D01*
X51167Y-40527D01*
X51152Y-40542D01*
X51122Y-40557D01*
X51002Y-40557D01*
X51467Y-40392D02*
X51317Y-40392D01*
X51302Y-40542D01*
X51317Y-40527D01*
X51347Y-40512D01*
X51422Y-40512D01*
X51452Y-40527D01*
X51467Y-40542D01*
X51482Y-40572D01*
X51482Y-40647D01*
X51467Y-40677D01*
X51452Y-40692D01*
X51422Y-40707D01*
X51347Y-40707D01*
X51317Y-40692D01*
X51302Y-40677D01*
X48409Y-36999D02*
X48259Y-37104D01*
X48409Y-37179D02*
X48094Y-37179D01*
X48094Y-37059D01*
X48109Y-37029D01*
X48124Y-37014D01*
X48154Y-36999D01*
X48199Y-36999D01*
X48229Y-37014D01*
X48244Y-37029D01*
X48259Y-37059D01*
X48259Y-37179D01*
X48199Y-36729D02*
X48409Y-36729D01*
X48079Y-36804D02*
X48304Y-36879D01*
X48304Y-36684D01*
X43476Y-42901D02*
X43371Y-42751D01*
X43296Y-42901D02*
X43296Y-42586D01*
X43416Y-42586D01*
X43446Y-42601D01*
X43461Y-42616D01*
X43476Y-42646D01*
X43476Y-42691D01*
X43461Y-42721D01*
X43446Y-42736D01*
X43416Y-42751D01*
X43296Y-42751D01*
X43581Y-42586D02*
X43776Y-42586D01*
X43671Y-42706D01*
X43716Y-42706D01*
X43746Y-42721D01*
X43761Y-42736D01*
X43776Y-42766D01*
X43776Y-42841D01*
X43761Y-42871D01*
X43746Y-42886D01*
X43716Y-42901D01*
X43626Y-42901D01*
X43596Y-42886D01*
X43581Y-42871D01*
X57885Y-41681D02*
X57780Y-41531D01*
X57705Y-41681D02*
X57705Y-41366D01*
X57825Y-41366D01*
X57855Y-41381D01*
X57870Y-41396D01*
X57885Y-41426D01*
X57885Y-41471D01*
X57870Y-41501D01*
X57855Y-41516D01*
X57825Y-41531D01*
X57705Y-41531D01*
X58065Y-41501D02*
X58035Y-41486D01*
X58020Y-41471D01*
X58005Y-41441D01*
X58005Y-41426D01*
X58020Y-41396D01*
X58035Y-41381D01*
X58065Y-41366D01*
X58125Y-41366D01*
X58155Y-41381D01*
X58170Y-41396D01*
X58185Y-41426D01*
X58185Y-41441D01*
X58170Y-41471D01*
X58155Y-41486D01*
X58125Y-41501D01*
X58065Y-41501D01*
X58035Y-41516D01*
X58020Y-41531D01*
X58005Y-41561D01*
X58005Y-41621D01*
X58020Y-41651D01*
X58035Y-41666D01*
X58065Y-41681D01*
X58125Y-41681D01*
X58155Y-41666D01*
X58170Y-41651D01*
X58185Y-41621D01*
X58185Y-41561D01*
X58170Y-41531D01*
X58155Y-41516D01*
X58125Y-41501D01*
X41783Y-38964D02*
X41678Y-38814D01*
X41603Y-38964D02*
X41603Y-38649D01*
X41723Y-38649D01*
X41753Y-38664D01*
X41768Y-38679D01*
X41783Y-38709D01*
X41783Y-38754D01*
X41768Y-38784D01*
X41753Y-38799D01*
X41723Y-38814D01*
X41603Y-38814D01*
X42083Y-38964D02*
X41903Y-38964D01*
X41993Y-38964D02*
X41993Y-38649D01*
X41963Y-38694D01*
X41933Y-38724D01*
X41903Y-38739D01*
X53735Y-39995D02*
X53585Y-40100D01*
X53735Y-40175D02*
X53420Y-40175D01*
X53420Y-40055D01*
X53435Y-40025D01*
X53450Y-40010D01*
X53480Y-39995D01*
X53525Y-39995D01*
X53555Y-40010D01*
X53570Y-40025D01*
X53585Y-40055D01*
X53585Y-40175D01*
X53735Y-39695D02*
X53735Y-39875D01*
X53735Y-39785D02*
X53420Y-39785D01*
X53465Y-39815D01*
X53495Y-39845D01*
X53510Y-39875D01*
X53420Y-39500D02*
X53420Y-39470D01*
X53435Y-39440D01*
X53450Y-39425D01*
X53480Y-39410D01*
X53540Y-39395D01*
X53615Y-39395D01*
X53675Y-39410D01*
X53705Y-39425D01*
X53720Y-39440D01*
X53735Y-39470D01*
X53735Y-39500D01*
X53720Y-39530D01*
X53705Y-39545D01*
X53675Y-39560D01*
X53615Y-39575D01*
X53540Y-39575D01*
X53480Y-39560D01*
X53450Y-39545D01*
X53435Y-39530D01*
X53420Y-39500D01*
X53105Y-39995D02*
X52955Y-40100D01*
X53105Y-40175D02*
X52790Y-40175D01*
X52790Y-40055D01*
X52805Y-40025D01*
X52820Y-40010D01*
X52850Y-39995D01*
X52895Y-39995D01*
X52925Y-40010D01*
X52940Y-40025D01*
X52955Y-40055D01*
X52955Y-40175D01*
X53105Y-39695D02*
X53105Y-39875D01*
X53105Y-39785D02*
X52790Y-39785D01*
X52835Y-39815D01*
X52865Y-39845D01*
X52880Y-39875D01*
X53105Y-39395D02*
X53105Y-39575D01*
X53105Y-39485D02*
X52790Y-39485D01*
X52835Y-39515D01*
X52865Y-39545D01*
X52880Y-39575D01*
X60946Y-41140D02*
X60841Y-40990D01*
X60766Y-41140D02*
X60766Y-40825D01*
X60886Y-40825D01*
X60916Y-40840D01*
X60931Y-40855D01*
X60946Y-40885D01*
X60946Y-40930D01*
X60931Y-40960D01*
X60916Y-40975D01*
X60886Y-40990D01*
X60766Y-40990D01*
X61096Y-41140D02*
X61156Y-41140D01*
X61186Y-41125D01*
X61201Y-41110D01*
X61231Y-41065D01*
X61246Y-41005D01*
X61246Y-40885D01*
X61231Y-40855D01*
X61216Y-40840D01*
X61186Y-40825D01*
X61126Y-40825D01*
X61096Y-40840D01*
X61081Y-40855D01*
X61066Y-40885D01*
X61066Y-40960D01*
X61081Y-40990D01*
X61096Y-41005D01*
X61126Y-41020D01*
X61186Y-41020D01*
X61216Y-41005D01*
X61231Y-40990D01*
X61246Y-40960D01*
X72883Y-34787D02*
X72733Y-34892D01*
X72883Y-34967D02*
X72568Y-34967D01*
X72568Y-34847D01*
X72583Y-34817D01*
X72598Y-34802D01*
X72628Y-34787D01*
X72673Y-34787D01*
X72703Y-34802D01*
X72718Y-34817D01*
X72733Y-34847D01*
X72733Y-34967D01*
X72883Y-34487D02*
X72883Y-34667D01*
X72883Y-34577D02*
X72568Y-34577D01*
X72613Y-34607D01*
X72643Y-34637D01*
X72658Y-34667D01*
X72673Y-34217D02*
X72883Y-34217D01*
X72553Y-34292D02*
X72778Y-34367D01*
X72778Y-34172D01*
X73552Y-34787D02*
X73402Y-34892D01*
X73552Y-34967D02*
X73237Y-34967D01*
X73237Y-34847D01*
X73252Y-34817D01*
X73267Y-34802D01*
X73297Y-34787D01*
X73342Y-34787D01*
X73372Y-34802D01*
X73387Y-34817D01*
X73402Y-34847D01*
X73402Y-34967D01*
X73552Y-34487D02*
X73552Y-34667D01*
X73552Y-34577D02*
X73237Y-34577D01*
X73282Y-34607D01*
X73312Y-34637D01*
X73327Y-34667D01*
X73237Y-34382D02*
X73237Y-34187D01*
X73357Y-34292D01*
X73357Y-34247D01*
X73372Y-34217D01*
X73387Y-34202D01*
X73417Y-34187D01*
X73492Y-34187D01*
X73522Y-34202D01*
X73537Y-34217D01*
X73552Y-34247D01*
X73552Y-34337D01*
X73537Y-34367D01*
X73522Y-34382D01*
X57197Y-46302D02*
X57212Y-46317D01*
X57227Y-46362D01*
X57227Y-46392D01*
X57212Y-46437D01*
X57182Y-46467D01*
X57152Y-46482D01*
X57092Y-46497D01*
X57047Y-46497D01*
X56987Y-46482D01*
X56957Y-46467D01*
X56927Y-46437D01*
X56912Y-46392D01*
X56912Y-46362D01*
X56927Y-46317D01*
X56942Y-46302D01*
X57227Y-46002D02*
X57227Y-46182D01*
X57227Y-46092D02*
X56912Y-46092D01*
X56957Y-46122D01*
X56987Y-46152D01*
X57002Y-46182D01*
X56912Y-45897D02*
X56912Y-45702D01*
X57032Y-45807D01*
X57032Y-45762D01*
X57047Y-45732D01*
X57062Y-45717D01*
X57092Y-45702D01*
X57167Y-45702D01*
X57197Y-45717D01*
X57212Y-45732D01*
X57227Y-45762D01*
X57227Y-45852D01*
X57212Y-45882D01*
X57197Y-45897D01*
X62499Y-40324D02*
X62514Y-40339D01*
X62529Y-40384D01*
X62529Y-40414D01*
X62514Y-40459D01*
X62484Y-40489D01*
X62454Y-40504D01*
X62394Y-40519D01*
X62349Y-40519D01*
X62289Y-40504D01*
X62259Y-40489D01*
X62229Y-40459D01*
X62214Y-40414D01*
X62214Y-40384D01*
X62229Y-40339D01*
X62244Y-40324D01*
X62214Y-40219D02*
X62214Y-40024D01*
X62334Y-40129D01*
X62334Y-40084D01*
X62349Y-40054D01*
X62364Y-40039D01*
X62394Y-40024D01*
X62469Y-40024D01*
X62499Y-40039D01*
X62514Y-40054D01*
X62529Y-40084D01*
X62529Y-40174D01*
X62514Y-40204D01*
X62499Y-40219D01*
X62214Y-39829D02*
X62214Y-39799D01*
X62229Y-39769D01*
X62244Y-39754D01*
X62274Y-39739D01*
X62334Y-39724D01*
X62409Y-39724D01*
X62469Y-39739D01*
X62499Y-39754D01*
X62514Y-39769D01*
X62529Y-39799D01*
X62529Y-39829D01*
X62514Y-39859D01*
X62499Y-39874D01*
X62469Y-39889D01*
X62409Y-39904D01*
X62334Y-39904D01*
X62274Y-39889D01*
X62244Y-39874D01*
X62229Y-39859D01*
X62214Y-39829D01*
X45018Y-36434D02*
X45033Y-36449D01*
X45048Y-36494D01*
X45048Y-36524D01*
X45033Y-36569D01*
X45003Y-36599D01*
X44973Y-36614D01*
X44913Y-36629D01*
X44868Y-36629D01*
X44808Y-36614D01*
X44778Y-36599D01*
X44748Y-36569D01*
X44733Y-36524D01*
X44733Y-36494D01*
X44748Y-36449D01*
X44763Y-36434D01*
X44868Y-36254D02*
X44853Y-36284D01*
X44838Y-36299D01*
X44808Y-36314D01*
X44793Y-36314D01*
X44763Y-36299D01*
X44748Y-36284D01*
X44733Y-36254D01*
X44733Y-36194D01*
X44748Y-36164D01*
X44763Y-36149D01*
X44793Y-36134D01*
X44808Y-36134D01*
X44838Y-36149D01*
X44853Y-36164D01*
X44868Y-36194D01*
X44868Y-36254D01*
X44883Y-36284D01*
X44898Y-36299D01*
X44928Y-36314D01*
X44988Y-36314D01*
X45018Y-36299D01*
X45033Y-36284D01*
X45048Y-36254D01*
X45048Y-36194D01*
X45033Y-36164D01*
X45018Y-36149D01*
X44988Y-36134D01*
X44928Y-36134D01*
X44898Y-36149D01*
X44883Y-36164D01*
X44868Y-36194D01*
X44986Y-42896D02*
X44971Y-42911D01*
X44926Y-42926D01*
X44896Y-42926D01*
X44851Y-42911D01*
X44821Y-42881D01*
X44806Y-42851D01*
X44791Y-42791D01*
X44791Y-42746D01*
X44806Y-42686D01*
X44821Y-42656D01*
X44851Y-42626D01*
X44896Y-42611D01*
X44926Y-42611D01*
X44971Y-42626D01*
X44986Y-42641D01*
X45091Y-42611D02*
X45286Y-42611D01*
X45181Y-42731D01*
X45226Y-42731D01*
X45256Y-42746D01*
X45271Y-42761D01*
X45286Y-42791D01*
X45286Y-42866D01*
X45271Y-42896D01*
X45256Y-42911D01*
X45226Y-42926D01*
X45136Y-42926D01*
X45106Y-42911D01*
X45091Y-42896D01*
X49467Y-41473D02*
X49482Y-41488D01*
X49497Y-41533D01*
X49497Y-41563D01*
X49482Y-41608D01*
X49452Y-41638D01*
X49422Y-41653D01*
X49362Y-41668D01*
X49317Y-41668D01*
X49257Y-41653D01*
X49227Y-41638D01*
X49197Y-41608D01*
X49182Y-41563D01*
X49182Y-41533D01*
X49197Y-41488D01*
X49212Y-41473D01*
X49287Y-41203D02*
X49497Y-41203D01*
X49167Y-41278D02*
X49392Y-41353D01*
X49392Y-41158D01*
X47656Y-36434D02*
X47671Y-36449D01*
X47686Y-36494D01*
X47686Y-36524D01*
X47671Y-36569D01*
X47641Y-36599D01*
X47611Y-36614D01*
X47551Y-36629D01*
X47506Y-36629D01*
X47446Y-36614D01*
X47416Y-36599D01*
X47386Y-36569D01*
X47371Y-36524D01*
X47371Y-36494D01*
X47386Y-36449D01*
X47401Y-36434D01*
X47371Y-36149D02*
X47371Y-36299D01*
X47521Y-36314D01*
X47506Y-36299D01*
X47491Y-36269D01*
X47491Y-36194D01*
X47506Y-36164D01*
X47521Y-36149D01*
X47551Y-36134D01*
X47626Y-36134D01*
X47656Y-36149D01*
X47671Y-36164D01*
X47686Y-36194D01*
X47686Y-36269D01*
X47671Y-36299D01*
X47656Y-36314D01*
X44428Y-36434D02*
X44443Y-36449D01*
X44458Y-36494D01*
X44458Y-36524D01*
X44443Y-36569D01*
X44413Y-36599D01*
X44383Y-36614D01*
X44323Y-36629D01*
X44278Y-36629D01*
X44218Y-36614D01*
X44188Y-36599D01*
X44158Y-36569D01*
X44143Y-36524D01*
X44143Y-36494D01*
X44158Y-36449D01*
X44173Y-36434D01*
X44143Y-36164D02*
X44143Y-36224D01*
X44158Y-36254D01*
X44173Y-36269D01*
X44218Y-36299D01*
X44278Y-36314D01*
X44398Y-36314D01*
X44428Y-36299D01*
X44443Y-36284D01*
X44458Y-36254D01*
X44458Y-36194D01*
X44443Y-36164D01*
X44428Y-36149D01*
X44398Y-36134D01*
X44323Y-36134D01*
X44293Y-36149D01*
X44278Y-36164D01*
X44263Y-36194D01*
X44263Y-36254D01*
X44278Y-36284D01*
X44293Y-36299D01*
X44323Y-36314D01*
X60821Y-39943D02*
X60806Y-39958D01*
X60761Y-39973D01*
X60731Y-39973D01*
X60686Y-39958D01*
X60656Y-39928D01*
X60641Y-39898D01*
X60626Y-39838D01*
X60626Y-39793D01*
X60641Y-39733D01*
X60656Y-39703D01*
X60686Y-39673D01*
X60731Y-39658D01*
X60761Y-39658D01*
X60806Y-39673D01*
X60821Y-39688D01*
X61121Y-39973D02*
X60941Y-39973D01*
X61031Y-39973D02*
X61031Y-39658D01*
X61001Y-39703D01*
X60971Y-39733D01*
X60941Y-39748D01*
X61421Y-39973D02*
X61241Y-39973D01*
X61331Y-39973D02*
X61331Y-39658D01*
X61301Y-39703D01*
X61271Y-39733D01*
X61241Y-39748D01*
X56597Y-46302D02*
X56612Y-46317D01*
X56627Y-46362D01*
X56627Y-46392D01*
X56612Y-46437D01*
X56582Y-46467D01*
X56552Y-46482D01*
X56492Y-46497D01*
X56447Y-46497D01*
X56387Y-46482D01*
X56357Y-46467D01*
X56327Y-46437D01*
X56312Y-46392D01*
X56312Y-46362D01*
X56327Y-46317D01*
X56342Y-46302D01*
X56627Y-46002D02*
X56627Y-46182D01*
X56627Y-46092D02*
X56312Y-46092D01*
X56357Y-46122D01*
X56387Y-46152D01*
X56402Y-46182D01*
X56417Y-45732D02*
X56627Y-45732D01*
X56297Y-45807D02*
X56522Y-45882D01*
X56522Y-45687D01*
X57797Y-46302D02*
X57812Y-46317D01*
X57827Y-46362D01*
X57827Y-46392D01*
X57812Y-46437D01*
X57782Y-46467D01*
X57752Y-46482D01*
X57692Y-46497D01*
X57647Y-46497D01*
X57587Y-46482D01*
X57557Y-46467D01*
X57527Y-46437D01*
X57512Y-46392D01*
X57512Y-46362D01*
X57527Y-46317D01*
X57542Y-46302D01*
X57827Y-46002D02*
X57827Y-46182D01*
X57827Y-46092D02*
X57512Y-46092D01*
X57557Y-46122D01*
X57587Y-46152D01*
X57602Y-46182D01*
X57512Y-45717D02*
X57512Y-45867D01*
X57662Y-45882D01*
X57647Y-45867D01*
X57632Y-45837D01*
X57632Y-45762D01*
X57647Y-45732D01*
X57662Y-45717D01*
X57692Y-45702D01*
X57767Y-45702D01*
X57797Y-45717D01*
X57812Y-45732D01*
X57827Y-45762D01*
X57827Y-45837D01*
X57812Y-45867D01*
X57797Y-45882D01*
X55997Y-46302D02*
X56012Y-46317D01*
X56027Y-46362D01*
X56027Y-46392D01*
X56012Y-46437D01*
X55982Y-46467D01*
X55952Y-46482D01*
X55892Y-46497D01*
X55847Y-46497D01*
X55787Y-46482D01*
X55757Y-46467D01*
X55727Y-46437D01*
X55712Y-46392D01*
X55712Y-46362D01*
X55727Y-46317D01*
X55742Y-46302D01*
X56027Y-46002D02*
X56027Y-46182D01*
X56027Y-46092D02*
X55712Y-46092D01*
X55757Y-46122D01*
X55787Y-46152D01*
X55802Y-46182D01*
X55712Y-45732D02*
X55712Y-45792D01*
X55727Y-45822D01*
X55742Y-45837D01*
X55787Y-45867D01*
X55847Y-45882D01*
X55967Y-45882D01*
X55997Y-45867D01*
X56012Y-45852D01*
X56027Y-45822D01*
X56027Y-45762D01*
X56012Y-45732D01*
X55997Y-45717D01*
X55967Y-45702D01*
X55892Y-45702D01*
X55862Y-45717D01*
X55847Y-45732D01*
X55832Y-45762D01*
X55832Y-45822D01*
X55847Y-45852D01*
X55862Y-45867D01*
X55892Y-45882D01*
X55397Y-46302D02*
X55412Y-46317D01*
X55427Y-46362D01*
X55427Y-46392D01*
X55412Y-46437D01*
X55382Y-46467D01*
X55352Y-46482D01*
X55292Y-46497D01*
X55247Y-46497D01*
X55187Y-46482D01*
X55157Y-46467D01*
X55127Y-46437D01*
X55112Y-46392D01*
X55112Y-46362D01*
X55127Y-46317D01*
X55142Y-46302D01*
X55427Y-46002D02*
X55427Y-46182D01*
X55427Y-46092D02*
X55112Y-46092D01*
X55157Y-46122D01*
X55187Y-46152D01*
X55202Y-46182D01*
X55112Y-45897D02*
X55112Y-45687D01*
X55427Y-45822D01*
X54797Y-46302D02*
X54812Y-46317D01*
X54827Y-46362D01*
X54827Y-46392D01*
X54812Y-46437D01*
X54782Y-46467D01*
X54752Y-46482D01*
X54692Y-46497D01*
X54647Y-46497D01*
X54587Y-46482D01*
X54557Y-46467D01*
X54527Y-46437D01*
X54512Y-46392D01*
X54512Y-46362D01*
X54527Y-46317D01*
X54542Y-46302D01*
X54827Y-46002D02*
X54827Y-46182D01*
X54827Y-46092D02*
X54512Y-46092D01*
X54557Y-46122D01*
X54587Y-46152D01*
X54602Y-46182D01*
X54647Y-45822D02*
X54632Y-45852D01*
X54617Y-45867D01*
X54587Y-45882D01*
X54572Y-45882D01*
X54542Y-45867D01*
X54527Y-45852D01*
X54512Y-45822D01*
X54512Y-45762D01*
X54527Y-45732D01*
X54542Y-45717D01*
X54572Y-45702D01*
X54587Y-45702D01*
X54617Y-45717D01*
X54632Y-45732D01*
X54647Y-45762D01*
X54647Y-45822D01*
X54662Y-45852D01*
X54677Y-45867D01*
X54707Y-45882D01*
X54767Y-45882D01*
X54797Y-45867D01*
X54812Y-45852D01*
X54827Y-45822D01*
X54827Y-45762D01*
X54812Y-45732D01*
X54797Y-45717D01*
X54767Y-45702D01*
X54707Y-45702D01*
X54677Y-45717D01*
X54662Y-45732D01*
X54647Y-45762D01*
X57710Y-42266D02*
X57695Y-42281D01*
X57650Y-42296D01*
X57620Y-42296D01*
X57575Y-42281D01*
X57545Y-42251D01*
X57530Y-42221D01*
X57515Y-42161D01*
X57515Y-42116D01*
X57530Y-42056D01*
X57545Y-42026D01*
X57575Y-41996D01*
X57620Y-41981D01*
X57650Y-41981D01*
X57695Y-41996D01*
X57710Y-42011D01*
X57830Y-42011D02*
X57845Y-41996D01*
X57875Y-41981D01*
X57950Y-41981D01*
X57980Y-41996D01*
X57995Y-42011D01*
X58010Y-42041D01*
X58010Y-42071D01*
X57995Y-42116D01*
X57815Y-42296D01*
X58010Y-42296D01*
X58115Y-41981D02*
X58325Y-41981D01*
X58190Y-42296D01*
X58817Y-41978D02*
X58832Y-41993D01*
X58847Y-42038D01*
X58847Y-42068D01*
X58832Y-42113D01*
X58802Y-42143D01*
X58772Y-42158D01*
X58712Y-42173D01*
X58667Y-42173D01*
X58607Y-42158D01*
X58577Y-42143D01*
X58547Y-42113D01*
X58532Y-42068D01*
X58532Y-42038D01*
X58547Y-41993D01*
X58562Y-41978D01*
X58562Y-41858D02*
X58547Y-41843D01*
X58532Y-41813D01*
X58532Y-41738D01*
X58547Y-41708D01*
X58562Y-41693D01*
X58592Y-41678D01*
X58622Y-41678D01*
X58667Y-41693D01*
X58847Y-41873D01*
X58847Y-41678D01*
X58532Y-41408D02*
X58532Y-41468D01*
X58547Y-41498D01*
X58562Y-41513D01*
X58607Y-41543D01*
X58667Y-41558D01*
X58787Y-41558D01*
X58817Y-41543D01*
X58832Y-41528D01*
X58847Y-41498D01*
X58847Y-41438D01*
X58832Y-41408D01*
X58817Y-41393D01*
X58787Y-41378D01*
X58712Y-41378D01*
X58682Y-41393D01*
X58667Y-41408D01*
X58652Y-41438D01*
X58652Y-41498D01*
X58667Y-41528D01*
X58682Y-41543D01*
X58712Y-41558D01*
X42026Y-36434D02*
X42041Y-36449D01*
X42056Y-36494D01*
X42056Y-36524D01*
X42041Y-36569D01*
X42011Y-36599D01*
X41981Y-36614D01*
X41921Y-36629D01*
X41876Y-36629D01*
X41816Y-36614D01*
X41786Y-36599D01*
X41756Y-36569D01*
X41741Y-36524D01*
X41741Y-36494D01*
X41756Y-36449D01*
X41771Y-36434D01*
X42056Y-36134D02*
X42056Y-36314D01*
X42056Y-36224D02*
X41741Y-36224D01*
X41786Y-36254D01*
X41816Y-36284D01*
X41831Y-36314D01*
X43837Y-36434D02*
X43852Y-36449D01*
X43867Y-36494D01*
X43867Y-36524D01*
X43852Y-36569D01*
X43822Y-36599D01*
X43792Y-36614D01*
X43732Y-36629D01*
X43687Y-36629D01*
X43627Y-36614D01*
X43597Y-36599D01*
X43567Y-36569D01*
X43552Y-36524D01*
X43552Y-36494D01*
X43567Y-36449D01*
X43582Y-36434D01*
X43582Y-36314D02*
X43567Y-36299D01*
X43552Y-36269D01*
X43552Y-36194D01*
X43567Y-36164D01*
X43582Y-36149D01*
X43612Y-36134D01*
X43642Y-36134D01*
X43687Y-36149D01*
X43867Y-36329D01*
X43867Y-36134D01*
X59758Y-34707D02*
X59743Y-34722D01*
X59698Y-34737D01*
X59668Y-34737D01*
X59623Y-34722D01*
X59593Y-34692D01*
X59578Y-34662D01*
X59563Y-34602D01*
X59563Y-34557D01*
X59578Y-34497D01*
X59593Y-34467D01*
X59623Y-34437D01*
X59668Y-34422D01*
X59698Y-34422D01*
X59743Y-34437D01*
X59758Y-34452D01*
X59863Y-34422D02*
X60058Y-34422D01*
X59953Y-34542D01*
X59998Y-34542D01*
X60028Y-34557D01*
X60043Y-34572D01*
X60058Y-34602D01*
X60058Y-34677D01*
X60043Y-34707D01*
X60028Y-34722D01*
X59998Y-34737D01*
X59908Y-34737D01*
X59878Y-34722D01*
X59863Y-34707D01*
X60163Y-34422D02*
X60358Y-34422D01*
X60253Y-34542D01*
X60298Y-34542D01*
X60328Y-34557D01*
X60343Y-34572D01*
X60358Y-34602D01*
X60358Y-34677D01*
X60343Y-34707D01*
X60328Y-34722D01*
X60298Y-34737D01*
X60208Y-34737D01*
X60178Y-34722D01*
X60163Y-34707D01*
X59758Y-35258D02*
X59743Y-35273D01*
X59698Y-35288D01*
X59668Y-35288D01*
X59623Y-35273D01*
X59593Y-35243D01*
X59578Y-35213D01*
X59563Y-35153D01*
X59563Y-35108D01*
X59578Y-35048D01*
X59593Y-35018D01*
X59623Y-34988D01*
X59668Y-34973D01*
X59698Y-34973D01*
X59743Y-34988D01*
X59758Y-35003D01*
X59863Y-34973D02*
X60058Y-34973D01*
X59953Y-35093D01*
X59998Y-35093D01*
X60028Y-35108D01*
X60043Y-35123D01*
X60058Y-35153D01*
X60058Y-35228D01*
X60043Y-35258D01*
X60028Y-35273D01*
X59998Y-35288D01*
X59908Y-35288D01*
X59878Y-35273D01*
X59863Y-35258D01*
X60328Y-34973D02*
X60268Y-34973D01*
X60238Y-34988D01*
X60223Y-35003D01*
X60193Y-35048D01*
X60178Y-35108D01*
X60178Y-35228D01*
X60193Y-35258D01*
X60208Y-35273D01*
X60238Y-35288D01*
X60298Y-35288D01*
X60328Y-35273D01*
X60343Y-35258D01*
X60358Y-35228D01*
X60358Y-35153D01*
X60343Y-35123D01*
X60328Y-35108D01*
X60298Y-35093D01*
X60238Y-35093D01*
X60208Y-35108D01*
X60193Y-35123D01*
X60178Y-35153D01*
X47474Y-45416D02*
X47459Y-45431D01*
X47414Y-45446D01*
X47384Y-45446D01*
X47339Y-45431D01*
X47309Y-45401D01*
X47294Y-45371D01*
X47279Y-45311D01*
X47279Y-45266D01*
X47294Y-45206D01*
X47309Y-45176D01*
X47339Y-45146D01*
X47384Y-45131D01*
X47414Y-45131D01*
X47459Y-45146D01*
X47474Y-45161D01*
X47774Y-45446D02*
X47594Y-45446D01*
X47684Y-45446D02*
X47684Y-45131D01*
X47654Y-45176D01*
X47624Y-45206D01*
X47594Y-45221D01*
X47969Y-45131D02*
X47999Y-45131D01*
X48029Y-45146D01*
X48044Y-45161D01*
X48059Y-45191D01*
X48074Y-45251D01*
X48074Y-45326D01*
X48059Y-45386D01*
X48044Y-45416D01*
X48029Y-45431D01*
X47999Y-45446D01*
X47969Y-45446D01*
X47939Y-45431D01*
X47924Y-45416D01*
X47909Y-45386D01*
X47894Y-45326D01*
X47894Y-45251D01*
X47909Y-45191D01*
X47924Y-45161D01*
X47939Y-45146D01*
X47969Y-45131D01*
X60821Y-39392D02*
X60806Y-39407D01*
X60761Y-39422D01*
X60731Y-39422D01*
X60686Y-39407D01*
X60656Y-39377D01*
X60641Y-39347D01*
X60626Y-39287D01*
X60626Y-39242D01*
X60641Y-39182D01*
X60656Y-39152D01*
X60686Y-39122D01*
X60731Y-39107D01*
X60761Y-39107D01*
X60806Y-39122D01*
X60821Y-39137D01*
X61121Y-39422D02*
X60941Y-39422D01*
X61031Y-39422D02*
X61031Y-39107D01*
X61001Y-39152D01*
X60971Y-39182D01*
X60941Y-39197D01*
X61241Y-39137D02*
X61256Y-39122D01*
X61286Y-39107D01*
X61361Y-39107D01*
X61391Y-39122D01*
X61406Y-39137D01*
X61421Y-39167D01*
X61421Y-39197D01*
X61406Y-39242D01*
X61226Y-39422D01*
X61421Y-39422D01*
X62120Y-38447D02*
X62105Y-38462D01*
X62060Y-38477D01*
X62030Y-38477D01*
X61985Y-38462D01*
X61955Y-38432D01*
X61940Y-38402D01*
X61925Y-38342D01*
X61925Y-38297D01*
X61940Y-38237D01*
X61955Y-38207D01*
X61985Y-38177D01*
X62030Y-38162D01*
X62060Y-38162D01*
X62105Y-38177D01*
X62120Y-38192D01*
X62240Y-38192D02*
X62255Y-38177D01*
X62285Y-38162D01*
X62360Y-38162D01*
X62390Y-38177D01*
X62405Y-38192D01*
X62420Y-38222D01*
X62420Y-38252D01*
X62405Y-38297D01*
X62225Y-38477D01*
X62420Y-38477D01*
X62720Y-38477D02*
X62540Y-38477D01*
X62630Y-38477D02*
X62630Y-38162D01*
X62600Y-38207D01*
X62570Y-38237D01*
X62540Y-38252D01*
X60821Y-38447D02*
X60806Y-38462D01*
X60761Y-38477D01*
X60731Y-38477D01*
X60686Y-38462D01*
X60656Y-38432D01*
X60641Y-38402D01*
X60626Y-38342D01*
X60626Y-38297D01*
X60641Y-38237D01*
X60656Y-38207D01*
X60686Y-38177D01*
X60731Y-38162D01*
X60761Y-38162D01*
X60806Y-38177D01*
X60821Y-38192D01*
X60941Y-38192D02*
X60956Y-38177D01*
X60986Y-38162D01*
X61061Y-38162D01*
X61091Y-38177D01*
X61106Y-38192D01*
X61121Y-38222D01*
X61121Y-38252D01*
X61106Y-38297D01*
X60926Y-38477D01*
X61121Y-38477D01*
X61241Y-38192D02*
X61256Y-38177D01*
X61286Y-38162D01*
X61361Y-38162D01*
X61391Y-38177D01*
X61406Y-38192D01*
X61421Y-38222D01*
X61421Y-38252D01*
X61406Y-38297D01*
X61226Y-38477D01*
X61421Y-38477D01*
X57184Y-41584D02*
X57199Y-41599D01*
X57214Y-41644D01*
X57214Y-41674D01*
X57199Y-41719D01*
X57169Y-41749D01*
X57139Y-41764D01*
X57079Y-41779D01*
X57034Y-41779D01*
X56974Y-41764D01*
X56944Y-41749D01*
X56914Y-41719D01*
X56899Y-41674D01*
X56899Y-41644D01*
X56914Y-41599D01*
X56929Y-41584D01*
X56929Y-41464D02*
X56914Y-41449D01*
X56899Y-41419D01*
X56899Y-41344D01*
X56914Y-41314D01*
X56929Y-41299D01*
X56959Y-41284D01*
X56989Y-41284D01*
X57034Y-41299D01*
X57214Y-41479D01*
X57214Y-41284D01*
X56899Y-41179D02*
X56899Y-40984D01*
X57019Y-41089D01*
X57019Y-41044D01*
X57034Y-41014D01*
X57049Y-40999D01*
X57079Y-40984D01*
X57154Y-40984D01*
X57184Y-40999D01*
X57199Y-41014D01*
X57214Y-41044D01*
X57214Y-41134D01*
X57199Y-41164D01*
X57184Y-41179D01*
X61908Y-40324D02*
X61923Y-40339D01*
X61938Y-40384D01*
X61938Y-40414D01*
X61923Y-40459D01*
X61893Y-40489D01*
X61863Y-40504D01*
X61803Y-40519D01*
X61758Y-40519D01*
X61698Y-40504D01*
X61668Y-40489D01*
X61638Y-40459D01*
X61623Y-40414D01*
X61623Y-40384D01*
X61638Y-40339D01*
X61653Y-40324D01*
X61653Y-40204D02*
X61638Y-40189D01*
X61623Y-40159D01*
X61623Y-40084D01*
X61638Y-40054D01*
X61653Y-40039D01*
X61683Y-40024D01*
X61713Y-40024D01*
X61758Y-40039D01*
X61938Y-40219D01*
X61938Y-40024D01*
X61728Y-39754D02*
X61938Y-39754D01*
X61608Y-39829D02*
X61833Y-39904D01*
X61833Y-39709D01*
X60530Y-37056D02*
X60545Y-37071D01*
X60560Y-37116D01*
X60560Y-37146D01*
X60545Y-37191D01*
X60515Y-37221D01*
X60485Y-37236D01*
X60425Y-37251D01*
X60380Y-37251D01*
X60320Y-37236D01*
X60290Y-37221D01*
X60260Y-37191D01*
X60245Y-37146D01*
X60245Y-37116D01*
X60260Y-37071D01*
X60275Y-37056D01*
X60275Y-36936D02*
X60260Y-36921D01*
X60245Y-36891D01*
X60245Y-36816D01*
X60260Y-36786D01*
X60275Y-36771D01*
X60305Y-36756D01*
X60335Y-36756D01*
X60380Y-36771D01*
X60560Y-36951D01*
X60560Y-36756D01*
X60245Y-36471D02*
X60245Y-36621D01*
X60395Y-36636D01*
X60380Y-36621D01*
X60365Y-36591D01*
X60365Y-36516D01*
X60380Y-36486D01*
X60395Y-36471D01*
X60425Y-36456D01*
X60500Y-36456D01*
X60530Y-36471D01*
X60545Y-36486D01*
X60560Y-36516D01*
X60560Y-36591D01*
X60545Y-36621D01*
X60530Y-36636D01*
X53680Y-37607D02*
X53695Y-37622D01*
X53710Y-37667D01*
X53710Y-37697D01*
X53695Y-37742D01*
X53665Y-37772D01*
X53635Y-37787D01*
X53575Y-37802D01*
X53530Y-37802D01*
X53470Y-37787D01*
X53440Y-37772D01*
X53410Y-37742D01*
X53395Y-37697D01*
X53395Y-37667D01*
X53410Y-37622D01*
X53425Y-37607D01*
X53425Y-37488D02*
X53410Y-37473D01*
X53395Y-37443D01*
X53395Y-37368D01*
X53410Y-37338D01*
X53425Y-37323D01*
X53455Y-37308D01*
X53485Y-37308D01*
X53530Y-37323D01*
X53710Y-37502D01*
X53710Y-37308D01*
X53530Y-37128D02*
X53515Y-37158D01*
X53500Y-37173D01*
X53470Y-37188D01*
X53455Y-37188D01*
X53425Y-37173D01*
X53410Y-37158D01*
X53395Y-37128D01*
X53395Y-37068D01*
X53410Y-37038D01*
X53425Y-37023D01*
X53455Y-37008D01*
X53470Y-37008D01*
X53500Y-37023D01*
X53515Y-37038D01*
X53530Y-37068D01*
X53530Y-37128D01*
X53545Y-37158D01*
X53560Y-37173D01*
X53590Y-37188D01*
X53650Y-37188D01*
X53680Y-37173D01*
X53695Y-37158D01*
X53710Y-37128D01*
X53710Y-37068D01*
X53695Y-37038D01*
X53680Y-37023D01*
X53650Y-37008D01*
X53590Y-37008D01*
X53560Y-37023D01*
X53545Y-37038D01*
X53530Y-37068D01*
X59073Y-35639D02*
X59088Y-35654D01*
X59103Y-35699D01*
X59103Y-35729D01*
X59088Y-35774D01*
X59058Y-35804D01*
X59028Y-35819D01*
X58968Y-35834D01*
X58923Y-35834D01*
X58863Y-35819D01*
X58833Y-35804D01*
X58803Y-35774D01*
X58788Y-35729D01*
X58788Y-35699D01*
X58803Y-35654D01*
X58818Y-35639D01*
X58818Y-35519D02*
X58803Y-35504D01*
X58788Y-35474D01*
X58788Y-35399D01*
X58803Y-35369D01*
X58818Y-35354D01*
X58848Y-35339D01*
X58878Y-35339D01*
X58923Y-35354D01*
X59103Y-35534D01*
X59103Y-35339D01*
X59103Y-35189D02*
X59103Y-35129D01*
X59088Y-35099D01*
X59073Y-35084D01*
X59028Y-35054D01*
X58968Y-35039D01*
X58848Y-35039D01*
X58818Y-35054D01*
X58803Y-35069D01*
X58788Y-35099D01*
X58788Y-35159D01*
X58803Y-35189D01*
X58818Y-35204D01*
X58848Y-35219D01*
X58923Y-35219D01*
X58953Y-35204D01*
X58968Y-35189D01*
X58983Y-35159D01*
X58983Y-35099D01*
X58968Y-35069D01*
X58953Y-35054D01*
X58923Y-35039D01*
X63010Y-37765D02*
X63025Y-37780D01*
X63040Y-37825D01*
X63040Y-37855D01*
X63025Y-37900D01*
X62995Y-37930D01*
X62965Y-37945D01*
X62905Y-37960D01*
X62860Y-37960D01*
X62800Y-37945D01*
X62770Y-37930D01*
X62740Y-37900D01*
X62725Y-37855D01*
X62725Y-37825D01*
X62740Y-37780D01*
X62755Y-37765D01*
X62725Y-37660D02*
X62725Y-37465D01*
X62845Y-37570D01*
X62845Y-37525D01*
X62860Y-37495D01*
X62875Y-37480D01*
X62905Y-37465D01*
X62980Y-37465D01*
X63010Y-37480D01*
X63025Y-37495D01*
X63040Y-37525D01*
X63040Y-37615D01*
X63025Y-37645D01*
X63010Y-37660D01*
X63040Y-37165D02*
X63040Y-37345D01*
X63040Y-37255D02*
X62725Y-37255D01*
X62770Y-37285D01*
X62800Y-37315D01*
X62815Y-37345D01*
X61017Y-37188D02*
X61002Y-37203D01*
X60958Y-37218D01*
X60928Y-37218D01*
X60883Y-37203D01*
X60853Y-37173D01*
X60838Y-37143D01*
X60823Y-37083D01*
X60823Y-37038D01*
X60838Y-36978D01*
X60853Y-36948D01*
X60883Y-36918D01*
X60928Y-36903D01*
X60958Y-36903D01*
X61002Y-36918D01*
X61017Y-36933D01*
X61122Y-36903D02*
X61317Y-36903D01*
X61212Y-37023D01*
X61257Y-37023D01*
X61287Y-37038D01*
X61302Y-37053D01*
X61317Y-37083D01*
X61317Y-37158D01*
X61302Y-37188D01*
X61287Y-37203D01*
X61257Y-37218D01*
X61167Y-37218D01*
X61137Y-37203D01*
X61122Y-37188D01*
X61437Y-36933D02*
X61452Y-36918D01*
X61482Y-36903D01*
X61557Y-36903D01*
X61587Y-36918D01*
X61602Y-36933D01*
X61617Y-36963D01*
X61617Y-36993D01*
X61602Y-37038D01*
X61422Y-37218D01*
X61617Y-37218D01*
X61017Y-37739D02*
X61002Y-37754D01*
X60958Y-37769D01*
X60928Y-37769D01*
X60883Y-37754D01*
X60853Y-37724D01*
X60838Y-37694D01*
X60823Y-37634D01*
X60823Y-37589D01*
X60838Y-37529D01*
X60853Y-37499D01*
X60883Y-37469D01*
X60928Y-37454D01*
X60958Y-37454D01*
X61002Y-37469D01*
X61017Y-37484D01*
X61122Y-37454D02*
X61317Y-37454D01*
X61212Y-37574D01*
X61257Y-37574D01*
X61287Y-37589D01*
X61302Y-37604D01*
X61317Y-37634D01*
X61317Y-37709D01*
X61302Y-37739D01*
X61287Y-37754D01*
X61257Y-37769D01*
X61167Y-37769D01*
X61137Y-37754D01*
X61122Y-37739D01*
X61587Y-37559D02*
X61587Y-37769D01*
X61512Y-37439D02*
X61437Y-37664D01*
X61632Y-37664D01*
X59979Y-37056D02*
X59994Y-37071D01*
X60009Y-37116D01*
X60009Y-37146D01*
X59994Y-37191D01*
X59964Y-37221D01*
X59934Y-37236D01*
X59874Y-37251D01*
X59829Y-37251D01*
X59769Y-37236D01*
X59739Y-37221D01*
X59709Y-37191D01*
X59694Y-37146D01*
X59694Y-37116D01*
X59709Y-37071D01*
X59724Y-37056D01*
X59694Y-36951D02*
X59694Y-36756D01*
X59814Y-36861D01*
X59814Y-36816D01*
X59829Y-36786D01*
X59844Y-36771D01*
X59874Y-36756D01*
X59949Y-36756D01*
X59979Y-36771D01*
X59994Y-36786D01*
X60009Y-36816D01*
X60009Y-36906D01*
X59994Y-36936D01*
X59979Y-36951D01*
X59694Y-36471D02*
X59694Y-36621D01*
X59844Y-36636D01*
X59829Y-36621D01*
X59814Y-36591D01*
X59814Y-36516D01*
X59829Y-36486D01*
X59844Y-36471D01*
X59874Y-36456D01*
X59949Y-36456D01*
X59979Y-36471D01*
X59994Y-36486D01*
X60009Y-36516D01*
X60009Y-36591D01*
X59994Y-36621D01*
X59979Y-36636D01*
X55939Y-35101D02*
X55924Y-35116D01*
X55879Y-35131D01*
X55849Y-35131D01*
X55804Y-35116D01*
X55774Y-35086D01*
X55759Y-35056D01*
X55744Y-34996D01*
X55744Y-34951D01*
X55759Y-34891D01*
X55774Y-34861D01*
X55804Y-34831D01*
X55849Y-34816D01*
X55879Y-34816D01*
X55924Y-34831D01*
X55939Y-34846D01*
X56044Y-34816D02*
X56239Y-34816D01*
X56134Y-34936D01*
X56179Y-34936D01*
X56209Y-34951D01*
X56224Y-34966D01*
X56239Y-34996D01*
X56239Y-35071D01*
X56224Y-35101D01*
X56209Y-35116D01*
X56179Y-35131D01*
X56089Y-35131D01*
X56059Y-35116D01*
X56044Y-35101D01*
X56344Y-34816D02*
X56554Y-34816D01*
X56419Y-35131D01*
X56593Y-41584D02*
X56608Y-41599D01*
X56623Y-41644D01*
X56623Y-41674D01*
X56608Y-41719D01*
X56578Y-41749D01*
X56548Y-41764D01*
X56488Y-41779D01*
X56443Y-41779D01*
X56383Y-41764D01*
X56353Y-41749D01*
X56323Y-41719D01*
X56308Y-41674D01*
X56308Y-41644D01*
X56323Y-41599D01*
X56338Y-41584D01*
X56308Y-41479D02*
X56308Y-41284D01*
X56428Y-41389D01*
X56428Y-41344D01*
X56443Y-41314D01*
X56458Y-41299D01*
X56488Y-41284D01*
X56563Y-41284D01*
X56593Y-41299D01*
X56608Y-41314D01*
X56623Y-41344D01*
X56623Y-41434D01*
X56608Y-41464D01*
X56593Y-41479D01*
X56443Y-41104D02*
X56428Y-41134D01*
X56413Y-41149D01*
X56383Y-41164D01*
X56368Y-41164D01*
X56338Y-41149D01*
X56323Y-41134D01*
X56308Y-41104D01*
X56308Y-41044D01*
X56323Y-41014D01*
X56338Y-40999D01*
X56368Y-40984D01*
X56383Y-40984D01*
X56413Y-40999D01*
X56428Y-41014D01*
X56443Y-41044D01*
X56443Y-41104D01*
X56458Y-41134D01*
X56473Y-41149D01*
X56503Y-41164D01*
X56563Y-41164D01*
X56593Y-41149D01*
X56608Y-41134D01*
X56623Y-41104D01*
X56623Y-41044D01*
X56608Y-41014D01*
X56593Y-40999D01*
X56563Y-40984D01*
X56503Y-40984D01*
X56473Y-40999D01*
X56458Y-41014D01*
X56443Y-41044D01*
X41758Y-40180D02*
X41743Y-40195D01*
X41698Y-40210D01*
X41668Y-40210D01*
X41623Y-40195D01*
X41593Y-40165D01*
X41578Y-40135D01*
X41563Y-40075D01*
X41563Y-40030D01*
X41578Y-39970D01*
X41593Y-39940D01*
X41623Y-39910D01*
X41668Y-39895D01*
X41698Y-39895D01*
X41743Y-39910D01*
X41758Y-39925D01*
X41863Y-39895D02*
X42073Y-39895D01*
X41938Y-40210D01*
X46364Y-45416D02*
X46349Y-45431D01*
X46304Y-45446D01*
X46274Y-45446D01*
X46229Y-45431D01*
X46199Y-45401D01*
X46184Y-45371D01*
X46169Y-45311D01*
X46169Y-45266D01*
X46184Y-45206D01*
X46199Y-45176D01*
X46229Y-45146D01*
X46274Y-45131D01*
X46304Y-45131D01*
X46349Y-45146D01*
X46364Y-45161D01*
X46514Y-45446D02*
X46574Y-45446D01*
X46604Y-45431D01*
X46619Y-45416D01*
X46649Y-45371D01*
X46664Y-45311D01*
X46664Y-45191D01*
X46649Y-45161D01*
X46634Y-45146D01*
X46604Y-45131D01*
X46544Y-45131D01*
X46514Y-45146D01*
X46499Y-45161D01*
X46484Y-45191D01*
X46484Y-45266D01*
X46499Y-45296D01*
X46514Y-45311D01*
X46544Y-45326D01*
X46604Y-45326D01*
X46634Y-45311D01*
X46649Y-45296D01*
X46664Y-45266D01*
X62285Y-37825D02*
X62285Y-37930D01*
X62450Y-37930D02*
X62135Y-37930D01*
X62135Y-37780D01*
X62285Y-37555D02*
X62300Y-37510D01*
X62315Y-37495D01*
X62345Y-37480D01*
X62390Y-37480D01*
X62420Y-37495D01*
X62435Y-37510D01*
X62450Y-37540D01*
X62450Y-37660D01*
X62135Y-37660D01*
X62135Y-37555D01*
X62150Y-37525D01*
X62165Y-37510D01*
X62195Y-37495D01*
X62225Y-37495D01*
X62255Y-37510D01*
X62270Y-37525D01*
X62285Y-37555D01*
X62285Y-37660D01*
X62165Y-37360D02*
X62150Y-37345D01*
X62135Y-37315D01*
X62135Y-37240D01*
X62150Y-37210D01*
X62165Y-37195D01*
X62195Y-37180D01*
X62225Y-37180D01*
X62270Y-37195D01*
X62450Y-37375D01*
X62450Y-37180D01*
X60761Y-40360D02*
X60656Y-40360D01*
X60656Y-40525D02*
X60656Y-40210D01*
X60806Y-40210D01*
X61031Y-40360D02*
X61076Y-40375D01*
X61091Y-40390D01*
X61106Y-40420D01*
X61106Y-40465D01*
X61091Y-40495D01*
X61076Y-40510D01*
X61046Y-40525D01*
X60926Y-40525D01*
X60926Y-40210D01*
X61031Y-40210D01*
X61061Y-40225D01*
X61076Y-40240D01*
X61091Y-40270D01*
X61091Y-40300D01*
X61076Y-40330D01*
X61061Y-40345D01*
X61031Y-40360D01*
X60926Y-40360D01*
X61406Y-40525D02*
X61226Y-40525D01*
X61316Y-40525D02*
X61316Y-40210D01*
X61286Y-40255D01*
X61256Y-40285D01*
X61226Y-40300D01*
X55585Y-30463D02*
X55585Y-30718D01*
X55600Y-30748D01*
X55615Y-30763D01*
X55645Y-30778D01*
X55705Y-30778D01*
X55735Y-30763D01*
X55750Y-30748D01*
X55765Y-30718D01*
X55765Y-30463D01*
X56065Y-30463D02*
X55915Y-30463D01*
X55900Y-30613D01*
X55915Y-30598D01*
X55945Y-30583D01*
X56020Y-30583D01*
X56050Y-30598D01*
X56065Y-30613D01*
X56080Y-30643D01*
X56080Y-30718D01*
X56065Y-30748D01*
X56050Y-30763D01*
X56020Y-30778D01*
X55945Y-30778D01*
X55915Y-30763D01*
X55900Y-30748D01*
X56571Y-37572D02*
X56571Y-37827D01*
X56586Y-37857D01*
X56601Y-37872D01*
X56631Y-37887D01*
X56691Y-37887D01*
X56721Y-37872D01*
X56736Y-37857D01*
X56751Y-37827D01*
X56751Y-37572D01*
X56871Y-37572D02*
X57065Y-37572D01*
X56961Y-37692D01*
X57005Y-37692D01*
X57035Y-37707D01*
X57050Y-37722D01*
X57065Y-37752D01*
X57065Y-37827D01*
X57050Y-37857D01*
X57035Y-37872D01*
X57005Y-37887D01*
X56916Y-37887D01*
X56886Y-37872D01*
X56871Y-37857D01*
X47619Y-47729D02*
X47829Y-48044D01*
X47829Y-47729D02*
X47619Y-48044D01*
X48113Y-48044D02*
X47934Y-48044D01*
X48023Y-48044D02*
X48023Y-47729D01*
X47994Y-47774D01*
X47964Y-47804D01*
X47934Y-47819D01*
X57619Y-43221D02*
X57829Y-43536D01*
X57829Y-43221D02*
X57619Y-43536D01*
X57934Y-43251D02*
X57949Y-43236D01*
X57979Y-43221D01*
X58053Y-43221D01*
X58083Y-43236D01*
X58098Y-43251D01*
X58113Y-43281D01*
X58113Y-43311D01*
X58098Y-43356D01*
X57919Y-43536D01*
X58113Y-43536D01*
X71281Y-39178D02*
X71506Y-39178D01*
X71551Y-39193D01*
X71581Y-39223D01*
X71596Y-39268D01*
X71596Y-39298D01*
X71596Y-38864D02*
X71596Y-39044D01*
X71596Y-38954D02*
X71281Y-38954D01*
X71326Y-38984D01*
X71356Y-39014D01*
X71371Y-39044D01*
X36065Y-39211D02*
X36050Y-39226D01*
X36005Y-39241D01*
X35975Y-39241D01*
X35930Y-39226D01*
X35900Y-39196D01*
X35885Y-39166D01*
X35870Y-39106D01*
X35870Y-39061D01*
X35885Y-39001D01*
X35900Y-38971D01*
X35930Y-38941D01*
X35975Y-38926D01*
X36005Y-38926D01*
X36050Y-38941D01*
X36065Y-38956D01*
X36260Y-38926D02*
X36320Y-38926D01*
X36350Y-38941D01*
X36380Y-38971D01*
X36395Y-39031D01*
X36395Y-39136D01*
X36380Y-39196D01*
X36350Y-39226D01*
X36320Y-39241D01*
X36260Y-39241D01*
X36230Y-39226D01*
X36200Y-39196D01*
X36185Y-39136D01*
X36185Y-39031D01*
X36200Y-38971D01*
X36230Y-38941D01*
X36260Y-38926D01*
X36530Y-39241D02*
X36530Y-38926D01*
X36710Y-39241D01*
X36710Y-38926D01*
X37025Y-39241D02*
X36845Y-39241D01*
X36935Y-39241D02*
X36935Y-38926D01*
X36905Y-38971D01*
X36875Y-39001D01*
X36845Y-39016D01*
X37077Y-43862D02*
X37092Y-43877D01*
X37107Y-43922D01*
X37107Y-43952D01*
X37092Y-43997D01*
X37062Y-44027D01*
X37032Y-44042D01*
X36972Y-44057D01*
X36927Y-44057D01*
X36867Y-44042D01*
X36837Y-44027D01*
X36807Y-43997D01*
X36792Y-43952D01*
X36792Y-43922D01*
X36807Y-43877D01*
X36822Y-43862D01*
X36792Y-43667D02*
X36792Y-43607D01*
X36807Y-43577D01*
X36837Y-43547D01*
X36897Y-43532D01*
X37002Y-43532D01*
X37062Y-43547D01*
X37092Y-43577D01*
X37107Y-43607D01*
X37107Y-43667D01*
X37092Y-43697D01*
X37062Y-43727D01*
X37002Y-43742D01*
X36897Y-43742D01*
X36837Y-43727D01*
X36807Y-43697D01*
X36792Y-43667D01*
X37107Y-43397D02*
X36792Y-43397D01*
X37107Y-43217D01*
X36792Y-43217D01*
X36822Y-43082D02*
X36807Y-43067D01*
X36792Y-43037D01*
X36792Y-42962D01*
X36807Y-42932D01*
X36822Y-42917D01*
X36852Y-42902D01*
X36882Y-42902D01*
X36927Y-42917D01*
X37107Y-43097D01*
X37107Y-42902D01*
X54197Y-46302D02*
X54212Y-46317D01*
X54227Y-46362D01*
X54227Y-46392D01*
X54212Y-46437D01*
X54182Y-46467D01*
X54152Y-46482D01*
X54092Y-46497D01*
X54047Y-46497D01*
X53987Y-46482D01*
X53957Y-46467D01*
X53927Y-46437D01*
X53912Y-46392D01*
X53912Y-46362D01*
X53927Y-46317D01*
X53942Y-46302D01*
X54017Y-46032D02*
X54227Y-46032D01*
X53897Y-46107D02*
X54122Y-46182D01*
X54122Y-45987D01*
X53912Y-45807D02*
X53912Y-45777D01*
X53927Y-45747D01*
X53942Y-45732D01*
X53972Y-45717D01*
X54032Y-45702D01*
X54107Y-45702D01*
X54167Y-45717D01*
X54197Y-45732D01*
X54212Y-45747D01*
X54227Y-45777D01*
X54227Y-45807D01*
X54212Y-45837D01*
X54197Y-45852D01*
X54167Y-45867D01*
X54107Y-45882D01*
X54032Y-45882D01*
X53972Y-45867D01*
X53942Y-45852D01*
X53927Y-45837D01*
X53912Y-45807D01*
X61780Y-41140D02*
X61675Y-40990D01*
X61600Y-41140D02*
X61600Y-40825D01*
X61720Y-40825D01*
X61750Y-40840D01*
X61765Y-40855D01*
X61780Y-40885D01*
X61780Y-40930D01*
X61765Y-40960D01*
X61750Y-40975D01*
X61720Y-40990D01*
X61600Y-40990D01*
X62080Y-41140D02*
X61900Y-41140D01*
X61990Y-41140D02*
X61990Y-40825D01*
X61960Y-40870D01*
X61930Y-40900D01*
X61900Y-40915D01*
X62365Y-40825D02*
X62215Y-40825D01*
X62200Y-40975D01*
X62215Y-40960D01*
X62245Y-40945D01*
X62320Y-40945D01*
X62350Y-40960D01*
X62365Y-40975D01*
X62380Y-41005D01*
X62380Y-41080D01*
X62365Y-41110D01*
X62350Y-41125D01*
X62320Y-41140D01*
X62245Y-41140D01*
X62215Y-41125D01*
X62200Y-41110D01*
X41317Y-37686D02*
X41332Y-37701D01*
X41347Y-37746D01*
X41347Y-37776D01*
X41332Y-37821D01*
X41302Y-37851D01*
X41272Y-37866D01*
X41212Y-37881D01*
X41167Y-37881D01*
X41107Y-37866D01*
X41077Y-37851D01*
X41047Y-37821D01*
X41032Y-37776D01*
X41032Y-37746D01*
X41047Y-37701D01*
X41062Y-37686D01*
X41032Y-37581D02*
X41032Y-37386D01*
X41152Y-37491D01*
X41152Y-37446D01*
X41167Y-37416D01*
X41182Y-37401D01*
X41212Y-37386D01*
X41287Y-37386D01*
X41317Y-37401D01*
X41332Y-37416D01*
X41347Y-37446D01*
X41347Y-37536D01*
X41332Y-37566D01*
X41317Y-37581D01*
X41347Y-37236D02*
X41347Y-37176D01*
X41332Y-37146D01*
X41317Y-37131D01*
X41272Y-37101D01*
X41212Y-37086D01*
X41092Y-37086D01*
X41062Y-37101D01*
X41047Y-37116D01*
X41032Y-37146D01*
X41032Y-37206D01*
X41047Y-37236D01*
X41062Y-37251D01*
X41092Y-37266D01*
X41167Y-37266D01*
X41197Y-37251D01*
X41212Y-37236D01*
X41227Y-37206D01*
X41227Y-37146D01*
X41212Y-37116D01*
X41197Y-37101D01*
X41167Y-37086D01*
X41548Y-38234D02*
X41443Y-38234D01*
X41443Y-38399D02*
X41443Y-38084D01*
X41593Y-38084D01*
X41818Y-38234D02*
X41863Y-38249D01*
X41878Y-38264D01*
X41893Y-38294D01*
X41893Y-38339D01*
X41878Y-38369D01*
X41863Y-38384D01*
X41833Y-38399D01*
X41713Y-38399D01*
X41713Y-38084D01*
X41818Y-38084D01*
X41848Y-38099D01*
X41863Y-38114D01*
X41878Y-38144D01*
X41878Y-38174D01*
X41863Y-38204D01*
X41848Y-38219D01*
X41818Y-38234D01*
X41713Y-38234D01*
X41998Y-38084D02*
X42193Y-38084D01*
X42088Y-38204D01*
X42133Y-38204D01*
X42163Y-38219D01*
X42178Y-38234D01*
X42193Y-38264D01*
X42193Y-38339D01*
X42178Y-38369D01*
X42163Y-38384D01*
X42133Y-38399D01*
X42043Y-38399D01*
X42013Y-38384D01*
X41998Y-38369D01*
X62539Y-36326D02*
X62434Y-36176D01*
X62359Y-36326D02*
X62359Y-36011D01*
X62479Y-36011D01*
X62509Y-36026D01*
X62524Y-36041D01*
X62539Y-36071D01*
X62539Y-36116D01*
X62524Y-36146D01*
X62509Y-36161D01*
X62479Y-36176D01*
X62359Y-36176D01*
X62839Y-36326D02*
X62659Y-36326D01*
X62749Y-36326D02*
X62749Y-36011D01*
X62719Y-36056D01*
X62689Y-36086D01*
X62659Y-36101D01*
X62944Y-36011D02*
X63153Y-36011D01*
X63019Y-36326D01*
X62539Y-35716D02*
X62434Y-35566D01*
X62359Y-35716D02*
X62359Y-35401D01*
X62479Y-35401D01*
X62509Y-35416D01*
X62524Y-35431D01*
X62539Y-35461D01*
X62539Y-35506D01*
X62524Y-35536D01*
X62509Y-35551D01*
X62479Y-35566D01*
X62359Y-35566D01*
X62839Y-35716D02*
X62659Y-35716D01*
X62749Y-35716D02*
X62749Y-35401D01*
X62719Y-35446D01*
X62689Y-35476D01*
X62659Y-35491D01*
X63019Y-35536D02*
X62989Y-35521D01*
X62974Y-35506D01*
X62959Y-35476D01*
X62959Y-35461D01*
X62974Y-35431D01*
X62989Y-35416D01*
X63019Y-35401D01*
X63078Y-35401D01*
X63108Y-35416D01*
X63123Y-35431D01*
X63138Y-35461D01*
X63138Y-35476D01*
X63123Y-35506D01*
X63108Y-35521D01*
X63078Y-35536D01*
X63019Y-35536D01*
X62989Y-35551D01*
X62974Y-35566D01*
X62959Y-35596D01*
X62959Y-35656D01*
X62974Y-35686D01*
X62989Y-35701D01*
X63019Y-35716D01*
X63078Y-35716D01*
X63108Y-35701D01*
X63123Y-35686D01*
X63138Y-35656D01*
X63138Y-35596D01*
X63123Y-35566D01*
X63108Y-35551D01*
X63078Y-35536D01*
X62385Y-42327D02*
X62235Y-42432D01*
X62385Y-42507D02*
X62070Y-42507D01*
X62070Y-42387D01*
X62085Y-42357D01*
X62100Y-42342D01*
X62130Y-42327D01*
X62175Y-42327D01*
X62205Y-42342D01*
X62220Y-42357D01*
X62235Y-42387D01*
X62235Y-42507D01*
X62385Y-42027D02*
X62385Y-42207D01*
X62385Y-42117D02*
X62070Y-42117D01*
X62115Y-42147D01*
X62145Y-42177D01*
X62160Y-42207D01*
X62385Y-41877D02*
X62385Y-41817D01*
X62370Y-41787D01*
X62355Y-41772D01*
X62310Y-41742D01*
X62250Y-41727D01*
X62130Y-41727D01*
X62100Y-41742D01*
X62085Y-41757D01*
X62070Y-41787D01*
X62070Y-41847D01*
X62085Y-41877D01*
X62100Y-41892D01*
X62130Y-41907D01*
X62205Y-41907D01*
X62235Y-41892D01*
X62250Y-41877D01*
X62265Y-41847D01*
X62265Y-41787D01*
X62250Y-41757D01*
X62235Y-41742D01*
X62205Y-41727D01*
X62996Y-42110D02*
X62846Y-42215D01*
X62996Y-42290D02*
X62681Y-42290D01*
X62681Y-42170D01*
X62696Y-42140D01*
X62711Y-42125D01*
X62741Y-42110D01*
X62786Y-42110D01*
X62816Y-42125D01*
X62831Y-42140D01*
X62846Y-42170D01*
X62846Y-42290D01*
X62711Y-41990D02*
X62696Y-41975D01*
X62681Y-41945D01*
X62681Y-41870D01*
X62696Y-41840D01*
X62711Y-41825D01*
X62741Y-41810D01*
X62771Y-41810D01*
X62816Y-41825D01*
X62996Y-42005D01*
X62996Y-41810D01*
X62681Y-41615D02*
X62681Y-41585D01*
X62696Y-41555D01*
X62711Y-41540D01*
X62741Y-41525D01*
X62801Y-41510D01*
X62876Y-41510D01*
X62936Y-41525D01*
X62966Y-41540D01*
X62981Y-41555D01*
X62996Y-41585D01*
X62996Y-41615D01*
X62981Y-41645D01*
X62966Y-41660D01*
X62936Y-41675D01*
X62876Y-41690D01*
X62801Y-41690D01*
X62741Y-41675D01*
X62711Y-41660D01*
X62696Y-41645D01*
X62681Y-41615D01*
X39172Y-41652D02*
X39067Y-41502D01*
X38992Y-41652D02*
X38992Y-41337D01*
X39112Y-41337D01*
X39142Y-41352D01*
X39157Y-41367D01*
X39172Y-41397D01*
X39172Y-41442D01*
X39157Y-41472D01*
X39142Y-41487D01*
X39112Y-41502D01*
X38992Y-41502D01*
X39472Y-41652D02*
X39292Y-41652D01*
X39382Y-41652D02*
X39382Y-41337D01*
X39352Y-41382D01*
X39322Y-41412D01*
X39292Y-41427D01*
X39742Y-41337D02*
X39682Y-41337D01*
X39652Y-41352D01*
X39637Y-41367D01*
X39607Y-41412D01*
X39592Y-41472D01*
X39592Y-41592D01*
X39607Y-41622D01*
X39622Y-41637D01*
X39652Y-41652D01*
X39712Y-41652D01*
X39742Y-41637D01*
X39757Y-41622D01*
X39772Y-41592D01*
X39772Y-41517D01*
X39757Y-41487D01*
X39742Y-41472D01*
X39712Y-41457D01*
X39652Y-41457D01*
X39622Y-41472D01*
X39607Y-41487D01*
X39592Y-41517D01*
X61510Y-35987D02*
X61495Y-36002D01*
X61450Y-36017D01*
X61420Y-36017D01*
X61375Y-36002D01*
X61345Y-35972D01*
X61330Y-35942D01*
X61315Y-35882D01*
X61315Y-35837D01*
X61330Y-35777D01*
X61345Y-35747D01*
X61375Y-35717D01*
X61420Y-35702D01*
X61450Y-35702D01*
X61495Y-35717D01*
X61510Y-35732D01*
X61780Y-35807D02*
X61780Y-36017D01*
X61705Y-35687D02*
X61630Y-35912D01*
X61825Y-35912D01*
X62110Y-36017D02*
X61930Y-36017D01*
X62020Y-36017D02*
X62020Y-35702D01*
X61990Y-35747D01*
X61960Y-35777D01*
X61930Y-35792D01*
X61273Y-42463D02*
X61258Y-42478D01*
X61213Y-42493D01*
X61183Y-42493D01*
X61138Y-42478D01*
X61108Y-42448D01*
X61093Y-42418D01*
X61078Y-42358D01*
X61078Y-42313D01*
X61093Y-42253D01*
X61108Y-42223D01*
X61138Y-42193D01*
X61183Y-42178D01*
X61213Y-42178D01*
X61258Y-42193D01*
X61273Y-42208D01*
X61543Y-42283D02*
X61543Y-42493D01*
X61468Y-42163D02*
X61393Y-42388D01*
X61588Y-42388D01*
X61693Y-42208D02*
X61708Y-42193D01*
X61738Y-42178D01*
X61813Y-42178D01*
X61843Y-42193D01*
X61858Y-42208D01*
X61873Y-42238D01*
X61873Y-42268D01*
X61858Y-42313D01*
X61678Y-42493D01*
X61873Y-42493D01*
G54D19*
X52780Y-46215D02*
X52685Y-46275D01*
X52780Y-46318D02*
X52580Y-46318D01*
X52580Y-46250D01*
X52590Y-46232D01*
X52600Y-46224D01*
X52619Y-46215D01*
X52647Y-46215D01*
X52666Y-46224D01*
X52676Y-46232D01*
X52685Y-46250D01*
X52685Y-46318D01*
X52600Y-46147D02*
X52590Y-46138D01*
X52580Y-46121D01*
X52580Y-46078D01*
X52590Y-46061D01*
X52600Y-46052D01*
X52619Y-46044D01*
X52638Y-46044D01*
X52666Y-46052D01*
X52780Y-46155D01*
X52780Y-46044D01*
X52600Y-45975D02*
X52590Y-45967D01*
X52580Y-45950D01*
X52580Y-45907D01*
X52590Y-45890D01*
X52600Y-45881D01*
X52619Y-45872D01*
X52638Y-45872D01*
X52666Y-45881D01*
X52780Y-45984D01*
X52780Y-45872D01*
X52180Y-46215D02*
X52085Y-46275D01*
X52180Y-46318D02*
X51980Y-46318D01*
X51980Y-46250D01*
X51990Y-46232D01*
X52000Y-46224D01*
X52019Y-46215D01*
X52047Y-46215D01*
X52066Y-46224D01*
X52076Y-46232D01*
X52085Y-46250D01*
X52085Y-46318D01*
X52000Y-46147D02*
X51990Y-46138D01*
X51980Y-46121D01*
X51980Y-46078D01*
X51990Y-46061D01*
X52000Y-46052D01*
X52019Y-46044D01*
X52038Y-46044D01*
X52066Y-46052D01*
X52180Y-46155D01*
X52180Y-46044D01*
X52180Y-45872D02*
X52180Y-45975D01*
X52180Y-45924D02*
X51980Y-45924D01*
X52009Y-45941D01*
X52028Y-45958D01*
X52038Y-45975D01*
G54D12*
X72314Y-29854D02*
X72314Y-29539D01*
X72434Y-29539D01*
X72464Y-29554D01*
X72479Y-29569D01*
X72494Y-29599D01*
X72494Y-29644D01*
X72479Y-29674D01*
X72464Y-29689D01*
X72434Y-29704D01*
X72314Y-29704D01*
X72794Y-29854D02*
X72614Y-29854D01*
X72704Y-29854D02*
X72704Y-29539D01*
X72674Y-29584D01*
X72644Y-29614D01*
X72614Y-29629D01*
X37314Y-29854D02*
X37314Y-29539D01*
X37434Y-29539D01*
X37464Y-29554D01*
X37479Y-29569D01*
X37494Y-29599D01*
X37494Y-29644D01*
X37479Y-29674D01*
X37464Y-29689D01*
X37434Y-29704D01*
X37314Y-29704D01*
X37794Y-29854D02*
X37614Y-29854D01*
X37704Y-29854D02*
X37704Y-29539D01*
X37674Y-29584D01*
X37644Y-29614D01*
X37614Y-29629D01*
X37314Y-48604D02*
X37314Y-48289D01*
X37434Y-48289D01*
X37464Y-48304D01*
X37479Y-48319D01*
X37494Y-48349D01*
X37494Y-48394D01*
X37479Y-48424D01*
X37464Y-48439D01*
X37434Y-48454D01*
X37314Y-48454D01*
X37794Y-48604D02*
X37614Y-48604D01*
X37704Y-48604D02*
X37704Y-48289D01*
X37674Y-48334D01*
X37644Y-48364D01*
X37614Y-48379D01*
X72314Y-48604D02*
X72314Y-48289D01*
X72434Y-48289D01*
X72464Y-48304D01*
X72479Y-48319D01*
X72494Y-48349D01*
X72494Y-48394D01*
X72479Y-48424D01*
X72464Y-48439D01*
X72434Y-48454D01*
X72314Y-48454D01*
X72794Y-48604D02*
X72614Y-48604D01*
X72704Y-48604D02*
X72704Y-48289D01*
X72674Y-48334D01*
X72644Y-48364D01*
X72614Y-48379D01*
M02*
