G04 (created by PCBNEW (2013-07-07 BZR 4022)-stable) date 04/07/2014 12:13:18*
%MOIN*%
G04 Gerber Fmt 3.4, Leading zero omitted, Abs format*
%FSLAX34Y34*%
G01*
G70*
G90*
G04 APERTURE LIST*
%ADD10C,0.00590551*%
%ADD11C,0.00393701*%
%ADD12C,0.00787402*%
%ADD13C,0.011811*%
%ADD14C,0.012*%
%ADD15C,0.008*%
%ADD16C,0.0047*%
%ADD17C,0.0031*%
%ADD18C,0.005*%
%ADD19R,0.0262362X0.0702362*%
%ADD20R,0.0702362X0.0262362*%
%ADD21R,0.0462362X0.0462362*%
%ADD22R,0.0417362X0.0496362*%
%ADD23R,0.0352362X0.0552362*%
%ADD24R,0.0552362X0.0352362*%
%ADD25C,0.0811024*%
%ADD26R,0.0653543X0.0192913*%
%ADD27R,0.0192913X0.0653543*%
%ADD28R,0.230709X0.0968504*%
%ADD29C,0.167717*%
%ADD30C,0.0702362*%
%ADD31C,0.108661*%
%ADD32C,0.0771654*%
%ADD33R,0.0791339X0.0259843*%
%ADD34R,0.0677165X0.0889764*%
%ADD35R,0.134252X0.0614173*%
%ADD36R,0.108661X0.0663386*%
%ADD37R,0.0702362X0.0702362*%
%ADD38C,0.0889764*%
%ADD39C,0.0496063*%
%ADD40O,0.0889764X0.132283*%
%ADD41C,0.266142*%
G04 APERTURE END LIST*
G54D10*
G54D11*
X35531Y-48472D02*
X35531Y-29722D01*
X35531Y-48472D02*
G75*
G03X37518Y-50460I1987J0D01*
G74*
G01*
X72520Y-50460D02*
X37518Y-50460D01*
X72520Y-50460D02*
G75*
G03X74507Y-48472I0J1987D01*
G74*
G01*
X74507Y-29722D02*
X74507Y-48472D01*
X74507Y-29722D02*
G75*
G03X72520Y-27735I-1987J0D01*
G74*
G01*
X37518Y-27735D02*
X72520Y-27735D01*
X37518Y-27735D02*
G75*
G03X35531Y-29722I0J-1987D01*
G74*
G01*
G54D12*
X58696Y-39748D02*
G75*
G03X58696Y-39748I-212J0D01*
G74*
G01*
G54D13*
X49422Y-49123D02*
X49422Y-48533D01*
X49422Y-48814D02*
X49760Y-48814D01*
X49760Y-49123D02*
X49760Y-48533D01*
X50294Y-49123D02*
X50294Y-48814D01*
X50266Y-48758D01*
X50210Y-48730D01*
X50097Y-48730D01*
X50041Y-48758D01*
X50294Y-49095D02*
X50238Y-49123D01*
X50097Y-49123D01*
X50041Y-49095D01*
X50013Y-49039D01*
X50013Y-48983D01*
X50041Y-48927D01*
X50097Y-48898D01*
X50238Y-48898D01*
X50294Y-48870D01*
X50575Y-49123D02*
X50575Y-48730D01*
X50575Y-48842D02*
X50603Y-48786D01*
X50632Y-48758D01*
X50688Y-48730D01*
X50744Y-48730D01*
X50885Y-48730D02*
X51025Y-49123D01*
X51166Y-48730D01*
X51616Y-49095D02*
X51560Y-49123D01*
X51447Y-49123D01*
X51391Y-49095D01*
X51363Y-49039D01*
X51363Y-48814D01*
X51391Y-48758D01*
X51447Y-48730D01*
X51560Y-48730D01*
X51616Y-48758D01*
X51644Y-48814D01*
X51644Y-48870D01*
X51363Y-48927D01*
X51869Y-49095D02*
X51925Y-49123D01*
X52038Y-49123D01*
X52094Y-49095D01*
X52122Y-49039D01*
X52122Y-49011D01*
X52094Y-48955D01*
X52038Y-48927D01*
X51953Y-48927D01*
X51897Y-48898D01*
X51869Y-48842D01*
X51869Y-48814D01*
X51897Y-48758D01*
X51953Y-48730D01*
X52038Y-48730D01*
X52094Y-48758D01*
X52291Y-48730D02*
X52516Y-48730D01*
X52375Y-48533D02*
X52375Y-49039D01*
X52403Y-49095D01*
X52459Y-49123D01*
X52516Y-49123D01*
X52966Y-48730D02*
X52966Y-49208D01*
X52937Y-49264D01*
X52909Y-49292D01*
X52853Y-49320D01*
X52769Y-49320D01*
X52712Y-49292D01*
X52966Y-49095D02*
X52909Y-49123D01*
X52797Y-49123D01*
X52741Y-49095D01*
X52712Y-49067D01*
X52684Y-49011D01*
X52684Y-48842D01*
X52712Y-48786D01*
X52741Y-48758D01*
X52797Y-48730D01*
X52909Y-48730D01*
X52966Y-48758D01*
X53472Y-49095D02*
X53416Y-49123D01*
X53303Y-49123D01*
X53247Y-49095D01*
X53219Y-49039D01*
X53219Y-48814D01*
X53247Y-48758D01*
X53303Y-48730D01*
X53416Y-48730D01*
X53472Y-48758D01*
X53500Y-48814D01*
X53500Y-48870D01*
X53219Y-48927D01*
X53978Y-49095D02*
X53922Y-49123D01*
X53809Y-49123D01*
X53753Y-49095D01*
X53725Y-49039D01*
X53725Y-48814D01*
X53753Y-48758D01*
X53809Y-48730D01*
X53922Y-48730D01*
X53978Y-48758D01*
X54006Y-48814D01*
X54006Y-48870D01*
X53725Y-48927D01*
X54259Y-49123D02*
X54259Y-48533D01*
X54315Y-48898D02*
X54484Y-49123D01*
X54484Y-48730D02*
X54259Y-48955D01*
X55384Y-48814D02*
X55468Y-48842D01*
X55497Y-48870D01*
X55525Y-48927D01*
X55525Y-49011D01*
X55497Y-49067D01*
X55468Y-49095D01*
X55412Y-49123D01*
X55187Y-49123D01*
X55187Y-48533D01*
X55384Y-48533D01*
X55440Y-48561D01*
X55468Y-48589D01*
X55497Y-48645D01*
X55497Y-48702D01*
X55468Y-48758D01*
X55440Y-48786D01*
X55384Y-48814D01*
X55187Y-48814D01*
X56031Y-49123D02*
X56031Y-48814D01*
X56003Y-48758D01*
X55946Y-48730D01*
X55834Y-48730D01*
X55778Y-48758D01*
X56031Y-49095D02*
X55975Y-49123D01*
X55834Y-49123D01*
X55778Y-49095D01*
X55750Y-49039D01*
X55750Y-48983D01*
X55778Y-48927D01*
X55834Y-48898D01*
X55975Y-48898D01*
X56031Y-48870D01*
X56284Y-49095D02*
X56340Y-49123D01*
X56453Y-49123D01*
X56509Y-49095D01*
X56537Y-49039D01*
X56537Y-49011D01*
X56509Y-48955D01*
X56453Y-48927D01*
X56368Y-48927D01*
X56312Y-48898D01*
X56284Y-48842D01*
X56284Y-48814D01*
X56312Y-48758D01*
X56368Y-48730D01*
X56453Y-48730D01*
X56509Y-48758D01*
X57015Y-49095D02*
X56959Y-49123D01*
X56846Y-49123D01*
X56790Y-49095D01*
X56762Y-49039D01*
X56762Y-48814D01*
X56790Y-48758D01*
X56846Y-48730D01*
X56959Y-48730D01*
X57015Y-48758D01*
X57043Y-48814D01*
X57043Y-48870D01*
X56762Y-48927D01*
X57718Y-49095D02*
X57802Y-49123D01*
X57943Y-49123D01*
X57999Y-49095D01*
X58027Y-49067D01*
X58056Y-49011D01*
X58056Y-48955D01*
X58027Y-48898D01*
X57999Y-48870D01*
X57943Y-48842D01*
X57831Y-48814D01*
X57774Y-48786D01*
X57746Y-48758D01*
X57718Y-48702D01*
X57718Y-48645D01*
X57746Y-48589D01*
X57774Y-48561D01*
X57831Y-48533D01*
X57971Y-48533D01*
X58056Y-48561D01*
X58224Y-48730D02*
X58449Y-48730D01*
X58309Y-48533D02*
X58309Y-49039D01*
X58337Y-49095D01*
X58393Y-49123D01*
X58449Y-49123D01*
X58899Y-49123D02*
X58899Y-48814D01*
X58871Y-48758D01*
X58815Y-48730D01*
X58702Y-48730D01*
X58646Y-48758D01*
X58899Y-49095D02*
X58843Y-49123D01*
X58702Y-49123D01*
X58646Y-49095D01*
X58618Y-49039D01*
X58618Y-48983D01*
X58646Y-48927D01*
X58702Y-48898D01*
X58843Y-48898D01*
X58899Y-48870D01*
X59096Y-48730D02*
X59321Y-48730D01*
X59180Y-48533D02*
X59180Y-49039D01*
X59209Y-49095D01*
X59265Y-49123D01*
X59321Y-49123D01*
X59518Y-49123D02*
X59518Y-48730D01*
X59518Y-48533D02*
X59490Y-48561D01*
X59518Y-48589D01*
X59546Y-48561D01*
X59518Y-48533D01*
X59518Y-48589D01*
X59883Y-49123D02*
X59827Y-49095D01*
X59799Y-49067D01*
X59771Y-49011D01*
X59771Y-48842D01*
X59799Y-48786D01*
X59827Y-48758D01*
X59883Y-48730D01*
X59968Y-48730D01*
X60024Y-48758D01*
X60052Y-48786D01*
X60080Y-48842D01*
X60080Y-49011D01*
X60052Y-49067D01*
X60024Y-49095D01*
X59968Y-49123D01*
X59883Y-49123D01*
X60333Y-48730D02*
X60333Y-49123D01*
X60333Y-48786D02*
X60362Y-48758D01*
X60418Y-48730D01*
X60502Y-48730D01*
X60558Y-48758D01*
X60587Y-48814D01*
X60587Y-49123D01*
X52670Y-50068D02*
X52670Y-49478D01*
X52867Y-49900D01*
X53064Y-49478D01*
X53064Y-50068D01*
X53345Y-50012D02*
X53373Y-50040D01*
X53345Y-50068D01*
X53317Y-50040D01*
X53345Y-50012D01*
X53345Y-50068D01*
X54048Y-50040D02*
X54133Y-50068D01*
X54273Y-50068D01*
X54329Y-50040D01*
X54358Y-50012D01*
X54386Y-49956D01*
X54386Y-49900D01*
X54358Y-49843D01*
X54329Y-49815D01*
X54273Y-49787D01*
X54161Y-49759D01*
X54105Y-49731D01*
X54076Y-49703D01*
X54048Y-49646D01*
X54048Y-49590D01*
X54076Y-49534D01*
X54105Y-49506D01*
X54161Y-49478D01*
X54301Y-49478D01*
X54386Y-49506D01*
X54554Y-49675D02*
X54779Y-49675D01*
X54639Y-49478D02*
X54639Y-49984D01*
X54667Y-50040D01*
X54723Y-50068D01*
X54779Y-50068D01*
X55201Y-50040D02*
X55145Y-50068D01*
X55033Y-50068D01*
X54976Y-50040D01*
X54948Y-49984D01*
X54948Y-49759D01*
X54976Y-49703D01*
X55033Y-49675D01*
X55145Y-49675D01*
X55201Y-49703D01*
X55229Y-49759D01*
X55229Y-49815D01*
X54948Y-49871D01*
X55482Y-49675D02*
X55482Y-50265D01*
X55482Y-49703D02*
X55539Y-49675D01*
X55651Y-49675D01*
X55707Y-49703D01*
X55736Y-49731D01*
X55764Y-49787D01*
X55764Y-49956D01*
X55736Y-50012D01*
X55707Y-50040D01*
X55651Y-50068D01*
X55539Y-50068D01*
X55482Y-50040D01*
X56017Y-50068D02*
X56017Y-49478D01*
X56270Y-50068D02*
X56270Y-49759D01*
X56242Y-49703D01*
X56186Y-49675D01*
X56101Y-49675D01*
X56045Y-49703D01*
X56017Y-49731D01*
X56804Y-50068D02*
X56804Y-49759D01*
X56776Y-49703D01*
X56720Y-49675D01*
X56607Y-49675D01*
X56551Y-49703D01*
X56804Y-50040D02*
X56748Y-50068D01*
X56607Y-50068D01*
X56551Y-50040D01*
X56523Y-49984D01*
X56523Y-49928D01*
X56551Y-49871D01*
X56607Y-49843D01*
X56748Y-49843D01*
X56804Y-49815D01*
X57085Y-49675D02*
X57085Y-50068D01*
X57085Y-49731D02*
X57114Y-49703D01*
X57170Y-49675D01*
X57254Y-49675D01*
X57310Y-49703D01*
X57338Y-49759D01*
X57338Y-50068D01*
G54D14*
X47954Y-37837D02*
X47954Y-41777D01*
X47954Y-41777D02*
X44014Y-41777D01*
X44014Y-38027D02*
X44014Y-41777D01*
X44204Y-37837D02*
X47954Y-37837D01*
X44014Y-38027D02*
X44204Y-37837D01*
G54D15*
X44734Y-38307D02*
G75*
G03X44734Y-38307I-250J0D01*
G74*
G01*
G54D16*
X52568Y-39799D02*
X51368Y-39799D01*
X51368Y-39799D02*
X51368Y-39499D01*
X51368Y-39499D02*
X52568Y-39499D01*
X52568Y-39499D02*
X52568Y-39799D01*
G54D17*
X42434Y-36362D02*
G75*
G03X42434Y-36362I-62J0D01*
G74*
G01*
X43334Y-36024D02*
X43334Y-36424D01*
X42309Y-36024D02*
X42309Y-36424D01*
X43334Y-36424D02*
X42309Y-36424D01*
X42309Y-36024D02*
X43334Y-36024D01*
G54D18*
X41614Y-39217D02*
X41336Y-39217D01*
X41336Y-39217D02*
X41336Y-39767D01*
X41336Y-39767D02*
X41614Y-39767D01*
X42286Y-39217D02*
X42008Y-39217D01*
X42286Y-39217D02*
X42286Y-39767D01*
X42286Y-39767D02*
X42008Y-39767D01*
X61731Y-33586D02*
X61731Y-33308D01*
X61731Y-33308D02*
X61181Y-33308D01*
X61181Y-33308D02*
X61181Y-33586D01*
X61731Y-34258D02*
X61731Y-33980D01*
X61731Y-34258D02*
X61181Y-34258D01*
X61181Y-34258D02*
X61181Y-33980D01*
X58025Y-46297D02*
X58025Y-46575D01*
X58025Y-46575D02*
X58575Y-46575D01*
X58575Y-46575D02*
X58575Y-46297D01*
X58025Y-45625D02*
X58025Y-45903D01*
X58025Y-45625D02*
X58575Y-45625D01*
X58575Y-45625D02*
X58575Y-45903D01*
X39153Y-41925D02*
X38875Y-41925D01*
X38875Y-41925D02*
X38875Y-42475D01*
X38875Y-42475D02*
X39153Y-42475D01*
X39825Y-41925D02*
X39547Y-41925D01*
X39825Y-41925D02*
X39825Y-42475D01*
X39825Y-42475D02*
X39547Y-42475D01*
X51456Y-40830D02*
X51734Y-40830D01*
X51734Y-40830D02*
X51734Y-40280D01*
X51734Y-40280D02*
X51456Y-40280D01*
X50784Y-40830D02*
X51062Y-40830D01*
X50784Y-40830D02*
X50784Y-40280D01*
X50784Y-40280D02*
X51062Y-40280D01*
X48032Y-37169D02*
X48032Y-37447D01*
X48032Y-37447D02*
X48582Y-37447D01*
X48582Y-37447D02*
X48582Y-37169D01*
X48032Y-36497D02*
X48032Y-36775D01*
X48032Y-36497D02*
X48582Y-36497D01*
X48582Y-36497D02*
X48582Y-36775D01*
X43306Y-42524D02*
X43028Y-42524D01*
X43028Y-42524D02*
X43028Y-43074D01*
X43028Y-43074D02*
X43306Y-43074D01*
X43978Y-42524D02*
X43700Y-42524D01*
X43978Y-42524D02*
X43978Y-43074D01*
X43978Y-43074D02*
X43700Y-43074D01*
X57716Y-41303D02*
X57438Y-41303D01*
X57438Y-41303D02*
X57438Y-41853D01*
X57438Y-41853D02*
X57716Y-41853D01*
X58388Y-41303D02*
X58110Y-41303D01*
X58388Y-41303D02*
X58388Y-41853D01*
X58388Y-41853D02*
X58110Y-41853D01*
X41614Y-38587D02*
X41336Y-38587D01*
X41336Y-38587D02*
X41336Y-39137D01*
X41336Y-39137D02*
X41614Y-39137D01*
X42286Y-38587D02*
X42008Y-38587D01*
X42286Y-38587D02*
X42286Y-39137D01*
X42286Y-39137D02*
X42008Y-39137D01*
X53857Y-39570D02*
X53857Y-39292D01*
X53857Y-39292D02*
X53307Y-39292D01*
X53307Y-39292D02*
X53307Y-39570D01*
X53857Y-40242D02*
X53857Y-39964D01*
X53857Y-40242D02*
X53307Y-40242D01*
X53307Y-40242D02*
X53307Y-39964D01*
X53227Y-39570D02*
X53227Y-39292D01*
X53227Y-39292D02*
X52677Y-39292D01*
X52677Y-39292D02*
X52677Y-39570D01*
X53227Y-40242D02*
X53227Y-39964D01*
X53227Y-40242D02*
X52677Y-40242D01*
X52677Y-40242D02*
X52677Y-39964D01*
X61220Y-41263D02*
X61498Y-41263D01*
X61498Y-41263D02*
X61498Y-40713D01*
X61498Y-40713D02*
X61220Y-40713D01*
X60548Y-41263D02*
X60826Y-41263D01*
X60548Y-41263D02*
X60548Y-40713D01*
X60548Y-40713D02*
X60826Y-40713D01*
X72505Y-34807D02*
X72505Y-35085D01*
X72505Y-35085D02*
X73055Y-35085D01*
X73055Y-35085D02*
X73055Y-34807D01*
X72505Y-34135D02*
X72505Y-34413D01*
X72505Y-34135D02*
X73055Y-34135D01*
X73055Y-34135D02*
X73055Y-34413D01*
X73175Y-34807D02*
X73175Y-35085D01*
X73175Y-35085D02*
X73725Y-35085D01*
X73725Y-35085D02*
X73725Y-34807D01*
X73175Y-34135D02*
X73175Y-34413D01*
X73175Y-34135D02*
X73725Y-34135D01*
X73725Y-34135D02*
X73725Y-34413D01*
G54D16*
X57356Y-45903D02*
X57356Y-45628D01*
X57356Y-46297D02*
X57356Y-46572D01*
X56844Y-45903D02*
X56844Y-45628D01*
X56844Y-46572D02*
X56844Y-46297D01*
X56850Y-45628D02*
X57350Y-45628D01*
X57350Y-46572D02*
X56850Y-46572D01*
X62657Y-39925D02*
X62657Y-39650D01*
X62657Y-40319D02*
X62657Y-40594D01*
X62145Y-39925D02*
X62145Y-39650D01*
X62145Y-40594D02*
X62145Y-40319D01*
X62151Y-39650D02*
X62651Y-39650D01*
X62651Y-40594D02*
X62151Y-40594D01*
X45177Y-36184D02*
X45177Y-35909D01*
X45177Y-36578D02*
X45177Y-36853D01*
X44665Y-36184D02*
X44665Y-35909D01*
X44665Y-36853D02*
X44665Y-36578D01*
X44671Y-35909D02*
X45171Y-35909D01*
X45171Y-36853D02*
X44671Y-36853D01*
X45236Y-43055D02*
X45511Y-43055D01*
X44842Y-43055D02*
X44567Y-43055D01*
X45236Y-42543D02*
X45511Y-42543D01*
X44567Y-42543D02*
X44842Y-42543D01*
X45511Y-42549D02*
X45511Y-43049D01*
X44567Y-43049D02*
X44567Y-42549D01*
X49114Y-41618D02*
X49114Y-41893D01*
X49114Y-41224D02*
X49114Y-40949D01*
X49626Y-41618D02*
X49626Y-41893D01*
X49626Y-40949D02*
X49626Y-41224D01*
X49620Y-41893D02*
X49120Y-41893D01*
X49120Y-40949D02*
X49620Y-40949D01*
X47815Y-36184D02*
X47815Y-35909D01*
X47815Y-36578D02*
X47815Y-36853D01*
X47303Y-36184D02*
X47303Y-35909D01*
X47303Y-36853D02*
X47303Y-36578D01*
X47309Y-35909D02*
X47809Y-35909D01*
X47809Y-36853D02*
X47309Y-36853D01*
X44586Y-36184D02*
X44586Y-35909D01*
X44586Y-36578D02*
X44586Y-36853D01*
X44074Y-36184D02*
X44074Y-35909D01*
X44074Y-36853D02*
X44074Y-36578D01*
X44080Y-35909D02*
X44580Y-35909D01*
X44580Y-36853D02*
X44080Y-36853D01*
X61220Y-40102D02*
X61495Y-40102D01*
X60826Y-40102D02*
X60551Y-40102D01*
X61220Y-39590D02*
X61495Y-39590D01*
X60551Y-39590D02*
X60826Y-39590D01*
X61495Y-39596D02*
X61495Y-40096D01*
X60551Y-40096D02*
X60551Y-39596D01*
X56756Y-45903D02*
X56756Y-45628D01*
X56756Y-46297D02*
X56756Y-46572D01*
X56244Y-45903D02*
X56244Y-45628D01*
X56244Y-46572D02*
X56244Y-46297D01*
X56250Y-45628D02*
X56750Y-45628D01*
X56750Y-46572D02*
X56250Y-46572D01*
X57956Y-45903D02*
X57956Y-45628D01*
X57956Y-46297D02*
X57956Y-46572D01*
X57444Y-45903D02*
X57444Y-45628D01*
X57444Y-46572D02*
X57444Y-46297D01*
X57450Y-45628D02*
X57950Y-45628D01*
X57950Y-46572D02*
X57450Y-46572D01*
X56156Y-45903D02*
X56156Y-45628D01*
X56156Y-46297D02*
X56156Y-46572D01*
X55644Y-45903D02*
X55644Y-45628D01*
X55644Y-46572D02*
X55644Y-46297D01*
X55650Y-45628D02*
X56150Y-45628D01*
X56150Y-46572D02*
X55650Y-46572D01*
X55556Y-45903D02*
X55556Y-45628D01*
X55556Y-46297D02*
X55556Y-46572D01*
X55044Y-45903D02*
X55044Y-45628D01*
X55044Y-46572D02*
X55044Y-46297D01*
X55050Y-45628D02*
X55550Y-45628D01*
X55550Y-46572D02*
X55050Y-46572D01*
X54956Y-45903D02*
X54956Y-45628D01*
X54956Y-46297D02*
X54956Y-46572D01*
X54444Y-45903D02*
X54444Y-45628D01*
X54444Y-46572D02*
X54444Y-46297D01*
X54450Y-45628D02*
X54950Y-45628D01*
X54950Y-46572D02*
X54450Y-46572D01*
X58110Y-42425D02*
X58385Y-42425D01*
X57716Y-42425D02*
X57441Y-42425D01*
X58110Y-41913D02*
X58385Y-41913D01*
X57441Y-41913D02*
X57716Y-41913D01*
X58385Y-41919D02*
X58385Y-42419D01*
X57441Y-42419D02*
X57441Y-41919D01*
X58464Y-41972D02*
X58464Y-42247D01*
X58464Y-41578D02*
X58464Y-41303D01*
X58976Y-41972D02*
X58976Y-42247D01*
X58976Y-41303D02*
X58976Y-41578D01*
X58970Y-42247D02*
X58470Y-42247D01*
X58470Y-41303D02*
X58970Y-41303D01*
X42185Y-36184D02*
X42185Y-35909D01*
X42185Y-36578D02*
X42185Y-36853D01*
X41673Y-36184D02*
X41673Y-35909D01*
X41673Y-36853D02*
X41673Y-36578D01*
X41679Y-35909D02*
X42179Y-35909D01*
X42179Y-36853D02*
X41679Y-36853D01*
X43996Y-36184D02*
X43996Y-35909D01*
X43996Y-36578D02*
X43996Y-36853D01*
X43484Y-36184D02*
X43484Y-35909D01*
X43484Y-36853D02*
X43484Y-36578D01*
X43490Y-35909D02*
X43990Y-35909D01*
X43990Y-36853D02*
X43490Y-36853D01*
X60157Y-34866D02*
X60432Y-34866D01*
X59763Y-34866D02*
X59488Y-34866D01*
X60157Y-34354D02*
X60432Y-34354D01*
X59488Y-34354D02*
X59763Y-34354D01*
X60432Y-34360D02*
X60432Y-34860D01*
X59488Y-34860D02*
X59488Y-34360D01*
X60157Y-35417D02*
X60432Y-35417D01*
X59763Y-35417D02*
X59488Y-35417D01*
X60157Y-34905D02*
X60432Y-34905D01*
X59488Y-34905D02*
X59763Y-34905D01*
X60432Y-34911D02*
X60432Y-35411D01*
X59488Y-35411D02*
X59488Y-34911D01*
X47480Y-45062D02*
X47205Y-45062D01*
X47874Y-45062D02*
X48149Y-45062D01*
X47480Y-45574D02*
X47205Y-45574D01*
X48149Y-45574D02*
X47874Y-45574D01*
X47205Y-45568D02*
X47205Y-45068D01*
X48149Y-45068D02*
X48149Y-45568D01*
X61220Y-39551D02*
X61495Y-39551D01*
X60826Y-39551D02*
X60551Y-39551D01*
X61220Y-39039D02*
X61495Y-39039D01*
X60551Y-39039D02*
X60826Y-39039D01*
X61495Y-39045D02*
X61495Y-39545D01*
X60551Y-39545D02*
X60551Y-39045D01*
X62519Y-38606D02*
X62794Y-38606D01*
X62125Y-38606D02*
X61850Y-38606D01*
X62519Y-38094D02*
X62794Y-38094D01*
X61850Y-38094D02*
X62125Y-38094D01*
X62794Y-38100D02*
X62794Y-38600D01*
X61850Y-38600D02*
X61850Y-38100D01*
X61220Y-38606D02*
X61495Y-38606D01*
X60826Y-38606D02*
X60551Y-38606D01*
X61220Y-38094D02*
X61495Y-38094D01*
X60551Y-38094D02*
X60826Y-38094D01*
X61495Y-38100D02*
X61495Y-38600D01*
X60551Y-38600D02*
X60551Y-38100D01*
X56830Y-41578D02*
X56830Y-41853D01*
X56830Y-41184D02*
X56830Y-40909D01*
X57342Y-41578D02*
X57342Y-41853D01*
X57342Y-40909D02*
X57342Y-41184D01*
X57336Y-41853D02*
X56836Y-41853D01*
X56836Y-40909D02*
X57336Y-40909D01*
X62067Y-39925D02*
X62067Y-39650D01*
X62067Y-40319D02*
X62067Y-40594D01*
X61555Y-39925D02*
X61555Y-39650D01*
X61555Y-40594D02*
X61555Y-40319D01*
X61561Y-39650D02*
X62061Y-39650D01*
X62061Y-40594D02*
X61561Y-40594D01*
X60689Y-36657D02*
X60689Y-36382D01*
X60689Y-37051D02*
X60689Y-37326D01*
X60177Y-36657D02*
X60177Y-36382D01*
X60177Y-37326D02*
X60177Y-37051D01*
X60183Y-36382D02*
X60683Y-36382D01*
X60683Y-37326D02*
X60183Y-37326D01*
X53326Y-37602D02*
X53326Y-37877D01*
X53326Y-37208D02*
X53326Y-36933D01*
X53838Y-37602D02*
X53838Y-37877D01*
X53838Y-36933D02*
X53838Y-37208D01*
X53832Y-37877D02*
X53332Y-37877D01*
X53332Y-36933D02*
X53832Y-36933D01*
X59232Y-35240D02*
X59232Y-34965D01*
X59232Y-35634D02*
X59232Y-35909D01*
X58720Y-35240D02*
X58720Y-34965D01*
X58720Y-35909D02*
X58720Y-35634D01*
X58726Y-34965D02*
X59226Y-34965D01*
X59226Y-35909D02*
X58726Y-35909D01*
X62657Y-37759D02*
X62657Y-38034D01*
X62657Y-37365D02*
X62657Y-37090D01*
X63169Y-37759D02*
X63169Y-38034D01*
X63169Y-37090D02*
X63169Y-37365D01*
X63163Y-38034D02*
X62663Y-38034D01*
X62663Y-37090D02*
X63163Y-37090D01*
X61417Y-37346D02*
X61692Y-37346D01*
X61023Y-37346D02*
X60748Y-37346D01*
X61417Y-36834D02*
X61692Y-36834D01*
X60748Y-36834D02*
X61023Y-36834D01*
X61692Y-36840D02*
X61692Y-37340D01*
X60748Y-37340D02*
X60748Y-36840D01*
X61417Y-37897D02*
X61692Y-37897D01*
X61023Y-37897D02*
X60748Y-37897D01*
X61417Y-37385D02*
X61692Y-37385D01*
X60748Y-37385D02*
X61023Y-37385D01*
X61692Y-37391D02*
X61692Y-37891D01*
X60748Y-37891D02*
X60748Y-37391D01*
X60137Y-36657D02*
X60137Y-36382D01*
X60137Y-37051D02*
X60137Y-37326D01*
X59625Y-36657D02*
X59625Y-36382D01*
X59625Y-37326D02*
X59625Y-37051D01*
X59631Y-36382D02*
X60131Y-36382D01*
X60131Y-37326D02*
X59631Y-37326D01*
X55944Y-34747D02*
X55669Y-34747D01*
X56338Y-34747D02*
X56613Y-34747D01*
X55944Y-35259D02*
X55669Y-35259D01*
X56613Y-35259D02*
X56338Y-35259D01*
X55669Y-35253D02*
X55669Y-34753D01*
X56613Y-34753D02*
X56613Y-35253D01*
X56240Y-41578D02*
X56240Y-41853D01*
X56240Y-41184D02*
X56240Y-40909D01*
X56752Y-41578D02*
X56752Y-41853D01*
X56752Y-40909D02*
X56752Y-41184D01*
X56746Y-41853D02*
X56246Y-41853D01*
X56246Y-40909D02*
X56746Y-40909D01*
X41614Y-39826D02*
X41339Y-39826D01*
X42008Y-39826D02*
X42283Y-39826D01*
X41614Y-40338D02*
X41339Y-40338D01*
X42283Y-40338D02*
X42008Y-40338D01*
X41339Y-40332D02*
X41339Y-39832D01*
X42283Y-39832D02*
X42283Y-40332D01*
X46614Y-45574D02*
X46889Y-45574D01*
X46220Y-45574D02*
X45945Y-45574D01*
X46614Y-45062D02*
X46889Y-45062D01*
X45945Y-45062D02*
X46220Y-45062D01*
X46889Y-45068D02*
X46889Y-45568D01*
X45945Y-45568D02*
X45945Y-45068D01*
G54D18*
X62572Y-37112D02*
X62572Y-38012D01*
X62572Y-38012D02*
X62072Y-38012D01*
X62072Y-38012D02*
X62072Y-37112D01*
X62072Y-37112D02*
X62572Y-37112D01*
X61473Y-40647D02*
X60573Y-40647D01*
X60573Y-40647D02*
X60573Y-40147D01*
X60573Y-40147D02*
X61473Y-40147D01*
X61473Y-40147D02*
X61473Y-40647D01*
G54D10*
X52715Y-27205D02*
X52715Y-33504D01*
X60982Y-33504D02*
X60982Y-27205D01*
X60982Y-27205D02*
X49171Y-27205D01*
X49171Y-27205D02*
X49171Y-33504D01*
X49171Y-33504D02*
X60982Y-33504D01*
X58779Y-40003D02*
X54842Y-40003D01*
X54842Y-40003D02*
X54842Y-36066D01*
X54842Y-36066D02*
X58779Y-36066D01*
X58779Y-36066D02*
X58779Y-40003D01*
X45629Y-45633D02*
X50118Y-45633D01*
X50118Y-45633D02*
X50118Y-47523D01*
X50118Y-47523D02*
X45629Y-47523D01*
X45629Y-47523D02*
X45629Y-45633D01*
X55629Y-42484D02*
X60118Y-42484D01*
X60118Y-42484D02*
X60118Y-44374D01*
X60118Y-44374D02*
X55629Y-44374D01*
X55629Y-44374D02*
X55629Y-42484D01*
X75740Y-42184D02*
X75740Y-35963D01*
X75740Y-35963D02*
X67157Y-35963D01*
X67157Y-35963D02*
X67157Y-42184D01*
X67157Y-42184D02*
X75740Y-42184D01*
X35444Y-37637D02*
X35444Y-40590D01*
X35444Y-40590D02*
X37412Y-40590D01*
X37412Y-40590D02*
X37412Y-37637D01*
X37412Y-37637D02*
X35444Y-37637D01*
G54D15*
X35979Y-44999D02*
X35979Y-41999D01*
X37979Y-41999D02*
X37979Y-44999D01*
X37979Y-44999D02*
X35979Y-44999D01*
X35979Y-41999D02*
X37979Y-41999D01*
G54D16*
X53844Y-46297D02*
X53844Y-46572D01*
X53844Y-45903D02*
X53844Y-45628D01*
X54356Y-46297D02*
X54356Y-46572D01*
X54356Y-45628D02*
X54356Y-45903D01*
X54350Y-46572D02*
X53850Y-46572D01*
X53850Y-45628D02*
X54350Y-45628D01*
G54D18*
X62204Y-41263D02*
X62482Y-41263D01*
X62482Y-41263D02*
X62482Y-40713D01*
X62482Y-40713D02*
X62204Y-40713D01*
X61532Y-41263D02*
X61810Y-41263D01*
X61532Y-41263D02*
X61532Y-40713D01*
X61532Y-40713D02*
X61810Y-40713D01*
G54D16*
X41476Y-37287D02*
X41476Y-37012D01*
X41476Y-37681D02*
X41476Y-37956D01*
X40964Y-37287D02*
X40964Y-37012D01*
X40964Y-37956D02*
X40964Y-37681D01*
X40970Y-37012D02*
X41470Y-37012D01*
X41470Y-37956D02*
X40970Y-37956D01*
G54D18*
X41361Y-38021D02*
X42261Y-38021D01*
X42261Y-38021D02*
X42261Y-38521D01*
X42261Y-38521D02*
X41361Y-38521D01*
X41361Y-38521D02*
X41361Y-38021D01*
X62519Y-35949D02*
X62241Y-35949D01*
X62241Y-35949D02*
X62241Y-36499D01*
X62241Y-36499D02*
X62519Y-36499D01*
X63191Y-35949D02*
X62913Y-35949D01*
X63191Y-35949D02*
X63191Y-36499D01*
X63191Y-36499D02*
X62913Y-36499D01*
X62519Y-35339D02*
X62241Y-35339D01*
X62241Y-35339D02*
X62241Y-35889D01*
X62241Y-35889D02*
X62519Y-35889D01*
X63191Y-35339D02*
X62913Y-35339D01*
X63191Y-35339D02*
X63191Y-35889D01*
X63191Y-35889D02*
X62913Y-35889D01*
X62008Y-42346D02*
X62008Y-42624D01*
X62008Y-42624D02*
X62558Y-42624D01*
X62558Y-42624D02*
X62558Y-42346D01*
X62008Y-41674D02*
X62008Y-41952D01*
X62008Y-41674D02*
X62558Y-41674D01*
X62558Y-41674D02*
X62558Y-41952D01*
X62618Y-42130D02*
X62618Y-42408D01*
X62618Y-42408D02*
X63168Y-42408D01*
X63168Y-42408D02*
X63168Y-42130D01*
X62618Y-41458D02*
X62618Y-41736D01*
X62618Y-41458D02*
X63168Y-41458D01*
X63168Y-41458D02*
X63168Y-41736D01*
X39153Y-41275D02*
X38875Y-41275D01*
X38875Y-41275D02*
X38875Y-41825D01*
X38875Y-41825D02*
X39153Y-41825D01*
X39825Y-41275D02*
X39547Y-41275D01*
X39825Y-41275D02*
X39825Y-41825D01*
X39825Y-41825D02*
X39547Y-41825D01*
G54D16*
X61515Y-35633D02*
X61240Y-35633D01*
X61909Y-35633D02*
X62184Y-35633D01*
X61515Y-36145D02*
X61240Y-36145D01*
X62184Y-36145D02*
X61909Y-36145D01*
X61240Y-36139D02*
X61240Y-35639D01*
X62184Y-35639D02*
X62184Y-36139D01*
X61279Y-42110D02*
X61004Y-42110D01*
X61673Y-42110D02*
X61948Y-42110D01*
X61279Y-42622D02*
X61004Y-42622D01*
X61948Y-42622D02*
X61673Y-42622D01*
X61004Y-42616D02*
X61004Y-42116D01*
X61948Y-42116D02*
X61948Y-42616D01*
G54D18*
X52450Y-46550D02*
X52450Y-45650D01*
X52450Y-45650D02*
X52950Y-45650D01*
X52950Y-45650D02*
X52950Y-46550D01*
X52950Y-46550D02*
X52450Y-46550D01*
X51850Y-46550D02*
X51850Y-45650D01*
X51850Y-45650D02*
X52350Y-45650D01*
X52350Y-45650D02*
X52350Y-46550D01*
X52350Y-46550D02*
X51850Y-46550D01*
G54D10*
X73897Y-29723D02*
G75*
G03X73897Y-29723I-1377J0D01*
G74*
G01*
X38897Y-29723D02*
G75*
G03X38897Y-29723I-1377J0D01*
G74*
G01*
X38897Y-48473D02*
G75*
G03X38897Y-48473I-1377J0D01*
G74*
G01*
X73897Y-48473D02*
G75*
G03X73897Y-48473I-1377J0D01*
G74*
G01*
%LPC*%
G54D19*
X45984Y-37557D03*
X45669Y-37557D03*
X45354Y-37557D03*
X45039Y-37557D03*
X44724Y-37557D03*
X44409Y-37557D03*
X46299Y-37557D03*
X46614Y-37557D03*
X46929Y-37557D03*
X47244Y-37557D03*
X47559Y-37557D03*
X45984Y-42057D03*
X45669Y-42057D03*
X45354Y-42057D03*
X45039Y-42057D03*
X44724Y-42057D03*
X44409Y-42057D03*
X46299Y-42057D03*
X46614Y-42057D03*
X46929Y-42057D03*
X47244Y-42057D03*
X47559Y-42057D03*
G54D20*
X43734Y-39807D03*
X48234Y-39807D03*
X43734Y-40122D03*
X48234Y-40122D03*
X48234Y-40437D03*
X43734Y-40437D03*
X43734Y-40752D03*
X48234Y-40752D03*
X48234Y-41067D03*
X43734Y-41067D03*
X43734Y-41382D03*
X48234Y-41382D03*
X48234Y-39492D03*
X43734Y-39492D03*
X43734Y-39177D03*
X48234Y-39177D03*
X48234Y-38862D03*
X43734Y-38862D03*
X43734Y-38547D03*
X48234Y-38547D03*
X48234Y-38232D03*
X43734Y-38232D03*
G54D21*
X52318Y-40049D03*
X51618Y-40049D03*
X51968Y-39249D03*
G54D22*
X42834Y-35791D03*
X43209Y-36657D03*
X42459Y-36657D03*
G54D23*
X41511Y-39492D03*
X42111Y-39492D03*
G54D24*
X61456Y-33483D03*
X61456Y-34083D03*
X58300Y-46400D03*
X58300Y-45800D03*
G54D23*
X39050Y-42200D03*
X39650Y-42200D03*
X51559Y-40555D03*
X50959Y-40555D03*
G54D24*
X48307Y-37272D03*
X48307Y-36672D03*
G54D23*
X43203Y-42799D03*
X43803Y-42799D03*
X57613Y-41578D03*
X58213Y-41578D03*
X41511Y-38862D03*
X42111Y-38862D03*
G54D24*
X53582Y-39467D03*
X53582Y-40067D03*
X52952Y-39467D03*
X52952Y-40067D03*
G54D23*
X61323Y-40988D03*
X60723Y-40988D03*
G54D24*
X72780Y-34910D03*
X72780Y-34310D03*
X73450Y-34910D03*
X73450Y-34310D03*
X57100Y-46400D03*
X57100Y-45800D03*
X62401Y-40422D03*
X62401Y-39822D03*
X44921Y-36681D03*
X44921Y-36081D03*
G54D23*
X44739Y-42799D03*
X45339Y-42799D03*
G54D24*
X49370Y-41121D03*
X49370Y-41721D03*
X47559Y-36681D03*
X47559Y-36081D03*
X44330Y-36681D03*
X44330Y-36081D03*
G54D23*
X60723Y-39846D03*
X61323Y-39846D03*
G54D24*
X56500Y-46400D03*
X56500Y-45800D03*
X57700Y-46400D03*
X57700Y-45800D03*
X55900Y-46400D03*
X55900Y-45800D03*
X55300Y-46400D03*
X55300Y-45800D03*
X54700Y-46400D03*
X54700Y-45800D03*
G54D23*
X57613Y-42169D03*
X58213Y-42169D03*
G54D24*
X58720Y-41475D03*
X58720Y-42075D03*
X41929Y-36681D03*
X41929Y-36081D03*
X43740Y-36681D03*
X43740Y-36081D03*
G54D23*
X59660Y-34610D03*
X60260Y-34610D03*
X59660Y-35161D03*
X60260Y-35161D03*
X47977Y-45318D03*
X47377Y-45318D03*
X60723Y-39295D03*
X61323Y-39295D03*
X62022Y-38350D03*
X62622Y-38350D03*
X60723Y-38350D03*
X61323Y-38350D03*
G54D24*
X57086Y-41081D03*
X57086Y-41681D03*
X61811Y-40422D03*
X61811Y-39822D03*
X60433Y-37154D03*
X60433Y-36554D03*
X53582Y-37105D03*
X53582Y-37705D03*
X58976Y-35737D03*
X58976Y-35137D03*
X62913Y-37262D03*
X62913Y-37862D03*
G54D23*
X60920Y-37090D03*
X61520Y-37090D03*
X60920Y-37641D03*
X61520Y-37641D03*
G54D24*
X59881Y-37154D03*
X59881Y-36554D03*
G54D23*
X56441Y-35003D03*
X55841Y-35003D03*
G54D24*
X56496Y-41081D03*
X56496Y-41681D03*
G54D23*
X42111Y-40082D03*
X41511Y-40082D03*
X46117Y-45318D03*
X46717Y-45318D03*
G54D24*
X62322Y-37262D03*
X62322Y-37862D03*
G54D23*
X61323Y-40397D03*
X60723Y-40397D03*
G54D25*
X60286Y-32808D03*
X59286Y-32808D03*
X60286Y-31808D03*
X59286Y-31808D03*
X60286Y-30808D03*
X59286Y-30808D03*
X60286Y-29808D03*
X59286Y-29808D03*
G54D26*
X59173Y-39531D03*
X59173Y-39374D03*
X59173Y-39216D03*
X59173Y-39059D03*
X59173Y-38901D03*
X59173Y-38744D03*
X59173Y-38586D03*
X59173Y-38429D03*
X59173Y-38271D03*
X59173Y-38114D03*
X59173Y-37956D03*
X59173Y-37799D03*
X59173Y-37641D03*
X59173Y-37484D03*
X59173Y-37326D03*
X59173Y-37169D03*
X59173Y-37011D03*
X59173Y-36854D03*
X59173Y-36696D03*
X59173Y-36539D03*
G54D27*
X58307Y-35673D03*
X58149Y-35673D03*
X57992Y-35673D03*
X57834Y-35673D03*
X57677Y-35673D03*
X57519Y-35673D03*
X57362Y-35673D03*
X57204Y-35673D03*
X57047Y-35673D03*
X56889Y-35673D03*
X56732Y-35673D03*
X56574Y-35673D03*
X56417Y-35673D03*
X56259Y-35673D03*
X56102Y-35673D03*
X55944Y-35673D03*
X55787Y-35673D03*
X55629Y-35673D03*
X55472Y-35673D03*
X55314Y-35673D03*
G54D26*
X54448Y-36539D03*
X54448Y-36696D03*
X54448Y-36854D03*
X54448Y-37011D03*
X54448Y-37169D03*
X54448Y-37326D03*
X54448Y-37484D03*
X54448Y-37641D03*
X54448Y-37799D03*
X54448Y-37956D03*
X54448Y-38114D03*
X54448Y-38271D03*
X54448Y-38429D03*
X54448Y-38586D03*
X54448Y-38744D03*
X54448Y-38901D03*
X54448Y-39059D03*
X54448Y-39216D03*
X54448Y-39374D03*
X54448Y-39531D03*
G54D27*
X55314Y-40397D03*
X55472Y-40397D03*
X55629Y-40397D03*
X55787Y-40397D03*
X55944Y-40397D03*
X56102Y-40397D03*
X56259Y-40397D03*
X56417Y-40397D03*
X56574Y-40397D03*
X56732Y-40397D03*
X56889Y-40397D03*
X57047Y-40397D03*
X57204Y-40397D03*
X57362Y-40397D03*
X57519Y-40397D03*
X57677Y-40397D03*
X57834Y-40397D03*
X57992Y-40397D03*
X58149Y-40397D03*
X58307Y-40397D03*
G54D28*
X46003Y-46578D03*
X49744Y-46578D03*
X56003Y-43429D03*
X59744Y-43429D03*
G54D29*
X71449Y-36824D03*
X71449Y-41324D03*
G54D30*
X68949Y-40824D03*
X67949Y-40324D03*
X68949Y-39824D03*
X67949Y-39324D03*
X68949Y-38824D03*
X67949Y-38324D03*
X68949Y-37824D03*
G54D31*
X70248Y-36012D03*
X70248Y-42135D03*
G54D30*
X67949Y-37324D03*
G54D32*
X72779Y-36583D03*
X73378Y-37583D03*
X72779Y-40564D03*
X73378Y-41564D03*
G54D33*
X37422Y-38602D03*
X37422Y-38858D03*
X37422Y-39114D03*
X37422Y-39369D03*
X37422Y-39625D03*
G54D34*
X37503Y-37972D03*
X37503Y-40255D03*
G54D35*
X36497Y-38041D03*
X36497Y-40186D03*
G54D36*
X36113Y-38735D03*
X36113Y-39492D03*
G54D37*
X36479Y-42499D03*
G54D30*
X37479Y-42499D03*
X36479Y-43499D03*
X37479Y-43499D03*
X36479Y-44499D03*
X37479Y-44499D03*
G54D24*
X54100Y-45800D03*
X54100Y-46400D03*
G54D23*
X62307Y-40988D03*
X61707Y-40988D03*
G54D24*
X41220Y-37784D03*
X41220Y-37184D03*
G54D23*
X41511Y-38271D03*
X42111Y-38271D03*
X62416Y-36224D03*
X63016Y-36224D03*
X62416Y-35614D03*
X63016Y-35614D03*
G54D24*
X62283Y-42449D03*
X62283Y-41849D03*
X62893Y-42233D03*
X62893Y-41633D03*
G54D23*
X39050Y-41550D03*
X39650Y-41550D03*
X62012Y-35889D03*
X61412Y-35889D03*
X61776Y-42366D03*
X61176Y-42366D03*
G54D38*
X71437Y-46997D03*
X71437Y-45225D03*
X68878Y-45225D03*
X68878Y-46997D03*
G54D24*
X52700Y-46400D03*
X52700Y-45800D03*
X52100Y-46400D03*
X52100Y-45800D03*
G54D39*
X58019Y-47110D03*
G54D40*
X39665Y-43330D03*
X39665Y-37425D03*
G54D39*
X57519Y-47110D03*
X57019Y-47110D03*
X56519Y-47110D03*
X56019Y-47110D03*
X55519Y-47110D03*
X55019Y-47110D03*
X54519Y-47110D03*
X54019Y-47110D03*
X53519Y-47110D03*
X53019Y-47110D03*
X52519Y-47110D03*
X52019Y-47110D03*
G54D41*
X72519Y-29723D03*
X37519Y-29723D03*
X37519Y-48473D03*
X72519Y-48473D03*
M02*
