G04 (created by PCBNEW (2013-07-07 BZR 4022)-stable) date 04/07/2014 12:13:18*
%MOIN*%
G04 Gerber Fmt 3.4, Leading zero omitted, Abs format*
%FSLAX34Y34*%
G01*
G70*
G90*
G04 APERTURE LIST*
%ADD10C,0.00590551*%
%ADD11C,0.00393701*%
G04 APERTURE END LIST*
G54D10*
G54D11*
X35531Y-48472D02*
X35531Y-29722D01*
X35531Y-48472D02*
G75*
G03X37518Y-50460I1987J0D01*
G74*
G01*
X72520Y-50460D02*
X37518Y-50460D01*
X72520Y-50460D02*
G75*
G03X74507Y-48472I0J1987D01*
G74*
G01*
X74507Y-29722D02*
X74507Y-48472D01*
X74507Y-29722D02*
G75*
G03X72520Y-27735I-1987J0D01*
G74*
G01*
X37518Y-27735D02*
X72520Y-27735D01*
X37518Y-27735D02*
G75*
G03X35531Y-29722I0J-1987D01*
G74*
G01*
G54D10*
G36*
X36831Y-43466D02*
X36830Y-43542D01*
X36814Y-43612D01*
X36787Y-43673D01*
X36746Y-43731D01*
X36698Y-43777D01*
X36637Y-43815D01*
X36576Y-43839D01*
X36505Y-43852D01*
X36439Y-43850D01*
X36369Y-43835D01*
X36309Y-43808D01*
X36249Y-43767D01*
X36204Y-43720D01*
X36165Y-43659D01*
X36140Y-43598D01*
X36127Y-43527D01*
X36128Y-43462D01*
X36143Y-43391D01*
X36169Y-43331D01*
X36210Y-43271D01*
X36257Y-43225D01*
X36317Y-43186D01*
X36378Y-43161D01*
X36449Y-43148D01*
X36515Y-43148D01*
X36586Y-43163D01*
X36646Y-43188D01*
X36706Y-43229D01*
X36752Y-43275D01*
X36792Y-43335D01*
X36817Y-43396D01*
X36817Y-43397D01*
X36817Y-43397D01*
X36824Y-43431D01*
X36831Y-43465D01*
X36831Y-43466D01*
X36831Y-43466D01*
G37*
G36*
X36831Y-44466D02*
X36830Y-44542D01*
X36814Y-44612D01*
X36787Y-44673D01*
X36746Y-44731D01*
X36698Y-44777D01*
X36637Y-44815D01*
X36576Y-44839D01*
X36505Y-44852D01*
X36439Y-44850D01*
X36369Y-44835D01*
X36309Y-44808D01*
X36249Y-44767D01*
X36204Y-44720D01*
X36165Y-44659D01*
X36140Y-44598D01*
X36127Y-44527D01*
X36128Y-44462D01*
X36143Y-44391D01*
X36169Y-44331D01*
X36210Y-44271D01*
X36257Y-44225D01*
X36317Y-44186D01*
X36378Y-44161D01*
X36449Y-44148D01*
X36515Y-44148D01*
X36586Y-44163D01*
X36646Y-44188D01*
X36706Y-44229D01*
X36752Y-44275D01*
X36792Y-44335D01*
X36817Y-44396D01*
X36817Y-44397D01*
X36817Y-44397D01*
X36824Y-44431D01*
X36831Y-44465D01*
X36831Y-44466D01*
X36831Y-44466D01*
G37*
G36*
X36831Y-42851D02*
X36128Y-42851D01*
X36128Y-42148D01*
X36831Y-42148D01*
X36831Y-42851D01*
X36831Y-42851D01*
G37*
G36*
X37831Y-42466D02*
X37830Y-42542D01*
X37814Y-42612D01*
X37787Y-42673D01*
X37746Y-42731D01*
X37698Y-42777D01*
X37637Y-42815D01*
X37576Y-42839D01*
X37505Y-42852D01*
X37439Y-42850D01*
X37369Y-42835D01*
X37309Y-42808D01*
X37249Y-42767D01*
X37204Y-42720D01*
X37165Y-42659D01*
X37140Y-42598D01*
X37127Y-42527D01*
X37128Y-42462D01*
X37143Y-42391D01*
X37169Y-42331D01*
X37210Y-42271D01*
X37257Y-42225D01*
X37317Y-42186D01*
X37378Y-42161D01*
X37449Y-42148D01*
X37515Y-42148D01*
X37586Y-42163D01*
X37646Y-42188D01*
X37706Y-42229D01*
X37752Y-42275D01*
X37792Y-42335D01*
X37817Y-42396D01*
X37817Y-42397D01*
X37817Y-42397D01*
X37824Y-42431D01*
X37831Y-42465D01*
X37831Y-42466D01*
X37831Y-42466D01*
G37*
G36*
X37831Y-43466D02*
X37830Y-43542D01*
X37814Y-43612D01*
X37787Y-43673D01*
X37746Y-43731D01*
X37698Y-43777D01*
X37637Y-43815D01*
X37576Y-43839D01*
X37505Y-43852D01*
X37439Y-43850D01*
X37369Y-43835D01*
X37309Y-43808D01*
X37249Y-43767D01*
X37204Y-43720D01*
X37165Y-43659D01*
X37140Y-43598D01*
X37127Y-43527D01*
X37128Y-43462D01*
X37143Y-43391D01*
X37169Y-43331D01*
X37210Y-43271D01*
X37257Y-43225D01*
X37317Y-43186D01*
X37378Y-43161D01*
X37449Y-43148D01*
X37515Y-43148D01*
X37586Y-43163D01*
X37646Y-43188D01*
X37706Y-43229D01*
X37752Y-43275D01*
X37792Y-43335D01*
X37817Y-43396D01*
X37817Y-43397D01*
X37817Y-43397D01*
X37824Y-43431D01*
X37831Y-43465D01*
X37831Y-43466D01*
X37831Y-43466D01*
G37*
G36*
X37831Y-44466D02*
X37830Y-44542D01*
X37814Y-44612D01*
X37787Y-44673D01*
X37746Y-44731D01*
X37698Y-44777D01*
X37637Y-44815D01*
X37576Y-44839D01*
X37505Y-44852D01*
X37439Y-44850D01*
X37369Y-44835D01*
X37309Y-44808D01*
X37249Y-44767D01*
X37204Y-44720D01*
X37165Y-44659D01*
X37140Y-44598D01*
X37127Y-44527D01*
X37128Y-44462D01*
X37143Y-44391D01*
X37169Y-44331D01*
X37210Y-44271D01*
X37257Y-44225D01*
X37317Y-44186D01*
X37378Y-44161D01*
X37449Y-44148D01*
X37515Y-44148D01*
X37586Y-44163D01*
X37646Y-44188D01*
X37706Y-44229D01*
X37752Y-44275D01*
X37792Y-44335D01*
X37817Y-44396D01*
X37817Y-44397D01*
X37817Y-44397D01*
X37824Y-44431D01*
X37831Y-44465D01*
X37831Y-44466D01*
X37831Y-44466D01*
G37*
G36*
X37842Y-38417D02*
X37164Y-38417D01*
X37164Y-38371D01*
X37164Y-38364D01*
X37161Y-38357D01*
X37156Y-38351D01*
X37148Y-38348D01*
X37141Y-38348D01*
X35825Y-38348D01*
X35825Y-37733D01*
X37141Y-37733D01*
X37148Y-37733D01*
X37156Y-37730D01*
X37161Y-37725D01*
X37164Y-37718D01*
X37164Y-37710D01*
X37164Y-37527D01*
X37842Y-37527D01*
X37842Y-38417D01*
X37842Y-38417D01*
G37*
G36*
X37842Y-40700D02*
X37164Y-40700D01*
X37164Y-40517D01*
X37164Y-40509D01*
X37161Y-40502D01*
X37156Y-40497D01*
X37148Y-40494D01*
X37141Y-40494D01*
X35825Y-40494D01*
X35825Y-39879D01*
X37141Y-39879D01*
X37148Y-39879D01*
X37156Y-39876D01*
X37161Y-39870D01*
X37164Y-39863D01*
X37164Y-39856D01*
X37164Y-39810D01*
X37842Y-39810D01*
X37842Y-40700D01*
X37842Y-40700D01*
G37*
G36*
X38850Y-29594D02*
X38846Y-29889D01*
X38788Y-30146D01*
X38683Y-30382D01*
X38531Y-30598D01*
X38344Y-30776D01*
X38121Y-30917D01*
X37880Y-31011D01*
X37620Y-31056D01*
X37362Y-31051D01*
X37104Y-30994D01*
X36868Y-30891D01*
X36651Y-30740D01*
X36472Y-30555D01*
X36329Y-30333D01*
X36234Y-30093D01*
X36186Y-29833D01*
X36190Y-29576D01*
X36245Y-29317D01*
X36346Y-29080D01*
X36496Y-28862D01*
X36680Y-28682D01*
X36901Y-28537D01*
X37140Y-28441D01*
X37400Y-28391D01*
X37657Y-28393D01*
X37916Y-28446D01*
X38154Y-28546D01*
X38373Y-28694D01*
X38554Y-28876D01*
X38701Y-29097D01*
X38799Y-29335D01*
X38850Y-29594D01*
X38850Y-29594D01*
G37*
G36*
X38850Y-48344D02*
X38846Y-48639D01*
X38788Y-48896D01*
X38683Y-49132D01*
X38531Y-49348D01*
X38344Y-49526D01*
X38121Y-49667D01*
X37880Y-49761D01*
X37620Y-49806D01*
X37362Y-49801D01*
X37104Y-49744D01*
X36868Y-49641D01*
X36651Y-49490D01*
X36472Y-49305D01*
X36329Y-49083D01*
X36234Y-48843D01*
X36186Y-48583D01*
X36190Y-48326D01*
X36245Y-48067D01*
X36346Y-47830D01*
X36496Y-47612D01*
X36680Y-47432D01*
X36901Y-47287D01*
X37140Y-47191D01*
X37400Y-47141D01*
X37657Y-47143D01*
X37916Y-47196D01*
X38154Y-47296D01*
X38373Y-47444D01*
X38554Y-47626D01*
X38701Y-47847D01*
X38799Y-48085D01*
X38850Y-48344D01*
X38850Y-48344D01*
G37*
G36*
X40110Y-37641D02*
X40110Y-37647D01*
X40110Y-37651D01*
X40110Y-37651D01*
X40100Y-37737D01*
X40100Y-37737D01*
X40100Y-37737D01*
X40074Y-37820D01*
X40032Y-37896D01*
X39976Y-37962D01*
X39908Y-38017D01*
X39832Y-38057D01*
X39748Y-38082D01*
X39662Y-38089D01*
X39575Y-38080D01*
X39493Y-38055D01*
X39416Y-38013D01*
X39349Y-37958D01*
X39294Y-37891D01*
X39254Y-37814D01*
X39228Y-37731D01*
X39220Y-37641D01*
X39220Y-37209D01*
X39220Y-37202D01*
X39220Y-37199D01*
X39220Y-37199D01*
X39230Y-37112D01*
X39230Y-37112D01*
X39230Y-37112D01*
X39256Y-37030D01*
X39298Y-36953D01*
X39353Y-36887D01*
X39421Y-36833D01*
X39498Y-36792D01*
X39582Y-36768D01*
X39668Y-36760D01*
X39754Y-36769D01*
X39837Y-36795D01*
X39914Y-36836D01*
X39980Y-36891D01*
X40035Y-36959D01*
X40076Y-37035D01*
X40101Y-37118D01*
X40110Y-37209D01*
X40110Y-37641D01*
X40110Y-37641D01*
G37*
G36*
X40110Y-43546D02*
X40110Y-43553D01*
X40110Y-43556D01*
X40110Y-43556D01*
X40100Y-43642D01*
X40100Y-43643D01*
X40100Y-43643D01*
X40074Y-43725D01*
X40032Y-43802D01*
X39976Y-43868D01*
X39908Y-43922D01*
X39832Y-43962D01*
X39748Y-43987D01*
X39662Y-43995D01*
X39575Y-43986D01*
X39493Y-43960D01*
X39416Y-43919D01*
X39349Y-43864D01*
X39294Y-43796D01*
X39254Y-43720D01*
X39228Y-43636D01*
X39220Y-43546D01*
X39220Y-43114D01*
X39220Y-43108D01*
X39220Y-43104D01*
X39220Y-43104D01*
X39230Y-43018D01*
X39230Y-43018D01*
X39230Y-43018D01*
X39256Y-42935D01*
X39298Y-42859D01*
X39353Y-42793D01*
X39421Y-42738D01*
X39498Y-42698D01*
X39582Y-42673D01*
X39668Y-42666D01*
X39754Y-42675D01*
X39837Y-42700D01*
X39914Y-42742D01*
X39980Y-42797D01*
X40035Y-42864D01*
X40076Y-42941D01*
X40101Y-43024D01*
X40110Y-43114D01*
X40110Y-43546D01*
X40110Y-43546D01*
G37*
G36*
X58268Y-47087D02*
X58267Y-47140D01*
X58255Y-47190D01*
X58237Y-47232D01*
X58207Y-47274D01*
X58174Y-47305D01*
X58130Y-47333D01*
X58088Y-47350D01*
X58037Y-47359D01*
X57991Y-47358D01*
X57941Y-47346D01*
X57899Y-47328D01*
X57856Y-47299D01*
X57825Y-47266D01*
X57797Y-47222D01*
X57789Y-47202D01*
X57786Y-47195D01*
X57780Y-47190D01*
X57773Y-47187D01*
X57766Y-47187D01*
X57758Y-47190D01*
X57753Y-47195D01*
X57737Y-47232D01*
X57707Y-47274D01*
X57674Y-47305D01*
X57630Y-47333D01*
X57588Y-47350D01*
X57537Y-47359D01*
X57491Y-47358D01*
X57441Y-47346D01*
X57399Y-47328D01*
X57356Y-47299D01*
X57325Y-47266D01*
X57297Y-47222D01*
X57289Y-47202D01*
X57286Y-47195D01*
X57280Y-47190D01*
X57273Y-47187D01*
X57266Y-47187D01*
X57258Y-47190D01*
X57253Y-47195D01*
X57237Y-47232D01*
X57207Y-47274D01*
X57174Y-47305D01*
X57130Y-47333D01*
X57088Y-47350D01*
X57037Y-47359D01*
X56991Y-47358D01*
X56941Y-47346D01*
X56899Y-47328D01*
X56856Y-47299D01*
X56825Y-47266D01*
X56797Y-47222D01*
X56789Y-47202D01*
X56786Y-47195D01*
X56780Y-47190D01*
X56773Y-47187D01*
X56766Y-47187D01*
X56758Y-47190D01*
X56753Y-47195D01*
X56737Y-47232D01*
X56707Y-47274D01*
X56674Y-47305D01*
X56630Y-47333D01*
X56588Y-47350D01*
X56537Y-47359D01*
X56491Y-47358D01*
X56441Y-47346D01*
X56399Y-47328D01*
X56356Y-47299D01*
X56325Y-47266D01*
X56297Y-47222D01*
X56289Y-47202D01*
X56286Y-47195D01*
X56280Y-47190D01*
X56273Y-47187D01*
X56266Y-47187D01*
X56258Y-47190D01*
X56253Y-47195D01*
X56237Y-47232D01*
X56207Y-47274D01*
X56174Y-47305D01*
X56130Y-47333D01*
X56088Y-47350D01*
X56037Y-47359D01*
X55991Y-47358D01*
X55941Y-47346D01*
X55899Y-47328D01*
X55856Y-47299D01*
X55825Y-47266D01*
X55797Y-47222D01*
X55789Y-47202D01*
X55786Y-47195D01*
X55780Y-47190D01*
X55773Y-47187D01*
X55766Y-47187D01*
X55758Y-47190D01*
X55753Y-47195D01*
X55737Y-47232D01*
X55707Y-47274D01*
X55674Y-47305D01*
X55630Y-47333D01*
X55588Y-47350D01*
X55537Y-47359D01*
X55491Y-47358D01*
X55441Y-47346D01*
X55399Y-47328D01*
X55356Y-47299D01*
X55325Y-47266D01*
X55297Y-47222D01*
X55289Y-47202D01*
X55286Y-47195D01*
X55280Y-47190D01*
X55273Y-47187D01*
X55266Y-47187D01*
X55258Y-47190D01*
X55253Y-47195D01*
X55237Y-47232D01*
X55207Y-47274D01*
X55174Y-47305D01*
X55130Y-47333D01*
X55088Y-47350D01*
X55037Y-47359D01*
X54991Y-47358D01*
X54941Y-47346D01*
X54899Y-47328D01*
X54856Y-47299D01*
X54825Y-47266D01*
X54797Y-47222D01*
X54789Y-47202D01*
X54786Y-47195D01*
X54780Y-47190D01*
X54773Y-47187D01*
X54766Y-47187D01*
X54758Y-47190D01*
X54753Y-47195D01*
X54737Y-47232D01*
X54707Y-47274D01*
X54674Y-47305D01*
X54630Y-47333D01*
X54588Y-47350D01*
X54537Y-47359D01*
X54491Y-47358D01*
X54441Y-47346D01*
X54399Y-47328D01*
X54356Y-47299D01*
X54325Y-47266D01*
X54297Y-47222D01*
X54289Y-47202D01*
X54286Y-47195D01*
X54280Y-47190D01*
X54273Y-47187D01*
X54266Y-47187D01*
X54258Y-47190D01*
X54253Y-47195D01*
X54237Y-47232D01*
X54207Y-47274D01*
X54174Y-47305D01*
X54130Y-47333D01*
X54088Y-47350D01*
X54037Y-47359D01*
X53991Y-47358D01*
X53941Y-47346D01*
X53899Y-47328D01*
X53856Y-47299D01*
X53825Y-47266D01*
X53797Y-47222D01*
X53789Y-47202D01*
X53786Y-47195D01*
X53780Y-47190D01*
X53773Y-47187D01*
X53766Y-47187D01*
X53758Y-47190D01*
X53753Y-47195D01*
X53737Y-47232D01*
X53707Y-47274D01*
X53674Y-47305D01*
X53630Y-47333D01*
X53588Y-47350D01*
X53537Y-47359D01*
X53491Y-47358D01*
X53441Y-47346D01*
X53399Y-47328D01*
X53356Y-47299D01*
X53325Y-47266D01*
X53297Y-47222D01*
X53289Y-47202D01*
X53286Y-47195D01*
X53280Y-47190D01*
X53273Y-47187D01*
X53266Y-47187D01*
X53258Y-47190D01*
X53253Y-47195D01*
X53237Y-47232D01*
X53207Y-47274D01*
X53174Y-47305D01*
X53130Y-47333D01*
X53088Y-47350D01*
X53037Y-47359D01*
X52991Y-47358D01*
X52941Y-47346D01*
X52899Y-47328D01*
X52856Y-47299D01*
X52825Y-47266D01*
X52797Y-47222D01*
X52789Y-47202D01*
X52786Y-47195D01*
X52780Y-47190D01*
X52773Y-47187D01*
X52766Y-47187D01*
X52758Y-47190D01*
X52753Y-47195D01*
X52737Y-47232D01*
X52707Y-47274D01*
X52674Y-47305D01*
X52630Y-47333D01*
X52588Y-47350D01*
X52537Y-47359D01*
X52491Y-47358D01*
X52441Y-47346D01*
X52399Y-47328D01*
X52356Y-47299D01*
X52325Y-47266D01*
X52297Y-47222D01*
X52289Y-47202D01*
X52286Y-47195D01*
X52280Y-47190D01*
X52273Y-47187D01*
X52266Y-47187D01*
X52258Y-47190D01*
X52253Y-47195D01*
X52237Y-47232D01*
X52207Y-47274D01*
X52174Y-47305D01*
X52130Y-47333D01*
X52088Y-47350D01*
X52037Y-47359D01*
X51991Y-47358D01*
X51941Y-47346D01*
X51899Y-47328D01*
X51856Y-47299D01*
X51825Y-47266D01*
X51797Y-47222D01*
X51780Y-47180D01*
X51771Y-47129D01*
X51771Y-47084D01*
X51782Y-47033D01*
X51800Y-46991D01*
X51829Y-46948D01*
X51862Y-46916D01*
X51905Y-46888D01*
X51947Y-46871D01*
X51998Y-46861D01*
X52043Y-46862D01*
X52095Y-46872D01*
X52136Y-46889D01*
X52180Y-46919D01*
X52211Y-46951D01*
X52240Y-46994D01*
X52250Y-47017D01*
X52253Y-47024D01*
X52258Y-47030D01*
X52265Y-47033D01*
X52273Y-47033D01*
X52280Y-47030D01*
X52285Y-47024D01*
X52300Y-46991D01*
X52329Y-46948D01*
X52362Y-46916D01*
X52405Y-46888D01*
X52447Y-46871D01*
X52498Y-46861D01*
X52543Y-46862D01*
X52595Y-46872D01*
X52636Y-46889D01*
X52680Y-46919D01*
X52711Y-46951D01*
X52740Y-46994D01*
X52750Y-47017D01*
X52753Y-47024D01*
X52758Y-47030D01*
X52765Y-47033D01*
X52773Y-47033D01*
X52780Y-47030D01*
X52785Y-47024D01*
X52800Y-46991D01*
X52829Y-46948D01*
X52862Y-46916D01*
X52905Y-46888D01*
X52947Y-46871D01*
X52998Y-46861D01*
X53043Y-46862D01*
X53095Y-46872D01*
X53136Y-46889D01*
X53180Y-46919D01*
X53211Y-46951D01*
X53240Y-46994D01*
X53250Y-47017D01*
X53253Y-47024D01*
X53258Y-47030D01*
X53265Y-47033D01*
X53273Y-47033D01*
X53280Y-47030D01*
X53285Y-47024D01*
X53300Y-46991D01*
X53329Y-46948D01*
X53362Y-46916D01*
X53405Y-46888D01*
X53447Y-46871D01*
X53498Y-46861D01*
X53543Y-46862D01*
X53595Y-46872D01*
X53636Y-46889D01*
X53680Y-46919D01*
X53711Y-46951D01*
X53740Y-46994D01*
X53750Y-47017D01*
X53753Y-47024D01*
X53758Y-47030D01*
X53765Y-47033D01*
X53773Y-47033D01*
X53780Y-47030D01*
X53785Y-47024D01*
X53800Y-46991D01*
X53829Y-46948D01*
X53862Y-46916D01*
X53905Y-46888D01*
X53947Y-46871D01*
X53998Y-46861D01*
X54043Y-46862D01*
X54095Y-46872D01*
X54136Y-46889D01*
X54180Y-46919D01*
X54211Y-46951D01*
X54240Y-46994D01*
X54250Y-47017D01*
X54253Y-47024D01*
X54258Y-47030D01*
X54265Y-47033D01*
X54273Y-47033D01*
X54280Y-47030D01*
X54285Y-47024D01*
X54300Y-46991D01*
X54329Y-46948D01*
X54362Y-46916D01*
X54405Y-46888D01*
X54447Y-46871D01*
X54498Y-46861D01*
X54543Y-46862D01*
X54595Y-46872D01*
X54636Y-46889D01*
X54680Y-46919D01*
X54711Y-46951D01*
X54740Y-46994D01*
X54750Y-47017D01*
X54753Y-47024D01*
X54758Y-47030D01*
X54765Y-47033D01*
X54773Y-47033D01*
X54780Y-47030D01*
X54785Y-47024D01*
X54800Y-46991D01*
X54829Y-46948D01*
X54862Y-46916D01*
X54905Y-46888D01*
X54947Y-46871D01*
X54998Y-46861D01*
X55043Y-46862D01*
X55095Y-46872D01*
X55136Y-46889D01*
X55180Y-46919D01*
X55211Y-46951D01*
X55240Y-46994D01*
X55250Y-47017D01*
X55253Y-47024D01*
X55258Y-47030D01*
X55265Y-47033D01*
X55273Y-47033D01*
X55280Y-47030D01*
X55285Y-47024D01*
X55300Y-46991D01*
X55329Y-46948D01*
X55362Y-46916D01*
X55405Y-46888D01*
X55447Y-46871D01*
X55498Y-46861D01*
X55543Y-46862D01*
X55595Y-46872D01*
X55636Y-46889D01*
X55680Y-46919D01*
X55711Y-46951D01*
X55740Y-46994D01*
X55750Y-47017D01*
X55753Y-47024D01*
X55758Y-47030D01*
X55765Y-47033D01*
X55773Y-47033D01*
X55780Y-47030D01*
X55785Y-47024D01*
X55800Y-46991D01*
X55829Y-46948D01*
X55862Y-46916D01*
X55905Y-46888D01*
X55947Y-46871D01*
X55998Y-46861D01*
X56043Y-46862D01*
X56095Y-46872D01*
X56136Y-46889D01*
X56180Y-46919D01*
X56211Y-46951D01*
X56240Y-46994D01*
X56250Y-47017D01*
X56253Y-47024D01*
X56258Y-47030D01*
X56265Y-47033D01*
X56273Y-47033D01*
X56280Y-47030D01*
X56285Y-47024D01*
X56300Y-46991D01*
X56329Y-46948D01*
X56362Y-46916D01*
X56405Y-46888D01*
X56447Y-46871D01*
X56498Y-46861D01*
X56543Y-46862D01*
X56595Y-46872D01*
X56636Y-46889D01*
X56680Y-46919D01*
X56711Y-46951D01*
X56740Y-46994D01*
X56750Y-47017D01*
X56753Y-47024D01*
X56758Y-47030D01*
X56765Y-47033D01*
X56773Y-47033D01*
X56780Y-47030D01*
X56785Y-47024D01*
X56800Y-46991D01*
X56829Y-46948D01*
X56862Y-46916D01*
X56905Y-46888D01*
X56947Y-46871D01*
X56998Y-46861D01*
X57043Y-46862D01*
X57095Y-46872D01*
X57136Y-46889D01*
X57180Y-46919D01*
X57211Y-46951D01*
X57240Y-46994D01*
X57250Y-47017D01*
X57253Y-47024D01*
X57258Y-47030D01*
X57265Y-47033D01*
X57273Y-47033D01*
X57280Y-47030D01*
X57285Y-47024D01*
X57300Y-46991D01*
X57329Y-46948D01*
X57362Y-46916D01*
X57405Y-46888D01*
X57447Y-46871D01*
X57498Y-46861D01*
X57543Y-46862D01*
X57595Y-46872D01*
X57636Y-46889D01*
X57680Y-46919D01*
X57711Y-46951D01*
X57740Y-46994D01*
X57750Y-47017D01*
X57753Y-47024D01*
X57758Y-47030D01*
X57765Y-47033D01*
X57773Y-47033D01*
X57780Y-47030D01*
X57785Y-47024D01*
X57800Y-46991D01*
X57829Y-46948D01*
X57862Y-46916D01*
X57905Y-46888D01*
X57947Y-46871D01*
X57998Y-46861D01*
X58043Y-46862D01*
X58095Y-46872D01*
X58136Y-46889D01*
X58180Y-46919D01*
X58211Y-46951D01*
X58240Y-46994D01*
X58257Y-47036D01*
X58267Y-47085D01*
X58268Y-47087D01*
X58268Y-47087D01*
G37*
G36*
X59691Y-29769D02*
X59690Y-29857D01*
X59672Y-29938D01*
X59641Y-30008D01*
X59593Y-30075D01*
X59538Y-30128D01*
X59468Y-30172D01*
X59397Y-30200D01*
X59315Y-30214D01*
X59239Y-30212D01*
X59158Y-30195D01*
X59088Y-30164D01*
X59020Y-30117D01*
X58967Y-30062D01*
X58922Y-29992D01*
X58894Y-29921D01*
X58879Y-29840D01*
X58880Y-29764D01*
X58897Y-29683D01*
X58927Y-29613D01*
X58974Y-29544D01*
X59029Y-29491D01*
X59098Y-29445D01*
X59169Y-29417D01*
X59250Y-29401D01*
X59326Y-29402D01*
X59408Y-29419D01*
X59478Y-29448D01*
X59547Y-29495D01*
X59600Y-29548D01*
X59646Y-29618D01*
X59675Y-29688D01*
X59691Y-29769D01*
X59691Y-29769D01*
G37*
G36*
X59691Y-30769D02*
X59690Y-30857D01*
X59672Y-30938D01*
X59641Y-31008D01*
X59593Y-31075D01*
X59538Y-31128D01*
X59468Y-31172D01*
X59397Y-31200D01*
X59315Y-31214D01*
X59239Y-31212D01*
X59158Y-31195D01*
X59088Y-31164D01*
X59020Y-31117D01*
X58967Y-31062D01*
X58922Y-30992D01*
X58894Y-30921D01*
X58879Y-30840D01*
X58880Y-30764D01*
X58897Y-30683D01*
X58927Y-30613D01*
X58974Y-30544D01*
X59029Y-30491D01*
X59098Y-30445D01*
X59169Y-30417D01*
X59250Y-30401D01*
X59326Y-30402D01*
X59408Y-30419D01*
X59478Y-30448D01*
X59547Y-30495D01*
X59600Y-30548D01*
X59646Y-30618D01*
X59675Y-30688D01*
X59691Y-30769D01*
X59691Y-30769D01*
G37*
G36*
X59691Y-31769D02*
X59690Y-31857D01*
X59672Y-31938D01*
X59641Y-32008D01*
X59593Y-32075D01*
X59538Y-32128D01*
X59468Y-32172D01*
X59397Y-32200D01*
X59315Y-32214D01*
X59239Y-32212D01*
X59158Y-32195D01*
X59088Y-32164D01*
X59020Y-32117D01*
X58967Y-32062D01*
X58922Y-31992D01*
X58894Y-31921D01*
X58879Y-31840D01*
X58880Y-31764D01*
X58897Y-31683D01*
X58927Y-31613D01*
X58974Y-31544D01*
X59029Y-31491D01*
X59098Y-31445D01*
X59169Y-31417D01*
X59250Y-31401D01*
X59326Y-31402D01*
X59408Y-31419D01*
X59478Y-31448D01*
X59547Y-31495D01*
X59600Y-31548D01*
X59646Y-31618D01*
X59675Y-31688D01*
X59691Y-31769D01*
X59691Y-31769D01*
G37*
G36*
X59691Y-32769D02*
X59690Y-32857D01*
X59672Y-32938D01*
X59641Y-33008D01*
X59593Y-33075D01*
X59538Y-33128D01*
X59468Y-33172D01*
X59397Y-33200D01*
X59315Y-33214D01*
X59239Y-33212D01*
X59158Y-33195D01*
X59088Y-33164D01*
X59020Y-33117D01*
X58967Y-33062D01*
X58922Y-32992D01*
X58894Y-32921D01*
X58879Y-32840D01*
X58880Y-32764D01*
X58897Y-32683D01*
X58927Y-32613D01*
X58974Y-32544D01*
X59029Y-32491D01*
X59098Y-32445D01*
X59169Y-32417D01*
X59250Y-32401D01*
X59326Y-32402D01*
X59408Y-32419D01*
X59478Y-32448D01*
X59547Y-32495D01*
X59600Y-32548D01*
X59646Y-32618D01*
X59675Y-32688D01*
X59691Y-32769D01*
X59691Y-32769D01*
G37*
G36*
X60691Y-29769D02*
X60690Y-29857D01*
X60672Y-29938D01*
X60641Y-30008D01*
X60593Y-30075D01*
X60538Y-30128D01*
X60468Y-30172D01*
X60397Y-30200D01*
X60315Y-30214D01*
X60239Y-30212D01*
X60158Y-30195D01*
X60088Y-30164D01*
X60020Y-30117D01*
X59967Y-30062D01*
X59922Y-29992D01*
X59894Y-29921D01*
X59879Y-29840D01*
X59880Y-29764D01*
X59897Y-29683D01*
X59927Y-29613D01*
X59974Y-29544D01*
X60029Y-29491D01*
X60098Y-29445D01*
X60169Y-29417D01*
X60250Y-29401D01*
X60326Y-29402D01*
X60408Y-29419D01*
X60478Y-29448D01*
X60547Y-29495D01*
X60600Y-29548D01*
X60646Y-29618D01*
X60675Y-29688D01*
X60691Y-29769D01*
X60691Y-29769D01*
G37*
G36*
X60691Y-30769D02*
X60690Y-30857D01*
X60672Y-30938D01*
X60641Y-31008D01*
X60593Y-31075D01*
X60538Y-31128D01*
X60468Y-31172D01*
X60397Y-31200D01*
X60315Y-31214D01*
X60239Y-31212D01*
X60158Y-31195D01*
X60088Y-31164D01*
X60020Y-31117D01*
X59967Y-31062D01*
X59922Y-30992D01*
X59894Y-30921D01*
X59879Y-30840D01*
X59880Y-30764D01*
X59897Y-30683D01*
X59927Y-30613D01*
X59974Y-30544D01*
X60029Y-30491D01*
X60098Y-30445D01*
X60169Y-30417D01*
X60250Y-30401D01*
X60326Y-30402D01*
X60408Y-30419D01*
X60478Y-30448D01*
X60547Y-30495D01*
X60600Y-30548D01*
X60646Y-30618D01*
X60675Y-30688D01*
X60691Y-30769D01*
X60691Y-30769D01*
G37*
G36*
X60691Y-31769D02*
X60690Y-31857D01*
X60672Y-31938D01*
X60641Y-32008D01*
X60593Y-32075D01*
X60538Y-32128D01*
X60468Y-32172D01*
X60397Y-32200D01*
X60315Y-32214D01*
X60239Y-32212D01*
X60158Y-32195D01*
X60088Y-32164D01*
X60020Y-32117D01*
X59967Y-32062D01*
X59922Y-31992D01*
X59894Y-31921D01*
X59879Y-31840D01*
X59880Y-31764D01*
X59897Y-31683D01*
X59927Y-31613D01*
X59974Y-31544D01*
X60029Y-31491D01*
X60098Y-31445D01*
X60169Y-31417D01*
X60250Y-31401D01*
X60326Y-31402D01*
X60408Y-31419D01*
X60478Y-31448D01*
X60547Y-31495D01*
X60600Y-31548D01*
X60646Y-31618D01*
X60675Y-31688D01*
X60691Y-31769D01*
X60691Y-31769D01*
G37*
G36*
X60691Y-32769D02*
X60690Y-32857D01*
X60672Y-32938D01*
X60641Y-33008D01*
X60593Y-33075D01*
X60538Y-33128D01*
X60468Y-33172D01*
X60397Y-33200D01*
X60315Y-33214D01*
X60239Y-33212D01*
X60158Y-33195D01*
X60088Y-33164D01*
X60020Y-33117D01*
X59967Y-33062D01*
X59922Y-32992D01*
X59894Y-32921D01*
X59879Y-32840D01*
X59880Y-32764D01*
X59897Y-32683D01*
X59927Y-32613D01*
X59974Y-32544D01*
X60029Y-32491D01*
X60098Y-32445D01*
X60169Y-32417D01*
X60250Y-32401D01*
X60326Y-32402D01*
X60408Y-32419D01*
X60478Y-32448D01*
X60547Y-32495D01*
X60600Y-32548D01*
X60646Y-32618D01*
X60675Y-32688D01*
X60691Y-32769D01*
X60691Y-32769D01*
G37*
G36*
X68300Y-37290D02*
X68299Y-37366D01*
X68283Y-37436D01*
X68256Y-37497D01*
X68215Y-37555D01*
X68167Y-37601D01*
X68106Y-37639D01*
X68045Y-37663D01*
X67974Y-37676D01*
X67908Y-37674D01*
X67838Y-37659D01*
X67778Y-37632D01*
X67718Y-37591D01*
X67673Y-37544D01*
X67634Y-37483D01*
X67610Y-37422D01*
X67597Y-37351D01*
X67597Y-37286D01*
X67612Y-37215D01*
X67638Y-37155D01*
X67679Y-37095D01*
X67726Y-37049D01*
X67786Y-37010D01*
X67847Y-36985D01*
X67918Y-36972D01*
X67984Y-36972D01*
X68055Y-36987D01*
X68115Y-37012D01*
X68175Y-37053D01*
X68221Y-37099D01*
X68261Y-37159D01*
X68286Y-37220D01*
X68286Y-37222D01*
X68286Y-37222D01*
X68293Y-37255D01*
X68300Y-37289D01*
X68300Y-37290D01*
X68300Y-37290D01*
G37*
G36*
X68300Y-38290D02*
X68299Y-38366D01*
X68283Y-38436D01*
X68256Y-38497D01*
X68215Y-38555D01*
X68167Y-38601D01*
X68106Y-38639D01*
X68045Y-38663D01*
X67974Y-38676D01*
X67908Y-38674D01*
X67838Y-38659D01*
X67778Y-38632D01*
X67718Y-38591D01*
X67673Y-38544D01*
X67634Y-38483D01*
X67610Y-38422D01*
X67597Y-38351D01*
X67597Y-38286D01*
X67612Y-38215D01*
X67638Y-38155D01*
X67679Y-38095D01*
X67726Y-38049D01*
X67786Y-38010D01*
X67847Y-37985D01*
X67918Y-37972D01*
X67984Y-37972D01*
X68055Y-37987D01*
X68115Y-38012D01*
X68175Y-38053D01*
X68221Y-38099D01*
X68261Y-38159D01*
X68286Y-38220D01*
X68286Y-38222D01*
X68286Y-38222D01*
X68293Y-38255D01*
X68300Y-38289D01*
X68300Y-38290D01*
X68300Y-38290D01*
G37*
G36*
X68300Y-39290D02*
X68299Y-39366D01*
X68283Y-39436D01*
X68256Y-39497D01*
X68215Y-39555D01*
X68167Y-39601D01*
X68106Y-39639D01*
X68045Y-39663D01*
X67974Y-39676D01*
X67908Y-39674D01*
X67838Y-39659D01*
X67778Y-39632D01*
X67718Y-39591D01*
X67673Y-39544D01*
X67634Y-39483D01*
X67610Y-39422D01*
X67597Y-39351D01*
X67597Y-39286D01*
X67612Y-39215D01*
X67638Y-39155D01*
X67679Y-39095D01*
X67726Y-39049D01*
X67786Y-39010D01*
X67847Y-38985D01*
X67918Y-38972D01*
X67984Y-38972D01*
X68055Y-38987D01*
X68115Y-39012D01*
X68175Y-39053D01*
X68221Y-39099D01*
X68261Y-39159D01*
X68286Y-39220D01*
X68286Y-39222D01*
X68286Y-39222D01*
X68293Y-39255D01*
X68300Y-39289D01*
X68300Y-39290D01*
X68300Y-39290D01*
G37*
G36*
X68300Y-40290D02*
X68299Y-40366D01*
X68283Y-40436D01*
X68256Y-40497D01*
X68215Y-40555D01*
X68167Y-40601D01*
X68106Y-40639D01*
X68045Y-40663D01*
X67974Y-40676D01*
X67908Y-40674D01*
X67838Y-40659D01*
X67778Y-40632D01*
X67718Y-40591D01*
X67673Y-40544D01*
X67634Y-40483D01*
X67610Y-40422D01*
X67597Y-40351D01*
X67597Y-40286D01*
X67612Y-40215D01*
X67638Y-40155D01*
X67679Y-40095D01*
X67726Y-40049D01*
X67786Y-40010D01*
X67847Y-39985D01*
X67918Y-39972D01*
X67984Y-39972D01*
X68055Y-39987D01*
X68115Y-40012D01*
X68175Y-40053D01*
X68221Y-40099D01*
X68261Y-40159D01*
X68286Y-40220D01*
X68286Y-40222D01*
X68286Y-40222D01*
X68293Y-40255D01*
X68300Y-40289D01*
X68300Y-40290D01*
X68300Y-40290D01*
G37*
G36*
X69300Y-37790D02*
X69299Y-37866D01*
X69283Y-37936D01*
X69256Y-37997D01*
X69215Y-38055D01*
X69167Y-38101D01*
X69106Y-38139D01*
X69045Y-38163D01*
X68974Y-38176D01*
X68908Y-38174D01*
X68838Y-38159D01*
X68778Y-38132D01*
X68718Y-38091D01*
X68673Y-38044D01*
X68634Y-37983D01*
X68610Y-37922D01*
X68597Y-37851D01*
X68597Y-37786D01*
X68612Y-37715D01*
X68638Y-37655D01*
X68679Y-37595D01*
X68726Y-37549D01*
X68786Y-37510D01*
X68847Y-37485D01*
X68918Y-37472D01*
X68984Y-37472D01*
X69055Y-37487D01*
X69115Y-37512D01*
X69175Y-37553D01*
X69221Y-37599D01*
X69261Y-37659D01*
X69286Y-37720D01*
X69286Y-37722D01*
X69286Y-37722D01*
X69293Y-37755D01*
X69300Y-37789D01*
X69300Y-37790D01*
X69300Y-37790D01*
G37*
G36*
X69300Y-38790D02*
X69299Y-38866D01*
X69283Y-38936D01*
X69256Y-38997D01*
X69215Y-39055D01*
X69167Y-39101D01*
X69106Y-39139D01*
X69045Y-39163D01*
X68974Y-39176D01*
X68908Y-39174D01*
X68838Y-39159D01*
X68778Y-39132D01*
X68718Y-39091D01*
X68673Y-39044D01*
X68634Y-38983D01*
X68610Y-38922D01*
X68597Y-38851D01*
X68597Y-38786D01*
X68612Y-38715D01*
X68638Y-38655D01*
X68679Y-38595D01*
X68726Y-38549D01*
X68786Y-38510D01*
X68847Y-38485D01*
X68918Y-38472D01*
X68984Y-38472D01*
X69055Y-38487D01*
X69115Y-38512D01*
X69175Y-38553D01*
X69221Y-38599D01*
X69261Y-38659D01*
X69286Y-38720D01*
X69286Y-38722D01*
X69286Y-38722D01*
X69293Y-38755D01*
X69300Y-38789D01*
X69300Y-38790D01*
X69300Y-38790D01*
G37*
G36*
X69300Y-39790D02*
X69299Y-39866D01*
X69283Y-39936D01*
X69256Y-39997D01*
X69215Y-40055D01*
X69167Y-40101D01*
X69106Y-40139D01*
X69045Y-40163D01*
X68974Y-40176D01*
X68908Y-40174D01*
X68838Y-40159D01*
X68778Y-40132D01*
X68718Y-40091D01*
X68673Y-40044D01*
X68634Y-39983D01*
X68610Y-39922D01*
X68597Y-39851D01*
X68597Y-39786D01*
X68612Y-39715D01*
X68638Y-39655D01*
X68679Y-39595D01*
X68726Y-39549D01*
X68786Y-39510D01*
X68847Y-39485D01*
X68918Y-39472D01*
X68984Y-39472D01*
X69055Y-39487D01*
X69115Y-39512D01*
X69175Y-39553D01*
X69221Y-39599D01*
X69261Y-39659D01*
X69286Y-39720D01*
X69286Y-39722D01*
X69286Y-39722D01*
X69293Y-39755D01*
X69300Y-39789D01*
X69300Y-39790D01*
X69300Y-39790D01*
G37*
G36*
X69300Y-40790D02*
X69299Y-40866D01*
X69283Y-40936D01*
X69256Y-40997D01*
X69215Y-41055D01*
X69167Y-41101D01*
X69106Y-41139D01*
X69045Y-41163D01*
X68974Y-41176D01*
X68908Y-41174D01*
X68838Y-41159D01*
X68778Y-41132D01*
X68718Y-41091D01*
X68673Y-41044D01*
X68634Y-40983D01*
X68610Y-40922D01*
X68597Y-40851D01*
X68597Y-40786D01*
X68612Y-40715D01*
X68638Y-40655D01*
X68679Y-40595D01*
X68726Y-40549D01*
X68786Y-40510D01*
X68847Y-40485D01*
X68918Y-40472D01*
X68984Y-40472D01*
X69055Y-40487D01*
X69115Y-40512D01*
X69175Y-40553D01*
X69221Y-40599D01*
X69261Y-40659D01*
X69286Y-40720D01*
X69286Y-40722D01*
X69286Y-40722D01*
X69293Y-40755D01*
X69300Y-40789D01*
X69300Y-40790D01*
X69300Y-40790D01*
G37*
G36*
X69323Y-45183D02*
X69322Y-45280D01*
X69302Y-45368D01*
X69267Y-45445D01*
X69215Y-45519D01*
X69154Y-45577D01*
X69078Y-45625D01*
X68999Y-45656D01*
X68911Y-45671D01*
X68826Y-45670D01*
X68738Y-45650D01*
X68661Y-45617D01*
X68587Y-45565D01*
X68528Y-45504D01*
X68479Y-45428D01*
X68448Y-45350D01*
X68432Y-45261D01*
X68433Y-45177D01*
X68452Y-45089D01*
X68485Y-45012D01*
X68536Y-44937D01*
X68596Y-44878D01*
X68672Y-44828D01*
X68750Y-44797D01*
X68839Y-44780D01*
X68923Y-44781D01*
X69012Y-44799D01*
X69089Y-44831D01*
X69164Y-44882D01*
X69223Y-44941D01*
X69274Y-45017D01*
X69305Y-45094D01*
X69323Y-45183D01*
X69323Y-45183D01*
G37*
G36*
X69323Y-46955D02*
X69322Y-47052D01*
X69302Y-47140D01*
X69267Y-47217D01*
X69215Y-47290D01*
X69154Y-47349D01*
X69078Y-47397D01*
X68999Y-47427D01*
X68911Y-47443D01*
X68826Y-47441D01*
X68738Y-47422D01*
X68661Y-47388D01*
X68587Y-47337D01*
X68528Y-47276D01*
X68479Y-47200D01*
X68448Y-47122D01*
X68432Y-47033D01*
X68433Y-46949D01*
X68452Y-46860D01*
X68485Y-46783D01*
X68536Y-46708D01*
X68596Y-46650D01*
X68672Y-46600D01*
X68750Y-46569D01*
X68839Y-46552D01*
X68923Y-46552D01*
X69012Y-46570D01*
X69089Y-46603D01*
X69164Y-46654D01*
X69223Y-46713D01*
X69274Y-46789D01*
X69305Y-46866D01*
X69323Y-46955D01*
X69323Y-46955D01*
G37*
G36*
X70791Y-35961D02*
X70790Y-36080D01*
X70765Y-36186D01*
X70723Y-36281D01*
X70660Y-36370D01*
X70585Y-36442D01*
X70493Y-36501D01*
X70396Y-36538D01*
X70288Y-36557D01*
X70185Y-36555D01*
X70077Y-36531D01*
X69983Y-36490D01*
X69893Y-36427D01*
X69821Y-36353D01*
X69761Y-36261D01*
X69723Y-36165D01*
X69703Y-36057D01*
X69705Y-35953D01*
X69728Y-35846D01*
X69768Y-35751D01*
X69830Y-35660D01*
X69904Y-35588D01*
X69996Y-35528D01*
X70092Y-35489D01*
X70200Y-35468D01*
X70303Y-35469D01*
X70411Y-35491D01*
X70506Y-35531D01*
X70597Y-35593D01*
X70670Y-35666D01*
X70731Y-35758D01*
X70770Y-35853D01*
X70791Y-35961D01*
X70791Y-35961D01*
G37*
G36*
X70791Y-42083D02*
X70790Y-42202D01*
X70765Y-42308D01*
X70723Y-42403D01*
X70660Y-42492D01*
X70585Y-42564D01*
X70493Y-42623D01*
X70396Y-42660D01*
X70288Y-42679D01*
X70185Y-42677D01*
X70077Y-42653D01*
X69983Y-42612D01*
X69893Y-42549D01*
X69821Y-42475D01*
X69761Y-42383D01*
X69723Y-42287D01*
X69703Y-42179D01*
X69705Y-42075D01*
X69728Y-41968D01*
X69768Y-41873D01*
X69830Y-41782D01*
X69904Y-41710D01*
X69996Y-41650D01*
X70092Y-41611D01*
X70200Y-41590D01*
X70303Y-41591D01*
X70411Y-41613D01*
X70506Y-41653D01*
X70597Y-41715D01*
X70670Y-41788D01*
X70731Y-41880D01*
X70770Y-41975D01*
X70791Y-42083D01*
X70791Y-42083D01*
G37*
G36*
X71882Y-45183D02*
X71881Y-45280D01*
X71861Y-45368D01*
X71826Y-45445D01*
X71774Y-45519D01*
X71713Y-45577D01*
X71637Y-45625D01*
X71559Y-45656D01*
X71470Y-45671D01*
X71385Y-45670D01*
X71297Y-45650D01*
X71220Y-45617D01*
X71146Y-45565D01*
X71087Y-45504D01*
X71038Y-45428D01*
X71007Y-45350D01*
X70991Y-45261D01*
X70992Y-45177D01*
X71011Y-45089D01*
X71044Y-45012D01*
X71095Y-44937D01*
X71155Y-44878D01*
X71231Y-44828D01*
X71309Y-44797D01*
X71398Y-44780D01*
X71482Y-44781D01*
X71571Y-44799D01*
X71648Y-44831D01*
X71723Y-44882D01*
X71782Y-44941D01*
X71833Y-45017D01*
X71864Y-45094D01*
X71882Y-45183D01*
X71882Y-45183D01*
G37*
G36*
X71882Y-46955D02*
X71881Y-47052D01*
X71861Y-47140D01*
X71826Y-47217D01*
X71774Y-47290D01*
X71713Y-47349D01*
X71637Y-47397D01*
X71559Y-47427D01*
X71470Y-47443D01*
X71385Y-47441D01*
X71297Y-47422D01*
X71220Y-47388D01*
X71146Y-47337D01*
X71087Y-47276D01*
X71038Y-47200D01*
X71007Y-47122D01*
X70991Y-47033D01*
X70992Y-46949D01*
X71011Y-46860D01*
X71044Y-46783D01*
X71095Y-46708D01*
X71155Y-46650D01*
X71231Y-46600D01*
X71309Y-46569D01*
X71398Y-46552D01*
X71482Y-46552D01*
X71571Y-46570D01*
X71648Y-46603D01*
X71723Y-46654D01*
X71782Y-46713D01*
X71833Y-46789D01*
X71864Y-46866D01*
X71882Y-46955D01*
X71882Y-46955D01*
G37*
G36*
X72287Y-36743D02*
X72285Y-36928D01*
X72248Y-37091D01*
X72182Y-37239D01*
X72086Y-37375D01*
X71969Y-37487D01*
X71827Y-37576D01*
X71677Y-37635D01*
X71512Y-37664D01*
X71350Y-37661D01*
X71187Y-37625D01*
X71039Y-37560D01*
X70901Y-37464D01*
X70789Y-37348D01*
X70698Y-37207D01*
X70639Y-37057D01*
X70609Y-36892D01*
X70611Y-36731D01*
X70646Y-36567D01*
X70709Y-36419D01*
X70804Y-36280D01*
X70919Y-36168D01*
X71060Y-36076D01*
X71209Y-36015D01*
X71374Y-35984D01*
X71535Y-35985D01*
X71699Y-36019D01*
X71848Y-36081D01*
X71987Y-36175D01*
X72100Y-36289D01*
X72194Y-36429D01*
X72255Y-36578D01*
X72287Y-36743D01*
X72287Y-36743D01*
G37*
G36*
X72287Y-41243D02*
X72285Y-41428D01*
X72248Y-41591D01*
X72182Y-41739D01*
X72086Y-41875D01*
X71969Y-41987D01*
X71827Y-42076D01*
X71677Y-42135D01*
X71512Y-42164D01*
X71350Y-42161D01*
X71187Y-42125D01*
X71039Y-42060D01*
X70901Y-41964D01*
X70789Y-41848D01*
X70698Y-41707D01*
X70639Y-41557D01*
X70609Y-41392D01*
X70611Y-41231D01*
X70646Y-41067D01*
X70709Y-40919D01*
X70804Y-40780D01*
X70919Y-40668D01*
X71060Y-40576D01*
X71209Y-40515D01*
X71374Y-40484D01*
X71535Y-40485D01*
X71699Y-40519D01*
X71848Y-40581D01*
X71987Y-40675D01*
X72100Y-40789D01*
X72194Y-40929D01*
X72255Y-41078D01*
X72287Y-41243D01*
X72287Y-41243D01*
G37*
G36*
X73165Y-36547D02*
X73164Y-36631D01*
X73147Y-36707D01*
X73117Y-36774D01*
X73072Y-36838D01*
X73019Y-36888D01*
X72953Y-36930D01*
X72885Y-36956D01*
X72807Y-36970D01*
X72735Y-36969D01*
X72658Y-36952D01*
X72591Y-36923D01*
X72527Y-36878D01*
X72476Y-36826D01*
X72433Y-36759D01*
X72407Y-36692D01*
X72393Y-36614D01*
X72394Y-36542D01*
X72410Y-36464D01*
X72439Y-36398D01*
X72483Y-36333D01*
X72535Y-36282D01*
X72601Y-36239D01*
X72668Y-36212D01*
X72746Y-36197D01*
X72818Y-36197D01*
X72896Y-36213D01*
X72962Y-36241D01*
X73028Y-36286D01*
X73079Y-36337D01*
X73123Y-36403D01*
X73150Y-36469D01*
X73165Y-36546D01*
X73165Y-36547D01*
X73165Y-36547D01*
G37*
G36*
X73165Y-40527D02*
X73164Y-40611D01*
X73147Y-40687D01*
X73117Y-40754D01*
X73072Y-40818D01*
X73019Y-40868D01*
X72953Y-40911D01*
X72885Y-40937D01*
X72807Y-40950D01*
X72735Y-40949D01*
X72658Y-40932D01*
X72591Y-40903D01*
X72527Y-40858D01*
X72476Y-40806D01*
X72433Y-40739D01*
X72407Y-40672D01*
X72393Y-40594D01*
X72394Y-40522D01*
X72410Y-40445D01*
X72439Y-40378D01*
X72483Y-40313D01*
X72535Y-40262D01*
X72601Y-40219D01*
X72668Y-40192D01*
X72746Y-40177D01*
X72818Y-40178D01*
X72896Y-40194D01*
X72962Y-40222D01*
X73028Y-40266D01*
X73079Y-40317D01*
X73123Y-40383D01*
X73150Y-40450D01*
X73165Y-40526D01*
X73165Y-40527D01*
X73165Y-40527D01*
G37*
G36*
X73764Y-37547D02*
X73763Y-37631D01*
X73745Y-37707D01*
X73716Y-37774D01*
X73670Y-37838D01*
X73618Y-37888D01*
X73551Y-37930D01*
X73483Y-37956D01*
X73406Y-37970D01*
X73333Y-37969D01*
X73256Y-37952D01*
X73190Y-37923D01*
X73125Y-37878D01*
X73075Y-37826D01*
X73032Y-37759D01*
X73005Y-37692D01*
X72991Y-37614D01*
X72992Y-37542D01*
X73008Y-37464D01*
X73037Y-37398D01*
X73082Y-37333D01*
X73133Y-37282D01*
X73199Y-37239D01*
X73266Y-37212D01*
X73344Y-37197D01*
X73416Y-37197D01*
X73494Y-37213D01*
X73561Y-37241D01*
X73626Y-37286D01*
X73677Y-37337D01*
X73721Y-37403D01*
X73748Y-37469D01*
X73763Y-37546D01*
X73764Y-37547D01*
X73764Y-37547D01*
G37*
G36*
X73764Y-41527D02*
X73763Y-41611D01*
X73745Y-41687D01*
X73716Y-41754D01*
X73670Y-41818D01*
X73618Y-41868D01*
X73551Y-41911D01*
X73483Y-41937D01*
X73406Y-41950D01*
X73333Y-41949D01*
X73256Y-41932D01*
X73190Y-41903D01*
X73125Y-41858D01*
X73075Y-41806D01*
X73032Y-41739D01*
X73005Y-41672D01*
X72991Y-41594D01*
X72992Y-41522D01*
X73008Y-41445D01*
X73037Y-41378D01*
X73082Y-41313D01*
X73133Y-41262D01*
X73199Y-41219D01*
X73266Y-41192D01*
X73344Y-41177D01*
X73416Y-41178D01*
X73494Y-41194D01*
X73561Y-41222D01*
X73626Y-41266D01*
X73677Y-41317D01*
X73721Y-41383D01*
X73748Y-41450D01*
X73763Y-41526D01*
X73764Y-41527D01*
X73764Y-41527D01*
G37*
G36*
X73850Y-29594D02*
X73846Y-29889D01*
X73788Y-30146D01*
X73683Y-30382D01*
X73531Y-30598D01*
X73344Y-30776D01*
X73121Y-30917D01*
X72880Y-31011D01*
X72620Y-31056D01*
X72362Y-31051D01*
X72104Y-30994D01*
X71868Y-30891D01*
X71651Y-30740D01*
X71472Y-30555D01*
X71329Y-30333D01*
X71234Y-30093D01*
X71186Y-29833D01*
X71190Y-29576D01*
X71245Y-29317D01*
X71346Y-29080D01*
X71496Y-28862D01*
X71680Y-28682D01*
X71901Y-28537D01*
X72140Y-28441D01*
X72400Y-28391D01*
X72657Y-28393D01*
X72916Y-28446D01*
X73154Y-28546D01*
X73373Y-28694D01*
X73554Y-28876D01*
X73701Y-29097D01*
X73799Y-29335D01*
X73850Y-29594D01*
X73850Y-29594D01*
G37*
G36*
X73850Y-48344D02*
X73846Y-48639D01*
X73788Y-48896D01*
X73683Y-49132D01*
X73531Y-49348D01*
X73344Y-49526D01*
X73121Y-49667D01*
X72880Y-49761D01*
X72620Y-49806D01*
X72362Y-49801D01*
X72104Y-49744D01*
X71868Y-49641D01*
X71651Y-49490D01*
X71472Y-49305D01*
X71329Y-49083D01*
X71234Y-48843D01*
X71186Y-48583D01*
X71190Y-48326D01*
X71245Y-48067D01*
X71346Y-47830D01*
X71496Y-47612D01*
X71680Y-47432D01*
X71901Y-47287D01*
X72140Y-47191D01*
X72400Y-47141D01*
X72657Y-47143D01*
X72916Y-47196D01*
X73154Y-47296D01*
X73373Y-47444D01*
X73554Y-47626D01*
X73701Y-47847D01*
X73799Y-48085D01*
X73850Y-48344D01*
X73850Y-48344D01*
G37*
M02*
