G04 #@! TF.FileFunction,Paste,Top*
%FSLAX46Y46*%
G04 Gerber Fmt 4.6, Leading zero omitted, Abs format (unit mm)*
G04 Created by KiCad (PCBNEW (2015-01-16 BZR 5376)-product) date 22/05/2015 17:40:37*
%MOMM*%
G01*
G04 APERTURE LIST*
%ADD10C,0.150000*%
%ADD11C,0.100000*%
%ADD12R,0.558800X1.676400*%
%ADD13R,1.676400X0.558800*%
%ADD14R,0.787400X1.295400*%
%ADD15R,1.295400X0.787400*%
%ADD16R,5.752400X2.352400*%
%ADD17R,1.902400X0.552400*%
%ADD18R,2.652400X1.577400*%
%ADD19R,1.052400X0.552400*%
%ADD20R,0.952500X1.153160*%
%ADD21R,1.002400X0.802400*%
G04 APERTURE END LIST*
D10*
D11*
X79767400Y39916100D02*
X-6110000Y39916100D01*
X83767900Y35915600D02*
G75*
G03X79767400Y39916100I-4000500J0D01*
G01*
X83767900Y0D02*
X83767900Y35915600D01*
X79767400Y-4000500D02*
G75*
G03X83767900Y0I0J4000500D01*
G01*
X-6110000Y-4000500D02*
X79767400Y-4000500D01*
X-10110500Y0D02*
G75*
G03X-6110000Y-4000500I4000500J0D01*
G01*
X-10110500Y35915600D02*
X-10110500Y0D01*
X-6110000Y39916100D02*
G75*
G03X-10110500Y35915600I0J-4000500D01*
G01*
D12*
X26428718Y21872818D03*
X25628618Y21872818D03*
X24828518Y21872818D03*
X24028418Y21872818D03*
X23228318Y21872818D03*
X22428218Y21872818D03*
X27228818Y21872818D03*
X28028918Y21872818D03*
X28829018Y21872818D03*
X29629118Y21872818D03*
X30429218Y21872818D03*
X26428718Y10442818D03*
X25628618Y10442818D03*
X24828518Y10442818D03*
X24028418Y10442818D03*
X23228318Y10442818D03*
X22428218Y10442818D03*
X27228818Y10442818D03*
X28028918Y10442818D03*
X28829018Y10442818D03*
X29629118Y10442818D03*
X30429218Y10442818D03*
D13*
X20713718Y16157818D03*
X32143718Y16157818D03*
X20713718Y15357718D03*
X32143718Y15357718D03*
X32143718Y14557618D03*
X20713718Y14557618D03*
X20713718Y13757518D03*
X32143718Y13757518D03*
X32143718Y12957418D03*
X20713718Y12957418D03*
X20713718Y12157318D03*
X32143718Y12157318D03*
X32143718Y16957918D03*
X20713718Y16957918D03*
X20713718Y17758018D03*
X32143718Y17758018D03*
X32143718Y18558118D03*
X20713718Y18558118D03*
X20713718Y19358218D03*
X32143718Y19358218D03*
X32143718Y20158318D03*
X20713718Y20158318D03*
D14*
X15066718Y16957818D03*
X16590718Y16957818D03*
X55466718Y29357818D03*
X56990718Y29357818D03*
X41590718Y15757818D03*
X40066718Y15757818D03*
X43790718Y20257818D03*
X42266718Y20257818D03*
X15666718Y28057818D03*
X17190718Y28057818D03*
D15*
X32328718Y22595818D03*
X32328718Y24119818D03*
D14*
X19366718Y8557818D03*
X20890718Y8557818D03*
X44490718Y13957818D03*
X42966718Y13957818D03*
X15066718Y18557818D03*
X16590718Y18557818D03*
X53766718Y26357818D03*
X55290718Y26357818D03*
X56466718Y17857818D03*
X57990718Y17857818D03*
X41190718Y20257818D03*
X39666718Y20257818D03*
D15*
X23728718Y24095818D03*
X23728718Y25619818D03*
D14*
X23266718Y8557818D03*
X24790718Y8557818D03*
D15*
X35028718Y12819818D03*
X35028718Y11295818D03*
X30428718Y24095818D03*
X30428718Y25619818D03*
X22228718Y24095818D03*
X22228718Y25619818D03*
D14*
X15666718Y29557818D03*
X17190718Y29557818D03*
X55290718Y27857818D03*
X53766718Y27857818D03*
X52740718Y26407818D03*
X51216718Y26407818D03*
X56466718Y19657818D03*
X57990718Y19657818D03*
X78145018Y4852498D03*
X79669018Y4852498D03*
X15890718Y24857818D03*
X14366718Y24857818D03*
D15*
X20728718Y24095818D03*
X20728718Y25619818D03*
D14*
X61366718Y29357818D03*
X62890718Y29357818D03*
X60290718Y29357818D03*
X58766718Y29357818D03*
X31490718Y2157818D03*
X29966718Y2157818D03*
D15*
X18428718Y28195818D03*
X18428718Y29719818D03*
D14*
X16590718Y15457818D03*
X15066718Y15457818D03*
X26766718Y2157818D03*
X28290718Y2157818D03*
D16*
X26478718Y-1042182D03*
X35978718Y-1042182D03*
D17*
X-5078962Y19255278D03*
X-5078962Y18605278D03*
X-5078962Y17955278D03*
X-5078962Y17305278D03*
X-5078962Y16655278D03*
D18*
X-8403962Y18917778D03*
X-8403962Y16992778D03*
D15*
X14328718Y21295818D03*
X14328718Y22819818D03*
D14*
X15066718Y20057818D03*
X16590718Y20057818D03*
D19*
X40128718Y18607818D03*
X40128718Y17957818D03*
X40128718Y17307818D03*
X41528718Y17307818D03*
X41528718Y17957818D03*
X41528718Y18607818D03*
D15*
X7591438Y16483158D03*
X7591438Y18007158D03*
X9422778Y16518718D03*
X9422778Y18042718D03*
D20*
X18428718Y26357638D03*
X19381218Y24157998D03*
X17476218Y24157998D03*
D21*
X3381726Y17532628D03*
X3381726Y18382628D03*
X1931726Y17532628D03*
X1931726Y18382628D03*
M02*
